<svg width="100" height="100" viewBox="0 0 100 100" fill="none" xmlns="http://www.w3.org/2000/svg">
<path d="M24.9996 68.75C24.5883 68.7524 24.1806 68.6736 23.7999 68.5181C23.4191 68.3626 23.0728 68.1334 22.7808 67.8438C22.4879 67.5533 22.2554 67.2077 22.0968 66.8268C21.9381 66.446 21.8564 66.0376 21.8564 65.625C21.8564 65.2125 21.9381 64.804 22.0968 64.4232C22.2554 64.0424 22.4879 63.6968 22.7808 63.4063L40.0933 46.125C40.3735 45.7979 40.7182 45.5322 41.1059 45.3446C41.4936 45.1571 41.9159 45.0517 42.3463 45.035C42.7766 45.0184 43.2058 45.0909 43.6068 45.248C44.0078 45.4052 44.372 45.6435 44.6766 45.948C44.9811 46.2526 45.2194 46.6168 45.3766 47.0178C45.5337 47.4188 45.6062 47.848 45.5896 48.2783C45.5729 48.7087 45.4675 49.131 45.28 49.5187C45.0924 49.9064 44.8267 50.2511 44.4996 50.5313L27.2183 67.8438C26.9263 68.1334 26.58 68.3626 26.1993 68.5181C25.8185 68.6736 25.4108 68.7524 24.9996 68.75ZM74.9996 68.75C74.5883 68.7524 74.1806 68.6736 73.7999 68.5181C73.4191 68.3626 73.0728 68.1334 72.7808 67.8438L55.4996 50.5313C54.9876 49.9335 54.7201 49.1645 54.7505 48.378C54.7808 47.5915 55.1069 46.8455 55.6634 46.2889C56.22 45.7324 56.966 45.4063 57.7525 45.3759C58.539 45.3456 59.308 45.6131 59.9058 46.125L77.2183 63.4063C77.5112 63.6968 77.7437 64.0424 77.9024 64.4232C78.061 64.804 78.1427 65.2125 78.1427 65.625C78.1427 66.0376 78.061 66.446 77.9024 66.8268C77.7437 67.2077 77.5112 67.5533 77.2183 67.8438C76.9263 68.1334 76.58 68.3626 76.1993 68.5181C75.8185 68.6736 75.4108 68.7524 74.9996 68.75Z" fill="#FEA249"/>
<path d="M59.375 27.0936C61.0037 25.3017 62.0769 23.0752 62.4642 20.6849C62.8514 18.2945 62.5359 15.8431 61.5562 13.6286C60.5765 11.4141 58.9746 9.53188 56.9453 8.21064C54.9159 6.8894 52.5465 6.18604 50.125 6.18604C47.7035 6.18604 45.3341 6.8894 43.3047 8.21064C41.2754 9.53188 39.6735 11.4141 38.6938 13.6286C37.7141 15.8431 37.3986 18.2945 37.7858 20.6849C38.1731 23.0752 39.2463 25.3017 40.875 27.0936C37.0855 28.8329 33.8721 31.6189 31.6132 35.1235C29.3543 38.6282 28.144 42.7054 28.125 46.8749C28.125 47.7037 28.4542 48.4985 29.0403 49.0846C29.6263 49.6706 30.4212 49.9999 31.25 49.9999H68.75C69.5788 49.9999 70.3737 49.6706 70.9597 49.0846C71.5458 48.4985 71.875 47.7037 71.875 46.8749C71.8782 42.7324 70.7052 38.6742 68.4923 35.1724C66.2794 31.6705 63.1177 28.869 59.375 27.0936ZM43.75 18.7499C43.75 17.5137 44.1166 16.3054 44.8033 15.2776C45.4901 14.2498 46.4662 13.4487 47.6082 12.9756C48.7503 12.5026 50.0069 12.3788 51.2193 12.62C52.4317 12.8611 53.5453 13.4564 54.4194 14.3305C55.2935 15.2045 55.8888 16.3182 56.1299 17.5306C56.3711 18.7429 56.2473 19.9996 55.7742 21.1416C55.3012 22.2837 54.5001 23.2598 53.4723 23.9466C52.4445 24.6333 51.2361 24.9999 50 24.9999C48.3424 24.9999 46.7527 24.3414 45.5806 23.1693C44.4085 21.9972 43.75 20.4075 43.75 18.7499ZM34.6875 43.7499C35.4047 40.2177 37.321 37.0421 40.1117 34.7612C42.9024 32.4802 46.3958 31.2342 50 31.2342C53.6042 31.2342 57.0976 32.4802 59.8883 34.7612C62.679 37.0421 64.5953 40.2177 65.3125 43.7499H34.6875ZM29.625 77.1249C30.679 75.5765 31.2449 73.7479 31.25 71.8749C31.25 69.3885 30.2623 67.0039 28.5041 65.2457C26.746 63.4876 24.3614 62.4999 21.875 62.4999C19.3886 62.4999 17.004 63.4876 15.2459 65.2457C13.4877 67.0039 12.5 69.3885 12.5 71.8749C12.5051 73.7479 13.071 75.5765 14.125 77.1249C11.7427 78.4856 9.7607 80.4497 8.37831 82.8195C6.99592 85.1893 6.26187 87.8814 6.25 90.6249C6.25 91.4537 6.57924 92.2485 7.16529 92.8346C7.75134 93.4206 8.5462 93.7499 9.375 93.7499H34.375C35.2038 93.7499 35.9987 93.4206 36.5847 92.8346C37.1708 92.2485 37.5 91.4537 37.5 90.6249C37.4881 87.8814 36.7541 85.1893 35.3717 82.8195C33.9893 80.4497 32.0073 78.4856 29.625 77.1249ZM18.75 71.8749C18.75 71.2568 18.9333 70.6526 19.2767 70.1387C19.62 69.6248 20.1081 69.2243 20.6791 68.9877C21.2501 68.7512 21.8785 68.6893 22.4847 68.8099C23.0908 68.9305 23.6477 69.2281 24.0847 69.6652C24.5217 70.1022 24.8194 70.659 24.94 71.2652C25.0605 71.8714 24.9986 72.4997 24.7621 73.0708C24.5256 73.6418 24.1251 74.1298 23.6112 74.4732C23.0973 74.8166 22.4931 74.9999 21.875 74.9999C21.0462 74.9999 20.2513 74.6706 19.6653 74.0846C19.0792 73.4985 18.75 72.7037 18.75 71.8749ZM13.0312 87.4999C13.6754 85.6687 14.8722 84.0826 16.4563 82.9605C18.0404 81.8385 19.9338 81.2359 21.875 81.2359C23.8162 81.2359 25.7096 81.8385 27.2937 82.9605C28.8778 84.0826 30.0746 85.6687 30.7188 87.4999H13.0312ZM85.875 77.1249C86.929 75.5765 87.4949 73.7479 87.5 71.8749C87.5 69.3885 86.5123 67.0039 84.7541 65.2457C82.996 63.4876 80.6114 62.4999 78.125 62.4999C75.6386 62.4999 73.254 63.4876 71.4959 65.2457C69.7377 67.0039 68.75 69.3885 68.75 71.8749C68.7551 73.7479 69.321 75.5765 70.375 77.1249C67.9927 78.4856 66.0107 80.4497 64.6283 82.8195C63.2459 85.1893 62.5119 87.8814 62.5 90.6249C62.5 91.4537 62.8292 92.2485 63.4153 92.8346C64.0013 93.4206 64.7962 93.7499 65.625 93.7499H90.625C91.4538 93.7499 92.2487 93.4206 92.8347 92.8346C93.4208 92.2485 93.75 91.4537 93.75 90.6249C93.7381 87.8814 93.0041 85.1893 91.6217 82.8195C90.2393 80.4497 88.2573 78.4856 85.875 77.1249ZM75 71.8749C75 71.2568 75.1833 70.6526 75.5267 70.1387C75.87 69.6248 76.3581 69.2243 76.9291 68.9877C77.5001 68.7512 78.1285 68.6893 78.7347 68.8099C79.3409 68.9305 79.8977 69.2281 80.3347 69.6652C80.7718 70.1022 81.0694 70.659 81.19 71.2652C81.3105 71.8714 81.2486 72.4997 81.0121 73.0708C80.7756 73.6418 80.3751 74.1298 79.8612 74.4732C79.3473 74.8166 78.7431 74.9999 78.125 74.9999C77.2962 74.9999 76.5013 74.6706 75.9153 74.0846C75.3292 73.4985 75 72.7037 75 71.8749ZM69.2812 87.4999C69.9254 85.6687 71.1222 84.0826 72.7063 82.9605C74.2904 81.8385 76.1838 81.2359 78.125 81.2359C80.0662 81.2359 81.9596 81.8385 83.5437 82.9605C85.1278 84.0826 86.3246 85.6687 86.9688 87.4999H69.2812Z" fill="#37474F"/>
</svg>
