<svg width="82" height="84" viewBox="0 0 82 84" fill="none" xmlns="http://www.w3.org/2000/svg">
<path fill-rule="evenodd" clip-rule="evenodd" d="M80.1982 31.0641C77.5354 14.6749 63.6146 2.48225 47.0175 2.00229C46.2283 1.97135 45.4593 2.25547 44.8798 2.79202C44.3003 3.32857 43.958 4.07352 43.9282 4.8627V5.12967L45.797 33.0854C45.9196 34.9673 47.5375 36.3978 49.4202 36.2891L77.4522 34.4203C78.2421 34.3619 78.9761 33.9909 79.4915 33.3896C80.007 32.7882 80.2613 32.0061 80.1982 31.2166V31.0641Z" stroke="#FF7E00" stroke-width="3" stroke-linecap="round" stroke-linejoin="round"/>
<path d="M27.6048 18.6308C29.388 18.2183 31.2127 19.1307 31.9527 20.8047C32.1465 21.1984 32.263 21.6257 32.2959 22.0633C32.6773 27.479 33.4782 39.3402 33.9359 45.7475C34.014 46.9017 34.5489 47.9771 35.4222 48.7358C36.2954 49.4946 37.435 49.874 38.5888 49.7902L62.1205 48.3409C63.171 48.2778 64.2009 48.6515 64.9665 49.3737C65.732 50.0959 66.1651 51.1024 66.1632 52.1548C65.2096 66.3647 55.0003 78.244 41.0953 81.3232C27.1903 84.4024 12.9201 77.944 6.0564 65.4653C4.00744 61.8737 2.70988 57.9032 2.24252 53.7948C2.04272 52.5339 1.96608 51.2566 2.01369 49.9809C2.05416 34.8059 12.7116 21.7306 27.5667 18.6308" stroke="#FF7E00" stroke-width="3" stroke-linecap="round" stroke-linejoin="round"/>
</svg>
