<svg width="100" height="100" viewBox="0 0 100 100" fill="none" xmlns="http://www.w3.org/2000/svg">
<path d="M90.625 6.25H9.375C8.5462 6.25 7.75134 6.57924 7.16529 7.16529C6.57924 7.75134 6.25 8.5462 6.25 9.375V90.625C6.25 91.4538 6.57924 92.2487 7.16529 92.8347C7.75134 93.4208 8.5462 93.75 9.375 93.75H90.625C91.4538 93.75 92.2487 93.4208 92.8347 92.8347C93.4208 92.2487 93.75 91.4538 93.75 90.625V9.375C93.75 8.5462 93.4208 7.75134 92.8347 7.16529C92.2487 6.57924 91.4538 6.25 90.625 6.25ZM87.5 12.5V18.75H12.5V12.5H87.5ZM12.5 87.5V25H87.5V87.5H12.5Z" fill="#37474F"/>
<path d="M81.25 84.375H62.5C61.6712 84.375 60.8763 84.0458 60.2903 83.4597C59.7042 82.8737 59.375 82.0788 59.375 81.25V62.5C59.375 61.6712 59.7042 60.8763 60.2903 60.2903C60.8763 59.7042 61.6712 59.375 62.5 59.375H81.25C82.0788 59.375 82.8737 59.7042 83.4597 60.2903C84.0458 60.8763 84.375 61.6712 84.375 62.5V81.25C84.375 82.0788 84.0458 82.8737 83.4597 83.4597C82.8737 84.0458 82.0788 84.375 81.25 84.375ZM65.625 78.125H78.125V65.625H65.625V78.125ZM78.125 37.5H21.875C21.0462 37.5 20.2513 37.1708 19.6653 36.5847C19.0792 35.9987 18.75 35.2038 18.75 34.375C18.75 33.5462 19.0792 32.7513 19.6653 32.1653C20.2513 31.5792 21.0462 31.25 21.875 31.25H78.125C78.9538 31.25 79.7487 31.5792 80.3347 32.1653C80.9208 32.7513 81.25 33.5462 81.25 34.375C81.25 35.2038 80.9208 35.9987 80.3347 36.5847C79.7487 37.1708 78.9538 37.5 78.125 37.5Z" fill="#FEA249"/>
<path d="M71.875 46.875H28.125C27.2962 46.875 26.5013 46.5458 25.9153 45.9597C25.3292 45.3737 25 44.5788 25 43.75C25 42.9212 25.3292 42.1263 25.9153 41.5403C26.5013 40.9542 27.2962 40.625 28.125 40.625H71.875C72.7038 40.625 73.4987 40.9542 74.0847 41.5403C74.6708 42.1263 75 42.9212 75 43.75C75 44.5788 74.6708 45.3737 74.0847 45.9597C73.4987 46.5458 72.7038 46.875 71.875 46.875ZM50 68.75H21.875C21.0462 68.75 20.2513 68.4208 19.6653 67.8347C19.0792 67.2487 18.75 66.4538 18.75 65.625C18.75 64.7962 19.0792 64.0013 19.6653 63.4153C20.2513 62.8292 21.0462 62.5 21.875 62.5H50C50.8288 62.5 51.6237 62.8292 52.2097 63.4153C52.7958 64.0013 53.125 64.7962 53.125 65.625C53.125 66.4538 52.7958 67.2487 52.2097 67.8347C51.6237 68.4208 50.8288 68.75 50 68.75ZM40.625 78.125H21.875C21.0462 78.125 20.2513 77.7958 19.6653 77.2097C19.0792 76.6237 18.75 75.8288 18.75 75C18.75 74.1712 19.0792 73.3763 19.6653 72.7903C20.2513 72.2042 21.0462 71.875 21.875 71.875H40.625C41.4538 71.875 42.2487 72.2042 42.8347 72.7903C43.4208 73.3763 43.75 74.1712 43.75 75C43.75 75.8288 43.4208 76.6237 42.8347 77.2097C42.2487 77.7958 41.4538 78.125 40.625 78.125Z" fill="#37474F"/>
</svg>
