<svg width="100" height="72" viewBox="0 0 100 72" fill="none" xmlns="http://www.w3.org/2000/svg">
<path d="M80.9405 56.6777C80.7902 56.678 80.6431 56.6337 80.5179 56.5503C80.3928 56.4668 80.2953 56.3481 80.2377 56.2092C80.1802 56.0703 80.1652 55.9174 80.1947 55.7699C80.2243 55.6225 80.2969 55.4871 80.4035 55.381C80.7567 55.027 80.9595 54.5378 80.9595 54.038C80.9595 53.5382 80.7567 53.049 80.4035 52.695C80.333 52.6245 80.277 52.5407 80.2388 52.4486C80.2007 52.3564 80.181 52.2577 80.181 52.1579C80.181 52.0582 80.2007 51.9594 80.2388 51.8673C80.277 51.7751 80.333 51.6914 80.4035 51.6209C80.474 51.5504 80.5577 51.4944 80.6499 51.4563C80.742 51.4181 80.8408 51.3984 80.9405 51.3984C81.0403 51.3984 81.139 51.4181 81.2312 51.4563C81.3233 51.4944 81.4071 51.5504 81.4776 51.6209C82.1141 52.2575 82.4788 53.1379 82.4788 54.038C82.4788 54.9382 82.1141 55.8186 81.4776 56.4551C81.3352 56.5976 81.142 56.6776 80.9405 56.6777Z" fill="#FF7E00"/>
<path d="M83.0895 58.8259C82.9391 58.8262 82.792 58.7819 82.6669 58.6985C82.5418 58.6151 82.4442 58.4964 82.3867 58.3574C82.3292 58.2185 82.3142 58.0656 82.3437 57.9181C82.3732 57.7707 82.4459 57.6353 82.5524 57.5292C83.4716 56.6101 83.998 55.3377 83.998 54.038C83.998 52.7383 83.4716 51.4659 82.5524 50.5468C82.4819 50.4763 82.426 50.3925 82.3878 50.3004C82.3496 50.2083 82.33 50.1095 82.33 50.0097C82.33 49.91 82.3496 49.8112 82.3878 49.7191C82.426 49.627 82.4819 49.5432 82.5524 49.4727C82.623 49.4022 82.7067 49.3462 82.7988 49.3081C82.891 49.2699 82.9897 49.2502 83.0895 49.2502C83.1892 49.2502 83.288 49.2699 83.3801 49.3081C83.4723 49.3462 83.556 49.4022 83.6265 49.4727C84.8283 50.6744 85.5172 52.3387 85.5172 54.038C85.5172 55.7373 84.8283 57.4016 83.6265 58.6033C83.5561 58.674 83.4724 58.7301 83.3803 58.7683C83.2881 58.8065 83.1893 58.8261 83.0895 58.8259Z" fill="#FF7E00"/>
<path d="M85.2377 60.9749C85.0873 60.9752 84.9402 60.9309 84.8151 60.8475C84.69 60.7641 84.5925 60.6454 84.5349 60.5064C84.4774 60.3675 84.4624 60.2146 84.4919 60.0671C84.5214 59.9197 84.5941 59.7843 84.7007 59.6782C86.1849 58.1932 87.0365 56.1376 87.0365 54.0381C87.0365 51.9385 86.1849 49.8829 84.7007 48.3979C84.6301 48.3273 84.5742 48.2436 84.536 48.1515C84.4978 48.0593 84.4782 47.9606 84.4782 47.8608C84.4782 47.7611 84.4978 47.6623 84.536 47.5702C84.5742 47.478 84.6301 47.3943 84.7007 47.3238C84.7712 47.2532 84.8549 47.1973 84.9471 47.1591C85.0392 47.121 85.138 47.1013 85.2377 47.1013C85.3374 47.1013 85.4362 47.121 85.5284 47.1591C85.6205 47.1973 85.7042 47.2532 85.7748 47.3238C87.5424 49.0914 88.5557 51.5389 88.5557 54.0381C88.5557 56.5372 87.5424 58.9847 85.7748 60.7523C85.7043 60.823 85.6206 60.879 85.5284 60.9172C85.4363 60.9554 85.3375 60.975 85.2377 60.9749ZM77.1804 56.6777C77.0806 56.6778 76.9818 56.6582 76.8897 56.62C76.7975 56.5818 76.7138 56.5258 76.6434 56.4552C76.0068 55.8186 75.6422 54.9382 75.6422 54.0381C75.6422 53.1379 76.0068 52.2575 76.6434 51.6209C76.7139 51.5504 76.7976 51.4945 76.8898 51.4563C76.9819 51.4181 77.0807 51.3985 77.1804 51.3985C77.2802 51.3985 77.3789 51.4181 77.4711 51.4563C77.5632 51.4945 77.6469 51.5504 77.7175 51.6209C77.788 51.6915 77.8439 51.7752 77.8821 51.8673C77.9203 51.9595 77.9399 52.0583 77.9399 52.158C77.9399 52.2577 77.9203 52.3565 77.8821 52.4486C77.8439 52.5408 77.788 52.6245 77.7175 52.695C77.3642 53.049 77.1614 53.5382 77.1614 54.0381C77.1614 54.5379 77.3642 55.0271 77.7175 55.3811C77.824 55.4872 77.8967 55.6225 77.9262 55.77C77.9557 55.9174 77.9407 56.0703 77.8832 56.2093C77.8257 56.3482 77.7281 56.4669 77.603 56.5503C77.4779 56.6337 77.3308 56.6781 77.1804 56.6777Z" fill="#FF7E00"/>
<path d="M75.0314 58.8259C74.9317 58.826 74.8329 58.8064 74.7407 58.7682C74.6485 58.73 74.5648 58.674 74.4944 58.6033C73.2927 57.4016 72.6037 55.7373 72.6037 54.038C72.6037 52.3387 73.2927 50.6744 74.4944 49.4727C74.5649 49.4022 74.6486 49.3462 74.7408 49.3081C74.8329 49.2699 74.9317 49.2502 75.0314 49.2502C75.1312 49.2502 75.2299 49.2699 75.3221 49.3081C75.4142 49.3462 75.498 49.4022 75.5685 49.4727C75.639 49.5432 75.695 49.627 75.7331 49.7191C75.7713 49.8112 75.791 49.91 75.791 50.0097C75.791 50.1095 75.7713 50.2083 75.7331 50.3004C75.695 50.3925 75.639 50.4763 75.5685 50.5468C74.6494 51.4659 74.1229 52.7383 74.1229 54.038C74.1229 55.3377 74.6494 56.6101 75.5685 57.5292C75.6751 57.6353 75.7477 57.7707 75.7772 57.9181C75.8067 58.0656 75.7918 58.2185 75.7342 58.3574C75.6767 58.4964 75.5792 58.6151 75.454 58.6985C75.3289 58.7819 75.1818 58.8262 75.0314 58.8259Z" fill="#FF7E00"/>
<path d="M72.8832 60.9749C72.7834 60.975 72.6846 60.9554 72.5925 60.9172C72.5003 60.879 72.4166 60.823 72.3462 60.7523C70.5785 58.9847 69.5652 56.5372 69.5652 54.0381C69.5652 51.5389 70.5785 49.0914 72.3462 47.3238C72.4167 47.2532 72.5004 47.1973 72.5926 47.1591C72.6847 47.121 72.7835 47.1013 72.8832 47.1013C72.9829 47.1013 73.0817 47.121 73.1739 47.1591C73.266 47.1973 73.3497 47.2532 73.4203 47.3238C73.4908 47.3943 73.5467 47.478 73.5849 47.5702C73.6231 47.6623 73.6427 47.7611 73.6427 47.8608C73.6427 47.9606 73.6231 48.0593 73.5849 48.1515C73.5467 48.2436 73.4908 48.3273 73.4203 48.3979C71.936 49.8829 71.0844 51.9385 71.0844 54.0381C71.0844 56.1376 71.936 58.1932 73.4203 59.6782C73.5268 59.7843 73.5995 59.9197 73.629 60.0671C73.6585 60.2146 73.6435 60.3675 73.586 60.5064C73.5284 60.6454 73.4309 60.7641 73.3058 60.8475C73.1807 60.9309 73.0336 60.9752 72.8832 60.9749Z" fill="#FF7E00"/>
<path d="M79.0605 54.7976C79.48 54.7976 79.8201 54.4575 79.8201 54.0379C79.8201 53.6184 79.48 53.2783 79.0605 53.2783C78.6409 53.2783 78.3008 53.6184 78.3008 54.0379C78.3008 54.4575 78.6409 54.7976 79.0605 54.7976Z" fill="#FF7E00"/>
<path d="M41.7989 16.0436H37.4864C37.2005 16.0436 36.9262 16.1581 36.7241 16.362C36.5219 16.5658 36.4083 16.8423 36.4083 17.1306C36.4083 17.4189 36.5219 17.6953 36.7241 17.8992C36.9262 18.103 37.2005 18.2175 37.4864 18.2175H40.5375C40.3399 18.7811 39.9924 19.2791 39.533 19.657C39.0737 20.0349 38.5201 20.2783 37.9329 20.3605C37.3456 20.4427 36.7473 20.3605 36.2032 20.1231C35.6591 19.8856 35.1902 19.5019 34.8477 19.0139C34.5053 18.526 34.3025 17.9525 34.2615 17.3562C34.2205 16.7599 34.3428 16.1637 34.6152 15.6327C34.8875 15.1017 35.2994 14.6565 35.8057 14.3456C36.3121 14.0346 36.8935 13.87 37.4864 13.8697C37.9699 13.8686 38.4473 13.9782 38.8826 14.1904C39.1349 14.2869 39.4139 14.2845 39.6645 14.1837C39.9151 14.083 40.1192 13.8911 40.2363 13.646C40.3535 13.4009 40.3752 13.1205 40.2972 12.86C40.2192 12.5996 40.0472 12.3781 39.8151 12.2393C39.0896 11.8829 38.2934 11.6971 37.4864 11.6958C36.4202 11.6958 35.378 12.0145 34.4916 12.6117C33.6051 13.2089 32.9141 14.0577 32.5061 15.0508C32.0981 16.0439 31.9914 17.1366 32.1994 18.1909C32.4074 19.2451 32.9208 20.2135 33.6747 20.9736C34.4286 21.7336 35.3891 22.2512 36.4348 22.4609C37.4804 22.6706 38.5643 22.563 39.5493 22.1517C40.5343 21.7403 41.3762 21.0437 41.9685 20.15C42.5609 19.2562 42.877 18.2055 42.877 17.1306C42.877 16.8423 42.7634 16.5658 42.5612 16.362C42.359 16.1581 42.0848 16.0436 41.7989 16.0436ZM18.6193 20.3915H13.2287V12.7828C13.2287 12.4945 13.1151 12.218 12.9129 12.0142C12.7108 11.8103 12.4365 11.6958 12.1506 11.6958C11.8647 11.6958 11.5904 11.8103 11.3883 12.0142C11.1861 12.218 11.0725 12.4945 11.0725 12.7828V21.4784C11.0725 21.7667 11.1861 22.0432 11.3883 22.247C11.5904 22.4508 11.8647 22.5654 12.1506 22.5654H18.6193C18.9053 22.5654 19.1795 22.4508 19.3817 22.247C19.5838 22.0432 19.6974 21.7667 19.6974 21.4784C19.6974 21.1901 19.5838 20.9137 19.3817 20.7098C19.1795 20.506 18.9053 20.3915 18.6193 20.3915ZM25.088 11.6958C24.0219 11.6958 22.9797 12.0145 22.0932 12.6117C21.2067 13.2089 20.5158 14.0577 20.1078 15.0508C19.6998 16.0439 19.593 17.1366 19.801 18.1909C20.009 19.2451 20.5224 20.2135 21.2763 20.9736C22.0302 21.7336 22.9907 22.2512 24.0364 22.4609C25.0821 22.6706 26.1659 22.563 27.1509 22.1517C28.1359 21.7403 28.9778 21.0437 29.5702 20.15C30.1625 19.2562 30.4786 18.2055 30.4786 17.1306C30.4786 15.6892 29.9107 14.3068 28.8998 13.2876C27.8888 12.2684 26.5177 11.6958 25.088 11.6958ZM25.088 20.3915C24.4483 20.3915 23.823 20.2002 23.2911 19.8419C22.7592 19.4836 22.3447 18.9743 22.0999 18.3785C21.8551 17.7826 21.791 17.127 21.9158 16.4944C22.0406 15.8619 22.3487 15.2808 22.801 14.8248C23.2533 14.3688 23.8296 14.0582 24.457 13.9324C25.0844 13.8065 25.7348 13.8711 26.3258 14.1179C26.9168 14.3647 27.4219 14.7827 27.7773 15.3189C28.1327 15.8552 28.3224 16.4856 28.3224 17.1306C28.3224 17.9954 27.9816 18.8248 27.3751 19.4364C26.7685 20.0479 25.9458 20.3915 25.088 20.3915ZM49.8848 11.6958C48.8186 11.6958 47.7764 12.0145 46.8899 12.6117C46.0034 13.2089 45.3125 14.0577 44.9045 15.0508C44.4965 16.0439 44.3898 17.1366 44.5978 18.1909C44.8058 19.2451 45.3192 20.2135 46.0731 20.9736C46.8269 21.7336 47.7875 22.2512 48.8331 22.4609C49.8788 22.6706 50.9627 22.563 51.9477 22.1517C52.9327 21.7403 53.7746 21.0437 54.3669 20.15C54.9592 19.2562 55.2754 18.2055 55.2754 17.1306C55.2754 15.6892 54.7074 14.3068 53.6965 13.2876C52.6856 12.2684 51.3145 11.6958 49.8848 11.6958ZM49.8848 20.3915C49.2451 20.3915 48.6198 20.2002 48.0879 19.8419C47.556 19.4836 47.1414 18.9743 46.8966 18.3785C46.6518 17.7826 46.5878 17.127 46.7126 16.4944C46.8374 15.8619 47.1454 15.2808 47.5977 14.8248C48.0501 14.3688 48.6264 14.0582 49.2538 13.9324C49.8812 13.8065 50.5315 13.8711 51.1225 14.1179C51.7135 14.3647 52.2187 14.7827 52.5741 15.3189C52.9294 15.8552 53.1191 16.4856 53.1191 17.1306C53.1191 17.9954 52.7784 18.8248 52.1718 19.4364C51.5653 20.0479 50.7426 20.3915 49.8848 20.3915Z" fill="#FF7E00"/>
<path d="M2.06294 2.00001V2C2.05384 1.99997 2.04496 2.00174 2.03688 2.00506C2.0288 2.00837 2.02186 2.01307 2.01629 2.0186C2.01074 2.02411 2.00665 2.03032 2.00398 2.03672C2.00138 2.04295 2.00008 2.0494 2 2.05578V69.6833C2.00008 69.6897 2.00138 69.6962 2.00397 69.7024C2.00666 69.7088 2.01075 69.715 2.01628 69.7205L0.609271 71.1386L2.01631 69.7206C2.02184 69.7261 2.02878 69.7308 2.03687 69.7341C2.04495 69.7374 2.05383 69.7392 2.06294 69.7391L2.06863 69.7391L97.9314 69.7391H97.9371C97.9462 69.7392 97.955 69.7374 97.9631 69.7341M2.06294 2.00001L98.7217 71.5847M2.06294 2.00001H2.06863M2.06294 2.00001H2.06863M97.9631 69.7341L98.7217 71.5847M97.9631 69.7341C97.9631 69.7341 97.9631 69.7341 97.9631 69.7341L98.7217 71.5847M97.9631 69.7341C97.9682 69.732 97.9727 69.7294 97.9768 69.7264C97.9793 69.7246 97.9816 69.7226 97.9837 69.7206L99.3924 71.1403C99.2003 71.3309 98.9723 71.4819 98.7217 71.5847M97.996 69.7025L99.8413 70.4737L97.996 69.7024C97.996 69.7024 97.996 69.7024 97.996 69.7025ZM97.996 69.7025C97.9987 69.696 98 69.6894 98 69.6829V2.05627M97.996 69.7025L98 2.05627M2.06863 2.00001L97.9314 2.00002L97.9371 2M2.06863 2.00001L97.9371 2M97.9371 2C97.9462 1.99997 97.955 2.00174 97.9631 2.00506C97.9712 2.00837 97.9782 2.01308 97.9837 2.0186C97.9893 2.02409 97.9933 2.0303 97.996 2.03674C97.9987 2.04311 98 2.04975 98 2.05627M97.9371 2L98 2.05627M2.06863 8.37286e-06H97.9314C98.2024 -0.000762687 98.471 0.051729 98.7217 0.154483C98.9723 0.257236 99.2003 0.408237 99.3924 0.598853C99.5845 0.789469 99.737 1.01596 99.8413 1.26539C99.9456 1.51481 99.9995 1.78228 100 2.05249L2.06863 8.37286e-06Z" stroke="#FF7E00" stroke-width="4"/>
</svg>
