<svg width="98" height="101" viewBox="0 0 98 101" fill="none" xmlns="http://www.w3.org/2000/svg">
<g clip-path="url(#clip0_932_5770)">
<path d="M45.4467 25.3815H49.2295C50.4497 25.3815 51.4259 24.5273 51.67 23.4291C52.6462 19.1582 52.6462 14.6432 51.67 10.3723C51.4259 9.2741 50.4497 8.41992 49.2295 8.41992H45.4467V25.3815Z" fill="#FEA249"/>
<path d="M44.5925 26.3574V7.56543H49.2295C50.8158 7.56543 52.2801 8.66366 52.5242 10.25C53.5004 14.6429 53.5004 19.2799 52.5242 23.6728C52.1581 25.2592 50.8158 26.3574 49.2295 26.3574H44.5925ZM46.4229 9.39582V24.527H49.2295C49.9616 24.527 50.5717 24.0389 50.8158 23.3068C51.67 19.1579 51.67 14.765 50.8158 10.6161C50.6938 9.88392 50.0836 9.39582 49.2295 9.39582H46.4229Z" fill="#FEA249"/>
<path d="M56.551 16.9617C56.551 19.4553 58.6817 21.4767 61.31 21.4767C63.9383 21.4767 66.069 19.4553 66.069 16.9617C66.069 14.4682 63.9383 12.4468 61.31 12.4468C58.6817 12.4468 56.551 14.4682 56.551 16.9617Z" fill="#FEA249"/>
<path d="M55.5748 16.9614C55.5748 13.9107 58.1373 11.4702 61.188 11.4702C64.3607 11.4702 66.8012 13.9107 66.8012 16.9614C66.8012 20.012 64.2386 22.4525 61.188 22.4525C58.1373 22.4525 55.5748 20.012 55.5748 16.9614ZM65.0928 16.9614C65.0928 15.009 63.3845 13.3006 61.31 13.3006C59.2356 13.3006 57.5272 14.8869 57.5272 16.9614C57.5272 19.0358 59.2356 20.6222 61.31 20.6222C63.3845 20.6222 65.0928 18.9138 65.0928 16.9614Z" fill="#FEA249"/>
<path d="M33.8542 57.7181V0.976074L72.6584 0.976074V57.7181H33.8542ZM35.6846 2.80646V55.8877H70.8281V2.80646L35.6846 2.80646Z" fill="#FEA249"/>
<path d="M70.828 55.278V3.29492H78.6377V55.278H70.828ZM72.6584 5.12531V53.4476H76.8073V5.12531H72.6584Z" fill="#FEA249"/>
<path d="M76.8073 52.7154V5.85742H84.617V52.8374H76.8073V52.7154ZM78.6377 7.68781V51.007H82.7866V7.68781H78.6377Z" fill="#FEA249"/>
<path d="M82.7866 50.3967V8.17578H90.5963V50.2747H82.7866V50.3967ZM84.617 10.0062V48.4443H88.7659V10.0062H84.617Z" fill="#FEA249"/>
<path d="M41.1757 7.44336V51.6167H39.3454V7.44336H41.1757ZM48.6193 31.1164V51.6167H46.7889V31.1164H48.6193ZM56.0629 31.1164V51.6167H54.2325V31.1164H56.0629ZM63.3845 31.1164V51.6167H61.5541V31.1164H63.3845Z" fill="#FEA249"/>
</g>
<path d="M89.5055 98.5L95.0055 29H28.5055L33.5055 98.5H89.5055Z" fill="#FFFAF5"/>
<path d="M28.5055 29L33.5055 98.5H89.5055L95.0055 29H28.5055ZM28.5055 29L18.7825 55.5M3.00548 98.5L13.2789 70.5M13.2789 70.5C13.2789 70.5 -1.9945 66.75 3.00548 57C7.87726 47.5 18.7825 55.5 18.7825 55.5M13.2789 70.5L18.7825 55.5M44 40.5L47.5 89M70 89L74 40.5" stroke="#FF7E00" stroke-width="4" stroke-linecap="round" stroke-linejoin="round"/>
<defs>
<clipPath id="clip0_932_5770">
<rect width="58.5724" height="58.5724" fill="white" transform="translate(91.5724) rotate(90)"/>
</clipPath>
</defs>
</svg>
