<svg width="45" height="52" viewBox="0 0 45 52" fill="none" xmlns="http://www.w3.org/2000/svg">
<path d="M44.7522 25.5927L34.7878 15.6282C34.4369 15.2774 33.8755 15.2774 33.5247 15.6282L30.9283 18.2246C30.788 18.4351 30.6476 18.6456 30.6476 18.8562V18.9263C28.9635 20.2596 26.0864 22.3648 24.7532 22.5051C24.683 22.5051 24.5427 22.5051 24.5427 22.5051C23.2094 22.6454 22.3673 22.7858 21.5253 23.1366C20.192 22.856 17.5255 21.3122 14.2975 18.8562V18.786C14.2975 18.5755 14.2274 18.3649 14.0169 18.1544L11.4205 15.5581C11.0696 15.2072 10.5083 15.2072 10.1574 15.5581L0.263145 25.5927C-0.087715 25.9435 -0.087715 26.5049 0.263145 26.8558L2.85951 29.4521C2.99985 29.5925 3.21037 29.6626 3.35071 29.7328C4.68398 31.6976 5.8769 33.5221 6.99966 35.1361L6.36811 35.7676C5.8769 36.329 5.52605 37.0307 5.52605 37.7324C5.52605 38.5043 5.80673 39.206 6.29794 39.6271L6.43828 39.7674C6.92949 40.2586 7.63121 40.5393 8.33293 40.6095C8.33293 41.3814 8.61361 42.0831 9.17499 42.6445C9.66619 43.1357 10.3679 43.4865 11.1398 43.4865C11.1398 44.1882 11.4907 44.89 11.9819 45.4513C12.5432 46.0127 13.245 46.2934 14.0169 46.2934C14.087 46.9951 14.3677 47.6267 14.8589 48.188C15.8413 49.1705 17.5255 49.2406 18.578 48.3986L18.7184 48.5389C19.771 49.5213 20.6832 50.4335 21.3147 51.0651C21.8761 51.6265 22.5778 51.9072 23.3497 51.9072C24.1216 51.9072 24.8935 51.6265 25.3847 51.0651C25.7356 50.7142 26.0163 50.2932 26.0864 49.802C27.139 50.1529 28.2618 49.8722 29.0337 49.1003C29.4547 48.6793 29.7354 48.1881 29.8056 47.6267C30.788 47.8372 31.7002 47.4863 32.4019 46.8548C33.1738 46.0829 33.4545 44.89 33.0335 43.9076C33.5247 43.7672 33.9457 43.5567 34.2966 43.2058C35.279 42.2234 35.4193 40.7498 34.6474 39.6271C36.8929 36.75 39.8402 32.3993 41.4541 30.0135C41.6646 30.0135 41.8751 29.8732 42.0155 29.7328L44.6118 27.1364C45.1031 26.4347 45.1031 25.9435 44.7522 25.5927ZM12.2626 18.8562L3.56123 27.5575L2.15779 26.154L10.8591 17.4527L12.2626 18.8562ZM33.244 41.662C33.0335 41.8726 32.7528 42.0129 32.4721 42.0129C32.1914 42.0129 31.9107 41.8726 31.63 41.662L27.7004 37.7324C27.5601 37.5921 27.3495 37.4517 27.0688 37.4517C26.8583 37.4517 26.5776 37.5219 26.4373 37.7324C26.0864 38.0833 26.0864 38.6447 26.4373 38.9955L30.3669 42.9251L30.4371 42.9953L31.3493 43.9076C31.5599 44.1181 31.7002 44.3988 31.7002 44.6794C31.7002 44.9601 31.5599 45.2408 31.3493 45.4513C31.1388 45.6619 30.8581 45.732 30.5774 45.732C30.2968 45.732 30.0161 45.5917 29.8056 45.4513L24.9637 40.6095C24.8233 40.4691 24.5427 40.3288 24.3321 40.3288C24.1216 40.3288 23.9111 40.399 23.7006 40.6095C23.5602 40.7498 23.4199 41.0305 23.4199 41.241C23.4199 41.4515 23.4901 41.7322 23.7006 41.8726L28.0513 46.2232C28.4723 46.6443 28.4723 47.346 28.0513 47.767C27.8407 47.9775 27.5601 48.1179 27.2794 48.1179C26.9987 48.1179 26.718 47.9775 26.5075 47.767L22.227 43.4164C22.1568 42.855 21.8761 42.2936 21.3849 41.8726C21.2446 41.7322 21.0341 41.5919 20.7534 41.4515C20.6832 41.4515 20.613 41.3814 20.613 41.3814C20.5429 41.3814 20.4727 41.3112 20.4025 41.3112C20.4025 41.3112 20.4025 41.241 20.4727 41.241C20.5429 41.1007 20.613 40.9603 20.6832 40.82C20.6832 40.7498 20.6832 40.7498 20.7534 40.6796L20.192 40.399H20.5429C20.5429 40.3288 20.613 40.1884 20.613 40.1183C20.613 40.0481 20.613 39.9779 20.613 39.9779V39.8376C20.613 39.7674 20.613 39.6972 20.613 39.5569C20.613 39.4867 20.613 39.4165 20.613 39.3464V39.206C20.613 39.1359 20.613 39.0657 20.613 38.9955C20.613 38.9253 20.5429 38.8552 20.5429 38.7148L20.4727 38.5745C20.4727 38.5043 20.4727 38.5043 20.4025 38.4341C20.3323 38.2938 20.2622 38.2236 20.192 38.0131C20.192 37.9429 20.1218 37.9429 20.1218 37.8728C19.9815 37.7324 19.9113 37.5219 19.771 37.3816C19.5604 37.171 19.2798 36.9605 18.9991 36.8202L18.9289 36.75C18.7886 36.6798 18.578 36.6097 18.4377 36.6097C18.4377 36.5395 18.4377 36.3992 18.5079 36.329C18.5079 36.2588 18.5079 36.1886 18.5079 36.1886C18.5079 35.6974 18.4377 35.2062 18.2272 34.7852C18.2272 34.715 18.157 34.6449 18.157 34.6449C18.0167 34.3642 17.8763 34.2238 17.6658 34.0133C17.4553 33.8028 17.2448 33.6624 16.9641 33.5221C16.8939 33.5221 16.8939 33.4519 16.8237 33.4519C16.6132 33.3116 16.3325 33.2414 16.122 33.2414C16.122 33.2414 16.0518 33.2414 15.9817 33.2414C15.701 33.2414 15.4905 33.2414 15.28 33.2414H15.2098C15.0694 33.2414 14.9291 33.3116 14.7887 33.3116C14.7186 33.1712 14.7186 33.0309 14.6484 32.8906C14.6484 32.8906 14.6484 32.8204 14.5782 32.7502C14.4379 32.4695 14.2274 32.1888 14.0169 31.9783C12.9643 30.9257 11.1398 30.9257 10.0872 31.9783L8.4031 33.6624C6.92948 31.5573 5.59622 29.5223 4.8945 28.5399L13.245 20.1894C15.2098 21.663 17.8061 23.4875 19.9113 24.3997L14.2975 30.0135C13.9467 30.3644 13.9467 30.9257 14.2975 31.2766C15.3501 32.3292 16.7536 32.9607 18.2973 32.9607C19.8411 32.9607 21.2446 32.3993 22.2972 31.2766L23.3497 30.224L33.1738 40.0481C33.665 40.5393 33.665 41.241 33.244 41.662ZM24.3321 49.5915C24.1918 49.802 23.9111 49.8722 23.5602 49.8722C23.2796 49.8722 22.9989 49.7318 22.7884 49.5915C22.1568 49.0301 21.3147 48.1881 20.4025 47.2758L20.1218 46.9951L21.3849 45.732C21.5253 45.5917 21.5954 45.4513 21.7358 45.311L24.4023 47.9775C24.6128 48.1881 24.7532 48.4687 24.7532 48.7494C24.6128 49.1003 24.5427 49.381 24.3321 49.5915ZM11.2801 33.3818C11.5608 33.1011 11.9819 32.9607 12.4029 33.1712C12.5432 33.2414 12.6836 33.3116 12.8239 33.4519C13.0345 33.6624 13.1046 33.873 13.1046 34.1536C13.1046 34.4343 12.9643 34.715 12.8239 34.8554L9.24516 38.4341C8.8943 38.8552 8.12241 38.785 7.84172 38.5043C7.84172 38.4341 7.77155 38.364 7.70138 38.364C7.49086 38.1535 7.42069 37.9429 7.42069 37.6622C7.42069 37.3816 7.56103 37.1009 7.70138 36.9605L11.2801 33.3818ZM10.5083 39.7674L14.9291 35.3466C14.9993 35.2764 15.1396 35.2062 15.28 35.1361H15.4203C15.4905 35.1361 15.6308 35.0659 15.701 35.0659C15.7712 35.0659 15.7712 35.0659 15.8413 35.0659H15.9115C15.9817 35.0659 15.9817 35.0659 16.0518 35.0659C16.1922 35.1361 16.3325 35.2062 16.4729 35.3466C16.6834 35.5571 16.7536 35.7676 16.7536 36.0483C16.7536 36.329 16.6132 36.6097 16.4729 36.75L12.6134 40.6095L12.5432 40.6796L12.052 41.1708C11.8415 41.3814 11.631 41.4515 11.3503 41.4515C11.0696 41.4515 10.7889 41.3112 10.5083 41.1007C10.2977 40.8902 10.2276 40.6796 10.2276 40.399C10.2276 40.1183 10.2977 39.9779 10.5083 39.7674ZM13.3151 42.5743L13.8063 42.0831L17.1746 38.7148C17.5956 38.2938 18.2272 38.364 18.7184 38.785C18.9289 38.9955 18.9991 39.206 18.9991 39.4867C18.9991 39.7674 18.8587 40.0481 18.7184 40.1884L14.9291 43.9777C14.7186 44.1882 14.5081 44.2584 14.2274 44.2584C13.9467 44.2584 13.666 44.1181 13.4555 43.9076C13.245 43.697 13.1748 43.4865 13.1748 43.2058C13.0345 42.9953 13.1046 42.7848 13.3151 42.5743ZM16.1922 45.2408L16.543 44.89L18.5079 42.9251C18.9289 42.5041 19.5604 42.5743 20.0516 42.9953C20.2622 43.2058 20.3323 43.4163 20.3323 43.697C20.3323 43.8374 20.2622 43.9777 20.192 44.1882C20.1218 44.3286 20.0516 44.3988 20.0516 44.4689L17.736 46.7846C17.5255 46.9951 17.3149 47.0653 17.0343 47.0653C16.7536 47.0653 16.4729 46.925 16.1922 46.7144C15.9817 46.5039 15.9115 46.2934 15.9115 46.0127C15.9115 45.732 16.0518 45.4513 16.1922 45.2408ZM32.1914 36.5395L23.9813 28.3995C23.6304 28.0487 23.069 28.0487 22.7182 28.3995L21.0341 30.0837C19.771 31.3468 17.736 31.5573 16.2624 30.645L21.8761 25.0313C21.9463 25.0313 22.0165 24.9611 22.0866 24.9611L22.227 24.8909C22.2972 24.8909 22.2972 24.8208 22.3673 24.8208C22.4375 24.8208 22.5077 24.7506 22.5778 24.7506L22.7884 24.6804C22.8585 24.6804 22.9287 24.6103 22.9989 24.6103C23.069 24.6103 23.069 24.6103 23.1392 24.6103H23.2796C23.7006 24.5401 24.1918 24.4699 24.8233 24.3997H24.8935C26.9285 24.1892 30.2266 21.663 31.7704 20.3999L40.1208 28.7504C38.7876 30.7152 35.9105 35.0659 33.5948 38.0833L32.1914 36.5395ZM42.9277 26.2242L41.5243 27.6277L32.823 18.8562L34.2264 17.4527L42.9277 26.2242Z" fill="url(#paint0_linear_1179_361)"/>
<path d="M22.5077 17.6132C27.3496 17.6132 31.3494 13.6835 31.3494 8.7715C31.3494 3.92963 27.4197 0 22.5077 0C17.6658 0 13.666 3.92963 13.666 8.84167C13.7362 13.6835 17.6658 17.6132 22.5077 17.6132ZM15.4905 8.84167C15.4905 4.91204 18.6482 1.7543 22.5779 1.7543C26.5075 1.7543 29.6652 4.91204 29.6652 8.84167C29.6652 12.7713 26.5075 15.929 22.5779 15.929C18.6482 15.8589 15.4905 12.7011 15.4905 8.84167Z" fill="url(#paint1_linear_1179_361)"/>
<defs>
<linearGradient id="paint0_linear_1179_361" x1="0.0381034" y1="33.509" x2="45.0188" y2="33.509" gradientUnits="userSpaceOnUse">
<stop stop-color="#FF7E00"/>
<stop offset="1" stop-color="#F9CCA6"/>
</linearGradient>
<linearGradient id="paint1_linear_1179_361" x1="13.703" y1="8.80981" x2="31.3543" y2="8.80981" gradientUnits="userSpaceOnUse">
<stop stop-color="#FF7E00"/>
<stop offset="0.0001" stop-color="#FF7E00"/>
<stop offset="1" stop-color="#F9CCA6"/>
</linearGradient>
</defs>
</svg>
