<svg width="40" height="43" viewBox="0 0 40 43" fill="none" xmlns="http://www.w3.org/2000/svg">
<path fill-rule="evenodd" clip-rule="evenodd" d="M14.7201 1.06543C11.0781 2.8685 9.47236 7.18232 10.4706 12.4814C10.7108 13.7572 10.7008 15.2613 10.4472 15.9699C9.97022 17.3016 10.1242 17.7675 12.5826 22.4486C14.1056 25.3491 14.5008 28.5017 13.4622 29.4671C13.1199 29.786 10.7143 31.0842 8.11682 32.3526C2.75444 34.971 0.715647 37.0452 0.275095 40.3308L0 42.3831H19.9998H40V41.1696C40 37.4568 37.6452 34.9231 31.5333 32.0605C28.9319 30.8425 26.6369 29.5832 26.4326 29.2622C25.4284 27.6839 26.8717 22.1805 28.8965 19.8641C29.5389 19.1295 29.6565 18.1961 29.5135 14.9732C29.495 14.5621 29.6196 12.5437 29.7901 10.488C30.1534 6.10786 29.2698 3.75509 26.7934 2.50968C25.9711 2.09654 24.7437 1.36744 24.0659 0.890009C22.2798 -0.367856 17.4327 -0.277154 14.7201 1.06543ZM15.7422 2.74292C12.7077 4.06308 12.0992 6.1238 12.4979 13.7273C12.5552 14.8237 12.5767 16.3522 12.5453 17.1236C12.5144 17.8956 12.8209 18.7927 13.227 19.1171C13.6332 19.442 14.1046 20.3072 14.2746 21.0398C14.6937 22.8488 16.732 25.1757 18.5605 25.9332C19.765 26.432 20.366 26.432 21.5706 25.9332C23.576 25.1024 25.4334 22.8174 25.8326 20.6899C26.011 19.7385 26.3484 18.9601 26.5821 18.9601C27.4597 18.9601 28.14 16.9407 27.516 16.1892C27.067 15.648 27.0585 14.9383 27.4812 13.2593C28.7171 8.35148 27.9536 5 25.3581 3.93948C24.5029 3.58963 23.5067 3.01403 23.1449 2.65969C22.2793 1.81347 17.7626 1.86431 15.7422 2.74292ZM15.9112 29.1182C15.5185 31.9858 16.728 33.1634 20.0655 33.1634C23.3692 33.1634 24.6564 31.9579 24.2204 29.2722C23.9802 27.7921 23.7385 27.4482 23.1105 27.6974C21.1873 28.4599 19.0693 28.5022 17.6739 27.806L16.1923 27.0669L15.9112 29.1182ZM12.5901 32.4154C12.179 32.6566 10.1063 33.6603 7.98425 34.645C4.33973 36.3375 2.62288 38.009 2.62288 39.8664C2.62288 40.2217 8.21898 40.3897 20.0655 40.3897C31.9121 40.3897 37.5082 40.2217 37.5082 39.8664C37.5082 39.5788 37.1683 38.6863 36.7532 37.8829C36.189 36.7925 34.7941 35.8486 31.2458 34.1571L26.4934 31.8916L25.0043 33.3807C22.3645 36.0205 17.8817 36.028 15.065 33.3966C14.1938 32.5833 13.4493 31.9305 13.4094 31.9469C13.37 31.9629 13.0013 32.1737 12.5901 32.4154Z" fill="#37474F"/>
</svg>
