<svg width="40" height="28" viewBox="0 0 40 28" fill="none" xmlns="http://www.w3.org/2000/svg">
<path d="M39.9787 2.8125C40.018 2.57026 39.9843 2.32179 39.8818 2.09879C39.5669 0.714375 38.5662 0 36.875 0H4.375C2.8875 0 1.28496 0.546875 0.496875 1.62C0.428711 1.67188 0.363711 1.73063 0.305 1.79875C0.0530859 2.08938 -0.0350391 2.46316 0.02125 2.81566C0.01 2.91691 0 3.01879 0 3.12504V23.125C0 25.1963 2.30437 27.5 4.375 27.5H36.875C38.9462 27.5 40 25.1963 40 23.125V3.12504C40 3.01441 39.9856 2.9175 39.9787 2.8125ZM4.37484 2.5L36.8749 2.49996H36.8918L19.9999 15.9631L3.17613 2.55496C3.55863 2.48434 4.0293 2.5 4.37484 2.5ZM36.8749 25H4.37492C3.68555 25 2.49992 23.815 2.49992 23.125V5.21684L19.1812 18.5625C19.4162 18.7656 19.708 18.8668 19.9999 18.8668C20.3007 18.8671 20.5916 18.7591 20.8193 18.5625L37.4999 5.21746V23.125C37.4999 23.815 37.5649 25 36.8749 25Z" fill="url(#paint0_linear_662_145)"/>
<defs>
<linearGradient id="paint0_linear_662_145" x1="20" y1="0" x2="20" y2="27.5" gradientUnits="userSpaceOnUse">
<stop stop-color="#FEA249"/>
<stop offset="1" stop-color="#FEA249" stop-opacity="0.49"/>
</linearGradient>
</defs>
</svg>
