<svg width="40" height="40" viewBox="0 0 40 40" fill="none" xmlns="http://www.w3.org/2000/svg">
<path d="M4.76039 0C2.14264 0 0 2.14264 0 4.76039V35.2269C0 37.8446 2.14264 39.9873 4.76039 39.9873H20.7858C20.8886 40.0042 20.9935 40.0042 21.0963 39.9873H26.4983C26.6011 40.0042 26.706 40.0042 26.8088 39.9873H35.2269C37.8446 39.9873 39.9873 37.8446 39.9873 35.2269V4.76039C39.9873 2.14264 37.8446 0 35.2269 0H4.76039ZM4.76039 1.90416H35.2269C36.8154 1.90416 38.0831 3.17186 38.0831 4.76039V35.2269C38.0831 36.8154 36.8154 38.0831 35.2269 38.0831H27.6102V24.754H31.2475L32.5808 18.0895H27.6102V16.1853C27.6102 15.6545 27.6608 15.6131 27.839 15.4973C28.0172 15.3815 28.5679 15.2332 29.5144 15.2332H32.3706V9.87223L31.8277 9.61375C31.8277 9.61375 29.6407 8.5687 26.6582 8.5687C24.516 8.5687 22.7562 9.42219 21.63 10.8299C20.5039 12.2376 19.9936 14.1225 19.9936 16.1853V18.0895H17.1374V24.754H19.9936V38.0831H4.76039C3.17186 38.0831 1.90416 36.8154 1.90416 35.2269V4.76039C1.90416 3.17186 3.17186 1.90416 4.76039 1.90416ZM26.6582 10.4729C28.6376 10.4729 29.8832 10.9093 30.4665 11.1404V13.3291H29.5144C28.4187 13.3291 27.5407 13.4197 26.8014 13.9C26.062 14.3802 25.7061 15.2918 25.7061 16.1853V19.9936H30.2564L29.6855 22.8499H25.7061V38.0831H21.8978V22.8499H19.0416V19.9936H21.8978V16.1853C21.8978 14.4398 22.3396 12.9925 23.1176 12.02C23.8956 11.0475 24.992 10.4729 26.6582 10.4729Z" fill="url(#paint0_linear_662_148)"/>
<defs>
<linearGradient id="paint0_linear_662_148" x1="19.9936" y1="0" x2="19.9936" y2="40" gradientUnits="userSpaceOnUse">
<stop stop-color="#FEA249"/>
<stop offset="1" stop-color="#FEA249" stop-opacity="0.49"/>
</linearGradient>
</defs>
</svg>
