<svg width="44" height="44" viewBox="0 0 44 44" fill="none" xmlns="http://www.w3.org/2000/svg">
<path d="M32.04 1H11.96C5.90696 1 1 5.90696 1 11.96V32.04C1 38.093 5.90696 43 11.96 43H32.04C38.093 43 43 38.093 43 32.04V11.96C43 5.90696 38.093 1 32.04 1Z" stroke="url(#paint0_linear_19_3829)" stroke-linecap="round" stroke-linejoin="round"/>
<path d="M22 33C28.0751 33 33 28.0751 33 22C33 15.9249 28.0751 11 22 11C15.9249 11 11 15.9249 11 22C11 28.0751 15.9249 33 22 33Z" stroke="url(#paint1_linear_19_3829)" stroke-linecap="round" stroke-linejoin="round"/>
<path d="M34 9C34.5523 9 35 8.55228 35 8C35 7.44772 34.5523 7 34 7C33.4477 7 33 7.44772 33 8C33 8.55228 33.4477 9 34 9Z" stroke="url(#paint2_linear_19_3829)" stroke-linecap="round" stroke-linejoin="round"/>
<defs>
<linearGradient id="paint0_linear_19_3829" x1="22" y1="1" x2="22" y2="43" gradientUnits="userSpaceOnUse">
<stop stop-color="#FF7E00"/>
<stop offset="1" stop-color="#FF7E00" stop-opacity="0.49"/>
</linearGradient>
<linearGradient id="paint1_linear_19_3829" x1="22" y1="11" x2="22" y2="33" gradientUnits="userSpaceOnUse">
<stop stop-color="#FF7E00"/>
<stop offset="1" stop-color="#FF7E00" stop-opacity="0.49"/>
</linearGradient>
<linearGradient id="paint2_linear_19_3829" x1="34" y1="7" x2="34" y2="9" gradientUnits="userSpaceOnUse">
<stop stop-color="#FF7E00"/>
<stop offset="1" stop-color="#FF7E00" stop-opacity="0.49"/>
</linearGradient>
</defs>
</svg>
