<svg width="40" height="40" viewBox="0 0 40 40" fill="none" xmlns="http://www.w3.org/2000/svg">
<path d="M12.1053 0C5.43831 0 0 5.43831 0 12.1053V27.8947C0 34.5608 5.43812 40 12.1053 40H27.8947C34.561 40 40 34.561 40 27.8947V12.1053C40 5.43812 34.5608 0 27.8947 0H12.1053ZM12.1053 3.15789H27.8947C32.8539 3.15789 36.8421 7.14504 36.8421 12.1053V27.8947C36.8421 32.8538 32.8538 36.8421 27.8947 36.8421H12.1053C7.14504 36.8421 3.15789 32.8539 3.15789 27.8947V12.1053C3.15789 7.14485 7.14485 3.15789 12.1053 3.15789ZM30.5263 7.36842C29.3632 7.36842 28.4211 8.31053 28.4211 9.47368C28.4211 10.6368 29.3632 11.5789 30.5263 11.5789C31.6895 11.5789 32.6316 10.6368 32.6316 9.47368C32.6316 8.31053 31.6895 7.36842 30.5263 7.36842ZM20 9.47368C14.2055 9.47368 9.47368 14.2055 9.47368 20C9.47368 25.7946 14.2055 30.5263 20 30.5263C25.7946 30.5263 30.5263 25.7946 30.5263 20C30.5263 14.2055 25.7946 9.47368 20 9.47368ZM20 12.6316C24.0876 12.6316 27.3684 15.9124 27.3684 20C27.3684 24.0876 24.0876 27.3684 20 27.3684C15.9124 27.3684 12.6316 24.0876 12.6316 20C12.6316 15.9124 15.9124 12.6316 20 12.6316Z" fill="url(#paint0_linear_662_146)"/>
<defs>
<linearGradient id="paint0_linear_662_146" x1="20" y1="0" x2="20" y2="40" gradientUnits="userSpaceOnUse">
<stop stop-color="#FEA249"/>
<stop offset="1" stop-color="#FEA249" stop-opacity="0.49"/>
</linearGradient>
</defs>
</svg>
