<svg width="40" height="40" viewBox="0 0 40 40" fill="none" xmlns="http://www.w3.org/2000/svg">
<g clip-path="url(#clip0_1353_2749)">
<path d="M10.1431 39.8584C8.59597 39.8412 7.06334 39.5574 5.61255 39.0196C4.55312 38.628 3.59459 38.0046 2.80706 37.1949C1.9952 36.4089 1.37086 35.4502 0.980392 34.3898C0.44304 32.9391 0.159679 31.4066 0.142745 29.8596C0.0239216 27.2878 0 26.5165 0 20C0 13.4835 0.0262745 12.7149 0.141569 10.1412C0.160558 8.59481 0.444268 7.06313 0.980392 5.61255C1.37276 4.55294 1.99622 3.59403 2.80549 2.80549C3.59205 1.99436 4.55102 1.3706 5.61137 0.980392C7.06217 0.442595 8.59479 0.158835 10.142 0.141569C12.7145 0.0239216 13.4871 0 20 0C26.5129 0 27.2851 0.0262745 29.8588 0.141569C31.4056 0.160424 32.9377 0.444135 34.3886 0.980392C35.4485 1.37111 36.4072 1.99466 37.1941 2.8051C38.0048 3.59225 38.6286 4.55121 39.0196 5.61137C39.5575 7.06214 39.8414 8.59477 39.8588 10.142C39.9765 12.7157 40.0004 13.4863 40.0004 20.0008C40.0004 26.5153 39.9765 27.2859 39.8588 29.8596C39.8402 31.4065 39.5563 32.9388 39.0196 34.3898C38.6136 35.442 37.9919 36.3976 37.1943 37.195C36.3967 37.9924 35.441 38.6139 34.3886 39.0196C32.9379 39.5575 31.4052 39.8414 29.858 39.8588C27.2867 39.9765 26.5137 40.0004 19.9992 40.0004C13.4847 40.0004 12.7141 39.9776 10.1427 39.8588" fill="url(#paint0_radial_1353_2749)"/>
<path d="M10.1431 39.8584C8.59597 39.8412 7.06334 39.5574 5.61255 39.0196C4.55312 38.628 3.59459 38.0046 2.80706 37.1949C1.9952 36.4089 1.37086 35.4502 0.980392 34.3898C0.44304 32.9391 0.159679 31.4066 0.142745 29.8596C0.0239216 27.2878 0 26.5165 0 20C0 13.4835 0.0262745 12.7149 0.141569 10.1412C0.160558 8.59481 0.444268 7.06313 0.980392 5.61255C1.37276 4.55294 1.99622 3.59403 2.80549 2.80549C3.59205 1.99436 4.55102 1.3706 5.61137 0.980392C7.06217 0.442595 8.59479 0.158835 10.142 0.141569C12.7145 0.0239216 13.4871 0 20 0C26.5129 0 27.2851 0.0262745 29.8588 0.141569C31.4056 0.160424 32.9377 0.444135 34.3886 0.980392C35.4485 1.37111 36.4072 1.99466 37.1941 2.8051C38.0048 3.59225 38.6286 4.55121 39.0196 5.61137C39.5575 7.06214 39.8414 8.59477 39.8588 10.142C39.9765 12.7157 40.0004 13.4863 40.0004 20.0008C40.0004 26.5153 39.9765 27.2859 39.8588 29.8596C39.8402 31.4065 39.5563 32.9388 39.0196 34.3898C38.6136 35.442 37.9919 36.3976 37.1943 37.195C36.3967 37.9924 35.441 38.6139 34.3886 39.0196C32.9379 39.5575 31.4052 39.8414 29.858 39.8588C27.2867 39.9765 26.5137 40.0004 19.9992 40.0004C13.4847 40.0004 12.7141 39.9776 10.1427 39.8588" fill="url(#paint1_radial_1353_2749)"/>
<path d="M15.0891 20.0851C15.0892 19.1054 15.3798 18.1477 15.9241 17.3332C16.4685 16.5187 17.2422 15.8838 18.1473 15.509C19.0525 15.1342 20.0485 15.0362 21.0093 15.2274C21.9701 15.4187 22.8527 15.8905 23.5454 16.5834C24.238 17.2762 24.7097 18.1589 24.9007 19.1198C25.0917 20.0807 24.9935 21.0766 24.6184 21.9817C24.2434 22.8868 23.6084 23.6603 22.7937 24.2044C21.9791 24.7486 21.0213 25.039 20.0416 25.0388C18.728 25.0386 17.4682 24.5166 16.5395 23.5876C15.6107 22.6586 15.089 21.3987 15.0891 20.0851ZM12.4111 20.0851C12.4111 21.5943 12.8586 23.0696 13.697 24.3244C14.5355 25.5793 15.7272 26.5573 17.1215 27.1348C18.5158 27.7124 20.0501 27.8635 21.5303 27.5691C23.0105 27.2746 24.3701 26.5479 25.4373 25.4807C26.5044 24.4136 27.2312 23.0539 27.5256 21.5738C27.82 20.0936 27.6689 18.5593 27.0914 17.165C26.5138 15.7707 25.5358 14.579 24.281 13.7405C23.0261 12.902 21.5508 12.4545 20.0416 12.4545C19.0396 12.4545 18.0473 12.6518 17.1215 13.0352C16.1957 13.4187 15.3545 13.9808 14.6459 14.6893C13.9373 15.3979 13.3752 16.2391 12.9918 17.1649C12.6083 18.0907 12.411 19.083 12.4111 20.0851ZM26.1911 12.1522C26.1909 12.5048 26.2953 12.8496 26.4911 13.1429C26.6869 13.4363 26.9653 13.6649 27.2911 13.8C27.6169 13.9351 27.9754 13.9706 28.3213 13.902C28.6672 13.8333 28.985 13.6636 29.2345 13.4144C29.484 13.1651 29.654 12.8474 29.7229 12.5016C29.7919 12.1557 29.7567 11.7972 29.6219 11.4713C29.4871 11.1454 29.2586 10.8668 28.9655 10.6708C28.6723 10.4747 28.3276 10.37 27.975 10.3698C27.5023 10.37 27.0489 10.5578 26.7146 10.892C26.3803 11.2262 26.1922 11.6794 26.1918 12.1522M14.0389 32.1812C13.0966 32.1708 12.1631 31.9984 11.2793 31.6714C10.6383 31.4243 10.0562 31.0458 9.57039 30.5602C9.08457 30.0746 8.70582 29.4926 8.4585 28.8518C8.13135 27.968 7.9589 27.0345 7.9487 26.0921C7.87654 24.5259 7.86242 24.0553 7.86242 20.0871C7.86242 16.1188 7.87811 15.6494 7.9487 14.0816C7.96013 13.1394 8.13254 12.2061 8.4585 11.322C8.70553 10.6808 9.08417 10.0985 9.57002 9.6127C10.0559 9.12685 10.6381 8.7482 11.2793 8.50117C12.1631 8.17403 13.0966 8.00158 14.0389 7.99137C15.6052 7.91922 16.0758 7.9051 20.0424 7.9051C24.0091 7.9051 24.4801 7.9204 26.0479 7.99177C26.9901 8.0032 27.9234 8.17561 28.8075 8.50157C29.4487 8.74862 30.0309 9.12727 30.5168 9.61311C31.0026 10.099 31.3813 10.6812 31.6283 11.3223C31.9554 12.2061 32.1279 13.1396 32.1381 14.082C32.2103 15.6506 32.2244 16.1188 32.2244 20.0875C32.2244 24.0561 32.2099 24.5251 32.1381 26.0929C32.1271 27.0352 31.9547 27.9686 31.6283 28.8525C31.381 29.4934 31.0022 30.0754 30.5164 30.561C30.0306 31.0466 29.4485 31.4251 28.8075 31.6722C27.9238 31.9993 26.9902 32.1717 26.0479 32.182C24.4816 32.2541 24.011 32.2682 20.0424 32.2682C16.0738 32.2682 15.6048 32.2537 14.0389 32.182M13.9158 5.31569C12.6828 5.33993 11.4628 5.5733 10.3079 6.00588C9.32066 6.38759 8.42407 6.9714 7.67561 7.71985C6.92715 8.46831 6.34335 9.3649 5.96163 10.3522C5.52912 11.5071 5.29575 12.727 5.27145 13.96C5.19811 15.5443 5.18164 16.051 5.18164 20.0867C5.18164 24.1223 5.1985 24.6286 5.27145 26.2133C5.29574 27.4463 5.52911 28.6663 5.96163 29.8212C6.34337 30.8084 6.92718 31.705 7.67563 32.4534C8.42409 33.2019 9.32067 33.7857 10.3079 34.1674C11.4629 34.5998 12.6828 34.8332 13.9158 34.8576C15.5009 34.9298 16.0067 34.9475 20.0424 34.9475C24.0781 34.9475 24.5844 34.9306 26.1691 34.8576C27.4021 34.8333 28.622 34.5999 29.7769 34.1674C30.7642 33.7857 31.6608 33.2019 32.4092 32.4534C33.1577 31.705 33.7415 30.8084 34.1232 29.8212C34.5563 28.6664 34.7897 27.4464 34.8134 26.2133C34.8856 24.6278 34.902 24.1223 34.902 20.0867C34.902 16.051 34.8852 15.5447 34.8134 13.96C34.7892 12.727 34.5558 11.507 34.1232 10.3522C33.7415 9.36509 33.1578 8.46863 32.4096 7.7202C31.6614 6.97177 30.7651 6.38786 29.7781 6.00588C28.6233 5.57303 27.4033 5.33964 26.1703 5.31569C24.5856 5.24314 24.0793 5.22588 20.0444 5.22588C16.0095 5.22588 15.502 5.24275 13.9165 5.31569" fill="white"/>
</g>
<defs>
<radialGradient id="paint0_radial_1353_2749" cx="0" cy="0" r="1" gradientUnits="userSpaceOnUse" gradientTransform="translate(2.58863 39.1239) scale(50.7851)">
<stop offset="0.09" stop-color="#FA8F21"/>
<stop offset="0.78" stop-color="#D82D7E"/>
</radialGradient>
<radialGradient id="paint1_radial_1353_2749" cx="0" cy="0" r="1" gradientUnits="userSpaceOnUse" gradientTransform="translate(27.7067 37.8392) scale(44.6914)">
<stop offset="0.64" stop-color="#8C3AAA" stop-opacity="0"/>
<stop offset="1" stop-color="#8C3AAA"/>
</radialGradient>
<clipPath id="clip0_1353_2749">
<rect width="40" height="40" fill="white"/>
</clipPath>
</defs>
</svg>
