<svg width="40" height="40" viewBox="0 0 40 40" fill="none" xmlns="http://www.w3.org/2000/svg">
<g clip-path="url(#clip0_1353_2744)">
<path d="M31.0218 0H8.97818C4.01967 0 0 4.01967 0 8.97818V31.0218C0 35.9803 4.01967 40 8.97818 40H31.0218C35.9803 40 40 35.9803 40 31.0218V8.97818C40 4.01967 35.9803 0 31.0218 0Z" fill="#0B86CA"/>
<path d="M11.084 16.6263H15.2405V30.0381H11.084V16.6263ZM13.2038 9.9619C13.68 9.96191 14.1456 10.103 14.5417 10.3672C14.9379 10.6315 15.2469 11.0072 15.4298 11.447C15.6126 11.8867 15.6612 12.3707 15.5693 12.838C15.4774 13.3052 15.2491 13.7348 14.9134 14.0725C14.5776 14.4102 14.1493 14.6409 13.6826 14.7355C13.2158 14.8301 12.7316 14.7843 12.2908 14.604C11.85 14.4236 11.4726 14.1168 11.206 13.7221C10.9395 13.3275 10.7957 12.8628 10.793 12.3866C10.7912 12.0688 10.8522 11.7538 10.9725 11.4597C11.0929 11.1656 11.2702 10.8982 11.4942 10.6729C11.7182 10.4476 11.9846 10.2687 12.278 10.1467C12.5714 10.0247 12.8861 9.96189 13.2038 9.9619ZM17.9007 16.6263H21.9049V18.4551C22.3057 17.7711 22.8847 17.2087 23.5802 16.8281C24.2756 16.4474 25.0614 16.2627 25.8536 16.2937C30.0102 16.2937 30.8554 19.0648 30.8554 22.681V30.0381H26.6988V23.5539C26.6988 22.0021 26.6988 19.9931 24.5374 19.9931C22.376 19.9931 22.0434 21.6834 22.0434 23.4292V30.0658H17.8869L17.9007 16.6263Z" fill="white"/>
</g>
<defs>
<clipPath id="clip0_1353_2744">
<rect width="40" height="40" fill="white"/>
</clipPath>
</defs>
</svg>
