<svg width="368" height="497" viewBox="0 0 368 497" fill="none" xmlns="http://www.w3.org/2000/svg">
<path fill-rule="evenodd" clip-rule="evenodd" d="M32.5688 118.732C-9.58159 245.501 -0.852763 258.439 4.87676 282.752C9.22384 301.192 15.7525 313.627 28.2909 327.355C39.4858 339.608 66.0307 352.012 69.2862 352.012C90.3666 349.98 98.9373 331.723 87.3246 327.355C84.2827 325.638 69.0856 322.645 62.9887 319.552C50.1587 313.05 37.6783 304.126 32.5688 289.125C25.5579 268.534 16.5485 244.397 53.8627 133.946L83.2805 45.7067C83.2805 45.7067 91.4769 27.4503 97.0057 27.4503C102.534 27.4503 132.954 30.493 132.954 30.493C166.416 35.3783 185.556 62.4148 185.581 98.675C185.591 111.925 179.295 127.601 142.601 237.678C119.855 305.916 100.207 368.21 98.9373 376.107C94.271 405.153 104.805 437.833 124.765 456.244C130.322 461.367 142.018 469.083 150.758 473.39L166.649 481.221C203.86 498.935 306.155 504.796 346.273 482.611C355.019 477.774 358.061 462.561 358.061 462.561C358.061 462.561 364.145 436.953 367.187 416.92C370.466 395.324 363.092 386.492 358.061 376.107C350.256 359.992 328.637 344.844 313.83 337.671C293.419 327.786 281.915 326.19 230.824 326.162L182.363 326.135L173.49 327.355C150.758 340.852 172.982 357.251 173.49 357.761C174 358.268 193.361 358.599 216.515 358.496C239.67 358.392 265.057 359.259 272.931 360.421C315.267 366.675 335.942 398.428 324.283 439.29L321.169 450.203H255.354C182.933 450.203 169.343 448.423 154.219 436.953C142.803 428.296 138.766 422.991 134.704 411.31C127.351 390.165 132.633 385.721 178.584 249.569L199.878 188.715L218.13 124.818C218.13 124.818 221.172 118.173 224.214 98.675C227.256 79.1767 214.408 49.4802 196.836 30.493C175.587 7.52652 148.56 0.109421 108.619 0.0657669C108.619 0.0657669 92.4493 -0.58021 83.2805 2.17706C59.9469 9.19398 32.5688 118.732 32.5688 118.732Z" fill="url(#paint0_linear_239_1131)" fill-opacity="0.1"/>
<defs>
<linearGradient id="paint0_linear_239_1131" x1="-183.94" y1="-218.079" x2="284.693" y2="551.629" gradientUnits="userSpaceOnUse">
<stop stop-color="#FF7E00"/>
<stop offset="1" stop-color="#FF7E00" stop-opacity="0.427083"/>
</linearGradient>
</defs>
</svg>
