<svg width="561" height="757" viewBox="0 0 561 757" fill="none" xmlns="http://www.w3.org/2000/svg">
<path fill-rule="evenodd" clip-rule="evenodd" d="M49.9074 181.098C-14.201 373.858 -0.924923 393.532 7.78935 430.501C14.401 458.541 24.3308 477.449 43.4009 498.323C60.4277 516.955 100.801 535.817 105.752 535.817C137.815 532.726 150.85 504.966 133.188 498.323C128.561 495.712 105.447 491.162 96.1743 486.459C76.6606 476.572 57.6787 463.002 49.9074 440.192C39.2442 408.882 25.5414 372.18 82.2942 204.231L127.037 70.0574C127.037 70.0574 139.503 42.2973 147.912 42.2973C156.321 42.2973 202.588 46.924 202.588 46.924C253.482 54.3524 282.592 95.4632 282.631 150.6C282.645 170.747 273.07 194.584 217.26 361.964C182.665 465.724 152.782 560.447 150.85 572.454C143.753 616.621 159.774 666.314 190.132 694.308C198.585 702.099 216.373 713.831 229.666 720.381L253.836 732.287C310.432 759.223 466.017 768.135 527.034 734.401C540.336 727.047 544.963 703.914 544.963 703.914C544.963 703.914 554.216 664.976 558.843 634.513C563.83 601.676 552.614 588.246 544.963 572.454C533.091 547.95 500.21 524.916 477.689 514.009C446.646 498.98 429.148 496.552 351.442 496.51L277.736 496.468L264.24 498.323C229.666 518.846 263.469 543.782 264.24 544.558C265.016 545.33 294.463 545.833 329.679 545.676C364.896 545.518 403.508 546.835 415.484 548.603C479.876 558.113 511.32 606.395 493.588 668.529L488.852 685.123H388.751C278.602 685.123 257.933 682.416 234.93 664.976C217.568 651.812 211.427 643.745 205.249 625.983C194.065 593.832 202.1 587.074 271.988 380.045L304.375 287.512L332.135 190.351C332.135 190.351 336.762 180.248 341.389 150.6C346.015 120.951 326.475 75.7952 299.748 46.924C267.431 12.0017 226.323 0.723502 165.575 0.657123C165.575 0.657123 140.982 -0.325131 127.037 3.86749C91.5479 14.5372 49.9074 181.098 49.9074 181.098Z" fill="url(#paint0_linear_1603_152)" fill-opacity="0.5"/>
<defs>
<linearGradient id="paint0_linear_1603_152" x1="137.953" y1="-34.3224" x2="279.409" y2="756.281" gradientUnits="userSpaceOnUse">
<stop stop-color="#F8A65E"/>
<stop offset="1" stop-color="#F3735F"/>
</linearGradient>
</defs>
</svg>
