<svg width="145" height="195" viewBox="0 0 145 195" fill="none" xmlns="http://www.w3.org/2000/svg">
<path fill-rule="evenodd" clip-rule="evenodd" d="M12.7816 46.5851C-3.76029 96.3232 -0.334664 101.4 1.91389 110.939C3.6199 118.174 6.18208 123.053 11.1028 128.439C15.4962 133.246 25.9138 138.113 27.1914 138.113C35.4644 137.316 38.828 130.153 34.2706 128.439C33.0767 127.765 27.1127 126.591 24.7199 125.378C19.6848 122.827 14.7869 119.325 12.7816 113.439C10.0302 105.36 6.49447 95.8902 21.1384 52.5542L32.6834 17.9332C32.6834 17.9332 35.9001 10.7702 38.0699 10.7702C40.2397 10.7702 52.1779 11.9641 52.1779 11.9641C65.31 13.8808 72.8215 24.4887 72.8314 38.7156C72.835 43.9143 70.3644 50.065 55.9638 93.254C47.0372 120.027 39.3263 144.469 38.828 147.567C36.9967 158.963 41.1306 171.786 48.964 179.009C51.145 181.019 55.7349 184.046 59.165 185.737L65.4014 188.809C80.005 195.759 120.151 198.059 135.895 189.354C139.327 187.457 140.521 181.488 140.521 181.488C140.521 181.488 142.909 171.44 144.103 163.58C145.39 155.107 142.495 151.642 140.521 147.567C137.458 141.244 128.974 135.301 123.163 132.486C115.152 128.608 110.637 127.982 90.587 127.971L71.5685 127.96L68.0861 128.439C59.165 133.735 67.887 140.169 68.0861 140.369C68.2862 140.568 75.8844 140.698 84.9714 140.657C94.0585 140.617 104.021 140.957 107.112 141.413C123.727 143.867 131.84 156.325 127.265 172.357L126.043 176.639H100.214C71.7919 176.639 66.4585 175.941 60.5231 171.44C56.0431 168.044 54.4587 165.962 52.8645 161.379C49.9788 153.083 52.0519 151.339 70.0854 97.9196L78.4421 74.0431L85.6051 48.9727C85.6051 48.9727 86.7989 46.3658 87.9928 38.7156C89.1866 31.0653 84.1445 19.4137 77.2483 11.9641C68.9093 2.95306 58.3024 0.0429294 42.6274 0.0258016C42.6274 0.0258016 36.2817 -0.22765 32.6834 0.854175C23.5262 3.60729 12.7816 46.5851 12.7816 46.5851Z" fill="url(#paint0_linear_1353_2725)"/>
<defs>
<linearGradient id="paint0_linear_1353_2725" x1="35.5" y1="-9" x2="72" y2="195" gradientUnits="userSpaceOnUse">
<stop offset="0.54417" stop-color="white"/>
<stop offset="1" stop-color="#455A64"/>
</linearGradient>
</defs>
</svg>
