<svg width="45" height="45" viewBox="0 0 45 45" fill="none" xmlns="http://www.w3.org/2000/svg">
<path d="M42.525 6.46914H35.4375V4.78164C35.4375 4.21914 35.2125 3.65664 34.7625 3.20664C34.3688 2.81289 33.8063 2.58789 33.1875 2.58789H15.075C13.8375 2.58789 12.8813 3.60039 12.8813 4.78164V6.46914H2.5313C2.13755 6.46914 1.80005 6.80664 1.80005 7.20039V33.1879C1.80005 33.5816 2.13755 33.9191 2.5313 33.9191H8.3813C8.77505 33.9191 9.11255 33.5816 9.11255 33.1879C9.11255 32.7941 8.77505 32.4566 8.3813 32.4566H3.26255V7.87539H12.8813V28.8004H10.575C10.1813 28.8004 9.8438 29.1379 9.8438 29.5316V31.7254C9.8438 32.9629 10.8563 33.9191 12.0375 33.9191H17.6625L17.6063 40.7816H13.3313C12.9375 40.7816 12.6 41.1191 12.6 41.5129C12.6 41.9066 12.9375 42.2441 13.3313 42.2441H31.1625C31.5563 42.2441 31.8938 41.9066 31.8938 41.5129C31.8938 41.1191 31.5563 40.7816 31.1625 40.7816H27.6188L27.5625 33.9191H30.2063C31.4438 33.9191 32.4 32.9066 32.4 31.7254V7.87539H41.7938V32.5129H33.9188C33.525 32.5129 33.1875 32.8504 33.1875 33.2441C33.1875 33.6379 33.525 33.9754 33.9188 33.9754H42.525C42.9188 33.9754 43.2563 33.6379 43.2563 33.2441V7.14414C43.2001 6.80664 42.9188 6.46914 42.525 6.46914ZM26.2125 40.7816H19.0125L19.125 33.9191H26.1563L26.2125 40.7816ZM28.0688 32.2879C28.0688 32.3441 28.0688 32.4004 28.125 32.4004C28.125 32.4004 28.125 32.4566 28.1813 32.4566H26.9438H12.0938C11.6438 32.4566 11.3063 32.1191 11.3063 31.6691V30.1504H28.0125V31.6691C27.9563 31.8941 28.0125 32.0629 28.0688 32.2879ZM30.9938 31.6691C30.9938 32.1191 30.6563 32.4566 30.2063 32.4566C29.7563 32.4566 29.4188 32.1191 29.4188 31.6691V29.4754C29.4188 29.0816 29.0813 28.7441 28.6875 28.7441H14.2875V4.78164C14.2875 4.33164 14.625 3.99414 15.075 3.99414H31.1063C31.1063 4.05039 31.1063 4.05039 31.05 4.10664V4.21914C30.9938 4.44414 30.9375 4.61289 30.9375 4.83789L30.9938 31.6691ZM34.0313 4.78164V6.46914H32.4V4.78164C32.4 4.33164 32.7375 3.99414 33.1875 3.99414H33.2438C33.4688 3.99414 33.6375 4.10664 33.75 4.21914C33.9188 4.33164 34.0313 4.55664 34.0313 4.78164Z" fill="url(#paint0_linear_1179_397)"/>
<path d="M40.275 31.4439C40.6688 31.4439 41.0063 31.1064 41.0063 30.7127V9.61895C41.0063 9.2252 40.6688 8.8877 40.275 8.8877H34.2563C33.8625 8.8877 33.525 9.2252 33.525 9.61895C33.525 10.0127 33.8625 10.3502 34.2563 10.3502H39.5438V30.7689C39.5438 31.1627 39.8813 31.4439 40.275 31.4439Z" fill="url(#paint1_linear_1179_397)"/>
<path d="M11.7 9.61895C11.7 9.2252 11.3625 8.8877 10.9688 8.8877H4.7813C4.38755 8.8877 4.05005 9.2252 4.05005 9.61895V30.7127C4.05005 31.1064 4.38755 31.4439 4.7813 31.4439C5.17505 31.4439 5.51255 31.1064 5.51255 30.7127V10.3502H10.9688C11.3625 10.3502 11.7 10.0127 11.7 9.61895Z" fill="url(#paint2_linear_1179_397)"/>
<path d="M21.6 8.38184H16.2C15.8062 8.38184 15.4688 8.71934 15.4688 9.11309C15.4688 9.50684 15.8062 9.84434 16.2 9.84434H21.6C21.9938 9.84434 22.3313 9.50684 22.3313 9.11309C22.3313 8.66309 21.9938 8.38184 21.6 8.38184Z" fill="url(#paint3_linear_1179_397)"/>
<path d="M29.1376 8.38184H23.7376C23.3438 8.38184 23.0063 8.71934 23.0063 9.11309C23.0063 9.50684 23.3438 9.84434 23.7376 9.84434H29.1376C29.5313 9.84434 29.8688 9.50684 29.8688 9.11309C29.8688 8.66309 29.5313 8.38184 29.1376 8.38184Z" fill="url(#paint4_linear_1179_397)"/>
<path d="M21.6 11.5312H16.2C15.8062 11.5312 15.4688 11.8687 15.4688 12.2625C15.4688 12.6562 15.8062 12.9938 16.2 12.9938H21.6C21.9938 12.9938 22.3313 12.6562 22.3313 12.2625C22.3313 11.8687 21.9938 11.5312 21.6 11.5312Z" fill="url(#paint5_linear_1179_397)"/>
<path d="M29.1376 11.5312H23.7376C23.3438 11.5312 23.0063 11.8687 23.0063 12.2625C23.0063 12.6562 23.3438 12.9938 23.7376 12.9938H29.1376C29.5313 12.9938 29.8688 12.6562 29.8688 12.2625C29.8688 11.8687 29.5313 11.5312 29.1376 11.5312Z" fill="url(#paint6_linear_1179_397)"/>
<path d="M21.6 14.7383H16.2C15.8062 14.7383 15.4688 15.0758 15.4688 15.4695C15.4688 15.8633 15.8062 16.2008 16.2 16.2008H21.6C21.9938 16.2008 22.3313 15.8633 22.3313 15.4695C22.3313 15.0758 21.9938 14.7383 21.6 14.7383Z" fill="url(#paint7_linear_1179_397)"/>
<path d="M29.1376 14.7383H23.7376C23.3438 14.7383 23.0063 15.0758 23.0063 15.4695C23.0063 15.8633 23.3438 16.2008 23.7376 16.2008H29.1376C29.5313 16.2008 29.8688 15.8633 29.8688 15.4695C29.8688 15.0758 29.5313 14.7383 29.1376 14.7383Z" fill="url(#paint8_linear_1179_397)"/>
<path d="M21.6 17.9443H16.2C15.8062 17.9443 15.4688 18.2818 15.4688 18.6756C15.4688 19.0693 15.8062 19.4068 16.2 19.4068H21.6C21.9938 19.4068 22.3313 19.0693 22.3313 18.6756C22.3313 18.2256 21.9938 17.9443 21.6 17.9443Z" fill="url(#paint9_linear_1179_397)"/>
<path d="M29.1376 17.9443H23.7376C23.3438 17.9443 23.0063 18.2818 23.0063 18.6756C23.0063 19.0693 23.3438 19.4068 23.7376 19.4068H29.1376C29.5313 19.4068 29.8688 19.0693 29.8688 18.6756C29.8688 18.2256 29.5313 17.9443 29.1376 17.9443Z" fill="url(#paint10_linear_1179_397)"/>
<path d="M21.6 21.0938H16.2C15.8062 21.0938 15.4688 21.4312 15.4688 21.825C15.4688 22.2187 15.8062 22.5562 16.2 22.5562H21.6C21.9938 22.5562 22.3313 22.2187 22.3313 21.825C22.3313 21.4312 21.9938 21.0938 21.6 21.0938Z" fill="url(#paint11_linear_1179_397)"/>
<path d="M29.1376 21.0938H23.7376C23.3438 21.0938 23.0063 21.4312 23.0063 21.825C23.0063 22.2187 23.3438 22.5562 23.7376 22.5562H29.1376C29.5313 22.5562 29.8688 22.2187 29.8688 21.825C29.8688 21.4312 29.5313 21.0938 29.1376 21.0938Z" fill="url(#paint12_linear_1179_397)"/>
<path d="M21.6 24.3008H16.2C15.8062 24.3008 15.4688 24.6383 15.4688 25.032C15.4688 25.4258 15.8062 25.7633 16.2 25.7633H21.6C21.9938 25.7633 22.3313 25.4258 22.3313 25.032C22.3313 24.582 21.9938 24.3008 21.6 24.3008Z" fill="url(#paint13_linear_1179_397)"/>
<path d="M29.1376 24.3008H23.7376C23.3438 24.3008 23.0063 24.6383 23.0063 25.032C23.0063 25.4258 23.3438 25.7633 23.7376 25.7633H29.1376C29.5313 25.7633 29.8688 25.4258 29.8688 25.032C29.8688 24.582 29.5313 24.3008 29.1376 24.3008Z" fill="url(#paint14_linear_1179_397)"/>
<defs>
<linearGradient id="paint0_linear_1179_397" x1="1.83971" y1="22.3849" x2="43.2186" y2="22.3849" gradientUnits="userSpaceOnUse">
<stop stop-color="#FF7E00"/>
<stop offset="1" stop-color="#F9CCA6"/>
</linearGradient>
<linearGradient id="paint1_linear_1179_397" x1="33.56" y1="20.1864" x2="40.9554" y2="20.1864" gradientUnits="userSpaceOnUse">
<stop stop-color="#FF7E00"/>
<stop offset="1" stop-color="#F9CCA6"/>
</linearGradient>
<linearGradient id="paint2_linear_1179_397" x1="4.10315" y1="20.1864" x2="11.6777" y2="20.1864" gradientUnits="userSpaceOnUse">
<stop stop-color="#FF7E00"/>
<stop offset="1" stop-color="#F9CCA6"/>
</linearGradient>
<linearGradient id="paint3_linear_1179_397" x1="15.5048" y1="9.07534" x2="22.322" y2="9.07534" gradientUnits="userSpaceOnUse">
<stop stop-color="#FF7E00"/>
<stop offset="1" stop-color="#F9CCA6"/>
</linearGradient>
<linearGradient id="paint4_linear_1179_397" x1="23.0346" y1="9.07534" x2="29.8521" y2="9.07534" gradientUnits="userSpaceOnUse">
<stop stop-color="#FF7E00"/>
<stop offset="1" stop-color="#F9CCA6"/>
</linearGradient>
<linearGradient id="paint5_linear_1179_397" x1="15.5048" y1="12.2582" x2="22.322" y2="12.2582" gradientUnits="userSpaceOnUse">
<stop stop-color="#FF7E00"/>
<stop offset="1" stop-color="#F9CCA6"/>
</linearGradient>
<linearGradient id="paint6_linear_1179_397" x1="23.0346" y1="12.2582" x2="29.8521" y2="12.2582" gradientUnits="userSpaceOnUse">
<stop stop-color="#FF7E00"/>
<stop offset="1" stop-color="#F9CCA6"/>
</linearGradient>
<linearGradient id="paint7_linear_1179_397" x1="15.5048" y1="15.4422" x2="22.322" y2="15.4422" gradientUnits="userSpaceOnUse">
<stop stop-color="#FF7E00"/>
<stop offset="1" stop-color="#F9CCA6"/>
</linearGradient>
<linearGradient id="paint8_linear_1179_397" x1="23.0346" y1="15.4422" x2="29.8521" y2="15.4422" gradientUnits="userSpaceOnUse">
<stop stop-color="#FF7E00"/>
<stop offset="1" stop-color="#F9CCA6"/>
</linearGradient>
<linearGradient id="paint9_linear_1179_397" x1="15.5048" y1="18.6266" x2="22.322" y2="18.6266" gradientUnits="userSpaceOnUse">
<stop stop-color="#FF7E00"/>
<stop offset="1" stop-color="#F9CCA6"/>
</linearGradient>
<linearGradient id="paint10_linear_1179_397" x1="23.0346" y1="18.6266" x2="29.8521" y2="18.6266" gradientUnits="userSpaceOnUse">
<stop stop-color="#FF7E00"/>
<stop offset="1" stop-color="#F9CCA6"/>
</linearGradient>
<linearGradient id="paint11_linear_1179_397" x1="15.5048" y1="21.8094" x2="22.322" y2="21.8094" gradientUnits="userSpaceOnUse">
<stop stop-color="#FF7E00"/>
<stop offset="1" stop-color="#F9CCA6"/>
</linearGradient>
<linearGradient id="paint12_linear_1179_397" x1="23.0346" y1="21.8094" x2="29.8521" y2="21.8094" gradientUnits="userSpaceOnUse">
<stop stop-color="#FF7E00"/>
<stop offset="1" stop-color="#F9CCA6"/>
</linearGradient>
<linearGradient id="paint13_linear_1179_397" x1="15.5048" y1="24.9935" x2="22.322" y2="24.9935" gradientUnits="userSpaceOnUse">
<stop stop-color="#FF7E00"/>
<stop offset="1" stop-color="#F9CCA6"/>
</linearGradient>
<linearGradient id="paint14_linear_1179_397" x1="23.0346" y1="24.9935" x2="29.8521" y2="24.9935" gradientUnits="userSpaceOnUse">
<stop stop-color="#FF7E00"/>
<stop offset="1" stop-color="#F9CCA6"/>
</linearGradient>
</defs>
</svg>
