<svg width="40" height="40" viewBox="0 0 40 40" fill="none" xmlns="http://www.w3.org/2000/svg">
<path d="M20.0001 0C8.96572 0 0.000394513 8.96533 0.000394513 19.9997C0.000394513 23.2269 0.825837 26.3869 2.31854 29.2432L0.02494 38.8794C-0.0112282 39.0307 -0.00801089 39.1886 0.0342859 39.3382C0.0765826 39.4878 0.156545 39.6241 0.266529 39.734C0.376514 39.8439 0.512845 39.9237 0.662493 39.9659C0.812142 40.0081 0.970106 40.0112 1.12129 39.9749L10.7575 37.6813C13.6129 39.174 16.7729 39.9994 20.0001 39.9994C31.0336 39.9994 39.9998 31.035 39.9998 19.9997C39.9998 8.96442 31.0354 0 20.0001 0ZM20.0001 1.81816C30.0527 1.81816 38.1817 9.94804 38.1817 19.9997C38.1817 30.0514 30.0518 38.1813 20.0001 38.1813C16.9411 38.1813 13.9302 37.4086 11.2484 35.9358C11.0507 35.8274 10.8196 35.7962 10.6002 35.8486L2.13673 37.8631L4.15124 29.3996C4.20385 29.1803 4.17307 28.9493 4.06488 28.7514C2.59177 26.0696 1.81914 23.0595 1.81855 19.9997C1.81855 9.94713 9.94844 1.81816 20.0001 1.81816Z" fill="url(#paint0_linear_662_168)"/>
<path d="M10.9089 17.2725C9.41344 17.2725 8.18164 18.5043 8.18164 19.9997C8.18164 21.4951 9.41344 22.7269 10.9089 22.7269C12.4043 22.7269 13.6361 21.4951 13.6361 19.9997C13.6361 18.5043 12.4043 17.2725 10.9089 17.2725ZM10.9089 19.0906C11.4216 19.0906 11.818 19.487 11.818 19.9997C11.818 20.5124 11.4216 20.9088 10.9089 20.9088C10.3962 20.9088 9.9998 20.5124 9.9998 19.9997C9.9998 19.487 10.3962 19.0906 10.9089 19.0906ZM19.9997 17.2725C18.5042 17.2725 17.2724 18.5043 17.2724 19.9997C17.2724 21.4951 18.5042 22.7269 19.9997 22.7269C21.4951 22.7269 22.7269 21.4951 22.7269 19.9997C22.7269 18.5043 21.4951 17.2725 19.9997 17.2725ZM19.9997 19.0906C20.5124 19.0906 20.9087 19.487 20.9087 19.9997C20.9087 20.5124 20.5124 20.9088 19.9997 20.9088C19.4869 20.9088 19.0906 20.5124 19.0906 19.9997C19.0906 19.487 19.4869 19.0906 19.9997 19.0906ZM29.0904 17.2725C27.595 17.2725 26.3632 18.5043 26.3632 19.9997C26.3632 21.4951 27.595 22.7269 29.0904 22.7269C30.5859 22.7269 31.8177 21.4951 31.8177 19.9997C31.8177 18.5043 30.5859 17.2725 29.0904 17.2725ZM29.0904 19.0906C29.6032 19.0906 29.9995 19.487 29.9995 19.9997C29.9995 20.5124 29.6032 20.9088 29.0904 20.9088C28.5777 20.9088 28.1814 20.5124 28.1814 19.9997C28.1814 19.487 28.5777 19.0906 29.0904 19.0906Z" fill="url(#paint1_linear_662_168)"/>
<defs>
<linearGradient id="paint0_linear_662_168" x1="19.9999" y1="0" x2="19.9999" y2="40" gradientUnits="userSpaceOnUse">
<stop stop-color="#FEA249"/>
<stop offset="1" stop-color="#FEA249" stop-opacity="0.49"/>
</linearGradient>
<linearGradient id="paint1_linear_662_168" x1="19.9997" y1="17.2725" x2="19.9997" y2="22.7269" gradientUnits="userSpaceOnUse">
<stop stop-color="#FEA249"/>
<stop offset="1" stop-color="#FEA249" stop-opacity="0.49"/>
</linearGradient>
</defs>
</svg>
