<svg width="40" height="40" viewBox="0 0 40 40" fill="none" xmlns="http://www.w3.org/2000/svg">
<path fill-rule="evenodd" clip-rule="evenodd" d="M0.952381 0.952381C0.0333334 1.87143 0 2.53952 0 20C0 37.4605 0.0333334 38.1286 0.952381 39.0476C1.87143 39.9667 2.53952 40 20 40C37.4605 40 38.1286 39.9667 39.0476 39.0476C39.9667 38.1286 40 37.4605 40 20C40 2.53952 39.9667 1.87143 39.0476 0.952381C38.1286 0.0333334 37.4605 0 20 0C2.53952 0 1.87143 0.0333334 0.952381 0.952381ZM2.2281 2.21667C2.05 2.39429 1.90476 3.25381 1.90476 4.12714V5.71429H20.0286H38.1529L38.0048 3.92857L37.8571 2.14286L20.2043 2.0181C10.4948 1.94952 2.40571 2.03857 2.2281 2.21667ZM3.06952 3.37476C2.57905 4.16905 3.68238 5.07952 4.33952 4.42238C4.88905 3.87286 4.54524 2.85714 3.80952 2.85714C3.57857 2.85714 3.24571 3.09 3.06952 3.37476ZM5.92667 3.37476C5.43619 4.16905 6.53952 5.07952 7.19667 4.42238C7.74619 3.87286 7.40238 2.85714 6.66667 2.85714C6.43571 2.85714 6.10286 3.09 5.92667 3.37476ZM8.78381 3.37476C8.29333 4.16905 9.39667 5.07952 10.0538 4.42238C10.6033 3.87286 10.2595 2.85714 9.52381 2.85714C9.29286 2.85714 8.96 3.09 8.78381 3.37476ZM2.01714 22.7381L2.14286 37.8571H20H37.8571L37.9829 22.7381L38.1086 7.61905H20H1.89143L2.01714 22.7381ZM22.741 12.2643C21.1443 13.2543 19.8838 15.7681 20.0743 17.5829C20.1519 18.3229 19.9176 19.2876 19.5533 19.7262C18.9495 20.4538 18.6876 20.3238 16.5886 18.2562C15.3219 17.0086 14.2857 15.6262 14.2857 15.1838C14.2857 14.7419 13.5024 13.9176 12.5448 13.3524C11.051 12.4714 10.709 12.4205 10.1362 12.9933C9.56333 13.5662 9.61429 13.9081 10.4952 15.4019C11.0605 16.3595 11.869 17.1429 12.2924 17.1429C12.7162 17.1429 14.0852 18.1505 15.3357 19.3819L17.6086 21.6205L13.09 26.22C8.48476 30.9071 7.87429 32.0919 9.31952 33.5376C10.829 35.0471 11.9538 34.3886 17.89 28.52C23.5338 22.9405 23.7919 22.7519 25.8967 22.6681C27.5748 22.6014 28.3995 22.2676 29.5062 21.2076C31.0276 19.7495 31.7357 17.4324 31.1871 15.7043C30.8686 14.7005 30.7771 14.7348 28.88 16.5676C27.2962 18.0986 26.7057 18.3995 25.899 18.0876C24.11 17.3952 24.2248 15.9671 26.2262 14.0124C27.2324 13.03 27.9448 12.0467 27.8095 11.8271C27.3824 11.1367 24.1038 11.419 22.741 12.2643ZM23.169 26.109C22.7357 26.5881 22.381 27.1829 22.381 27.4314C22.381 28.1786 28.7771 34.2857 29.5595 34.2857C30.501 34.2857 31.4286 33.3457 31.4286 32.3919C31.4286 31.5605 25.2757 25.2381 24.4667 25.2381C24.1862 25.2381 23.6024 25.63 23.169 26.109Z" fill="#37474F"/>
</svg>
