<svg width="344" height="342" viewBox="0 0 344 342" fill="none" xmlns="http://www.w3.org/2000/svg">
<path d="M212.619 13.0145C212.351 12.9488 212.08 13.1129 212.015 13.3811C211.949 13.6493 212.113 13.92 212.381 13.9858L212.619 13.0145ZM287 58.0002L287.354 57.6466L287 58.0002ZM327.214 126.909C327.44 127.068 327.752 127.013 327.91 126.787L330.49 123.1C330.649 122.874 330.594 122.562 330.368 122.404C330.141 122.245 329.83 122.3 329.671 122.527L327.377 125.804L324.1 123.51C323.874 123.351 323.562 123.406 323.404 123.633C323.246 123.859 323.301 124.171 323.527 124.329L327.214 126.909ZM212.5 13.5002C212.381 13.9858 212.381 13.9858 212.381 13.9858C212.382 13.9859 212.382 13.986 212.382 13.9861C212.383 13.9863 212.385 13.9867 212.387 13.9873C212.392 13.9884 212.399 13.9901 212.408 13.9924C212.426 13.997 212.454 14.004 212.492 14.0136C212.566 14.0327 212.678 14.0617 212.826 14.1012C213.123 14.1801 213.563 14.3008 214.137 14.4669C215.284 14.7991 216.965 15.3131 219.092 16.0386C223.345 17.4897 229.381 19.7866 236.501 23.1675C250.744 29.9298 269.318 41.0247 286.647 58.3537L287.354 57.6466C269.925 40.2173 251.248 29.0622 236.93 22.2641C229.771 18.8648 223.699 16.5539 219.414 15.0922C217.272 14.3613 215.576 13.8426 214.415 13.5064C213.834 13.3382 213.387 13.2156 213.084 13.1349C212.932 13.0945 212.817 13.0646 212.739 13.0447C212.7 13.0348 212.671 13.0273 212.651 13.0223C212.641 13.0198 212.633 13.0179 212.628 13.0166C212.625 13.016 212.623 13.0155 212.622 13.0151C212.621 13.0149 212.62 13.0148 212.62 13.0147C212.62 13.0146 212.619 13.0145 212.5 13.5002ZM286.647 58.3537C303.848 75.5552 313.941 92.628 319.732 105.394C322.628 111.777 324.448 117.083 325.544 120.79C326.092 122.643 326.459 124.097 326.688 125.085C326.803 125.579 326.883 125.956 326.935 126.209C326.96 126.336 326.979 126.431 326.991 126.494C326.997 126.526 327.001 126.55 327.004 126.565C327.005 126.573 327.006 126.578 327.007 126.582C327.007 126.584 327.008 126.585 327.008 126.586C327.008 126.586 327.008 126.587 327.008 126.587C327.008 126.587 327.008 126.587 327.5 126.5C327.993 126.413 327.993 126.413 327.993 126.412C327.992 126.412 327.992 126.411 327.992 126.411C327.992 126.409 327.992 126.408 327.991 126.405C327.99 126.401 327.989 126.394 327.988 126.385C327.984 126.368 327.98 126.342 327.973 126.308C327.96 126.241 327.941 126.141 327.914 126.01C327.861 125.748 327.779 125.362 327.662 124.858C327.429 123.852 327.057 122.38 326.503 120.507C325.396 116.76 323.56 111.41 320.643 104.981C314.809 92.122 304.652 74.945 287.354 57.6466L286.647 58.3537Z" fill="url(#paint0_linear_181_15)"/>
<path d="M334.5 174C334.5 205.104 325.787 235.586 309.35 261.991C292.912 288.397 269.407 309.67 241.497 323.4C213.588 337.13 182.391 342.768 151.441 339.675C120.491 336.581 91.0271 324.88 66.3873 305.898C41.7474 286.916 22.9174 261.411 12.0311 232.275C1.14479 203.138 -1.36239 171.535 4.79367 141.046C10.9497 110.558 25.5229 82.4032 46.8615 59.7734C68.2002 37.1436 95.451 20.9433 125.526 13.0087" stroke="url(#paint1_linear_181_15)" stroke-linecap="round" stroke-dasharray="30 30"/>
<defs>
<linearGradient id="paint0_linear_181_15" x1="213" y1="11.9996" x2="335" y2="124" gradientUnits="userSpaceOnUse">
<stop stop-color="#FF7E00"/>
<stop offset="1" stop-color="#FF7E00" stop-opacity="0.49"/>
</linearGradient>
<linearGradient id="paint1_linear_181_15" x1="1" y1="174" x2="335" y2="174" gradientUnits="userSpaceOnUse">
<stop stop-color="#FF7E00"/>
<stop offset="1" stop-color="#FF7E00" stop-opacity="0.49"/>
</linearGradient>
</defs>
</svg>
