<svg width="175" height="175" viewBox="0 0 175 175" fill="none" xmlns="http://www.w3.org/2000/svg">
<g clip-path="url(#clip0_114_87)">
<path fill-rule="evenodd" clip-rule="evenodd" d="M86.7619 26.1018C86.6266 26.1314 86.5158 26.1961 86.5158 26.2455C86.5158 26.2949 86.405 26.3635 86.2697 26.398C86.1344 26.4323 85.8606 26.6099 85.6613 26.7926C85.4622 26.9753 85.2529 27.1248 85.1965 27.1248C85.14 27.1248 85.0939 27.1731 85.0939 27.2322C85.0939 27.2912 84.934 27.5059 84.7384 27.7092C83.5747 28.9194 82.9064 29.6662 82.9064 29.7563C82.9064 29.8129 82.8326 29.8591 82.7423 29.8591C82.6521 29.8591 82.5783 29.9066 82.5783 29.9648C82.5783 30.0229 82.4306 30.2214 82.2501 30.406C82.0697 30.5906 81.922 30.7892 81.922 30.8472C81.922 30.9054 81.8482 30.9529 81.7579 30.9529C81.6677 30.9529 81.5939 30.9991 81.5939 31.0555C81.5939 31.1119 81.4462 31.3199 81.2658 31.5174C81.0853 31.715 80.9376 31.919 80.9376 31.9707C80.9376 32.0226 80.7777 32.2291 80.5822 32.4299C80.1051 32.9197 79.9533 33.1124 79.9533 33.2282C79.9533 33.2816 79.8548 33.4144 79.7345 33.5232C79.6142 33.632 79.5158 33.7874 79.5158 33.8683C79.5158 33.9492 79.4419 34.0154 79.3517 34.0154C79.2615 34.0154 79.1876 34.0908 79.1876 34.1829C79.1876 34.2751 79.1138 34.3787 79.0236 34.4133C78.9333 34.448 78.8595 34.5372 78.8595 34.6117C78.8595 34.6862 78.7611 34.8363 78.6408 34.9451C78.5204 35.0539 78.422 35.2092 78.422 35.2902C78.422 35.3711 78.3749 35.4373 78.3172 35.4373C78.2596 35.4373 78.0827 35.6588 77.924 35.9295C77.7654 36.2002 77.5911 36.4216 77.5366 36.4216C77.4822 36.4216 77.4376 36.4931 77.4376 36.5802C77.4376 36.6675 77.3762 36.7782 77.3009 36.8263C77.2258 36.8745 77.0658 37.1095 76.9454 37.3487C76.8251 37.5878 76.6405 37.8709 76.5353 37.9776C76.4301 38.0844 76.3439 38.2402 76.3439 38.324C76.3439 38.4078 76.2701 38.5047 76.1798 38.5394C76.0896 38.5739 76.0158 38.6776 76.0158 38.7698C76.0158 38.8619 75.9705 38.9373 75.915 38.9373C75.8597 38.9373 75.7819 39.0849 75.7423 39.2654C75.7027 39.4459 75.6004 39.5935 75.5149 39.5935C75.4294 39.5935 75.3595 39.6859 75.3595 39.7989C75.3595 39.9118 75.2857 40.0655 75.1954 40.1404C75.1052 40.2153 75.0314 40.3459 75.0314 40.4307C75.0314 40.5154 74.9576 40.6131 74.8673 40.6477C74.7771 40.6824 74.7033 40.83 74.7033 40.9758C74.7033 41.1217 74.6324 41.2682 74.5459 41.3014C74.4594 41.3347 74.357 41.5053 74.3185 41.6808C74.2799 41.8563 74.2123 41.9998 74.1681 41.9998C74.124 41.9998 73.8038 42.5535 73.4564 43.2302C72.6787 44.7454 72.6512 44.7982 72.515 45.0349C72.3985 45.2374 72.2482 45.5616 72.0208 46.1013C71.9447 46.2818 71.8291 46.5525 71.7639 46.7029C71.6986 46.8533 71.5962 47.1117 71.5363 47.2771C71.4765 47.4425 71.3769 47.5779 71.3154 47.5779C71.2537 47.5779 71.2033 47.7203 71.2033 47.8943C71.2033 48.0747 71.1327 48.2379 71.0392 48.2737C70.949 48.3083 70.8751 48.4518 70.8751 48.5926C70.8751 48.7334 70.8028 48.9441 70.7146 49.0609C70.6262 49.1776 70.5524 49.4102 70.5505 49.5774C70.5485 49.7447 70.4745 49.9094 70.3859 49.9435C70.2973 49.9775 70.192 50.1805 70.1517 50.3947C70.1116 50.6089 70.0122 50.9118 69.9307 51.0677C69.8493 51.2237 69.7825 51.4164 69.782 51.4958C69.7817 51.5753 69.7076 51.7142 69.6173 51.8045C69.5271 51.8947 69.4533 52.1162 69.4533 52.2967C69.4533 52.4771 69.3794 52.6986 69.2892 52.7889C69.199 52.8791 69.1251 53.141 69.1251 53.3708C69.1251 53.6415 69.0673 53.8111 68.9611 53.8519C68.8664 53.8882 68.797 54.0517 68.797 54.2385C68.797 54.4166 68.7232 54.6361 68.6329 54.7263C68.5427 54.8166 68.4674 55.0785 68.4654 55.3084C68.4635 55.5382 68.3917 55.8191 68.3058 55.9325C68.2199 56.0459 68.1169 56.3659 68.0768 56.6434C68.0366 56.921 67.9609 57.2024 67.9086 57.2684C67.8561 57.3346 67.7629 57.6545 67.7014 57.9794C67.6399 58.3043 67.5414 58.5865 67.4823 58.6065C67.4234 58.6266 67.3751 58.9002 67.3751 59.2145C67.3751 59.5478 67.3082 59.8746 67.2146 59.9984C67.1262 60.1151 67.0524 60.4462 67.0505 60.7341C67.0485 61.0219 66.9785 61.3665 66.895 61.4997C66.8113 61.6329 66.7192 62.1024 66.6902 62.5428C66.6612 62.9832 66.5821 63.3991 66.5141 63.467C66.4463 63.5348 66.3908 63.8774 66.3908 64.2283C66.3908 64.5791 66.3191 65.0377 66.2316 65.2471C66.144 65.4567 66.0417 66.1318 66.0043 66.7475C65.9668 67.3632 65.8915 67.99 65.8367 68.1404C65.782 68.2908 65.6891 69.349 65.6302 70.492C65.5713 71.6349 65.4636 73.3372 65.3909 74.2748C65.2876 75.6047 65.2874 76.3503 65.3898 77.6654C65.4619 78.5927 65.5697 80.2575 65.6291 81.3652C65.6885 82.4727 65.779 83.4324 65.8303 83.498C65.8817 83.5634 65.9518 84.1338 65.9863 84.7654C66.0221 85.4197 66.1225 86.0888 66.2199 86.3205C66.4661 86.9064 66.4437 87.6367 66.172 87.8826C66.0517 87.9914 65.9512 88.1345 65.9487 88.2003C65.946 88.2662 65.7984 88.4408 65.6205 88.5884C65.4426 88.7359 65.297 88.9206 65.297 88.9985C65.297 89.0765 65.2232 89.1404 65.1329 89.1404C65.0427 89.1404 64.9689 89.2142 64.9689 89.3045C64.9689 89.3947 64.9263 89.4685 64.8744 89.4685C64.8224 89.4685 64.6378 89.6778 64.4642 89.9334C64.2906 90.189 64.0133 90.52 63.8478 90.6687C63.6823 90.8175 63.547 91.002 63.547 91.0789C63.547 91.1556 63.4732 91.2185 63.3829 91.2185C63.2927 91.2185 63.2189 91.2871 63.2189 91.3709C63.2189 91.4547 63.1451 91.5516 63.0548 91.5862C62.9646 91.6208 62.8905 91.7122 62.8902 91.7894C62.89 91.8664 62.7423 92.0867 62.5621 92.279C62.3819 92.4712 62.2345 92.6804 62.2345 92.7439C62.2345 92.8073 62.1591 92.8592 62.0671 92.8592C61.9749 92.8592 61.8678 92.9453 61.8291 93.0506C61.7903 93.1558 61.632 93.3617 61.4771 93.5081C61.1833 93.7859 60.9737 94.093 60.8563 94.4177C60.8182 94.523 60.719 94.6092 60.6358 94.6092C60.5527 94.6092 60.4845 94.6845 60.4845 94.7766C60.4845 94.8688 60.4107 94.9725 60.3204 95.0071C60.2302 95.0417 60.1564 95.1386 60.1564 95.2224C60.1564 95.3062 60.1072 95.3748 60.047 95.3748C59.9141 95.3748 59.5001 95.776 59.5001 95.9047C59.5001 95.9556 59.4017 96.0863 59.2814 96.1951C59.1611 96.3039 59.0626 96.4592 59.0626 96.5402C59.0626 96.6211 58.9888 96.6873 58.8986 96.6873C58.8083 96.6873 58.7345 96.7626 58.7345 96.8547C58.7345 96.9469 58.6607 97.0506 58.5704 97.0852C58.4802 97.1199 58.4064 97.2168 58.4064 97.3005C58.4064 97.3843 58.3326 97.4529 58.2423 97.4529C58.1521 97.4529 58.0783 97.4994 58.0783 97.5562C58.0783 97.613 57.9062 97.8468 57.696 98.0757C57.4857 98.3046 57.3134 98.5535 57.3132 98.6287C57.3129 98.7039 57.2388 98.7654 57.1486 98.7654C57.0575 98.7654 56.9845 98.8626 56.9845 98.9842C56.9845 99.1057 56.9116 99.2029 56.8204 99.2029C56.7302 99.2029 56.6564 99.2767 56.6564 99.367C56.6564 99.4572 56.5826 99.531 56.4923 99.531C56.4021 99.531 56.3283 99.5775 56.3283 99.6343C56.3283 99.6911 56.1562 99.9249 55.946 100.154C55.7357 100.383 55.5634 100.626 55.5632 100.695C55.5629 100.764 55.4888 100.848 55.3986 100.883C55.3083 100.918 55.2345 101.021 55.2345 101.114C55.2345 101.206 55.1607 101.281 55.0704 101.281C54.9802 101.281 54.9064 101.355 54.9064 101.445C54.9064 101.535 54.8326 101.609 54.7423 101.609C54.6521 101.609 54.5783 101.658 54.5783 101.719C54.5783 101.779 54.4922 101.923 54.3869 102.039C54.0292 102.433 53.922 102.584 53.922 102.694C53.922 102.755 53.8236 102.857 53.7033 102.922C53.5829 102.986 53.4845 103.111 53.4845 103.199C53.4845 103.287 53.4353 103.359 53.3751 103.359C53.315 103.359 53.2658 103.433 53.2658 103.523C53.2658 103.613 53.1673 103.786 53.047 103.906C52.9267 104.026 52.8283 104.225 52.8283 104.347C52.8283 104.469 52.7544 104.597 52.6642 104.632C52.5716 104.668 52.5001 104.83 52.5001 105.006C52.5001 105.177 52.4337 105.356 52.3527 105.404C52.2715 105.453 52.1743 105.688 52.1365 105.929C52.0987 106.169 52.0175 106.382 51.9559 106.403C51.8943 106.423 51.8439 106.651 51.8439 106.909C51.8439 107.167 51.7701 107.588 51.6798 107.844C51.4383 108.528 51.4415 117.963 51.6833 118.282C51.7716 118.399 51.8439 118.561 51.8439 118.642C51.8439 118.724 51.8939 118.85 51.955 118.922C52.3863 119.435 52.6144 119.656 52.7136 119.656C52.7767 119.656 52.8283 119.725 52.8283 119.809C52.8283 119.973 53.4449 120.108 54.1954 120.108C54.8412 120.108 55.5626 119.976 55.5626 119.858C55.5626 119.801 55.7103 119.703 55.8908 119.64C56.0712 119.577 56.2189 119.481 56.2189 119.427C56.2189 119.372 56.3097 119.328 56.4207 119.328C56.5317 119.328 56.7116 119.229 56.8204 119.109C56.9293 118.989 57.1039 118.89 57.2085 118.89C57.3131 118.89 57.4269 118.817 57.4616 118.726C57.4962 118.636 57.6491 118.562 57.8014 118.562C57.9746 118.562 58.0783 118.501 58.0783 118.398C58.0783 118.297 58.181 118.234 58.3462 118.234C58.4937 118.234 58.6536 118.169 58.7017 118.09C58.7498 118.01 59.023 117.834 59.3087 117.697C59.5944 117.561 59.8283 117.408 59.8283 117.358C59.8283 117.308 59.9718 117.236 60.1472 117.197C60.3227 117.159 60.4934 117.056 60.5266 116.97C60.5599 116.883 60.7116 116.812 60.8639 116.812C61.0162 116.812 61.1408 116.767 61.1408 116.711C61.1408 116.655 61.4086 116.483 61.736 116.328C62.0633 116.173 62.3616 115.997 62.3987 115.937C62.4358 115.877 62.5617 115.828 62.6785 115.828C62.7953 115.828 62.8908 115.779 62.8908 115.718C62.8908 115.658 63.2107 115.458 63.6017 115.273C63.9927 115.088 64.3126 114.891 64.3126 114.836C64.3126 114.78 64.4111 114.734 64.5314 114.734C64.6517 114.734 64.7501 114.686 64.7501 114.627C64.7501 114.568 64.8696 114.49 65.0157 114.453C65.1617 114.416 65.3078 114.317 65.3403 114.232C65.3729 114.147 65.5256 114.078 65.6798 114.078C65.834 114.078 65.9885 114.004 66.023 113.914C66.0577 113.824 66.2054 113.75 66.3512 113.75C66.4971 113.75 66.643 113.68 66.6756 113.596C66.7081 113.511 66.8542 113.411 67.0002 113.375C67.1463 113.338 67.2658 113.26 67.2658 113.201C67.2658 113.142 67.3533 113.094 67.4602 113.094C67.5672 113.094 67.7389 112.995 67.8419 112.875C67.945 112.754 68.1229 112.656 68.2373 112.656C68.3519 112.656 68.4738 112.582 68.5085 112.492C68.543 112.402 68.6959 112.328 68.8483 112.328C69.0214 112.328 69.1251 112.266 69.1251 112.164C69.1251 112.074 69.2201 112 69.3361 112C69.4521 112 69.6208 111.926 69.7111 111.836C69.8013 111.745 69.9524 111.672 70.0471 111.672C70.1416 111.672 70.2189 111.627 70.2189 111.573C70.2189 111.519 70.3542 111.418 70.5197 111.349C71.1207 111.1 71.6408 110.792 71.6408 110.686C71.6408 110.627 71.7638 110.578 71.9142 110.578C72.0646 110.578 72.1876 110.526 72.1876 110.463C72.1876 110.4 72.3353 110.296 72.5158 110.233C72.6962 110.17 72.8439 110.075 72.8439 110.02C72.8439 109.966 72.9371 109.922 73.0509 109.922C73.1648 109.922 73.2863 109.848 73.321 109.758C73.357 109.664 73.5203 109.594 73.703 109.594C73.9576 109.594 74.0573 109.668 74.1966 109.961C74.2926 110.163 74.4458 110.391 74.5372 110.467C74.6286 110.543 74.7033 110.697 74.7033 110.81C74.7033 110.923 74.7477 111.015 74.8019 111.015C74.8562 111.015 74.9521 111.163 75.015 111.344C75.0779 111.524 75.1754 111.672 75.2317 111.672C75.288 111.672 75.3638 111.758 75.4002 111.863C75.4365 111.968 75.5646 112.202 75.6848 112.383C76.1418 113.069 76.1409 113.051 75.7891 114.734C75.72 115.065 75.595 115.466 75.5114 115.626C75.4279 115.786 75.3595 116.109 75.3595 116.343C75.3595 116.578 75.2872 116.866 75.1989 116.983C75.1106 117.099 75.0367 117.395 75.0349 117.639C75.0329 117.883 74.9591 118.178 74.8708 118.295C74.7824 118.412 74.7086 118.718 74.7068 118.976C74.7048 119.234 74.6298 119.557 74.5399 119.694C74.4501 119.831 74.3447 120.187 74.306 120.483C74.2673 120.78 74.1996 121.072 74.1555 121.133C74.1115 121.193 74.0429 121.439 74.003 121.679C73.9631 121.92 73.8754 122.344 73.808 122.621C73.7059 123.041 73.7189 123.235 73.8871 123.796C73.9978 124.166 74.1283 124.469 74.1771 124.469C74.2258 124.469 74.2661 124.53 74.2665 124.605C74.267 124.68 74.4392 124.859 74.6493 125.002C74.8594 125.145 75.0314 125.303 75.0314 125.353C75.0314 125.402 75.2042 125.475 75.4154 125.515C75.6266 125.555 75.8264 125.631 75.8594 125.684C75.8936 125.739 80.8847 125.781 87.5001 125.781C94.1156 125.781 99.1067 125.739 99.1409 125.684C99.1738 125.631 99.3737 125.555 99.5849 125.515C99.7961 125.475 99.9689 125.402 99.9689 125.353C99.9689 125.303 100.141 125.145 100.351 125.002C100.561 124.859 100.733 124.68 100.734 124.605C100.734 124.53 100.774 124.469 100.823 124.469C100.872 124.469 101.002 124.166 101.113 123.796C101.281 123.235 101.294 123.041 101.192 122.621C101.125 122.344 101.037 121.92 100.997 121.679C100.957 121.439 100.889 121.193 100.845 121.133C100.801 121.072 100.733 120.78 100.694 120.483C100.656 120.187 100.55 119.831 100.46 119.694C100.371 119.557 100.295 119.234 100.294 118.976C100.292 118.718 100.218 118.412 100.129 118.295C100.041 118.178 99.9674 117.883 99.9654 117.639C99.9635 117.395 99.8897 117.099 99.8013 116.983C99.7131 116.866 99.6408 116.578 99.6408 116.343C99.6408 116.109 99.5724 115.786 99.4888 115.626C99.4053 115.466 99.2803 115.065 99.2111 114.734C98.8594 113.051 98.8585 113.069 99.3155 112.383C99.4357 112.202 99.5638 111.968 99.6001 111.863C99.6365 111.758 99.7123 111.672 99.7686 111.672C99.8248 111.672 99.9224 111.524 99.9853 111.344C100.048 111.163 100.144 111.015 100.198 111.015C100.253 111.015 100.297 110.923 100.297 110.81C100.297 110.697 100.372 110.543 100.463 110.467C100.554 110.391 100.708 110.163 100.804 109.961C100.943 109.668 101.043 109.594 101.297 109.594C101.48 109.594 101.643 109.664 101.679 109.758C101.714 109.848 101.829 109.922 101.936 109.922C102.042 109.922 102.191 109.995 102.266 110.086C102.341 110.176 102.464 110.25 102.539 110.25C102.615 110.25 102.738 110.324 102.813 110.414C102.888 110.504 103.043 110.578 103.158 110.578C103.272 110.578 103.394 110.649 103.427 110.735C103.46 110.822 103.631 110.924 103.806 110.963C103.982 111.001 104.125 111.073 104.125 111.123C104.125 111.172 104.273 111.264 104.453 111.327C104.634 111.39 104.781 111.493 104.781 111.557C104.781 111.62 104.874 111.672 104.987 111.672C105.1 111.672 105.253 111.745 105.328 111.836C105.403 111.926 105.552 112 105.658 112C105.765 112 105.88 112.074 105.915 112.164C105.949 112.254 106.079 112.328 106.203 112.328C106.327 112.328 106.457 112.402 106.492 112.492C106.526 112.582 106.64 112.656 106.745 112.656C106.85 112.656 107.049 112.754 107.188 112.875C107.326 112.995 107.506 113.094 107.587 113.094C107.668 113.094 107.735 113.142 107.735 113.201C107.735 113.26 107.856 113.339 108.003 113.376C108.151 113.413 108.33 113.512 108.4 113.596C108.47 113.681 108.621 113.75 108.736 113.75C108.851 113.75 108.973 113.824 109.007 113.914C109.042 114.004 109.19 114.078 109.336 114.078C109.481 114.078 109.627 114.147 109.66 114.232C109.692 114.317 109.839 114.416 109.985 114.453C110.131 114.49 110.25 114.568 110.25 114.627C110.25 114.686 110.329 114.734 110.424 114.734C110.52 114.734 110.724 114.833 110.877 114.953C111.03 115.073 111.222 115.172 111.304 115.172C111.386 115.172 111.453 115.217 111.453 115.272C111.453 115.328 111.601 115.405 111.781 115.445C111.962 115.485 112.11 115.587 112.11 115.672C112.11 115.766 112.22 115.828 112.386 115.828C112.539 115.828 112.692 115.902 112.726 115.992C112.761 116.082 112.876 116.156 112.983 116.156C113.089 116.156 113.238 116.23 113.313 116.32C113.388 116.41 113.536 116.484 113.642 116.484C113.749 116.484 113.864 116.558 113.899 116.648C113.934 116.738 114.063 116.812 114.188 116.812C114.312 116.812 114.44 116.883 114.474 116.97C114.507 117.056 114.678 117.159 114.853 117.197C115.029 117.236 115.172 117.3 115.172 117.341C115.172 117.381 115.406 117.536 115.692 117.686C115.977 117.835 116.276 118.02 116.356 118.096C116.435 118.172 116.59 118.234 116.699 118.234C116.809 118.234 116.927 118.308 116.962 118.398C116.996 118.488 117.126 118.562 117.25 118.562C117.374 118.562 117.504 118.636 117.539 118.726C117.573 118.817 117.695 118.89 117.809 118.89C117.923 118.89 118.114 118.989 118.235 119.109C118.355 119.229 118.527 119.328 118.617 119.328C118.708 119.328 118.781 119.372 118.781 119.427C118.781 119.481 118.929 119.577 119.11 119.64C119.29 119.703 119.438 119.801 119.438 119.858C119.438 119.915 119.647 119.994 119.902 120.035C120.897 120.192 122.172 120.065 122.172 119.809C122.172 119.725 122.224 119.656 122.287 119.656C122.386 119.656 122.614 119.435 123.045 118.922C123.106 118.85 123.156 118.724 123.156 118.642C123.156 118.561 123.229 118.399 123.317 118.282C123.559 117.963 123.562 108.528 123.32 107.844C123.23 107.588 123.156 107.167 123.156 106.909C123.156 106.651 123.106 106.423 123.044 106.403C122.983 106.382 122.902 106.169 122.864 105.929C122.826 105.688 122.729 105.453 122.648 105.404C122.567 105.356 122.5 105.177 122.5 105.006C122.5 104.83 122.429 104.668 122.336 104.632C122.246 104.597 122.172 104.469 122.172 104.347C122.172 104.225 122.074 104.026 121.953 103.906C121.833 103.786 121.735 103.613 121.735 103.523C121.735 103.433 121.685 103.359 121.625 103.359C121.565 103.359 121.516 103.287 121.516 103.199C121.516 103.111 121.417 102.986 121.297 102.922C121.177 102.857 121.078 102.755 121.078 102.694C121.078 102.584 120.971 102.433 120.613 102.039C120.508 101.923 120.422 101.779 120.422 101.719C120.422 101.658 120.348 101.609 120.258 101.609C120.168 101.609 120.094 101.558 120.094 101.496C120.094 101.434 119.946 101.239 119.766 101.062C119.585 100.886 119.437 100.703 119.437 100.656C119.437 100.609 119.265 100.383 119.054 100.154C118.844 99.9249 118.672 99.6911 118.672 99.6343C118.672 99.5775 118.598 99.531 118.508 99.531C118.418 99.531 118.344 99.4624 118.344 99.3787C118.344 99.2949 118.27 99.198 118.18 99.1633C118.09 99.1287 118.016 99.0251 118.016 98.9329C118.016 98.8408 117.942 98.7654 117.852 98.7654C117.761 98.7654 117.687 98.7039 117.687 98.6287C117.687 98.5535 117.515 98.3046 117.304 98.0757C117.094 97.8468 116.922 97.613 116.922 97.5562C116.922 97.4994 116.848 97.4529 116.758 97.4529C116.668 97.4529 116.594 97.3843 116.594 97.3005C116.594 97.2168 116.52 97.1199 116.43 97.0852C116.34 97.0506 116.266 96.9469 116.266 96.8547C116.266 96.7626 116.192 96.6873 116.102 96.6873C116.011 96.6873 115.938 96.6371 115.938 96.5758C115.938 96.3959 115.13 95.3878 114.981 95.381C114.905 95.3776 114.844 95.3062 114.844 95.2224C114.844 95.1386 114.77 95.0417 114.68 95.0071C114.59 94.9725 114.516 94.8688 114.516 94.7766C114.516 94.6845 114.448 94.6092 114.364 94.6092C114.281 94.6092 114.184 94.523 114.149 94.4177C114.06 94.1527 113.855 93.8607 113.523 93.5261C113.368 93.3698 113.209 93.1558 113.171 93.0506C113.132 92.9453 113.025 92.8592 112.933 92.8592C112.841 92.8592 112.766 92.8073 112.766 92.7439C112.766 92.6804 112.618 92.4712 112.438 92.279C112.258 92.0867 112.11 91.8732 112.11 91.8045C112.11 91.7356 112.036 91.6511 111.945 91.6164C111.855 91.5819 111.781 91.4782 111.781 91.386C111.781 91.2939 111.708 91.2185 111.617 91.2185C111.527 91.2185 111.453 91.162 111.453 91.0929C111.453 91.0237 111.293 90.8088 111.098 90.6152C110.902 90.4216 110.668 90.1502 110.578 90.0119C110.488 89.8737 110.328 89.6702 110.223 89.5599C110.118 89.4495 110.031 89.3099 110.031 89.2498C110.031 89.1896 109.958 89.1404 109.867 89.1404C109.777 89.1404 109.703 89.0765 109.703 88.9985C109.703 88.9206 109.558 88.7359 109.38 88.5884C109.202 88.4408 109.054 88.2662 109.052 88.2003C109.049 88.1345 108.949 87.9914 108.828 87.8826C108.557 87.6369 108.534 86.9073 108.78 86.3205C108.875 86.0929 108.975 85.4322 109.007 84.8201C109.038 84.2185 109.111 83.6279 109.168 83.5076C109.225 83.3873 109.318 82.4029 109.373 81.3201C109.429 80.2373 109.534 78.5683 109.607 77.6113C109.71 76.2549 109.71 75.5074 109.608 74.2207C109.536 73.3129 109.43 71.6842 109.373 70.6013C109.316 69.5185 109.222 68.4357 109.164 68.1951C109.106 67.9545 109.028 67.2763 108.991 66.6882C108.954 66.1001 108.853 65.4496 108.767 65.2425C108.68 65.0356 108.61 64.5791 108.61 64.2283C108.61 63.8774 108.554 63.5348 108.486 63.467C108.418 63.3991 108.339 62.9832 108.31 62.5428C108.281 62.1024 108.189 61.6329 108.105 61.4997C108.022 61.3665 107.952 61.0466 107.949 60.7888C107.947 60.531 107.875 60.197 107.789 60.0466C107.703 59.8963 107.631 59.5359 107.629 59.2459C107.627 58.9515 107.559 58.6527 107.476 58.5695C107.394 58.4875 107.294 58.1732 107.254 57.8709C107.214 57.5685 107.14 57.2958 107.09 57.2646C107.039 57.2333 106.966 56.9693 106.927 56.6777C106.889 56.3862 106.785 56.0528 106.698 55.937C106.61 55.8212 106.537 55.5225 106.535 55.2732C106.533 54.9737 106.476 54.7987 106.367 54.7571C106.264 54.7175 106.203 54.5499 106.203 54.3045C106.203 54.059 106.143 53.8915 106.039 53.8519C105.933 53.8111 105.875 53.6415 105.875 53.3708C105.875 53.141 105.801 52.8791 105.711 52.7889C105.621 52.6986 105.547 52.4771 105.547 52.2967C105.547 52.1162 105.473 51.8947 105.383 51.8045C105.293 51.7142 105.219 51.5753 105.218 51.4958C105.218 51.4164 105.151 51.2237 105.07 51.0677C104.988 50.9118 104.889 50.6089 104.849 50.3947C104.808 50.1805 104.703 49.9775 104.614 49.9435C104.526 49.9094 104.452 49.7447 104.45 49.5774C104.448 49.4102 104.374 49.1776 104.286 49.0609C104.197 48.9441 104.125 48.7334 104.125 48.5926C104.125 48.4518 104.051 48.3083 103.961 48.2737C103.868 48.2379 103.797 48.0747 103.797 47.8943C103.797 47.7203 103.747 47.5779 103.685 47.5779C103.623 47.5779 103.524 47.4425 103.464 47.2771C103.404 47.1117 103.302 46.8533 103.236 46.7029C103.171 46.5525 103.056 46.2818 102.979 46.1013C102.752 45.5616 102.602 45.2374 102.485 45.0349C102.313 44.7362 102.214 44.5454 101.55 43.2302C101.209 42.5535 100.889 41.9998 100.84 41.9998C100.792 41.9998 100.72 41.8563 100.682 41.6808C100.643 41.5053 100.541 41.3347 100.454 41.3014C100.368 41.2682 100.297 41.1217 100.297 40.9758C100.297 40.83 100.223 40.6824 100.133 40.6477C100.043 40.6131 99.9689 40.5154 99.9689 40.4307C99.9689 40.3459 99.8951 40.2153 99.8048 40.1404C99.7146 40.0655 99.6408 39.9364 99.6408 39.8536C99.6408 39.7707 99.5423 39.6045 99.422 39.4841C99.3017 39.3638 99.2033 39.1916 99.2033 39.1013C99.2033 39.0111 99.154 38.9373 99.0939 38.9373C99.0337 38.9373 98.9845 38.8659 98.9845 38.7787C98.9845 38.6914 98.9219 38.5807 98.8455 38.5326C98.769 38.4845 98.6471 38.3097 98.5744 38.1443C98.5017 37.9789 98.392 37.8435 98.3306 37.8435C98.2692 37.8435 98.2189 37.7451 98.2189 37.6248C98.2189 37.5045 98.1706 37.406 98.1116 37.406C98.0526 37.406 97.9743 37.2866 97.9377 37.1405C97.901 36.9944 97.8016 36.8483 97.7169 36.8158C97.632 36.7832 97.5626 36.6813 97.5626 36.5891C97.5626 36.497 97.5181 36.4216 97.4636 36.4216C97.4092 36.4216 97.2348 36.2002 97.0762 35.9295C96.9175 35.6588 96.7407 35.4373 96.683 35.4373C96.6254 35.4373 96.5783 35.3711 96.5783 35.2902C96.5783 35.2092 96.4798 35.0539 96.3595 34.9451C96.2392 34.8363 96.1408 34.6862 96.1408 34.6117C96.1408 34.5372 96.0669 34.448 95.9767 34.4133C95.8865 34.3787 95.8126 34.2751 95.8126 34.1829C95.8126 34.0908 95.7388 34.0154 95.6486 34.0154C95.5583 34.0154 95.4845 33.9288 95.4845 33.823C95.4845 33.7171 95.3861 33.569 95.2658 33.4939C95.1454 33.4188 95.047 33.3064 95.047 33.2442C95.047 33.1257 94.9515 32.9958 94.5001 32.4999C94.3497 32.3346 94.0846 31.9928 93.911 31.7403C93.7375 31.4876 93.5528 31.281 93.5009 31.281C93.4489 31.281 93.4064 31.2072 93.4064 31.117C93.4064 31.0267 93.3326 30.9529 93.2423 30.9529C93.1521 30.9529 93.0783 30.9054 93.0783 30.8472C93.0783 30.7892 92.9306 30.5906 92.7501 30.406C92.5697 30.2214 92.422 30.0229 92.422 29.9648C92.422 29.9066 92.3482 29.8591 92.2579 29.8591C92.1677 29.8591 92.0939 29.8127 92.0939 29.7558C92.0939 29.6536 91.4332 28.9046 90.4259 27.8651C90.1402 27.5703 89.9064 27.283 89.9064 27.2268C89.9064 27.1707 89.8602 27.1248 89.8038 27.1248C89.7474 27.1248 89.5392 26.9769 89.3412 26.7961C89.1434 26.6153 88.8819 26.4364 88.7603 26.3985C88.6387 26.3607 88.5085 26.2819 88.4709 26.2235C88.3954 26.1061 87.1489 26.0172 86.7619 26.1018ZM87.172 32.867C87.172 32.9572 87.0982 33.031 87.0079 33.031C86.9177 33.031 86.8439 33.0777 86.8439 33.1348C86.8439 33.1919 86.5978 33.4994 86.297 33.8181C85.9962 34.1368 85.7501 34.4539 85.7501 34.5229C85.7501 34.5918 85.6763 34.6766 85.5861 34.7112C85.4958 34.7458 85.422 34.8495 85.422 34.9417C85.422 35.0338 85.3482 35.1091 85.2579 35.1091C85.1677 35.1091 85.0939 35.1611 85.0939 35.2246C85.0939 35.2882 84.9563 35.4728 84.7882 35.6348C84.6201 35.7969 84.3427 36.1387 84.1717 36.3943C84.0009 36.6499 83.8185 36.8591 83.7665 36.8591C83.7146 36.8591 83.672 36.933 83.672 37.0232C83.672 37.1134 83.6216 37.1873 83.5599 37.1873C83.4983 37.1873 83.4011 37.3103 83.3439 37.4607C83.2867 37.6111 83.1894 37.7341 83.1279 37.7341C83.0662 37.7341 83.0158 37.8326 83.0158 37.9529C83.0158 38.0744 82.9428 38.1716 82.8517 38.1716C82.7615 38.1716 82.6876 38.247 82.6876 38.3391C82.6876 38.4313 82.6168 38.5338 82.5302 38.567C82.4437 38.6003 82.3437 38.7605 82.3079 38.9233C82.2721 39.0859 82.0969 39.3397 81.9184 39.4871C81.7399 39.6345 81.5939 39.8434 81.5939 39.9512C81.5939 40.059 81.5201 40.1756 81.4298 40.2102C81.3396 40.2449 81.2658 40.3433 81.2658 40.4289C81.2658 40.5147 81.1919 40.6131 81.1017 40.6477C81.0115 40.6824 80.9376 40.7845 80.9376 40.8746C80.9376 40.9649 80.79 41.2251 80.6095 41.4529C80.429 41.6807 80.2814 41.9181 80.2814 41.9803C80.2814 42.0426 80.2193 42.1586 80.1433 42.2381C80.0674 42.3175 79.9448 42.5056 79.8708 42.656C79.6993 43.0042 79.4985 43.3169 79.3244 43.5069C79.2492 43.5889 79.1876 43.751 79.1876 43.8669C79.1876 43.983 79.1138 44.0779 79.0236 44.0779C78.9225 44.0779 78.8595 44.1805 78.8595 44.3449C78.8595 44.4918 78.812 44.6412 78.754 44.6772C78.6959 44.713 78.418 45.2096 78.1364 45.7808C77.8549 46.3518 77.5824 46.8451 77.531 46.8768C77.4796 46.9085 77.4376 47.014 77.4376 47.1109C77.4376 47.2079 77.3684 47.3649 77.2837 47.4599C77.1991 47.5549 77.113 47.7556 77.0923 47.906L77.0548 48.1795H87.5001H97.9454L97.9079 47.906C97.8873 47.7556 97.8012 47.5549 97.7165 47.4599C97.6319 47.3649 97.5626 47.2079 97.5626 47.1109C97.5626 47.014 97.5144 46.9048 97.4555 46.8683C97.3965 46.8319 97.125 46.3368 96.852 45.7681C96.5791 45.1994 96.3074 44.7341 96.2483 44.7341C96.1891 44.7341 96.1408 44.5865 96.1408 44.406C96.1408 44.1873 96.0861 44.0779 95.9767 44.0779C95.8865 44.0779 95.8126 43.983 95.8126 43.8669C95.8126 43.751 95.7512 43.5889 95.6759 43.5069C95.5018 43.3169 95.301 43.0042 95.1295 42.656C95.0554 42.5056 94.9328 42.3175 94.8569 42.2381C94.781 42.1586 94.7181 42.0355 94.7171 41.9647C94.7161 41.8937 94.5685 41.6691 94.389 41.4654C94.2095 41.2617 94.0626 41.0086 94.0626 40.9029C94.0626 40.7972 93.9888 40.6824 93.8986 40.6477C93.8083 40.6131 93.7345 40.5147 93.7345 40.4289C93.7345 40.3433 93.6607 40.2449 93.5704 40.2102C93.4802 40.1756 93.4064 40.059 93.4064 39.9512C93.4064 39.8434 93.2604 39.6345 93.0819 39.4871C92.9034 39.3397 92.7281 39.0859 92.6924 38.9233C92.6566 38.7605 92.5565 38.6003 92.47 38.567C92.3835 38.5338 92.3126 38.4313 92.3126 38.3391C92.3126 38.247 92.2388 38.1716 92.1486 38.1716C92.0575 38.1716 91.9845 38.0744 91.9845 37.9529C91.9845 37.8326 91.9341 37.7341 91.8724 37.7341C91.8108 37.7341 91.7136 37.6111 91.6564 37.4607C91.5992 37.3103 91.502 37.1873 91.4404 37.1873C91.3787 37.1873 91.3283 37.1134 91.3283 37.0232C91.3283 36.933 91.2857 36.8591 91.2338 36.8591C91.1818 36.8591 90.9974 36.6499 90.8239 36.3943C90.6505 36.1387 90.4469 35.8901 90.3716 35.842C90.2962 35.7938 90.2345 35.6832 90.2345 35.5959C90.2345 35.5087 90.1607 35.4373 90.0704 35.4373C89.9802 35.4373 89.9064 35.3864 89.9064 35.3242C89.9064 35.2621 89.7587 35.0668 89.5783 34.8904C89.3978 34.714 89.2501 34.5287 89.2501 34.4787C89.2501 34.4286 89.0794 34.2177 88.8708 34.0101C88.6621 33.8024 88.4899 33.5711 88.488 33.4959C88.486 33.4207 88.4107 33.3591 88.3204 33.3591C88.2302 33.3591 88.1564 33.2853 88.1564 33.1951C88.1564 33.1049 88.0826 33.031 87.9923 33.031C87.9021 33.031 87.8283 32.9572 87.8283 32.867C87.8283 32.7576 87.7189 32.7029 87.5001 32.7029C87.2814 32.7029 87.172 32.7576 87.172 32.867ZM74.5665 53.8742C74.4613 54.0857 74.3751 54.3108 74.3751 54.3745C74.3751 54.4381 74.3097 54.6453 74.2298 54.8348C74.0129 55.349 73.744 56.2201 73.6605 56.6794C73.6199 56.9029 73.518 57.1427 73.434 57.2124C73.3468 57.2848 73.2814 57.5403 73.2814 57.8087C73.2814 58.0671 73.2311 58.2952 73.1696 58.3157C73.1081 58.3361 73.0166 58.6139 72.9662 58.9329C72.9157 59.2519 72.8184 59.569 72.7498 59.6376C72.6812 59.7062 72.6251 59.995 72.6251 60.2795C72.6251 60.5699 72.5598 60.8619 72.4763 60.9455C72.3945 61.0274 72.2921 61.4241 72.249 61.8272C72.2058 62.2302 72.1251 62.588 72.0697 62.6222C72.0143 62.6566 71.9677 62.8662 71.9663 63.0883C71.9648 63.3103 71.9111 63.6888 71.847 63.9295C71.7828 64.1701 71.6858 64.7607 71.6315 65.242C71.5771 65.7232 71.4585 66.3349 71.368 66.6013C71.2772 66.8681 71.2033 67.4657 71.2033 67.9323C71.2033 68.398 71.122 69.0905 71.0228 69.4714C70.8658 70.0734 70.8428 70.9135 70.8463 75.906C70.849 79.9682 70.8884 81.8082 70.9809 82.1951C71.0528 82.4959 71.1489 83.2834 71.1946 83.9451C71.2402 84.6068 71.3333 85.283 71.4013 85.4478C71.4694 85.6125 71.5571 86.0801 71.5962 86.4869C71.6354 86.8935 71.7353 87.4951 71.8182 87.8235C71.9011 88.152 71.9689 88.6044 71.9689 88.8288C71.9689 89.0532 72.0147 89.2652 72.0706 89.2998C72.1266 89.3343 72.2031 89.6448 72.2406 89.9898C72.2782 90.3348 72.38 90.7476 72.467 90.9072C72.5539 91.0669 72.6251 91.414 72.6251 91.6783C72.6251 91.9428 72.6812 92.2153 72.7498 92.2838C72.8184 92.3524 72.9157 92.6695 72.9662 92.9885C73.0166 93.3075 73.1081 93.5853 73.1696 93.6057C73.2311 93.6262 73.2814 93.8114 73.2814 94.0171C73.2814 94.2228 73.3798 94.5748 73.5001 94.7994C73.6204 95.0238 73.7189 95.3133 73.7189 95.4427C73.7189 95.5721 73.7924 95.8188 73.8823 95.9912C73.9721 96.1635 74.0459 96.4123 74.0464 96.5441C74.0467 96.6759 74.0907 96.8108 74.144 96.8437C74.1973 96.8766 74.2752 97.0862 74.3171 97.3094C74.3589 97.5325 74.463 97.8147 74.5483 97.9365C74.6335 98.0582 74.7033 98.2961 74.7033 98.4651C74.7033 98.6372 74.7753 98.8 74.8673 98.8352C74.9576 98.8699 75.0314 99.0312 75.0314 99.1937C75.0314 99.3562 75.1037 99.5847 75.1919 99.7015C75.2803 99.8182 75.3542 100.008 75.356 100.124C75.358 100.24 75.4295 100.412 75.5151 100.507C75.6728 100.682 75.9812 101.439 76.097 101.935C76.1318 102.085 76.2263 102.273 76.3068 102.353C76.3873 102.434 76.4533 102.589 76.4533 102.699C76.4533 102.809 76.5271 102.927 76.6173 102.961C76.7114 102.997 76.7814 103.161 76.7814 103.344C76.7814 103.527 76.8514 103.691 76.9454 103.727C77.0357 103.761 77.1095 103.914 77.1095 104.067C77.1095 104.24 77.171 104.344 77.2736 104.344C77.3833 104.344 77.4376 104.453 77.4376 104.675C77.4376 104.863 77.506 105.033 77.595 105.067C77.6815 105.1 77.7839 105.271 77.8224 105.446C77.861 105.622 77.9339 105.765 77.9845 105.765C78.0351 105.765 78.109 105.913 78.1486 106.094C78.1882 106.274 78.262 106.422 78.3126 106.422C78.3633 106.422 78.4361 106.565 78.4747 106.741C78.5132 106.916 78.6156 107.087 78.7021 107.12C78.7886 107.153 78.8595 107.274 78.8595 107.389C78.8595 107.504 78.9333 107.659 79.0236 107.734C79.1138 107.809 79.1876 107.94 79.1876 108.024C79.1876 108.109 79.2615 108.207 79.3517 108.241C79.4419 108.276 79.5158 108.395 79.5158 108.506C79.5158 108.617 79.6321 108.833 79.7744 108.986L80.033 109.265H87.5001H94.9673L95.2258 108.986C95.3681 108.833 95.4845 108.617 95.4845 108.506C95.4845 108.395 95.5583 108.276 95.6486 108.241C95.7388 108.207 95.8126 108.109 95.8126 108.024C95.8126 107.94 95.8865 107.809 95.9767 107.734C96.0669 107.659 96.1408 107.504 96.1408 107.389C96.1408 107.274 96.2116 107.153 96.2982 107.12C96.3847 107.087 96.487 106.916 96.5255 106.741C96.5641 106.565 96.637 106.422 96.6876 106.422C96.7383 106.422 96.8121 106.274 96.8517 106.094C96.8913 105.913 96.9651 105.765 97.0158 105.765C97.0664 105.765 97.1392 105.622 97.1779 105.446C97.2164 105.271 97.3187 105.1 97.4052 105.067C97.4943 105.033 97.5626 104.863 97.5626 104.675C97.5626 104.453 97.617 104.344 97.7267 104.344C97.8361 104.344 97.8908 104.234 97.8908 104.015C97.8908 103.797 97.9454 103.687 98.0548 103.687C98.1645 103.687 98.2189 103.578 98.2189 103.356C98.2189 103.162 98.287 102.998 98.3829 102.961C98.4732 102.927 98.547 102.809 98.547 102.699C98.547 102.589 98.6208 102.426 98.7111 102.336C98.8013 102.245 98.8767 102.057 98.8786 101.918C98.8805 101.778 98.9543 101.568 99.0427 101.452C99.131 101.335 99.2033 101.157 99.2033 101.056C99.2033 100.955 99.3017 100.748 99.422 100.595C99.5423 100.442 99.6408 100.21 99.6408 100.08C99.6408 99.95 99.7146 99.7697 99.8048 99.6795C99.8951 99.5892 99.9689 99.3697 99.9689 99.1916C99.9689 99.0048 100.038 98.8413 100.133 98.805C100.232 98.7667 100.297 98.6013 100.297 98.3842C100.297 98.1876 100.367 97.9685 100.453 97.8975C100.538 97.8265 100.641 97.5746 100.681 97.3378C100.721 97.1009 100.798 96.8794 100.853 96.8454C100.908 96.8115 100.954 96.6759 100.954 96.5441C100.954 96.4123 101.02 96.1785 101.101 96.0246C101.181 95.8706 101.281 95.5335 101.322 95.2755C101.363 95.0173 101.469 94.7337 101.558 94.6451C101.646 94.5566 101.719 94.2949 101.719 94.0636C101.719 93.8323 101.774 93.6246 101.842 93.6019C101.91 93.5793 101.99 93.3054 102.02 92.9932C102.05 92.6811 102.142 92.3695 102.225 92.3009C102.311 92.229 102.375 91.9685 102.375 91.6869C102.375 91.4178 102.444 91.0669 102.528 90.9072C102.672 90.6333 102.809 89.9901 103.021 88.5824C103.072 88.2454 103.164 87.8024 103.227 87.598C103.29 87.3936 103.374 86.8587 103.414 86.4094C103.454 85.9601 103.543 85.4925 103.611 85.3704C103.68 85.2482 103.769 84.6068 103.81 83.9451C103.851 83.2834 103.944 82.4713 104.016 82.1404C104.201 81.2871 104.2 70.4921 104.014 69.7263C103.941 69.4256 103.849 68.6381 103.809 67.9763C103.769 67.3146 103.679 66.6709 103.609 66.546C103.539 66.4211 103.45 65.9289 103.412 65.4523C103.374 64.9756 103.297 64.4627 103.242 64.3123C103.187 64.1619 103.093 63.7435 103.034 63.3826C102.759 61.7016 102.67 61.2842 102.528 61.0142C102.444 60.8545 102.375 60.5075 102.375 60.2431C102.375 59.9786 102.319 59.7062 102.25 59.6376C102.182 59.569 102.085 59.2519 102.034 58.9329C101.984 58.6139 101.892 58.3361 101.831 58.3157C101.769 58.2952 101.719 58.0966 101.719 57.8743C101.719 57.6521 101.651 57.3732 101.569 57.2546C101.486 57.136 101.383 56.8666 101.34 56.656C101.241 56.1819 100.664 54.4467 100.422 53.8972L100.242 53.4898L87.5001 53.4896L74.7579 53.4895L74.5665 53.8742ZM85.7501 62.2957C85.5396 62.3754 85.1566 62.4434 84.8991 62.4468C84.588 62.4508 84.4096 62.508 84.3679 62.617C84.3266 62.7243 84.1562 62.781 83.8757 62.781C83.595 62.781 83.4246 62.8378 83.3835 62.9451C83.3488 63.0353 83.2694 63.1091 83.2069 63.1091C83.0073 63.1091 81.523 63.8607 81.3783 64.035C81.3017 64.1273 81.1764 64.2029 81.1001 64.2029C81.0236 64.2029 80.9327 64.2767 80.898 64.367C80.8635 64.4572 80.7598 64.531 80.6676 64.531C80.5755 64.531 80.5001 64.6049 80.5001 64.6951C80.5001 64.7853 80.4558 64.8591 80.4017 64.8591C80.2735 64.8591 79.5158 65.6169 79.5158 65.7451C79.5158 65.7992 79.4452 65.8435 79.359 65.8435C79.2728 65.8435 79.1711 65.942 79.1329 66.0623C79.0948 66.1826 79.0177 66.281 78.9616 66.281C78.9054 66.281 78.8595 66.3549 78.8595 66.4451C78.8595 66.5353 78.7857 66.6091 78.6954 66.6091C78.6052 66.6091 78.5314 66.6795 78.5314 66.7654C78.5314 66.8513 78.4681 66.9867 78.3906 67.0662C78.1455 67.3177 77.7658 67.9951 77.7658 68.1806C77.7658 68.2789 77.6919 68.3591 77.6017 68.3591C77.4965 68.3591 77.4364 68.467 77.4341 68.6599C77.4323 68.8254 77.3584 69.0563 77.2701 69.173C77.1818 69.2898 77.1095 69.5141 77.1095 69.6716C77.1095 69.8292 77.0372 70.0535 76.9489 70.1703C76.8606 70.287 76.7867 70.5894 76.7849 70.8421C76.7829 71.0948 76.7076 71.5851 76.6173 71.9314C76.409 72.7313 76.4085 73.5364 76.6161 74.2207C76.7057 74.516 76.7812 75.0037 76.7837 75.3045C76.7863 75.6091 76.8595 75.9454 76.9489 76.0636C77.0372 76.1804 77.1095 76.4335 77.1095 76.6261C77.1095 76.8366 77.175 77.0015 77.2736 77.0394C77.3681 77.0756 77.4376 77.239 77.4376 77.4247C77.4376 77.6021 77.4792 77.7635 77.5301 77.7837C77.6299 77.823 77.9006 78.2947 78.1002 78.7771C78.1687 78.9426 78.2691 79.0779 78.3234 79.0779C78.3776 79.0779 78.422 79.1441 78.422 79.225C78.422 79.3059 78.5204 79.4613 78.6408 79.5701C78.7611 79.6789 78.8616 79.822 78.8641 79.8878C78.8667 79.9537 79.0144 80.1283 79.1922 80.2759C79.3702 80.4234 79.5158 80.6081 79.5158 80.686C79.5158 80.764 79.5663 80.8279 79.628 80.8279C79.6898 80.8279 79.9575 81.0451 80.223 81.3107C80.4885 81.5761 80.8026 81.8241 80.9209 81.8617C81.0394 81.8992 81.1638 82.0019 81.1975 82.0899C81.2313 82.1778 81.3342 82.2498 81.4264 82.2498C81.5185 82.2498 81.5939 82.2951 81.5939 82.3505C81.5939 82.4059 81.7374 82.4826 81.9128 82.5212C82.0884 82.5597 82.259 82.6621 82.2922 82.7486C82.3255 82.8351 82.4787 82.906 82.6329 82.906C82.7872 82.906 82.9416 82.9799 82.9762 83.0701C83.0113 83.1616 83.1739 83.2341 83.3439 83.2341C83.5139 83.2341 83.6765 83.3067 83.7116 83.3982C83.7512 83.5016 83.9188 83.5623 84.1646 83.5623C84.3791 83.5623 84.6861 83.6485 84.8468 83.7537C85.1023 83.921 85.4356 83.9451 87.5001 83.9451C89.5647 83.9451 89.898 83.921 90.1535 83.7537C90.3141 83.6485 90.6211 83.5623 90.8356 83.5623C91.0815 83.5623 91.2491 83.5016 91.2887 83.3982C91.3238 83.3067 91.4864 83.2341 91.6564 83.2341C91.8264 83.2341 91.989 83.1616 92.0241 83.0701C92.0587 82.9799 92.2131 82.906 92.3673 82.906C92.5215 82.906 92.6748 82.8351 92.708 82.7486C92.7413 82.6621 92.9119 82.5597 93.0874 82.5212C93.2629 82.4826 93.4064 82.4059 93.4064 82.3505C93.4064 82.2951 93.4817 82.2498 93.5738 82.2498C93.666 82.2498 93.769 82.1778 93.8028 82.0899C93.8364 82.0019 93.9609 81.8992 94.0794 81.8617C94.1977 81.8241 94.5117 81.5761 94.7773 81.3107C95.0427 81.0451 95.3105 80.8279 95.3723 80.8279C95.434 80.8279 95.4845 80.764 95.4845 80.686C95.4845 80.6081 95.6301 80.4234 95.808 80.2759C95.9859 80.1283 96.1335 79.9537 96.1362 79.8878C96.1387 79.822 96.2392 79.6789 96.3595 79.5701C96.4798 79.4613 96.5783 79.31 96.5783 79.2341C96.5783 79.1582 96.6151 79.0798 96.6603 79.0596C96.7599 79.0154 97.0751 78.4778 97.2428 78.0662C97.3102 77.9007 97.4097 77.7654 97.464 77.7654C97.5182 77.7654 97.5626 77.6162 97.5626 77.4339C97.5626 77.2401 97.6308 77.0761 97.7267 77.0394C97.8248 77.0016 97.8908 76.8369 97.8908 76.6297C97.8908 76.4389 97.9597 76.1845 98.0439 76.0642C98.1281 75.944 98.219 75.5517 98.246 75.1922C98.2729 74.8328 98.3616 74.2569 98.4431 73.9122C98.5663 73.3909 98.5672 73.1426 98.4484 72.4357C98.3697 71.9682 98.2808 71.3159 98.2506 70.9861C98.2204 70.6562 98.1271 70.2885 98.0432 70.1688C97.9593 70.0491 97.8908 69.8238 97.8908 69.6683C97.8908 69.5126 97.8185 69.2898 97.7302 69.173C97.6418 69.0563 97.568 68.8484 97.5661 68.7112C97.5642 68.574 97.4888 68.4333 97.3986 68.3987C97.3083 68.3641 97.2345 68.2607 97.2345 68.1689C97.2345 67.993 96.848 67.3108 96.6096 67.0662C96.5322 66.9867 96.4689 66.8513 96.4689 66.7654C96.4689 66.6795 96.3951 66.6091 96.3048 66.6091C96.2146 66.6091 96.1408 66.5579 96.1408 66.4952C96.1408 66.3575 96.0381 66.2336 95.2812 65.4591C94.9589 65.1291 94.6513 64.8591 94.5976 64.8591C94.544 64.8591 94.5001 64.7853 94.5001 64.6951C94.5001 64.6049 94.4248 64.531 94.3327 64.531C94.2405 64.531 94.1368 64.4572 94.1022 64.367C94.0676 64.2767 93.9767 64.2029 93.9002 64.2029C93.8239 64.2029 93.7006 64.1298 93.6266 64.0405C93.5524 63.9512 93.2633 63.7666 92.9842 63.6303C92.7051 63.494 92.4608 63.3473 92.4414 63.3041C92.422 63.2608 92.2408 63.1945 92.0388 63.1565C91.8369 63.1187 91.645 63.0187 91.6127 62.9344C91.5761 62.8389 91.3919 62.781 91.1246 62.781C90.8441 62.781 90.6737 62.7243 90.6324 62.617C90.5905 62.5077 90.4132 62.4513 90.1012 62.4481C89.8437 62.4455 89.4361 62.3724 89.1954 62.2857C88.6307 62.0822 86.2964 62.089 85.7501 62.2957ZM86.7355 67.4765C86.6457 67.5359 86.3135 67.6167 85.9972 67.6562C85.6808 67.6958 85.422 67.7678 85.422 67.8162C85.422 67.8647 85.2711 67.9374 85.0864 67.978C84.9019 68.0184 84.7244 68.1208 84.6919 68.2054C84.6596 68.2899 84.5152 68.3591 84.3712 68.3591C84.2116 68.3591 84.1095 68.4231 84.1095 68.5232C84.1095 68.6134 84.0526 68.6873 83.9832 68.6873C83.8664 68.6873 83.0158 69.5088 83.0158 69.6216C83.0158 69.6491 82.9173 69.7701 82.797 69.8904C82.6767 70.0107 82.5783 70.183 82.5783 70.2732C82.5783 70.3634 82.529 70.4373 82.4689 70.4373C82.4087 70.4373 82.3592 70.5235 82.3589 70.6287C82.3584 70.7339 82.2739 70.9677 82.1709 71.1482C81.9019 71.6197 81.8902 74.6223 82.1557 75.031C82.2535 75.1814 82.3628 75.4313 82.3986 75.5864C82.4343 75.7415 82.5879 76.0024 82.7397 76.1662C82.8915 76.3301 83.0158 76.5039 83.0158 76.5523C83.0158 76.7948 84.2065 77.7931 84.8605 78.0988C85.2596 78.2853 85.7167 78.5081 85.8764 78.5938C86.0823 78.7044 86.5545 78.7498 87.5001 78.7498C88.4458 78.7498 88.918 78.7044 89.1239 78.5938C89.2836 78.5081 89.7407 78.2853 90.1398 78.0988C90.8676 77.7585 91.9845 76.7856 91.9845 76.4919C91.9845 76.4104 92.0289 76.3435 92.0831 76.3435C92.2153 76.3435 92.5852 75.705 92.6863 75.3023C92.7309 75.1242 92.8251 74.9429 92.8955 74.8993C92.9847 74.8442 93.0217 74.3132 93.0177 73.1482C93.0127 71.789 92.9771 71.415 92.8269 71.1482C92.7253 70.9677 92.6419 70.7339 92.6414 70.6287C92.6411 70.5235 92.5975 70.4373 92.5446 70.4373C92.4918 70.4373 92.3873 70.2896 92.3126 70.1091C92.2379 69.9287 92.1335 69.781 92.0807 69.781C92.0277 69.781 91.9845 69.7339 91.9845 69.6762C91.9845 69.5308 91.1693 68.6873 91.0288 68.6873C90.9658 68.6873 90.8858 68.6134 90.8512 68.5232C90.8166 68.433 90.6936 68.3591 90.5777 68.3591C90.462 68.3591 90.3407 68.2899 90.3083 68.2054C90.2759 68.1208 90.0983 68.0184 89.9138 67.978C89.7292 67.9374 89.5783 67.8684 89.5783 67.8244C89.5783 67.6064 87.0136 67.2926 86.7355 67.4765ZM67.3297 94.7708C67.1742 94.9747 67.047 95.194 67.047 95.2581C67.047 95.3223 66.9732 95.3748 66.8829 95.3748C66.7927 95.3748 66.7189 95.4486 66.7189 95.5388C66.7189 95.6291 66.6451 95.7029 66.5548 95.7029C66.4646 95.7029 66.3908 95.7767 66.3908 95.867C66.3908 95.9572 66.345 96.031 66.2891 96.031C66.2334 96.031 66.0282 96.2771 65.8333 96.5779C65.6384 96.8787 65.438 97.1248 65.388 97.1248C65.3379 97.1248 65.297 97.1986 65.297 97.2888C65.297 97.3791 65.2232 97.4529 65.1329 97.4529C65.0427 97.4529 64.9668 97.5145 64.9643 97.5896C64.9617 97.6649 64.814 97.8471 64.6362 97.9946C64.4582 98.1422 64.3126 98.3017 64.3126 98.3489C64.3126 98.4495 64.0116 98.8322 63.7384 99.0788C63.6332 99.1738 63.547 99.3144 63.547 99.3912C63.547 99.4681 63.4732 99.531 63.3829 99.531C63.2927 99.531 63.2189 99.5785 63.2189 99.6367C63.2189 99.6948 63.0836 99.8843 62.9181 100.058C62.7526 100.232 62.5435 100.489 62.4533 100.63C62.363 100.77 62.1784 101.001 62.0431 101.143C61.9078 101.285 61.797 101.427 61.797 101.459C61.797 101.492 61.6371 101.677 61.4415 101.872C61.0025 102.31 60.7105 102.662 60.4429 103.076C60.3299 103.252 60.0714 103.561 59.8687 103.764C59.6659 103.966 59.5001 104.155 59.5001 104.182C59.5001 104.21 59.3637 104.368 59.1969 104.534C59.0303 104.7 58.7528 105.045 58.5805 105.301C58.4082 105.556 58.2247 105.765 58.1728 105.765C58.1208 105.765 58.0783 105.815 58.0783 105.875C58.0783 105.935 57.9798 106.083 57.8595 106.203C57.7392 106.323 57.6408 106.495 57.6408 106.586C57.6408 106.676 57.5955 106.75 57.54 106.75C57.4847 106.75 57.4044 106.909 57.3616 107.104C57.3189 107.298 57.22 107.508 57.1419 107.569C56.962 107.709 56.874 108.609 56.8082 110.988C56.7774 112.105 56.7972 112.875 56.8569 112.875C57.0353 112.875 57.7329 112.554 57.8038 112.439C57.8416 112.378 57.9695 112.328 58.0881 112.328C58.2068 112.328 58.3322 112.254 58.3668 112.164C58.4015 112.074 58.5195 112 58.6291 112C58.7386 112 58.9021 111.926 58.9923 111.836C59.0825 111.745 59.2112 111.672 59.2781 111.672C59.3451 111.672 59.5056 111.573 59.6347 111.453C59.7638 111.333 59.934 111.234 60.013 111.234C60.0919 111.234 60.1564 111.189 60.1564 111.133C60.1564 111.078 60.2999 111.001 60.4753 110.963C60.6509 110.924 60.8215 110.822 60.8547 110.735C60.888 110.649 61.0397 110.578 61.1921 110.578C61.3443 110.578 61.4689 110.526 61.4689 110.463C61.4689 110.4 61.6165 110.296 61.797 110.233C61.9775 110.17 62.1251 110.075 62.1251 110.02C62.1251 109.966 62.2251 109.922 62.3473 109.922C62.4696 109.922 62.5979 109.848 62.6324 109.758C62.6671 109.667 62.8132 109.594 62.9571 109.594C63.1079 109.594 63.2189 109.529 63.2189 109.441C63.2189 109.358 63.3478 109.257 63.5056 109.217C63.6632 109.178 63.8635 109.074 63.9508 108.987C64.0381 108.899 64.2019 108.828 64.315 108.828C64.428 108.828 64.5598 108.763 64.6079 108.683C64.6561 108.604 64.9293 108.427 65.215 108.291C65.5007 108.154 65.7345 107.998 65.7345 107.943C65.7345 107.888 65.8591 107.844 66.0113 107.844C66.1637 107.844 66.3166 107.77 66.3512 107.679C66.3858 107.589 66.5078 107.515 66.6223 107.515C66.7367 107.515 66.9147 107.417 67.0177 107.297C67.1207 107.176 67.2924 107.078 67.3994 107.078C67.5064 107.078 67.5939 107.03 67.5939 106.971C67.5939 106.912 67.7133 106.833 67.8594 106.797C68.0055 106.76 68.1516 106.661 68.1841 106.576C68.2167 106.491 68.3678 106.422 68.5202 106.422C68.6724 106.422 68.797 106.37 68.797 106.307C68.797 106.243 68.9447 106.14 69.1251 106.077C69.3056 106.014 69.4533 105.918 69.4533 105.864C69.4533 105.81 69.5482 105.765 69.6642 105.765C69.7802 105.765 69.9489 105.692 70.0392 105.601C70.1294 105.511 70.2806 105.437 70.3752 105.437C70.4697 105.437 70.547 105.396 70.547 105.346C70.547 105.296 70.6817 105.186 70.8463 105.1C71.5154 104.753 71.6744 104.489 71.3673 104.234C71.2771 104.159 71.2033 103.955 71.2033 103.78C71.2033 103.598 71.133 103.435 71.0392 103.399C70.949 103.364 70.8751 103.221 70.8751 103.082C70.8751 102.942 70.8013 102.754 70.7111 102.664C70.6208 102.574 70.547 102.379 70.547 102.232C70.547 102.085 70.4727 101.902 70.382 101.827C70.2912 101.752 70.1865 101.5 70.1492 101.267C70.112 101.034 70.0444 100.844 69.9992 100.844C69.9538 100.844 69.861 100.622 69.7928 100.351C69.7246 100.081 69.6204 99.8592 69.5611 99.8592C69.5018 99.8592 69.4533 99.6929 69.4533 99.4897C69.4533 99.2866 69.3794 99.0591 69.2892 98.9842C69.199 98.9092 69.1251 98.6911 69.1251 98.4995C69.1251 98.3078 69.0528 98.0554 68.9646 97.9386C68.8762 97.8219 68.8024 97.602 68.8005 97.45C68.7985 97.2978 68.7304 97.0763 68.6489 96.9578C68.5675 96.8391 68.4723 96.5216 68.4373 96.2522C68.4023 95.9827 68.3224 95.7452 68.2599 95.7243C68.1973 95.7036 68.1151 95.4527 68.0772 95.1669C68.0338 94.8397 67.935 94.6016 67.8103 94.5237C67.6434 94.4195 67.5682 94.4582 67.3297 94.7708ZM107.178 94.5362C107.083 94.6064 106.97 94.8839 106.927 95.1527C106.884 95.4217 106.799 95.6729 106.737 95.7112C106.675 95.7495 106.596 95.997 106.562 96.2614C106.527 96.5257 106.433 96.8391 106.351 96.9578C106.27 97.0763 106.202 97.2978 106.2 97.45C106.198 97.602 106.124 97.8219 106.036 97.9386C105.947 98.0554 105.875 98.2927 105.875 98.466C105.875 98.6393 105.801 98.8549 105.711 98.9451C105.621 99.0353 105.547 99.2727 105.547 99.4724C105.547 99.6777 105.482 99.8606 105.398 99.8927C105.317 99.9241 105.218 100.151 105.178 100.397C105.139 100.642 105.058 100.844 104.999 100.844C104.939 100.844 104.891 100.954 104.89 101.09C104.89 101.225 104.792 101.497 104.672 101.694C104.551 101.891 104.453 102.153 104.453 102.276C104.453 102.399 104.379 102.574 104.289 102.664C104.199 102.754 104.125 102.942 104.125 103.082C104.125 103.221 104.051 103.364 103.961 103.399C103.867 103.435 103.797 103.598 103.797 103.78C103.797 103.955 103.723 104.159 103.633 104.234C103.323 104.492 103.507 104.791 104.152 105.08C104.318 105.153 104.453 105.264 104.453 105.326C104.453 105.387 104.552 105.437 104.672 105.437C104.792 105.437 104.891 105.486 104.891 105.545C104.891 105.604 105.026 105.686 105.19 105.727C105.355 105.768 105.556 105.868 105.636 105.948C105.716 106.028 105.876 106.094 105.992 106.094C106.108 106.094 106.203 106.167 106.203 106.258C106.203 106.359 106.306 106.422 106.471 106.422C106.619 106.422 106.779 106.483 106.827 106.558C106.875 106.634 107.136 106.81 107.406 106.949C108.285 107.403 108.553 107.568 108.642 107.707C108.69 107.782 108.85 107.844 108.998 107.844C109.145 107.844 109.266 107.889 109.266 107.945C109.266 108.001 109.524 108.177 109.84 108.336C110.827 108.833 111.069 108.968 111.126 109.055C111.157 109.101 111.317 109.173 111.482 109.214C111.647 109.255 111.781 109.358 111.781 109.441C111.781 109.531 111.895 109.594 112.058 109.594C112.211 109.594 112.363 109.667 112.398 109.758C112.433 109.848 112.548 109.922 112.655 109.922C112.761 109.922 112.91 109.995 112.985 110.086C113.059 110.176 113.208 110.25 113.314 110.25C113.421 110.25 113.536 110.324 113.571 110.414C113.606 110.504 113.758 110.578 113.911 110.578C114.074 110.578 114.188 110.64 114.188 110.73C114.188 110.814 114.322 110.916 114.487 110.958C114.652 110.999 114.812 111.066 114.843 111.106C114.904 111.187 115.291 111.409 116.047 111.8C116.318 111.94 116.579 112.116 116.627 112.191C116.675 112.266 116.829 112.328 116.97 112.328C117.111 112.328 117.253 112.395 117.284 112.478C117.316 112.56 117.456 112.652 117.597 112.682C117.737 112.712 117.94 112.774 118.048 112.82C118.234 112.898 118.242 112.799 118.191 111.002C118.121 108.485 118.035 107.625 117.845 107.552C117.762 107.52 117.662 107.327 117.624 107.122C117.585 106.917 117.51 106.75 117.457 106.75C117.403 106.75 117.36 106.676 117.36 106.586C117.36 106.495 117.261 106.323 117.141 106.203C117.02 106.083 116.922 105.958 116.922 105.926C116.922 105.894 116.78 105.729 116.606 105.559C116.433 105.389 116.257 105.145 116.216 105.016C116.175 104.887 116.099 104.781 116.047 104.781C115.995 104.781 115.921 104.683 115.883 104.562C115.845 104.442 115.743 104.344 115.657 104.344C115.571 104.344 115.5 104.296 115.5 104.238C115.5 104.18 115.334 103.966 115.132 103.764C114.929 103.561 114.67 103.252 114.557 103.076C114.29 102.662 113.998 102.31 113.559 101.872C113.363 101.677 113.203 101.476 113.203 101.426C113.203 101.375 113.105 101.272 112.985 101.197C112.864 101.122 112.766 101.003 112.766 100.934C112.766 100.864 112.693 100.729 112.605 100.634C111.917 99.8933 111.781 99.7295 111.781 99.6367C111.781 99.5785 111.708 99.531 111.617 99.531C111.527 99.531 111.453 99.4818 111.453 99.4217C111.453 99.3615 111.367 99.2138 111.262 99.0935C111.157 98.9732 110.984 98.7763 110.879 98.656C110.774 98.5357 110.688 98.398 110.688 98.3501C110.688 98.3022 110.542 98.1422 110.364 97.9946C110.186 97.8471 110.039 97.6649 110.036 97.5896C110.033 97.5145 109.958 97.4529 109.867 97.4529C109.777 97.4529 109.703 97.3791 109.703 97.2888C109.703 97.1986 109.662 97.1248 109.612 97.1248C109.562 97.1248 109.362 96.8787 109.167 96.5779C108.972 96.2771 108.767 96.031 108.711 96.031C108.655 96.031 108.61 95.9572 108.61 95.867C108.61 95.7767 108.536 95.7029 108.445 95.7029C108.355 95.7029 108.281 95.6291 108.281 95.5388C108.281 95.4486 108.208 95.3748 108.117 95.3748C108.027 95.3748 107.953 95.3062 107.953 95.2224C107.953 95.1386 107.879 95.0417 107.789 95.0071C107.699 94.9725 107.625 94.8748 107.625 94.7901C107.625 94.533 107.375 94.391 107.178 94.5362ZM81.2658 114.885C81.2658 114.968 81.1919 115.097 81.1017 115.172C81.0012 115.255 80.9376 115.495 80.9376 115.79C80.9376 116.056 80.8697 116.382 80.7867 116.515C80.7036 116.649 80.6048 117.001 80.5671 117.299C80.5293 117.596 80.4572 117.867 80.4066 117.9C80.3561 117.933 80.284 118.228 80.2463 118.554C80.2087 118.88 80.1273 119.198 80.0656 119.259C80.0038 119.321 79.9533 119.608 79.9533 119.897V120.422H87.5001H95.047V119.897C95.047 119.608 94.9965 119.321 94.9347 119.259C94.873 119.198 94.7916 118.88 94.754 118.554C94.7163 118.228 94.6442 117.933 94.5937 117.9C94.5431 117.867 94.4709 117.596 94.4332 117.299C94.3955 117.001 94.2967 116.649 94.2136 116.515C94.1306 116.382 94.0626 116.056 94.0626 115.79C94.0626 115.495 93.9991 115.255 93.8986 115.172C93.8083 115.097 93.7345 114.968 93.7345 114.885C93.7345 114.759 92.7226 114.734 87.5001 114.734C82.2777 114.734 81.2658 114.759 81.2658 114.885ZM85.9373 131.687C85.203 131.73 84.5932 131.816 84.5209 131.888C84.4511 131.958 84.2431 132.015 84.0586 132.015C83.8744 132.015 83.5398 132.114 83.3153 132.234C83.0908 132.354 82.805 132.453 82.6802 132.453C82.5554 132.453 82.3794 132.527 82.2892 132.617C82.1989 132.707 82.0108 132.781 81.8713 132.781C81.7316 132.781 81.589 132.855 81.5543 132.945C81.5197 133.035 81.3668 133.109 81.2145 133.109C81.0413 133.109 80.9376 133.171 80.9376 133.273C80.9376 133.376 80.8339 133.437 80.6605 133.437C80.4975 133.437 80.2528 133.571 80.0666 133.761C79.8922 133.94 79.6232 134.117 79.4686 134.156C79.3141 134.195 79.1876 134.295 79.1876 134.379C79.1876 134.463 79.1191 134.531 79.0353 134.531C78.9515 134.531 78.8546 134.605 78.8199 134.695C78.7854 134.785 78.6817 134.859 78.5895 134.859C78.4974 134.859 78.422 134.933 78.422 135.023C78.422 135.113 78.3482 135.187 78.2579 135.187C78.1677 135.187 78.0939 135.261 78.0939 135.351C78.0939 135.442 78.0447 135.515 77.9845 135.515C77.8427 135.515 77.4376 135.92 77.4376 136.062C77.4376 136.122 77.3638 136.172 77.2736 136.172C77.1833 136.172 77.1095 136.247 77.1095 136.339C77.1095 136.431 77.0357 136.535 76.9454 136.57C76.8552 136.604 76.7814 136.701 76.7814 136.785C76.7814 136.869 76.7129 136.937 76.6291 136.937C76.5455 136.937 76.446 137.06 76.4083 137.211C76.3706 137.361 76.2929 137.484 76.2356 137.484C76.1784 137.484 76.0035 137.755 75.847 138.086C75.6905 138.417 75.5167 138.687 75.4609 138.687C75.4051 138.687 75.3595 138.78 75.3595 138.893C75.3595 139.006 75.2889 139.157 75.2024 139.228C75.1162 139.3 75.0138 139.503 74.9751 139.679C74.9363 139.856 74.8593 140 74.804 140C74.7485 140 74.7033 140.172 74.7033 140.383C74.7033 140.593 74.6619 140.765 74.6115 140.765C74.4737 140.765 74.2658 141.282 74.2658 141.624C74.2658 141.789 74.2191 141.971 74.162 142.029C74.1048 142.086 74.0187 142.45 73.9706 142.839L73.8829 143.545L73.2866 143.513C72.9587 143.496 72.6388 143.417 72.5757 143.338C72.5127 143.259 72.1975 143.172 71.8752 143.144C71.5529 143.115 71.2509 143.03 71.2041 142.954C71.0778 142.75 65.0973 142.745 64.9711 142.949C64.9225 143.028 64.6192 143.117 64.297 143.147C63.9747 143.177 63.6139 143.269 63.4953 143.351C63.3767 143.433 63.1243 143.5 62.9345 143.5C62.7447 143.5 62.5282 143.574 62.4533 143.664C62.3783 143.754 62.1815 143.828 62.0158 143.828C61.8501 143.828 61.6558 143.899 61.5841 143.985C61.5124 144.071 61.3095 144.174 61.1332 144.212C60.9569 144.251 60.8126 144.324 60.8126 144.375C60.8126 144.425 60.6691 144.498 60.4937 144.537C60.3181 144.575 60.1475 144.678 60.1143 144.764C60.081 144.851 59.9346 144.922 59.7887 144.922C59.6429 144.922 59.4952 144.995 59.4605 145.086C59.426 145.176 59.3223 145.25 59.2301 145.25C59.138 145.25 59.0626 145.324 59.0626 145.414C59.0626 145.504 58.9702 145.578 58.8572 145.578C58.7444 145.578 58.5907 145.652 58.5158 145.742C58.4408 145.832 58.3118 145.906 58.229 145.906C58.1461 145.906 58.0783 145.98 58.0783 146.07C58.0783 146.16 58.0248 146.234 57.9595 146.234C57.6909 146.234 55.2345 148.69 55.2345 148.959C55.2345 149.024 55.1607 149.078 55.0704 149.078C54.9802 149.078 54.9064 149.146 54.9064 149.23C54.9064 149.314 54.8326 149.411 54.7423 149.446C54.6521 149.48 54.5783 149.61 54.5783 149.734C54.5783 149.858 54.5044 149.988 54.4142 150.023C54.324 150.057 54.2501 150.156 54.2501 150.241C54.2501 150.327 54.1763 150.426 54.0861 150.46C53.9958 150.495 53.9211 150.629 53.9202 150.758C53.9151 151.376 52.9481 151.691 52.2267 151.309C51.7366 151.05 45.5331 151.05 44.9294 151.309C44.7057 151.406 44.3091 151.484 44.048 151.484C43.7869 151.484 43.4777 151.556 43.3609 151.645C43.2442 151.733 42.9455 151.807 42.6971 151.809C42.4329 151.811 42.1891 151.88 42.1095 151.976C42.0346 152.067 41.8687 152.141 41.7407 152.141C41.6126 152.142 41.3803 152.208 41.2243 152.29C41.0684 152.371 40.7607 152.471 40.5407 152.513C40.3208 152.554 40.1408 152.629 40.1408 152.68C40.1408 152.731 39.9732 152.804 39.7686 152.842C39.5638 152.881 39.3685 152.984 39.3344 153.073C39.3004 153.162 39.1533 153.234 39.0074 153.234C38.8616 153.234 38.714 153.308 38.6793 153.398C38.6447 153.488 38.4942 153.562 38.3449 153.562C38.1956 153.562 38.0342 153.624 37.9861 153.699C37.9379 153.774 37.7879 153.897 37.6525 153.972C37.5172 154.048 37.2957 154.171 37.1603 154.246C37.0249 154.321 36.8896 154.407 36.8595 154.437C36.8294 154.467 36.6168 154.588 36.3871 154.705C36.1574 154.822 35.9218 155.006 35.8638 155.115C35.8056 155.223 35.7084 155.312 35.648 155.312C35.5376 155.312 35.3863 155.419 34.9923 155.777C34.8763 155.882 34.7421 155.969 34.6942 155.969C34.6463 155.969 34.4863 156.114 34.3387 156.292C34.1912 156.47 34.0391 156.618 34.0006 156.62C33.8742 156.629 32.7033 157.811 32.7033 157.93C32.7033 157.994 32.6294 158.047 32.5392 158.047C32.449 158.047 32.3751 158.12 32.3751 158.211C32.3751 158.301 32.3013 158.375 32.2111 158.375C32.1208 158.375 32.0449 158.436 32.0424 158.512C32.0398 158.587 31.8921 158.769 31.7143 158.917C31.5363 159.064 31.3908 159.249 31.3908 159.327C31.3908 159.405 31.339 159.469 31.2757 159.469C31.2124 159.469 31.1091 159.616 31.0462 159.797C30.9833 159.977 30.892 160.125 30.8432 160.125C30.7944 160.125 30.6147 160.346 30.4438 160.617C30.2728 160.887 30.0961 161.109 30.0509 161.109C30.0057 161.109 29.9689 161.208 29.9689 161.328C29.9689 161.449 29.8959 161.547 29.8048 161.547C29.7146 161.547 29.6408 161.642 29.6408 161.758C29.6408 161.874 29.5669 162.042 29.4767 162.133C29.3865 162.223 29.3126 162.368 29.3126 162.455C29.3126 162.542 29.2388 162.675 29.1486 162.75C29.0583 162.825 28.9834 162.941 28.9821 163.009C28.9808 163.077 28.8834 163.256 28.7658 163.406C28.6481 163.556 28.5492 163.778 28.5459 163.898C28.5427 164.019 28.4678 164.213 28.3794 164.329C28.2912 164.446 28.2189 164.632 28.2189 164.743C28.2189 164.854 28.1451 164.973 28.0548 165.007C27.9553 165.045 27.8908 165.211 27.8908 165.428C27.8908 165.624 27.8169 165.847 27.7267 165.922C27.6365 165.997 27.5626 166.213 27.5626 166.403C27.5626 166.593 27.4956 166.845 27.4137 166.964C27.3317 167.082 27.2395 167.448 27.2088 167.776C27.1781 168.105 27.0975 168.392 27.0296 168.414C26.958 168.438 26.9053 168.715 26.9038 169.075C26.9023 169.416 26.8478 169.892 26.7826 170.133C26.5843 170.865 26.4718 172.582 26.541 173.824L26.6064 175H29.3267C30.8229 175 32.047 174.96 32.047 174.912C32.047 174.864 31.9933 174.771 31.9276 174.705C31.7695 174.547 31.7711 171.702 31.9294 171.406C31.9941 171.285 32.047 170.849 32.047 170.438C32.047 169.94 32.1036 169.608 32.216 169.448C32.309 169.315 32.4143 168.96 32.4499 168.658C32.4857 168.356 32.5543 168.109 32.6024 168.109C32.6505 168.109 32.7236 167.884 32.7649 167.608C32.8063 167.333 32.9077 167.081 32.9904 167.05C33.0731 167.018 33.1408 166.85 33.1408 166.676C33.1408 166.502 33.189 166.359 33.2481 166.359C33.307 166.359 33.3887 166.224 33.4296 166.058C33.5192 165.695 33.8909 164.96 34.0271 164.876C34.0811 164.842 34.1251 164.718 34.1251 164.599C34.1251 164.481 34.1956 164.357 34.2815 164.323C34.3676 164.291 34.488 164.12 34.5493 163.944C34.6105 163.769 34.7124 163.625 34.7757 163.625C34.839 163.625 34.8908 163.556 34.8908 163.472C34.8908 163.389 34.9646 163.292 35.0548 163.257C35.1451 163.223 35.2189 163.124 35.2189 163.038C35.2189 162.953 35.2927 162.854 35.3829 162.82C35.4732 162.785 35.547 162.686 35.547 162.599C35.547 162.42 37.0139 160.89 37.1853 160.89C37.2468 160.89 37.297 160.817 37.297 160.726C37.297 160.636 37.3708 160.562 37.4611 160.562C37.5513 160.562 37.6251 160.488 37.6251 160.398C37.6251 160.308 37.6668 160.234 37.7178 160.234C37.7687 160.234 37.9239 160.136 38.0626 160.015C38.2013 159.895 38.3759 159.797 38.4505 159.797C38.5251 159.797 38.6144 159.723 38.6491 159.633C38.6837 159.542 38.7874 159.469 38.8796 159.469C38.9716 159.469 39.0489 159.407 39.0513 159.332C39.0536 159.257 39.2997 159.076 39.5981 158.931C39.8965 158.786 40.1408 158.63 40.1408 158.584C40.1408 158.539 40.2843 158.47 40.4597 158.431C40.6352 158.393 40.8059 158.291 40.8391 158.204C40.8724 158.118 41.003 158.047 41.1295 158.047C41.2561 158.047 41.4334 157.973 41.5236 157.883C41.6138 157.792 41.7766 157.719 41.8852 157.719C41.9938 157.719 42.144 157.645 42.2189 157.554C42.2938 157.464 42.5228 157.39 42.7279 157.39C42.9439 157.39 43.1251 157.327 43.1586 157.24C43.1909 157.155 43.4533 157.057 43.7523 157.018C44.047 156.979 44.314 156.905 44.3457 156.853C44.3774 156.802 44.7363 156.725 45.1431 156.681C45.55 156.638 45.9691 156.556 46.0746 156.5C46.403 156.325 50.9524 156.38 51.4611 156.565C51.7017 156.653 52.1078 156.727 52.3634 156.729C52.619 156.732 52.8283 156.78 52.8283 156.837C52.8283 156.893 53.062 156.974 53.3478 157.016C53.6336 157.058 53.9644 157.16 54.0831 157.241C54.4493 157.494 55.4688 157.429 56.1005 157.111C56.4062 156.958 56.6564 156.785 56.6564 156.728C56.6564 156.671 56.7302 156.625 56.8204 156.625C56.9107 156.625 56.9845 156.559 56.9845 156.478C56.9845 156.397 57.0829 156.241 57.2033 156.133C57.3236 156.024 57.422 155.822 57.422 155.685C57.422 155.547 57.4674 155.406 57.523 155.372C57.5785 155.338 57.6555 155.166 57.694 154.991C57.7326 154.815 57.8349 154.613 57.9212 154.541C58.0076 154.469 58.0783 154.293 58.0783 154.151C58.0783 153.992 58.1425 153.89 58.2423 153.89C58.3435 153.89 58.4064 153.788 58.4064 153.622C58.4064 153.475 58.468 153.315 58.5431 153.267C58.6939 153.17 58.8996 152.866 59.0545 152.511C59.1099 152.384 59.2328 152.25 59.3276 152.213C59.4226 152.177 59.5001 152.097 59.5001 152.034C59.5001 151.89 59.9034 151.484 60.047 151.484C60.1072 151.484 60.1564 151.41 60.1564 151.32C60.1564 151.23 60.2302 151.156 60.3204 151.156C60.4107 151.156 60.4845 151.107 60.4845 151.047C60.4845 150.987 60.5829 150.839 60.7033 150.719C60.8236 150.598 60.9712 150.5 61.0314 150.5C61.0915 150.5 61.1408 150.448 61.1408 150.385C61.1408 150.321 61.2845 150.22 61.4601 150.158C61.6358 150.097 61.8065 149.977 61.8394 149.891C61.8725 149.805 61.9537 149.734 62.0201 149.734C62.0865 149.734 62.2146 149.66 62.3048 149.57C62.3951 149.48 62.5638 149.406 62.6798 149.406C62.7958 149.406 62.8908 149.332 62.8908 149.242C62.8908 149.132 63.0005 149.078 63.2223 149.078C63.4161 149.078 63.58 149.01 63.6168 148.914C63.6515 148.824 63.7698 148.75 63.8797 148.75C63.9897 148.75 64.2182 148.692 64.3876 148.621C64.9108 148.403 65.8589 148.193 66.7736 148.094C67.7083 147.992 70.0918 148.068 70.2736 148.205C70.3337 148.25 70.6044 148.32 70.8751 148.361C71.1458 148.401 71.4658 148.476 71.5861 148.527C72.5141 148.923 72.9212 149.107 73.0626 149.195C73.1529 149.251 73.3327 149.343 73.4622 149.4C73.5917 149.456 73.7299 149.554 73.7694 149.618C73.8089 149.682 73.9367 149.734 74.0535 149.734C74.1703 149.734 74.2658 149.805 74.2658 149.891C74.2658 149.977 74.3642 150.079 74.4845 150.117C74.6048 150.155 74.7033 150.232 74.7033 150.288C74.7033 150.344 74.7771 150.39 74.8673 150.39C74.9576 150.39 75.1213 150.48 75.2311 150.59C75.341 150.7 75.5133 150.822 75.6139 150.86C75.7146 150.899 75.797 150.981 75.797 151.043C75.797 151.113 76.2123 151.156 76.8908 151.156C77.7831 151.156 78.0214 151.121 78.1849 150.965C78.2951 150.859 78.5658 150.617 78.7864 150.427C79.0071 150.237 79.1876 150.008 79.1876 149.919C79.1876 149.83 79.2615 149.729 79.3517 149.695C79.4823 149.644 79.5158 149.41 79.5158 148.544C79.5158 147.847 79.4723 147.441 79.395 147.415C79.0666 147.306 79.041 143.694 79.3639 143.018C79.4474 142.843 79.5158 142.588 79.5158 142.45C79.5158 142.313 79.5649 142.17 79.6249 142.133C79.685 142.096 79.8654 141.785 80.026 141.443C80.1866 141.1 80.3467 140.795 80.3818 140.765C80.417 140.735 80.5156 140.575 80.6009 140.41C80.6861 140.244 80.7968 140.109 80.8467 140.109C80.8967 140.109 80.9376 140.054 80.9376 139.987C80.9376 139.828 81.7501 139.015 81.9091 139.015C81.9764 139.015 82.0314 138.942 82.0314 138.851C82.0314 138.761 82.0826 138.687 82.1451 138.687C82.2571 138.687 82.9078 138.265 83.0169 138.122C83.0476 138.081 83.2075 138.015 83.3723 137.973C83.5372 137.932 83.672 137.829 83.672 137.746C83.672 137.651 83.7908 137.594 83.9868 137.594C84.1598 137.594 84.3627 137.52 84.4376 137.429C84.5149 137.336 84.7533 137.265 84.9888 137.265C85.2236 137.265 85.4235 137.206 85.4494 137.129C85.4836 137.026 85.9932 136.992 87.5001 136.992C89.0071 136.992 89.5167 137.026 89.5509 137.129C89.5767 137.206 89.7767 137.265 90.0115 137.265C90.247 137.265 90.4854 137.336 90.5626 137.429C90.6376 137.52 90.8404 137.594 91.0135 137.594C91.2095 137.594 91.3283 137.651 91.3283 137.746C91.3283 137.829 91.4631 137.932 91.6279 137.973C91.7928 138.015 91.9527 138.081 91.9834 138.122C92.0925 138.265 92.7431 138.687 92.8551 138.687C92.9177 138.687 92.9689 138.761 92.9689 138.851C92.9689 138.942 93.0239 139.015 93.0912 139.015C93.2405 139.015 94.0626 139.823 94.0626 139.97C94.0626 140.028 94.1611 140.164 94.2814 140.273C94.4017 140.382 94.5001 140.533 94.5001 140.609C94.5001 140.685 94.5409 140.764 94.5909 140.784C94.6408 140.804 94.8132 141.1 94.9739 141.443C95.1346 141.785 95.3153 142.096 95.3754 142.133C95.4354 142.17 95.4845 142.323 95.4845 142.473C95.4845 142.622 95.5638 142.898 95.6607 143.086C95.9184 143.584 95.9184 146.877 95.6607 147.27C95.4146 147.646 95.4049 149.601 95.6486 149.695C95.7388 149.729 95.8126 149.83 95.8126 149.919C95.8126 150.008 95.9932 150.237 96.2138 150.427C96.4344 150.617 96.7051 150.859 96.8154 150.965C97.0902 151.227 99.1436 151.25 99.2429 150.992C99.2774 150.902 99.3811 150.828 99.4733 150.828C99.5654 150.828 99.6408 150.778 99.6408 150.716C99.6408 150.655 99.7761 150.546 99.9415 150.474C100.107 150.402 100.378 150.206 100.544 150.039C100.71 149.871 100.913 149.734 100.995 149.734C101.078 149.734 101.206 149.66 101.281 149.57C101.356 149.48 101.485 149.406 101.568 149.406C101.651 149.406 101.719 149.36 101.719 149.304C101.719 149.248 101.83 149.17 101.965 149.13C102.1 149.09 102.433 148.959 102.703 148.839C102.974 148.719 103.294 148.579 103.414 148.527C103.535 148.476 103.854 148.401 104.125 148.361C104.396 148.32 104.667 148.25 104.727 148.205C104.908 148.068 107.292 147.992 108.227 148.094C109.141 148.193 110.089 148.403 110.613 148.621C110.782 148.692 111.011 148.75 111.121 148.75C111.23 148.75 111.349 148.824 111.383 148.914C111.42 149.01 111.584 149.078 111.778 149.078C112 149.078 112.11 149.132 112.11 149.242C112.11 149.332 112.204 149.406 112.32 149.406C112.436 149.406 112.605 149.48 112.695 149.57C112.786 149.66 112.914 149.734 112.98 149.734C113.047 149.734 113.128 149.805 113.161 149.891C113.194 149.977 113.364 150.097 113.54 150.158C113.716 150.22 113.86 150.321 113.86 150.385C113.86 150.448 113.933 150.5 114.024 150.5C114.114 150.5 114.188 150.574 114.188 150.664C114.188 150.754 114.261 150.828 114.352 150.828C114.442 150.828 114.516 150.902 114.516 150.992C114.516 151.082 114.59 151.156 114.68 151.156C114.77 151.156 114.844 151.23 114.844 151.32C114.844 151.41 114.893 151.484 114.953 151.484C115.093 151.484 115.5 151.888 115.5 152.027C115.5 152.085 115.599 152.185 115.719 152.25C115.839 152.314 115.938 152.458 115.938 152.57C115.938 152.682 116.011 152.802 116.102 152.836C116.192 152.871 116.266 152.969 116.266 153.055C116.266 153.141 116.34 153.239 116.43 153.274C116.52 153.308 116.594 153.461 116.594 153.614C116.594 153.787 116.655 153.89 116.758 153.89C116.866 153.89 116.922 153.998 116.922 154.207C116.922 154.381 116.991 154.55 117.076 154.582C117.16 154.615 117.262 154.792 117.303 154.976C117.343 155.159 117.422 155.338 117.477 155.372C117.533 155.406 117.578 155.547 117.578 155.685C117.578 155.822 117.677 156.024 117.797 156.133C117.917 156.241 118.016 156.397 118.016 156.478C118.016 156.559 118.09 156.625 118.18 156.625C118.27 156.625 118.344 156.671 118.344 156.728C118.344 156.785 118.594 156.958 118.9 157.111C119.531 157.429 120.551 157.494 120.917 157.241C121.036 157.16 121.367 157.058 121.652 157.016C121.938 156.974 122.172 156.893 122.172 156.837C122.172 156.78 122.381 156.732 122.637 156.729C122.893 156.727 123.299 156.653 123.539 156.565C124.048 156.38 128.597 156.325 128.926 156.5C129.031 156.556 129.45 156.638 129.857 156.681C130.264 156.725 130.623 156.802 130.655 156.853C130.686 156.905 130.953 156.979 131.248 157.018C131.547 157.057 131.809 157.155 131.842 157.24C131.873 157.322 132.038 157.39 132.207 157.39C132.376 157.39 132.611 157.457 132.73 157.538C132.848 157.619 133.081 157.719 133.246 157.759C133.412 157.799 133.547 157.88 133.547 157.939C133.547 157.998 133.672 158.047 133.824 158.047C133.976 158.047 134.128 158.118 134.161 158.204C134.194 158.291 134.365 158.393 134.541 158.431C134.716 158.47 134.86 158.539 134.86 158.584C134.86 158.63 135.104 158.786 135.402 158.931C135.701 159.076 135.947 159.257 135.949 159.332C135.951 159.407 136.029 159.469 136.121 159.469C136.213 159.469 136.317 159.542 136.351 159.633C136.386 159.723 136.455 159.797 136.504 159.797C136.683 159.797 137.366 160.292 137.371 160.426C137.373 160.501 137.449 160.562 137.539 160.562C137.629 160.562 137.703 160.636 137.703 160.726C137.703 160.817 137.753 160.89 137.815 160.89C137.986 160.89 139.453 162.42 139.453 162.599C139.453 162.686 139.527 162.785 139.617 162.82C139.708 162.854 139.781 162.953 139.781 163.038C139.781 163.124 139.855 163.223 139.945 163.257C140.036 163.292 140.11 163.389 140.11 163.472C140.11 163.556 140.161 163.625 140.225 163.625C140.288 163.625 140.39 163.769 140.451 163.944C140.512 164.12 140.633 164.291 140.719 164.323C140.805 164.357 140.875 164.508 140.875 164.66C140.875 164.813 140.92 164.937 140.975 164.937C141.076 164.937 141.451 165.663 141.583 166.113C141.623 166.248 141.701 166.359 141.757 166.359C141.814 166.359 141.86 166.504 141.86 166.682C141.86 166.859 141.926 167.044 142.007 167.092C142.088 167.14 142.185 167.372 142.222 167.608C142.259 167.844 142.333 168.065 142.386 168.1C142.439 168.135 142.514 168.401 142.553 168.691C142.591 168.98 142.697 169.324 142.788 169.453C142.896 169.607 142.953 169.946 142.953 170.423C142.953 170.827 143.006 171.296 143.071 171.465C143.224 171.869 143.223 174.555 143.069 174.709C143.006 174.773 142.953 174.864 142.953 174.912C142.953 174.96 144.176 175 145.671 175H148.39L148.454 174.007C148.532 172.798 148.432 170.729 148.286 170.544C148.227 170.47 148.153 169.978 148.121 169.451C148.089 168.923 148.014 168.46 147.954 168.422C147.894 168.383 147.821 168.088 147.79 167.765C147.76 167.443 147.669 167.082 147.587 166.964C147.505 166.845 147.438 166.592 147.438 166.401C147.438 166.194 147.372 166.029 147.274 165.991C147.166 165.95 147.11 165.78 147.11 165.499C147.11 165.219 147.053 165.048 146.945 165.007C146.855 164.973 146.781 164.848 146.781 164.73C146.781 164.612 146.708 164.442 146.617 164.351C146.527 164.261 146.453 164.105 146.453 164.005C146.453 163.905 146.355 163.698 146.235 163.545C146.114 163.392 146.016 163.196 146.016 163.11C146.016 163.024 145.942 162.879 145.852 162.789C145.761 162.699 145.688 162.53 145.688 162.414C145.688 162.298 145.643 162.203 145.589 162.203C145.535 162.203 145.439 162.055 145.376 161.875C145.313 161.694 145.21 161.547 145.146 161.547C145.083 161.547 145.031 161.471 145.031 161.378C145.031 161.285 144.933 161.104 144.813 160.975C144.692 160.846 144.533 160.602 144.458 160.432C144.383 160.263 144.265 160.125 144.195 160.125C144.125 160.125 144.017 159.977 143.954 159.797C143.891 159.616 143.788 159.469 143.725 159.469C143.661 159.469 143.61 159.405 143.61 159.327C143.61 159.249 143.464 159.064 143.286 158.917C143.108 158.769 142.96 158.587 142.958 158.512C142.955 158.436 142.879 158.375 142.789 158.375C142.699 158.375 142.625 158.301 142.625 158.211C142.625 158.12 142.551 158.047 142.461 158.047C142.371 158.047 142.297 157.994 142.297 157.93C142.297 157.811 141.126 156.629 141 156.62C140.961 156.618 140.809 156.47 140.662 156.292C140.514 156.114 140.329 155.969 140.251 155.969C140.173 155.969 140.11 155.9 140.11 155.816C140.11 155.733 139.986 155.633 139.836 155.595C139.686 155.558 139.563 155.479 139.563 155.42C139.563 155.361 139.491 155.312 139.402 155.312C139.314 155.312 139.195 155.223 139.137 155.115C139.078 155.006 138.843 154.822 138.613 154.705C138.383 154.588 138.171 154.467 138.141 154.437C137.946 154.242 137.358 153.89 137.227 153.89C137.141 153.89 137.042 153.817 137.007 153.726C136.973 153.636 136.818 153.562 136.664 153.562C136.51 153.562 136.356 153.488 136.321 153.398C136.286 153.308 136.139 153.234 135.993 153.234C135.847 153.234 135.7 153.162 135.666 153.073C135.632 152.984 135.436 152.881 135.232 152.842C135.027 152.804 134.86 152.731 134.86 152.68C134.86 152.629 134.679 152.554 134.46 152.513C134.24 152.471 133.932 152.371 133.776 152.29C133.62 152.208 133.388 152.142 133.26 152.141C133.132 152.141 132.966 152.067 132.891 151.976C132.809 151.878 132.57 151.812 132.297 151.812C132.045 151.812 131.743 151.74 131.626 151.652C131.51 151.563 131.203 151.49 130.946 151.488C130.688 151.486 130.295 151.406 130.071 151.309C129.467 151.05 123.264 151.05 122.774 151.309C122.052 151.691 121.085 151.376 121.08 150.758C121.079 150.629 121.004 150.495 120.914 150.46C120.824 150.426 120.75 150.327 120.75 150.241C120.75 150.156 120.676 150.057 120.586 150.023C120.496 149.988 120.422 149.858 120.422 149.734C120.422 149.61 120.348 149.48 120.258 149.446C120.168 149.411 120.094 149.314 120.094 149.23C120.094 149.146 120.02 149.078 119.93 149.078C119.84 149.078 119.766 149.024 119.766 148.959C119.766 148.696 117.304 146.234 117.041 146.234C116.976 146.234 116.922 146.16 116.922 146.07C116.922 145.98 116.854 145.906 116.771 145.906C116.688 145.906 116.559 145.832 116.485 145.742C116.41 145.652 116.256 145.578 116.143 145.578C116.03 145.578 115.938 145.504 115.938 145.414C115.938 145.324 115.862 145.25 115.77 145.25C115.678 145.25 115.574 145.176 115.54 145.086C115.505 144.995 115.357 144.922 115.212 144.922C115.066 144.922 114.919 144.851 114.886 144.764C114.853 144.678 114.682 144.575 114.507 144.537C114.331 144.498 114.188 144.425 114.188 144.375C114.188 144.324 114.043 144.251 113.867 144.212C113.691 144.174 113.488 144.071 113.416 143.985C113.344 143.899 113.15 143.828 112.985 143.828C112.819 143.828 112.622 143.754 112.547 143.664C112.472 143.574 112.256 143.5 112.066 143.5C111.876 143.5 111.624 143.433 111.505 143.351C111.386 143.269 111.026 143.177 110.703 143.147C110.381 143.117 110.078 143.028 110.029 142.949C109.903 142.745 103.922 142.75 103.796 142.954C103.749 143.03 103.447 143.115 103.125 143.144C102.803 143.172 102.488 143.259 102.425 143.338C102.361 143.417 102.042 143.496 101.714 143.513L101.117 143.545L101.03 142.839C100.982 142.45 100.896 142.116 100.839 142.096C100.781 142.076 100.735 141.923 100.735 141.757C100.735 141.375 100.526 140.765 100.396 140.765C100.341 140.765 100.297 140.593 100.297 140.383C100.297 140.172 100.252 140 100.196 140C100.141 140 100.064 139.856 100.025 139.679C99.9865 139.503 99.8841 139.3 99.7978 139.228C99.7114 139.157 99.6408 139.006 99.6408 138.893C99.6408 138.78 99.5959 138.687 99.5411 138.687C99.4863 138.687 99.3301 138.457 99.1941 138.176C99.058 137.895 98.8568 137.575 98.7468 137.465C98.6369 137.355 98.547 137.192 98.547 137.101C98.547 137.011 98.4732 136.937 98.3829 136.937C98.2927 136.937 98.2189 136.869 98.2189 136.785C98.2189 136.701 98.1451 136.604 98.0548 136.57C97.9646 136.535 97.8908 136.431 97.8908 136.339C97.8908 136.247 97.8169 136.172 97.7267 136.172C97.6365 136.172 97.5626 136.124 97.5626 136.066C97.5626 135.928 96.8216 135.187 96.684 135.187C96.6258 135.187 96.5783 135.113 96.5783 135.023C96.5783 134.933 96.5029 134.859 96.4108 134.859C96.3186 134.859 96.2149 134.785 96.1804 134.695C96.1457 134.605 96.0488 134.531 95.965 134.531C95.8812 134.531 95.8126 134.463 95.8126 134.379C95.8126 134.295 95.7018 134.199 95.5665 134.164C95.4312 134.13 95.1575 133.952 94.9582 133.769C94.759 133.587 94.499 133.437 94.3806 133.437C94.2621 133.437 94.1368 133.363 94.1022 133.273C94.0676 133.183 93.9199 133.109 93.7741 133.109C93.6282 133.109 93.4805 133.035 93.446 132.945C93.4113 132.855 93.2687 132.781 93.129 132.781C92.9894 132.781 92.8013 132.707 92.7111 132.617C92.6209 132.527 92.4449 132.453 92.3201 132.453C92.1953 132.453 91.9095 132.354 91.6849 132.234C91.4605 132.114 91.119 132.015 90.9262 132.015C90.7334 132.015 90.5475 131.97 90.5132 131.915C90.3886 131.713 87.7649 131.583 85.9373 131.687Z" fill="url(#paint0_linear_114_87)"/>
</g>
<defs>
<linearGradient id="paint0_linear_114_87" x1="87.5009" y1="26.0684" x2="87.5009" y2="175" gradientUnits="userSpaceOnUse">
<stop stop-color="#FF7E00"/>
<stop offset="1" stop-color="#FF7E00" stop-opacity="0.49"/>
</linearGradient>
<clipPath id="clip0_114_87">
<rect width="175" height="175" fill="white"/>
</clipPath>
</defs>
</svg>
