<svg width="40" height="40" viewBox="0 0 40 40" fill="none" xmlns="http://www.w3.org/2000/svg">
<path d="M8.20739 34.4532C7.42443 36.0808 6.9304 37.1653 2.5746 37.3235C2.6998 33.1203 3.50083 32.6693 5.10476 31.8702C5.7781 31.5344 6.61651 31.1171 7.52284 30.4201L6.00612 28.4835C5.2898 29.0335 4.63074 29.3232 3.99353 29.6402C1.32139 30.9726 0.0619917 32.285 0.0619917 38.5419L0.0831309 39.815L1.30772 39.7876C7.91156 39.7876 9.1455 38.2958 10.3826 35.7264C10.6535 35.1633 10.8042 34.7827 11.2608 34.024L9.41334 32.346C8.8596 33.1015 8.51385 33.8203 8.20739 34.4532ZM27.4888 7.41188C24.7338 7.41188 22.492 9.65361 22.492 12.408C22.492 15.1637 24.7344 17.4048 27.4888 17.4048C30.2432 17.4048 32.485 15.1631 32.485 12.4081C32.485 9.65365 30.2426 7.41188 27.4888 7.41188ZM27.4888 14.9027C26.1135 14.9027 24.9941 13.7833 24.9941 12.408C24.9941 11.0333 26.1135 9.91335 27.4888 9.91335C28.8641 9.91335 29.9835 11.0333 29.9835 12.408C29.9828 13.784 28.8641 14.9027 27.4888 14.9027ZM39.9006 1.20852C39.8626 0.586882 39.37 0.088456 38.7484 0.0423624C38.7484 0.0423624 31.7764 -0.465913 25.0692 2.03871C22.6187 2.95373 20.6018 4.40323 18.7195 6.5989C17.1498 8.4296 15.59 11.739 14.2135 14.4865C13.6815 15.5473 13.1732 16.562 12.7422 17.3369H5.81201C5.63588 17.3369 5.46176 17.3743 5.30114 17.4466C5.14052 17.5188 4.99704 17.6243 4.88017 17.7561L0.313754 22.7055C0.170217 22.8673 0.0712944 23.0637 0.0267259 23.2754C-0.0178425 23.4871 -0.00652023 23.7067 0.059578 23.9126C0.193499 24.3325 0.5392 24.6502 0.967785 24.7473L8.40131 26.4472C8.90767 27.0726 9.75168 28.0082 11.1021 29.5069L13.9182 32.6288L15.4343 39.0414C15.4835 39.2493 15.5853 39.4411 15.7301 39.5983C15.8749 39.7555 16.0576 39.8728 16.2608 39.939C16.3867 39.9788 16.5168 40 16.6464 40C16.944 40.0001 17.2317 39.8936 17.4574 39.6998L22.073 35.1085C22.2095 34.9916 22.3191 34.8466 22.3943 34.6834C22.4694 34.5202 22.5084 34.3426 22.5084 34.1629V27.7347C23.1288 27.3492 24.2288 26.7556 25.264 26.1763C28.0851 24.5998 32.2958 22.637 34.0417 21.0848C36.5003 18.8997 37.396 17.2977 38.2755 14.9295C40.3665 9.2967 39.9218 1.53616 39.9006 1.20852ZM35.9383 14.0617C35.1709 16.1278 34.4758 17.3641 32.386 19.2222C30.8419 20.5938 26.6193 22.5634 24.0474 24.0016C22.1277 25.0749 20.9778 25.7015 20.4739 26.1138C20.3308 26.2306 20.2154 26.3777 20.1362 26.5446C20.057 26.7115 20.016 26.894 20.0161 27.0787V33.5897L17.3875 36.4781L16.2682 31.7441C16.2199 31.5403 16.1209 31.352 15.9804 31.1966C13.6895 28.6577 10.2287 24.8195 9.96331 24.5149C9.78823 24.3025 9.54774 24.154 9.27938 24.0926L3.5725 22.787L6.37175 19.8283H13.4583C13.6712 19.8284 13.8806 19.7738 14.0664 19.6699C14.2522 19.566 14.4083 19.4162 14.5197 19.2347C15.0679 18.3421 15.7038 17.0727 16.4407 15.6027C17.6883 13.113 19.2406 9.8198 20.6109 8.22023C22.2298 6.33102 23.8742 5.14438 25.9403 4.37204C30.5379 2.65412 35.2824 2.47349 37.4513 2.48964C37.4918 4.78685 37.4052 10.1132 35.9383 14.0617Z" fill="url(#paint0_linear_662_142)"/>
<defs>
<linearGradient id="paint0_linear_662_142" x1="19.9771" y1="0" x2="19.9771" y2="40" gradientUnits="userSpaceOnUse">
<stop stop-color="#FEA249"/>
<stop offset="1" stop-color="#FEA249" stop-opacity="0.49"/>
</linearGradient>
</defs>
</svg>
