<svg width="594" height="594" viewBox="0 0 594 594" fill="none" xmlns="http://www.w3.org/2000/svg">
<path d="M297.202 573.804C451.789 573.804 577.107 501.452 577.107 412.2C577.107 322.949 451.789 250.597 297.202 250.597C142.615 250.597 17.2974 322.949 17.2974 412.2C17.2974 501.452 142.615 573.804 297.202 573.804Z" fill="#F0F0F0"/>
<path d="M84.6332 469.747L36.3529 441.936C33.6324 440.356 33.6324 437.814 36.3529 436.245L317.196 274.048C318.723 273.269 320.412 272.863 322.126 272.863C323.84 272.863 325.53 273.269 327.056 274.048L375.337 301.918C378.057 303.486 378.057 306.041 375.337 307.609L94.4936 469.747C92.9653 470.521 91.2764 470.924 89.5634 470.924C87.8505 470.924 86.1615 470.521 84.6332 469.747Z" fill="#E0E0E0"/>
<path d="M292.165 481.283L176.204 414.339L321.116 330.834L436.934 397.695L292.165 481.283Z" fill="#E0E0E0"/>
<path d="M452.26 511.137C482.533 511.137 507.074 496.968 507.074 479.489C507.074 462.01 482.533 447.84 452.26 447.84C421.987 447.84 397.445 462.01 397.445 479.489C397.445 496.968 421.987 511.137 452.26 511.137Z" fill="#E0E0E0"/>
<path d="M525.809 441.378C531.749 444.811 531.749 450.371 525.809 453.804C519.869 457.238 510.234 457.226 504.294 453.804C498.354 450.383 498.354 444.811 504.294 441.378C510.234 437.944 519.869 437.944 525.809 441.378Z" fill="#E0E0E0"/>
<path d="M258.176 420.065L299.685 396.067C303.962 393.596 306.1 390.365 306.1 387.122C306.1 383.878 306.1 381.348 306.1 381.348L263.035 357.065C261.835 356.285 260.836 355.233 260.118 353.995C259.399 352.756 258.983 351.366 258.901 349.937V298.746L186.433 340.635V391.802C186.517 393.231 186.934 394.62 187.652 395.858C188.37 397.096 189.369 398.148 190.567 398.93L227.205 420.029C235.747 425.007 249.623 425.007 258.176 420.065Z" fill="#FF7E00"/>
<g opacity="0.6">
<path d="M258.176 420.065L299.685 396.067C303.962 393.596 306.1 390.365 306.1 387.122C306.1 383.878 306.1 381.348 306.1 381.348L263.035 357.065C261.835 356.285 260.836 355.233 260.118 353.995C259.399 352.756 258.983 351.366 258.901 349.937V298.746L186.433 340.635V391.802C186.517 393.231 186.934 394.62 187.652 395.858C188.37 397.096 189.369 398.148 190.567 398.93L227.205 420.029C235.747 425.007 249.623 425.007 258.176 420.065Z" fill="black"/>
</g>
<path opacity="0.3" d="M203.837 400.867V406.617L190.543 398.954C189.345 398.173 188.347 397.121 187.631 395.882C186.915 394.644 186.5 393.255 186.421 391.826V340.635L200.225 332.64C200.511 336.204 200.831 339.768 201.116 343.332L191.422 348.939V388.916C191.499 390.346 191.914 391.738 192.633 392.977C193.351 394.216 194.353 395.267 195.557 396.044L203.837 400.867Z" fill="black"/>
<path d="M191.422 388.928C191.504 390.357 191.921 391.747 192.639 392.985C193.357 394.223 194.357 395.275 195.557 396.056L227.181 414.279C235.735 419.21 249.611 419.222 258.176 414.279L299.756 390.282C308.322 385.34 308.322 377.333 299.756 372.391L268.12 354.167C266.919 353.387 265.919 352.335 265.201 351.097C264.482 349.858 264.066 348.468 263.985 347.039V307.051L191.517 348.939L191.422 388.928Z" fill="#FF7E00"/>
<path opacity="0.3" d="M191.422 388.928C191.504 390.357 191.921 391.747 192.639 392.985C193.357 394.223 194.357 395.275 195.557 396.056L227.181 414.279C235.735 419.21 249.611 419.222 258.176 414.279L299.756 390.282C308.322 385.34 308.322 377.333 299.756 372.391L268.12 354.167C266.919 353.387 265.919 352.335 265.201 351.097C264.482 349.858 264.066 348.468 263.985 347.039V307.051L191.517 348.939L191.422 388.928Z" fill="black"/>
<path opacity="0.5" d="M276.471 359.049L268.06 354.19C266.86 353.411 265.86 352.359 265.141 351.12C264.423 349.882 264.007 348.492 263.926 347.062V307.051L191.458 348.939V388.928C191.54 390.357 191.956 391.747 192.675 392.985C193.393 394.223 194.392 395.275 195.592 396.056L203.908 400.808L276.471 359.049Z" fill="black"/>
<path d="M306.112 381.348V387.122C306.112 390.365 303.962 393.585 299.697 396.067L258.117 420.053C253.566 422.482 248.484 423.743 243.326 423.724V417.974C248.484 417.994 253.566 416.732 258.117 414.303L299.697 390.294C303.962 387.847 306.112 384.603 306.112 381.348Z" fill="#FF7E00"/>
<path opacity="0.5" d="M306.112 381.348V387.122C306.112 390.365 303.962 393.585 299.697 396.067L258.117 420.053C253.566 422.482 248.484 423.743 243.326 423.724V417.974C248.484 417.994 253.566 416.732 258.117 414.303L299.697 390.294C303.962 387.847 306.112 384.603 306.112 381.348Z" fill="black"/>
<path d="M75.0222 438.621C76.5888 439.378 78.3113 439.756 80.0508 439.725C81.7903 439.694 83.4983 439.255 85.037 438.443L365.405 276.578C366.908 275.597 368.16 274.277 369.057 272.722C369.955 271.168 370.474 269.425 370.573 267.632V40.8194C370.506 39.083 370.031 37.3866 369.187 35.8676C368.343 34.3486 367.153 33.0496 365.714 32.0758C364.149 31.3182 362.428 30.9406 360.69 30.9737C358.952 31.0067 357.246 31.4494 355.711 32.2658L75.3429 194.119C73.8407 195.097 72.5907 196.416 71.6948 197.968C70.7988 199.521 70.2822 201.263 70.187 203.053V429.866C70.2494 431.602 70.7196 433.299 71.5596 434.821C72.3996 436.342 73.5857 437.644 75.0222 438.621Z" fill="#FF7E00"/>
<path d="M85.0369 438.431L365.405 276.567C366.909 275.587 368.161 274.266 369.059 272.712C369.956 271.157 370.475 269.413 370.573 267.621V40.8198C370.573 37.529 368.256 36.1866 365.405 37.8379L85.0369 199.703C83.5329 200.683 82.2812 202.003 81.3833 203.558C80.4854 205.112 79.9666 206.856 79.8691 208.649V435.45C79.8691 438.74 82.1857 440.083 85.0369 438.431Z" fill="#FF7E00"/>
<path opacity="0.5" d="M85.0369 438.431L365.405 276.567C366.909 275.587 368.161 274.266 369.059 272.712C369.956 271.157 370.475 269.413 370.573 267.621V40.8198C370.573 37.529 368.256 36.1866 365.405 37.8379L85.0369 199.703C83.5329 200.683 82.2812 202.003 81.3833 203.558C80.4854 205.112 79.9666 206.856 79.8691 208.649V435.45C79.8691 438.74 82.1857 440.083 85.0369 438.431Z" fill="black"/>
<path d="M84.2769 444.312C82.8115 444.948 81.2261 445.261 79.6288 445.228C78.0316 445.195 76.4603 444.818 75.0223 444.122C73.5812 443.143 72.3913 441.837 71.5491 440.312C70.707 438.786 70.2363 437.084 70.1753 435.343V414.707L79.8575 420.314V440.962C79.8575 443.967 81.7702 445.334 84.2769 444.312Z" fill="#FF7E00"/>
<path opacity="0.5" d="M84.2769 444.312C82.8115 444.948 81.2261 445.261 79.6288 445.228C78.0316 445.195 76.4603 444.818 75.0223 444.122C73.5812 443.143 72.3913 441.837 71.5491 440.312C70.707 438.786 70.2363 437.084 70.1753 435.343V414.707L79.8575 420.314V440.962C79.8575 443.967 81.7702 445.334 84.2769 444.312Z" fill="black"/>
<path d="M79.8574 420.314V440.962C79.8574 444.253 82.2334 445.583 85.0252 443.944L365.393 282.079C366.897 281.098 368.148 279.777 369.046 278.223C369.943 276.669 370.463 274.925 370.561 273.133V252.438L79.8574 420.314Z" fill="#FF7E00"/>
<path opacity="0.3" d="M79.8691 420.267V440.962C79.8691 444.253 82.2451 445.583 85.0369 443.944L365.405 282.079C366.908 281.098 368.16 279.777 369.057 278.223C369.955 276.669 370.474 274.925 370.573 273.133V252.438L79.8691 420.267Z" fill="black"/>
<path d="M89.5518 394.416V211.856C89.6089 210.783 89.9184 209.739 90.4551 208.808C90.9918 207.877 91.7406 207.085 92.6406 206.498L357.767 53.4601C359.477 52.4741 360.867 53.2701 360.867 55.2421V237.766C360.81 238.842 360.499 239.89 359.96 240.823C359.421 241.756 358.67 242.549 357.767 243.136L92.6643 396.198C90.9417 397.184 89.5518 396.376 89.5518 394.416Z" fill="#FF7E00"/>
<path d="M89.5518 394.416V211.856C89.6089 210.783 89.9184 209.739 90.4551 208.808C90.9918 207.877 91.7406 207.085 92.6406 206.498L357.767 53.4601C359.477 52.4741 360.867 53.2701 360.867 55.2421V237.766C360.81 238.842 360.499 239.89 359.96 240.823C359.421 241.756 358.67 242.549 357.767 243.136L92.6643 396.198C90.9417 397.184 89.5518 396.376 89.5518 394.416Z" fill="#263238"/>
<path opacity="0.7" d="M81.39 203.54C80.4693 205.088 79.943 206.838 79.8575 208.637V420.314L70.1753 414.707V203.053C70.2391 201.252 70.7626 199.498 71.6959 197.957L81.39 203.54Z" fill="black"/>
<path opacity="0.3" d="M370.513 39.9644C370.145 37.3033 367.995 36.341 365.393 37.826L85.037 199.703C83.5169 200.654 82.2622 201.974 81.3899 203.54L71.6958 197.945C72.574 196.379 73.8323 195.059 75.3548 194.107L355.723 32.2543C357.26 31.4377 358.967 30.995 360.708 30.962C362.448 30.9289 364.171 31.3065 365.738 32.0642C367.052 32.9627 368.159 34.133 368.983 35.4959C369.807 36.8587 370.329 38.3825 370.513 39.9644Z" fill="black"/>
<path d="M111.209 246.807C110.5 246.316 109.916 245.666 109.503 244.909C109.09 244.152 108.861 243.309 108.833 242.447V222.358C108.884 221.465 109.144 220.598 109.591 219.824C110.039 219.05 110.662 218.392 111.41 217.903L375.253 65.542C375.996 65.0743 376.853 64.8183 377.73 64.8014C378.608 64.7846 379.474 65.0076 380.234 65.4464C380.994 65.8852 381.62 66.5232 382.045 67.2916C382.469 68.06 382.676 68.9297 382.643 69.8069V89.8841C382.599 90.7771 382.344 91.6468 381.898 92.4215C381.452 93.1962 380.827 93.8535 380.077 94.3391L116.186 246.712C115.423 247.119 114.574 247.34 113.709 247.356C112.844 247.373 111.987 247.185 111.209 246.807Z" fill="#FF7E00"/>
<path opacity="0.4" d="M382.619 69.3912C382.441 68.0606 381.36 67.5736 380.077 68.322L116.186 220.695C115.432 221.178 114.808 221.839 114.369 222.619L109.545 219.78C109.981 218.997 110.606 218.335 111.363 217.856L375.253 65.5421C375.961 65.0755 376.781 64.8068 377.628 64.7639C378.475 64.721 379.318 64.9055 380.069 65.2982C380.821 65.6909 381.454 66.2776 381.902 66.9973C382.35 67.717 382.598 68.5435 382.619 69.3912Z" fill="white"/>
<path d="M116.186 410.145C115.575 410.515 114.881 410.728 114.167 410.763C113.15 410.892 112.119 410.71 111.209 410.24C110.498 409.751 109.912 409.102 109.499 408.344C109.086 407.587 108.858 406.743 108.833 405.88V252.83L113.668 255.622V408.672C113.668 409.86 114.25 410.514 115.093 410.514C115.482 410.479 115.856 410.353 116.186 410.145Z" fill="#F0F0F0"/>
<path opacity="0.1" d="M114.369 222.619C113.907 223.385 113.649 224.256 113.62 225.15V255.622L108.785 252.83V222.358C108.785 222.251 108.785 222.156 108.785 222.049C108.807 221.837 108.843 221.627 108.892 221.42C109.025 220.86 109.241 220.323 109.534 219.828L114.369 222.619Z" fill="black"/>
<path d="M382.643 69.8069V83.5521L193.394 192.848C191.981 193.668 190.828 193.003 190.828 191.363V186.16C190.828 184.52 189.64 183.855 188.25 184.675L125.845 220.707C125.095 221.194 124.47 221.851 124.022 222.625C123.574 223.399 123.315 224.269 123.267 225.162V230.365C123.218 231.257 122.96 232.124 122.514 232.898C122.069 233.672 121.447 234.33 120.701 234.82L113.573 238.907V225.15C113.622 224.258 113.88 223.39 114.325 222.617C114.771 221.843 115.392 221.185 116.139 220.695L380.077 68.3219C381.49 67.5022 382.643 68.1675 382.643 69.8069Z" fill="#FF7E00"/>
<path d="M382.643 253.317C382.596 254.211 382.34 255.082 381.894 255.858C381.448 256.634 380.826 257.294 380.077 257.784L116.186 410.145C114.772 410.965 113.62 410.3 113.62 408.66V238.895L120.748 234.808C122.162 233.989 124.467 221.515 125.892 220.695L187.252 185.257C188.678 184.437 192.004 193.656 193.442 192.836L382.69 83.5403V253.305L382.643 253.317Z" fill="#FAFAFA"/>
<path d="M381.455 85.6075V253.317C381.41 254.002 381.208 254.667 380.866 255.263C380.525 255.858 380.051 256.367 379.483 256.751L115.592 409.124C115.429 409.231 115.241 409.296 115.046 409.314C114.808 409.314 114.808 408.696 114.808 408.66V239.572L121.295 235.83C122.328 235.236 122.97 233.24 124.407 228.096C124.924 225.895 125.635 223.744 126.534 221.669L187.348 186.516C188.06 187.502 188.707 188.534 189.284 189.605C190.935 192.516 191.862 194.036 193.204 194.036C193.48 194.037 193.751 193.964 193.988 193.822L381.455 85.5718V85.6075ZM382.643 83.5522L193.394 192.848C193.332 192.866 193.267 192.866 193.204 192.848C191.767 192.848 188.844 185.174 187.395 185.174C187.333 185.158 187.267 185.158 187.205 185.174L125.845 220.612C124.419 221.432 122.114 233.906 120.701 234.725L113.573 238.812V408.672C113.573 409.86 114.155 410.514 114.998 410.514C115.419 410.506 115.83 410.382 116.186 410.157L380.077 257.796C380.826 257.306 381.448 256.646 381.894 255.87C382.34 255.094 382.597 254.223 382.643 253.329V83.5522Z" fill="#E0E0E0"/>
<path d="M158.764 313.121L193.929 292.818C194.88 292.272 195.64 292.711 195.64 293.804V353.026C195.609 353.621 195.438 354.2 195.141 354.716C194.843 355.232 194.428 355.671 193.929 355.996L158.764 376.299C157.814 376.846 157.054 376.394 157.054 375.301V316.091C157.085 315.496 157.256 314.917 157.553 314.401C157.85 313.885 158.265 313.446 158.764 313.121Z" fill="#F0F0F0"/>
<path d="M165.191 316.828L187.502 303.95C188.44 303.404 189.213 303.796 189.213 304.817C189.17 305.393 188.993 305.951 188.696 306.446C188.399 306.941 187.99 307.36 187.502 307.668L165.191 320.546C164.253 321.093 163.48 320.701 163.48 319.679C163.524 319.103 163.701 318.546 163.998 318.051C164.295 317.556 164.704 317.137 165.191 316.828Z" fill="#E0E0E0"/>
<path d="M163.48 326.439V327.781C163.48 328.434 163.944 328.696 164.514 328.375L165.702 327.698C166.004 327.505 166.255 327.242 166.435 326.932C166.615 326.622 166.718 326.274 166.736 325.916V324.585C166.736 323.92 166.272 323.659 165.702 323.991L164.514 324.657C164.214 324.852 163.964 325.115 163.785 325.424C163.605 325.734 163.501 326.081 163.48 326.439Z" fill="#FF7E00"/>
<path d="M169.884 323.397C169.884 324.419 170.656 324.811 171.606 324.265L187.478 315.093C187.965 314.787 188.374 314.37 188.671 313.877C188.968 313.384 189.145 312.828 189.189 312.254C189.189 311.22 188.417 310.84 187.478 311.387L171.606 320.546C171.115 320.852 170.702 321.27 170.403 321.765C170.104 322.261 169.926 322.82 169.884 323.397Z" fill="#E0E0E0"/>
<path d="M163.48 333.828V335.17C163.48 335.824 163.944 336.085 164.514 335.764L165.702 335.087C166.003 334.893 166.253 334.63 166.433 334.32C166.612 334.011 166.716 333.663 166.736 333.305V331.975C166.736 331.309 166.272 331.048 165.702 331.381L164.514 332.046C164.214 332.241 163.964 332.504 163.785 332.814C163.605 333.123 163.501 333.471 163.48 333.828Z" fill="#FF7E00"/>
<path d="M169.884 330.834C169.884 331.856 170.656 332.248 171.606 331.702L187.478 322.53C187.965 322.224 188.374 321.807 188.671 321.314C188.968 320.821 189.145 320.265 189.189 319.691C189.189 318.657 188.417 318.277 187.478 318.824L171.606 327.983C171.115 328.289 170.702 328.707 170.403 329.202C170.104 329.698 169.926 330.257 169.884 330.834Z" fill="#E0E0E0"/>
<path d="M163.48 341.301V342.631C163.48 343.296 163.944 343.558 164.514 343.225L165.702 342.56C166.002 342.365 166.252 342.102 166.431 341.792C166.611 341.483 166.715 341.135 166.736 340.778V339.435C166.736 338.782 166.272 338.521 165.702 338.841L164.514 339.519C164.213 339.713 163.963 339.976 163.783 340.286C163.604 340.595 163.5 340.943 163.48 341.301Z" fill="#FF7E00"/>
<path d="M169.884 338.248C169.884 339.281 170.656 339.661 171.606 339.115L187.478 329.955C187.965 329.649 188.374 329.232 188.671 328.739C188.968 328.246 189.145 327.69 189.189 327.116C189.189 326.082 188.417 325.702 187.478 326.249L171.606 335.408C171.116 335.713 170.705 336.129 170.406 336.622C170.106 337.115 169.928 337.672 169.884 338.248Z" fill="#E0E0E0"/>
<path d="M163.48 348.714V350.056C163.48 350.71 163.944 350.983 164.514 350.65L165.702 349.985C166.002 349.79 166.252 349.527 166.431 349.217C166.611 348.908 166.715 348.56 166.736 348.203V346.896C166.736 346.243 166.272 345.97 165.702 346.302L164.514 346.967C164.219 347.159 163.972 347.416 163.792 347.719C163.613 348.022 163.506 348.363 163.48 348.714Z" fill="#FF7E00"/>
<path d="M169.884 345.708C169.884 346.73 170.656 347.122 171.606 346.575L187.502 337.392C187.989 337.083 188.398 336.664 188.695 336.169C188.992 335.674 189.169 335.117 189.213 334.541C189.213 333.519 188.44 333.127 187.502 333.674L171.63 342.833C171.132 343.14 170.714 343.561 170.411 344.06C170.107 344.56 169.927 345.125 169.884 345.708Z" fill="#E0E0E0"/>
<path d="M165.061 357.766L187.36 344.888C188.31 344.342 189.082 344.722 189.082 345.756C189.039 346.331 188.86 346.888 188.56 347.381C188.261 347.875 187.85 348.29 187.36 348.595L165.061 361.473C164.111 362.019 163.338 361.639 163.35 360.606C163.392 360.031 163.568 359.475 163.866 358.981C164.163 358.488 164.572 358.072 165.061 357.766Z" fill="#E0E0E0"/>
<path d="M163.338 367.365V368.708C163.338 369.361 163.801 369.634 164.371 369.302L165.559 368.637C165.858 368.441 166.106 368.177 166.283 367.868C166.461 367.558 166.563 367.211 166.581 366.855V365.512C166.581 364.859 166.118 364.586 165.559 364.918L164.371 365.583C164.071 365.779 163.822 366.042 163.642 366.351C163.462 366.661 163.358 367.008 163.338 367.365Z" fill="#FF7E00"/>
<path d="M169.777 364.324C169.777 365.346 170.549 365.738 171.488 365.191L187.359 356.032C187.85 355.725 188.261 355.307 188.56 354.811C188.859 354.316 189.038 353.757 189.082 353.181C189.082 352.159 188.31 351.767 187.359 352.313L171.488 361.473C171 361.782 170.592 362.201 170.295 362.696C169.998 363.191 169.82 363.748 169.777 364.324Z" fill="#E0E0E0"/>
<path d="M370.585 78.4081C372.379 77.3745 373.828 78.218 373.828 80.2852C373.769 81.4095 373.444 82.5039 372.88 83.4785C372.317 84.4532 371.53 85.2804 370.585 85.8925C368.803 86.9142 367.354 86.0826 367.354 84.0155C367.412 82.8921 367.734 81.7985 368.296 80.8239C368.858 79.8493 369.642 79.0215 370.585 78.4081Z" fill="white"/>
<path d="M358.931 85.1442C360.724 84.1106 362.174 84.9422 362.174 87.0093C362.122 88.1419 361.801 89.2458 361.237 90.2293C360.672 91.2128 359.882 92.0475 358.931 92.6642C357.149 93.6978 355.699 92.8543 355.699 90.7991C355.75 89.6676 356.069 88.5644 356.631 87.581C357.193 86.5976 357.981 85.7622 358.931 85.1442Z" fill="white"/>
<path d="M349.571 96.9273C350.834 94.7397 350.835 92.3759 349.574 91.6476C348.312 90.9193 346.266 92.1023 345.003 94.2899C343.74 96.4776 343.738 98.8414 345 99.5697C346.261 100.298 348.308 99.1149 349.571 96.9273Z" fill="white"/>
<path d="M382.643 83.5522V100.279L113.62 255.622V238.895L118.907 235.83C120.32 235.01 120.796 233.763 121.473 231.375L123.267 225.15C123.837 222.988 124.455 221.515 125.845 220.695L187.205 185.257C188.63 184.437 189.747 184.354 190.769 186.148L192.967 190.14C193.774 191.53 194.155 192.349 195.592 191.53L382.643 83.5522Z" fill="#E6E6E6"/>
<path d="M113.62 238.895V255.622L108.785 252.83V236.115L113.62 238.895Z" fill="#E0E0E0"/>
<path opacity="0.5" d="M125.417 240.095L121.378 242.471L122.922 239.513C122.983 239.402 123.014 239.277 123.014 239.15C123.014 239.024 122.983 238.899 122.922 238.788C122.804 238.646 122.59 238.788 122.459 239.014L120.273 243.219C120.273 243.219 120.273 243.314 120.214 243.374C120.202 243.445 120.202 243.517 120.214 243.588C120.2 243.65 120.2 243.715 120.214 243.778C120.231 243.811 120.251 243.843 120.273 243.873L122.459 245.548C122.49 245.571 122.527 245.583 122.566 245.583C122.605 245.583 122.642 245.571 122.673 245.548C122.788 245.475 122.875 245.367 122.922 245.239C122.987 245.135 123.021 245.016 123.021 244.894C123.021 244.773 122.987 244.653 122.922 244.55L121.378 243.362L125.417 240.986C125.523 240.905 125.608 240.801 125.666 240.681C125.724 240.562 125.753 240.43 125.75 240.297C125.75 240.131 125.595 239.976 125.417 240.095Z" fill="#455A64"/>
<path opacity="0.5" d="M128.791 238.147L132.83 235.771L131.286 234.583C131.155 234.488 131.143 234.179 131.286 233.894C131.428 233.608 131.607 233.49 131.737 233.585L133.935 235.272C133.943 235.299 133.943 235.328 133.935 235.355C133.942 235.414 133.942 235.474 133.935 235.533C133.941 235.608 133.941 235.684 133.935 235.759C133.94 235.81 133.94 235.862 133.935 235.913L131.737 240.131C131.692 240.233 131.618 240.32 131.523 240.38C131.508 240.396 131.489 240.408 131.469 240.417C131.449 240.426 131.427 240.43 131.405 240.43C131.382 240.43 131.361 240.426 131.34 240.417C131.32 240.408 131.301 240.396 131.286 240.38C131.224 240.269 131.192 240.144 131.192 240.018C131.192 239.891 131.224 239.766 131.286 239.655L132.83 236.697L128.791 239.073C128.613 239.18 128.47 239.073 128.47 238.764C128.478 238.645 128.511 238.528 128.566 238.422C128.621 238.316 128.698 238.222 128.791 238.147Z" fill="#455A64"/>
<path opacity="0.5" d="M142.037 226.516C142.037 226.278 141.8 226.314 141.693 226.575L141.146 227.93C140.196 227.823 139.055 228.749 138.283 230.377C137.285 232.492 137.285 234.998 138.283 235.961C138.526 236.188 138.841 236.323 139.173 236.342C139.505 236.362 139.833 236.265 140.101 236.068C140.905 235.527 141.532 234.763 141.907 233.87C141.971 233.762 142.006 233.639 142.006 233.513C142.006 233.388 141.971 233.264 141.907 233.157C141.788 233.038 141.574 233.157 141.455 233.43C140.707 235.01 139.495 235.711 138.746 234.986C137.998 234.262 137.998 232.397 138.746 230.817C139.269 229.7 140.041 229.035 140.707 228.987L140.291 230.009C140.184 230.27 140.291 230.52 140.445 230.413L142.097 229.332C142.162 229.278 142.213 229.208 142.244 229.129C142.275 229.05 142.286 228.964 142.275 228.88L142.037 226.516Z" fill="#455A64"/>
<path opacity="0.5" d="M185.435 192.896L186.908 189.783C186.997 189.636 187.044 189.468 187.044 189.296C187.044 189.124 186.997 188.956 186.908 188.809C186.73 188.643 186.456 188.809 186.278 189.177L184.805 192.29L183.332 190.876C183.166 190.71 182.88 190.876 182.702 191.232C182.619 191.381 182.575 191.549 182.575 191.72C182.575 191.89 182.619 192.058 182.702 192.207L184.14 193.644L182.667 196.769C182.583 196.915 182.54 197.081 182.54 197.25C182.54 197.418 182.583 197.584 182.667 197.731C182.713 197.766 182.769 197.786 182.827 197.786C182.885 197.786 182.942 197.766 182.987 197.731C183.122 197.634 183.229 197.503 183.296 197.351L184.769 194.226L186.243 195.652C186.287 195.69 186.344 195.71 186.403 195.71C186.462 195.71 186.518 195.69 186.563 195.652C186.701 195.557 186.808 195.425 186.872 195.272C186.961 195.125 187.008 194.956 187.008 194.785C187.008 194.613 186.961 194.444 186.872 194.298L185.435 192.896Z" fill="#455A64"/>
<path d="M147.395 230.353V225.15C147.444 224.257 147.702 223.388 148.15 222.614C148.598 221.839 149.223 221.182 149.973 220.695L365.607 96.2281C367.021 95.4084 368.173 96.0737 368.173 97.7131V102.917C368.124 103.808 367.866 104.676 367.42 105.45C366.975 106.223 366.354 106.882 365.607 107.372L149.973 231.838C148.5 232.658 147.395 231.993 147.395 230.353Z" fill="#FAFAFA"/>
<path d="M362.102 107.787C362.028 107.801 361.951 107.801 361.877 107.787C361.734 107.721 361.618 107.609 361.547 107.469C361.476 107.329 361.454 107.169 361.485 107.015L361.734 104.901L360.748 104.188C360.659 104.12 360.587 104.032 360.539 103.93C360.492 103.829 360.47 103.718 360.475 103.606C360.478 103.435 360.518 103.267 360.592 103.114C360.665 102.96 360.772 102.824 360.903 102.715L362.411 101.527C362.441 101.493 362.461 101.452 362.471 101.408L363.148 99.1862C363.191 99.0063 363.287 98.843 363.422 98.7163C363.557 98.5897 363.726 98.5053 363.908 98.4734C364.032 98.4632 364.156 98.4922 364.263 98.5561C364.369 98.62 364.453 98.7158 364.502 98.8298L365.072 100.018L366.344 99.5308C366.46 99.483 366.589 99.4722 366.712 99.4998C366.836 99.5274 366.947 99.5921 367.033 99.6852C367.133 99.8409 367.187 100.022 367.187 100.208C367.187 100.393 367.133 100.575 367.033 100.731L365.94 102.774C365.94 102.774 365.94 102.893 365.94 102.905L366.189 104.758C366.217 104.931 366.205 105.109 366.156 105.277C366.107 105.445 366.021 105.601 365.904 105.732C365.83 105.815 365.738 105.879 365.635 105.92C365.532 105.961 365.421 105.978 365.31 105.97L364.122 105.815L362.791 107.514C362.709 107.615 362.603 107.693 362.483 107.74C362.362 107.788 362.231 107.804 362.102 107.787ZM361.378 103.487L362.364 104.2C362.466 104.285 362.544 104.396 362.59 104.521C362.636 104.646 362.648 104.781 362.625 104.912L362.459 106.314L363.35 105.186C363.425 105.077 363.526 104.989 363.645 104.931C363.764 104.873 363.895 104.846 364.027 104.853L365.215 105.007C365.223 104.96 365.223 104.912 365.215 104.865L364.954 103.012C364.932 102.782 364.977 102.551 365.084 102.346L366.047 100.552L365.061 100.933C364.914 100.992 364.75 100.992 364.603 100.932C364.457 100.872 364.339 100.757 364.276 100.612L363.837 99.6733L363.231 101.645C363.164 101.863 363.036 102.057 362.863 102.204L361.342 103.392C361.348 103.425 361.36 103.458 361.378 103.487Z" fill="#E0E0E0"/>
<g opacity="0.5">
<path d="M371.202 95.6103C371.007 95.6092 370.817 95.5436 370.662 95.4237C370.507 95.3038 370.396 95.1362 370.346 94.9469C370.296 94.7576 370.31 94.5571 370.385 94.3764C370.46 94.1956 370.593 94.0447 370.763 93.9471L377.998 89.7653C378.203 89.6471 378.446 89.6152 378.674 89.6764C378.903 89.7377 379.097 89.8872 379.216 90.092C379.334 90.2968 379.366 90.5401 379.304 90.7685C379.243 90.9969 379.094 91.1915 378.889 91.3097L371.654 95.4915C371.517 95.5705 371.361 95.6115 371.202 95.6103Z" fill="#455A64"/>
<path d="M371.202 99.7921C371.007 99.7911 370.817 99.7255 370.662 99.6056C370.507 99.4857 370.396 99.3181 370.346 99.1288C370.296 98.9395 370.31 98.739 370.385 98.5582C370.46 98.3775 370.593 98.2266 370.763 98.1289L377.998 93.9472C378.203 93.829 378.446 93.7971 378.674 93.8583C378.903 93.9196 379.097 94.0691 379.216 94.2739C379.334 94.4787 379.366 94.722 379.304 94.9504C379.243 95.1787 379.094 95.3734 378.889 95.4916L371.654 99.6733C371.515 99.7472 371.36 99.7879 371.202 99.7921Z" fill="#455A64"/>
<path d="M371.202 103.974C371.007 103.973 370.817 103.907 370.662 103.787C370.507 103.667 370.396 103.5 370.346 103.311C370.296 103.121 370.31 102.921 370.385 102.74C370.46 102.559 370.593 102.408 370.763 102.311L377.998 98.1289C378.198 98.0163 378.435 97.9868 378.657 98.0468C378.879 98.1067 379.069 98.2514 379.186 98.4496C379.295 98.6509 379.323 98.8867 379.263 99.1079C379.204 99.3291 379.061 99.5189 378.865 99.6376L371.63 103.808C371.504 103.899 371.357 103.956 371.202 103.974Z" fill="#455A64"/>
</g>
<path d="M113.62 255.622L113.608 272.325L382.619 117.018L382.643 100.279L113.62 255.622Z" fill="#455A64"/>
<path d="M143.748 244.966V248.197C143.748 248.862 144.211 249.124 144.782 248.791L185.174 225.447V219.78L144.782 243.124C144.475 243.327 144.221 243.599 144.042 243.92C143.862 244.24 143.761 244.599 143.748 244.966Z" fill="#FAFAFA"/>
<path d="M190.674 216.656C191.256 216.323 191.719 216.596 191.719 217.262V220.493C191.7 220.854 191.596 221.204 191.414 221.516C191.232 221.828 190.978 222.093 190.674 222.287L185.209 225.447V219.78L190.674 216.656Z" fill="#FF7E00"/>
<path d="M190.27 221.087L189.664 220.897C189.725 220.64 189.757 220.377 189.759 220.113C189.787 219.867 189.749 219.619 189.652 219.392C189.554 219.164 189.398 218.967 189.201 218.818C189.069 218.737 188.917 218.694 188.761 218.694C188.606 218.694 188.454 218.737 188.322 218.818C187.94 219.117 187.633 219.502 187.427 219.942C187.22 220.381 187.12 220.863 187.134 221.348C187.105 221.596 187.141 221.847 187.239 222.076C187.337 222.306 187.493 222.505 187.692 222.655C187.811 222.726 187.946 222.763 188.084 222.762C188.262 222.759 188.435 222.705 188.583 222.608C189.044 222.285 189.39 221.822 189.569 221.289L190.175 221.479H190.246C190.294 221.479 190.34 221.464 190.378 221.436C190.417 221.409 190.445 221.37 190.46 221.325C190.461 221.269 190.443 221.215 190.408 221.171C190.374 221.128 190.325 221.098 190.27 221.087ZM188.322 222.275C188.256 222.317 188.18 222.34 188.102 222.34C188.024 222.34 187.948 222.317 187.882 222.275C187.758 222.16 187.664 222.017 187.606 221.858C187.548 221.699 187.529 221.528 187.55 221.36C187.543 220.951 187.63 220.547 187.802 220.176C187.975 219.806 188.23 219.479 188.548 219.222C188.629 219.169 188.724 219.14 188.821 219.139C188.872 219.127 188.925 219.127 188.975 219.139C189.101 219.253 189.197 219.396 189.255 219.555C189.313 219.714 189.331 219.885 189.308 220.053C189.324 220.471 189.244 220.887 189.073 221.268C188.902 221.649 188.645 221.986 188.322 222.251V222.275Z" fill="#FAFAFA"/>
<path d="M136.703 247.853L133.947 249.48C133.647 249.675 133.397 249.938 133.218 250.248C133.038 250.557 132.934 250.905 132.914 251.262V254.458C132.914 255.123 133.377 255.385 133.947 255.052L136.703 253.46C137.004 253.266 137.254 253.003 137.434 252.693C137.614 252.383 137.717 252.035 137.737 251.678V248.482C137.737 247.793 137.274 247.52 136.703 247.853Z" fill="#FAFAFA"/>
<path d="M232.491 191.185C231.419 191.886 230.527 192.83 229.887 193.941C229.247 195.051 228.878 196.297 228.809 197.576C228.809 199.952 230.46 200.879 232.491 199.703C233.564 199.001 234.456 198.057 235.096 196.947C235.736 195.837 236.105 194.591 236.174 193.311C236.174 190.971 234.523 190.009 232.491 191.185Z" fill="#FF7E00"/>
<path d="M232.064 194.939C231.947 194.941 231.833 194.913 231.731 194.856C231.611 194.776 231.515 194.666 231.453 194.536C231.39 194.407 231.363 194.263 231.375 194.119C231.392 193.781 231.489 193.452 231.659 193.158C231.828 192.865 232.064 192.616 232.349 192.432C232.473 192.36 232.615 192.323 232.759 192.323C232.903 192.323 233.044 192.36 233.169 192.432C233.288 192.512 233.384 192.623 233.447 192.752C233.51 192.882 233.537 193.026 233.525 193.169C233.508 193.507 233.41 193.836 233.241 194.13C233.072 194.423 232.835 194.672 232.551 194.856C232.398 194.924 232.231 194.953 232.064 194.939Z" fill="white"/>
<path d="M233.953 195.188C233.746 195.085 233.516 195.04 233.286 195.057C233.056 195.073 232.835 195.152 232.646 195.284L232.111 195.592C231.624 195.902 231.219 196.325 230.931 196.826C230.643 197.327 230.482 197.89 230.46 198.467V198.848C230.788 198.99 231.148 199.045 231.504 199.007C231.86 198.97 232.2 198.841 232.491 198.634C233.338 198.103 234.036 197.368 234.523 196.495V196.4C234.545 196.166 234.503 195.93 234.403 195.717C234.303 195.503 234.147 195.321 233.953 195.188Z" fill="white"/>
<path d="M240.927 188.334L266.172 173.745C267.193 173.163 268.025 173.603 268.025 174.755C267.986 175.387 267.798 176.001 267.476 176.546C267.153 177.091 266.706 177.552 266.172 177.891L240.927 192.456C239.905 193.05 239.073 192.599 239.073 191.458C239.115 190.828 239.304 190.217 239.626 189.674C239.948 189.132 240.394 188.672 240.927 188.334Z" fill="#E0E0E0"/>
<path d="M279.465 166.106L295.135 156.982C296.156 156.388 296.976 156.84 296.988 157.98C296.946 158.612 296.757 159.225 296.435 159.769C296.113 160.314 295.668 160.776 295.135 161.117L279.465 170.252C278.443 170.834 277.612 170.395 277.612 169.243C277.653 168.611 277.843 167.998 278.165 167.454C278.487 166.909 278.932 166.447 279.465 166.106Z" fill="#E0E0E0"/>
<path d="M308.452 149.451L319.263 143.178C320.285 142.584 321.116 143.035 321.116 144.176C321.077 144.808 320.888 145.421 320.566 145.966C320.244 146.511 319.797 146.973 319.263 147.312L308.452 153.597C307.431 154.179 306.599 153.739 306.599 152.599C306.639 151.965 306.828 151.35 307.15 150.803C307.471 150.256 307.918 149.793 308.452 149.451Z" fill="#E0E0E0"/>
<path d="M272.86 175.266C272.74 175.266 272.625 175.218 272.54 175.134C272.456 175.049 272.408 174.934 272.408 174.814V169.243C272.426 169.137 272.48 169.041 272.561 168.972C272.643 168.902 272.747 168.864 272.854 168.864C272.961 168.864 273.064 168.902 273.146 168.972C273.228 169.041 273.282 169.137 273.299 169.243V174.814C273.299 174.932 273.253 175.045 273.171 175.13C273.089 175.214 272.977 175.263 272.86 175.266Z" fill="#263238"/>
<path d="M301.811 158.551C301.692 158.551 301.577 158.503 301.492 158.418C301.407 158.334 301.36 158.219 301.36 158.099V152.527C301.377 152.422 301.431 152.326 301.513 152.256C301.595 152.187 301.698 152.149 301.805 152.149C301.912 152.149 302.016 152.187 302.098 152.256C302.179 152.326 302.234 152.422 302.251 152.527V158.099C302.251 158.217 302.205 158.33 302.123 158.414C302.041 158.499 301.929 158.547 301.811 158.551Z" fill="#263238"/>
<path d="M325.94 144.615C325.822 144.615 325.709 144.569 325.625 144.487C325.54 144.405 325.491 144.293 325.488 144.176V138.604C325.478 138.539 325.481 138.473 325.499 138.41C325.516 138.347 325.547 138.289 325.59 138.239C325.632 138.189 325.685 138.149 325.744 138.121C325.804 138.094 325.868 138.08 325.934 138.08C325.999 138.08 326.064 138.094 326.123 138.121C326.183 138.149 326.236 138.189 326.278 138.239C326.32 138.289 326.351 138.347 326.369 138.41C326.386 138.473 326.39 138.539 326.379 138.604V144.176C326.376 144.291 326.329 144.401 326.247 144.483C326.165 144.565 326.055 144.612 325.94 144.615Z" fill="#263238"/>
<path d="M335.218 136.026V135.004C335.218 133.816 334.505 133.294 333.626 133.816C333.145 134.164 332.752 134.618 332.478 135.144C332.204 135.67 332.056 136.253 332.046 136.846V137.808C332.027 138.442 331.843 139.061 331.512 139.602C331.428 139.742 331.383 139.902 331.381 140.065C331.381 140.362 331.559 140.493 331.773 140.374L335.491 138.236C335.611 138.145 335.709 138.029 335.777 137.895C335.845 137.761 335.881 137.614 335.883 137.464C335.887 137.407 335.879 137.349 335.858 137.296C335.838 137.243 335.806 137.194 335.765 137.155C335.569 137.045 335.411 136.878 335.313 136.677C335.216 136.475 335.182 136.248 335.218 136.026Z" fill="#FF7E00"/>
<path d="M334.398 139.115C334.392 139.402 334.319 139.683 334.185 139.937C334.051 140.191 333.86 140.41 333.626 140.576C333.21 140.814 332.866 140.576 332.866 139.994L334.398 139.115Z" fill="#FF7E00"/>
<path d="M342.002 131.535C341.873 131.535 341.746 131.502 341.633 131.44C341.498 131.35 341.389 131.226 341.318 131.079C341.247 130.933 341.217 130.771 341.229 130.609C341.245 130.228 341.353 129.856 341.543 129.525C341.734 129.194 342.001 128.914 342.322 128.708C342.457 128.617 342.614 128.562 342.776 128.55C342.939 128.537 343.102 128.567 343.249 128.637C343.384 128.727 343.493 128.852 343.564 128.998C343.635 129.144 343.665 129.306 343.653 129.468C343.637 129.85 343.529 130.222 343.339 130.552C343.148 130.883 342.881 131.163 342.56 131.369C342.39 131.47 342.199 131.527 342.002 131.535Z" fill="#FF7E00"/>
<path d="M344.128 131.868C343.896 131.755 343.638 131.706 343.381 131.727C343.124 131.748 342.877 131.838 342.667 131.987L342.061 132.331C341.514 132.684 341.06 133.163 340.735 133.727C340.411 134.291 340.226 134.925 340.196 135.575V136.002C340.567 136.161 340.972 136.222 341.373 136.18C341.774 136.139 342.158 135.996 342.489 135.765C343.437 135.173 344.224 134.357 344.781 133.389V133.282C344.81 133.009 344.765 132.734 344.65 132.485C344.535 132.236 344.354 132.023 344.128 131.868Z" fill="#FF7E00"/>
<path d="M344.947 128.779C344.818 128.785 344.69 128.752 344.579 128.684C344.442 128.596 344.332 128.472 344.261 128.325C344.19 128.178 344.16 128.015 344.175 127.853C344.191 127.471 344.299 127.1 344.489 126.769C344.68 126.438 344.947 126.158 345.268 125.952C345.398 125.849 345.555 125.788 345.72 125.776C345.885 125.765 346.049 125.803 346.192 125.887C346.334 125.97 346.448 126.095 346.519 126.244C346.589 126.394 346.613 126.561 346.587 126.724C346.569 127.103 346.46 127.473 346.27 127.801C346.08 128.13 345.814 128.408 345.494 128.613C345.331 128.719 345.142 128.776 344.947 128.779Z" fill="#FF7E00"/>
<path d="M347.074 129.064C346.842 128.949 346.582 128.897 346.323 128.916C346.064 128.935 345.815 129.023 345.601 129.171L345.007 129.528C344.319 129.953 343.782 130.585 343.475 131.334C343.673 131.225 343.896 131.169 344.122 131.169C344.348 131.169 344.571 131.225 344.77 131.334C344.991 131.484 345.168 131.692 345.283 131.934C345.398 132.176 345.446 132.445 345.423 132.712V132.973C346.381 132.39 347.174 131.572 347.728 130.597V130.49C347.76 130.215 347.716 129.937 347.601 129.686C347.486 129.434 347.303 129.219 347.074 129.064Z" fill="#FF7E00"/>
<path d="M354.416 121.461C353.533 122.036 352.799 122.811 352.272 123.724C351.746 124.636 351.442 125.66 351.387 126.712C351.363 127.042 351.412 127.374 351.529 127.683C351.645 127.993 351.828 128.274 352.064 128.506L351.684 130.3C351.684 130.526 351.79 130.621 351.933 130.455L353.299 128.863C353.693 128.803 354.072 128.67 354.416 128.471C355.296 127.894 356.028 127.118 356.552 126.205C357.076 125.293 357.378 124.27 357.433 123.22C357.433 121.283 356.079 120.499 354.416 121.461Z" fill="#FF7E00"/>
<path d="M368.946 113.003C369.171 112.857 369.427 112.767 369.694 112.741C369.902 112.713 370.114 112.75 370.3 112.848C370.482 112.959 370.623 113.126 370.704 113.323C370.816 113.582 370.869 113.862 370.858 114.143C370.862 114.391 370.834 114.639 370.775 114.88C370.716 115.105 370.645 115.327 370.561 115.545C370.466 115.747 370.371 115.949 370.264 116.139C370.157 116.329 370.062 116.507 369.967 116.686C369.872 116.864 369.777 117.054 369.706 117.232C369.629 117.403 369.573 117.582 369.54 117.767C369.525 117.851 369.506 117.934 369.48 118.016C369.454 118.08 369.408 118.134 369.349 118.171L368.494 118.669C368.474 118.687 368.449 118.697 368.423 118.697C368.397 118.697 368.371 118.687 368.352 118.669C368.309 118.62 368.288 118.556 368.292 118.491C368.294 118.258 368.326 118.027 368.387 117.802C368.454 117.576 368.533 117.354 368.625 117.137C368.72 116.935 368.827 116.721 368.934 116.531C369.041 116.341 369.147 116.151 369.243 115.973C369.334 115.812 369.413 115.646 369.48 115.474C369.543 115.327 369.575 115.17 369.575 115.01C369.575 114.797 369.575 114.666 369.421 114.607C369.266 114.547 369.159 114.607 368.946 114.702C368.761 114.802 368.602 114.944 368.482 115.117C368.398 115.255 368.33 115.403 368.28 115.557C368.28 115.699 368.197 115.83 368.173 115.937C368.146 116.042 368.083 116.134 367.995 116.198L367.128 116.697C367.111 116.711 367.09 116.718 367.069 116.718C367.047 116.718 367.026 116.711 367.009 116.697C366.992 116.651 366.992 116.601 367.009 116.555C367.018 116.254 367.061 115.955 367.14 115.664C367.239 115.32 367.371 114.986 367.532 114.666C367.704 114.332 367.911 114.018 368.15 113.727C368.368 113.439 368.638 113.193 368.946 113.003ZM369.563 120.131C369.561 120.213 369.54 120.294 369.504 120.368C369.476 120.435 369.431 120.492 369.373 120.535L368.47 121.045C368.453 121.062 368.429 121.071 368.405 121.071C368.381 121.071 368.357 121.062 368.34 121.045C368.297 120.996 368.276 120.932 368.28 120.867V119.762C368.283 119.68 368.303 119.599 368.34 119.525C368.363 119.456 368.409 119.398 368.47 119.359L369.373 118.836C369.392 118.821 369.415 118.814 369.439 118.814C369.462 118.814 369.485 118.821 369.504 118.836C369.546 118.885 369.567 118.949 369.563 119.014V120.131Z" fill="#FF7E00"/>
<path d="M157.042 255.8V305.577C157.042 307.217 158.23 307.882 159.619 307.062L336.631 204.823C337.378 204.333 337.999 203.675 338.445 202.901C338.891 202.127 339.148 201.26 339.198 200.368V150.603C339.198 148.963 338.01 148.298 336.631 149.118L159.619 251.345C158.869 251.832 158.245 252.49 157.797 253.264C157.349 254.038 157.09 254.907 157.042 255.8Z" fill="#FF7E00"/>
<path opacity="0.7" d="M157.042 255.8V305.577C157.042 307.217 158.23 307.882 159.619 307.062L336.631 204.823C337.378 204.333 337.999 203.675 338.445 202.901C338.891 202.127 339.148 201.26 339.198 200.368V150.603C339.198 148.963 338.01 148.298 336.631 149.118L159.619 251.345C158.869 251.832 158.245 252.49 157.797 253.264C157.349 254.038 157.09 254.907 157.042 255.8Z" fill="white"/>
<path d="M171.524 263.047C166.19 266.136 161.865 273.62 161.865 279.774C161.865 285.928 166.19 288.423 171.524 285.346C176.858 282.269 181.182 274.784 181.17 268.619C181.158 262.453 176.846 259.97 171.524 263.047Z" fill="#FF7E00"/>
<path d="M170.395 272.872C170.095 272.876 169.799 272.798 169.54 272.646C169.225 272.437 168.972 272.147 168.809 271.806C168.646 271.465 168.578 271.086 168.613 270.71C168.653 269.828 168.904 268.969 169.344 268.204C169.784 267.439 170.401 266.791 171.143 266.314C171.442 266.071 171.807 265.925 172.19 265.894C172.573 265.863 172.957 265.949 173.291 266.141C173.624 266.333 173.891 266.621 174.057 266.968C174.223 267.315 174.28 267.704 174.22 268.084C174.178 268.966 173.925 269.826 173.483 270.591C173.041 271.355 172.422 272.003 171.678 272.48C171.292 272.721 170.85 272.857 170.395 272.872Z" fill="white"/>
<path d="M175.337 273.513C174.8 273.246 174.2 273.13 173.602 273.176C173.004 273.222 172.43 273.429 171.939 273.775L170.538 274.582C169.267 275.4 168.21 276.509 167.454 277.817C166.698 279.124 166.264 280.594 166.189 282.103V283.1C167.568 283.861 169.445 283.73 171.524 282.53C173.741 281.149 175.573 279.228 176.846 276.947V276.709C176.894 276.091 176.78 275.471 176.515 274.911C176.251 274.351 175.845 273.869 175.337 273.513Z" fill="white"/>
<path d="M187.846 261.016L208.292 249.219C209.314 248.625 210.145 249.005 210.145 250.05C210.089 250.656 209.893 251.24 209.571 251.755C209.249 252.271 208.811 252.704 208.292 253.02L187.846 264.817C186.825 265.411 185.993 265.043 185.993 263.986C186.049 263.38 186.246 262.797 186.567 262.281C186.889 261.765 187.327 261.332 187.846 261.016Z" fill="#455A64"/>
<path d="M187.086 268.928L199.109 261.99C199.703 261.633 200.19 261.859 200.19 262.477C200.157 262.832 200.042 263.174 199.855 263.477C199.667 263.78 199.412 264.036 199.109 264.223L187.086 271.161C186.48 271.506 185.993 271.292 185.993 270.674C186.025 270.317 186.14 269.973 186.33 269.67C186.52 269.366 186.779 269.112 187.086 268.928Z" fill="#455A64"/>
<path d="M159.619 307.122L336.631 204.954C337.378 204.464 337.999 203.806 338.445 203.032C338.891 202.258 339.148 201.391 339.198 200.499V192.337L157.042 297.464V305.637C157.042 307.276 158.194 307.942 159.619 307.122Z" fill="#F5F5F5"/>
<path d="M205.298 278.337C205.24 278.338 205.182 278.328 205.128 278.307C205.074 278.285 205.025 278.253 204.984 278.212C204.943 278.171 204.91 278.121 204.889 278.067C204.867 278.013 204.857 277.955 204.859 277.897V272.325C204.857 272.267 204.867 272.208 204.889 272.154C204.91 272.099 204.942 272.049 204.983 272.007C205.024 271.965 205.073 271.931 205.127 271.909C205.181 271.886 205.239 271.874 205.298 271.874C205.418 271.874 205.533 271.922 205.617 272.006C205.702 272.091 205.75 272.206 205.75 272.325V277.897C205.75 277.956 205.738 278.014 205.715 278.068C205.692 278.122 205.659 278.171 205.617 278.212C205.575 278.253 205.525 278.285 205.47 278.307C205.415 278.328 205.357 278.338 205.298 278.337Z" fill="#EBEBEB"/>
<path d="M183.712 285.679L199.37 276.543C200.392 275.961 201.223 276.4 201.223 277.553C201.182 278.184 200.992 278.797 200.67 279.342C200.348 279.886 199.903 280.348 199.37 280.689L183.712 289.872C182.69 290.466 181.859 290.015 181.859 288.874C181.891 288.233 182.076 287.608 182.399 287.052C182.721 286.496 183.171 286.025 183.712 285.679Z" fill="#E0E0E0"/>
<path d="M233.585 261.907C233.526 261.907 233.468 261.895 233.414 261.872C233.36 261.849 233.311 261.816 233.27 261.774C233.229 261.732 233.197 261.682 233.175 261.627C233.154 261.572 233.144 261.514 233.145 261.455V255.883C233.145 255.767 233.191 255.655 233.274 255.573C233.356 255.49 233.468 255.444 233.585 255.444C233.702 255.444 233.815 255.49 233.9 255.572C233.984 255.654 234.033 255.766 234.036 255.883V261.455C234.036 261.575 233.989 261.69 233.904 261.774C233.819 261.859 233.704 261.907 233.585 261.907Z" fill="#EBEBEB"/>
<path d="M211.999 269.237L227.657 260.172C228.678 259.578 229.51 260.03 229.51 261.17C229.47 261.802 229.281 262.415 228.959 262.96C228.637 263.506 228.191 263.967 227.657 264.306L211.999 273.442C210.977 274.036 210.146 273.585 210.146 272.444C210.176 271.8 210.36 271.173 210.683 270.615C211.005 270.057 211.456 269.585 211.999 269.237Z" fill="#E0E0E0"/>
<path d="M261.871 245.465C261.753 245.465 261.64 245.419 261.556 245.337C261.471 245.255 261.423 245.143 261.419 245.025V239.453C261.419 239.334 261.467 239.219 261.552 239.134C261.636 239.05 261.751 239.002 261.871 239.002C261.93 239.002 261.988 239.014 262.042 239.037C262.096 239.059 262.145 239.093 262.186 239.135C262.227 239.177 262.259 239.227 262.28 239.282C262.302 239.336 262.312 239.395 262.31 239.453V245.025C262.31 245.142 262.264 245.254 262.182 245.336C262.099 245.418 261.987 245.465 261.871 245.465Z" fill="#EBEBEB"/>
<path d="M240.285 252.806L255.943 243.671C256.964 243.089 257.796 243.528 257.796 244.681C257.754 245.312 257.565 245.925 257.243 246.469C256.921 247.014 256.476 247.476 255.943 247.817L240.285 256.941C239.263 257.535 238.432 257.083 238.432 255.943C238.473 255.311 238.663 254.699 238.985 254.154C239.307 253.609 239.752 253.147 240.285 252.806Z" fill="#E0E0E0"/>
<path d="M290.157 229.035C290.037 229.035 289.922 228.987 289.838 228.902C289.753 228.818 289.706 228.703 289.706 228.583V223.012C289.706 222.953 289.717 222.895 289.74 222.841C289.763 222.786 289.796 222.737 289.838 222.696C289.881 222.655 289.93 222.623 289.985 222.602C290.04 222.581 290.098 222.57 290.157 222.572C290.215 222.57 290.273 222.581 290.327 222.602C290.381 222.624 290.43 222.656 290.471 222.697C290.513 222.738 290.545 222.787 290.566 222.841C290.588 222.895 290.598 222.953 290.597 223.012V228.583C290.598 228.642 290.588 228.7 290.567 228.755C290.545 228.81 290.513 228.86 290.472 228.902C290.431 228.944 290.382 228.977 290.328 229C290.274 229.023 290.216 229.035 290.157 229.035Z" fill="#EBEBEB"/>
<path d="M268.571 236.412L284.229 227.288C285.251 226.694 286.082 227.146 286.082 228.286C286.042 228.918 285.854 229.532 285.532 230.077C285.21 230.622 284.763 231.083 284.229 231.423L268.571 240.558C267.538 241.152 266.718 240.701 266.718 239.56C266.755 238.926 266.942 238.31 267.264 237.763C267.587 237.215 268.035 236.752 268.571 236.412Z" fill="#E0E0E0"/>
<path d="M296.846 219.935L312.516 210.799C313.537 210.217 314.369 210.656 314.369 211.809C314.327 212.44 314.138 213.053 313.816 213.598C313.494 214.142 313.048 214.604 312.516 214.945L296.846 224.069C295.824 224.663 295.004 224.211 295.004 223.071C295.044 222.44 295.231 221.828 295.551 221.283C295.871 220.738 296.314 220.276 296.846 219.935Z" fill="#E0E0E0"/>
<path d="M150.876 473.881L166.665 464.781C166.665 464.781 176.466 435.937 173.983 409.373C170.859 376.37 155.272 364.716 146.124 368.446C136.977 372.177 138.866 385.28 148.572 402.898C156.234 416.905 156.258 449.124 150.876 473.881Z" fill="#FF7E00"/>
<path opacity="0.1" d="M150.876 473.881L166.665 464.781C166.665 464.781 176.466 435.937 173.983 409.373C170.859 376.37 155.272 364.716 146.124 368.446C136.977 372.177 138.866 385.28 148.572 402.898C156.234 416.905 156.258 449.124 150.876 473.881Z" fill="black"/>
<path d="M158.42 470.258C158.57 470.258 158.716 470.211 158.837 470.124C158.959 470.036 159.05 469.913 159.097 469.771C169.266 438.633 169.694 394.927 150.449 375.194C150.383 375.127 150.305 375.074 150.219 375.037C150.133 375 150.04 374.98 149.946 374.979C149.852 374.978 149.759 374.995 149.672 375.03C149.585 375.065 149.506 375.117 149.439 375.182C149.372 375.248 149.318 375.326 149.281 375.412C149.244 375.498 149.225 375.591 149.224 375.685C149.223 375.778 149.24 375.872 149.275 375.959C149.31 376.046 149.361 376.125 149.427 376.192C167.591 394.796 167.912 438.158 157.743 469.319C157.713 469.409 157.702 469.504 157.709 469.598C157.717 469.692 157.743 469.784 157.786 469.868C157.829 469.952 157.888 470.026 157.96 470.087C158.033 470.148 158.116 470.194 158.206 470.222C158.275 470.245 158.347 470.257 158.42 470.258Z" fill="white"/>
<path d="M122.459 490.264C120.82 491.202 117.446 489.147 116.163 488.28C113.954 486.775 112.167 484.73 110.971 482.34C109.636 479.616 109.179 476.544 109.665 473.549C109.931 471.969 110.304 470.409 110.781 468.88C111.221 467.371 111.648 465.862 112.088 464.342C112.614 462.881 112.84 461.33 112.753 459.78C112.349 456.679 109.605 454.505 107.098 452.652C104.33 450.585 101.455 447.84 101.467 444.11C101.665 441.211 102.823 438.46 104.758 436.293C106.54 434.036 108.655 432.04 110.27 429.652C111.543 427.992 112.206 425.945 112.147 423.855C111.973 422.575 111.545 421.343 110.888 420.231C109.569 417.796 107.823 415.574 106.92 412.961C106.017 410.347 106.136 407.104 108.18 405.239C109.855 403.706 112.338 403.492 114.607 403.635C116.715 403.899 118.742 404.616 120.547 405.738C126.487 409.04 129.861 416.05 136.145 418.592C138.521 419.566 141.23 419.78 143.76 420.445C146.291 421.111 148.869 422.405 150.033 424.746C152.349 429.355 148.061 435.046 149.676 439.94C151.114 444.265 155.331 445.88 157.695 449.824C158.658 451.548 159.045 453.533 158.8 455.491C158.599 458.805 157.794 462.054 156.424 465.078C154.89 468.079 153.135 470.962 151.173 473.703C151.066 473.775 122.709 490.121 122.459 490.264Z" fill="#FF7E00"/>
<path d="M139.4 481.14C139.556 481.136 139.705 481.076 139.82 480.971C139.936 480.867 140.01 480.724 140.03 480.57C143.083 456.382 131.536 423.748 114.286 407.84C114.159 407.743 114 407.696 113.84 407.71C113.681 407.723 113.532 407.796 113.423 407.913C113.315 408.031 113.254 408.185 113.253 408.345C113.252 408.505 113.311 408.66 113.419 408.779C130.395 424.449 141.764 456.584 138.759 480.415C138.738 480.584 138.786 480.754 138.891 480.887C138.995 481.021 139.149 481.107 139.317 481.128L139.4 481.14Z" fill="white"/>
<path d="M136.442 450.157C136.542 450.157 136.64 450.133 136.729 450.088C136.818 450.042 136.895 449.977 136.953 449.896C137.054 449.761 137.098 449.592 137.076 449.426C137.053 449.259 136.967 449.108 136.834 449.005C127.33 441.877 112.765 443.065 112.159 443.16C112.075 443.167 111.993 443.191 111.918 443.231C111.843 443.27 111.776 443.324 111.722 443.389C111.668 443.454 111.627 443.529 111.603 443.61C111.578 443.691 111.569 443.776 111.577 443.861C111.595 444.028 111.677 444.181 111.805 444.29C111.933 444.398 112.099 444.453 112.266 444.443C112.421 444.443 126.938 443.183 136.026 450.026C136.146 450.115 136.293 450.161 136.442 450.157Z" fill="white"/>
<path d="M135.017 444.217C135.179 444.217 135.336 444.154 135.454 444.041C135.571 443.928 135.64 443.774 135.646 443.611C136.086 432.527 144.449 425.791 144.532 425.791C144.6 425.74 144.656 425.676 144.699 425.602C144.741 425.529 144.769 425.448 144.78 425.364C144.791 425.28 144.785 425.195 144.763 425.113C144.741 425.032 144.703 424.955 144.651 424.888C144.544 424.757 144.39 424.672 144.221 424.652C144.053 424.632 143.883 424.678 143.748 424.781C140.994 427.116 138.743 429.985 137.132 433.216C135.521 436.447 134.583 439.971 134.375 443.575C134.369 443.744 134.428 443.908 134.542 444.032C134.655 444.157 134.813 444.232 134.981 444.241L135.017 444.217Z" fill="white"/>
<path d="M292.165 470.139C281.629 464.054 272.6 455.674 265.747 445.621C258.894 435.568 254.394 424.1 252.581 412.07L244.158 356.151C242.553 345.489 238.835 335.255 233.22 326.05C227.606 316.845 220.209 308.855 211.464 302.548L200.475 294.624V300.897L206.415 305.197C215.138 311.492 222.519 319.462 228.128 328.641C233.738 337.819 237.462 348.023 239.085 358.657L247.674 414.968C249.506 426.971 254.012 438.409 260.86 448.436C267.707 458.463 276.721 466.822 287.235 472.895L292.141 475.723V470.151L292.165 470.139Z" fill="#EBEBEB"/>
<path d="M387.692 334.054L379.269 278.135C377.665 267.474 373.948 257.241 368.336 248.036C362.724 238.831 355.33 230.84 346.587 224.532L335.598 216.596L200.475 294.624L211.464 302.56C220.209 308.867 227.606 316.857 233.22 326.062C238.835 335.267 242.553 345.501 244.158 356.162L252.581 412.082C254.394 424.112 258.894 435.58 265.747 445.633C272.6 455.686 281.629 464.066 292.165 470.151L427.288 392.135C416.747 386.052 407.713 377.672 400.858 367.616C394.002 357.56 389.502 346.088 387.692 334.054Z" fill="#FAFAFA"/>
<path d="M335.527 218.01L345.886 225.494C354.483 231.73 361.757 239.61 367.287 248.676C372.817 257.742 376.494 267.816 378.105 278.313L386.516 334.232C388.275 346.109 392.63 357.453 399.271 367.457C405.911 377.46 414.674 385.878 424.936 392.111L292.165 468.761C281.915 462.759 273.143 454.534 266.494 444.691C259.844 434.849 255.488 423.641 253.745 411.891L245.334 355.972C243.677 345.162 239.892 334.788 234.199 325.45C228.505 316.113 221.016 307.997 212.165 301.574L202.661 294.719L335.527 218.01ZM335.598 216.596L200.475 294.624L211.464 302.56C220.209 308.867 227.606 316.857 233.22 326.062C238.835 335.267 242.553 345.501 244.158 356.162L252.581 412.082C254.394 424.112 258.894 435.58 265.747 445.633C272.6 455.686 281.629 464.066 292.165 470.151L427.288 392.135C416.749 386.054 407.715 377.675 400.86 367.621C394.005 357.568 389.504 346.098 387.692 334.066L379.269 278.146C377.667 267.484 373.95 257.248 368.338 248.041C362.726 238.835 355.331 230.842 346.587 224.532L335.598 216.596Z" fill="#E0E0E0"/>
<path d="M292.165 470.139L427.288 392.123V397.695L292.165 475.711V470.139Z" fill="#F5F5F5"/>
<path d="M225.72 290.419C220.968 292.426 220.505 296.537 224.592 299.626C226.91 301.179 229.561 302.164 232.331 302.5C235.102 302.837 237.912 302.515 240.534 301.562C245.286 299.566 245.762 295.444 241.722 292.367C239.399 290.799 236.738 289.805 233.956 289.467C231.174 289.128 228.351 289.454 225.72 290.419Z" fill="#FF7E00"/>
<path d="M230.829 295.42C230.434 295.463 230.035 295.463 229.641 295.42C228.759 295.344 227.911 295.041 227.181 294.541C226.088 293.721 226.207 292.652 227.478 292.165C228.312 291.852 229.212 291.758 230.092 291.891C230.973 291.978 231.819 292.285 232.551 292.782C233.644 293.602 233.513 294.671 232.254 295.158C231.797 295.326 231.315 295.414 230.829 295.42Z" fill="white"/>
<path d="M237.517 295.313C236.125 295.103 234.702 295.25 233.383 295.741L232.195 296.263C230.045 297.19 229.819 299.008 231.696 300.409L232.361 300.908C234.61 301.239 236.905 301.056 239.073 300.374C241.117 299.59 242.364 298.687 242.542 297.392L241.628 296.786C240.405 295.953 238.99 295.446 237.517 295.313Z" fill="white"/>
<path d="M247.662 281.651L287.342 258.735C288.118 258.325 288.99 258.132 289.867 258.178C290.743 258.224 291.591 258.507 292.319 258.996L292.676 259.281C292.97 259.469 293.206 259.734 293.361 260.047C293.516 260.359 293.583 260.708 293.555 261.056C293.527 261.404 293.405 261.737 293.202 262.021C292.999 262.305 292.723 262.528 292.403 262.667L252.759 285.631C251.991 286.017 251.131 286.182 250.275 286.107C249.418 286.031 248.6 285.718 247.912 285.203C247.769 285.096 247.627 284.989 247.496 284.871C247.198 284.711 246.952 284.47 246.786 284.175C246.62 283.881 246.541 283.546 246.559 283.208C246.576 282.871 246.689 282.545 246.884 282.269C247.08 281.994 247.35 281.779 247.662 281.651Z" fill="#455A64"/>
<path d="M256.382 290.894L276.246 279.429C276.405 279.351 276.542 279.234 276.645 279.089C276.747 278.944 276.811 278.776 276.831 278.6C276.851 278.423 276.827 278.245 276.76 278.08C276.693 277.916 276.585 277.771 276.448 277.659L276.091 277.315C275.772 277.029 275.372 276.849 274.947 276.8C274.521 276.751 274.091 276.835 273.715 277.042L253.959 288.589C253.799 288.669 253.662 288.787 253.56 288.933C253.458 289.079 253.394 289.248 253.374 289.425C253.354 289.602 253.378 289.781 253.445 289.947C253.512 290.112 253.619 290.258 253.757 290.371L254.006 290.609C254.326 290.893 254.725 291.074 255.149 291.125C255.574 291.176 256.005 291.095 256.382 290.894Z" fill="#455A64"/>
<path opacity="0.2" d="M243.397 312.67L350.46 250.834C351.166 250.438 351.992 250.315 352.783 250.488C353.573 250.661 354.273 251.118 354.749 251.773L354.974 252.094C355.189 252.412 355.335 252.771 355.403 253.148C355.472 253.526 355.461 253.914 355.372 254.287C355.282 254.66 355.116 255.01 354.884 255.316C354.652 255.621 354.359 255.875 354.024 256.062L246.902 317.945C246.206 318.333 245.389 318.444 244.614 318.257C243.839 318.07 243.163 317.598 242.72 316.935L242.494 316.59C242.275 316.28 242.124 315.927 242.05 315.555C241.977 315.182 241.983 314.798 242.068 314.428C242.154 314.058 242.316 313.71 242.545 313.407C242.774 313.104 243.065 312.853 243.397 312.67Z" fill="black"/>
<path opacity="0.2" d="M249.896 323.219L357.077 261.36C357.408 261.162 357.775 261.036 358.157 260.989C358.539 260.942 358.927 260.976 359.295 261.088C359.663 261.2 360.004 261.387 360.295 261.639C360.586 261.89 360.822 262.2 360.986 262.548L361.152 262.893C361.472 263.637 361.511 264.472 361.262 265.243C361.013 266.015 360.493 266.669 359.798 267.086L252.593 329.029C252.273 329.223 251.916 329.346 251.545 329.391C251.174 329.436 250.797 329.401 250.441 329.288C250.084 329.176 249.756 328.988 249.477 328.739C249.199 328.489 248.977 328.183 248.827 327.841L248.637 327.46C248.271 326.725 248.197 325.879 248.431 325.092C248.665 324.305 249.188 323.635 249.896 323.219Z" fill="black"/>
<path opacity="0.2" d="M254.719 334.683L361.996 272.753C362.3 272.552 362.649 272.427 363.011 272.388C363.374 272.349 363.741 272.398 364.081 272.529C364.422 272.66 364.726 272.871 364.969 273.143C365.211 273.416 365.385 273.742 365.477 274.095L365.619 274.63C365.818 275.45 365.753 276.312 365.433 277.093C365.113 277.874 364.554 278.534 363.837 278.978L256.608 340.956C256.311 341.154 255.969 341.276 255.613 341.31C255.257 341.345 254.898 341.291 254.567 341.154C254.237 341.016 253.946 340.799 253.72 340.522C253.493 340.245 253.339 339.917 253.27 339.566C253.27 339.376 253.163 339.186 253.104 338.996C252.882 338.199 252.919 337.351 253.209 336.576C253.499 335.801 254.028 335.139 254.719 334.683Z" fill="black"/>
<path opacity="0.2" d="M257.796 347.181L320.154 311.173C320.432 310.966 320.76 310.839 321.105 310.807C321.449 310.774 321.796 310.836 322.107 310.987C322.418 311.138 322.682 311.371 322.87 311.661C323.058 311.952 323.162 312.288 323.172 312.634L323.303 313.466C323.393 314.327 323.242 315.197 322.866 315.977C322.491 316.758 321.906 317.418 321.176 317.885L258.818 353.929C258.542 354.135 258.214 354.262 257.871 354.295C257.527 354.329 257.181 354.267 256.87 354.118C256.56 353.969 256.295 353.737 256.107 353.448C255.918 353.159 255.812 352.824 255.8 352.48C255.8 352.183 255.717 351.898 255.67 351.601C255.589 350.74 255.744 349.874 256.119 349.095C256.494 348.317 257.074 347.655 257.796 347.181Z" fill="black"/>
<path d="M386.742 381.063L284.704 439.988C283.294 440.801 281.633 441.061 280.041 440.719C278.45 440.376 277.042 439.455 276.091 438.134C269.637 428.25 265.328 415.939 263.166 401.199L259.091 374.125C258.915 372.401 259.219 370.662 259.97 369.1C260.72 367.538 261.888 366.214 263.344 365.274L365.512 306.255C368.352 304.615 371.06 305.922 371.547 309.165L375.622 336.252C376.978 349.41 381.379 362.071 388.476 373.234C388.914 373.85 389.217 374.551 389.367 375.291C389.517 376.032 389.51 376.796 389.347 377.533C389.183 378.271 388.867 378.966 388.418 379.574C387.97 380.182 387.399 380.689 386.742 381.063Z" fill="#FF7E00"/>
<path opacity="0.7" d="M386.742 381.063L284.704 439.988C283.294 440.801 281.633 441.061 280.041 440.719C278.45 440.376 277.042 439.455 276.091 438.134C269.637 428.25 265.328 415.939 263.166 401.199L259.091 374.125C258.915 372.401 259.219 370.662 259.97 369.1C260.72 367.538 261.888 366.214 263.344 365.274L365.512 306.255C368.352 304.615 371.06 305.922 371.547 309.165L375.622 336.252C376.978 349.41 381.379 362.071 388.476 373.234C388.914 373.85 389.217 374.551 389.367 375.291C389.517 376.032 389.51 376.796 389.347 377.533C389.183 378.271 388.867 378.966 388.418 379.574C387.97 380.182 387.399 380.689 386.742 381.063Z" fill="white"/>
<path d="M284.704 439.988L386.741 381.063C387.398 380.689 387.969 380.182 388.418 379.574C388.867 378.966 389.183 378.271 389.347 377.533C389.51 376.796 389.517 376.032 389.367 375.291C389.217 374.551 388.913 373.85 388.476 373.234C385.139 368.061 382.419 362.515 380.374 356.709L348.714 347.775L334.66 378.972L349.925 391.244L296.655 363.207L269.415 425.138C271.21 429.682 273.446 434.039 276.091 438.146C277.044 439.465 278.452 440.384 280.043 440.724C281.635 441.064 283.295 440.802 284.704 439.988Z" fill="#FF7E00"/>
<path d="M327.496 341.158C331.25 338.996 334.826 340.79 335.491 345.173C335.746 347.478 335.357 349.809 334.367 351.906C333.377 354.003 331.825 355.785 329.884 357.053C326.13 359.228 322.554 357.422 321.901 353.038C321.643 350.734 322.03 348.404 323.018 346.307C324.006 344.209 325.556 342.427 327.496 341.158Z" fill="#FF7E00"/>
<path d="M358.479 415.978C358.139 416.008 357.797 416.008 357.457 415.978C356.716 415.908 356.005 415.65 355.39 415.23C354.487 414.553 354.594 413.662 355.64 413.21C356.333 412.951 357.082 412.873 357.814 412.985C358.553 413.057 359.263 413.31 359.881 413.721C360.784 414.41 360.677 415.301 359.631 415.753C359.263 415.894 358.873 415.97 358.479 415.978Z" fill="#FF7E00"/>
<path d="M364.075 415.895C362.911 415.715 361.72 415.838 360.617 416.252L359.584 416.679C357.79 417.451 357.6 418.972 359.168 420.148L359.715 420.564C361.598 420.836 363.518 420.682 365.334 420.113C367.033 419.459 368.078 418.699 368.233 417.618L367.46 417.119C366.455 416.428 365.289 416.007 364.075 415.895Z" fill="#FF7E00"/>
<path d="M366.035 411.416L362.209 411.606L361.176 412.497C361.133 412.532 361.099 412.575 361.076 412.625C361.053 412.674 361.041 412.728 361.041 412.782C361.041 412.837 361.053 412.891 361.076 412.94C361.099 412.99 361.133 413.033 361.176 413.068L362.209 413.887L366.094 413.733L366.035 411.416ZM361.948 413.032C361.911 413.032 361.874 413.025 361.841 413.01C361.807 412.996 361.776 412.974 361.75 412.948C361.725 412.921 361.705 412.89 361.692 412.855C361.679 412.821 361.673 412.784 361.675 412.747C361.675 412.674 361.703 412.605 361.755 412.554C361.806 412.502 361.875 412.474 361.948 412.474C361.985 412.472 362.022 412.478 362.056 412.491C362.091 412.504 362.122 412.524 362.149 412.549C362.175 412.575 362.197 412.605 362.211 412.639C362.226 412.673 362.233 412.71 362.233 412.747C362.233 412.822 362.203 412.895 362.149 412.948C362.096 413.002 362.024 413.032 361.948 413.032Z" fill="#FF7E00"/>
<path d="M385.839 404.645C385.839 405.227 385.09 405.714 384.651 405.952C383.822 406.414 382.909 406.709 381.966 406.819C381.063 405.761 382.798 403.92 385.839 404.645Z" fill="#FF7E00"/>
<path d="M385.981 400.903C383.177 398.586 378.782 397.731 375.693 399.501C372.604 401.271 371.998 405.013 374.838 407.33C377.677 409.646 382.75 409.706 385.815 407.912C388.88 406.118 388.797 403.207 385.981 400.903ZM381.348 400.356C381.607 400.231 381.898 400.187 382.183 400.232C382.467 400.276 382.732 400.407 382.94 400.606C383.031 400.682 383.102 400.779 383.146 400.89C383.19 401 383.206 401.12 383.192 401.238C383.177 401.356 383.134 401.469 383.065 401.566C382.996 401.663 382.904 401.741 382.797 401.794C382.537 401.937 382.239 401.996 381.944 401.964C381.648 401.933 381.37 401.811 381.146 401.615C381.055 401.529 380.986 401.422 380.946 401.303C380.905 401.184 380.895 401.057 380.915 400.932C380.934 400.808 380.984 400.691 381.06 400.591C381.135 400.49 381.234 400.41 381.348 400.356ZM375.717 404.68C375.623 404.594 375.552 404.486 375.51 404.366C375.468 404.245 375.457 404.117 375.477 403.991C375.497 403.865 375.548 403.746 375.625 403.644C375.702 403.543 375.803 403.462 375.919 403.409C376.176 403.283 376.465 403.239 376.748 403.284C377.031 403.329 377.293 403.46 377.499 403.659C377.591 403.734 377.662 403.831 377.707 403.941C377.752 404.051 377.769 404.17 377.756 404.288C377.743 404.406 377.701 404.519 377.633 404.617C377.565 404.714 377.474 404.793 377.368 404.847C377.107 405.012 376.801 405.089 376.493 405.068C376.186 405.046 375.893 404.927 375.657 404.728L375.717 404.68ZM385.031 406.415C383.716 407.116 382.244 407.472 380.754 407.448C379.459 407.468 378.176 407.196 377 406.653L384.983 402.15C385.406 402.425 385.761 402.792 386.02 403.224C386.279 403.657 386.437 404.142 386.48 404.645C386.394 405.047 386.211 405.422 385.948 405.739C385.686 406.055 385.351 406.303 384.971 406.462L385.031 406.415Z" fill="#FF7E00"/>
<path d="M402.732 390.46C402.449 390.007 402.091 389.606 401.675 389.272C400.697 388.433 399.497 387.893 398.22 387.718C396.943 387.543 395.643 387.74 394.475 388.286C393.971 388.517 393.535 388.876 393.21 389.326C392.886 389.777 392.684 390.304 392.624 390.856C392.564 391.408 392.648 391.966 392.869 392.475C393.089 392.985 393.438 393.428 393.881 393.763C394.131 393.96 394.397 394.135 394.677 394.285C398.241 396.317 404.716 396.566 404.716 396.566C404.654 394.383 403.966 392.263 402.732 390.46ZM399.631 392.705C399.06 393.01 398.416 393.153 397.769 393.12C397.123 393.086 396.497 392.877 395.96 392.515C395.75 392.354 395.584 392.141 395.48 391.897C395.375 391.653 395.335 391.386 395.364 391.122C395.393 390.858 395.489 390.606 395.643 390.39C395.798 390.175 396.005 390.002 396.246 389.89C396.805 389.629 397.427 389.536 398.038 389.62C398.649 389.704 399.223 389.963 399.691 390.365C400.641 391.137 400.677 392.111 399.643 392.705H399.631Z" fill="#FF7E00"/>
<path d="M531.808 403.005L516.531 447.591C516.434 447.874 516.25 448.121 516.006 448.295C515.763 448.47 515.47 448.563 515.17 448.563C514.87 448.563 514.578 448.47 514.334 448.295C514.09 448.121 513.907 447.874 513.81 447.591L498.734 402.649L531.808 403.005Z" fill="#FFA8A7"/>
<path d="M513.81 447.579C513.907 447.863 514.091 448.109 514.334 448.283C514.578 448.458 514.871 448.552 515.171 448.552C515.47 448.552 515.763 448.458 516.007 448.283C516.251 448.109 516.434 447.863 516.531 447.579L519.513 438.871C518.226 439.559 516.776 439.879 515.319 439.798C513.863 439.716 512.457 439.235 511.256 438.408L510.591 437.956L513.81 447.579Z" fill="#263238"/>
<path d="M499.305 203.837V208.197V213.46L498.758 402.637C502.414 406.497 507.389 408.838 512.694 409.195C520.689 410.026 528.898 407.401 531.82 403.005L532.355 213.935V203.873C531.963 210.383 499.02 210.371 499.305 203.837Z" fill="#FF7E00"/>
<path d="M499.209 220.433V230.175C499.114 233.002 505.149 234.832 512.075 235.461C521.294 236.341 532.153 233.846 532.271 230.104V222.916V220.35C532.129 224.092 521.27 226.599 512.075 225.72C505.423 225.102 499.601 223.344 499.269 220.742C499.22 220.647 499.2 220.54 499.209 220.433Z" fill="#EBEBEB"/>
<path d="M499.233 222.869C498.996 229.426 532.046 229.343 532.283 222.785V213.032C532.046 219.59 499.019 219.673 499.233 213.115V222.869Z" fill="#FF7E00"/>
<path d="M499.305 203.837V213.46C499.02 219.899 530.917 220.089 532.355 213.935C532.388 213.815 532.408 213.691 532.414 213.567V203.873C531.963 210.383 499.02 210.371 499.305 203.837Z" fill="#EBEBEB"/>
<path d="M532.497 162.59V162.174C532.497 157.481 525.108 153.668 515.984 153.668C506.86 153.668 499.459 157.481 499.459 162.174V166.605L499.304 203.837C499.186 206.629 505.126 208.47 512.016 209.135C521.235 210.038 532.141 207.603 532.343 203.873L532.485 162.887C532.509 162.756 532.497 162.613 532.497 162.59Z" fill="#F28F8F"/>
<path opacity="0.2" d="M515.984 170.68C525.111 170.68 532.509 166.872 532.509 162.174C532.509 157.476 525.111 153.668 515.984 153.668C506.857 153.668 499.459 157.476 499.459 162.174C499.459 166.872 506.857 170.68 515.984 170.68Z" fill="white"/>
<path opacity="0.1" d="M532.319 213.935L532.497 162.59C532.284 166.605 525.369 170.407 517.944 170.68L517.41 409.349L516.531 447.591L531.808 403.005L532.319 213.935Z" fill="black"/>
<path d="M478.871 253.709C485.156 252.794 492.901 257.523 498.295 265.102C503.688 272.682 522.483 291.131 524.55 297C526.047 301.277 525.167 309.319 516.317 305.542C507.751 301.894 480.439 275.105 480.439 275.105L478.871 253.709Z" fill="#B16668"/>
<path d="M475.865 253.709C477.889 253.276 479.95 253.045 482.019 253.02C484.193 253.163 489.076 254.458 494.101 259.352C499.126 264.247 512.171 280.059 512.171 280.059C512.171 280.059 512.753 284.502 508.381 289.456C504.009 294.41 499.922 294.41 499.922 294.41L480.546 278.36L475.865 253.709Z" fill="#37474F"/>
<path d="M518.443 288.292L532.224 268.286V253.59C532.224 253.59 535.265 254.612 536.477 259.352C537.689 264.092 539.198 269.605 538.592 273.608C537.986 277.612 528.446 302.061 523.302 305.506C518.158 308.951 518.443 288.292 518.443 288.292Z" fill="#B16668"/>
<path d="M456.418 247.068L459.103 263.986L475.866 263.083L473.466 243.433L456.418 247.068Z" fill="#B16668"/>
<path d="M445.144 226.326C445.144 226.326 441.152 232.384 441.58 232.978C442.008 233.572 444.978 234.166 444.978 234.166L445.144 226.326Z" fill="#9A4A4D"/>
<path d="M456.192 209.551C448.114 211.262 445.773 214.814 445.013 227.656C444.217 241.081 445.583 245.298 447.389 247.104C448.577 248.292 455.194 248.541 458.533 247.627C462.702 246.439 472.147 243.124 476.566 236.376C481.758 228.44 483.124 217.665 477.564 213.258C469.735 207.033 459.531 208.862 456.192 209.551Z" fill="#B16668"/>
<path d="M456.572 247.995C458.012 247.734 459.433 247.376 460.825 246.926C459.766 248.134 458.345 248.967 456.774 249.302L456.572 247.995Z" fill="#9A4A4D"/>
<path d="M444.55 213.626C445.673 214.252 446.871 214.735 448.114 215.064C450.086 215.634 449.789 216.37 450.062 218.176C450.303 219.807 451.085 221.309 452.284 222.441C453.056 223.142 453.626 223.201 453.887 224.271C454.012 225.388 454.012 226.515 453.887 227.633C453.887 229.866 455.337 231.553 456.026 228.571C456.026 228.571 457.309 223.605 461.491 224.235C465.672 224.865 466.041 229.569 464.045 233.264C462.857 235.521 459.578 234.927 459.578 234.927C459.461 237.006 459.791 239.085 460.545 241.026C461.299 242.966 462.46 244.723 463.95 246.177C463.95 246.177 468.108 249.266 474.642 246.058C477.419 242.497 479.906 238.719 482.079 234.761C484.977 229.723 487.484 223.522 486.498 217.594C486.182 215.375 485.2 213.304 483.683 211.654C483.263 211.28 482.925 210.823 482.692 210.312C482.459 209.8 482.335 209.246 482.328 208.684C482.079 207.344 481.364 206.136 480.309 205.274C479.481 204.62 478.493 204.201 477.448 204.061C476.403 203.921 475.339 204.065 474.369 204.478C474.287 203.443 473.88 202.461 473.205 201.671C472.531 200.881 471.624 200.325 470.615 200.083C468.571 199.655 466.443 199.949 464.591 200.914C464.049 199.942 463.271 199.122 462.328 198.528C461.386 197.935 460.31 197.587 459.199 197.517C458.088 197.447 456.977 197.658 455.968 198.129C454.959 198.6 454.084 199.317 453.424 200.214C453.117 199.742 452.704 199.35 452.216 199.069C451.729 198.788 451.182 198.627 450.62 198.598C449.5 198.558 448.383 198.736 447.33 199.121C446.436 199.386 445.575 199.753 444.764 200.214C443.298 201.12 442.156 202.466 441.499 204.059C440.842 205.652 440.704 207.412 441.105 209.088C441.336 210.041 441.761 210.935 442.354 211.716C442.947 212.497 443.694 213.147 444.55 213.626Z" fill="#263238"/>
<path d="M482.411 212.284L487.246 209.433C487.059 209.115 486.811 208.838 486.517 208.616C486.222 208.394 485.887 208.233 485.53 208.141C485.173 208.048 484.802 208.028 484.437 208.079C484.072 208.13 483.72 208.253 483.403 208.441C483.085 208.628 482.808 208.876 482.586 209.17C482.365 209.465 482.203 209.8 482.111 210.157C482.019 210.514 481.998 210.885 482.049 211.25C482.101 211.615 482.224 211.966 482.411 212.284Z" fill="#263238"/>
<path d="M486.925 463.415L487.032 464.496C487.228 465.925 487.264 467.372 487.139 468.809C487.137 469.357 487.018 469.899 486.788 470.397C486.558 470.895 486.224 471.338 485.809 471.695C484.82 472.238 483.761 472.638 482.66 472.883C480.206 473.486 477.619 473.231 475.331 472.159C473.43 471.244 471.945 469.783 469.89 469.224C467.767 468.697 465.606 468.34 463.427 468.155C462.457 468.077 461.498 467.901 460.564 467.632C459.854 467.382 459.166 467.072 458.508 466.706C456.214 465.62 454.146 464.108 452.414 462.251C451.32 461.016 450.567 459.517 450.228 457.903C450.038 456.94 449.658 454.196 451.238 454.267C459.019 454.612 466.682 456.287 474.499 456.192C475.005 456.156 475.513 456.156 476.02 456.192C476.967 456.392 477.86 456.797 478.633 457.38C478.955 457.658 479.338 457.856 479.751 457.957C480.164 458.059 480.595 458.06 481.009 457.962C482.345 457.756 483.707 457.776 485.037 458.022C485.326 458.063 485.601 458.17 485.842 458.334C486.083 458.499 486.283 458.717 486.426 458.972C486.502 459.157 486.543 459.354 486.545 459.554C486.676 460.944 486.807 462.132 486.925 463.415Z" fill="#263238"/>
<path d="M486.13 454.101L485.726 459.958C485.345 462.191 477.742 463.522 476.222 459.613L475.473 452.96L486.13 454.101Z" fill="#B16668"/>
<path d="M457.178 477.291C457.178 477.291 458.105 480.332 458.592 482.993C458.972 485.108 459.507 488.648 458.734 490.216C457.962 491.784 455.063 492.735 450.597 492.592C447.71 492.497 443.172 494.362 440.047 496.014C436.923 497.665 430.199 498.271 426.837 497.807C422.88 497.249 418.829 494.849 418.224 493.198C417.618 491.547 418.509 489.848 427.941 486.07C428.025 486.07 441.009 482.126 445.666 477.243L457.178 477.291Z" fill="#263238"/>
<path d="M457.261 473.525C457.261 473.525 457.19 476.103 457.178 477.588C457.166 479.073 455.36 481.223 450.846 480.962C447.674 480.772 445.488 479.869 445.666 477.267L445.75 473.501L457.261 473.525Z" fill="#B16668"/>
<path d="M489.194 409.064C487.852 397.659 486.818 391.113 486.818 391.113C486.818 391.113 487.056 375.218 488.006 360.404C489.016 344.389 488.791 324.229 489.194 320.237C489.194 320.237 437.766 309.26 437.338 327.805C436.863 349.355 438.289 393.941 438.598 399.75C439.025 407.9 439.049 416.382 440.427 429.605C441.793 442.673 445.749 473.501 445.749 473.501C447.52 474.448 449.497 474.943 451.505 474.943C453.513 474.943 455.49 474.448 457.261 473.501C457.261 473.501 461.74 436.542 461.562 427.169C461.454 420.356 460.802 413.563 459.613 406.854L463.664 365.013C463.664 365.013 465.256 377.95 465.684 386.1C466.112 394.25 467.228 399.227 469.248 414.398C470.994 427.549 475.426 455.325 475.426 455.325C477.11 456.274 479.026 456.736 480.959 456.658C482.891 456.581 484.764 455.967 486.367 454.885C486.367 454.885 490.537 420.481 489.194 409.064Z" fill="#FF7E00"/>
<path opacity="0.3" d="M489.194 409.064C487.852 397.659 486.818 391.113 486.818 391.113C486.818 391.113 487.056 375.218 488.006 360.404C489.016 344.389 488.791 324.229 489.194 320.237C489.194 320.237 437.766 309.26 437.338 327.805C436.863 349.355 438.289 393.941 438.598 399.75C439.025 407.9 439.049 416.382 440.427 429.605C441.793 442.673 445.749 473.501 445.749 473.501C447.52 474.448 449.497 474.943 451.505 474.943C453.513 474.943 455.49 474.448 457.261 473.501C457.261 473.501 461.74 436.542 461.562 427.169C461.454 420.356 460.802 413.563 459.613 406.854L463.664 365.013C463.664 365.013 465.256 377.95 465.684 386.1C466.112 394.25 467.228 399.227 469.248 414.398C470.994 427.549 475.426 455.325 475.426 455.325C477.11 456.274 479.026 456.736 480.959 456.658C482.891 456.581 484.764 455.967 486.367 454.885C486.367 454.885 490.537 420.481 489.194 409.064Z" fill="black"/>
<path opacity="0.15" d="M483.231 345.565C483.231 345.565 479.667 351.446 468.856 355.747L465.839 365.845L465.518 383.593C465.102 377.879 464.472 371.63 463.665 365.013L464.853 354.606C464.853 354.606 476.828 350.995 483.231 345.565Z" fill="black"/>
<path d="M491.179 264.651C489.112 257.297 484.253 254.054 478.871 253.709C477.505 253.626 474.725 253.709 474.725 253.709C475.105 256.834 465.506 259.032 458.093 257.273C455.836 257.855 452.153 258.699 450.24 259.329C444.882 261.111 438.444 267.811 437.612 285.31C437.612 285.31 436.757 322.91 437.018 333.84C450.264 339.424 463.059 340.124 470.769 338.592C486.843 335.468 489.48 328.577 489.48 328.577C489.48 328.577 489.337 319.073 488.732 303.784C491.416 282.162 492.07 267.835 491.179 264.651Z" fill="#455A64"/>
<path d="M428.512 326.973C429.927 327.856 431.099 329.08 431.919 330.533C432.738 331.986 433.181 333.621 433.204 335.289C433.43 338.711 433.43 342.417 435.034 345.518C435.295 346.029 436.697 347.181 437.243 347.015V342.643C438.134 341.514 440.57 339.412 441.2 338.117C442.245 335.954 441.021 333.365 441.651 330.989C442.055 330.073 442.327 329.105 442.459 328.114C442.547 326.885 442.352 325.653 441.888 324.512C441.425 323.371 440.706 322.351 439.786 321.532C437.41 319.619 435.319 317.243 433.192 315.105C430.436 312.337 426.611 308.262 423.855 305.482L442.352 287.745C444.486 285.712 446.268 283.34 447.627 280.724C450.656 274.903 454.755 264.698 450.181 259.34C443.587 259.34 439.845 260.35 433.109 268.203C427.3 274.974 408.755 297.19 406.367 300.956C403.979 304.722 402.613 307.3 407.187 311.482C410.914 314.662 414.808 317.64 418.853 320.404C421.978 322.649 425.387 324.752 428.512 326.973Z" fill="#B16668"/>
<path d="M423.866 305.542C422.207 307.146 420.292 308.463 418.2 309.438C420.679 309.097 423.052 308.212 425.15 306.849L423.866 305.542Z" fill="#9A4A4D"/>
<path d="M452.26 258.746C449.584 258.62 446.903 258.824 444.277 259.352C440.273 260.219 437.576 262.251 430.638 270.104C423.7 277.956 418.83 284.36 418.83 284.36C418.83 284.36 416.834 288.779 422.394 293.792C427.953 298.806 432.967 297.938 432.967 297.938L448.553 282.78C448.553 282.78 459.673 271.149 452.26 258.746Z" fill="#37474F"/>
</svg>
