<svg width="37" height="40" viewBox="0 0 37 40" fill="none" xmlns="http://www.w3.org/2000/svg">
<path d="M3.43136 39L3.42782 39C2.96875 39.0007 2.51142 38.8529 2.11347 38.5627C1.71419 38.2715 1.39034 37.8476 1.19601 37.335C1.00155 36.822 0.94965 36.2531 1.04985 35.7035C1.15002 35.1541 1.39534 34.6606 1.74265 34.2816L1.00543 33.606L1.74331 34.2809L12.2571 22.7865L15.7494 26.6027L5.11538 38.2286L5.11467 38.2294C4.88516 38.4808 4.61736 38.6749 4.32928 38.8052C4.04152 38.9354 3.73666 39.0006 3.43136 39ZM28.6337 9.93701L28.4954 10.0152L28.3882 10.1324L23.1588 15.8496L22.0924 14.6837L27.4423 8.83478L27.5439 8.72372L27.6083 8.58769L30.0063 3.52157L33.9974 1.26252L35.3984 2.79424L33.2537 7.32312L28.6337 9.93701ZM35.4716 33.7267L32.0891 30.0288C31.7323 29.6387 31.318 29.3842 30.9081 29.2165C30.5631 29.075 30.1657 28.9719 29.7361 28.9719C28.8665 28.9719 28.0152 29.3377 27.383 30.0288L27.3798 30.0322C26.9454 30.5117 26.654 31.1078 26.5294 31.746C26.4054 32.3809 26.4495 33.0415 26.6583 33.653C26.8094 34.1159 27.053 34.5437 27.3776 34.9043L27.3775 34.9044L27.383 34.9103L30.9512 38.8114C30.5569 38.9099 30.1512 38.9625 29.7361 38.9625C26.7225 38.9625 24.1428 36.3749 23.9264 32.9155C23.9202 32.8052 23.9064 32.6961 23.8978 32.6283C23.8965 32.618 23.8953 32.6086 23.8943 32.6004C23.8849 32.524 23.8826 32.4921 23.8824 32.4719C23.8883 31.6965 24.0207 30.9299 24.2721 30.2087L24.4686 29.645L24.0658 29.2046L9.99743 13.824L9.52838 13.3112L8.88423 13.572C8.23988 13.8329 7.57493 13.9859 6.89046 13.9859C6.89056 13.9859 6.87639 13.986 6.80469 13.9754C6.79811 13.9744 6.79031 13.9733 6.78145 13.9719C6.7209 13.9627 6.61064 13.946 6.49915 13.9385C3.51994 13.7151 1.03784 11.0004 1.03677 7.49523C1.0388 7.07054 1.07888 6.64896 1.1555 6.23641L4.53739 9.93375L4.53734 9.93379L4.54494 9.94191C4.87523 10.295 5.27702 10.5725 5.72603 10.7492C6.0693 10.889 6.46401 10.9906 6.89046 10.9906C7.76006 10.9906 8.61136 10.6249 9.24353 9.93375L9.2447 9.93246C10.165 8.92284 10.3702 7.50282 9.96783 6.30851C9.82318 5.87689 9.59575 5.43728 9.24352 5.0522L5.67532 1.15116C6.06958 1.05263 6.47532 1 6.89046 1C9.90399 1 12.4837 3.58768 12.7002 7.04705C12.7063 7.15735 12.7201 7.26651 12.7287 7.33427C12.73 7.34458 12.7312 7.35393 12.7322 7.36217C12.742 7.44152 12.7441 7.47287 12.7441 7.49297C12.7441 8.28079 12.5966 9.03864 12.3515 9.76219L12.1619 10.3219L12.5608 10.758L26.6291 26.1386L27.0981 26.6514L27.7423 26.3905C28.3866 26.1296 29.0516 25.9766 29.7361 25.9766C29.736 25.9766 29.7501 25.9766 29.8218 25.9871C29.8284 25.9881 29.8362 25.9893 29.845 25.9906C29.9056 25.9998 30.0159 26.0166 30.1274 26.0241C33.1072 26.2475 35.5897 28.9633 35.5897 32.4696C35.5897 32.8998 35.5485 33.3195 35.4716 33.7267Z" fill="#FEA249" stroke="url(#paint0_linear_662_149)" stroke-width="2"/>
<defs>
<linearGradient id="paint0_linear_662_149" x1="18.2949" y1="0" x2="18.2949" y2="40" gradientUnits="userSpaceOnUse">
<stop stop-color="#FEA249"/>
<stop offset="1" stop-color="#FEA249" stop-opacity="0.49"/>
</linearGradient>
</defs>
</svg>
