<svg width="50" height="40" viewBox="0 0 50 40" fill="none" xmlns="http://www.w3.org/2000/svg">
<path d="M46.1326 0H3.07551C1.38475 0 0 1.38398 0 3.07551V29.2265C0 30.9173 1.38475 32.3012 3.07551 32.3012H23.0663V36.9245H15.3775C14.5287 36.9245 13.8398 37.6134 13.8398 38.4622C13.8398 39.3111 14.5287 40 15.3775 40H33.8306C34.6794 40 35.3683 39.3111 35.3683 38.4622C35.3683 37.6134 34.6794 36.9245 33.8306 36.9245H26.1418V32.3012H46.1326C47.8234 32.3012 49.2081 30.9173 49.2081 29.2265V3.07551C49.2081 1.38398 47.8234 0 46.1326 0V0ZM46.1326 29.2265H3.07551V3.07551H46.1326V29.2265Z" fill="url(#paint0_linear_662_143)"/>
<defs>
<linearGradient id="paint0_linear_662_143" x1="24.6041" y1="0" x2="24.6041" y2="40" gradientUnits="userSpaceOnUse">
<stop stop-color="#FEA249"/>
<stop offset="1" stop-color="#FEA249" stop-opacity="0.49"/>
</linearGradient>
</defs>
</svg>
