<svg width="90" height="84" viewBox="0 0 90 84" fill="none" xmlns="http://www.w3.org/2000/svg">
<path d="M46.4726 55.0974C46.9693 51.5654 48.2215 48.184 50.1413 45.1829C51.1612 48.5877 51.4314 52.1754 50.9305 55.6984L50.9304 55.6984L48.9784 68.4269C47.6712 68.1465 46.338 68.0034 45.0006 68.0001H45C44.8343 68.0001 44.6659 68.0087 44.5034 68.0179L46.4722 55.1002L46.4726 55.0974ZM4 76.9988V72.2488H10H10.25V71.9988V69.4988V69.2488H10H4.03931C4.25483 63.0716 5.87384 57.0243 8.77355 51.5657L13.9387 54.5491L14.1553 54.6741L14.2803 54.4575L15.5303 52.2913L15.6552 52.0748L15.4388 51.9498L10.283 48.9719C13.5748 43.7455 17.9967 39.3237 23.223 36.0318L26.201 41.1876L26.326 41.4041L26.5425 41.2791L28.7075 40.0291L28.924 39.9041L28.799 39.6875L25.8169 34.5236C31.2754 31.6235 37.3226 30.004 43.5 29.7881V35.7501V36.0001H43.75H46.25H46.5V35.7501V29.7894C52.6773 30.0049 58.7245 31.6239 64.1831 34.5236L61.1998 39.6888L61.0747 39.9053L61.2913 40.0304L63.4576 41.2804L63.674 41.4053L63.799 41.1889L66.777 36.0331C72.0033 39.3249 76.4252 43.7467 79.717 48.9731L74.5612 51.9511L74.3448 52.0761L74.4697 52.2926L75.7197 54.4576L75.8448 54.6741L76.0613 54.5491L81.2252 51.5669C84.1258 57.0253 85.7456 63.0726 85.9619 69.2501H80H79.75V69.5001V72.0001V72.2501H80H86V77.0001C86 78.9295 84.4294 80.5001 82.5 80.5001H61.3975C60.766 75.4946 57.0224 71.2982 51.8814 69.2877L53.8971 56.138L53.8975 56.1353C54.6071 51.1442 53.9397 46.0542 51.9676 41.4148L51.1566 39.4941L50.9942 39.1095L50.7318 39.4342L49.4206 41.0566C46.2533 44.9722 44.2087 49.6744 43.5051 54.6612C43.5051 54.6617 43.505 54.6622 43.5049 54.6627L41.4197 68.3338C34.6226 69.615 29.3623 74.4737 28.6025 80.4988H7.5C5.57057 80.4988 4 78.9283 4 76.9988ZM66.0125 9.35007V9.24651L65.9393 9.17328C54.3941 -2.37059 35.6059 -2.37059 24.0607 9.17328L23.884 9.35L24.0607 9.52678L25.8282 11.2955L26.0049 11.4724L26.1818 11.2956C36.5591 0.920712 53.4421 0.920727 63.8182 11.2956L63.995 11.4724L64.1718 11.2956L65.9393 9.52809L66.0125 9.45487V9.35132V9.35007ZM45 26.7501C20.7382 26.7501 1 46.4882 1 70.7501V77.0001C1 80.5844 3.91568 83.5001 7.5 83.5001H82.5C86.0843 83.5001 89 80.5844 89 77.0001V70.7501C89 46.4882 69.2618 26.7501 45 26.7501ZM45 71.0001C51.8566 71.0001 57.4717 75.1766 58.3691 80.5001H31.6308C32.5271 75.1766 38.1433 71.0001 45 71.0001Z" fill="#FF7E00" stroke="#FF7E00" stroke-width="0.5"/>
<path d="M60.093 15.3744L60.2698 15.1976L60.093 15.0208C51.7704 6.69944 38.2296 6.69944 29.907 15.0208L29.7302 15.1976L29.907 15.3744L31.6745 17.1419L31.8512 17.3186L32.028 17.1419C39.1804 9.99075 50.8196 9.99075 57.972 17.1419L58.1488 17.3186L58.3255 17.1419L60.093 15.3744Z" fill="#FF7E00" stroke="#FF7E00" stroke-width="0.5"/>
<path d="M35.7545 20.8669L35.5777 21.0437L35.7545 21.2205L37.522 22.988L37.6987 23.1648L37.8755 22.988C41.8029 19.0606 48.1971 19.0606 52.1245 22.988L52.3012 23.1648L52.478 22.988L54.2455 21.2205L54.4223 21.0437L54.2455 20.8669C49.1479 15.7693 40.8521 15.7693 35.7545 20.8669Z" fill="#FF7E00" stroke="#FF7E00" stroke-width="0.5"/>
</svg>
