<svg width="46" height="46" viewBox="0 0 46 46" fill="none" xmlns="http://www.w3.org/2000/svg">
<path d="M44.6432 14.8598L30.4716 0.688273C30.2325 0.459037 29.9141 0.331055 29.5828 0.331055C29.2515 0.331055 28.9331 0.459037 28.6939 0.688273L25.1636 4.24367L21.6332 7.77403L18.1029 11.2794L18.0778 11.3044L18.0528 11.3294L14.5475 14.8598L11.0421 18.3651C11.0171 18.3651 11.0171 18.3651 10.9921 18.3901C10.967 18.4152 10.942 18.4402 10.942 18.4653L7.4617 21.9455L3.93134 25.4759L0.375947 29.0313C0.257161 29.1443 0.162581 29.2802 0.0979534 29.4309C0.0333259 29.5815 0 29.7437 0 29.9076C0 30.0716 0.0333259 30.2338 0.0979534 30.3844C0.162581 30.5351 0.257161 30.671 0.375947 30.784L14.5475 44.9555C14.6606 45.074 14.7966 45.1683 14.9472 45.2329C15.0978 45.2974 15.2599 45.3308 15.4238 45.3311C15.5914 45.3309 15.7573 45.2977 15.912 45.2332C16.0666 45.1688 16.2071 45.0744 16.3252 44.9555L44.6432 16.6125C44.7619 16.4995 44.8565 16.3636 44.9212 16.2129C44.9858 16.0623 45.0191 15.9 45.0191 15.7361C45.0191 15.5722 44.9858 15.41 44.9212 15.2593C44.8565 15.1087 44.7619 14.9728 44.6432 14.8598V14.8598ZM15.4238 42.3015L3.02998 29.9076L4.80767 28.1299L6.58537 26.3773L8.33804 24.5996L10.1157 22.8219L11.8934 21.0692L13.6711 19.2915L15.4238 17.5138L17.2015 15.7361L18.9792 13.9835L20.7569 12.2058L22.5096 10.4281L24.2873 8.65036L26.065 6.8977L27.8176 5.12L29.5953 3.3423L41.9891 15.7361L15.4238 42.3015Z" fill="url(#paint0_linear_1178_441)"/>
<path d="M28.694 7.77512C28.5823 7.89552 28.4466 7.99116 28.2957 8.05585C28.1447 8.12054 27.9819 8.15285 27.8177 8.15069C27.6538 8.15045 27.4917 8.11705 27.3411 8.05251C27.1905 7.98796 27.0545 7.89361 26.9413 7.77512L26.065 6.89879L27.8177 5.12109L28.694 5.99743C28.8113 6.11381 28.9045 6.25227 28.968 6.40482C29.0316 6.55738 29.0643 6.72101 29.0643 6.88627C29.0643 7.05154 29.0316 7.21517 28.968 7.36773C28.9045 7.52028 28.8113 7.65874 28.694 7.77512ZM26.9413 13.0832C26.8232 13.2021 26.6828 13.2965 26.5281 13.3609C26.3735 13.4254 26.2076 13.4586 26.04 13.4588C25.7098 13.4541 25.3948 13.3191 25.1636 13.0832L22.5096 10.4292L24.2873 8.65145L26.9413 11.3055C27.1706 11.5446 27.2986 11.8631 27.2986 12.1943C27.2986 12.5256 27.1706 12.844 26.9413 13.0832ZM21.6333 14.8609C21.5138 14.9762 21.3726 15.0665 21.2178 15.1267C21.0631 15.1869 20.8979 15.2157 20.7319 15.2114C20.57 15.2136 20.4092 15.1838 20.2588 15.1236C20.1084 15.0634 19.9714 14.9742 19.8556 14.8609L18.9793 13.9846L20.757 12.2069L21.6333 13.0832C21.8625 13.3223 21.9905 13.6408 21.9905 13.972C21.9905 14.3033 21.8625 14.6217 21.6333 14.8609V14.8609ZM19.8556 20.1689C19.6244 20.4048 19.3095 20.5398 18.9793 20.5445C18.8117 20.5444 18.6458 20.5111 18.4911 20.4467C18.3364 20.3822 18.196 20.2878 18.0779 20.1689L15.4239 17.5149L17.2016 15.7372L19.8556 18.3912C20.0848 18.6304 20.2128 18.9488 20.2128 19.2801C20.2128 19.6114 20.0848 19.9298 19.8556 20.1689V20.1689ZM14.5475 21.9466C14.3064 22.1719 13.9887 22.2973 13.6587 22.2973C13.3287 22.2973 13.011 22.1719 12.7698 21.9466L11.8935 21.0703L13.6712 19.2926L14.5475 20.1689C14.7768 20.4081 14.9047 20.7265 14.9047 21.0578C14.9047 21.3891 14.7768 21.7075 14.5475 21.9466V21.9466ZM12.7698 27.2547C12.6554 27.3698 12.5186 27.4603 12.3679 27.5206C12.2172 27.5809 12.0558 27.6097 11.8935 27.6052C11.7275 27.6095 11.5623 27.5807 11.4076 27.5205C11.2529 27.4603 11.1116 27.37 10.9921 27.2547L8.3381 24.6007L10.1158 22.823L12.7698 25.477C12.8872 25.5934 12.9803 25.7318 13.0439 25.8844C13.1074 26.037 13.1401 26.2006 13.1401 26.3659C13.1401 26.5311 13.1074 26.6947 13.0439 26.8473C12.9803 26.9999 12.8872 27.1383 12.7698 27.2547V27.2547ZM7.46177 29.0074C7.23063 29.2432 6.91565 29.3782 6.58544 29.3829C6.41786 29.3828 6.25196 29.3495 6.09728 29.2851C5.94259 29.2206 5.80217 29.1263 5.68407 29.0074L4.80774 28.131L6.58544 26.3784L7.46177 27.2547C7.69115 27.4887 7.81963 27.8033 7.81963 28.131C7.81963 28.4587 7.69115 28.7733 7.46177 29.0074V29.0074Z" fill="url(#paint1_linear_1178_441)"/>
<defs>
<linearGradient id="paint0_linear_1178_441" x1="-2" y1="23" x2="45" y2="23" gradientUnits="userSpaceOnUse">
<stop stop-color="#FF7E00"/>
<stop offset="1" stop-color="#F9CCA6"/>
</linearGradient>
<linearGradient id="paint1_linear_1178_441" x1="3.0021e-07" y1="25" x2="44" y2="24.5" gradientUnits="userSpaceOnUse">
<stop stop-color="#FF7E00"/>
<stop offset="1" stop-color="#F9CCA6" stop-opacity="0"/>
</linearGradient>
</defs>
</svg>
