<svg width="40" height="40" viewBox="0 0 40 40" fill="none" xmlns="http://www.w3.org/2000/svg">
<path d="M37.4762 7.82023C37.4762 7.86139 37.4724 7.89566 37.4674 7.92248C36.4477 8.62414 30.7458 12.3907 29.6799 13.0742C29.5676 13.0768 29.2827 13.0387 28.876 12.8248C28.4425 12.5971 27.1789 11.888 25.4113 10.8794L24.0361 10.0948L22.74 11.0048C21.7764 11.6834 19.6814 13.2976 16.4918 16.4865C13.2885 19.6892 11.6793 21.7767 11.0045 22.7366L10.0945 24.0327L10.8804 25.4079C11.6419 26.7408 12.5544 28.3512 12.8294 28.8751C13.0508 29.2955 13.0683 29.583 13.0683 29.661C13.0683 29.6735 13.0683 29.6841 13.067 29.6928C12.4683 30.6477 8.60006 36.4731 7.89528 37.5015C7.79549 37.5184 7.57844 37.5028 7.30713 37.3138C5.11419 35.7309 2.82583 33.4843 2.49777 32.6049C2.71731 27.9259 6.82937 21.3602 14.0974 14.0934C21.366 6.8273 27.9248 2.71586 32.5882 2.49881C33.4701 2.8144 35.7311 5.10335 37.3015 7.27507C37.4119 7.43599 37.4762 7.63495 37.4762 7.82023ZM39.8932 7.82019C39.8932 7.15969 39.6936 6.4592 39.2707 5.85171C39.2296 5.79308 35.0508 -0.0771929 32.6308 0.000769726C25.8312 0.217194 17.8398 6.82468 12.3331 12.3294C6.8277 17.8342 0.217711 25.8257 0 32.6521V32.7082C0 35.0983 5.79543 39.2995 5.85281 39.3401C7.42766 40.4428 9.16159 40.0405 9.86574 39.0369C10.2949 38.4263 14.7375 31.7453 15.2377 30.9264C15.456 30.5696 15.5626 30.1343 15.5626 29.6609C15.5626 29.0503 15.3843 28.3742 15.0374 27.7143C14.6988 27.0713 13.5905 25.1235 13.046 24.1705C13.6354 23.3309 15.146 21.3588 18.2564 18.2516C21.3431 15.1636 23.3314 13.6393 24.1754 13.0462C25.1277 13.5894 27.0755 14.6965 27.7167 15.0333C28.9254 15.6713 30.1323 15.7437 30.9462 15.226C31.7134 14.7402 38.3452 10.3156 38.9764 9.85907C39.572 9.42809 39.8932 8.65657 39.8932 7.82019Z" fill="url(#paint0_linear_662_144)"/>
<defs>
<linearGradient id="paint0_linear_662_144" x1="19.9466" y1="0" x2="19.9466" y2="40" gradientUnits="userSpaceOnUse">
<stop stop-color="#FEA249"/>
<stop offset="1" stop-color="#FEA249" stop-opacity="0.49"/>
</linearGradient>
</defs>
</svg>
