<svg width="40" height="40" viewBox="0 0 40 40" fill="none" xmlns="http://www.w3.org/2000/svg">
<path d="M29.7067 23.6962L26.6379 21.3486C26.1301 20.9617 25.4993 20.7718 24.8623 20.8138C24.2252 20.8559 23.6249 21.1272 23.1723 21.5775L21.9731 22.7767C21.0573 22.5494 20.2054 22.116 19.4825 21.5095L19.3778 21.4212C19.0865 21.1763 18.817 20.9065 18.5723 20.615L18.4872 20.5134C17.8801 19.7902 17.4464 18.9377 17.2192 18.0212L18.4177 16.8228C18.8677 16.3706 19.139 15.771 19.1815 15.1344C19.224 14.4979 19.0348 13.8675 18.6489 13.3595L16.3012 10.2939C15.9264 9.80223 15.397 9.45098 14.7983 9.29666C14.1995 9.14234 13.5663 9.19392 13.0005 9.44311L12.652 9.59936C11.6477 10.0419 10.7903 10.7615 10.1804 11.6739C9.57042 12.5863 9.23322 13.6537 9.20829 14.7509C9.1323 18.4612 10.4063 22.0728 12.7934 24.9142L12.9497 25.0962C13.5432 25.8023 14.1967 26.4558 14.9028 27.0493L15.0848 27.2056C17.8448 29.5214 21.332 30.7917 24.9348 30.7939C25.039 30.7939 25.1455 30.7939 25.2544 30.7939C26.352 30.7681 27.4195 30.4298 28.3317 29.8188C29.2439 29.2077 29.9629 28.3491 30.4043 27.3439L30.5606 26.9954C30.8088 26.4294 30.8595 25.7964 30.7046 25.198C30.5498 24.5997 30.1983 24.0708 29.7067 23.6962ZM28.6965 26.1814L28.5403 26.5298C28.2541 27.1795 27.7887 27.7342 27.1986 28.1288C26.6084 28.5234 25.918 28.7417 25.2083 28.7579C25.1153 28.7579 25.0223 28.7579 24.9301 28.7579C21.8063 28.7564 18.7825 27.6557 16.3887 25.6486L16.2067 25.4923C15.5901 24.9741 15.0195 24.4034 14.5013 23.7868L14.345 23.604C12.2732 21.138 11.1682 18.0031 11.2356 14.7829C11.2518 14.0731 11.47 13.3826 11.8647 12.7923C12.2593 12.202 12.814 11.7364 13.4638 11.4501L13.8122 11.2939C13.9625 11.2287 14.1305 11.2162 14.2888 11.2583C14.4472 11.3004 14.5867 11.3947 14.6848 11.5259L17.0325 14.5915C17.1213 14.7079 17.1649 14.8525 17.1553 14.9986C17.1457 15.1447 17.0835 15.2823 16.9802 15.3861L15.3958 16.9712C15.2819 17.0851 15.1968 17.2243 15.1473 17.3776C15.0979 17.5308 15.0856 17.6936 15.1114 17.8525C15.35 19.3152 15.9792 20.6864 16.9325 21.8212L17.0177 21.922C17.3373 22.3026 17.6894 22.6547 18.07 22.9743L18.1747 23.0626C19.3091 24.0146 20.6794 24.6429 22.1411 24.8814C22.3001 24.9073 22.4631 24.8951 22.6164 24.8456C22.7698 24.7962 22.9092 24.711 23.0231 24.597L24.6083 23.0118C24.7121 22.9087 24.8497 22.8466 24.9957 22.8369C25.1418 22.8273 25.2863 22.8709 25.4028 22.9595L28.4715 25.3126C28.6007 25.4116 28.6931 25.551 28.7339 25.7086C28.7747 25.8662 28.7615 26.0329 28.6965 26.1821V26.1814Z" fill="url(#paint0_linear_662_167)"/>
<path d="M19.9975 6.56311e-05C15.1009 -0.000156899 10.3744 1.79596 6.71371 5.04801C3.05301 8.30006 0.712535 12.7821 0.135847 17.6446C-0.357321 21.8675 0.499816 26.1382 2.58428 29.8438L0.896783 35.6539C0.758014 36.132 0.750152 36.6386 0.874019 37.1208C0.997886 37.603 1.24894 38.043 1.60096 38.395C1.95298 38.7471 2.39305 38.9981 2.87523 39.122C3.3574 39.2459 3.86399 39.238 4.34209 39.0992L10.1538 37.4133C13.1664 39.1093 16.5653 40.0002 20.0225 40C23.9756 39.9945 27.8383 38.8176 31.1229 36.618C34.4075 34.4185 36.9666 31.2949 38.477 27.6417C39.9874 23.9886 40.3814 19.9698 39.6091 16.0929C38.8369 12.216 36.9331 8.65496 34.1381 5.85943C32.2856 3.99637 30.0819 2.51921 27.6547 1.51346C25.2275 0.5077 22.6249 -0.00668702 19.9975 6.56311e-05V6.56311e-05ZM32.703 32.7063C29.8592 35.5713 26.1251 37.3834 22.1147 37.8445C18.1838 38.3048 14.2105 37.4616 10.8054 35.4445C10.6857 35.3732 10.5527 35.3272 10.4145 35.3095C10.2764 35.2917 10.136 35.3026 10.0022 35.3414L3.77568 37.15C3.6469 37.1873 3.51046 37.1894 3.3806 37.156C3.25074 37.1226 3.13222 37.055 3.0374 36.9602C2.94259 36.8654 2.87496 36.7468 2.84157 36.617C2.80818 36.4871 2.81025 36.3507 2.84756 36.2219L4.65615 29.9945C4.69496 29.8608 4.70583 29.7204 4.68809 29.5823C4.67035 29.4441 4.62437 29.3111 4.55303 29.1914C2.53592 25.7863 1.69273 21.813 2.15303 17.8821C2.67154 13.5137 4.77449 9.48733 8.06336 6.56592C11.3522 3.64451 15.5985 2.03106 19.9975 2.03131C23.5515 2.0313 27.0256 3.08517 29.9806 5.05964C32.9355 7.03412 35.2387 9.84052 36.5986 13.1239C37.9586 16.4074 38.3144 20.0204 37.621 23.506C36.9275 26.9916 35.2161 30.1933 32.703 32.7063V32.7063Z" fill="url(#paint1_linear_662_167)"/>
<defs>
<linearGradient id="paint0_linear_662_167" x1="19.9988" y1="9.20947" x2="19.9988" y2="30.7939" gradientUnits="userSpaceOnUse">
<stop stop-color="#FEA249"/>
<stop offset="1" stop-color="#FEA249" stop-opacity="0.49"/>
</linearGradient>
<linearGradient id="paint1_linear_662_167" x1="19.9973" y1="0" x2="19.9973" y2="40" gradientUnits="userSpaceOnUse">
<stop stop-color="#FEA249"/>
<stop offset="1" stop-color="#FEA249" stop-opacity="0.49"/>
</linearGradient>
</defs>
</svg>
