<svg width="100" height="74" viewBox="0 0 100 74" fill="none" xmlns="http://www.w3.org/2000/svg">
<path d="M59.9 50.4273C59.1081 50.4291 58.3336 50.1955 57.6747 49.7563C57.0159 49.3171 56.5023 48.692 56.1993 47.9604C55.8963 47.2288 55.8175 46.4237 55.9729 45.6472C56.1282 44.8708 56.5108 44.158 57.072 43.5993C58.932 41.7353 60 39.1593 60 36.5273C60 33.8953 58.932 31.3193 57.072 29.4553C56.7006 29.0839 56.406 28.6431 56.205 28.1578C56.0041 27.6726 55.9006 27.1525 55.9006 26.6273C55.9006 26.1021 56.0041 25.582 56.205 25.0968C56.406 24.6116 56.7006 24.1707 57.072 23.7993C57.4434 23.4279 57.8843 23.1334 58.3695 22.9324C58.8547 22.7314 59.3748 22.6279 59.9 22.6279C60.4252 22.6279 60.9453 22.7314 61.4305 22.9324C61.9157 23.1334 62.3566 23.4279 62.728 23.7993C66.08 27.1513 68 31.7873 68 36.5273C68 41.2673 66.08 45.9033 62.728 49.2553C61.978 50.0055 60.9608 50.4271 59.9 50.4273Z" fill="#FF7E00"/>
<path d="M71.216 61.7393C70.4242 61.7411 69.6496 61.5075 68.9907 61.0683C68.3319 60.6291 67.8183 60.004 67.5153 59.2724C67.2123 58.5408 67.1335 57.7357 67.2889 56.9592C67.4442 56.1828 67.8268 55.47 68.388 54.9113C73.228 50.0713 76 43.3713 76 36.5273C76 29.6833 73.228 22.9833 68.388 18.1433C68.0166 17.7719 67.722 17.331 67.5211 16.8458C67.3201 16.3606 67.2166 15.8405 67.2166 15.3153C67.2166 14.7901 67.3201 14.27 67.5211 13.7848C67.722 13.2996 68.0166 12.8587 68.388 12.4873C68.7594 12.1159 69.2003 11.8213 69.6855 11.6204C70.1707 11.4194 70.6908 11.3159 71.216 11.3159C71.7412 11.3159 72.2613 11.4194 72.7465 11.6204C73.2317 11.8213 73.6726 12.1159 74.044 12.4873C80.372 18.8153 84 27.5793 84 36.5273C84 45.4753 80.372 54.2393 74.044 60.5673C73.6733 60.9397 73.2326 61.2349 72.7472 61.4361C72.2618 61.6372 71.7414 61.7403 71.216 61.7393Z" fill="#FF7E00"/>
<path d="M82.528 73.0554C81.7361 73.0571 80.9616 72.8236 80.3027 72.3844C79.6438 71.9452 79.1303 71.3201 78.8273 70.5885C78.5243 69.8569 78.4455 69.0518 78.6008 68.2753C78.7562 67.4988 79.1388 66.786 79.7 66.2274C87.516 58.4074 92 47.5834 92 36.5274C92 25.4714 87.516 14.6474 79.7 6.82739C79.3286 6.45602 79.034 6.01513 78.833 5.5299C78.632 5.04467 78.5286 4.5246 78.5286 3.9994C78.5286 3.47419 78.632 2.95412 78.833 2.46889C79.034 1.98366 79.3286 1.54277 79.7 1.17139C80.0714 0.800016 80.5123 0.505424 80.9975 0.304436C81.4827 0.103447 82.0028 -3.91311e-09 82.528 0C83.0532 3.9131e-09 83.5733 0.103447 84.0585 0.304436C84.5437 0.505424 84.9846 0.800016 85.356 1.17139C94.664 10.4794 100 23.3674 100 36.5274C100 49.6874 94.664 62.5754 85.356 71.8834C84.985 72.2554 84.5442 72.5504 84.0589 72.7515C83.5736 72.9527 83.0533 73.0559 82.528 73.0554ZM40.1 50.4274C39.5747 50.4279 39.0544 50.3247 38.5691 50.1236C38.0838 49.9224 37.643 49.6274 37.272 49.2554C33.92 45.9034 32 41.2674 32 36.5274C32 31.7874 33.92 27.1514 37.272 23.7994C37.6434 23.428 38.0843 23.1334 38.5695 22.9324C39.0547 22.7314 39.5748 22.628 40.1 22.628C40.6252 22.628 41.1453 22.7314 41.6305 22.9324C42.1157 23.1334 42.5566 23.428 42.928 23.7994C43.2994 24.1708 43.594 24.6117 43.795 25.0969C43.9959 25.5821 44.0994 26.1022 44.0994 26.6274C44.0994 27.1526 43.9959 27.6727 43.795 28.1579C43.594 28.6431 43.2994 29.084 42.928 29.4554C41.068 31.3194 40 33.8954 40 36.5274C40 39.1594 41.068 41.7354 42.928 43.5994C43.4892 44.1581 43.8718 44.8708 44.0271 45.6473C44.1825 46.4238 44.1037 47.2289 43.8007 47.9605C43.4977 48.6921 42.9842 49.3172 42.3253 49.7564C41.6664 50.1956 40.8919 50.4291 40.1 50.4274Z" fill="#FF7E00"/>
<path d="M28.784 61.7393C28.2587 61.7398 27.7384 61.6366 27.2531 61.4355C26.7677 61.2343 26.327 60.9393 25.956 60.5673C19.628 54.2393 16 45.4753 16 36.5273C16 27.5793 19.628 18.8153 25.956 12.4873C26.3274 12.1159 26.7683 11.8213 27.2535 11.6204C27.7387 11.4194 28.2588 11.3159 28.784 11.3159C29.3092 11.3159 29.8293 11.4194 30.3145 11.6204C30.7997 11.8213 31.2406 12.1159 31.612 12.4873C31.9834 12.8587 32.278 13.2996 32.479 13.7848C32.6799 14.27 32.7834 14.7901 32.7834 15.3153C32.7834 15.8405 32.6799 16.3606 32.479 16.8458C32.278 17.331 31.9834 17.7719 31.612 18.1433C26.772 22.9833 24 29.6833 24 36.5273C24 43.3713 26.772 50.0713 31.612 54.9113C32.1732 55.47 32.5558 56.1828 32.7111 56.9592C32.8665 57.7357 32.7877 58.5408 32.4847 59.2724C32.1817 60.004 31.6681 60.6291 31.0093 61.0683C30.3504 61.5075 29.5759 61.7411 28.784 61.7393Z" fill="#FF7E00"/>
<path d="M17.472 73.0554C16.9467 73.0559 16.4264 72.9527 15.9411 72.7515C15.4557 72.5504 15.015 72.2554 14.644 71.8834C5.336 62.5754 0 49.6874 0 36.5274C0 23.3674 5.336 10.4794 14.644 1.17139C15.0154 0.800016 15.4563 0.505424 15.9415 0.304436C16.4267 0.103447 16.9468 3.91311e-09 17.472 0C17.9972 -3.9131e-09 18.5173 0.103447 19.0025 0.304436C19.4877 0.505424 19.9286 0.800016 20.3 1.17139C20.6714 1.54277 20.966 1.98366 21.167 2.46889C21.3679 2.95412 21.4714 3.47419 21.4714 3.9994C21.4714 4.5246 21.3679 5.04467 21.167 5.5299C20.966 6.01513 20.6714 6.45602 20.3 6.82739C12.484 14.6474 8 25.4714 8 36.5274C8 47.5834 12.484 58.4074 20.3 66.2274C20.8612 66.786 21.2438 67.4988 21.3991 68.2753C21.5545 69.0518 21.4757 69.8569 21.1727 70.5885C20.8697 71.3201 20.3561 71.9452 19.6973 72.3844C19.0384 72.8236 18.2639 73.0571 17.472 73.0554Z" fill="#FF7E00"/>
<path d="M50 40.5276C52.2091 40.5276 54 38.7367 54 36.5276C54 34.3184 52.2091 32.5276 50 32.5276C47.7909 32.5276 46 34.3184 46 36.5276C46 38.7367 47.7909 40.5276 50 40.5276Z" fill="#FF7E00"/>
</svg>
