<svg width="50" height="47" viewBox="0 0 50 47" fill="none" xmlns="http://www.w3.org/2000/svg">
<path fill-rule="evenodd" clip-rule="evenodd" d="M40.8603 3.1568L37.5725 6.3136H19.4393C6.03712 6.3136 1.14145 6.47828 0.674766 6.94496C-0.224922 7.84465 -0.224922 35.2983 0.674766 36.198C1.11251 36.6357 3.85472 36.8293 9.61903 36.8293H17.9319V38.9339C17.9319 40.9937 17.892 41.0384 16.0668 41.0384C13.7881 41.0384 11.4616 43.0835 11.7146 44.8639L11.8814 46.0367H24.2455H36.6097L36.7765 44.8639C37.0295 43.0835 34.703 41.0384 32.4243 41.0384C30.5991 41.0384 30.5591 40.9937 30.5591 38.9339V36.8293H38.872C44.6364 36.8293 47.3786 36.6357 47.8163 36.198C48.2746 35.7397 48.4524 31.7416 48.4645 21.5978C48.4782 10.1491 48.6202 7.44479 49.2537 6.60771C51.2004 4.03334 49.0896 0 45.7954 0C44.4975 0 43.4494 0.670294 40.8603 3.1568ZM39.0878 8.04458L33.1646 13.9846L34.6425 15.4004L36.1204 16.8163L42.021 10.8994C45.2661 7.64472 47.9215 4.6184 47.9215 4.17434C47.9215 3.13207 46.8856 2.10453 45.8349 2.10453C45.3814 2.10453 42.3451 4.77729 39.0878 8.04458ZM2.14794 19.4669V30.5157H24.2455H46.3431L46.3384 20.1246L46.3331 9.73347L39.1041 17.1256C35.1276 21.1911 31.3762 25.1387 30.767 25.8973C29.0507 28.035 26.4016 28.4496 15.4644 28.2912C7.08202 28.1702 5.56781 28.0276 5.56781 27.3589C5.56781 26.6986 6.86736 26.5461 13.5256 26.425L21.4828 26.2798L21.8269 23.6849C22.1715 21.0879 24.1919 17.8885 25.4872 17.8885C25.8292 17.8885 28.2299 15.7577 30.8222 13.1533L35.5353 8.41813H18.8416H2.14794V19.4669ZM30.2877 16.8447L28.7629 18.4362L30.1882 19.8615L31.613 21.2863L33.2024 19.6969L34.7919 18.1079L33.3019 16.6805L31.8124 15.2537L30.2877 16.8447ZM24.4818 21.8177C24.0624 22.821 23.7194 24.2679 23.7194 25.0329C23.7194 26.3535 23.8194 26.4056 25.6924 26.0631C29.8525 25.3028 31.1205 23.3024 28.8155 21.1369C26.9651 19.3991 25.3888 19.6463 24.4818 21.8177ZM2.14794 33.6725C2.14794 34.708 2.49887 34.7248 24.2455 34.7248C45.9922 34.7248 46.3431 34.708 46.3431 33.6725C46.3431 32.6371 45.9922 32.6203 24.2455 32.6203C2.49887 32.6203 2.14794 32.6371 2.14794 33.6725ZM20.0365 38.9339V41.0384H24.2455H28.4546V38.9339V36.8293H24.2455H20.0365V38.9339ZM14.5121 43.6691C14.2995 44.0126 17.6736 44.1952 24.2455 44.1952C30.8175 44.1952 34.1916 44.0126 33.979 43.6691C33.7817 43.3502 29.9504 43.1429 24.2455 43.1429C18.5407 43.1429 14.7094 43.3502 14.5121 43.6691Z" fill="#37474F"/>
</svg>
