<svg width="828" height="649" viewBox="0 0 828 649" fill="none" xmlns="http://www.w3.org/2000/svg">
<path d="M790.836 339.978C854.828 428.19 1035.59 512.368 973.04 601.015C917.229 680.111 716.351 638.165 582.19 635.682C486.666 633.913 403.56 603.651 310.804 588.755C219.938 574.161 127.454 574.596 42.5693 549.017C-77.5829 512.81 -231.464 489.227 -282.471 409.977C-333.003 331.465 -271.223 238.37 -204.529 165.099C-143.142 97.6576 -48.6956 25.2211 71.9276 20.6304C197.779 15.8407 265.317 145.981 391.266 142.424C513.902 138.96 567.039 -25.5412 681.367 3.41751C787.249 30.2367 672.992 147.639 696.437 219.722C711.047 264.638 760.7 298.436 790.836 339.978Z" fill="#FF7E00" fill-opacity="0.1"/>
</svg>
