<svg width="100" height="100" viewBox="0 0 100 100" fill="none" xmlns="http://www.w3.org/2000/svg">
<path d="M90.625 59.375H9.375C8.5462 59.375 7.75134 59.0458 7.16529 58.4597C6.57924 57.8737 6.25 57.0788 6.25 56.25C6.25 55.4212 6.57924 54.6263 7.16529 54.0403C7.75134 53.4542 8.5462 53.125 9.375 53.125H90.625C91.4538 53.125 92.2487 53.4542 92.8347 54.0403C93.4208 54.6263 93.75 55.4212 93.75 56.25C93.75 57.0788 93.4208 57.8737 92.8347 58.4597C92.2487 59.0458 91.4538 59.375 90.625 59.375Z" fill="#FEA249"/>
<path d="M90.625 12.5H9.375C8.5462 12.5 7.75134 12.8292 7.16529 13.4153C6.57924 14.0013 6.25 14.7962 6.25 15.625V65.625C6.25 66.4538 6.57924 67.2487 7.16529 67.8347C7.75134 68.4208 8.5462 68.75 9.375 68.75H40.625V76.5625L29.375 85C28.8503 85.3935 28.4627 85.9422 28.2671 86.5682C28.0716 87.1943 28.078 87.866 28.2854 88.4882C28.4928 89.1104 28.8907 89.6516 29.4228 90.0351C29.9549 90.4186 30.5941 90.625 31.25 90.625H68.75C69.4059 90.625 70.0451 90.4186 70.5772 90.0351C71.1093 89.6516 71.5072 89.1104 71.7146 88.4882C71.922 87.866 71.9284 87.1943 71.7329 86.5682C71.5373 85.9422 71.1497 85.3935 70.625 85L59.375 76.5625V68.75H90.625C91.4538 68.75 92.2487 68.4208 92.8347 67.8347C93.4208 67.2487 93.75 66.4538 93.75 65.625V15.625C93.75 14.7962 93.4208 14.0013 92.8347 13.4153C92.2487 12.8292 91.4538 12.5 90.625 12.5ZM40.625 84.375L44.7812 81.25H55.2188L59.375 84.375H40.625ZM53.125 75H46.875V68.75H53.125V75ZM87.5 62.5H12.5V18.75H87.5V62.5Z" fill="#37474F"/>
</svg>
