<svg width="48" height="33" viewBox="0 0 48 33" fill="none" xmlns="http://www.w3.org/2000/svg">
<path d="M47.9745 3.375C48.0216 3.08431 47.9812 2.78615 47.8582 2.51855C47.4802 0.85725 46.2795 0 44.25 0H5.25C3.465 0 1.54195 0.65625 0.59625 1.944C0.514453 2.00625 0.436453 2.07675 0.366 2.1585C0.0637031 2.50725 -0.0420469 2.9558 0.0255 3.3788C0.012 3.5003 0 3.62255 0 3.75005V27.75C0 30.2355 2.76525 33 5.25 33H44.25C46.7355 33 48 30.2355 48 27.75V3.75005C48 3.6173 47.9827 3.501 47.9745 3.375ZM5.24981 3L44.2499 2.99995H44.2701L23.9999 19.1557L3.81136 3.06595C4.27036 2.9812 4.83516 3 5.24981 3ZM44.2499 30H5.24991C4.42266 30 2.99991 28.578 2.99991 27.75V6.2602L23.0174 22.275C23.2994 22.5187 23.6496 22.6402 23.9999 22.6402C24.3608 22.6406 24.7099 22.5109 24.9831 22.275L44.9999 6.26095V27.75C44.9999 28.578 45.0779 30 44.2499 30Z" fill="url(#paint0_linear_9_5)"/>
<defs>
<linearGradient id="paint0_linear_9_5" x1="24" y1="0" x2="24" y2="33" gradientUnits="userSpaceOnUse">
<stop stop-color="#FF7E00"/>
<stop offset="1" stop-color="#FF7E00" stop-opacity="0.49"/>
</linearGradient>
</defs>
</svg>
