<svg width="700" height="700" viewBox="0 0 700 700" fill="none" xmlns="http://www.w3.org/2000/svg">
<path d="M350 655.606C519.593 655.606 657.076 576.228 657.076 478.31C657.076 380.392 519.593 301.014 350 301.014C180.406 301.014 42.9238 380.392 42.9238 478.31C42.9238 576.228 180.406 655.606 350 655.606Z" fill="#EBEBEB"/>
<path d="M132.86 352.954C78.3997 384.398 48.6777 424.704 43.6797 465.836L371.616 655.2C442.848 652.316 512.68 635.152 567.14 603.708C630 567.406 659.848 519.4 656.852 471.8L361.2 301.154C278.95 299.418 195.678 316.68 132.86 352.954Z" fill="#F5F5F5"/>
<path opacity="0.02" d="M163.716 559.734L507.878 361.312C521.276 353.598 523.166 342.146 512.078 335.762C500.99 329.378 481.18 330.456 467.782 338.184L123.9 536.732C110.502 544.46 108.5 555.884 119.56 562.226C130.62 568.568 150.318 567.462 163.716 559.734Z" fill="black"/>
<path d="M444.206 576.59C443.646 570.234 438.256 565.488 433.006 561.834C397.81 537.292 332.318 525.868 320.726 524.65C309.134 523.432 290.682 523.446 280.98 527.17C277.027 528.98 273.714 531.942 271.474 535.668C268.492 541.268 268.674 548.968 273.182 553.364C281.582 561.47 296.506 564.9 307.874 567.574C319.242 570.248 330.918 571.564 342.104 574.882C357.336 579.404 371.238 587.482 386.204 592.844C401.17 598.206 418.404 600.39 432.53 593.18C438.942 589.918 444.822 583.8 444.206 576.59Z" fill="#EBEBEB"/>
<path d="M142.884 53.0458L129.864 60.5638C129.864 59.9758 129.976 59.4018 129.976 58.8418V55.0618C129.976 48.3558 125.258 45.6398 119.448 48.9858C116.947 50.5211 114.807 52.5796 113.176 55.0198C112.224 46.6198 105.602 43.4418 97.552 48.0198C88.858 53.0458 81.816 65.2538 81.816 75.2918V80.8918C81.7778 83.1494 82.2566 85.3859 83.216 87.4298L72.338 93.7998C70.6366 94.9082 69.2211 96.4026 68.2066 98.1616C67.1921 99.9205 66.6074 101.894 66.5 103.922C66.5 107.632 69.104 109.144 72.338 107.282L142.884 66.5558C144.583 65.4481 145.997 63.9556 147.011 62.1995C148.025 60.4433 148.611 58.4728 148.722 56.4478C148.722 52.6958 146.104 51.1838 142.884 53.0458Z" fill="#EBEBEB"/>
<path d="M222.278 80.4021L212.478 86.0021C212.534 85.5703 212.562 85.1354 212.562 84.7001V81.9001C212.562 76.8321 209.006 74.7741 204.624 77.3081C202.74 78.4698 201.126 80.0212 199.892 81.8581C199.178 75.5021 194.18 73.1221 188.104 76.6221C181.538 80.4161 176.218 89.6281 176.218 97.2161V101.416C176.176 103.114 176.521 104.799 177.226 106.344L169.064 111.062C167.779 111.896 166.71 113.022 165.944 114.348C165.178 115.674 164.735 117.163 164.654 118.692C164.654 121.492 166.628 122.64 169.064 121.226L222.264 90.4261C223.544 89.5869 224.609 88.4597 225.375 87.1348C226.141 85.8098 226.586 84.3239 226.674 82.7961C226.688 80.1361 224.714 79.0021 222.278 80.4021Z" fill="#EBEBEB"/>
<path d="M133.588 517.244C133.588 517.244 138.012 495.6 132.916 476C127.82 456.4 116.83 441.63 103.852 436.24C90.8743 430.85 76.1183 439.6 87.6263 452.648C99.1343 465.696 121.66 482.552 123.06 517.818L133.588 517.244Z" fill="#FF7E00"/>
<path opacity="0.15" d="M133.588 517.244C133.588 517.244 138.012 495.6 132.916 476C127.82 456.4 116.83 441.63 103.852 436.24C90.8743 430.85 76.1183 439.6 87.6263 452.648C99.1343 465.696 121.66 482.552 123.06 517.818L133.588 517.244Z" fill="black"/>
<path d="M131.446 510.552H131.6C131.699 510.547 131.796 510.522 131.885 510.479C131.974 510.435 132.053 510.375 132.118 510.301C132.183 510.226 132.233 510.14 132.264 510.046C132.296 509.952 132.308 509.853 132.3 509.754C129.5 470.554 107.478 447.384 96.1941 440.608C96.1106 440.557 96.0178 440.523 95.9211 440.509C95.8244 440.494 95.7257 440.498 95.6307 440.522C95.5357 440.545 95.4463 440.587 95.3676 440.645C95.2889 440.703 95.2225 440.776 95.1721 440.86C95.1213 440.944 95.0874 441.037 95.0726 441.133C95.0577 441.23 95.0621 441.329 95.0855 441.424C95.109 441.519 95.1509 441.608 95.209 441.687C95.2672 441.765 95.3403 441.832 95.4241 441.882C106.47 448.532 128.072 471.282 130.802 509.866C130.816 510.036 130.887 510.197 131.004 510.322C131.121 510.446 131.277 510.527 131.446 510.552Z" fill="white"/>
<path d="M68.9641 483C67.5641 487.368 70.6301 490.406 73.5701 492.87C75.8241 494.746 78.3021 496.804 78.9181 499.688C80.1641 505.512 73.3181 510.888 74.7181 516.656C75.1199 517.843 75.759 518.935 76.5966 519.867C77.4342 520.798 78.4528 521.549 79.5901 522.074C81.4833 522.966 83.4228 523.756 85.4001 524.44C86.3187 524.725 87.2538 524.955 88.2001 525.126C91.1209 525.407 93.8695 526.637 96.0261 528.626C99.2041 532.084 98.8261 537.39 99.9461 541.954V542.108C100.53 544.317 101.645 546.35 103.195 548.029C104.744 549.708 106.682 550.982 108.837 551.74C110.993 552.498 113.301 552.717 115.56 552.378C117.82 552.039 119.962 551.152 121.8 549.794L137.886 538.342C144.256 529.76 142.646 514.388 132.426 509.376C130.256 508.312 127.778 507.682 126.056 505.988C123.956 503.944 123.438 500.794 123.256 497.868C123.074 494.942 123.256 491.89 122.066 489.216C120.4 485.478 116.466 483.21 112.406 482.51C107.702 481.698 102.998 483.616 98.5321 481.992C94.0661 480.368 89.9361 477.792 85.3161 476.574C80.2341 475.314 74.4101 475.986 70.6301 480.088C69.8649 480.923 69.2957 481.918 68.9641 483Z" fill="#FF7E00"/>
<path d="M116.088 508.662C116.047 508.554 115.974 508.461 115.878 508.396C103.922 491.4 85.1622 483.406 78.8342 481.992C78.7486 481.971 78.6598 481.968 78.573 481.982C78.4861 481.997 78.4031 482.028 78.3287 482.075C78.2543 482.122 78.19 482.184 78.1398 482.256C78.0896 482.328 78.0543 482.41 78.0362 482.496C78.0157 482.581 78.0125 482.669 78.027 482.755C78.0415 482.84 78.0732 482.923 78.1203 482.996C78.1675 483.069 78.229 483.132 78.3011 483.181C78.3733 483.23 78.4546 483.263 78.5402 483.28C84.5462 484.68 101.962 492.058 113.68 507.612C108.905 506.002 103.848 505.396 98.8275 505.832C93.8069 506.268 88.9305 507.737 84.5042 510.146C84.3565 510.243 84.2531 510.395 84.2165 510.568C84.1798 510.741 84.2127 510.921 84.3082 511.07C84.3676 511.158 84.4464 511.232 84.5386 511.285C84.6307 511.339 84.7339 511.37 84.8402 511.378C84.974 511.375 85.1046 511.337 85.2182 511.266C89.7555 508.806 94.7763 507.37 99.928 507.058C105.08 506.746 110.237 507.566 115.038 509.46C122.023 519.459 125.525 531.476 125.006 543.662C124.998 543.828 125.055 543.991 125.165 544.116C125.274 544.242 125.428 544.32 125.594 544.334C125.682 544.338 125.769 544.324 125.851 544.293C125.934 544.263 126.009 544.216 126.073 544.156C126.137 544.096 126.188 544.024 126.223 543.944C126.259 543.864 126.278 543.778 126.28 543.69C126.828 531.211 123.246 518.899 116.088 508.662Z" fill="white"/>
<path d="M515.774 344.61V93.618C515.772 89.6875 514.737 85.8266 512.771 82.4231C510.805 79.0196 507.978 76.1933 504.574 74.228L447.706 41.398C444.301 39.432 440.438 38.397 436.506 38.397C432.574 38.397 428.711 39.432 425.306 41.398L186.466 179.298C183.06 181.261 180.231 184.085 178.262 187.488L121.394 285.992C119.43 289.398 118.396 293.26 118.398 297.192V548.17C118.398 551.488 120.582 554.792 124.95 557.312C133.7 562.366 147.882 562.366 156.632 557.312C161.014 554.792 163.198 551.488 163.198 548.17V303.17L214.06 215.068L436.506 86.66L470.974 106.554V344.554C470.974 347.872 473.158 351.19 477.54 353.71C486.29 358.764 500.472 358.764 509.222 353.71C513.604 351.176 515.788 347.872 515.774 344.554V344.61Z" fill="#455A64"/>
<path d="M163.198 303.198C163.198 303.198 156.058 293.398 134.694 291.368C134.694 291.368 149.898 287.168 166.614 297.276L163.198 303.198Z" fill="#37474F"/>
<path d="M214.06 215.096C214.06 215.096 215.852 203.336 203 193.34C203 193.34 214.816 196.91 218.806 212.352L214.06 215.096Z" fill="#37474F"/>
<path d="M436.506 86.6598C440.706 82.3758 444.164 71.3858 443.296 61.5298C443.296 61.5298 448.266 71.8898 440.972 89.2358L436.506 86.6598Z" fill="#37474F"/>
<path d="M470.974 106.554C482.454 107.016 493.766 102.718 499.086 95.0181C499.086 95.0181 494.578 110.544 470.974 112.098V106.554Z" fill="#37474F"/>
<path d="M386.106 115.752V78.1758C386.106 76.2438 384.706 75.4598 383.082 76.4258L241.276 158.284C240.396 158.861 239.664 159.637 239.139 160.549C238.613 161.461 238.31 162.483 238.252 163.534V201.124L386.106 115.752Z" fill="#37474F"/>
<path d="M388.92 69.6496C388.575 69.4884 388.193 69.4228 387.813 69.4597C387.434 69.4967 387.072 69.6348 386.764 69.8596L245 151.718C244.116 152.292 243.38 153.066 242.852 153.979C242.324 154.891 242.019 155.915 241.962 156.968V209.076C241.922 209.453 241.984 209.833 242.142 210.178C242.299 210.523 242.547 210.819 242.858 211.036L248.542 214.312C248.885 214.473 249.265 214.539 249.642 214.502C250.019 214.465 250.379 214.327 250.684 214.102L392.448 132.23C393.332 131.656 394.068 130.881 394.596 129.969C395.124 129.056 395.429 128.032 395.486 126.98V74.8856C395.526 74.5051 395.462 74.121 395.302 73.7736C395.142 73.4263 394.891 73.1285 394.576 72.9116L388.92 69.6496Z" fill="#FF7E00"/>
<path d="M250.6 155.008L392.448 73.1357C394.128 72.1697 395.486 72.9537 395.486 74.8857V126.98C395.429 128.032 395.124 129.056 394.596 129.969C394.068 130.881 393.332 131.656 392.448 132.23L250.6 214.102C248.92 215.068 247.562 214.284 247.562 212.352V160.258C247.619 159.205 247.924 158.181 248.452 157.269C248.98 156.356 249.716 155.582 250.6 155.008Z" fill="#FF7E00"/>
<path opacity="0.15" d="M247.618 212.351C247.59 212.693 247.64 213.037 247.764 213.357C247.887 213.677 248.082 213.965 248.332 214.199L242.816 211.021C242.507 210.803 242.262 210.507 242.107 210.162C241.952 209.817 241.892 209.437 241.934 209.061V156.967C241.968 155.912 242.277 154.885 242.83 153.985L248.514 157.261C247.961 158.166 247.652 159.198 247.618 160.257V212.351Z" fill="black"/>
<path opacity="0.4" d="M388.92 69.6498L394.422 72.7998C394.091 72.6991 393.742 72.6745 393.4 72.7278C393.058 72.7812 392.733 72.9111 392.448 73.1078L250.6 155.008C249.705 155.564 248.968 156.34 248.458 157.262L242.83 154C243.339 153.074 244.076 152.293 244.972 151.732L386.764 69.8458C387.074 69.6259 387.437 69.492 387.816 69.4576C388.194 69.4232 388.575 69.4895 388.92 69.6498Z" fill="white"/>
<path d="M287.098 147.518C287.176 147.445 287.278 147.404 287.385 147.404C287.492 147.404 287.594 147.445 287.672 147.518C287.844 147.725 287.929 147.991 287.91 148.26V153.174C287.905 153.527 287.823 153.876 287.672 154.196C287.554 154.48 287.354 154.724 287.098 154.896L278.096 160.09V166.432L286.496 161.588C286.577 161.52 286.678 161.484 286.783 161.484C286.888 161.484 286.989 161.52 287.07 161.588C287.157 161.689 287.223 161.807 287.264 161.935C287.304 162.062 287.32 162.196 287.308 162.33V167.23C287.304 167.584 287.223 167.932 287.07 168.252C286.952 168.536 286.752 168.78 286.496 168.952L278.096 173.796V183.806C278.098 184.156 278.016 184.501 277.858 184.814C277.744 185.105 277.544 185.354 277.284 185.528L273.35 187.796C273.269 187.863 273.168 187.9 273.063 187.9C272.958 187.9 272.857 187.863 272.776 187.796C272.602 187.589 272.516 187.323 272.538 187.054V157.164C272.545 156.81 272.626 156.462 272.776 156.142C272.898 155.859 273.097 155.617 273.35 155.442L287.098 147.518Z" fill="#FAFAFA"/>
<path d="M291.914 177.155C291.835 177.225 291.733 177.264 291.627 177.264C291.521 177.264 291.419 177.225 291.34 177.155C291.251 177.055 291.184 176.937 291.143 176.809C291.102 176.682 291.088 176.547 291.102 176.413V146.453C291.1 146.099 291.182 145.749 291.34 145.431C291.454 145.144 291.654 144.899 291.914 144.731L295.848 142.463C295.929 142.396 296.03 142.359 296.135 142.359C296.24 142.359 296.341 142.396 296.422 142.463C296.594 142.671 296.679 142.937 296.66 143.205V173.123C296.656 173.477 296.575 173.826 296.422 174.145C296.304 174.43 296.104 174.674 295.848 174.845L291.914 177.155Z" fill="#FAFAFA"/>
<path d="M314.566 164.08C314.442 164.164 314.296 164.21 314.146 164.21C313.996 164.21 313.85 164.164 313.726 164.08C313.563 163.97 313.424 163.827 313.32 163.66L306.432 151.802V167.454C306.434 167.808 306.352 168.158 306.194 168.476C306.08 168.763 305.88 169.008 305.62 169.176L301.686 171.444C301.608 171.516 301.506 171.557 301.399 171.557C301.292 171.557 301.19 171.516 301.112 171.444C300.938 171.237 300.852 170.971 300.874 170.702V140.812C300.879 140.458 300.961 140.109 301.112 139.79C301.226 139.502 301.426 139.257 301.686 139.09L304.808 137.284C305.158 137.088 305.424 137.06 305.634 137.284C305.796 137.389 305.934 137.528 306.04 137.69L312.928 149.548V133.84C312.932 133.488 313.018 133.143 313.18 132.832C313.289 132.546 313.485 132.301 313.74 132.132L317.688 129.85C317.768 129.782 317.87 129.746 317.975 129.746C318.08 129.746 318.181 129.782 318.262 129.85C318.436 130.056 318.522 130.323 318.5 130.592V160.51C318.493 160.863 318.412 161.211 318.262 161.532C318.14 161.814 317.941 162.056 317.688 162.232L314.566 164.08Z" fill="#FAFAFA"/>
<path d="M323.526 158.9C323.447 158.97 323.344 159.008 323.239 159.008C323.133 159.008 323.031 158.97 322.952 158.9C322.863 158.8 322.796 158.682 322.755 158.554C322.714 158.426 322.7 158.291 322.714 158.158V128.198C322.714 127.844 322.795 127.494 322.952 127.176C323.066 126.889 323.266 126.644 323.526 126.476L327.46 124.208C327.54 124.141 327.642 124.104 327.747 124.104C327.852 124.104 327.953 124.141 328.034 124.208C328.121 124.31 328.187 124.428 328.227 124.555C328.268 124.682 328.283 124.817 328.272 124.95V154.868C328.267 155.217 328.185 155.561 328.034 155.876C327.92 156.163 327.719 156.408 327.46 156.576L323.526 158.9Z" fill="#FAFAFA"/>
<path d="M340.312 116.326C341.375 115.652 342.586 115.248 343.84 115.15C344.811 115.067 345.785 115.272 346.64 115.738C347.409 116.175 348.04 116.821 348.46 117.6C348.901 118.433 349.136 119.359 349.146 120.302C349.15 120.589 349.082 120.873 348.95 121.128C348.867 121.355 348.716 121.551 348.516 121.688L344.582 123.956C344.383 124.1 344.142 124.174 343.896 124.166C343.705 124.126 343.527 124.039 343.378 123.914C343.308 123.914 343.224 123.76 343.084 123.62C342.934 123.459 342.746 123.339 342.538 123.27C342.236 123.167 341.914 123.143 341.6 123.2C341.133 123.281 340.686 123.452 340.284 123.704C339.896 123.927 339.526 124.179 339.178 124.46C338.84 124.731 338.53 125.036 338.254 125.37C337.972 125.695 337.745 126.064 337.582 126.462C337.413 126.88 337.327 127.327 337.33 127.778C337.301 128.132 337.401 128.485 337.61 128.772C337.884 128.987 338.229 129.091 338.576 129.066C339.182 129.046 339.783 128.957 340.368 128.8L343.168 128.086C344.103 127.805 345.077 127.677 346.052 127.708C346.806 127.732 347.531 128.008 348.11 128.492C348.719 129.037 349.149 129.755 349.342 130.55C349.648 131.705 349.784 132.898 349.748 134.092C349.752 135.657 349.521 137.215 349.062 138.712C348.599 140.217 347.945 141.657 347.116 142.996C346.296 144.356 345.308 145.607 344.176 146.72C343.057 147.805 341.806 148.746 340.452 149.52C339.321 150.223 338.05 150.672 336.728 150.836C335.731 150.955 334.72 150.769 333.83 150.304C333.004 149.857 332.335 149.168 331.912 148.33C331.432 147.385 331.187 146.338 331.198 145.278C331.197 144.992 331.259 144.71 331.38 144.452C331.473 144.226 331.628 144.032 331.828 143.892L335.762 141.624C335.955 141.486 336.184 141.408 336.42 141.4C336.6 141.421 336.77 141.494 336.91 141.61L337.274 142.002C337.45 142.207 337.67 142.37 337.918 142.478C338.237 142.626 338.589 142.689 338.94 142.66C339.479 142.587 339.996 142.396 340.452 142.1C341.443 141.554 342.341 140.855 343.112 140.028C343.791 139.358 344.178 138.447 344.19 137.494C344.211 137.319 344.186 137.142 344.117 136.98C344.048 136.817 343.938 136.676 343.798 136.57C343.435 136.387 343.023 136.323 342.622 136.388C341.944 136.457 341.274 136.588 340.62 136.78C339.808 137.004 338.856 137.242 337.75 137.508C335.678 138.026 334.18 137.76 333.228 136.724C332.276 135.688 331.828 133.826 331.828 131.124C331.828 129.704 332.021 128.291 332.402 126.924C332.805 125.462 333.378 124.052 334.11 122.724C334.851 121.369 335.754 120.109 336.798 118.972C337.83 117.919 339.015 117.027 340.312 116.326Z" fill="#FAFAFA"/>
<path d="M369.754 99.792C369.834 99.7248 369.936 99.688 370.041 99.688C370.146 99.688 370.247 99.7248 370.328 99.792C370.415 99.8937 370.481 100.012 370.521 100.139C370.562 100.266 370.577 100.401 370.566 100.534V130.48C370.562 130.834 370.481 131.183 370.328 131.502C370.214 131.789 370.013 132.034 369.754 132.202L365.82 134.484C365.741 134.554 365.639 134.592 365.533 134.592C365.427 134.592 365.325 134.554 365.246 134.484C365.157 134.384 365.09 134.266 365.049 134.138C365.008 134.01 364.994 133.875 365.008 133.742V122.346L358.4 126.21V137.55C358.398 137.906 358.311 138.256 358.148 138.572C358.034 138.859 357.833 139.104 357.574 139.272L353.64 141.554C353.558 141.619 353.457 141.654 353.353 141.654C353.249 141.654 353.147 141.619 353.066 141.554C352.976 141.451 352.908 141.331 352.867 141.201C352.826 141.071 352.813 140.934 352.828 140.798V110.852C352.833 110.498 352.914 110.15 353.066 109.83C353.184 109.545 353.384 109.302 353.64 109.13L357.574 106.862C357.653 106.792 357.755 106.754 357.861 106.754C357.967 106.754 358.069 106.792 358.148 106.862C358.238 106.962 358.307 107.08 358.35 107.207C358.393 107.335 358.41 107.47 358.4 107.604V118.804L365.078 114.94V103.74C365.078 103.386 365.159 103.036 365.316 102.718C365.43 102.431 365.63 102.186 365.89 102.018L369.754 99.792Z" fill="#FAFAFA"/>
<path d="M353.472 162.4C353.129 162.232 352.747 162.162 352.366 162.196C351.986 162.231 351.623 162.369 351.316 162.596L293.118 196.196C292.236 196.77 291.502 197.546 290.976 198.458C290.451 199.37 290.148 200.394 290.094 201.446V227.29C290.056 227.669 290.118 228.051 290.276 228.397C290.433 228.744 290.68 229.043 290.99 229.264L296.674 232.54C297.017 232.698 297.397 232.762 297.773 232.725C298.15 232.688 298.51 232.552 298.816 232.33L357.014 198.73C357.898 198.156 358.634 197.381 359.162 196.469C359.69 195.556 359.995 194.532 360.052 193.48V167.58C360.093 167.199 360.03 166.814 359.87 166.467C359.71 166.119 359.458 165.821 359.142 165.606L353.472 162.4Z" fill="#455A64"/>
<path d="M295.778 230.552C295.749 230.892 295.797 231.235 295.918 231.555C296.039 231.875 296.23 232.164 296.478 232.4L290.976 229.222C290.664 229.006 290.415 228.71 290.257 228.365C290.1 228.02 290.038 227.639 290.08 227.262V201.418C290.115 200.363 290.423 199.335 290.976 198.436L296.66 201.712C296.118 202.62 295.814 203.65 295.778 204.708V230.552Z" fill="#263238"/>
<path d="M353.472 162.399L358.974 165.577C358.643 165.477 358.294 165.452 357.952 165.505C357.61 165.559 357.285 165.689 357 165.885L298.802 199.485C297.914 200.049 297.178 200.823 296.66 201.739L290.976 198.463C291.486 197.533 292.229 196.752 293.132 196.195L351.316 162.595C351.626 162.375 351.989 162.242 352.368 162.207C352.746 162.173 353.127 162.239 353.472 162.399Z" fill="#37474F"/>
<path d="M305.2 203C305.679 202.697 306.22 202.506 306.782 202.44C307.155 202.379 307.538 202.453 307.86 202.65C308.143 202.851 308.369 203.12 308.518 203.434C308.688 203.739 308.806 204.07 308.868 204.414C308.924 204.728 308.952 205.047 308.952 205.366V213.402C308.949 213.753 308.921 214.104 308.868 214.452C308.795 214.928 308.677 215.397 308.518 215.852C308.351 216.386 308.13 216.902 307.86 217.392C307.232 218.522 306.314 219.465 305.2 220.122C304.834 220.34 304.438 220.505 304.024 220.612C303.725 220.686 303.413 220.686 303.114 220.612C302.863 220.578 302.626 220.476 302.428 220.318C302.237 220.167 302.076 219.981 301.952 219.772C301.835 219.552 301.737 219.322 301.658 219.086C301.591 218.847 301.54 218.603 301.504 218.358C301.491 218.139 301.491 217.919 301.504 217.7V209.664C301.491 209.426 301.491 209.187 301.504 208.95C301.504 208.684 301.588 208.39 301.658 208.04C301.728 207.69 301.84 207.354 301.952 207.004C302.092 206.632 302.25 206.267 302.428 205.912C302.622 205.531 302.852 205.17 303.114 204.834C303.386 204.47 303.691 204.133 304.024 203.826C304.387 203.511 304.781 203.234 305.2 203ZM305.2 219.212C305.518 219.017 305.806 218.776 306.054 218.498C306.288 218.231 306.486 217.934 306.642 217.616C306.784 217.308 306.901 216.99 306.992 216.664C307.08 216.371 307.141 216.071 307.174 215.768C307.194 215.521 307.194 215.273 307.174 215.026V205.8C307.196 205.572 307.196 205.342 307.174 205.114C307.145 204.878 307.084 204.647 306.992 204.428C306.911 204.222 306.787 204.036 306.628 203.882C306.468 203.747 306.263 203.677 306.054 203.686C305.751 203.699 305.457 203.791 305.2 203.952C304.878 204.134 304.592 204.377 304.36 204.666C304.124 204.925 303.925 205.218 303.772 205.534C303.627 205.84 303.509 206.158 303.422 206.486C303.335 206.783 303.274 207.088 303.24 207.396C303.22 207.643 303.22 207.891 303.24 208.138V217.42C303.219 217.648 303.219 217.878 303.24 218.106C303.266 218.342 303.327 218.573 303.422 218.792C303.497 218.997 303.616 219.184 303.772 219.338C303.937 219.475 304.146 219.549 304.36 219.548C304.66 219.532 304.951 219.435 305.2 219.268V219.212Z" fill="#FF7E00"/>
<path d="M310.8 200.774L313.698 198.226V215.026L311.962 216.034V201.768C311.983 201.55 311.939 201.331 311.836 201.138C311.752 201.04 311.64 201.026 311.486 201.138L310.8 201.6V200.774Z" fill="#FF7E00"/>
<path d="M317.366 200.494V202.272C317.375 202.365 317.375 202.458 317.366 202.552C317.347 202.622 317.308 202.685 317.254 202.734C317.168 202.833 317.064 202.914 316.946 202.972L316.092 203.476C315.896 203.588 315.784 203.616 315.728 203.588C315.672 203.56 315.728 203.448 315.728 203.28V201.32C315.728 201.32 315.728 201.236 315.728 201.166C315.757 201.093 315.806 201.031 315.868 200.984C315.945 200.914 316.03 200.853 316.12 200.802L316.974 200.312C317.184 200.2 317.296 200.158 317.352 200.2C317.408 200.242 317.366 200.34 317.366 200.494ZM317.366 211.134V212.912C317.375 213.005 317.375 213.098 317.366 213.192C317.347 213.262 317.308 213.325 317.254 213.374C317.168 213.473 317.064 213.554 316.946 213.612L316.092 214.116C315.896 214.228 315.784 214.256 315.728 214.228C315.672 214.2 315.728 214.088 315.728 213.92V211.96C315.728 211.96 315.728 211.876 315.728 211.806C315.761 211.735 315.809 211.673 315.868 211.624C315.945 211.554 316.03 211.493 316.12 211.442L316.974 210.952C317.184 210.84 317.296 210.798 317.352 210.84C317.408 210.882 317.366 210.98 317.366 211.134Z" fill="#FF7E00"/>
<path d="M323.134 192.738C323.612 192.432 324.153 192.236 324.716 192.164C325.09 192.108 325.472 192.188 325.794 192.388C326.073 192.587 326.299 192.851 326.452 193.158C326.619 193.464 326.737 193.795 326.802 194.138C326.857 194.452 326.885 194.771 326.886 195.09V203.126C326.884 203.477 326.855 203.828 326.802 204.176C326.729 204.652 326.612 205.121 326.452 205.576C326.282 206.109 326.062 206.625 325.794 207.116C325.495 207.626 325.133 208.097 324.716 208.516C324.253 209.011 323.72 209.436 323.134 209.776C322.767 209.994 322.371 210.159 321.958 210.266C321.658 210.333 321.347 210.333 321.048 210.266C320.8 210.22 320.566 210.12 320.362 209.972C320.171 209.821 320.009 209.636 319.886 209.426C319.769 209.201 319.67 208.967 319.592 208.726C319.523 208.492 319.472 208.253 319.438 208.012C319.424 207.793 319.424 207.573 319.438 207.354V199.304C319.425 199.071 319.425 198.837 319.438 198.604C319.438 198.338 319.522 198.044 319.592 197.694C319.662 197.344 319.774 197.008 319.886 196.658C320.02 196.284 320.179 195.919 320.362 195.566C320.561 195.188 320.79 194.828 321.048 194.488C321.32 194.125 321.625 193.788 321.958 193.48C322.321 193.19 322.716 192.941 323.134 192.738ZM323.134 208.936C323.455 208.751 323.743 208.514 323.988 208.236C324.222 207.969 324.42 207.672 324.576 207.354C324.718 207.046 324.835 206.728 324.926 206.402C325.012 206.109 325.073 205.809 325.108 205.506C325.128 205.254 325.128 205.001 325.108 204.75V195.468C325.129 195.24 325.129 195.01 325.108 194.782C325.08 194.546 325.019 194.315 324.926 194.096C324.845 193.89 324.721 193.704 324.562 193.55C324.404 193.41 324.199 193.335 323.988 193.34C323.684 193.359 323.39 193.455 323.134 193.62C322.815 193.802 322.53 194.039 322.294 194.32C322.06 194.587 321.862 194.883 321.706 195.202C321.558 195.507 321.441 195.826 321.356 196.154C321.27 196.447 321.209 196.746 321.174 197.05C321.174 197.316 321.174 197.568 321.174 197.792V207.088C321.159 207.316 321.159 207.545 321.174 207.774C321.21 208.008 321.271 208.238 321.356 208.46C321.434 208.664 321.553 208.85 321.706 209.006C321.872 209.139 322.081 209.208 322.294 209.202C322.594 209.197 322.886 209.104 323.134 208.936Z" fill="#FF7E00"/>
<path d="M328.622 190.4L331.506 187.852V204.722L329.77 205.716V191.45C329.791 191.232 329.747 191.013 329.644 190.82C329.56 190.722 329.448 190.708 329.294 190.82C329.14 190.932 329.028 191.016 328.622 191.366V190.4Z" fill="#FF7E00"/>
<path d="M335.244 190.176V191.954C335.253 192.042 335.253 192.131 335.244 192.22C335.226 192.294 335.187 192.362 335.132 192.416C335.047 192.515 334.942 192.596 334.824 192.654L333.97 193.144C333.774 193.256 333.662 193.298 333.606 193.27C333.55 193.242 333.536 193.13 333.536 192.948V191.002C333.533 190.95 333.533 190.899 333.536 190.848C333.566 190.775 333.614 190.713 333.676 190.666C333.75 190.592 333.835 190.53 333.928 190.484L334.782 189.98C334.992 189.868 335.104 189.84 335.16 189.868C335.216 189.896 335.244 190.008 335.244 190.176ZM335.244 200.816V202.594C335.253 202.682 335.253 202.771 335.244 202.86C335.226 202.934 335.187 203.002 335.132 203.056C335.043 203.151 334.939 203.231 334.824 203.294L333.97 203.784C333.774 203.896 333.662 203.938 333.606 203.91C333.55 203.882 333.536 203.77 333.536 203.588V201.6C333.533 201.548 333.533 201.497 333.536 201.446C333.566 201.373 333.614 201.311 333.676 201.264C333.75 201.19 333.835 201.128 333.928 201.082L334.782 200.578C334.992 200.466 335.104 200.438 335.16 200.466C335.216 200.494 335.244 200.648 335.244 200.816Z" fill="#FF7E00"/>
<path d="M341.012 182.405C341.494 182.109 342.033 181.918 342.594 181.845C342.969 181.78 343.354 181.86 343.672 182.069C343.954 182.265 344.181 182.53 344.33 182.839C344.5 183.144 344.618 183.476 344.68 183.819C344.735 184.134 344.763 184.452 344.764 184.771V192.807C344.761 193.159 344.733 193.51 344.68 193.857C344.607 194.334 344.49 194.803 344.33 195.257C344.16 195.786 343.94 196.297 343.672 196.783C343.379 197.323 343.017 197.822 342.594 198.267C342.131 198.758 341.598 199.178 341.012 199.513C340.646 199.736 340.25 199.905 339.836 200.017C339.536 200.077 339.226 200.077 338.926 200.017C338.677 199.967 338.443 199.862 338.24 199.709C338.053 199.56 337.892 199.38 337.764 199.177C337.647 198.952 337.548 198.718 337.47 198.477C337.4 198.239 337.349 197.995 337.316 197.749C337.302 197.53 337.302 197.31 337.316 197.091V189.055C337.304 188.817 337.304 188.579 337.316 188.341C337.316 188.089 337.4 187.781 337.47 187.445C337.54 187.109 337.652 186.759 337.764 186.409C338.04 185.627 338.432 184.891 338.926 184.225C339.199 183.867 339.503 183.534 339.836 183.231C340.199 182.917 340.593 182.64 341.012 182.405ZM341.012 198.617C341.339 198.435 341.629 198.193 341.866 197.903C342.106 197.641 342.305 197.344 342.454 197.021C342.604 196.717 342.721 196.398 342.804 196.069C342.892 195.777 342.952 195.477 342.986 195.173C343.006 194.926 343.006 194.678 342.986 194.431V185.149C343.007 184.916 343.007 184.682 342.986 184.449C342.958 184.218 342.897 183.991 342.804 183.777C342.728 183.569 342.603 183.382 342.44 183.231C342.363 183.16 342.273 183.104 342.174 183.068C342.076 183.032 341.971 183.016 341.866 183.021C341.563 183.034 341.269 183.126 341.012 183.287C340.692 183.474 340.408 183.716 340.172 184.001C339.935 184.266 339.737 184.563 339.584 184.883C339.314 185.469 339.135 186.092 339.052 186.731C339.039 186.978 339.039 187.226 339.052 187.473V196.755C339.038 196.988 339.038 197.222 339.052 197.455C339.088 197.69 339.149 197.92 339.234 198.141C339.316 198.343 339.434 198.529 339.584 198.687C339.751 198.82 339.959 198.89 340.172 198.883C340.471 198.872 340.761 198.78 341.012 198.617Z" fill="#FF7E00"/>
<path d="M350.756 193.885C350.325 194.145 349.851 194.325 349.356 194.417C349.033 194.519 348.685 194.519 348.362 194.417C348.112 194.299 347.889 194.133 347.704 193.927C347.512 193.702 347.369 193.44 347.284 193.157C347.191 192.884 347.121 192.603 347.074 192.317C347.061 192.056 347.061 191.794 347.074 191.533V183.399C347.062 183.161 347.062 182.923 347.074 182.685C347.074 182.433 347.172 182.125 347.256 181.775C347.339 181.42 347.442 181.069 347.564 180.725C347.706 180.347 347.869 179.978 348.054 179.619C348.256 179.239 348.485 178.874 348.74 178.527C349.013 178.161 349.323 177.823 349.664 177.519C350.029 177.189 350.428 176.898 350.854 176.651L351.134 176.483C351.606 176.238 352.11 176.058 352.632 175.951C353.087 175.822 353.56 175.769 354.032 175.797L353.738 176.987L352.436 177.085C351.983 177.091 351.538 177.202 351.134 177.407C350.724 177.645 350.367 177.964 350.084 178.345C349.78 178.711 349.534 179.122 349.356 179.563C349.194 179.949 349.063 180.347 348.964 180.753C348.887 181.084 348.844 181.422 348.838 181.761V184.799L350.602 182.699C350.883 182.383 351.182 182.084 351.498 181.803C351.727 181.604 351.971 181.422 352.226 181.257C352.459 181.069 352.747 180.96 353.047 180.947C353.347 180.935 353.644 181.019 353.892 181.187C354.15 181.403 354.351 181.68 354.475 181.993C354.6 182.306 354.645 182.645 354.606 182.979V187.599C354.602 187.871 354.578 188.143 354.536 188.411C354.476 188.756 354.396 189.097 354.298 189.433C354.189 189.835 354.039 190.225 353.85 190.595C353.643 190.998 353.409 191.386 353.15 191.757C352.861 192.175 352.523 192.556 352.142 192.891C351.716 193.271 351.252 193.604 350.756 193.885ZM348.81 185.569V191.099C348.796 191.328 348.796 191.557 348.81 191.785C348.834 192.025 348.891 192.261 348.978 192.485C349.044 192.696 349.159 192.888 349.314 193.045C349.387 193.118 349.475 193.174 349.571 193.21C349.668 193.247 349.771 193.262 349.874 193.255C350.172 193.252 350.463 193.165 350.714 193.003C351.015 192.819 351.285 192.588 351.512 192.317C351.743 192.048 351.94 191.752 352.1 191.435C352.259 191.121 352.391 190.793 352.492 190.455C352.597 190.155 352.677 189.846 352.73 189.531C352.772 189.281 352.795 189.029 352.8 188.775V184.463C352.845 183.92 352.718 183.376 352.436 182.909C352.384 182.834 352.316 182.77 352.238 182.723C352.159 182.675 352.072 182.644 351.981 182.633C351.89 182.621 351.797 182.628 351.71 182.654C351.622 182.68 351.54 182.724 351.47 182.783C351.223 182.946 351.001 183.144 350.812 183.371L348.81 185.569Z" fill="#FF7E00"/>
<path d="M381.528 370.132C367.528 373.688 360.402 371.196 349.496 367.906C346.92 389.788 342.104 421.736 337.736 449.19C329.126 447.314 323.414 448.266 315.462 449.96C311.78 450.758 307.062 451.92 303.282 452.438C299.502 452.956 293.832 454.3 291.564 453.376C288.764 452.214 287.182 450.142 283.906 450.464C282.572 450.594 281.281 451.012 280.123 451.689C278.966 452.366 277.968 453.285 277.2 454.384C274.96 457.716 275.184 462.112 273.616 465.808C272.188 468.723 270.126 471.282 267.582 473.298C266.813 473.939 266.092 474.637 265.426 475.384C264.351 476.84 263.583 478.499 263.169 480.261C262.755 482.022 262.703 483.85 263.018 485.632C263.466 488.348 264.88 494.704 268.87 493.416C269.937 493.013 270.842 492.27 271.446 491.302C272.024 490.341 272.543 489.345 273 488.32C273.503 487.357 274.059 486.422 274.666 485.52C277.234 481.98 280.261 478.798 283.668 476.056C285.236 474.656 286.804 473.466 288.372 472.136C289.772 470.988 291.886 469.21 293.748 469.126C300.021 468.964 306.298 469.151 312.55 469.686C322.238 470.442 332.584 471.688 338.884 472.486C351.484 474.096 355.684 474.012 360.71 465.22C366.03 455.994 372.302 439.894 376.684 425.264C382.319 407.464 383.973 388.643 381.528 370.132Z" fill="#F28F8F"/>
<path d="M383.306 385.519C383.908 392.379 381.668 413.379 376.306 431.593L340.606 430.403L341.74 387.675L383.306 385.519Z" fill="#37474F"/>
<path d="M294.63 453.768C294.63 452.522 292.88 451.962 291.55 452.368C290.857 452.592 290.179 452.858 289.52 453.166C291.098 453.965 292.909 454.178 294.63 453.768Z" fill="#FF7E00"/>
<g opacity="0.3">
<path opacity="0.3" d="M294.63 453.768C294.63 452.522 292.88 451.962 291.55 452.368C290.857 452.592 290.179 452.858 289.52 453.166C291.098 453.965 292.909 454.178 294.63 453.768Z" fill="black"/>
</g>
<path d="M278.684 482.356C281.008 479.556 288.862 472.136 291.354 470.666C293.846 469.196 296.114 470.036 295.064 467.404C294.014 464.772 292.992 460.964 291.326 460.824C289.66 460.684 286.174 462.7 282.156 466.522C279.184 469.663 276.642 473.185 274.596 476.994L278.684 482.356Z" fill="#FF7E00"/>
<path opacity="0.1" d="M278.684 482.356C281.008 479.556 288.862 472.136 291.354 470.666C293.846 469.196 296.114 470.036 295.064 467.404C294.014 464.772 292.992 460.964 291.326 460.824C289.66 460.684 286.174 462.7 282.156 466.522C279.184 469.663 276.642 473.185 274.596 476.994L278.684 482.356Z" fill="black"/>
<path d="M267.064 497.546C265.944 497.938 263.718 497.994 261.156 494.466C259.691 492.229 258.766 489.683 258.453 487.027C258.139 484.372 258.446 481.68 259.35 479.164C261.59 472.612 266.35 470.386 268.338 466.956C270.914 462.574 270.844 457.562 271.488 454.258C272.258 450.408 274.4 450.366 275.422 450.408C276.444 450.45 279.16 450.73 279.16 450.73L267.064 497.546Z" fill="#EBEBEB"/>
<path d="M294.63 453.768C293.958 451.92 291.83 452.242 290.43 452.83C289.03 453.418 287.07 454.23 286.846 455.7C286.622 457.17 289.492 458.01 289.8 459.592C290.108 461.174 287.672 463.218 284.718 466.004C281.764 468.79 275.394 476.266 275.576 477.204C275.758 478.142 278.6 480.914 278.656 482.342C276.794 484.676 275.319 487.295 274.288 490.098C273.476 492.674 272.804 494.76 272.37 495.838C271.936 496.916 268.324 497.756 266.854 497.504C264.432 497.084 259.378 493.038 259.686 484.694C259.994 476.35 264.348 474.516 268.184 470.918C272.02 467.32 273.07 459.144 273.574 456.918C274.181 454.539 275.628 452.461 277.648 451.066C279.397 450.248 281.32 449.873 283.248 449.974C286.65 450.072 288.638 450.702 291.312 450.282C294.322 449.806 295.624 453.6 295.624 453.6C295.624 453.6 295.4 453.67 294.63 453.768Z" fill="#FF7E00"/>
<path d="M268.576 495.6C267.918 494.2 267.176 492.716 266.644 492.8C266.112 492.884 262.906 493.388 261.716 492.8C260.526 492.212 260.064 490.84 259.504 489.538C258.688 486.299 258.645 482.913 259.378 479.654C260.778 475.006 262.878 473.564 266.042 469.966C268.901 467.062 270.667 463.258 271.04 459.2C271.88 453.908 272.202 452.088 274.036 450.534C273.57 450.508 273.102 450.508 272.636 450.534C271.907 451.187 271.358 452.016 271.04 452.942C270.592 454.342 269.64 462.378 268.562 464.52C267.431 466.771 265.899 468.797 264.04 470.498C262.15 472.57 259.7 474.502 258.356 479.682C257.212 484.547 258.043 489.667 260.666 493.92C263.018 497.308 264.474 497.644 265.048 497.896C266.247 498.076 267.473 497.941 268.604 497.504C269.22 497.154 269.052 496.622 268.576 495.6Z" fill="#455A64"/>
<path d="M275.604 475.482C278.25 478.016 279.482 480.368 279.398 481.544C279.225 482.083 278.868 482.543 278.39 482.846C278.39 482.846 278.054 480.62 274.596 476.994C274.557 476.664 274.637 476.33 274.822 476.053C275.006 475.776 275.284 475.573 275.604 475.482Z" fill="#455A64"/>
<path d="M282.114 478.716C281.606 476.159 280.151 473.889 278.04 472.36C278.052 472.051 278.156 471.754 278.338 471.504C278.52 471.255 278.772 471.065 279.062 470.96C281.252 472.578 282.752 474.963 283.262 477.638C283.262 477.638 282.926 478.646 282.114 478.716Z" fill="#455A64"/>
<path d="M285.964 475.076C286.3 473.172 283.556 469.308 281.834 468.076C281.808 467.903 281.819 467.726 281.864 467.556C281.91 467.387 281.989 467.228 282.098 467.091C282.207 466.953 282.342 466.839 282.497 466.756C282.651 466.673 282.821 466.622 282.996 466.606C285.314 468.362 286.896 470.917 287.434 473.774C287.434 473.774 287.098 475.118 285.964 475.076Z" fill="#455A64"/>
<path d="M289.66 471.898C289.52 470.446 289.09 469.038 288.395 467.756C287.7 466.474 286.754 465.345 285.614 464.436C285.683 464.127 285.842 463.847 286.072 463.629C286.301 463.412 286.59 463.269 286.902 463.218C288.159 464.06 289.197 465.191 289.927 466.516C290.658 467.841 291.061 469.321 291.102 470.834C290.766 471.351 290.254 471.729 289.66 471.898Z" fill="#455A64"/>
<path d="M379.4 429.408C380.8 432.754 380.002 438.97 371.91 446.138C363.818 453.306 347.942 455.938 344.694 449.96C341.446 443.982 349.3 434.224 358.106 429.772C366.912 425.32 376.6 424.2 379.4 429.408Z" fill="#37474F"/>
<path d="M420.854 575.4C420.635 575.133 420.381 574.898 420.098 574.7C419.832 574.49 419.636 574.392 419.398 574.224C410.788 567.784 407.484 563.36 402.038 554.218C401.002 551.11 399.238 546.644 398.818 542.92C398.216 536.83 397.194 528.024 396.438 520.786C394.926 506.296 393.89 491.456 392.98 479.598C391.58 462.014 390.558 459.34 385.126 446.474C379.092 432.194 371.28 416.066 365.246 402.304C371.35 401.898 375.606 397.026 382.83 385.434C383.096 379.834 381.948 376.908 381.304 370.552C374.848 371.92 368.294 372.777 361.704 373.114C349.314 373.912 340.074 373.45 330.68 368.522C328.118 374.416 321.972 382.522 322.56 397.586C323.162 412.986 334.432 429.1 342.86 442.176C349.132 451.892 354.228 460.992 362.166 472.57C361.746 481.908 362.166 487.97 365.036 496.72C366.436 500.92 371.644 511.742 376.236 524.23C379.372 532.798 382.046 540.134 382.48 541.898C383.376 545.552 384.076 548.898 382.69 552.944C382.074 554.708 380.828 557.214 382.172 559.594C384.062 562.94 387.45 563.598 390.124 566.44C392.493 568.813 394.613 571.421 396.452 574.224C397.537 575.953 398.979 577.429 400.681 578.554C402.383 579.68 404.307 580.428 406.322 580.748C408.715 581.308 411.196 581.37 413.614 580.932C416.032 580.494 418.334 579.564 420.378 578.2C420.785 577.926 421.094 577.529 421.26 577.066C421.315 576.776 421.307 576.477 421.237 576.189C421.167 575.902 421.037 575.633 420.854 575.4Z" fill="#FFA8A7"/>
<path d="M323.05 367.948C321.929 377.238 321.429 386.592 321.552 395.948C321.552 408.548 327.642 419.748 333.732 430.346C339.822 440.944 344.694 449.946 344.694 449.946C344.694 449.946 344.176 440.93 354.914 432.978C366.464 424.438 377.314 426.16 379.4 429.394L367.122 401.394C367.122 401.394 379.036 395.346 383.306 385.448C383.306 385.448 382.83 377.566 381.584 369.74C381.584 369.81 349.37 380.506 323.05 367.948Z" fill="#455A64"/>
<path d="M366.492 401.324C369.88 409.108 374.612 418.124 377.076 424.116L371.91 403.2C376.908 397.908 379.204 395.738 381.71 388.654C378.56 393.554 374.094 396.312 366.492 401.324Z" fill="#263238"/>
<path d="M383.236 544.404C382.032 544.796 382.004 546.196 382.802 547.372C383.205 547.985 383.65 548.57 384.132 549.122L383.236 544.404Z" fill="#FF7E00"/>
<path opacity="0.3" d="M383.236 544.404C382.032 544.796 382.004 546.196 382.802 547.372C383.205 547.985 383.65 548.57 384.132 549.122L383.236 544.404Z" fill="black"/>
<path d="M411.6 566.58C409.248 563.78 403.438 554.526 402.472 551.754C401.506 548.982 402.766 546.938 399.952 547.442C397.138 547.946 393.176 548.268 392.714 549.892C392.252 551.516 393.568 555.352 396.578 560.07C399.109 563.626 402.104 566.827 405.482 569.59L411.6 566.58Z" fill="#FF7E00"/>
<path opacity="0.1" d="M411.6 566.58C409.248 563.78 403.438 554.526 402.472 551.754C401.506 548.982 402.766 546.938 399.952 547.442C397.138 547.946 393.176 548.268 392.714 549.892C392.252 551.516 393.568 555.352 396.578 560.07C399.109 563.626 402.104 566.827 405.482 569.59L411.6 566.58Z" fill="black"/>
<path d="M424.424 581C424.592 582.176 424.424 582.988 420.322 584.486C416.22 585.984 409.92 585.956 404.656 584.654C399.392 583.352 394.856 578.55 392.644 575.176C390.432 571.802 385.966 568.638 382.998 566.986C380.03 565.334 379.428 564.676 379.666 563.668C379.904 562.66 380.8 560 380.8 560L424.424 581Z" fill="#EBEBEB"/>
<path d="M383.236 544.405C382.284 545.063 382.718 546.897 384.314 548.437C384.958 549.403 385.35 552.777 386.792 553.295C388.234 553.813 389.592 551.139 391.23 551.139C392.868 551.139 394.408 553.939 396.606 557.397C398.804 560.855 405.006 568.597 405.93 568.597C406.854 568.597 410.2 566.315 411.628 566.539C413.799 568.61 416.079 570.564 418.46 572.391C421.82 574.869 422.996 575.625 423.976 576.283C424.956 576.941 425.166 579.307 424.62 580.707C424.074 582.107 416.304 585.523 408.086 583.605C399.868 581.687 397.516 578.075 394.688 573.581C392.59 570.211 389.645 567.45 386.148 565.573C383.993 564.586 382.049 563.194 380.422 561.471C379.956 559.59 379.956 557.625 380.422 555.745C381.178 552.385 382.144 549.585 381.71 546.883C381.524 546.213 381.543 545.502 381.765 544.843C381.987 544.184 382.402 543.607 382.956 543.187C383.082 543.584 383.176 543.992 383.236 544.405Z" fill="#FF7E00"/>
<path d="M423.346 577.794C421.848 578.172 420.224 578.578 420.154 579.194C420.084 579.81 420.014 583.016 419.202 584.08C418.817 584.56 418.326 584.944 417.767 585.202C417.208 585.46 416.597 585.584 415.982 585.564C412.247 585.77 408.503 585.431 404.866 584.556C400.948 583.368 397.479 581.026 394.912 577.836C391.804 574.126 391.244 572.334 387.142 569.436C383.04 566.538 381.542 566.132 379.666 564.424C379.509 564.879 379.397 565.347 379.33 565.824C379.809 566.501 380.449 567.05 381.192 567.42C383.888 568.745 386.456 570.315 388.864 572.11C390.904 574.155 392.777 576.36 394.464 578.704C397.173 581.949 400.799 584.301 404.866 585.452C409.514 586.642 415.94 586.852 420.14 585.354C424.34 583.856 424.578 582.974 424.942 582.47C425.344 581.079 425.445 579.618 425.236 578.186C424.97 577.458 424.41 577.514 423.346 577.794Z" fill="#455A64"/>
<path d="M404.208 568.302C407.232 566.174 409.808 565.418 410.956 565.726C411.455 566 411.842 566.441 412.048 566.972C412.048 566.972 409.78 566.874 405.51 569.59C405.174 569.568 404.858 569.425 404.619 569.189C404.38 568.952 404.234 568.637 404.208 568.302Z" fill="#455A64"/>
<path d="M408.688 562.478C406.054 562.487 403.52 563.487 401.59 565.278C401.28 565.213 400.997 565.055 400.779 564.825C400.562 564.595 400.42 564.303 400.372 563.99C402.411 562.158 405.065 561.159 407.806 561.19C407.806 561.19 408.8 561.666 408.688 562.478Z" fill="#455A64"/>
<path d="M405.818 557.97C403.998 557.27 399.63 559.231 398.062 560.701C397.89 560.69 397.721 560.645 397.566 560.569C397.412 560.492 397.273 560.386 397.16 560.256C397.047 560.125 396.96 559.974 396.906 559.81C396.852 559.646 396.831 559.473 396.844 559.301C399.031 557.34 401.873 556.271 404.81 556.304C404.81 556.304 406.07 556.85 405.818 557.97Z" fill="#455A64"/>
<path d="M403.382 553.686C401.917 553.539 400.437 553.69 399.032 554.131C397.627 554.571 396.325 555.291 395.206 556.248C394.916 556.118 394.67 555.905 394.501 555.636C394.332 555.367 394.246 555.054 394.254 554.736C395.337 553.649 396.665 552.839 398.127 552.373C399.589 551.908 401.142 551.801 402.654 552.062C403.085 552.498 403.344 553.075 403.382 553.686Z" fill="#455A64"/>
<path d="M427.686 285.964C425.908 287.84 422.086 291.564 410.396 301.714C401.828 309.162 392.07 319.018 388.976 328.16C389.508 315.322 376.754 295.204 376.754 295.204C380.436 294.224 384.132 293.328 387.044 291.256C399.42 282.478 406.126 276.038 409.514 272.118C410.564 270.872 411.096 269.934 411.488 266.77C411.838 263.97 414.876 239.26 413.868 228.97C413.668 227.142 412.807 225.449 411.446 224.21C407.82 220.878 406.672 217.924 404.194 214.102C402.248 211.106 400.302 210.084 400.778 209.342C401.414 208.543 402.328 208.013 403.337 207.857C404.346 207.701 405.377 207.932 406.224 208.502C408.122 209.695 409.875 211.104 411.446 212.702C410.73 208.721 409.373 204.882 407.428 201.334C403.004 193.186 403.564 188.734 415.212 190.904C422.506 192.22 429.31 198.366 431.746 215.446C432.446 220.36 432.222 227.696 432.194 233.996C432.11 248.332 432.054 259.98 431.48 271.572C431.2 276.626 431.046 282.422 427.686 285.964Z" fill="#FFA8A7"/>
<path d="M330.302 301.462C328.902 306.74 322.042 351.61 320.852 389.34C338.044 396.872 373.058 390.74 383.432 378.14L384.538 359.114C387.17 344.834 388.206 332.234 389.34 326.102C390.572 319.34 390.39 302.61 379.4 296.03C374.617 294.36 369.598 293.467 364.532 293.384C357.938 293.146 345.912 293.188 339.332 294.476C336.14 295.12 331.212 298.2 330.302 301.462Z" fill="#FF7E00"/>
<path opacity="0.6" d="M330.302 301.462C328.902 306.74 322.042 351.61 320.852 389.34C338.044 396.872 373.058 390.74 383.432 378.14L384.538 359.114C387.17 344.834 388.206 332.234 389.34 326.102C390.572 319.34 390.39 302.61 379.4 296.03C374.617 294.36 369.598 293.467 364.532 293.384C357.938 293.146 345.912 293.188 339.332 294.476C336.14 295.12 331.212 298.2 330.302 301.462Z" fill="white"/>
<path d="M343.504 338.646C343.504 338.646 368.116 340.634 383.432 334.362L380.8 358.848C380.8 358.848 364.63 367.458 341.11 361.872L343.504 338.646Z" fill="#FAFAFA"/>
<path d="M355.6 349.468C355.6 349.692 355.6 349.944 355.6 350.21V351.05L355.516 351.89C355.505 352.144 355.477 352.397 355.432 352.646C355.353 353.294 355.193 353.929 354.956 354.536C354.737 355.063 354.413 355.539 354.004 355.936C353.564 356.36 353.025 356.668 352.436 356.832C351.702 357.032 350.936 357.084 350.182 356.986C349.422 356.921 348.68 356.712 347.998 356.37C347.443 356.084 346.964 355.672 346.598 355.166C346.26 354.673 346.027 354.115 345.912 353.528C345.789 352.883 345.737 352.225 345.758 351.568C345.758 351.106 345.758 350.588 345.856 350.014C345.954 349.44 345.968 348.922 346.024 348.474C346.116 347.828 346.28 347.194 346.514 346.584C346.723 346.052 347.048 345.574 347.466 345.184C347.902 344.775 348.43 344.477 349.006 344.316C349.742 344.127 350.508 344.085 351.26 344.19C352.022 344.245 352.767 344.44 353.458 344.764C353.997 345.02 354.466 345.402 354.827 345.877C355.187 346.352 355.429 346.907 355.53 347.494C355.636 348.147 355.659 348.81 355.6 349.468ZM348.096 351.862C348.05 352.577 348.206 353.29 348.544 353.92C348.739 354.197 348.996 354.424 349.296 354.582C349.595 354.741 349.928 354.826 350.266 354.83C350.594 354.898 350.934 354.884 351.255 354.792C351.577 354.699 351.872 354.53 352.114 354.298C352.561 353.745 352.838 353.074 352.912 352.366C352.912 351.918 353.024 351.414 353.066 350.868C353.108 350.322 353.15 349.818 353.164 349.37C353.216 348.66 353.061 347.95 352.716 347.326C352.518 347.055 352.259 346.833 351.96 346.68C351.661 346.527 351.33 346.446 350.994 346.444C350.668 346.377 350.331 346.387 350.01 346.475C349.689 346.563 349.393 346.725 349.146 346.948C348.698 347.494 348.425 348.163 348.362 348.866C348.292 349.314 348.236 349.818 348.194 350.364C348.152 350.91 348.124 351.4 348.11 351.862H348.096Z" fill="black"/>
<path d="M364.28 349.062C364.628 348.821 364.911 348.499 365.106 348.124C365.246 347.868 365.336 347.588 365.372 347.298C365.413 347.089 365.409 346.874 365.361 346.666C365.313 346.459 365.221 346.264 365.092 346.094C364.902 345.931 364.678 345.812 364.435 345.746C364.193 345.681 363.939 345.671 363.692 345.716C363.124 345.721 362.574 345.924 362.138 346.29C361.777 346.652 361.495 347.086 361.312 347.564C361.255 347.71 361.158 347.836 361.032 347.928C360.937 348.006 360.819 348.05 360.696 348.054H359.296C359.234 348.061 359.17 348.055 359.109 348.036C359.049 348.016 358.994 347.985 358.946 347.942C358.905 347.898 358.875 347.844 358.86 347.785C358.845 347.726 358.846 347.665 358.862 347.606C358.98 347.06 359.193 346.538 359.492 346.066C359.806 345.58 360.194 345.146 360.64 344.778C361.11 344.396 361.634 344.084 362.194 343.854C362.771 343.605 363.387 343.458 364.014 343.42C364.674 343.347 365.342 343.414 365.974 343.616C366.453 343.782 366.886 344.061 367.234 344.428C367.545 344.77 367.766 345.184 367.878 345.632C368.001 346.088 368.029 346.565 367.962 347.032C367.923 347.32 367.867 347.605 367.794 347.886C367.707 348.178 367.58 348.455 367.416 348.712C367.216 349.035 366.982 349.336 366.716 349.608C366.356 349.983 365.968 350.329 365.554 350.644C364.028 351.974 363.272 352.632 361.746 353.92C363.79 353.78 364.812 353.696 366.856 353.486C366.917 353.477 366.979 353.483 367.038 353.502C367.096 353.522 367.149 353.554 367.192 353.598C367.234 353.64 367.264 353.691 367.281 353.747C367.298 353.803 367.301 353.863 367.29 353.92C367.29 354.424 367.192 354.676 367.122 355.18C367.097 355.315 367.028 355.438 366.926 355.53C366.826 355.634 366.692 355.699 366.548 355.712C363.104 356.062 361.396 356.188 357.98 356.342C357.919 356.345 357.857 356.336 357.799 356.314C357.741 356.293 357.689 356.259 357.644 356.216C357.605 356.171 357.576 356.117 357.559 356.059C357.542 356.001 357.538 355.94 357.546 355.88L357.7 354.788C357.729 354.589 357.817 354.404 357.952 354.256C358.061 354.14 358.178 354.032 358.302 353.934C360.626 352.058 361.844 351.064 364.28 349.062Z" fill="black"/>
<path d="M380.226 341.601C380.281 341.582 380.34 341.579 380.397 341.591C380.453 341.604 380.506 341.631 380.548 341.671C380.591 341.708 380.625 341.756 380.644 341.81C380.664 341.864 380.669 341.922 380.66 341.979C380.66 342.483 380.548 342.735 380.478 343.239C380.462 343.386 380.398 343.524 380.296 343.631L379.988 343.981C378.756 345.283 378.126 345.927 376.894 347.201C377.387 347.182 377.881 347.224 378.364 347.327C378.749 347.423 379.108 347.605 379.414 347.859C379.694 348.112 379.902 348.436 380.016 348.797C380.142 349.252 380.166 349.731 380.086 350.197C380.002 350.807 379.792 351.393 379.47 351.919C379.138 352.445 378.727 352.917 378.252 353.319C377.743 353.685 377.188 353.982 376.6 354.201C375.95 354.483 375.269 354.685 374.57 354.803C373.841 354.913 373.101 354.913 372.372 354.803C371.843 354.725 371.334 354.544 370.874 354.271C370.517 354.04 370.231 353.716 370.048 353.333C369.884 352.988 369.807 352.608 369.824 352.227C369.827 352.156 369.844 352.088 369.875 352.025C369.907 351.962 369.951 351.907 370.006 351.863C370.114 351.769 370.244 351.707 370.384 351.681L371.854 351.499C371.903 351.488 371.954 351.488 372.002 351.501C372.051 351.513 372.096 351.536 372.134 351.569C372.221 351.653 372.293 351.753 372.344 351.863C372.4 351.998 372.48 352.121 372.582 352.227C372.713 352.343 372.865 352.433 373.03 352.493C373.265 352.571 373.51 352.614 373.758 352.619C374.133 352.628 374.508 352.599 374.878 352.535C375.557 352.437 376.204 352.183 376.768 351.793C377.001 351.632 377.199 351.424 377.348 351.183C377.498 350.942 377.596 350.673 377.636 350.393C377.694 350.183 377.67 349.959 377.569 349.766C377.467 349.574 377.296 349.427 377.09 349.357C376.505 349.225 375.897 349.225 375.312 349.357L373.772 349.595C373.716 349.607 373.657 349.606 373.601 349.592C373.545 349.577 373.493 349.549 373.45 349.511C373.405 349.471 373.372 349.421 373.352 349.364C373.333 349.308 373.328 349.247 373.338 349.189C373.408 348.685 373.45 348.433 373.52 347.929C373.536 347.782 373.6 347.644 373.702 347.537L374.01 347.201C375.2 346.011 375.788 345.395 376.964 344.177C374.92 344.527 373.898 344.667 371.854 344.933C371.794 344.946 371.732 344.944 371.673 344.927C371.615 344.91 371.561 344.878 371.518 344.835C371.477 344.796 371.447 344.747 371.43 344.693C371.412 344.639 371.409 344.582 371.42 344.527C371.49 344.009 371.532 343.757 371.602 343.253C371.619 343.118 371.684 342.994 371.784 342.903C371.887 342.8 372.019 342.731 372.162 342.707C375.34 342.385 376.964 342.133 380.226 341.601Z" fill="black"/>
<path d="M350.98 241.038C349.408 241.246 347.911 241.835 346.62 242.756C345.329 243.676 344.283 244.898 343.574 246.316C342.02 249.41 343.056 255.668 344.82 263.914C345.795 269.244 347.339 274.454 349.426 279.454C350.17 280.878 351.434 281.96 352.954 282.478L353.038 272.762L352.898 265.972C352.898 265.972 358.946 268.016 360.752 258.174C361.47 253.847 361.849 249.47 361.886 245.084L350.98 241.038Z" fill="#263238"/>
<path d="M358.12 251.86C358.005 255.463 358.962 259.018 360.87 262.076C362.778 265.134 365.551 267.557 368.837 269.037C372.124 270.517 375.775 270.988 379.33 270.39C382.884 269.792 386.181 268.152 388.802 265.679C391.424 263.205 393.252 260.008 394.054 256.494C394.856 252.98 394.598 249.307 393.31 245.941C392.023 242.574 389.764 239.666 386.822 237.584C383.88 235.503 380.385 234.342 376.782 234.248C371.976 234.124 367.316 235.906 363.819 239.206C360.323 242.506 358.274 247.055 358.12 251.86Z" fill="#263238"/>
<path d="M355.264 265.525C354.97 265.639 354.649 265.663 354.34 265.595C353.939 265.462 353.574 265.238 353.274 264.939C352.975 264.639 352.751 264.274 352.618 263.873C352.373 263.064 352.083 262.269 351.75 261.493C351.022 260.093 348.838 259.561 347.34 259.561C346.372 259.595 345.424 259.853 344.572 260.315C343.719 260.776 342.985 261.428 342.426 262.221C339.22 266.421 342.552 273.547 345.856 275.199C350.672 277.635 353.038 272.763 353.038 272.763L352.8 294.729C352.8 294.729 353.962 298.929 362.25 302.107C368.732 304.613 378.574 301.085 372.694 294.659V287.379C376.004 288.144 379.429 288.277 382.788 287.771C386.078 287.099 387.716 284.887 389.214 279.777C392.393 268.544 392.388 256.65 389.2 245.421C385.728 242.551 380.086 243.223 376.04 244.021C373.015 244.658 370.06 245.596 367.22 246.821C366.716 247.031 365.26 247.409 364.966 247.871C364.672 248.333 364.966 248.991 364.966 249.467C364.93 250.801 364.464 252.087 363.636 253.135C362.135 254.584 360.123 255.383 358.036 255.361C358.023 257.9 357.655 260.426 356.944 262.865C356.762 263.901 356.16 265.231 355.264 265.525Z" fill="#FFA8A7"/>
<path d="M393.4 233.534C393.35 233.4 393.266 233.281 393.155 233.19C393.045 233.099 392.912 233.039 392.77 233.016C392.54 233.025 392.319 233.109 392.14 233.254C390.867 234.217 389.513 235.07 388.094 235.802C388.516 234.032 388.597 232.198 388.332 230.398C388.164 229.292 387.94 226.73 386.582 226.422C385.784 226.226 385.056 226.884 384.44 227.43C378.84 232.358 371.84 229.768 365.218 229.768C359.716 229.768 353.024 231.798 350.364 237.048C349.16 239.456 348.88 242.032 351.064 243.782C352.94 245.294 359.198 246.82 361.438 247.562C367.388 249.522 382.704 254.562 391.118 244.608C392.534 242.663 393.491 240.423 393.918 238.056C394.172 236.553 393.993 235.009 393.4 233.604V233.534Z" fill="#263238"/>
<path d="M372.792 287.378C372.792 287.378 364.588 285.642 361.34 283.388C359.214 281.938 357.478 279.985 356.286 277.704C356.286 277.704 356.986 282.38 359.226 284.9C363.174 289.324 372.764 290.668 372.764 290.668L372.792 287.378Z" fill="#F28F8F"/>
<path d="M372.19 263.046C372.163 263.438 372.02 263.813 371.781 264.125C371.542 264.436 371.217 264.67 370.845 264.798C370.474 264.926 370.073 264.942 369.693 264.844C369.313 264.746 368.97 264.538 368.707 264.246C368.444 263.955 368.272 263.592 368.214 263.204C368.155 262.815 368.212 262.418 368.378 262.062C368.543 261.706 368.809 261.406 369.144 261.2C369.478 260.995 369.866 260.892 370.258 260.904C370.797 260.937 371.301 261.18 371.662 261.58C372.024 261.981 372.213 262.507 372.19 263.046Z" fill="#263238"/>
<path d="M369.502 256.116L365.302 258.594C364.981 258.017 364.894 257.338 365.061 256.699C365.228 256.06 365.636 255.51 366.198 255.164C366.476 255.003 366.784 254.899 367.102 254.86C367.421 254.82 367.745 254.846 368.054 254.935C368.362 255.024 368.65 255.174 368.899 255.377C369.148 255.58 369.353 255.832 369.502 256.116Z" fill="#263238"/>
<path d="M371.63 274.82L380.03 277.396C379.654 278.53 378.854 279.475 377.797 280.034C376.741 280.592 375.509 280.72 374.36 280.392C373.809 280.214 373.3 279.927 372.862 279.548C372.424 279.169 372.067 278.706 371.812 278.186C371.558 277.666 371.41 277.1 371.379 276.522C371.348 275.943 371.433 275.365 371.63 274.82Z" fill="#B16668"/>
<path d="M377.23 280.28C376.971 279.174 376.328 278.196 375.416 277.519C374.503 276.842 373.38 276.511 372.246 276.584C371.969 276.616 371.693 276.663 371.42 276.724C371.492 277.564 371.815 278.363 372.346 279.018C372.878 279.672 373.595 280.151 374.402 280.392C375.331 280.672 376.327 280.632 377.23 280.28Z" fill="#F28F8F"/>
<path d="M389.102 257.138L384.748 254.884C384.88 254.592 385.069 254.33 385.306 254.113C385.542 253.897 385.821 253.731 386.123 253.627C386.426 253.522 386.747 253.48 387.067 253.504C387.387 253.527 387.698 253.616 387.982 253.764C388.566 254.075 389.009 254.599 389.217 255.227C389.426 255.855 389.385 256.54 389.102 257.138Z" fill="#263238"/>
<path d="M387.52 261.996C387.492 262.387 387.351 262.762 387.112 263.073C386.874 263.384 386.549 263.619 386.179 263.747C385.808 263.876 385.408 263.892 385.028 263.795C384.648 263.698 384.305 263.492 384.041 263.202C383.777 262.911 383.605 262.55 383.545 262.163C383.485 261.775 383.539 261.379 383.703 261.022C383.866 260.665 384.13 260.365 384.463 260.157C384.796 259.95 385.182 259.844 385.574 259.854C386.115 259.883 386.623 260.124 386.987 260.525C387.351 260.926 387.543 261.455 387.52 261.996Z" fill="#263238"/>
<path d="M378.35 272.608L384.664 270.984L377.482 260.946L378.35 272.608Z" fill="#F28F8F"/>
<path d="M353.696 387.871L346.542 388.669L351.61 383.223C324.856 393.359 284.284 385.659 237.16 394.325C208.432 399.603 173.46 419.791 163.198 431.145V447.399C173.6 434.799 213.92 409.711 238.056 404.881C287.938 394.871 327.656 403.887 350.21 396.005L354.13 394.325L347.242 393.513L353.696 387.871Z" fill="#FF7E00"/>
<path opacity="0.2" d="M353.696 387.871L346.542 388.669L351.61 383.223C324.856 393.359 284.284 385.659 237.16 394.325C208.432 399.603 173.46 419.791 163.198 431.145V447.399C173.6 434.799 213.92 409.711 238.056 404.881C287.938 394.871 327.656 403.887 350.21 396.005L354.13 394.325L347.242 393.513L353.696 387.871Z" fill="black"/>
<path d="M308.994 402.304C306.908 398.398 305.578 397.208 304.472 393.498C305.634 394.537 306.934 395.408 308.336 396.088C310.03 396.774 312.228 396.578 312.662 395.052C313.096 393.526 310.52 392.854 309.442 391.23C307.746 388.458 305.787 385.856 303.59 383.46C302.992 382.994 302.495 382.411 302.13 381.747C301.764 381.082 301.537 380.351 301.462 379.596C300.678 368.732 301.112 355.642 300.692 343.35C308.49 338.436 324.674 329.798 331.184 325.794C336.252 322.672 340.354 314.51 341.46 306.334C341.74 304.262 342.02 297.094 340.816 294.252C336.616 293.622 330.946 295.078 326.284 298.284C323.484 300.216 318.094 304.374 305.816 313.586C298.816 318.794 289.086 325.598 281.736 334.39C278.46 338.324 283.962 371.14 285.124 378.532C285.754 382.536 286.888 388.696 288.232 393.932C290.5 402.766 296.212 409.794 302.806 410.83C313.334 412.51 311.808 407.582 308.994 402.304Z" fill="#FFA8A7"/>
<path d="M426.734 332.122C414.134 355.138 397.95 372.96 365.526 379.12L373.436 380.632L366.8 385L373.548 385.91L368.928 390.46C404.46 382.662 421.484 362.95 434.504 340.172C443.73 324.044 449.708 298.606 460.11 279.748C468.328 264.866 475.51 256.914 482.258 252.252V239.022C471.632 245.154 461.412 256.606 453.334 271.404C441.504 293.188 433.23 320.236 426.734 332.122Z" fill="#FF7E00"/>
<path opacity="0.2" d="M426.734 332.122C414.134 355.138 397.95 372.96 365.526 379.12L373.436 380.632L366.8 385L373.548 385.91L368.928 390.46C404.46 382.662 421.484 362.95 434.504 340.172C443.73 324.044 449.708 298.606 460.11 279.748C468.328 264.866 475.51 256.914 482.258 252.252V239.022C471.632 245.154 461.412 256.606 453.334 271.404C441.504 293.188 433.23 320.236 426.734 332.122Z" fill="black"/>
<path d="M555.114 186.746C555.114 186.746 549.304 183.246 549.024 176.946L553.322 173.488C553.322 173.488 552.734 177.352 557.732 182.882L555.114 186.746Z" fill="#FF7E00"/>
<path d="M607.81 137.466C607.81 137.466 602.336 133.462 602.602 127.19L607.18 124.124C607.18 124.124 606.256 127.918 610.75 133.924L607.81 137.466Z" fill="#FF7E00"/>
<path d="M641.2 354.914C641.2 354.914 635.726 350.91 636.006 344.624L640.584 341.572C640.584 341.572 639.66 345.366 644.154 351.372L641.2 354.914Z" fill="#FF7E00"/>
<path d="M606.326 63.5877C606.326 63.5877 604.114 57.1757 607.922 52.1777L613.424 52.2757C613.424 52.2757 610.498 54.8657 610.792 62.3137L606.326 63.5877Z" fill="#FF7E00"/>
<path d="M650.174 184.324C650.174 184.324 653.212 190.386 650.104 195.846L644.63 196.49C644.63 196.49 647.192 193.536 645.904 186.186L650.174 184.324Z" fill="#FF7E00"/>
<path d="M132.664 162.568C132.664 162.568 136.514 156.268 133.616 150.066L127.722 148.89C127.722 148.89 130.242 152.32 128.198 160.188L132.664 162.568Z" fill="#FF7E00"/>
<path d="M300.118 47.5998C300.118 47.5998 300.034 54.3898 305.214 57.9318L310.422 56.0978C310.422 56.0978 306.824 54.5578 304.822 47.4038L300.118 47.5998Z" fill="#FF7E00"/>
<path d="M52.416 240.8C52.416 240.8 58.352 237.51 58.856 231.252L54.656 227.64C54.656 227.64 55.104 231.518 49.896 236.852L52.416 240.8Z" fill="#FF7E00"/>
<path d="M80.1218 296.59C80.1218 296.59 74.1998 293.3 73.6958 287L77.8958 283.388C77.8958 283.388 77.4478 287.266 82.6558 292.6L80.1218 296.59Z" fill="#FF7E00"/>
<path d="M89.4322 282.897C89.4322 282.897 86.8842 276.611 90.4262 271.417L95.9282 271.235C95.9282 271.235 93.1282 273.965 93.8282 281.385L89.4322 282.897Z" fill="#FF7E00"/>
<path d="M524.692 46.4238C524.692 46.4238 524.314 53.1858 529.34 56.9518L534.618 55.3558C534.618 55.3558 531.09 53.6618 529.34 46.4238H524.692Z" fill="#FF7E00"/>
<path d="M661.752 93.9399C661.752 93.9399 664.818 99.9739 661.752 105.448L656.292 106.12C656.292 106.12 658.826 103.152 657.496 95.8159L661.752 93.9399Z" fill="#FF7E00"/>
<path d="M572.152 109.2C572.152 109.2 567.182 104.594 568.176 98.3917L573.076 95.8857C573.076 95.8857 571.676 99.5397 575.498 105.966L572.152 109.2Z" fill="#FF7E00"/>
<path d="M599.788 217.518C599.788 217.518 602.742 223.622 599.564 229.04L594.076 229.6C594.076 229.6 596.68 226.674 595.476 219.31L599.788 217.518Z" fill="#FF7E00"/>
<path d="M637.112 276.905C637.112 276.905 635.138 270.409 639.142 265.565L644.63 265.859C644.63 265.859 640.822 268.533 640.836 275.995L637.112 276.905Z" fill="#FF7E00"/>
<path d="M630.644 294.476C630.644 294.476 624.82 291.018 624.498 284.676L628.768 281.204C629.01 284.891 630.417 288.406 632.786 291.242L630.644 294.476Z" fill="#FF7E00"/>
<path d="M277.382 80.9199C277.382 80.9199 280.322 87.0239 277.116 92.4279L271.628 92.9739C271.628 92.9739 274.246 90.0619 273.028 82.6979L277.382 80.9199Z" fill="#FF7E00"/>
<path d="M63.1261 169.918C63.1261 169.918 68.3201 165.564 67.6341 159.32L62.8601 156.52C62.8601 156.52 64.0361 160.244 59.9341 166.474L63.1261 169.918Z" fill="#FF7E00"/>
<path d="M67.8999 355.6C67.8999 355.6 69.3839 364 76.6079 367.108L82.5999 363.608C82.5999 363.608 77.8119 362.558 73.5979 354.228L67.8999 355.6Z" fill="#FF7E00"/>
<path d="M114.324 207.983C114.324 207.983 114.016 214.759 119.084 218.469L124.348 216.817C124.348 216.817 119.994 215.165 118.174 207.941L114.324 207.983Z" fill="#FF7E00"/>
<g opacity="0.25">
<path opacity="0.25" d="M524.692 46.4238C524.692 46.4238 524.314 53.1858 529.34 56.9518L534.618 55.3558C534.618 55.3558 531.09 53.6618 529.34 46.4238H524.692Z" fill="black"/>
<path opacity="0.25" d="M661.752 93.9399C661.752 93.9399 664.818 99.9739 661.752 105.448L656.292 106.12C656.292 106.12 658.826 103.152 657.496 95.8159L661.752 93.9399Z" fill="black"/>
<path opacity="0.25" d="M572.152 109.2C572.152 109.2 567.182 104.594 568.176 98.3917L573.076 95.8857C573.076 95.8857 571.676 99.5397 575.498 105.966L572.152 109.2Z" fill="black"/>
<path opacity="0.25" d="M599.788 217.518C599.788 217.518 602.742 223.622 599.564 229.04L594.076 229.6C594.076 229.6 596.68 226.674 595.476 219.31L599.788 217.518Z" fill="black"/>
<path opacity="0.25" d="M637.112 276.905C637.112 276.905 635.138 270.409 639.142 265.565L644.63 265.859C644.63 265.859 640.822 268.533 640.836 275.995L637.112 276.905Z" fill="black"/>
<path opacity="0.25" d="M630.644 294.476C630.644 294.476 624.82 291.018 624.498 284.676L628.768 281.204C629.01 284.891 630.417 288.406 632.786 291.242L630.644 294.476Z" fill="black"/>
<path opacity="0.25" d="M277.382 80.9199C277.382 80.9199 280.322 87.0239 277.116 92.4279L271.628 92.9739C271.628 92.9739 274.246 90.0619 273.028 82.6979L277.382 80.9199Z" fill="black"/>
<path opacity="0.25" d="M63.1261 169.918C63.1261 169.918 68.3201 165.564 67.6341 159.32L62.8601 156.52C62.8601 156.52 64.0361 160.244 59.9341 166.474L63.1261 169.918Z" fill="black"/>
<path opacity="0.25" d="M67.8999 355.6C67.8999 355.6 69.3839 364 76.6079 367.108L82.5999 363.608C82.5999 363.608 77.8119 362.558 73.5979 354.228L67.8999 355.6Z" fill="black"/>
<path opacity="0.25" d="M114.324 207.983C114.324 207.983 114.016 214.759 119.084 218.469L124.348 216.817C124.348 216.817 119.994 215.165 118.174 207.941L114.324 207.983Z" fill="black"/>
</g>
</svg>
