<svg width="42" height="42" viewBox="0 0 42 42" fill="none" xmlns="http://www.w3.org/2000/svg">
<path fill-rule="evenodd" clip-rule="evenodd" d="M5.32167 0.928647C2.94589 2.01967 1.88133 3.13316 0.846728 5.60881C-0.282243 8.31115 -0.282243 33.6109 0.846728 36.3132C1.88133 38.7889 2.94589 39.9024 5.32167 40.9934C7.10276 41.8113 8.79497 41.9116 20.9415 41.9216C32.0894 41.9306 34.8981 41.7933 36.4026 41.1647C38.8782 40.1301 39.9917 39.0655 41.0827 36.6897C41.9021 34.9056 42 33.2279 42 20.961C42 8.69413 41.9021 7.0164 41.0827 5.23232C39.9917 2.85654 38.8782 1.79198 36.4026 0.757379C34.8981 0.128731 32.0894 -0.00858321 20.9415 0.000404622C8.79497 0.0103911 7.10276 0.110755 5.32167 0.928647ZM5.69167 2.98287C4.79638 3.52863 3.61798 4.70703 3.07221 5.60232C2.14547 7.12176 2.07956 8.13788 2.07956 20.961C2.07956 33.7842 2.14547 34.8003 3.07221 36.3197C3.61798 37.215 4.79638 38.3934 5.69167 38.9392C7.21111 39.8659 8.22723 39.9318 21.0504 39.9318C33.8735 39.9318 34.8896 39.8659 36.4091 38.9392C39.7975 36.8735 40.0217 35.9407 40.0142 23.957L40.0067 13.2215L37.4557 17.2161C33.9933 22.6372 30.4262 27.2101 27.3548 30.1636C25.1293 32.3047 24.4822 32.6487 22.397 32.8025C20.6085 32.9338 19.4985 32.6976 18.031 31.8732L16.0636 30.7672L13.8137 31.8907C11.3954 33.0986 9.31626 33.139 9.31626 31.9781C9.31626 31.5796 10.0807 31.0623 11.0354 30.8152C11.9812 30.57 13.211 30.0502 13.7682 29.6597C15.1773 28.6726 17.0378 28.7794 18.8034 29.9488C21.7804 31.9207 24.2241 30.9051 24.9156 27.4093L25.396 24.9796L17.3559 24.8428C10.6035 24.7279 9.31626 24.5861 9.31626 23.957C9.31626 23.3258 10.6589 23.1865 17.8582 23.0717L26.4006 22.9353L27.1761 20.9605L27.952 18.9852L18.6341 18.8499C10.7448 18.735 9.31626 18.5992 9.31626 17.9651C9.31626 17.3294 10.8007 17.1956 19.1405 17.0808L28.9642 16.9455L31.262 12.9614C33.5035 9.07611 34.1441 8.44447 34.7878 9.48606C34.9605 9.76568 36.2098 10.5561 37.5635 11.2422C39.8914 12.4216 40.0247 12.4376 40.0247 11.5298C40.0247 10.8877 39.1164 10.0583 37.2784 9.02069C34.2775 7.32698 33.8386 6.19502 35.3475 4.04093C36.0311 3.06525 36.0511 2.8061 35.4723 2.4391C35.0924 2.19893 28.6026 1.9992 21.0504 1.9962C8.22174 1.99071 7.21211 2.05562 5.69167 2.98287ZM9.29579 11.5068C8.52233 12.7581 10.24 12.9893 19.3392 12.8585C27.3463 12.7431 28.7899 12.6078 28.7899 11.9732C28.7899 11.3381 27.3329 11.2037 19.2139 11.0889C12.6083 10.995 9.53197 11.1248 9.29579 11.5068Z" fill="#37474F"/>
</svg>
