<svg width="50" height="48" viewBox="0 0 50 48" fill="none" xmlns="http://www.w3.org/2000/svg">
<path fill-rule="evenodd" clip-rule="evenodd" d="M12.3589 9.65677C5.56146 14.9682 0 19.525 0 19.7823C0 20.6292 1.00156 20.8917 2.06406 20.3229C3.09531 19.7708 3.1099 19.9359 3.24687 33.7104L3.38542 47.6562H25H46.6146L46.7531 33.7104C46.8901 19.9359 46.9047 19.7708 47.9359 20.3229C49.0089 20.8969 50 20.6276 50 19.7625C50 19.4932 48.125 17.8083 45.8333 16.0177L41.6667 12.762V8.98542V5.20833H38.576C35.7125 5.20833 35.474 5.29948 35.3208 6.45104C35.1667 7.6151 34.8484 7.45104 30.263 3.84687C27.5714 1.73073 25.2229 0 25.0432 0C24.8641 0 19.1557 4.34583 12.3589 9.65677ZM14.974 10.2385L5.20833 17.8516V31.8427V45.8333H11.4583H17.7083V35.9375V26.0417H25H32.2917V35.9375V45.8333H38.5417H44.7917V31.8448V17.8562L35.0292 10.2302C29.6599 6.03594 25.1484 2.60885 25.0031 2.61458C24.8583 2.62031 20.3453 6.05104 14.974 10.2385ZM37.5 8.46823C37.5 9.11563 37.9687 9.93802 38.5417 10.2958C39.5089 10.9 39.5833 10.8161 39.5833 9.11875C39.5833 7.63906 39.3854 7.29167 38.5417 7.29167C37.8073 7.29167 37.5 7.63906 37.5 8.46823ZM19.7917 36.9792V45.8333H25H30.2083V36.9792V28.125H25H19.7917V36.9792Z" fill="#37474F"/>
</svg>
