<svg width="75" height="35" viewBox="0 0 75 35" fill="none" xmlns="http://www.w3.org/2000/svg">
<path d="M13.6415 25.972C13.9535 25.972 14.1935 26.116 14.3615 26.404C14.5535 26.692 14.6495 27.088 14.6495 27.592C14.6495 28.552 14.4215 29.296 13.9655 29.824C12.9335 31.096 11.8055 32.14 10.5815 32.956C9.38153 33.772 8.01353 34.18 6.47753 34.18C4.36553 34.18 2.79353 33.22 1.76153 31.3C0.753531 29.38 0.249531 26.896 0.249531 23.848C0.249531 20.92 0.621531 17.584 1.36553 13.84C2.13353 10.096 3.24953 6.88 4.71353 4.192C6.20153 1.504 7.96553 0.159998 10.0055 0.159998C11.1575 0.159998 12.0575 0.699998 12.7055 1.78C13.3775 2.836 13.7135 4.36 13.7135 6.352C13.7135 9.208 12.9215 12.52 11.3375 16.288C9.75353 20.056 7.60553 23.788 4.89353 27.484C5.06153 28.468 5.33753 29.176 5.72153 29.608C6.10553 30.016 6.60953 30.22 7.23353 30.22C8.21753 30.22 9.08153 29.944 9.82553 29.392C10.5695 28.816 11.5175 27.844 12.6695 26.476C12.9575 26.14 13.2815 25.972 13.6415 25.972ZM9.21353 3.724C8.66153 3.724 8.03753 4.72 7.34153 6.712C6.64553 8.704 6.03353 11.176 5.50553 14.128C4.97753 17.08 4.68953 19.912 4.64153 22.624C6.34553 19.816 7.70153 17.008 8.70953 14.2C9.71753 11.368 10.2215 8.788 10.2215 6.46C10.2215 4.636 9.88553 3.724 9.21353 3.724ZM16.4557 14.848C15.4477 14.848 14.6917 14.62 14.1877 14.164C13.6837 13.684 13.4317 13.024 13.4317 12.184C13.4317 11.344 13.7557 10.648 14.4037 10.096C15.0757 9.52 15.9037 9.232 16.8877 9.232C17.7757 9.232 18.4957 9.448 19.0477 9.88C19.5997 10.312 19.8757 10.924 19.8757 11.716C19.8757 12.676 19.5637 13.444 18.9397 14.02C18.3157 14.572 17.4877 14.848 16.4557 14.848ZM16.1677 34.18C14.6077 34.18 13.4677 33.628 12.7477 32.524C12.0517 31.42 11.7037 29.956 11.7037 28.132C11.7037 27.052 11.8357 25.672 12.0997 23.992C12.3877 22.288 12.7477 20.704 13.1797 19.24C13.3957 18.472 13.6837 17.944 14.0437 17.656C14.4037 17.368 14.9797 17.224 15.7717 17.224C16.9957 17.224 17.6077 17.632 17.6077 18.448C17.6077 19.048 17.3797 20.44 16.9237 22.624C16.3477 25.264 16.0597 27.052 16.0597 27.988C16.0597 28.708 16.1557 29.26 16.3477 29.644C16.5397 30.028 16.8637 30.22 17.3197 30.22C17.7517 30.22 18.2917 29.92 18.9397 29.32C19.5877 28.72 20.4517 27.772 21.5317 26.476C21.8197 26.14 22.1437 25.972 22.5037 25.972C22.8157 25.972 23.0557 26.116 23.2237 26.404C23.4157 26.692 23.5117 27.088 23.5117 27.592C23.5117 28.552 23.2837 29.296 22.8277 29.824C20.4517 32.728 18.2317 34.18 16.1677 34.18ZM27.2951 34.972C26.0471 34.972 25.0871 34.684 24.4151 34.108C23.7671 33.532 23.4431 32.884 23.4431 32.164C23.4431 31.54 23.6711 31 24.1271 30.544C24.5831 30.088 25.2551 29.86 26.1431 29.86C26.4551 29.86 26.8151 29.896 27.2231 29.968C27.6551 30.016 27.9791 30.052 28.1951 30.076C28.1711 29.452 28.0271 28.864 27.7631 28.312C27.5231 27.76 27.2111 27.232 26.8271 26.728C26.4431 26.2 26.0831 25.744 25.7471 25.36C25.0031 26.776 24.2591 27.952 23.5151 28.888C22.7951 29.824 22.0031 30.712 21.1391 31.552C20.7071 31.984 20.2511 32.2 19.7711 32.2C19.3871 32.2 19.0751 32.068 18.8351 31.804C18.5951 31.516 18.4751 31.168 18.4751 30.76C18.4751 30.28 18.6431 29.836 18.9791 29.428L19.4471 28.852C20.7671 27.22 21.7631 25.876 22.4351 24.82C22.8431 24.124 23.3231 23.2 23.8751 22.048C24.4271 20.872 24.9671 19.66 25.4951 18.412C25.9511 17.356 26.8991 16.828 28.3391 16.828C29.0111 16.828 29.4791 16.888 29.7431 17.008C30.0071 17.128 30.1391 17.32 30.1391 17.584C30.1391 17.728 30.0911 17.956 29.9951 18.268C29.8991 18.58 29.7671 18.892 29.5991 19.204C29.1671 20.068 28.9511 20.8 28.9511 21.4C28.9511 21.76 29.0711 22.156 29.3111 22.588C29.5751 23.02 29.9711 23.56 30.4991 24.208C31.2671 25.216 31.8431 26.08 32.2271 26.8C32.6351 27.496 32.8391 28.264 32.8391 29.104C32.8391 29.344 32.8151 29.68 32.7671 30.112C33.9431 29.656 35.3231 28.444 36.9071 26.476C37.1951 26.14 37.5191 25.972 37.8791 25.972C38.1911 25.972 38.4311 26.116 38.5991 26.404C38.7911 26.692 38.8871 27.088 38.8871 27.592C38.8871 28.504 38.6591 29.248 38.2031 29.824C37.0031 31.312 35.8511 32.332 34.7471 32.884C33.6671 33.412 32.3231 33.7 30.7151 33.748C29.7551 34.564 28.6151 34.972 27.2951 34.972ZM52.0184 25.972C52.3304 25.972 52.5704 26.116 52.7384 26.404C52.9304 26.692 53.0264 27.088 53.0264 27.592C53.0264 28.552 52.7984 29.296 52.3424 29.824C51.3104 31.096 50.1824 32.14 48.9584 32.956C47.7344 33.772 46.3304 34.18 44.7464 34.18C39.8504 34.18 37.4024 30.736 37.4024 23.848C37.4024 22.792 37.4384 21.724 37.5104 20.644H36.1064C35.3864 20.644 34.8944 20.512 34.6304 20.248C34.3904 19.984 34.2704 19.564 34.2704 18.988C34.2704 17.644 34.8104 16.972 35.8904 16.972H37.9424C38.3504 14.332 38.9744 11.92 39.8144 9.736C40.6544 7.552 41.6624 5.812 42.8384 4.516C44.0384 3.22 45.3224 2.572 46.6904 2.572C47.6984 2.572 48.4904 3.016 49.0664 3.904C49.6424 4.792 49.9304 5.908 49.9304 7.252C49.9304 10.972 48.3704 14.212 45.2504 16.972H49.2824C49.6664 16.972 49.9424 17.056 50.1104 17.224C50.2784 17.392 50.3624 17.704 50.3624 18.16C50.3624 19.816 49.0064 20.644 46.2944 20.644H41.9024C41.8544 21.844 41.8304 22.78 41.8304 23.452C41.8304 25.948 42.1184 27.7 42.6944 28.708C43.2944 29.716 44.2304 30.22 45.5024 30.22C46.5344 30.22 47.4464 29.908 48.2384 29.284C49.0304 28.66 49.9664 27.724 51.0464 26.476C51.3344 26.14 51.6584 25.972 52.0184 25.972ZM45.7184 6.028C45.3584 6.028 44.9504 6.484 44.4944 7.396C44.0624 8.284 43.6424 9.532 43.2344 11.14C42.8504 12.724 42.5264 14.488 42.2624 16.432C43.6784 15.208 44.7344 13.84 45.4304 12.328C46.1504 10.792 46.5104 9.4 46.5104 8.152C46.5104 6.736 46.2464 6.028 45.7184 6.028ZM52.6512 34.18C51.7392 34.18 51.0912 33.7 50.7072 32.74C50.3472 31.78 50.1672 30.244 50.1672 28.132C50.1672 25.012 50.6112 22.048 51.4992 19.24C51.7152 18.544 52.0632 18.04 52.5432 17.728C53.0472 17.392 53.7432 17.224 54.6312 17.224C55.1112 17.224 55.4472 17.284 55.6392 17.404C55.8312 17.524 55.9272 17.752 55.9272 18.088C55.9272 18.472 55.7472 19.336 55.3872 20.68C55.1472 21.64 54.9552 22.48 54.8112 23.2C54.6672 23.92 54.5472 24.808 54.4512 25.864C55.2432 23.8 56.1312 22.12 57.1152 20.824C58.0992 19.528 59.0592 18.604 59.9952 18.052C60.9552 17.5 61.8312 17.224 62.6232 17.224C64.1832 17.224 64.9632 18.004 64.9632 19.564C64.9632 19.876 64.8552 20.632 64.6392 21.832C64.4472 22.792 64.3512 23.392 64.3512 23.632C64.3512 24.472 64.6512 24.892 65.2512 24.892C65.9232 24.892 66.7872 24.364 67.8432 23.308C68.1552 22.996 68.4792 22.84 68.8152 22.84C69.1272 22.84 69.3672 22.984 69.5352 23.272C69.7272 23.536 69.8232 23.896 69.8232 24.352C69.8232 25.24 69.5832 25.936 69.1032 26.44C68.4312 27.136 67.6392 27.736 66.7272 28.24C65.8392 28.72 64.8912 28.96 63.8832 28.96C62.6112 28.96 61.6392 28.636 60.9672 27.988C60.3192 27.34 59.9952 26.464 59.9952 25.36C59.9952 25 60.0312 24.64 60.1032 24.28C60.1512 23.8 60.1752 23.476 60.1752 23.308C60.1752 22.924 60.0432 22.732 59.7792 22.732C59.4192 22.732 58.9392 23.14 58.3392 23.956C57.7632 24.748 57.1872 25.804 56.6112 27.124C56.0352 28.444 55.5672 29.836 55.2072 31.3C54.9432 32.428 54.6312 33.196 54.2712 33.604C53.9352 33.988 53.3952 34.18 52.6512 34.18ZM71.446 14.848C70.438 14.848 69.682 14.62 69.178 14.164C68.674 13.684 68.422 13.024 68.422 12.184C68.422 11.344 68.746 10.648 69.394 10.096C70.066 9.52 70.894 9.232 71.878 9.232C72.766 9.232 73.486 9.448 74.038 9.88C74.59 10.312 74.866 10.924 74.866 11.716C74.866 12.676 74.554 13.444 73.93 14.02C73.306 14.572 72.478 14.848 71.446 14.848ZM67.99 34.18C67.222 34.18 66.694 34.024 66.406 33.712C66.118 33.4 65.974 32.908 65.974 32.236C65.974 32.044 65.998 31.708 66.046 31.228C66.43 26.836 67.066 22.84 67.954 19.24C68.146 18.496 68.458 17.98 68.89 17.692C69.346 17.38 70.066 17.224 71.05 17.224C72.082 17.224 72.598 17.644 72.598 18.484C72.598 18.604 72.574 18.832 72.526 19.168C71.446 24.304 70.798 28.612 70.582 32.092C70.534 32.86 70.306 33.4 69.898 33.712C69.49 34.024 68.854 34.18 67.99 34.18Z" fill="url(#paint0_linear_5_22)"/>
<defs>
<linearGradient id="paint0_linear_5_22" x1="-50.82" y1="-8" x2="128.779" y2="20.0453" gradientUnits="userSpaceOnUse">
<stop stop-color="#FF7E00"/>
<stop offset="1" stop-color="#FF7E00" stop-opacity="0.13"/>
</linearGradient>
</defs>
</svg>
