<svg width="101" height="65" viewBox="0 0 101 65" fill="none" xmlns="http://www.w3.org/2000/svg">
<path d="M28.6415 38.972C28.9535 38.972 29.1935 39.116 29.3615 39.404C29.5535 39.692 29.6495 40.088 29.6495 40.592C29.6495 41.552 29.4215 42.296 28.9655 42.824C27.9335 44.096 26.8055 45.14 25.5815 45.956C24.3815 46.772 23.0135 47.18 21.4775 47.18C19.3655 47.18 17.7935 46.22 16.7615 44.3C15.7535 42.38 15.2495 39.896 15.2495 36.848C15.2495 33.92 15.6215 30.584 16.3655 26.84C17.1335 23.096 18.2495 19.88 19.7135 17.192C21.2015 14.504 22.9655 13.16 25.0055 13.16C26.1575 13.16 27.0575 13.7 27.7055 14.78C28.3775 15.836 28.7135 17.36 28.7135 19.352C28.7135 22.208 27.9215 25.52 26.3375 29.288C24.7535 33.056 22.6055 36.788 19.8935 40.484C20.0615 41.468 20.3375 42.176 20.7215 42.608C21.1055 43.016 21.6095 43.22 22.2335 43.22C23.2175 43.22 24.0815 42.944 24.8255 42.392C25.5695 41.816 26.5175 40.844 27.6695 39.476C27.9575 39.14 28.2815 38.972 28.6415 38.972ZM24.2135 16.724C23.6615 16.724 23.0375 17.72 22.3415 19.712C21.6455 21.704 21.0335 24.176 20.5055 27.128C19.9775 30.08 19.6895 32.912 19.6415 35.624C21.3455 32.816 22.7015 30.008 23.7095 27.2C24.7175 24.368 25.2215 21.788 25.2215 19.46C25.2215 17.636 24.8855 16.724 24.2135 16.724ZM31.4557 27.848C30.4477 27.848 29.6917 27.62 29.1877 27.164C28.6837 26.684 28.4317 26.024 28.4317 25.184C28.4317 24.344 28.7557 23.648 29.4037 23.096C30.0757 22.52 30.9037 22.232 31.8877 22.232C32.7757 22.232 33.4957 22.448 34.0477 22.88C34.5997 23.312 34.8757 23.924 34.8757 24.716C34.8757 25.676 34.5637 26.444 33.9397 27.02C33.3157 27.572 32.4877 27.848 31.4557 27.848ZM31.1677 47.18C29.6077 47.18 28.4677 46.628 27.7477 45.524C27.0517 44.42 26.7037 42.956 26.7037 41.132C26.7037 40.052 26.8357 38.672 27.0997 36.992C27.3877 35.288 27.7477 33.704 28.1797 32.24C28.3957 31.472 28.6837 30.944 29.0437 30.656C29.4037 30.368 29.9797 30.224 30.7717 30.224C31.9957 30.224 32.6077 30.632 32.6077 31.448C32.6077 32.048 32.3797 33.44 31.9237 35.624C31.3477 38.264 31.0597 40.052 31.0597 40.988C31.0597 41.708 31.1557 42.26 31.3477 42.644C31.5397 43.028 31.8637 43.22 32.3197 43.22C32.7517 43.22 33.2917 42.92 33.9397 42.32C34.5877 41.72 35.4517 40.772 36.5317 39.476C36.8197 39.14 37.1437 38.972 37.5037 38.972C37.8157 38.972 38.0557 39.116 38.2237 39.404C38.4157 39.692 38.5117 40.088 38.5117 40.592C38.5117 41.552 38.2837 42.296 37.8277 42.824C35.4517 45.728 33.2317 47.18 31.1677 47.18ZM42.2951 47.972C41.0471 47.972 40.0871 47.684 39.4151 47.108C38.7671 46.532 38.4431 45.884 38.4431 45.164C38.4431 44.54 38.6711 44 39.1271 43.544C39.5831 43.088 40.2551 42.86 41.1431 42.86C41.4551 42.86 41.8151 42.896 42.2231 42.968C42.6551 43.016 42.9791 43.052 43.1951 43.076C43.1711 42.452 43.0271 41.864 42.7631 41.312C42.5231 40.76 42.2111 40.232 41.8271 39.728C41.4431 39.2 41.0831 38.744 40.7471 38.36C40.0031 39.776 39.2591 40.952 38.5151 41.888C37.7951 42.824 37.0031 43.712 36.1391 44.552C35.7071 44.984 35.2511 45.2 34.7711 45.2C34.3871 45.2 34.0751 45.068 33.8351 44.804C33.5951 44.516 33.4751 44.168 33.4751 43.76C33.4751 43.28 33.6431 42.836 33.9791 42.428L34.4471 41.852C35.7671 40.22 36.7631 38.876 37.4351 37.82C37.8431 37.124 38.3231 36.2 38.8751 35.048C39.4271 33.872 39.9671 32.66 40.4951 31.412C40.9511 30.356 41.8991 29.828 43.3391 29.828C44.0111 29.828 44.4791 29.888 44.7431 30.008C45.0071 30.128 45.1391 30.32 45.1391 30.584C45.1391 30.728 45.0911 30.956 44.9951 31.268C44.8991 31.58 44.7671 31.892 44.5991 32.204C44.1671 33.068 43.9511 33.8 43.9511 34.4C43.9511 34.76 44.0711 35.156 44.3111 35.588C44.5751 36.02 44.9711 36.56 45.4991 37.208C46.2671 38.216 46.8431 39.08 47.2271 39.8C47.6351 40.496 47.8391 41.264 47.8391 42.104C47.8391 42.344 47.8151 42.68 47.7671 43.112C48.9431 42.656 50.3231 41.444 51.9071 39.476C52.1951 39.14 52.5191 38.972 52.8791 38.972C53.1911 38.972 53.4311 39.116 53.5991 39.404C53.7911 39.692 53.8871 40.088 53.8871 40.592C53.8871 41.504 53.6591 42.248 53.2031 42.824C52.0031 44.312 50.8511 45.332 49.7471 45.884C48.6671 46.412 47.3231 46.7 45.7151 46.748C44.7551 47.564 43.6151 47.972 42.2951 47.972ZM67.0184 38.972C67.3304 38.972 67.5704 39.116 67.7384 39.404C67.9304 39.692 68.0264 40.088 68.0264 40.592C68.0264 41.552 67.7984 42.296 67.3424 42.824C66.3104 44.096 65.1824 45.14 63.9584 45.956C62.7344 46.772 61.3304 47.18 59.7464 47.18C54.8504 47.18 52.4024 43.736 52.4024 36.848C52.4024 35.792 52.4384 34.724 52.5104 33.644H51.1064C50.3864 33.644 49.8944 33.512 49.6304 33.248C49.3904 32.984 49.2704 32.564 49.2704 31.988C49.2704 30.644 49.8104 29.972 50.8904 29.972H52.9424C53.3504 27.332 53.9744 24.92 54.8144 22.736C55.6544 20.552 56.6624 18.812 57.8384 17.516C59.0384 16.22 60.3224 15.572 61.6904 15.572C62.6984 15.572 63.4904 16.016 64.0664 16.904C64.6424 17.792 64.9304 18.908 64.9304 20.252C64.9304 23.972 63.3704 27.212 60.2504 29.972H64.2824C64.6664 29.972 64.9424 30.056 65.1104 30.224C65.2784 30.392 65.3624 30.704 65.3624 31.16C65.3624 32.816 64.0064 33.644 61.2944 33.644H56.9024C56.8544 34.844 56.8304 35.78 56.8304 36.452C56.8304 38.948 57.1184 40.7 57.6944 41.708C58.2944 42.716 59.2304 43.22 60.5024 43.22C61.5344 43.22 62.4464 42.908 63.2384 42.284C64.0304 41.66 64.9664 40.724 66.0464 39.476C66.3344 39.14 66.6584 38.972 67.0184 38.972ZM60.7184 19.028C60.3584 19.028 59.9504 19.484 59.4944 20.396C59.0624 21.284 58.6424 22.532 58.2344 24.14C57.8504 25.724 57.5264 27.488 57.2624 29.432C58.6784 28.208 59.7344 26.84 60.4304 25.328C61.1504 23.792 61.5104 22.4 61.5104 21.152C61.5104 19.736 61.2464 19.028 60.7184 19.028ZM67.6512 47.18C66.7392 47.18 66.0912 46.7 65.7072 45.74C65.3472 44.78 65.1672 43.244 65.1672 41.132C65.1672 38.012 65.6112 35.048 66.4992 32.24C66.7152 31.544 67.0632 31.04 67.5432 30.728C68.0472 30.392 68.7432 30.224 69.6312 30.224C70.1112 30.224 70.4472 30.284 70.6392 30.404C70.8312 30.524 70.9272 30.752 70.9272 31.088C70.9272 31.472 70.7472 32.336 70.3872 33.68C70.1472 34.64 69.9552 35.48 69.8112 36.2C69.6672 36.92 69.5472 37.808 69.4512 38.864C70.2432 36.8 71.1312 35.12 72.1152 33.824C73.0992 32.528 74.0592 31.604 74.9952 31.052C75.9552 30.5 76.8312 30.224 77.6232 30.224C79.1832 30.224 79.9632 31.004 79.9632 32.564C79.9632 32.876 79.8552 33.632 79.6392 34.832C79.4472 35.792 79.3512 36.392 79.3512 36.632C79.3512 37.472 79.6512 37.892 80.2512 37.892C80.9232 37.892 81.7872 37.364 82.8432 36.308C83.1552 35.996 83.4792 35.84 83.8152 35.84C84.1272 35.84 84.3672 35.984 84.5352 36.272C84.7272 36.536 84.8232 36.896 84.8232 37.352C84.8232 38.24 84.5832 38.936 84.1032 39.44C83.4312 40.136 82.6392 40.736 81.7272 41.24C80.8392 41.72 79.8912 41.96 78.8832 41.96C77.6112 41.96 76.6392 41.636 75.9672 40.988C75.3192 40.34 74.9952 39.464 74.9952 38.36C74.9952 38 75.0312 37.64 75.1032 37.28C75.1512 36.8 75.1752 36.476 75.1752 36.308C75.1752 35.924 75.0432 35.732 74.7792 35.732C74.4192 35.732 73.9392 36.14 73.3392 36.956C72.7632 37.748 72.1872 38.804 71.6112 40.124C71.0352 41.444 70.5672 42.836 70.2072 44.3C69.9432 45.428 69.6312 46.196 69.2712 46.604C68.9352 46.988 68.3952 47.18 67.6512 47.18ZM86.446 27.848C85.438 27.848 84.682 27.62 84.178 27.164C83.674 26.684 83.422 26.024 83.422 25.184C83.422 24.344 83.746 23.648 84.394 23.096C85.066 22.52 85.894 22.232 86.878 22.232C87.766 22.232 88.486 22.448 89.038 22.88C89.59 23.312 89.866 23.924 89.866 24.716C89.866 25.676 89.554 26.444 88.93 27.02C88.306 27.572 87.478 27.848 86.446 27.848ZM82.99 47.18C82.222 47.18 81.694 47.024 81.406 46.712C81.118 46.4 80.974 45.908 80.974 45.236C80.974 45.044 80.998 44.708 81.046 44.228C81.43 39.836 82.066 35.84 82.954 32.24C83.146 31.496 83.458 30.98 83.89 30.692C84.346 30.38 85.066 30.224 86.05 30.224C87.082 30.224 87.598 30.644 87.598 31.484C87.598 31.604 87.574 31.832 87.526 32.168C86.446 37.304 85.798 41.612 85.582 45.092C85.534 45.86 85.306 46.4 84.898 46.712C84.49 47.024 83.854 47.18 82.99 47.18Z" fill="url(#paint0_linear_3_34)"/>
<defs>
<linearGradient id="paint0_linear_3_34" x1="-29.6034" y1="8.125" x2="146.652" y2="80.9783" gradientUnits="userSpaceOnUse">
<stop stop-color="#FF7E00"/>
<stop offset="1" stop-color="#F9CCA6" stop-opacity="0.49"/>
</linearGradient>
</defs>
</svg>
