<svg width="48" height="48" viewBox="0 0 48 48" fill="none" xmlns="http://www.w3.org/2000/svg">
<g clip-path="url(#clip0_42_3171)">
<path d="M25.695 25.575H25.77C26.1975 25.575 26.5425 25.23 26.5425 24.8025V18.3075C27.72 17.82 28.56 16.4775 28.56 14.88C28.56 13.2825 27.72 11.94 26.5425 11.4525V4.9575C26.5425 4.53 26.1975 4.185 25.77 4.185H25.695C25.2675 4.185 24.9225 4.53 24.9225 4.9575V24.8025C24.9225 25.23 25.2675 25.575 25.695 25.575ZM5.96999 28.1625H9.37499C9.64499 28.1625 9.85499 27.945 9.85499 27.675C9.85499 27.495 9.74999 27.33 9.58499 27.24L9.00749 26.9325C8.72249 26.79 8.50499 26.5275 8.40749 26.22L6.85499 19.425H8.14499V10.3275L2.02499 10.335C0.907493 10.335 -0.00750732 11.2425 -0.00750732 12.36V17.4075C-0.00750732 18.525 0.907493 19.4325 2.02499 19.4325H3.00749L4.91249 27.42C5.06249 27.8475 5.48249 28.1625 5.96999 28.1625Z" fill="url(#paint0_linear_42_3171)"/>
<path d="M24.24 5.24249C20.7525 6.83249 15.63 9.09749 8.89502 10.2675V19.5C15.6525 20.6775 20.76 22.9275 24.24 24.525V5.24249ZM29.7675 14.88C29.7675 15.0825 29.9325 15.255 30.1425 15.255H34.8525C35.055 15.255 35.2275 15.09 35.2275 14.88C35.2275 14.6775 35.0625 14.505 34.8525 14.505H30.1425C29.9325 14.5125 29.7675 14.6775 29.7675 14.88ZM29.8875 12.2625C29.9475 12.2625 30.0075 12.2475 30.06 12.2175L34.365 9.95249C34.545 9.85499 34.62 9.62999 34.5225 9.44999C34.425 9.26999 34.2 9.20249 34.02 9.29249L29.715 11.5575C29.535 11.655 29.46 11.88 29.5575 12.06C29.625 12.1875 29.7525 12.2625 29.8875 12.2625ZM29.715 18.2025L34.02 20.4675C34.0725 20.4975 34.1325 20.5125 34.1925 20.5125C34.3275 20.5125 34.455 20.4375 34.5225 20.3175C34.62 20.1375 34.545 19.9125 34.365 19.815L30.06 17.55C29.88 17.4525 29.655 17.52 29.5575 17.7075C29.46 17.8875 29.535 18.1125 29.715 18.2025Z" fill="url(#paint1_linear_42_3171)"/>
<path d="M47.2575 42.3225H45.5475V13.125C45.5475 12.9225 45.3825 12.75 45.1725 12.75H41.9625C41.76 12.75 41.5875 12.915 41.5875 13.125V42.3225H38.46V25.155C38.46 24.9525 38.295 24.78 38.085 24.78H34.875C34.6725 24.78 34.5 24.945 34.5 25.155V42.3225H31.3725V35.985C31.3725 35.7825 31.2075 35.61 30.9975 35.61H27.7875C27.585 35.61 27.4125 35.775 27.4125 35.985V42.3225H24.285V31.47C24.285 31.2675 24.12 31.095 23.91 31.095H20.7C20.4975 31.095 20.325 31.26 20.325 31.47V42.3225H17.1975V28.53C17.1975 28.3275 17.0325 28.155 16.8225 28.155H13.6125C13.41 28.155 13.2375 28.32 13.2375 28.53V42.3225H10.11V34.5C10.11 34.2975 9.94501 34.125 9.73501 34.125H6.58501C6.38251 34.125 6.21001 34.29 6.21001 34.5V42.3225H4.50751C4.09501 42.3225 3.76501 42.66 3.76501 43.065C3.76501 43.4775 4.10251 43.8075 4.50751 43.8075H47.2575C47.67 43.8075 48 43.47 48 43.065C48 42.66 47.6625 42.3225 47.2575 42.3225Z" fill="url(#paint2_linear_42_3171)"/>
</g>
<defs>
<linearGradient id="paint0_linear_42_3171" x1="14.2762" y1="4.185" x2="14.2762" y2="28.1625" gradientUnits="userSpaceOnUse">
<stop stop-color="#FF7E00"/>
<stop offset="1" stop-color="#FF7E00" stop-opacity="0.49"/>
</linearGradient>
<linearGradient id="paint1_linear_42_3171" x1="22.0613" y1="5.24249" x2="22.0613" y2="24.525" gradientUnits="userSpaceOnUse">
<stop stop-color="#FF7E00"/>
<stop offset="1" stop-color="#FF7E00" stop-opacity="0.49"/>
</linearGradient>
<linearGradient id="paint2_linear_42_3171" x1="25.8825" y1="12.75" x2="25.8825" y2="43.8075" gradientUnits="userSpaceOnUse">
<stop stop-color="#FF7E00"/>
<stop offset="1" stop-color="#FF7E00" stop-opacity="0.49"/>
</linearGradient>
<clipPath id="clip0_42_3171">
<rect width="48" height="48" fill="white"/>
</clipPath>
</defs>
</svg>
