<svg width="212" height="163" viewBox="0 0 212 163" fill="none" xmlns="http://www.w3.org/2000/svg">
<path d="M145.75 160.453H66.25C65.3715 160.453 64.5289 160.185 63.9077 159.707C63.2865 159.23 62.9375 158.582 62.9375 157.906C62.9375 157.231 63.2865 156.583 63.9077 156.105C64.5289 155.628 65.3715 155.359 66.25 155.359H145.75C146.629 155.359 147.471 155.628 148.092 156.105C148.714 156.583 149.062 157.231 149.062 157.906C149.062 158.582 148.714 159.23 148.092 159.707C147.471 160.185 146.629 160.453 145.75 160.453ZM175.562 7.64062H36.4375C35.559 7.64063 34.7164 7.90896 34.0952 8.38659C33.474 8.86422 33.125 9.51203 33.125 10.1875V28.0156H178.875V10.1875C178.875 9.51203 178.526 8.86422 177.905 8.38659C177.284 7.90896 176.441 7.64063 175.562 7.64062V7.64062ZM102.688 20.375H46.375C45.4965 20.375 44.6539 20.1067 44.0327 19.629C43.4115 19.1514 43.0625 18.5036 43.0625 17.8281C43.0625 17.1527 43.4115 16.5048 44.0327 16.0272C44.6539 15.5496 45.4965 15.2812 46.375 15.2812H102.688C103.566 15.2812 104.409 15.5496 105.03 16.0272C105.651 16.5048 106 17.1527 106 17.8281C106 18.5036 105.651 19.1514 105.03 19.629C104.409 20.1067 103.566 20.375 102.688 20.375ZM122.562 22.9219C121.252 22.9219 119.971 22.6231 118.882 22.0634C117.792 21.5037 116.943 20.7082 116.442 19.7774C115.94 18.8467 115.809 17.8225 116.065 16.8344C116.32 15.8463 116.951 14.9387 117.878 14.2263C118.804 13.5139 119.985 13.0288 121.27 12.8322C122.555 12.6357 123.887 12.7366 125.098 13.1221C126.308 13.5076 127.343 14.1605 128.071 14.9982C128.799 15.8359 129.188 16.8207 129.188 17.8281C129.188 19.1791 128.49 20.4747 127.247 21.4299C126.005 22.3852 124.32 22.9219 122.562 22.9219ZM142.438 22.9219C141.127 22.9219 139.846 22.6231 138.757 22.0634C137.667 21.5037 136.818 20.7082 136.317 19.7774C135.815 18.8467 135.684 17.8225 135.94 16.8344C136.195 15.8463 136.826 14.9387 137.753 14.2263C138.679 13.5139 139.86 13.0288 141.145 12.8322C142.43 12.6357 143.762 12.7366 144.973 13.1221C146.183 13.5076 147.218 14.1605 147.946 14.9982C148.674 15.8359 149.062 16.8207 149.062 17.8281C149.062 19.1791 148.365 20.4747 147.122 21.4299C145.88 22.3852 144.195 22.9219 142.438 22.9219ZM162.312 22.9219C161.002 22.9219 159.721 22.6231 158.632 22.0634C157.542 21.5037 156.693 20.7082 156.192 19.7774C155.69 18.8467 155.559 17.8225 155.815 16.8344C156.07 15.8463 156.701 14.9387 157.628 14.2263C158.554 13.5139 159.735 13.0288 161.02 12.8322C162.305 12.6357 163.637 12.7366 164.848 13.1221C166.058 13.5076 167.093 14.1605 167.821 14.9982C168.549 15.8359 168.938 16.8207 168.938 17.8281C168.938 19.1791 168.24 20.4747 166.997 21.4299C165.755 22.3852 164.07 22.9219 162.312 22.9219ZM33.125 33.1094V84.0469C33.125 84.7223 33.474 85.3702 34.0952 85.8478C34.7164 86.3254 35.559 86.5938 36.4375 86.5938H175.562C176.441 86.5938 177.284 86.3254 177.905 85.8478C178.526 85.3702 178.875 84.7223 178.875 84.0469V33.1094H33.125ZM52.4369 67.3648C52.9163 67.9263 53.0878 68.6107 52.9141 69.269C52.7404 69.9272 52.2355 70.5061 51.5094 70.8795C50.9759 71.1668 50.3387 71.3182 49.6875 71.3125C49.1419 71.3103 48.6055 71.2046 48.1258 71.0046C47.6462 70.8047 47.2382 70.5168 46.9381 70.1664L40.3131 62.5258C39.9569 62.1099 39.7671 61.6229 39.7671 61.125C39.7671 60.6271 39.9569 60.1401 40.3131 59.7242L46.9381 52.0836C47.4559 51.5894 48.1949 51.2616 49.0105 51.1644C49.8261 51.0672 50.6596 51.2077 51.3476 51.5582C52.0356 51.9087 52.5286 52.4441 52.7301 53.0595C52.9316 53.6749 52.827 54.3259 52.4369 54.8852L47.0375 61.125L52.4369 67.3648ZM69.5625 51.9053L62.9375 71.6181C62.7497 72.1785 62.3193 72.673 61.7173 73.0202C61.1152 73.3674 60.3772 73.5466 59.625 73.5283C59.3499 73.5532 59.072 73.5532 58.7969 73.5283C58.3547 73.4545 57.9369 73.3119 57.5692 73.1092C57.2015 72.9065 56.8917 72.648 56.659 72.3497C56.4262 72.0514 56.2754 71.7196 56.2158 71.3748C56.1562 71.0299 56.1891 70.6794 56.3125 70.3447L62.9375 50.6319C63.1571 49.9767 63.7063 49.4154 64.4642 49.0715C65.2221 48.7276 66.1266 48.6293 66.9787 48.7981C67.8309 48.967 68.5609 49.3892 69.0082 49.9719C69.4555 50.5546 69.5834 51.2501 69.3638 51.9053H69.5625ZM85.6613 62.5258L79.0363 70.1664C78.727 70.5277 78.3033 70.8225 77.8049 71.023C77.3065 71.2235 76.7498 71.3232 76.1875 71.3125C75.5363 71.3182 74.8991 71.1668 74.3656 70.8795C73.6395 70.5061 73.1346 69.9272 72.9609 69.269C72.7872 68.6107 72.9587 67.9263 73.4381 67.3648L78.8375 61.125L73.4381 54.8852C73.149 54.6092 72.938 54.2898 72.8185 53.9476C72.699 53.6053 72.6738 53.2477 72.7444 52.8975C72.815 52.5473 72.9798 52.2123 73.2284 51.9138C73.477 51.6154 73.8039 51.3602 74.1881 51.1644C74.5723 50.9687 75.0054 50.8367 75.4597 50.777C75.914 50.7173 76.3795 50.7312 76.8265 50.8177C77.2734 50.9042 77.692 51.0615 78.0554 51.2794C78.4188 51.4974 78.719 51.7713 78.9369 52.0836L85.5619 59.7242C85.9181 60.1401 86.1079 60.6271 86.1079 61.125C86.1079 61.6229 85.9181 62.1099 85.5619 62.5258H85.6613ZM172.25 73.8594C172.25 75.8858 171.203 77.8292 169.339 79.2621C167.476 80.695 164.948 81.5 162.312 81.5H106C103.364 81.5 100.837 80.695 98.9731 79.2621C97.1095 77.8292 96.0625 75.8858 96.0625 73.8594V48.3906C96.0625 46.3642 97.1095 44.4208 98.9731 42.9879C100.837 41.555 103.364 40.75 106 40.75H162.312C164.948 40.75 167.476 41.555 169.339 42.9879C171.203 44.4208 172.25 46.3642 172.25 48.3906V73.8594Z" fill="url(#paint0_linear_52_144)" fill-opacity="0.2"/>
<path d="M195.438 30.5625V99.3281H16.5626V30.5625C16.5516 28.0901 17.4883 25.67 19.2557 23.6045C21.0231 21.539 23.5428 19.9197 26.5001 18.9487V84.0469C26.5001 86.0733 27.5471 88.0167 29.4107 89.4496C31.2744 90.8825 33.802 91.6875 36.4376 91.6875H175.563C178.198 91.6875 180.726 90.8825 182.589 89.4496C184.453 88.0167 185.5 86.0733 185.5 84.0469V18.9487C188.457 19.9197 190.977 21.539 192.745 23.6045C194.512 25.67 195.449 28.0901 195.438 30.5625V30.5625Z" fill="url(#paint1_linear_52_144)" fill-opacity="0.2"/>
<path d="M135.448 155.359H76.5518L87.9136 129.891H124.086L135.448 155.359Z" fill="url(#paint2_linear_52_144)" fill-opacity="0.2"/>
<path d="M16.5625 104.422V112.063C16.5625 115.44 18.3075 118.679 21.4135 121.067C24.5196 123.455 28.7324 124.797 33.125 124.797H178.875C183.268 124.797 187.48 123.455 190.586 121.067C193.693 118.679 195.438 115.44 195.438 112.063V104.422H16.5625ZM109.312 117.156H102.688C101.809 117.156 100.966 116.888 100.345 116.41C99.724 115.933 99.375 115.285 99.375 114.609C99.375 113.934 99.724 113.286 100.345 112.808C100.966 112.331 101.809 112.063 102.688 112.063H109.312C110.191 112.063 111.034 112.331 111.655 112.808C112.276 113.286 112.625 113.934 112.625 114.609C112.625 115.285 112.276 115.933 111.655 116.41C111.034 116.888 110.191 117.156 109.312 117.156ZM126.306 76.4063H107.358L115.938 69.8863C116.282 69.6128 116.702 69.4023 117.166 69.27C117.631 69.1378 118.128 69.0873 118.621 69.1222C119.109 69.1634 119.579 69.2876 119.998 69.4859C120.416 69.6841 120.771 69.9514 121.039 70.2683L126.306 76.4063ZM161.551 76.4063H134.256L130.016 71.4908L139.953 62.2202C140.261 61.936 140.646 61.7067 141.08 61.5484C141.515 61.3901 141.99 61.3064 142.471 61.3033C142.946 61.274 143.424 61.3381 143.858 61.4895C144.293 61.641 144.67 61.8749 144.955 62.1693L161.551 76.4063Z" fill="url(#paint3_linear_52_144)" fill-opacity="0.2"/>
<path d="M162.312 45.8438H106C105.121 45.8438 104.279 46.1121 103.658 46.5897C103.036 47.0673 102.688 47.7152 102.688 48.3906V72.8152L111.168 66.2187C112.176 65.4509 113.386 64.858 114.718 64.4799C116.049 64.1019 117.47 63.9475 118.886 64.0271C120.301 64.1067 121.678 64.4186 122.924 64.9416C124.169 65.4646 125.255 66.1867 126.107 67.0592L134.951 58.9092C135.874 58.0724 137.02 57.3981 138.312 56.9323C139.604 56.4664 141.011 56.2199 142.438 56.2095V56.2095C143.838 56.2081 145.223 56.4343 146.502 56.8732C147.78 57.3121 148.924 57.9539 149.858 58.7564L165.625 72.2548V48.3906C165.625 47.7152 165.276 47.0673 164.655 46.5897C164.034 46.1121 163.191 45.8438 162.312 45.8438ZM119.25 61.125C117.94 61.125 116.659 60.8263 115.569 60.2665C114.48 59.7068 113.631 58.9113 113.129 57.9805C112.628 57.0498 112.497 56.0256 112.752 55.0375C113.008 54.0494 113.639 53.1418 114.565 52.4294C115.492 51.7171 116.672 51.2319 117.958 51.0354C119.243 50.8388 120.575 50.9397 121.785 51.3252C122.996 51.7108 124.031 52.3636 124.758 53.2013C125.486 54.039 125.875 55.0238 125.875 56.0312C125.875 57.3822 125.177 58.6778 123.935 59.6331C122.692 60.5883 121.007 61.125 119.25 61.125Z" fill="url(#paint4_linear_52_144)" fill-opacity="0.2"/>
<defs>
<linearGradient id="paint0_linear_52_144" x1="106" y1="7.64062" x2="106" y2="160.453" gradientUnits="userSpaceOnUse">
<stop stop-color="#FF7E00"/>
<stop offset="1" stop-color="#FF7E00" stop-opacity="0.49"/>
</linearGradient>
<linearGradient id="paint1_linear_52_144" x1="106" y1="18.9487" x2="106" y2="99.3281" gradientUnits="userSpaceOnUse">
<stop stop-color="#FF7E00"/>
<stop offset="1" stop-color="#FF7E00" stop-opacity="0.49"/>
</linearGradient>
<linearGradient id="paint2_linear_52_144" x1="106" y1="129.891" x2="106" y2="155.359" gradientUnits="userSpaceOnUse">
<stop stop-color="#FF7E00"/>
<stop offset="1" stop-color="#FF7E00" stop-opacity="0.49"/>
</linearGradient>
<linearGradient id="paint3_linear_52_144" x1="106" y1="61.2964" x2="106" y2="124.797" gradientUnits="userSpaceOnUse">
<stop stop-color="#FF7E00"/>
<stop offset="1" stop-color="#FF7E00" stop-opacity="0.49"/>
</linearGradient>
<linearGradient id="paint4_linear_52_144" x1="134.156" y1="45.8438" x2="134.156" y2="72.8152" gradientUnits="userSpaceOnUse">
<stop stop-color="#FF7E00"/>
<stop offset="1" stop-color="#FF7E00" stop-opacity="0.49"/>
</linearGradient>
</defs>
</svg>
