<svg width="48" height="49" viewBox="0 0 48 49" fill="none" xmlns="http://www.w3.org/2000/svg">
<path d="M45.0651 9.40382C45.0651 9.45332 45.0606 9.49452 45.0546 9.52677C43.8283 10.3705 36.9718 14.8998 35.6901 15.7218C35.5551 15.7248 35.2124 15.6791 34.7234 15.4218C34.2021 15.148 32.6826 14.2953 30.5571 13.0825L28.9034 12.139L27.3449 13.2333C26.1861 14.0493 23.6669 15.9903 19.8314 19.825C15.9794 23.6763 14.0444 26.1865 13.2329 27.3408L12.1386 28.8993L13.0836 30.553C13.9994 32.1558 15.0967 34.0923 15.4274 34.7223C15.6936 35.2278 15.7147 35.5736 15.7147 35.6673C15.7147 35.6823 15.7147 35.6951 15.7131 35.7056C14.9931 36.8539 10.3416 43.8589 9.49406 45.0956C9.37406 45.1158 9.11306 45.0971 8.78681 44.8698C6.14981 42.9663 3.39806 40.2648 3.00356 39.2073C3.26756 33.5808 8.21231 25.6856 16.9521 16.9473C25.6926 8.20982 33.5796 3.26582 39.1873 3.00482C40.2478 3.38432 42.9666 6.13677 44.8551 8.74827C44.9878 8.94177 45.0651 9.18102 45.0651 9.40382ZM47.9715 9.40377C47.9715 8.60952 47.7315 7.76718 47.223 7.03668C47.1735 6.96618 42.1485 -0.0928244 39.2385 0.000925594C31.062 0.261176 21.4523 8.20668 14.8305 14.8261C8.2103 21.4456 0.261797 31.0554 0 39.2641V39.3316C0 42.2056 6.969 47.2576 7.038 47.3064C8.93175 48.6324 11.0168 48.1486 11.8635 46.9419C12.3795 46.2076 17.7218 38.1736 18.3233 37.1889C18.5858 36.7599 18.714 36.2364 18.714 35.6672C18.714 34.9329 18.4995 34.1199 18.0825 33.3265C17.6753 32.5532 16.3425 30.211 15.6878 29.065C16.3966 28.0554 18.2131 25.684 21.9533 21.9475C25.665 18.2342 28.056 16.4012 29.0708 15.688C30.216 16.3412 32.5583 17.6725 33.3293 18.0775C34.7828 18.8447 36.234 18.9318 37.2128 18.3093C38.1353 17.725 46.11 12.4045 46.869 11.8555C47.5853 11.3373 47.9715 10.4095 47.9715 9.40377Z" fill="url(#paint0_linear_13_4)"/>
<defs>
<linearGradient id="paint0_linear_13_4" x1="23.9858" y1="0" x2="23.9858" y2="48.1" gradientUnits="userSpaceOnUse">
<stop stop-color="white"/>
<stop offset="1" stop-color="white"/>
</linearGradient>
</defs>
</svg>
