<svg width="175" height="175" viewBox="0 0 175 175" fill="none" xmlns="http://www.w3.org/2000/svg">
<path fill-rule="evenodd" clip-rule="evenodd" d="M86.078 75.4141C86.0031 75.5043 85.8479 75.5781 85.733 75.5781C85.6182 75.5781 85.4959 75.652 85.4613 75.7422C85.4267 75.8324 85.3298 75.9062 85.246 75.9062C85.1622 75.9062 85.0936 75.9801 85.0936 76.0703C85.0936 76.1605 85.0198 76.2344 84.9296 76.2344C84.8393 76.2344 84.7655 76.2815 84.7655 76.3392C84.7655 76.4914 83.9471 77.3281 83.7981 77.3281C83.7286 77.3281 83.6718 77.376 83.6718 77.4347C83.6718 77.4932 83.4503 77.7626 83.1796 78.0333C82.9089 78.304 82.6874 78.5755 82.6874 78.6368C82.6874 78.698 82.5889 78.8096 82.4686 78.8847C82.3483 78.9599 82.2499 79.0601 82.2499 79.1073C82.2499 79.1546 82.0284 79.4148 81.7577 79.6855C81.487 79.9562 81.2655 80.2256 81.2655 80.2841C81.2655 80.3427 81.1917 80.3906 81.1014 80.3906C81.0112 80.3906 80.9374 80.466 80.9374 80.5581C80.9374 80.6503 80.8636 80.754 80.7733 80.7885C80.6831 80.8232 80.609 80.9077 80.6087 80.9765C80.6085 81.0453 80.4362 81.2889 80.2259 81.5178C80.0157 81.7468 79.8436 81.9805 79.8436 82.0374C79.8436 82.0941 79.7698 82.1406 79.6796 82.1406C79.5893 82.1406 79.5155 82.2145 79.5155 82.3047C79.5155 82.3949 79.4696 82.4687 79.4135 82.4687C79.3574 82.4687 79.2821 82.5614 79.2462 82.6745C79.1886 82.856 79.0723 83.0209 78.6426 83.5306C78.5812 83.6032 78.5311 83.6894 78.5311 83.722C78.5311 83.7546 78.4449 83.8797 78.3397 84C78.2345 84.1203 78.0621 84.3172 77.9569 84.4375C77.8517 84.5578 77.7655 84.7031 77.7655 84.7602C77.7655 84.8174 77.704 84.9034 77.6288 84.9516C77.4753 85.0498 77.2708 85.3547 77.1117 85.7227C77.0531 85.858 76.9548 85.9687 76.8932 85.9687C76.8316 85.9687 76.7811 86.0441 76.7811 86.1362C76.7811 86.2284 76.7073 86.3321 76.6171 86.3667C76.5268 86.4013 76.453 86.5067 76.453 86.6007C76.453 86.6949 76.3712 86.8622 76.2713 86.9726C76.06 87.206 75.8298 87.5824 75.731 87.8555C75.693 87.9607 75.6184 88.0469 75.5652 88.0469C75.5122 88.0469 75.4686 88.1114 75.4686 88.1903C75.4686 88.2692 75.3824 88.4319 75.2772 88.5518C75.007 88.8595 74.8279 89.148 74.6908 89.4961C74.6256 89.6616 74.5317 89.7969 74.4823 89.7969C74.4327 89.7969 74.3598 89.9445 74.3202 90.125C74.2806 90.3055 74.2062 90.4531 74.1552 90.4531C74.104 90.4531 73.948 90.687 73.8084 90.9727C73.669 91.2583 73.5218 91.5173 73.4813 91.548C73.4409 91.5787 73.3749 91.735 73.3346 91.8956C73.2944 92.056 73.192 92.214 73.1072 92.2464C73.0223 92.279 72.953 92.4249 72.953 92.5708C72.953 92.7166 72.8792 92.8643 72.7889 92.899C72.6987 92.9335 72.6249 93.0583 72.6249 93.1762C72.6249 93.2941 72.5511 93.4644 72.4608 93.5547C72.3706 93.6449 72.2968 93.8222 72.2968 93.9488C72.2968 94.0753 72.2259 94.2059 72.1394 94.2391C72.0528 94.2724 71.9505 94.443 71.912 94.6186C71.8734 94.794 71.7988 94.9375 71.7462 94.9375C71.6934 94.9375 71.618 95.1103 71.5784 95.3215C71.5388 95.5327 71.4641 95.7317 71.4124 95.7636C71.3606 95.7955 71.2659 96.0165 71.2018 96.2546C71.1376 96.4927 71.0379 96.6875 70.98 96.6875C70.9222 96.6875 70.8749 96.8045 70.8749 96.9476C70.8749 97.0905 70.8011 97.2688 70.7108 97.3437C70.6206 97.4187 70.5468 97.5688 70.5468 97.6775C70.5468 97.7861 70.4729 97.9488 70.3827 98.039C70.2925 98.1293 70.2186 98.3202 70.2186 98.4634C70.2186 98.6067 70.1463 98.8193 70.0581 98.9361C69.9697 99.0528 69.8955 99.2469 69.8932 99.3672C69.8909 99.4875 69.7913 99.7336 69.6718 99.9141C69.5522 100.095 69.4541 100.377 69.4538 100.543C69.4533 100.708 69.4096 100.844 69.3567 100.844C69.3036 100.844 69.2052 101.062 69.1379 101.329C69.0706 101.597 68.9664 101.846 68.9062 101.883C68.846 101.92 68.7968 102.075 68.7968 102.228C68.7968 102.38 68.7259 102.636 68.6393 102.796C68.5526 102.955 68.452 103.271 68.4156 103.496C68.3792 103.722 68.3087 103.906 68.2592 103.906C68.2095 103.906 68.1428 104.138 68.1108 104.422C68.0788 104.706 67.9985 104.956 67.9325 104.978C67.8664 105 67.8124 105.181 67.8124 105.38C67.8124 105.579 67.715 105.956 67.596 106.219C67.477 106.481 67.3786 106.845 67.3773 107.029C67.376 107.212 67.3244 107.413 67.2626 107.475C67.2009 107.537 67.1197 107.854 67.0823 108.18C67.0449 108.506 66.9478 108.871 66.8665 108.989C66.7851 109.108 66.7186 109.431 66.7186 109.707C66.7186 109.982 66.6463 110.304 66.5581 110.421C66.4697 110.537 66.3959 110.858 66.394 111.132C66.392 111.407 66.3218 111.875 66.2378 112.171C66.1539 112.468 66.0565 113.052 66.0214 113.469C65.9863 113.885 65.9144 114.255 65.8616 114.289C65.8087 114.323 65.7387 114.868 65.7058 115.5C65.673 116.132 65.5875 116.796 65.5157 116.977C65.3022 117.514 65.1553 120.765 65.1549 124.961C65.1545 129.203 65.2942 132.054 65.5622 133.273C65.6547 133.695 65.7313 134.361 65.7324 134.755C65.7334 135.149 65.7804 135.519 65.8369 135.576C65.8933 135.633 65.9734 135.937 66.0148 136.252C66.077 136.725 66.0592 136.836 65.9122 136.893C65.8143 136.93 65.7343 137.004 65.7343 137.057C65.7343 137.156 65.5031 137.466 65.16 137.829C65.0548 137.94 64.9686 138.08 64.9686 138.141C64.9686 138.201 64.8948 138.25 64.8046 138.25C64.7143 138.25 64.6405 138.301 64.6405 138.363C64.6405 138.425 64.4929 138.62 64.3124 138.797C64.1319 138.973 63.984 139.156 63.9837 139.203C63.9835 139.25 63.8112 139.476 63.6009 139.705C63.3907 139.934 63.2166 140.156 63.214 140.198C63.2114 140.239 63.0638 140.394 62.8859 140.542C62.708 140.689 62.5624 140.874 62.5624 140.952C62.5624 141.03 62.5198 141.094 62.4679 141.094C62.4159 141.094 62.2313 141.302 62.0577 141.557C61.8841 141.811 61.5099 142.256 61.2259 142.545C60.9421 142.835 60.6239 143.217 60.5188 143.395C60.4137 143.573 60.2891 143.719 60.2419 143.719C60.1947 143.719 60.1561 143.783 60.1561 143.861C60.1561 143.939 60.0106 144.123 59.8326 144.271C59.6548 144.418 59.5071 144.572 59.5045 144.612C59.502 144.652 59.34 144.85 59.1444 145.053C58.9489 145.256 58.6659 145.604 58.5155 145.827C58.3651 146.05 58.2052 146.233 58.16 146.234C58.1149 146.234 58.078 146.308 58.078 146.398C58.078 146.489 58.0042 146.562 57.9139 146.562C57.8237 146.562 57.7499 146.613 57.7499 146.676C57.7499 146.738 57.6074 146.928 57.433 147.098C57.2588 147.269 56.9815 147.612 56.8169 147.86C56.6524 148.109 56.475 148.312 56.4228 148.312C56.3707 148.312 56.328 148.386 56.328 148.477C56.328 148.567 56.2542 148.641 56.1639 148.641C56.0737 148.641 55.9999 148.691 55.9999 148.754C55.9999 148.816 55.8522 149.011 55.6718 149.187C55.4913 149.364 55.3436 149.537 55.3436 149.571C55.3436 149.643 55.1797 149.855 54.8241 150.242C54.6888 150.389 54.578 150.534 54.578 150.563C54.578 150.593 54.4304 150.761 54.2499 150.937C54.0694 151.114 53.9218 151.285 53.9218 151.317C53.9218 151.349 53.8357 151.47 53.7304 151.586C53.4149 151.934 53.3129 152.076 53.2361 152.277C53.1958 152.383 53.1123 152.469 53.0501 152.469C52.9881 152.469 52.9374 152.567 52.9374 152.687C52.9374 152.808 52.8943 152.906 52.8417 152.906C52.7075 152.906 51.8436 154.662 51.8436 154.935C51.8436 155.059 51.7892 155.214 51.7226 155.28C51.6559 155.347 51.5254 155.763 51.4325 156.205C51.1772 157.418 51.1058 167.006 51.3483 167.517C51.4403 167.71 51.5155 167.901 51.5155 167.94C51.5155 168.11 52.6192 169.094 52.8103 169.094C52.9266 169.094 53.1801 169.16 53.3737 169.242C53.677 169.369 53.823 169.365 54.4269 169.207C54.8125 169.107 55.1864 168.967 55.2577 168.895C55.329 168.824 55.4454 168.766 55.5162 168.766C55.587 168.766 55.7062 168.692 55.7811 168.602C55.8561 168.511 56.0113 168.437 56.1261 168.437C56.2409 168.437 56.3632 168.364 56.3978 168.273C56.4325 168.183 56.5786 168.109 56.7225 168.109C56.8665 168.109 56.9843 168.064 56.9843 168.008C56.9843 167.952 57.247 167.782 57.5681 167.63C57.8893 167.478 58.2153 167.278 58.2925 167.185C58.3697 167.092 58.5254 167.016 58.6382 167.016C58.7512 167.016 58.8436 166.971 58.8436 166.917C58.8436 166.863 58.9913 166.767 59.1718 166.704C59.3522 166.641 59.4999 166.538 59.4999 166.474C59.4999 166.411 59.6245 166.359 59.7767 166.359C59.9291 166.359 60.082 166.286 60.1165 166.195C60.1512 166.105 60.2629 166.031 60.3647 166.031C60.4665 166.031 60.6048 165.976 60.6719 165.909C60.7979 165.783 61.1026 165.596 61.578 165.353C61.7284 165.276 61.9165 165.151 61.9959 165.076C62.0754 165 62.2355 164.937 62.3514 164.937C62.4674 164.937 62.5624 164.886 62.5624 164.822C62.5624 164.759 62.71 164.656 62.8905 164.593C63.071 164.53 63.2186 164.434 63.2186 164.38C63.2186 164.326 63.3111 164.281 63.424 164.281C63.5369 164.281 63.6906 164.207 63.7655 164.117C63.8404 164.027 63.9941 163.953 64.107 163.953C64.22 163.953 64.3124 163.904 64.3124 163.844C64.3124 163.783 64.6323 163.583 65.0233 163.398C65.4143 163.213 65.7343 163.017 65.7343 162.961C65.7343 162.905 65.8267 162.859 65.9397 162.859C66.0525 162.859 66.2062 162.786 66.2811 162.695C66.3561 162.605 66.4866 162.531 66.5714 162.531C66.6562 162.531 66.7539 162.457 66.7884 162.367C66.8231 162.277 66.9707 162.203 67.1165 162.203C67.2624 162.203 67.4101 162.129 67.4447 162.039C67.4793 161.949 67.627 161.875 67.7728 161.875C67.9187 161.875 68.0664 161.801 68.1009 161.711C68.1356 161.621 68.2213 161.547 68.2914 161.547C68.3616 161.547 68.6805 161.375 69.0002 161.164C69.3199 160.954 69.6457 160.781 69.7243 160.781C69.8028 160.781 69.8954 160.707 69.9301 160.617C69.9647 160.527 70.0945 160.453 70.2186 160.453C70.3428 160.453 70.4726 160.379 70.5072 160.289C70.5418 160.199 70.6895 160.125 70.8353 160.125C70.9812 160.125 71.1289 160.051 71.1634 159.961C71.1981 159.871 71.297 159.797 71.3831 159.797C71.528 159.797 72.1693 159.4 72.2979 159.231C72.3286 159.191 72.4849 159.125 72.6454 159.085C72.8059 159.044 72.9638 158.942 72.9963 158.857C73.0289 158.772 73.178 158.703 73.3277 158.703C73.5375 158.703 73.669 158.822 73.9002 159.223C74.0652 159.508 74.2278 159.767 74.2613 159.797C74.2948 159.827 74.4203 160.048 74.54 160.289C74.6597 160.53 74.8193 160.766 74.8944 160.814C74.9697 160.862 75.0311 160.999 75.0311 161.118C75.0311 161.237 75.105 161.363 75.1952 161.398C75.2854 161.433 75.3593 161.523 75.3593 161.6C75.3593 161.676 75.4331 161.8 75.5233 161.875C75.7106 162.03 75.7519 162.97 75.5791 163.143C75.5195 163.202 75.4398 163.495 75.4019 163.793C75.3641 164.092 75.2652 164.445 75.1821 164.578C75.0991 164.711 75.0311 165.034 75.0311 165.296C75.0311 165.557 74.9588 165.866 74.8706 165.983C74.7822 166.1 74.7081 166.368 74.7059 166.578C74.7036 166.789 74.6281 167.102 74.5383 167.274C74.4484 167.447 74.3749 167.768 74.3749 167.988C74.3749 168.209 74.2989 168.497 74.2059 168.63C74.1129 168.763 74.0077 169.131 73.9721 169.447C73.9365 169.764 73.8617 170.082 73.8058 170.153C73.75 170.224 73.676 170.557 73.6412 170.894C73.6064 171.231 73.5358 171.532 73.4842 171.564C73.352 171.646 73.3667 172.922 73.4999 172.922C73.56 172.922 73.6093 173.047 73.6093 173.2C73.6093 173.571 74.6388 174.616 75.0877 174.701C75.2671 174.735 75.6108 174.815 75.8514 174.879C76.1452 174.957 79.8474 174.995 87.1171 174.995C97.2766 174.994 97.9921 174.982 98.7059 174.793C99.1243 174.683 99.4852 174.536 99.5079 174.468C99.5307 174.4 99.6437 174.344 99.759 174.344C99.8744 174.344 99.9686 174.293 99.9686 174.231C99.9686 174.169 100.11 173.979 100.283 173.811C100.6 173.501 100.749 173.008 100.752 172.266C100.754 171.617 100.601 170.574 100.494 170.505C100.438 170.469 100.355 170.173 100.31 169.848C100.265 169.524 100.17 169.15 100.098 169.019C100.027 168.887 99.9686 168.591 99.9686 168.36C99.9686 168.128 99.9014 167.842 99.8191 167.724C99.7369 167.605 99.6155 167.237 99.5495 166.906C99.224 165.275 99.1565 164.988 99.0864 164.937C99.0449 164.907 98.9741 164.612 98.9292 164.281C98.8844 163.95 98.7799 163.583 98.6973 163.464C98.4864 163.162 98.4904 161.875 98.7022 161.875C98.7876 161.875 98.89 161.727 98.9296 161.547C98.9692 161.366 99.0357 161.219 99.0772 161.219C99.1189 161.219 99.2749 160.985 99.4241 160.699C99.5731 160.414 99.7568 160.14 99.8319 160.092C99.9072 160.044 99.9686 159.889 99.9686 159.748C99.9686 159.607 100.042 159.464 100.133 159.429C100.223 159.395 100.297 159.294 100.297 159.207C100.297 158.987 100.6 158.703 100.835 158.703C100.942 158.703 101.142 158.802 101.281 158.922C101.42 159.042 101.6 159.141 101.681 159.141C101.762 159.141 101.828 159.189 101.828 159.248C101.828 159.307 101.949 159.386 102.097 159.423C102.245 159.46 102.423 159.559 102.493 159.644C102.563 159.728 102.714 159.797 102.829 159.797C102.944 159.797 103.066 159.871 103.101 159.961C103.136 160.051 103.282 160.125 103.426 160.125C103.57 160.125 103.687 160.177 103.687 160.24C103.687 160.303 103.835 160.407 104.016 160.47C104.196 160.532 104.344 160.628 104.344 160.683C104.344 160.737 104.42 160.781 104.512 160.781C104.605 160.781 104.787 160.88 104.916 161C105.045 161.12 105.24 161.219 105.349 161.219C105.458 161.219 105.547 161.263 105.547 161.317C105.547 161.372 105.694 161.468 105.875 161.53C106.055 161.593 106.203 161.697 106.203 161.76C106.203 161.823 106.298 161.875 106.414 161.875C106.53 161.875 106.69 161.939 106.769 162.017C106.849 162.096 107.148 162.272 107.433 162.41C107.719 162.548 107.953 162.705 107.953 162.76C107.953 162.815 108.065 162.859 108.202 162.859C108.339 162.859 108.536 162.958 108.639 163.078C108.742 163.198 108.921 163.297 109.037 163.297C109.152 163.297 109.264 163.334 109.284 163.379C109.341 163.507 110.008 163.953 110.144 163.953C110.211 163.953 110.339 164.027 110.43 164.117C110.52 164.207 110.689 164.281 110.805 164.281C110.921 164.281 111.016 164.333 111.016 164.396C111.016 164.46 111.163 164.563 111.344 164.626C111.524 164.689 111.672 164.785 111.672 164.839C111.672 164.893 111.764 164.937 111.877 164.937C111.99 164.937 112.143 165.011 112.217 165.1C112.291 165.189 112.58 165.374 112.86 165.51C113.139 165.646 113.432 165.819 113.512 165.895C113.591 165.97 113.746 166.031 113.855 166.031C113.965 166.031 114.083 166.105 114.118 166.195C114.152 166.286 114.274 166.359 114.389 166.359C114.504 166.359 114.659 166.433 114.734 166.523C114.809 166.614 114.932 166.687 115.008 166.687C115.083 166.687 115.206 166.761 115.281 166.852C115.356 166.942 115.507 167.016 115.617 167.016C115.727 167.016 115.856 167.083 115.905 167.166C115.953 167.248 116.275 167.444 116.621 167.602C116.967 167.759 117.25 167.938 117.25 167.998C117.25 168.059 117.342 168.109 117.455 168.109C117.568 168.109 117.722 168.183 117.797 168.273C117.872 168.364 118.025 168.437 118.138 168.437C118.251 168.437 118.344 168.482 118.344 168.536C118.344 168.59 118.491 168.686 118.672 168.749C118.852 168.812 119 168.909 119 168.964C119 169.085 119.756 169.233 120.367 169.233C121.076 169.233 121.734 169.08 121.734 168.915C121.734 168.833 121.783 168.766 121.842 168.766C122.136 168.766 122.68 168.011 122.911 167.281C123.147 166.537 123.156 166.357 123.15 162.523C123.146 160.332 123.096 158.293 123.039 157.992C122.982 157.691 122.882 157.052 122.816 156.57C122.75 156.089 122.658 155.671 122.612 155.641C122.565 155.611 122.491 155.373 122.448 155.113C122.404 154.854 122.3 154.615 122.216 154.582C122.131 154.55 122.062 154.402 122.062 154.254C122.062 154.106 121.989 153.911 121.898 153.82C121.808 153.73 121.734 153.564 121.734 153.451C121.734 153.338 121.672 153.206 121.596 153.158C121.52 153.11 121.36 152.862 121.24 152.607C121.121 152.352 120.962 152.143 120.887 152.142C120.811 152.141 120.75 152.076 120.75 151.998C120.75 151.919 120.578 151.667 120.367 151.437C120.157 151.207 119.984 150.982 119.984 150.935C119.984 150.889 119.91 150.823 119.82 150.789C119.73 150.754 119.656 150.65 119.656 150.558C119.656 150.466 119.582 150.391 119.492 150.391C119.402 150.391 119.328 150.317 119.328 150.227C119.328 150.136 119.285 150.062 119.234 150.062C119.182 150.062 118.997 149.856 118.823 149.603C118.65 149.351 118.372 149.005 118.207 148.834C118.041 148.663 117.906 148.476 117.906 148.418C117.906 148.36 117.832 148.312 117.742 148.312C117.652 148.312 117.578 148.239 117.578 148.148C117.578 148.058 117.535 147.984 117.484 147.984C117.432 147.984 117.247 147.778 117.073 147.525C116.753 147.06 116.573 146.842 115.883 146.088C115.672 145.857 115.5 145.649 115.5 145.625C115.5 145.578 115.21 145.214 114.98 144.972C114.905 144.893 114.844 144.775 114.844 144.711C114.844 144.646 114.77 144.594 114.68 144.594C114.589 144.594 114.516 144.552 114.516 144.501C114.516 144.45 114.413 144.291 114.288 144.147C114.164 144.003 113.883 143.651 113.664 143.364C113.446 143.078 113.228 142.844 113.181 142.844C113.133 142.844 113.094 142.768 113.094 142.676C113.094 142.584 113.02 142.48 112.93 142.446C112.839 142.411 112.766 142.314 112.766 142.23C112.766 142.147 112.692 142.078 112.601 142.078C112.511 142.078 112.437 142.034 112.437 141.98C112.437 141.882 112.052 141.393 111.59 140.906C111.454 140.763 111.344 140.575 111.344 140.487C111.344 140.4 111.27 140.328 111.18 140.328C111.089 140.328 111.016 140.254 111.016 140.164C111.016 140.074 110.942 140 110.851 140C110.761 140 110.687 139.926 110.687 139.836C110.687 139.746 110.645 139.672 110.593 139.672C110.541 139.672 110.357 139.463 110.183 139.207C110.01 138.951 109.806 138.703 109.731 138.655C109.655 138.607 109.594 138.496 109.594 138.409C109.594 138.321 109.52 138.25 109.43 138.25C109.339 138.25 109.266 138.176 109.266 138.086C109.266 137.996 109.192 137.922 109.101 137.922C109.011 137.922 108.937 137.876 108.937 137.819C108.937 137.763 108.79 137.555 108.609 137.357C108.301 137.019 108.281 136.945 108.281 136.102C108.281 135.536 108.326 135.191 108.404 135.165C108.479 135.14 108.561 134.613 108.614 133.816C108.662 133.096 108.751 132.262 108.812 131.961C108.872 131.66 108.95 130.478 108.984 129.333C109.018 128.188 109.098 126.729 109.163 126.089C109.243 125.29 109.245 124.674 109.169 124.123C109.109 123.681 109.027 122.213 108.987 120.859C108.947 119.506 108.869 118.202 108.814 117.961C108.758 117.72 108.669 116.95 108.616 116.249C108.562 115.547 108.465 114.874 108.4 114.752C108.335 114.63 108.281 114.229 108.281 113.861C108.281 113.493 108.213 113.059 108.131 112.897C108.048 112.734 107.945 112.221 107.903 111.755C107.86 111.289 107.785 110.883 107.736 110.852C107.687 110.822 107.613 110.507 107.572 110.153C107.53 109.799 107.427 109.375 107.342 109.211C107.257 109.047 107.187 108.676 107.187 108.387C107.187 108.098 107.135 107.845 107.072 107.824C107.009 107.802 106.918 107.501 106.871 107.154C106.824 106.807 106.728 106.466 106.658 106.396C106.588 106.326 106.531 106.088 106.531 105.866C106.531 105.642 106.459 105.404 106.367 105.328C106.277 105.253 106.203 105.021 106.203 104.812C106.203 104.603 106.132 104.302 106.046 104.142C105.959 103.982 105.756 103.42 105.595 102.893C105.433 102.365 105.258 101.907 105.205 101.875C105.152 101.842 105.109 101.652 105.109 101.452C105.109 101.253 105.035 101.028 104.945 100.953C104.855 100.878 104.781 100.675 104.781 100.502C104.781 100.329 104.738 100.187 104.685 100.187C104.632 100.187 104.533 99.966 104.464 99.6953C104.396 99.4246 104.292 99.2031 104.233 99.2031C104.173 99.2031 104.125 99.0361 104.125 98.832C104.125 98.6148 104.061 98.4365 103.972 98.4022C103.887 98.3698 103.785 98.1431 103.743 97.8983C103.702 97.6534 103.623 97.4531 103.568 97.4531C103.513 97.4531 103.469 97.3656 103.469 97.2588C103.469 97.1518 103.401 96.9672 103.319 96.8486C103.237 96.7299 103.132 96.5121 103.086 96.3645C103.04 96.2169 102.935 96.0288 102.853 95.9465C102.77 95.8642 102.703 95.6773 102.703 95.5313C102.703 95.3852 102.658 95.2656 102.602 95.2656C102.547 95.2656 102.47 95.1214 102.431 94.945C102.392 94.7687 102.29 94.5658 102.204 94.4942C102.117 94.4225 102.047 94.2744 102.047 94.165C102.047 94.0555 102.005 93.9403 101.954 93.9088C101.903 93.8773 101.554 93.2346 101.178 92.4805C100.802 91.7264 100.45 91.1094 100.396 91.1094C100.341 91.1094 100.297 91.0144 100.297 90.8984C100.297 90.7825 100.235 90.6224 100.158 90.5429C100.082 90.4635 99.8979 90.1646 99.7485 89.8789C99.5991 89.5932 99.4437 89.3594 99.4033 89.3594C99.3628 89.3594 99.2973 89.2117 99.2577 89.0312C99.2181 88.8508 99.1403 88.7031 99.085 88.7031C99.0295 88.7031 98.9843 88.637 98.9843 88.556C98.9843 88.4751 98.8858 88.3198 98.7655 88.2109C98.6452 88.1021 98.5468 87.9468 98.5468 87.8659C98.5468 87.7849 98.495 87.7187 98.4317 87.7187C98.3684 87.7187 98.2651 87.5711 98.2022 87.3906C98.1393 87.2102 98.0434 87.0625 97.9892 87.0625C97.9349 87.0625 97.8905 86.9641 97.8905 86.8437C97.8905 86.7222 97.8176 86.625 97.7264 86.625C97.6362 86.625 97.5624 86.5375 97.5624 86.4306C97.5624 86.3237 97.4271 86.0879 97.2616 85.9065C97.0961 85.7251 96.9003 85.4434 96.8264 85.2806C96.7526 85.1176 96.6418 84.9844 96.5803 84.9844C96.5189 84.9844 96.4686 84.8859 96.4686 84.7656C96.4686 84.6441 96.3957 84.5469 96.3046 84.5469C96.2143 84.5469 96.1405 84.4715 96.1405 84.3794C96.1405 84.2872 96.0667 84.1835 95.9764 84.149C95.8862 84.1143 95.8124 83.9912 95.8124 83.8755C95.8124 83.7597 95.7386 83.6367 95.6483 83.6021C95.5581 83.5674 95.4843 83.473 95.4843 83.3922C95.4843 83.3114 95.4191 83.2059 95.3394 83.1578C95.2598 83.1097 95.0752 82.898 94.9293 82.6875C94.7834 82.477 94.6025 82.2653 94.5272 82.2172C94.4521 82.1691 94.3905 82.0584 94.3905 81.9711C94.3905 81.8839 94.3167 81.8125 94.2264 81.8125C94.1362 81.8125 94.0624 81.7439 94.0624 81.6601C94.0624 81.5764 93.9886 81.4795 93.8983 81.4448C93.8081 81.4102 93.7343 81.3311 93.7343 81.269C93.7343 81.207 93.6358 81.0455 93.5155 80.9102C93.0845 80.4253 92.9686 80.2805 92.9686 80.2266C92.9686 80.1266 92.5329 79.7344 92.4218 79.7344C92.3616 79.7344 92.3124 79.6658 92.3124 79.582C92.3124 79.4982 92.2386 79.4013 92.1483 79.3667C92.0581 79.3321 91.9843 79.2284 91.9843 79.1362C91.9843 79.0441 91.9104 78.9687 91.8202 78.9687C91.73 78.9687 91.6561 78.9225 91.6561 78.8658C91.6561 78.6364 88.6631 75.5781 88.4384 75.5781C88.358 75.5781 88.2311 75.5043 88.1561 75.4141C88.0552 75.2924 87.7862 75.25 87.1171 75.25C86.4479 75.25 86.179 75.2924 86.078 75.4141ZM86.4882 82.2625C86.2626 82.5097 86.078 82.7556 86.078 82.809C86.078 82.8625 86.0042 82.9062 85.9139 82.9062C85.8237 82.9062 85.7499 82.9801 85.7499 83.0703C85.7499 83.1605 85.7112 83.2344 85.6638 83.2344C85.5531 83.2344 84.7655 84.2867 84.7655 84.4347C84.7655 84.4963 84.6917 84.5469 84.6014 84.5469C84.5112 84.5469 84.4374 84.5906 84.4374 84.6442C84.4374 84.6977 84.2662 84.9314 84.0571 85.1638C83.848 85.396 83.6757 85.6422 83.6743 85.711C83.6729 85.7797 83.5979 85.8643 83.5077 85.899C83.4175 85.9335 83.3436 86.0372 83.3436 86.1294C83.3436 86.2215 83.2698 86.2969 83.1796 86.2969C83.0893 86.2969 83.0155 86.3722 83.0155 86.4643C83.0155 86.5565 82.9417 86.6602 82.8514 86.6948C82.7612 86.7295 82.6874 86.8188 82.6874 86.8934C82.6874 87.0128 82.5842 87.163 82.1426 87.6868C82.0812 87.7594 82.0311 87.8626 82.0311 87.9159C82.0311 87.9693 81.9327 88.1021 81.8124 88.2109C81.6921 88.3198 81.5936 88.4751 81.5936 88.556C81.5936 88.637 81.5198 88.7031 81.4296 88.7031C81.3385 88.7031 81.2655 88.8004 81.2655 88.9219C81.2655 89.0422 81.2211 89.1406 81.1669 89.1406C81.1126 89.1406 81.0167 89.2883 80.9538 89.4687C80.8909 89.6492 80.7996 89.7969 80.751 89.7969C80.7024 89.7969 80.6014 89.9352 80.5265 90.1044C80.4516 90.2736 80.3039 90.5074 80.1982 90.624C80.0926 90.7406 79.9454 90.959 79.871 91.1094C79.6984 91.4586 79.4977 91.7709 79.3241 91.9602C79.249 92.0422 79.1874 92.2043 79.1874 92.3203C79.1874 92.4363 79.1356 92.5312 79.0723 92.5312C79.009 92.5312 78.9057 92.6789 78.8428 92.8594C78.78 93.0398 78.684 93.1875 78.6298 93.1875C78.5755 93.1875 78.5311 93.2598 78.5311 93.3482C78.5311 93.4365 78.285 93.9256 77.9843 94.4348C77.6835 94.9441 77.4374 95.4377 77.4374 95.5318C77.4374 95.6261 77.3891 95.7031 77.3301 95.7031C77.2711 95.7031 77.1918 95.8263 77.1541 95.9768C77.1164 96.1274 76.9923 96.4331 76.8786 96.6562C76.7648 96.8793 76.6718 97.1253 76.6718 97.2028C76.6718 97.3168 78.6671 97.3437 87.1171 97.3437H97.5624V97.0669C97.5624 96.9146 97.4915 96.7629 97.405 96.7296C97.3185 96.6964 97.2161 96.5257 97.1776 96.3502C97.139 96.1747 97.0661 96.0312 97.0155 96.0312C96.9649 96.0312 96.8918 95.887 96.8531 95.7107C96.8144 95.5344 96.712 95.3315 96.6257 95.2598C96.5393 95.1881 96.4686 95.0124 96.4686 94.8695C96.4686 94.7112 96.4044 94.6094 96.3046 94.6094C96.2143 94.6094 96.1405 94.5144 96.1405 94.3984C96.1405 94.2824 96.075 94.122 95.9949 94.0419C95.9148 93.9618 95.8154 93.7614 95.7741 93.5966C95.7327 93.4317 95.6505 93.2969 95.5916 93.2969C95.5325 93.2969 95.4843 93.2061 95.4843 93.0951C95.4843 92.9841 95.3858 92.8041 95.2655 92.6953C95.1452 92.5865 95.0468 92.4312 95.0468 92.3502C95.0468 92.2693 95.0015 92.2031 94.946 92.2031C94.8907 92.2031 94.8129 92.0555 94.7733 91.875C94.7337 91.6945 94.6594 91.5469 94.6083 91.5469C94.5571 91.5469 94.4016 91.3194 94.2626 91.0412C94.1239 90.7631 93.9511 90.513 93.8789 90.4852C93.8067 90.4575 93.7161 90.2914 93.6776 90.1158C93.639 89.9404 93.5622 89.7969 93.5069 89.7969C93.4514 89.7969 93.4061 89.734 93.4061 89.6571C93.4061 89.5802 93.3077 89.4331 93.1874 89.3301C93.0671 89.227 92.9686 89.0737 92.9686 88.9894C92.9686 88.9049 92.8948 88.8076 92.8046 88.7729C92.7143 88.7383 92.6405 88.6347 92.6405 88.5425C92.6405 88.4504 92.5667 88.375 92.4764 88.375C92.3862 88.375 92.3124 88.2826 92.3124 88.1696C92.3124 88.0567 92.2386 87.903 92.1483 87.8281C92.0581 87.7532 91.9843 87.6241 91.9843 87.5413C91.9843 87.4584 91.9385 87.3906 91.8826 87.3906C91.8269 87.3906 91.6217 87.1445 91.4268 86.8437C91.2319 86.543 91.0315 86.2969 90.9815 86.2969C90.9314 86.2969 90.8905 86.2494 90.8905 86.1912C90.8905 86.1331 90.747 85.9388 90.5716 85.7594C90.3961 85.5799 90.2205 85.3321 90.1813 85.2087C90.1422 85.0853 90.0643 84.9844 90.0082 84.9844C89.9521 84.9844 89.9061 84.9205 89.9061 84.8425C89.9061 84.7645 89.7606 84.5799 89.5826 84.4324C89.4048 84.2848 89.2571 84.1026 89.2545 84.0273C89.252 83.9522 89.1761 83.8906 89.0858 83.8906C88.9956 83.8906 88.9218 83.8277 88.9218 83.7508C88.9218 83.674 88.8356 83.5347 88.7304 83.4412C88.6251 83.3478 88.3913 83.082 88.2108 82.8506C87.2637 81.6359 87.1084 81.5828 86.4882 82.2625ZM74.3749 102.746C74.3749 102.83 74.3011 102.927 74.2108 102.961C74.1206 102.996 74.0464 103.137 74.0461 103.274C74.0457 103.411 73.9769 103.655 73.8932 103.815C73.8094 103.976 73.7069 104.308 73.6655 104.554C73.624 104.799 73.5515 105 73.5044 105C73.4572 105 73.3861 105.234 73.3463 105.52C73.3065 105.805 73.2017 106.135 73.1135 106.251C73.0252 106.368 72.953 106.617 72.953 106.805C72.953 106.992 72.8807 107.241 72.7924 107.358C72.7041 107.475 72.6287 107.743 72.6249 107.953C72.6211 108.164 72.5457 108.432 72.4573 108.548C72.3691 108.665 72.2968 108.974 72.2968 109.236C72.2968 109.497 72.2247 109.821 72.1366 109.955C72.0485 110.09 71.9434 110.494 71.9029 110.854C71.8625 111.213 71.7881 111.561 71.7375 111.625C71.687 111.69 71.6128 112.096 71.5727 112.528C71.5326 112.959 71.464 113.312 71.4202 113.312C71.3765 113.312 71.3071 113.697 71.2661 114.167C71.2251 114.636 71.1225 115.215 71.0381 115.452C70.9536 115.689 70.8816 116.301 70.8781 116.812C70.8744 117.33 70.8017 117.936 70.714 118.18C70.6131 118.46 70.5541 119.07 70.55 119.875C70.5467 120.567 70.4711 122.019 70.3823 123.102C70.2558 124.643 70.2455 125.379 70.3353 126.492C70.3983 127.274 70.4893 128.827 70.5375 129.943C70.5863 131.077 70.6801 132.075 70.75 132.205C70.8187 132.334 70.8749 132.862 70.8749 133.379C70.8749 133.939 70.937 134.468 71.0286 134.687C71.113 134.889 71.2173 135.442 71.2604 135.914C71.3034 136.387 71.3759 136.823 71.4216 136.883C71.4673 136.943 71.54 137.333 71.5832 137.749C71.6265 138.165 71.7038 138.584 71.755 138.679C71.8062 138.774 71.8996 139.171 71.9624 139.562C72.0252 139.953 72.1261 140.29 72.1867 140.31C72.2472 140.33 72.2983 140.576 72.3003 140.857C72.3021 141.137 72.3759 141.463 72.4643 141.579C72.5526 141.696 72.6249 141.976 72.6249 142.201C72.6249 142.425 72.6987 142.683 72.7889 142.773C72.8792 142.864 72.9545 143.126 72.9565 143.356C72.9584 143.585 73.0302 143.866 73.1161 143.98C73.2019 144.093 73.3044 144.401 73.3438 144.663C73.3832 144.926 73.4559 145.141 73.5056 145.141C73.5552 145.141 73.6292 145.363 73.6699 145.634C73.7105 145.906 73.7874 146.155 73.8406 146.187C73.8939 146.22 73.9374 146.332 73.9374 146.437C73.9374 146.541 74.0358 146.819 74.1561 147.055C74.2764 147.291 74.3749 147.596 74.3749 147.734C74.3749 147.872 74.4183 147.984 74.4712 147.984C74.5243 147.984 74.6227 148.203 74.69 148.47C74.7573 148.737 74.8615 148.986 74.9216 149.023C74.9819 149.061 75.0311 149.23 75.0311 149.401C75.0311 149.572 75.1004 149.738 75.1849 149.77C75.2695 149.802 75.3741 149.991 75.4176 150.188C75.461 150.386 75.5376 150.623 75.5881 150.715C75.7327 150.98 76.1249 151.903 76.1249 151.978C76.1249 152.016 76.1987 152.121 76.2889 152.211C76.3792 152.301 76.453 152.495 76.453 152.641C76.453 152.787 76.5012 152.906 76.5603 152.906C76.6193 152.906 76.698 153.027 76.7351 153.175C76.7723 153.323 76.8716 153.501 76.9559 153.571C77.0402 153.641 77.1093 153.81 77.1093 153.947C77.1093 154.084 77.1831 154.224 77.2733 154.258C77.3636 154.293 77.4374 154.447 77.4374 154.602C77.4374 154.756 77.5083 154.909 77.5948 154.942C77.6813 154.976 77.7837 155.146 77.8222 155.322C77.8608 155.497 77.9336 155.641 77.9843 155.641C78.0349 155.641 78.1077 155.784 78.1464 155.96C78.1849 156.135 78.2872 156.306 78.3737 156.339C78.4603 156.372 78.5311 156.493 78.5311 156.608C78.5311 156.723 78.605 156.878 78.6952 156.953C78.7854 157.028 78.8593 157.151 78.8593 157.227C78.8593 157.302 78.9331 157.425 79.0233 157.5C79.1136 157.575 79.1874 157.729 79.1874 157.841C79.1874 157.954 79.2612 158.047 79.3514 158.047C79.4417 158.047 79.5155 158.115 79.5155 158.198C79.5155 158.281 79.6263 158.379 79.7616 158.415C80.0889 158.503 93.9385 158.504 94.3768 158.416C94.5648 158.378 94.7186 158.28 94.7186 158.197C94.7186 158.115 94.7672 158.047 94.8266 158.047C94.8859 158.047 95.0039 157.881 95.0889 157.677C95.1737 157.474 95.2974 157.274 95.3637 157.233C95.43 157.192 95.4843 157.062 95.4843 156.943C95.4843 156.825 95.5581 156.699 95.6483 156.665C95.7386 156.63 95.8124 156.53 95.8124 156.441C95.8124 156.353 95.8862 156.207 95.9764 156.117C96.0667 156.027 96.1405 155.863 96.1405 155.754C96.1405 155.644 96.2143 155.526 96.3046 155.492C96.3948 155.457 96.4686 155.332 96.4686 155.213C96.4686 155.094 96.5136 154.969 96.5685 154.935C96.6862 154.863 97.1249 153.982 97.1249 153.818C97.1249 153.756 97.2233 153.592 97.3436 153.453C97.4639 153.314 97.5624 153.11 97.5624 152.999C97.5624 152.888 97.6094 152.797 97.6668 152.797C97.7243 152.797 97.8036 152.625 97.843 152.414C97.8825 152.204 97.9567 152.031 98.0079 152.031C98.0589 152.031 98.1539 151.834 98.2186 151.594C98.2834 151.353 98.3838 151.156 98.4417 151.156C98.4994 151.156 98.5468 151.007 98.5468 150.825C98.5468 150.631 98.6149 150.467 98.7108 150.43C98.8011 150.396 98.8752 150.286 98.8755 150.188C98.876 150.089 98.9451 149.876 99.0293 149.714C99.1135 149.553 99.2156 149.27 99.2561 149.085C99.2966 148.901 99.3751 148.75 99.4304 148.75C99.4858 148.75 99.5311 148.629 99.5311 148.482C99.5311 148.167 99.7449 147.656 99.8769 147.656C99.9273 147.656 99.9702 147.521 99.9721 147.355C99.974 147.19 100.048 146.959 100.136 146.842C100.224 146.726 100.297 146.498 100.297 146.336C100.297 146.175 100.371 145.981 100.461 145.906C100.554 145.829 100.625 145.591 100.625 145.358C100.625 145.092 100.683 144.923 100.789 144.882C100.879 144.848 100.953 144.693 100.953 144.539C100.953 144.385 101.02 144.099 101.101 143.905C101.182 143.71 101.283 143.319 101.326 143.036C101.368 142.753 101.45 142.492 101.506 142.457C101.563 142.422 101.611 142.261 101.614 142.099C101.617 141.937 101.695 141.608 101.789 141.367C101.882 141.127 102 140.708 102.052 140.437C102.279 139.247 102.398 138.721 102.51 138.414C102.576 138.234 102.651 137.766 102.677 137.375C102.702 136.984 102.773 136.603 102.834 136.529C102.896 136.455 102.99 135.987 103.043 135.49C103.097 134.993 103.188 134.364 103.246 134.094C103.398 133.38 103.576 131.388 103.701 129.008C103.823 126.68 103.734 119.024 103.582 118.841C103.529 118.776 103.432 118.109 103.368 117.358C103.203 115.427 103.049 114.321 102.863 113.735C102.775 113.457 102.703 113.032 102.703 112.792C102.703 112.551 102.629 112.178 102.539 111.962C102.449 111.746 102.375 111.383 102.374 111.156C102.374 110.928 102.3 110.601 102.21 110.429C102.12 110.257 102.047 109.954 102.047 109.757C102.047 109.56 101.949 109.184 101.83 108.922C101.711 108.66 101.613 108.295 101.612 108.112C101.61 107.928 101.559 107.728 101.497 107.666C101.435 107.604 101.355 107.299 101.318 106.988C101.281 106.676 101.213 106.422 101.166 106.422C101.12 106.422 101.047 106.213 101.004 105.957C100.961 105.701 100.858 105.395 100.775 105.276C100.693 105.158 100.625 104.92 100.625 104.749C100.625 104.578 100.558 104.37 100.476 104.289C100.394 104.207 100.295 103.94 100.256 103.695C100.217 103.45 100.136 103.25 100.077 103.25C100.017 103.25 99.9686 103.133 99.9686 102.989C99.9686 102.811 99.8904 102.708 99.7225 102.663C99.5872 102.626 93.8285 102.596 86.9257 102.595C76.27 102.594 74.3749 102.617 74.3749 102.746ZM85.4365 111.403C85.2342 111.491 84.9423 111.562 84.788 111.562C84.4799 111.562 83.132 111.98 82.9663 112.127C82.9091 112.177 82.7813 112.219 82.6822 112.219C82.5831 112.219 82.3886 112.317 82.2499 112.437C82.1112 112.558 81.9068 112.656 81.7956 112.656C81.6845 112.656 81.5936 112.701 81.5936 112.755C81.5936 112.809 81.446 112.905 81.2655 112.968C81.085 113.031 80.9374 113.134 80.9374 113.197C80.9374 113.261 80.8676 113.312 80.7824 113.312C80.6972 113.312 80.6111 113.357 80.591 113.412C80.571 113.467 80.2638 113.737 79.9084 114.013C79.553 114.288 79.0682 114.772 78.8309 115.088C78.5937 115.405 78.3308 115.703 78.2466 115.752C78.1624 115.8 78.0936 115.91 78.0936 115.998C78.0936 116.085 78.0444 116.156 77.9843 116.156C77.9241 116.156 77.8749 116.23 77.8749 116.32C77.8749 116.411 77.7764 116.583 77.6561 116.703C77.5358 116.823 77.4374 117.022 77.4374 117.144C77.4374 117.266 77.3636 117.395 77.2733 117.429C77.1818 117.464 77.1093 117.627 77.1093 117.797C77.1093 117.964 77.0424 118.127 76.9608 118.159C76.8792 118.19 76.784 118.428 76.7492 118.687C76.7143 118.947 76.6335 119.177 76.5695 119.198C76.5054 119.22 76.453 119.421 76.453 119.646C76.453 119.87 76.3762 120.313 76.2823 120.629C75.9997 121.581 76.2016 124.324 76.6276 125.32C76.712 125.518 76.7811 125.795 76.7811 125.936C76.7811 126.077 76.855 126.253 76.9452 126.328C77.0354 126.403 77.1093 126.575 77.1093 126.711C77.1093 126.847 77.1831 127.019 77.2733 127.094C77.3636 127.169 77.4374 127.3 77.4374 127.385C77.4374 127.546 77.8671 128.214 78.0116 128.279C78.0568 128.299 78.0936 128.377 78.0936 128.453C78.0936 128.529 78.1921 128.68 78.3124 128.789C78.4327 128.898 78.5311 129.053 78.5311 129.134C78.5311 129.215 78.605 129.281 78.6952 129.281C78.7854 129.281 78.8593 129.355 78.8593 129.445C78.8593 129.536 78.9331 129.609 79.0233 129.609C79.1136 129.609 79.1874 129.683 79.1874 129.773C79.1874 129.864 79.2612 129.937 79.3514 129.937C79.4417 129.937 79.5155 129.992 79.5155 130.06C79.5155 130.219 80.3499 131.004 80.6056 131.085C80.7146 131.119 80.9342 131.269 81.0939 131.417C81.2536 131.565 81.5051 131.716 81.6529 131.753C81.8008 131.79 81.9218 131.864 81.9218 131.918C81.9218 131.972 82.0079 132.016 82.1132 132.016C82.2184 132.017 82.4522 132.115 82.6327 132.234C82.8132 132.354 83.047 132.452 83.1522 132.452C83.2574 132.453 83.3436 132.499 83.3436 132.556C83.3436 132.612 83.5775 132.693 83.8632 132.735C84.1489 132.777 84.4798 132.878 84.5985 132.96C84.9296 133.189 89.3869 133.176 89.578 132.945C89.6529 132.855 89.7983 132.781 89.9011 132.781C90.2449 132.781 91.6003 132.313 91.6889 132.163C91.7371 132.082 91.8917 132.016 92.0327 132.016C92.1737 132.016 92.3173 131.942 92.352 131.852C92.3865 131.761 92.5342 131.687 92.6801 131.687C92.8259 131.687 92.9736 131.614 93.0082 131.523C93.0428 131.433 93.1465 131.359 93.2387 131.359C93.3308 131.359 93.4061 131.286 93.4061 131.195C93.4061 131.105 93.4723 131.031 93.5532 131.031C93.6342 131.031 93.7895 130.933 93.8983 130.812C94.0071 130.692 94.138 130.594 94.1888 130.594C94.3586 130.594 95.8124 129.008 95.8124 128.822C95.8124 128.77 95.96 128.583 96.1405 128.406C96.321 128.23 96.4686 127.984 96.4686 127.86C96.4686 127.735 96.5395 127.607 96.626 127.573C96.7125 127.54 96.8149 127.369 96.8534 127.194C96.892 127.018 96.9688 126.875 97.0241 126.875C97.0796 126.875 97.1249 126.813 97.1249 126.737C97.1249 126.661 97.2233 126.415 97.3436 126.19C97.4639 125.966 97.5624 125.645 97.5624 125.478C97.5624 125.311 97.6294 125.077 97.7115 124.958C97.8375 124.776 98.0074 123.301 98.0199 122.281C98.0297 121.47 97.8409 119.781 97.7116 119.525C97.6295 119.362 97.5624 119.086 97.5624 118.909C97.5624 118.733 97.4886 118.528 97.3983 118.453C97.3081 118.378 97.2343 118.246 97.2343 118.159C97.2343 117.941 96.7093 116.813 96.6069 116.811C96.5609 116.811 96.4265 116.608 96.3082 116.361C96.1899 116.114 96.0299 115.888 95.9527 115.859C95.8756 115.829 95.8124 115.712 95.8124 115.598C95.8124 115.484 95.7386 115.391 95.6483 115.391C95.5581 115.391 95.4843 115.34 95.4843 115.279C95.4843 115.164 94.3345 113.969 94.2236 113.969C94.1894 113.969 94.0396 113.837 93.8909 113.677C93.6212 113.386 93.3525 113.203 92.8866 112.992C92.7513 112.931 92.6405 112.83 92.6405 112.768C92.6405 112.707 92.5159 112.656 92.3637 112.656C92.2113 112.656 92.0584 112.582 92.0238 112.492C91.9892 112.402 91.9046 112.326 91.8358 112.324C91.767 112.322 91.5139 112.226 91.2733 112.109C91.0327 111.993 90.7046 111.896 90.5441 111.894C90.3838 111.892 90.2361 111.843 90.216 111.784C90.196 111.726 89.8402 111.63 89.4254 111.572C89.0107 111.513 88.6193 111.413 88.5559 111.35C88.3739 111.168 85.8801 111.21 85.4365 111.403ZM86.2021 116.653C85.9998 116.741 85.7077 116.812 85.5531 116.812C85.2599 116.812 84.3745 117.196 84.2675 117.369C84.2335 117.424 84.1316 117.469 84.041 117.469C83.8617 117.469 82.6874 118.61 82.6874 118.784C82.6874 118.842 82.6175 118.891 82.532 118.891C82.4465 118.891 82.3442 119.038 82.3046 119.219C82.265 119.399 82.1926 119.547 82.1437 119.547C82.0948 119.547 82.0211 119.682 81.9797 119.848C81.9385 120.013 81.8404 120.222 81.7617 120.312C81.6238 120.471 81.4704 121.489 81.4652 122.281C81.4605 122.994 81.614 123.865 81.8231 124.312C81.9375 124.556 82.0311 124.811 82.0311 124.877C82.0311 124.943 82.068 125.014 82.1132 125.034C82.1583 125.054 82.3429 125.289 82.5233 125.556C82.9188 126.141 83.6615 126.875 83.8578 126.875C83.936 126.875 83.9999 126.92 83.9999 126.975C83.9999 127.095 84.8741 127.531 85.1147 127.531C85.2087 127.531 85.3468 127.605 85.4218 127.695C85.5307 127.827 85.8585 127.859 87.0624 127.859C88.2663 127.859 88.5941 127.827 88.703 127.695C88.7779 127.605 88.9748 127.531 89.1405 127.531C89.3062 127.531 89.4991 127.462 89.5691 127.378C89.639 127.294 89.8174 127.194 89.9653 127.157C90.1132 127.12 90.2343 127.041 90.2343 126.982C90.2343 126.923 90.2893 126.875 90.3565 126.875C90.5156 126.875 91.328 126.063 91.328 125.904C91.328 125.836 91.4018 125.781 91.4921 125.781C91.5823 125.781 91.6561 125.713 91.6561 125.629C91.6561 125.545 91.73 125.448 91.8202 125.414C91.9104 125.379 91.9843 125.249 91.9843 125.125C91.9843 125.001 92.0581 124.871 92.1483 124.836C92.2386 124.802 92.3124 124.654 92.3124 124.508C92.3124 124.362 92.3986 124.111 92.5038 123.95C92.7826 123.525 92.7806 120.932 92.5012 120.533C92.3974 120.385 92.3124 120.155 92.3124 120.021C92.3124 119.888 92.2645 119.749 92.206 119.713C92.1473 119.677 92.0149 119.469 91.9115 119.251C91.6815 118.766 90.511 117.597 90.1702 117.511C90.0337 117.477 89.8953 117.38 89.8628 117.295C89.8302 117.21 89.6843 117.141 89.5384 117.141C89.3926 117.141 89.245 117.067 89.2103 116.977C89.1707 116.873 89.0031 116.812 88.7576 116.812C88.5432 116.812 88.1911 116.739 87.9752 116.648C87.4819 116.442 86.6823 116.444 86.2021 116.653ZM66.9921 143.896C66.6426 144.339 66.1331 144.942 65.9257 145.159C65.8204 145.269 65.7343 145.409 65.7343 145.469C65.7343 145.529 65.6604 145.578 65.5702 145.578C65.48 145.578 65.4061 145.636 65.4061 145.706C65.4061 145.776 65.3346 145.911 65.2471 146.006C64.7374 146.562 64.6405 146.677 64.6405 146.73C64.6405 146.762 64.4929 146.933 64.3124 147.109C64.1319 147.286 63.9843 147.481 63.9843 147.543C63.9843 147.605 63.9104 147.656 63.8202 147.656C63.73 147.656 63.6561 147.71 63.6561 147.775C63.6561 147.906 63.0008 148.744 62.535 149.208C62.3696 149.373 62.2343 149.559 62.2343 149.621C62.2343 149.684 62.1917 149.734 62.1398 149.734C62.0878 149.734 61.9032 149.941 61.7296 150.193C61.556 150.446 61.2663 150.811 61.0858 151.006C60.3226 151.829 60.1561 152.021 60.1561 152.078C60.1561 152.138 59.8947 152.475 59.6366 152.747C59.5615 152.826 59.4999 152.943 59.4999 153.008C59.4999 153.072 59.4301 153.125 59.3448 153.125C59.2594 153.125 59.0832 153.297 58.953 153.508C58.8229 153.718 58.6713 153.891 58.6159 153.891C58.5607 153.891 58.5155 153.948 58.5155 154.018C58.5155 154.088 58.444 154.224 58.3565 154.319C57.8317 154.891 57.7499 154.994 57.7499 155.082C57.7499 155.136 57.6761 155.208 57.5858 155.243C57.4956 155.277 57.4218 155.381 57.4218 155.473C57.4218 155.565 57.3782 155.641 57.3251 155.641C57.2015 155.641 56.8035 156.626 56.6402 157.336C56.5709 157.637 56.4939 158.812 56.4691 159.948C56.4279 161.83 56.4398 162.007 56.6036 161.944C56.7025 161.906 56.8743 161.875 56.9854 161.875C57.0965 161.875 57.261 161.801 57.351 161.711C57.441 161.621 57.6291 161.498 57.769 161.436C57.9089 161.375 58.171 161.228 58.3514 161.109C58.5319 160.991 58.7856 160.847 58.9151 160.79C59.0446 160.732 59.1828 160.633 59.2223 160.569C59.2618 160.505 59.3912 160.453 59.5097 160.453C59.6284 160.453 59.7539 160.379 59.7884 160.289C59.8231 160.199 59.9411 160.125 60.0507 160.125C60.1602 160.125 60.3237 160.051 60.4139 159.961C60.5042 159.871 60.6478 159.797 60.733 159.797C60.8182 159.797 60.977 159.698 61.0858 159.578C61.1946 159.458 61.35 159.359 61.4309 159.359C61.5118 159.359 61.578 159.314 61.578 159.259C61.578 159.203 61.7215 159.127 61.8969 159.088C62.0725 159.049 62.2431 158.947 62.2764 158.861C62.3096 158.774 62.4613 158.703 62.6137 158.703C62.7659 158.703 62.8905 158.651 62.8905 158.588C62.8905 158.525 63.0382 158.421 63.2186 158.359C63.3991 158.296 63.5468 158.2 63.5468 158.146C63.5468 158.091 63.6375 158.047 63.7486 158.047C63.8596 158.047 64.0395 157.948 64.1483 157.828C64.2571 157.708 64.4125 157.609 64.4934 157.609C64.5743 157.609 64.6405 157.56 64.6405 157.5C64.6405 157.44 64.6928 157.391 64.7567 157.391C64.9627 157.391 66.0624 156.831 66.0624 156.726C66.0624 156.671 66.1608 156.625 66.2811 156.625C66.4014 156.625 66.4999 156.581 66.4999 156.526C66.4999 156.472 66.6475 156.376 66.828 156.313C67.0085 156.25 67.1561 156.147 67.1561 156.084C67.1561 156.02 67.2768 155.969 67.4241 155.969C67.5715 155.969 67.7314 155.903 67.7796 155.823C67.8277 155.743 68.1132 155.558 68.4139 155.413C68.7147 155.267 69.0259 155.087 69.1053 155.012C69.1848 154.937 69.2991 154.875 69.3593 154.875C69.4194 154.875 69.5425 154.801 69.6327 154.711C69.7229 154.621 69.8865 154.547 69.9959 154.547C70.1055 154.547 70.2236 154.473 70.2582 154.383C70.2928 154.293 70.3888 154.219 70.4716 154.219C70.5544 154.219 70.7651 154.094 70.9398 153.941C71.2353 153.682 71.2442 153.653 71.0663 153.519C70.9611 153.439 70.8749 153.279 70.8749 153.163C70.8749 153.047 70.7764 152.759 70.6561 152.523C70.5358 152.287 70.4374 152.031 70.4374 151.953C70.4374 151.876 70.3882 151.812 70.328 151.812C70.2679 151.812 70.2186 151.693 70.2186 151.547C70.2186 151.401 70.1448 151.207 70.0546 151.117C69.9643 151.027 69.8905 150.851 69.8905 150.726C69.8905 150.601 69.7921 150.316 69.6718 150.091C69.5514 149.867 69.4515 149.608 69.4495 149.517C69.4477 149.426 69.3738 149.256 69.2854 149.139C69.1972 149.022 69.1249 148.81 69.1249 148.667C69.1249 148.523 69.0511 148.332 68.9608 148.242C68.8706 148.152 68.7968 147.912 68.7968 147.71C68.7968 147.507 68.7475 147.311 68.6873 147.273C68.6271 147.236 68.5229 146.987 68.4556 146.72C68.3883 146.453 68.2899 146.234 68.2369 146.234C68.1839 146.234 68.1405 146.024 68.1405 145.767C68.1405 145.509 68.0739 145.202 67.9924 145.083C67.911 144.964 67.8168 144.654 67.783 144.394C67.7475 144.12 67.6368 143.856 67.5209 143.768C67.2586 143.57 67.2481 143.572 66.9921 143.896ZM106.6 143.776C106.562 143.875 106.531 144.065 106.531 144.199C106.531 144.333 106.459 144.538 106.371 144.655C106.282 144.772 106.208 145.041 106.207 145.253C106.205 145.465 106.135 145.736 106.053 145.855C105.97 145.973 105.866 146.243 105.822 146.453C105.777 146.664 105.703 146.885 105.658 146.945C105.612 147.005 105.541 147.246 105.498 147.481C105.456 147.715 105.351 147.977 105.265 148.063C105.179 148.148 105.109 148.389 105.109 148.597C105.109 148.833 105.047 148.999 104.945 149.039C104.855 149.073 104.781 149.235 104.781 149.397C104.781 149.56 104.709 149.788 104.621 149.905C104.532 150.022 104.458 150.254 104.457 150.421C104.455 150.589 104.379 150.754 104.289 150.789C104.199 150.823 104.125 150.969 104.125 151.114C104.125 151.258 104.026 151.559 103.906 151.784C103.786 152.008 103.687 152.254 103.687 152.33C103.687 152.407 103.644 152.469 103.59 152.469C103.537 152.469 103.461 152.641 103.421 152.852C103.382 153.062 103.302 153.234 103.245 153.234C103.067 153.234 103.13 153.78 103.332 153.98C103.437 154.085 103.757 154.283 104.043 154.421C104.329 154.559 104.562 154.712 104.562 154.761C104.562 154.811 104.685 154.882 104.836 154.92C104.986 154.958 105.109 155.037 105.109 155.096C105.109 155.155 105.179 155.203 105.264 155.203C105.494 155.203 106.531 155.745 106.531 155.865C106.531 155.922 106.63 155.969 106.75 155.969C106.87 155.969 106.969 156.013 106.969 156.067C106.969 156.122 107.116 156.218 107.297 156.28C107.477 156.343 107.625 156.447 107.625 156.51C107.625 156.573 107.746 156.625 107.893 156.625C108.04 156.625 108.2 156.687 108.248 156.762C108.296 156.837 108.557 157.012 108.828 157.151C110.118 157.813 110.64 158.113 110.72 158.238C110.768 158.314 110.905 158.375 111.024 158.375C111.144 158.375 111.269 158.449 111.304 158.539C111.339 158.629 111.457 158.703 111.566 158.703C111.676 158.703 111.833 158.765 111.915 158.84C112.118 159.027 112.442 159.229 112.746 159.36C112.886 159.42 113.074 159.543 113.164 159.633C113.254 159.723 113.424 159.797 113.542 159.797C113.66 159.797 113.785 159.871 113.82 159.961C113.854 160.051 114 160.125 114.144 160.125C114.288 160.125 114.406 160.177 114.406 160.24C114.406 160.303 114.554 160.407 114.734 160.47C114.915 160.532 115.062 160.628 115.062 160.683C115.062 160.737 115.161 160.781 115.281 160.781C115.401 160.781 115.5 160.821 115.5 160.87C115.5 160.918 115.82 161.117 116.211 161.312C116.602 161.506 116.922 161.713 116.922 161.77C116.922 161.828 117.094 161.875 117.305 161.875H117.687L117.679 160.207C117.668 158.161 117.558 156.749 117.401 156.647C117.337 156.605 117.25 156.435 117.21 156.27C117.169 156.104 117.088 155.969 117.029 155.969C116.97 155.969 116.922 155.891 116.922 155.796C116.922 155.647 116.402 154.92 115.965 154.457C115.89 154.378 115.828 154.275 115.828 154.228C115.828 154.182 115.607 153.91 115.336 153.623C115.065 153.337 114.844 153.083 114.844 153.06C114.844 153.037 114.707 152.882 114.54 152.716C114.374 152.55 114.096 152.205 113.924 151.949C113.752 151.693 113.568 151.484 113.516 151.484C113.464 151.484 113.42 151.423 113.417 151.348C113.415 151.273 113.267 151.09 113.089 150.943C112.911 150.795 112.766 150.61 112.766 150.532C112.766 150.454 112.692 150.391 112.601 150.391C112.511 150.391 112.437 150.337 112.437 150.272C112.437 150.126 111.725 149.23 111.316 148.863C111.151 148.714 111.016 148.529 111.016 148.452C111.016 148.375 110.942 148.312 110.851 148.312C110.761 148.312 110.687 148.256 110.687 148.187C110.687 148.05 110.043 147.229 109.566 146.758C109.401 146.594 109.266 146.41 109.266 146.347C109.266 146.285 109.223 146.234 109.171 146.234C109.119 146.234 108.938 146.025 108.769 145.77C108.6 145.514 108.31 145.151 108.125 144.964C107.493 144.324 107.187 143.957 107.187 143.838C107.187 143.772 107.142 143.719 107.087 143.719C107.032 143.719 106.915 143.691 106.828 143.658C106.738 143.624 106.639 143.675 106.6 143.776ZM80.8323 164.083C80.6877 164.238 80.6093 164.471 80.6093 164.745C80.6093 164.977 80.5402 165.301 80.4558 165.464C80.3714 165.627 80.2667 166.006 80.2233 166.306C80.1797 166.606 80.1073 166.901 80.0624 166.961C80.0174 167.021 79.9459 167.316 79.9036 167.617C79.8612 167.918 79.7566 168.273 79.671 168.406C79.5855 168.54 79.5155 168.847 79.5155 169.09V169.531H87.1171H94.7186L94.7151 169.176C94.7133 168.98 94.6394 168.725 94.5511 168.608C94.4628 168.491 94.3905 168.214 94.3905 167.992C94.3905 167.769 94.317 167.447 94.2271 167.274C94.1373 167.102 94.0635 166.827 94.063 166.662C94.0627 166.498 93.9923 166.178 93.9066 165.951C93.821 165.725 93.7197 165.306 93.6815 165.022C93.6435 164.738 93.5658 164.476 93.5092 164.441C93.4525 164.406 93.4061 164.288 93.4061 164.179C93.4061 164.044 93.2965 163.959 93.0643 163.912C92.8763 163.874 90.0974 163.844 86.8889 163.844H81.0553L80.8323 164.083Z" fill="url(#paint0_linear_114_82)"/>
<defs>
<linearGradient id="paint0_linear_114_82" x1="87.175" y1="75.25" x2="87.175" y2="174.995" gradientUnits="userSpaceOnUse">
<stop stop-color="#FF7E00"/>
<stop offset="1" stop-color="#FF7E00" stop-opacity="0.49"/>
</linearGradient>
</defs>
</svg>
