<svg width="175" height="175" viewBox="0 0 175 175" fill="none" xmlns="http://www.w3.org/2000/svg">
<g clip-path="url(#clip0_114_25)">
<path fill-rule="evenodd" clip-rule="evenodd" d="M87.3356 12.7891C87.2064 12.8449 87.0682 12.9432 87.0283 13.0076C86.9886 13.0719 86.8589 13.1247 86.7404 13.1247C86.6217 13.1247 86.4962 13.1985 86.4617 13.2887C86.427 13.379 86.3301 13.4528 86.2463 13.4528C86.1625 13.4528 86.0939 13.5266 86.0939 13.6168C86.0939 13.7071 86.0201 13.7809 85.9299 13.7809C85.8397 13.7809 85.7658 13.828 85.7658 13.8857C85.7658 14.0379 84.9474 14.8747 84.7984 14.8747C84.729 14.8747 84.6721 14.9226 84.6721 14.9812C84.6721 15.0397 84.4506 15.3091 84.1799 15.5798C83.9092 15.8505 83.6877 16.1221 83.6877 16.1833C83.6877 16.2446 83.5893 16.3561 83.469 16.4313C83.3486 16.5064 83.2502 16.6066 83.2502 16.6539C83.2502 16.7011 83.0287 16.9613 82.758 17.232C82.4873 17.5027 82.2658 17.7721 82.2658 17.8306C82.2658 17.8893 82.192 17.9372 82.1018 17.9372C82.0115 17.9372 81.9377 18.0125 81.9377 18.1046C81.9377 18.1968 81.8639 18.3005 81.7736 18.3351C81.6834 18.3697 81.6096 18.4557 81.6096 18.5263C81.6096 18.5968 81.5111 18.7254 81.3908 18.8122C81.2705 18.8989 81.1721 19.0343 81.1721 19.1132C81.1721 19.192 81.0982 19.2849 81.008 19.3194C80.9178 19.3541 80.844 19.451 80.844 19.5348C80.844 19.6186 80.7701 19.6872 80.6799 19.6872C80.5897 19.6872 80.5158 19.761 80.5158 19.8512C80.5158 19.9415 80.4699 20.0153 80.4138 20.0153C80.3577 20.0153 80.2798 20.1162 80.2406 20.2396C80.2015 20.363 80.0258 20.6108 79.8504 20.7903C79.675 20.9697 79.5315 21.1887 79.5315 21.2768C79.5315 21.3651 79.4576 21.4372 79.3674 21.4372C79.2772 21.4372 79.2033 21.511 79.2033 21.6012C79.2033 21.6915 79.1049 21.8637 78.9846 21.984C78.8643 22.1043 78.7658 22.2496 78.7658 22.3067C78.7658 22.3639 78.7044 22.45 78.6291 22.4981C78.4757 22.5963 78.2711 22.9013 78.112 23.2692C78.0535 23.4046 77.9551 23.5153 77.8936 23.5153C77.8319 23.5153 77.7815 23.5906 77.7815 23.6827C77.7815 23.7749 77.7076 23.8786 77.6174 23.9132C77.5272 23.9479 77.4533 24.0634 77.4533 24.1699C77.4533 24.2763 77.3744 24.429 77.2779 24.5091C77.1814 24.5892 77.0585 24.7552 77.0047 24.878C76.8828 25.1565 76.6751 25.4836 76.4963 25.6786C76.4212 25.7606 76.3596 25.87 76.3596 25.9215C76.3596 25.973 76.2981 26.0824 76.2229 26.1645C76.0321 26.3726 75.8327 26.6938 75.6962 27.0131C75.6324 27.1622 75.5465 27.3098 75.505 27.3412C75.4229 27.4033 75.2026 27.7851 74.8093 28.5465C74.6695 28.8172 74.5221 29.0639 74.4816 29.0945C74.4412 29.1252 74.3752 29.2815 74.3349 29.4421C74.2947 29.6025 74.1923 29.7605 74.1075 29.793C74.0227 29.8256 73.9533 29.9715 73.9533 30.1174C73.9533 30.2632 73.8795 30.4108 73.7893 30.4455C73.699 30.4801 73.6252 30.6049 73.6252 30.7228C73.6252 30.8407 73.5514 31.011 73.4611 31.1012C73.3709 31.1914 73.2971 31.3687 73.2971 31.4953C73.2971 31.6218 73.2262 31.7524 73.1397 31.7857C73.0532 31.8189 72.9508 31.9896 72.9123 32.1651C72.8737 32.3405 72.8008 32.484 72.7502 32.484C72.6996 32.484 72.6263 32.6293 72.5873 32.8069C72.5483 32.9844 72.3721 33.4118 72.1958 33.7566C72.0195 34.1014 71.8752 34.4669 71.8752 34.5688C71.8752 34.6708 71.8014 34.8154 71.7111 34.8903C71.6209 34.9652 71.5471 35.1154 71.5471 35.224C71.5471 35.3326 71.4732 35.4953 71.383 35.5856C71.2928 35.6758 71.2189 35.8668 71.2189 36.01C71.2189 36.1532 71.1466 36.3659 71.0584 36.4827C70.97 36.5994 70.8959 36.7934 70.8936 36.9137C70.8913 37.034 70.7916 37.2801 70.6721 37.4606C70.5525 37.6411 70.4544 37.8692 70.4541 37.9677C70.4537 38.066 70.3798 38.2875 70.2899 38.4598C70.2001 38.6321 70.1263 38.8498 70.1259 38.9436C70.1255 39.0373 70.0529 39.2096 69.9646 39.3264C69.8763 39.4431 69.8024 39.6542 69.8006 39.7953C69.7986 39.9364 69.7262 40.1825 69.6396 40.3422C69.5529 40.5019 69.4523 40.8171 69.4159 41.0426C69.3795 41.2682 69.309 41.4528 69.2595 41.4528C69.2098 41.4528 69.1431 41.685 69.1111 41.9687C69.0791 42.2525 68.9989 42.5027 68.9328 42.5248C68.8667 42.5468 68.8127 42.7275 68.8127 42.9265C68.8127 43.1255 68.7154 43.5028 68.5964 43.7651C68.4774 44.0273 68.3789 44.4018 68.3776 44.5973C68.3763 44.7929 68.3295 44.9528 68.2737 44.9528C68.2179 44.9528 68.1414 45.2357 68.1037 45.5817C68.066 45.9276 67.9641 46.3412 67.8771 46.5009C67.7901 46.6606 67.7189 47.008 67.7189 47.273C67.7189 47.538 67.6466 47.8502 67.5584 47.967C67.47 48.0838 67.3962 48.3975 67.3943 48.6643C67.3924 48.9311 67.3192 49.4233 67.2316 49.7581C67.144 50.0929 67.0417 50.6991 67.0042 51.1051C66.9666 51.5112 66.8975 51.8434 66.8507 51.8434C66.8039 51.8434 66.7391 52.3725 66.7067 53.0192C66.6743 53.6658 66.5888 54.3426 66.5167 54.5231C66.3027 55.0588 66.1557 58.3058 66.1552 62.5075C66.1548 66.7495 66.2946 69.6002 66.5625 70.82C66.6551 71.2411 66.7316 71.9079 66.7327 72.302C66.7337 72.696 66.7807 73.0651 66.8372 73.1223C66.8936 73.1794 66.9737 73.4838 67.0151 73.7986C67.0774 74.2717 67.0595 74.3828 66.9125 74.4392C66.8146 74.4767 66.7346 74.5509 66.7346 74.6039C66.7346 74.7136 66.4441 75.0882 66.1604 75.3443C66.0551 75.4393 65.9689 75.5799 65.9689 75.6568C65.9689 75.7336 65.8951 75.7965 65.8049 75.7965C65.7146 75.7965 65.6408 75.8474 65.6408 75.9096C65.6408 75.9718 65.4932 76.167 65.3127 76.3434C65.1322 76.5198 64.9846 76.7051 64.9846 76.7551C64.9846 76.8052 64.8138 77.0161 64.6053 77.2237C64.3966 77.4314 64.2222 77.6504 64.2177 77.7106C64.2134 77.7708 64.0641 77.9407 63.8862 78.0883C63.7083 78.2358 63.5627 78.3958 63.5627 78.4437C63.5627 78.4916 63.4765 78.6206 63.3713 78.7303C63.0001 79.1168 62.5783 79.6235 62.5783 79.6826C62.5783 79.7157 62.3826 79.9402 62.1434 80.1818C61.9042 80.4234 61.6229 80.766 61.5184 80.9432C61.4137 81.1204 61.2894 81.2653 61.2422 81.2653C61.1951 81.2653 61.1564 81.3161 61.1564 81.3784C61.1564 81.4405 61.0088 81.6357 60.8283 81.8122C60.6479 81.9886 60.5002 82.1549 60.5002 82.1818C60.5002 82.2089 60.3403 82.4025 60.1447 82.612C59.5758 83.2222 59.0783 83.866 59.0783 83.9923C59.0783 84.0565 59.0045 84.109 58.9143 84.109C58.824 84.109 58.7502 84.1599 58.7502 84.2221C58.7502 84.2843 58.6077 84.4746 58.4333 84.6449C58.2591 84.8152 57.9818 85.1581 57.8172 85.4068C57.6527 85.6555 57.4753 85.859 57.4232 85.859C57.371 85.859 57.3283 85.9329 57.3283 86.0231C57.3283 86.1133 57.2545 86.1872 57.1643 86.1872C57.074 86.1872 57.0002 86.238 57.0002 86.3003C57.0002 86.3624 56.8525 86.5576 56.6721 86.734C56.4916 86.9105 56.3439 87.0832 56.3439 87.1178C56.3439 87.1896 56.18 87.4012 55.8244 87.7885C55.6891 87.9358 55.5783 88.0806 55.5783 88.1099C55.5783 88.1393 55.4307 88.3076 55.2502 88.484C55.0697 88.6605 54.9221 88.8311 54.9221 88.8631C54.9221 88.8953 54.8359 89.0165 54.7307 89.1324C54.3739 89.5255 54.2658 89.6777 54.2658 89.7865C54.2658 89.8462 54.2042 89.9343 54.1291 89.9825C53.8691 90.1488 52.8439 92.1367 52.8439 92.4745C52.8439 92.6018 52.7895 92.7604 52.7229 92.827C52.6563 92.8936 52.5257 93.3095 52.4328 93.7512C52.1775 94.9647 52.1061 104.552 52.3486 105.063C52.4406 105.257 52.5158 105.447 52.5158 105.486C52.5158 105.656 53.6195 106.64 53.8106 106.64C53.9269 106.64 54.1804 106.707 54.374 106.788C54.6773 106.916 54.8233 106.911 55.4272 106.754C55.8128 106.654 56.1867 106.513 56.258 106.442C56.3293 106.371 56.4457 106.312 56.5165 106.312C56.5873 106.312 56.7065 106.238 56.7814 106.148C56.8564 106.058 57.0075 105.984 57.1176 105.984C57.2275 105.984 57.3568 105.922 57.4049 105.847C57.453 105.772 57.8691 105.524 58.3294 105.297C58.7899 105.07 59.2265 104.811 59.2999 104.723C59.3732 104.634 59.5257 104.562 59.6385 104.562C59.7515 104.562 59.8439 104.518 59.8439 104.464C59.8439 104.409 59.9916 104.313 60.1721 104.25C60.3525 104.188 60.5002 104.084 60.5002 104.021C60.5002 103.958 60.6208 103.906 60.7682 103.906C60.9156 103.906 61.0755 103.844 61.1236 103.769C61.1718 103.694 61.4326 103.518 61.7033 103.378C62.4639 102.985 62.8304 102.77 62.9924 102.621C63.074 102.546 63.2358 102.484 63.3517 102.484C63.4678 102.484 63.5627 102.432 63.5627 102.369C63.5627 102.306 63.7104 102.202 63.8908 102.14C64.0713 102.077 64.2189 101.981 64.2189 101.926C64.2189 101.872 64.2903 101.828 64.3775 101.828C64.4647 101.828 64.7478 101.686 65.0065 101.513C65.2651 101.34 65.7597 101.066 66.1057 100.904C66.4516 100.742 66.7346 100.563 66.7346 100.507C66.7346 100.452 66.827 100.406 66.94 100.406C67.0529 100.406 67.2065 100.332 67.2814 100.242C67.3564 100.152 67.487 100.078 67.5717 100.078C67.6565 100.078 67.7542 100.004 67.7887 99.9137C67.8234 99.8235 67.9711 99.7497 68.1169 99.7497C68.2628 99.7497 68.4092 99.6788 68.4425 99.5923C68.4757 99.5058 68.6463 99.4034 68.8219 99.3649C68.9973 99.3263 69.1408 99.2495 69.1408 99.1941C69.1408 99.1387 69.2035 99.0934 69.2801 99.0934C69.3566 99.0934 69.6808 98.9211 70.0005 98.7106C70.3202 98.5001 70.646 98.3278 70.7246 98.3278C70.8031 98.3278 70.8957 98.254 70.9304 98.1637C70.965 98.0735 71.0948 97.9997 71.2189 97.9997C71.3431 97.9997 71.4729 97.9258 71.5075 97.8356C71.5422 97.7454 71.6858 97.6715 71.8267 97.6715C71.9677 97.6715 72.1224 97.6101 72.1705 97.5348C72.2186 97.4597 72.4919 97.276 72.7775 97.127C73.0632 96.9778 73.2971 96.8218 73.2971 96.7801C73.2971 96.7386 73.4406 96.673 73.616 96.6344C73.7916 96.5959 73.9622 96.4936 73.9954 96.4071C74.0287 96.3205 74.1762 96.2497 74.3233 96.2497C74.5961 96.2497 74.9956 96.7721 75.5358 97.8356C75.658 98.0762 75.8196 98.3125 75.8947 98.3606C75.97 98.4087 76.0314 98.5456 76.0314 98.6648C76.0314 98.784 76.1053 98.9099 76.1955 98.9444C76.2857 98.9791 76.3596 99.07 76.3596 99.1465C76.3596 99.2228 76.4334 99.3466 76.5236 99.4215C76.7109 99.577 76.7522 100.516 76.5794 100.689C76.5198 100.749 76.4401 101.042 76.4022 101.34C76.3644 101.638 76.2655 101.992 76.1824 102.125C76.0994 102.258 76.0299 102.578 76.028 102.836C76.0261 103.093 75.9523 103.4 75.8639 103.517C75.7756 103.633 75.703 103.904 75.7027 104.118C75.7022 104.332 75.6284 104.648 75.5386 104.821C75.4487 104.993 75.3752 105.314 75.3752 105.535C75.3752 105.755 75.2992 106.044 75.2062 106.177C75.1132 106.309 75.0073 106.677 74.9707 106.994C74.9342 107.311 74.8585 107.6 74.8026 107.637C74.7467 107.673 74.6734 108.007 74.6398 108.378C74.6062 108.749 74.5364 109.079 74.4848 109.111C74.3523 109.193 74.3669 110.468 74.5002 110.468C74.5604 110.468 74.6096 110.594 74.6096 110.747C74.6096 111.159 75.6887 112.218 76.1094 112.218C76.2831 112.218 76.4867 112.28 76.5619 112.355C76.669 112.462 79.102 112.498 87.8221 112.522C97.5595 112.549 99.0094 112.532 99.4583 112.386C99.7402 112.294 100.074 112.218 100.2 112.218C100.326 112.218 100.457 112.145 100.492 112.054C100.527 111.964 100.606 111.89 100.669 111.89C100.919 111.89 101.6 111.026 101.675 110.614C101.815 109.844 101.697 108.182 101.494 108.051C101.438 108.015 101.355 107.72 101.31 107.395C101.265 107.07 101.17 106.697 101.099 106.565C101.027 106.434 100.969 106.137 100.969 105.906C100.969 105.675 100.902 105.389 100.819 105.27C100.737 105.151 100.616 104.784 100.55 104.453C100.224 102.821 100.157 102.535 100.087 102.484C100.045 102.454 99.9744 102.159 99.9296 101.828C99.8847 101.497 99.7803 101.129 99.6976 101.01C99.4569 100.665 99.5007 99.5773 99.7658 99.3122C99.8861 99.1918 99.9846 99.0196 99.9846 98.9294C99.9846 98.8391 100.023 98.7653 100.069 98.7653C100.115 98.7653 100.275 98.5314 100.424 98.2458C100.573 97.9601 100.757 97.6869 100.832 97.6387C100.907 97.5906 100.969 97.4359 100.969 97.295C100.969 97.154 101.043 97.0104 101.133 96.9757C101.223 96.9411 101.297 96.8409 101.297 96.7531C101.297 96.3458 101.901 96.1041 102.193 96.395C102.343 96.546 102.595 96.6896 103.567 97.1792C103.882 97.3385 104.141 97.5144 104.141 97.5701C104.141 97.6259 104.264 97.6715 104.414 97.6715C104.565 97.6715 104.688 97.7233 104.688 97.7866C104.688 97.8499 104.835 97.9532 105.016 98.0161C105.196 98.079 105.344 98.1749 105.344 98.2291C105.344 98.2834 105.42 98.3278 105.513 98.3278C105.605 98.3278 105.787 98.4262 105.916 98.5465C106.045 98.6668 106.219 98.7653 106.302 98.7653C106.385 98.7653 106.527 98.8391 106.617 98.9294C106.708 99.0196 106.876 99.0934 106.992 99.0934C107.108 99.0934 107.203 99.1394 107.203 99.1955C107.203 99.2516 107.301 99.3286 107.421 99.3666C107.541 99.4047 107.701 99.4967 107.777 99.5711C107.852 99.6454 108.148 99.8189 108.434 99.9565C108.719 100.094 108.953 100.251 108.953 100.306C108.953 100.361 109.065 100.406 109.202 100.406C109.34 100.406 109.536 100.504 109.639 100.625C109.742 100.745 109.925 100.843 110.046 100.843C110.167 100.843 110.266 100.881 110.266 100.928C110.266 100.974 110.499 101.134 110.783 101.283C111.068 101.432 111.367 101.616 111.448 101.691C111.528 101.766 111.689 101.828 111.805 101.828C111.921 101.828 112.016 101.88 112.016 101.943C112.016 102.006 112.163 102.109 112.344 102.172C112.524 102.235 112.672 102.331 112.672 102.385C112.672 102.44 112.764 102.484 112.877 102.484C112.99 102.484 113.143 102.557 113.218 102.646C113.292 102.736 113.581 102.92 113.86 103.057C114.139 103.193 114.393 103.337 114.423 103.378C114.454 103.418 114.61 103.484 114.771 103.524C114.931 103.565 115.089 103.667 115.122 103.752C115.154 103.837 115.275 103.906 115.39 103.906C115.504 103.906 115.66 103.98 115.735 104.07C115.81 104.16 115.933 104.234 116.008 104.234C116.083 104.234 116.207 104.308 116.281 104.398C116.356 104.488 116.508 104.562 116.618 104.562C116.727 104.562 116.857 104.63 116.905 104.713C116.953 104.795 117.238 104.974 117.539 105.109C117.84 105.244 118.298 105.496 118.556 105.669C118.815 105.842 119.098 105.984 119.185 105.984C119.273 105.984 119.344 106.028 119.344 106.083C119.344 106.137 119.492 106.233 119.672 106.296C119.853 106.359 120 106.455 120 106.511C120 106.631 120.756 106.78 121.367 106.78C122.076 106.78 122.735 106.627 122.735 106.462C122.735 106.38 122.787 106.312 122.851 106.312C123.129 106.312 123.68 105.533 123.913 104.812C124.147 104.083 124.156 103.902 124.15 100.07C124.146 97.8786 124.097 95.8395 124.04 95.5387C123.983 95.2379 123.882 94.5981 123.816 94.1169C123.751 93.6356 123.659 93.2172 123.612 93.1872C123.565 93.1571 123.491 92.9198 123.448 92.66C123.405 92.4002 123.3 92.1611 123.216 92.1287C123.132 92.0965 123.063 91.9276 123.063 91.7536C123.063 91.5796 123.014 91.4372 122.955 91.4372C122.896 91.4372 122.815 91.3055 122.775 91.1445C122.734 90.9835 122.561 90.6442 122.39 90.3903C122.218 90.1366 122.078 89.8745 122.078 89.808C122.078 89.7415 122.005 89.6872 121.914 89.6872C121.824 89.6872 121.75 89.623 121.75 89.5444C121.75 89.466 121.578 89.2137 121.367 88.9839C121.157 88.754 120.985 88.4983 120.985 88.4156C120.985 88.3329 120.911 88.2653 120.821 88.2653C120.73 88.2653 120.656 88.1915 120.656 88.1012C120.656 88.011 120.583 87.9372 120.492 87.9372C120.402 87.9372 120.328 87.8633 120.328 87.7731C120.328 87.6829 120.286 87.609 120.234 87.609C120.182 87.609 119.997 87.3998 119.824 87.1442C119.651 86.8886 119.447 86.64 119.372 86.5919C119.296 86.5437 119.235 86.4576 119.235 86.4004C119.235 86.2628 118.827 85.859 118.688 85.859C118.628 85.859 118.578 85.7852 118.578 85.695C118.578 85.6047 118.536 85.5309 118.484 85.5309C118.432 85.5309 118.247 85.3217 118.074 85.0661C117.901 84.8105 117.697 84.5619 117.622 84.5137C117.546 84.4656 117.485 84.3798 117.485 84.323C117.485 84.2662 117.263 83.9951 116.992 83.7204C116.722 83.4458 116.5 83.2 116.5 83.1742C116.5 83.1251 116.216 82.767 115.981 82.5187C115.906 82.4394 115.844 82.3424 115.844 82.303C115.844 82.2637 115.684 82.0746 115.488 81.8828C115.293 81.6912 114.938 81.2769 114.7 80.9623C114.462 80.6476 114.229 80.3903 114.181 80.3903C114.133 80.3903 114.094 80.3149 114.094 80.2228C114.094 80.1306 114.02 80.0269 113.93 79.9924C113.84 79.9577 113.766 79.8608 113.766 79.777C113.766 79.6932 113.692 79.6247 113.602 79.6247C113.512 79.6247 113.438 79.5805 113.438 79.5266C113.438 79.4283 113.052 78.9399 112.59 78.4524C112.455 78.3096 112.344 78.1213 112.344 78.0338C112.344 77.9463 112.27 77.8747 112.18 77.8747C112.09 77.8747 112.016 77.8008 112.016 77.7106C112.016 77.6204 111.942 77.5465 111.852 77.5465C111.762 77.5465 111.688 77.4727 111.688 77.3825C111.688 77.2922 111.645 77.2184 111.593 77.2184C111.541 77.2184 111.357 77.0092 111.183 76.7536C111.01 76.498 110.806 76.2494 110.731 76.2012C110.656 76.1531 110.594 76.0424 110.594 75.9551C110.594 75.868 110.52 75.7965 110.43 75.7965C110.34 75.7965 110.266 75.7525 110.266 75.6986C110.266 75.6448 110.044 75.3663 109.774 75.0797L109.281 74.5586V73.6554C109.281 73.0844 109.327 72.7372 109.404 72.7113C109.479 72.6863 109.561 72.16 109.614 71.3624C109.662 70.6429 109.751 69.8083 109.812 69.5075C109.873 69.2067 109.95 68.0241 109.984 66.8796C110.018 65.735 110.099 64.2751 110.163 63.6352C110.243 62.8368 110.245 62.2203 110.17 61.6694C110.109 61.228 110.027 59.7594 109.987 58.4059C109.947 57.0524 109.869 55.7481 109.814 55.5075C109.759 55.2668 109.67 54.4963 109.616 53.7951C109.563 53.0939 109.466 52.4204 109.4 52.2984C109.335 52.1763 109.281 51.7756 109.281 51.4077C109.281 51.0398 109.214 50.6059 109.131 50.4434C109.048 50.281 108.946 49.767 108.903 49.3012C108.86 48.8354 108.785 48.4294 108.736 48.399C108.687 48.3687 108.613 48.054 108.572 47.6997C108.531 47.3455 108.428 46.9214 108.342 46.7574C108.257 46.5933 108.188 46.2186 108.188 45.9247C108.188 45.6308 108.142 45.3903 108.085 45.3903C108.029 45.3903 107.953 45.1565 107.918 44.8708C107.882 44.585 107.78 44.2119 107.692 44.0416C107.604 43.8713 107.53 43.576 107.528 43.3853C107.526 43.1947 107.452 42.9431 107.364 42.8264C107.276 42.7096 107.203 42.4622 107.203 42.2765C107.203 42.0909 107.134 41.8393 107.048 41.7176C106.963 41.5958 106.858 41.3065 106.814 41.0746C106.771 40.8426 106.668 40.5252 106.587 40.3692C106.506 40.2132 106.439 40.0089 106.438 39.9151C106.438 39.8213 106.365 39.6491 106.277 39.5323C106.189 39.4156 106.115 39.1661 106.113 38.9778C106.111 38.7897 106.036 38.5746 105.946 38.4997C105.855 38.4247 105.781 38.2218 105.781 38.0488C105.781 37.8757 105.738 37.734 105.685 37.734C105.632 37.734 105.534 37.5155 105.466 37.2483C105.399 36.9812 105.295 36.7322 105.235 36.695C105.174 36.6578 105.125 36.4879 105.125 36.3174C105.125 36.1469 105.056 35.981 104.972 35.9487C104.888 35.9163 104.785 35.6896 104.744 35.4448C104.702 35.1999 104.624 34.9997 104.569 34.9997C104.514 34.9997 104.469 34.9122 104.469 34.8053C104.469 34.6983 104.402 34.5137 104.32 34.3951C104.238 34.2765 104.133 34.0586 104.086 33.9111C104.04 33.7634 103.935 33.5754 103.853 33.493C103.771 33.4108 103.703 33.2238 103.703 33.0778C103.703 32.9317 103.654 32.8122 103.594 32.8122C103.534 32.8122 103.484 32.7507 103.483 32.6754C103.482 32.6003 103.338 32.268 103.164 31.9372C102.598 30.8643 102.281 30.203 102.281 30.0936C102.281 30.0348 102.245 29.9703 102.199 29.9501C102.154 29.9301 101.976 29.6308 101.804 29.2848C101.631 28.9389 101.446 28.6559 101.393 28.6559C101.34 28.6559 101.297 28.561 101.297 28.4449C101.297 28.329 101.236 28.1681 101.16 28.0876C101.085 28.007 100.902 27.7082 100.752 27.4235C100.603 27.1389 100.447 26.9059 100.406 26.9059C100.364 26.9059 100.298 26.7583 100.258 26.5778C100.218 26.3973 100.141 26.2497 100.085 26.2497C100.03 26.2497 99.9846 26.1835 99.9846 26.1025C99.9846 26.0216 99.8861 25.8663 99.7658 25.7575C99.6455 25.6486 99.5471 25.4933 99.5471 25.4124C99.5471 25.3315 99.4953 25.2653 99.432 25.2653C99.3687 25.2653 99.2654 25.1176 99.2025 24.9372C99.1396 24.7567 99.0437 24.609 98.9895 24.609C98.9352 24.609 98.8908 24.5106 98.8908 24.3903C98.8908 24.2688 98.8179 24.1715 98.7268 24.1715C98.6365 24.1715 98.5627 24.0806 98.5627 23.9695C98.5627 23.8584 98.4765 23.6661 98.3713 23.5422C98.2661 23.4183 98.1061 23.2058 98.0158 23.0699C97.9256 22.9341 97.7656 22.7326 97.6604 22.6222C97.5551 22.5119 97.4689 22.3477 97.4689 22.2575C97.4689 22.1672 97.3951 22.0934 97.3049 22.0934C97.2147 22.0934 97.1408 22.018 97.1408 21.926C97.1408 21.8338 97.067 21.7301 96.9768 21.6955C96.8865 21.6608 96.8127 21.5378 96.8127 21.4221C96.8127 21.3062 96.7389 21.1832 96.6486 21.1486C96.5584 21.114 96.4846 21.0196 96.4846 20.9387C96.4846 20.8579 96.4194 20.7525 96.3398 20.7043C96.2601 20.6562 96.0755 20.4446 95.9296 20.234C95.7837 20.0235 95.6028 19.8118 95.5275 19.7637C95.4524 19.7156 95.3908 19.6049 95.3908 19.5176C95.3908 19.4305 95.317 19.359 95.2268 19.359C95.1365 19.359 95.0627 19.2837 95.0627 19.1916C95.0627 19.0994 94.9889 18.9957 94.8986 18.9611C94.8084 18.9265 94.7346 18.8542 94.7346 18.8005C94.7346 18.7468 94.6361 18.5921 94.5158 18.4567C94.0848 17.9718 93.9689 17.827 93.9689 17.7731C93.9689 17.6731 93.5332 17.2809 93.4221 17.2809C93.3619 17.2809 93.3127 17.2055 93.3127 17.1135C93.3127 17.0213 93.2389 16.9176 93.1486 16.883C93.0584 16.8483 92.9846 16.7514 92.9846 16.6676C92.9846 16.5839 92.9108 16.5153 92.8205 16.5153C92.7303 16.5153 92.6564 16.4695 92.6564 16.4135C92.6564 16.2009 89.672 13.1247 89.4658 13.1247C89.3953 13.1247 89.2501 13.0454 89.143 12.9485C88.9151 12.7422 87.6935 12.6344 87.3356 12.7891ZM87.4885 19.809C87.263 20.0562 87.0783 20.3022 87.0783 20.3555C87.0783 20.409 87.0045 20.4528 86.9143 20.4528C86.824 20.4528 86.7502 20.5266 86.7502 20.6168C86.7502 20.7071 86.7115 20.7809 86.6641 20.7809C86.5534 20.7809 85.7658 21.8332 85.7658 21.9812C85.7658 22.0429 85.692 22.0934 85.6018 22.0934C85.5115 22.0934 85.4377 22.1372 85.4377 22.1908C85.4377 22.2442 85.2665 22.478 85.0574 22.7103C84.8483 22.9425 84.676 23.1887 84.6746 23.2575C84.6732 23.3263 84.5982 23.4108 84.508 23.4455C84.4178 23.4801 84.344 23.5838 84.344 23.676C84.344 23.768 84.2701 23.8434 84.1799 23.8434C84.0897 23.8434 84.0158 23.9188 84.0158 24.0109C84.0158 24.1031 83.942 24.2068 83.8518 24.2413C83.7615 24.276 83.6877 24.3653 83.6877 24.4399C83.6877 24.5594 83.5846 24.7095 83.1429 25.2333C83.0815 25.306 83.0315 25.3941 83.0315 25.4293C83.0315 25.4645 82.933 25.5989 82.8127 25.7279C82.6924 25.8571 82.594 26.0273 82.594 26.1063C82.594 26.1851 82.5201 26.2497 82.4299 26.2497C82.3388 26.2497 82.2658 26.3469 82.2658 26.4684C82.2658 26.5887 82.2214 26.6872 82.1672 26.6872C82.1129 26.6872 82.017 26.8348 81.9541 27.0153C81.8912 27.1958 81.788 27.3434 81.7246 27.3434C81.6613 27.3434 81.6096 27.3946 81.6096 27.4572C81.6096 27.5565 81.2193 28.1751 81.0605 28.3278C81.0291 28.3579 80.9434 28.5055 80.8699 28.6559C80.7006 29.0021 80.4995 29.3157 80.3244 29.5067C80.2493 29.5888 80.1877 29.7509 80.1877 29.8668C80.1877 29.9828 80.136 30.0778 80.0726 30.0778C80.0093 30.0778 79.9061 30.2254 79.8432 30.4059C79.7803 30.5864 79.6844 30.734 79.6301 30.734C79.5759 30.734 79.5315 30.8033 79.5315 30.8878C79.5315 30.9724 79.2854 31.4597 78.9846 31.9707C78.6838 32.4818 78.4377 32.9575 78.4377 33.028C78.4377 33.0983 78.3639 33.2298 78.2736 33.32C78.1834 33.4102 78.1096 33.579 78.1096 33.6949C78.1096 33.811 78.0627 33.9059 78.0053 33.9059C77.9162 33.9059 77.6745 34.5615 77.6727 34.8083C77.6724 34.8534 82.3725 34.8903 88.1174 34.8903H98.5627V34.6615C98.5627 34.5356 98.4643 34.3074 98.3439 34.1545C98.2236 34.0015 98.1252 33.8092 98.1252 33.7271C98.1252 33.6449 98.0799 33.5778 98.0245 33.5778C97.9691 33.5778 97.8921 33.4335 97.8534 33.2572C97.8147 33.0809 97.7123 32.878 97.626 32.8064C97.5396 32.7346 97.4689 32.559 97.4689 32.416C97.4689 32.2729 97.4172 32.1559 97.3539 32.1559C97.2906 32.1559 97.1873 32.0083 97.1244 31.8278C97.0615 31.6473 96.9656 31.4997 96.9114 31.4997C96.8571 31.4997 96.8127 31.4047 96.8127 31.2887C96.8127 31.1727 96.7389 31.004 96.6486 30.9137C96.5584 30.8235 96.4846 30.6799 96.4846 30.5947C96.4846 30.5095 96.3861 30.3507 96.2658 30.2418C96.1455 30.133 96.0471 29.9777 96.0471 29.8968C96.0471 29.8158 96.0018 29.7497 95.9463 29.7497C95.891 29.7497 95.8132 29.602 95.7736 29.4215C95.734 29.2411 95.6612 29.0934 95.612 29.0934C95.5627 29.0934 95.4142 28.886 95.2821 28.6326C95.15 28.3792 94.9482 28.0526 94.8336 27.9069C94.7189 27.7612 94.6252 27.5748 94.6252 27.4927C94.6252 27.4106 94.576 27.3434 94.5158 27.3434C94.4557 27.3434 94.4064 27.2805 94.4064 27.2036C94.4064 27.1267 94.308 26.9796 94.1877 26.8766C94.0674 26.7736 93.9689 26.6202 93.9689 26.5359C93.9689 26.4515 93.8951 26.3541 93.8049 26.3194C93.7147 26.2849 93.6408 26.1812 93.6408 26.089C93.6408 25.9969 93.5904 25.9215 93.5287 25.9215C93.4671 25.9215 93.3688 25.8108 93.3103 25.6754C93.1701 25.3513 92.9867 25.0793 92.6727 24.7307C92.5313 24.5735 92.3455 24.3096 92.2599 24.1442C92.1741 23.9788 92.056 23.8434 91.9974 23.8434C91.9387 23.8434 91.8908 23.7907 91.8908 23.7263C91.8908 23.6617 91.8294 23.5426 91.7541 23.4616C91.679 23.3804 91.519 23.1858 91.3986 23.0291C91.2783 22.8724 91.1184 22.6751 91.0432 22.5906C90.968 22.5062 90.9064 22.3944 90.9064 22.3422C90.9064 22.29 90.7609 22.1264 90.5829 21.9789C90.4051 21.8313 90.2574 21.6491 90.2548 21.5739C90.2523 21.4987 90.1764 21.4372 90.0861 21.4372C89.9959 21.4372 89.9221 21.3743 89.9221 21.2974C89.9221 21.2205 89.8359 21.0813 89.7307 20.9877C89.6255 20.8943 89.3916 20.6285 89.2111 20.3971C88.2641 19.1824 88.1087 19.1293 87.4885 19.809ZM75.3752 40.2926C75.3752 40.3764 75.3014 40.4733 75.2111 40.508C75.1209 40.5426 75.0467 40.6832 75.0464 40.8205C75.046 40.9576 74.9772 41.2013 74.8935 41.3618C74.8097 41.5223 74.7072 41.8545 74.6658 42.1001C74.6243 42.3456 74.5511 42.5465 74.503 42.5465C74.4549 42.5465 74.3809 42.7785 74.3383 43.0621C74.2958 43.3457 74.1918 43.6766 74.1072 43.7975C74.0226 43.9182 73.9533 44.169 73.9533 44.3546C73.9533 44.5403 73.881 44.7877 73.7928 44.9045C73.7044 45.0213 73.629 45.2891 73.6252 45.4997C73.6214 45.7102 73.546 45.9781 73.4576 46.0948C73.3694 46.2116 73.2971 46.5209 73.2971 46.7822C73.2971 47.0436 73.2235 47.3698 73.1334 47.5071C73.0434 47.6445 72.9379 48.0611 72.8991 48.433C72.8602 48.8049 72.7896 49.109 72.7421 49.109C72.6946 49.109 72.6215 49.5028 72.5796 49.984C72.5376 50.4653 72.4667 50.859 72.4221 50.859C72.3774 50.859 72.3074 51.2434 72.2664 51.7131C72.2254 52.1828 72.1228 52.7612 72.0384 52.9983C71.9539 53.2353 71.8819 53.8477 71.8784 54.359C71.8748 54.8763 71.802 55.4828 71.7143 55.7262C71.6135 56.0062 71.5544 56.6166 71.5504 57.4215C71.547 58.1133 71.4714 59.5653 71.3826 60.6481C71.2561 62.1893 71.2459 62.9256 71.3357 64.0387C71.3987 64.8208 71.4896 66.3735 71.5378 67.4895C71.5867 68.6238 71.6804 69.6212 71.7503 69.7518C71.819 69.8802 71.8752 70.4085 71.8752 70.9256C71.8752 71.4858 71.9373 72.0148 72.0289 72.2338C72.1133 72.436 72.2177 72.9882 72.2607 73.4607C72.3037 73.9333 72.3762 74.3692 72.422 74.4293C72.4676 74.4895 72.5403 74.8793 72.5835 75.2956C72.6268 75.7119 72.7042 76.1302 72.7553 76.2253C72.8065 76.3203 72.8999 76.7179 72.9627 77.1088C73.0255 77.4997 73.1264 77.8361 73.187 77.8562C73.2475 77.8764 73.2986 78.1226 73.3006 78.4033C73.3024 78.684 73.3763 79.0093 73.4646 79.126C73.5529 79.2428 73.6252 79.5223 73.6252 79.7472C73.6252 79.9719 73.699 80.2297 73.7893 80.32C73.8795 80.4102 73.9533 80.6494 73.9533 80.8515C73.9533 81.0536 74.0518 81.4121 74.1721 81.6481C74.2924 81.8841 74.3908 82.2144 74.3908 82.3821C74.3908 82.5499 74.4357 82.6872 74.4906 82.6872C74.5455 82.6872 74.6243 82.8881 74.6658 83.1336C74.7072 83.3792 74.8097 83.7113 74.8935 83.8719C74.9772 84.0324 75.046 84.2404 75.0464 84.3342C75.0467 84.428 75.1194 84.6002 75.2076 84.7171C75.296 84.8338 75.3698 85.0646 75.3717 85.2301C75.3737 85.3956 75.4186 85.5309 75.4716 85.5309C75.5246 85.5309 75.623 85.7494 75.6903 86.0166C75.7576 86.2837 75.8618 86.5328 75.922 86.57C75.9822 86.6072 76.0314 86.777 76.0314 86.9475C76.0314 87.1181 76.1007 87.2841 76.1852 87.3165C76.2698 87.3489 76.3745 87.5372 76.4179 87.7348C76.4613 87.9324 76.538 88.1695 76.5884 88.2617C76.7722 88.5981 77.1252 89.4594 77.1252 89.5718C77.1252 89.6352 77.1711 89.6872 77.2272 89.6872C77.2834 89.6872 77.3617 89.798 77.4014 89.9333C77.5147 90.3196 77.8994 91.1014 78.0097 91.1695C78.0646 91.2035 78.1096 91.3462 78.1096 91.4866C78.1096 91.627 78.1834 91.7702 78.2736 91.8049C78.3639 91.8394 78.4377 91.9871 78.4377 92.133C78.4377 92.2788 78.5069 92.4247 78.5915 92.4571C78.676 92.4896 78.7784 92.6671 78.8189 92.8516C78.8595 93.0362 78.9339 93.1872 78.9846 93.1872C79.0352 93.1872 79.1081 93.3307 79.1467 93.5061C79.1852 93.6816 79.2875 93.8523 79.3741 93.8855C79.4606 93.9188 79.5315 94.0474 79.5315 94.1715C79.5315 94.2957 79.6053 94.4255 79.6955 94.4601C79.7857 94.4947 79.8596 94.6102 79.8596 94.7168C79.8596 94.8232 79.9334 94.9716 80.0236 95.0465C80.1139 95.1215 80.1877 95.2751 80.1877 95.388C80.1877 95.501 80.2615 95.5934 80.3518 95.5934C80.442 95.5934 80.5158 95.6616 80.5158 95.7447C80.5158 95.8279 80.6266 95.9257 80.7619 95.962C81.0892 96.0497 94.9388 96.0503 95.3772 95.9626C95.5652 95.9249 95.7189 95.8265 95.7189 95.7438C95.7189 95.6611 95.7675 95.5934 95.8269 95.5934C95.8862 95.5934 96.0042 95.4272 96.0892 95.2239C96.1741 95.0207 96.2978 94.821 96.364 94.78C96.4303 94.739 96.4846 94.6084 96.4846 94.4898C96.4846 94.3711 96.5584 94.2457 96.6486 94.2111C96.7389 94.1765 96.8127 94.0549 96.8127 93.9411C96.8127 93.8272 96.8609 93.734 96.92 93.734C96.979 93.734 97.0611 93.5992 97.1025 93.4343C97.1439 93.2695 97.2432 93.0691 97.3234 92.989C97.4034 92.9089 97.4689 92.7485 97.4689 92.6325C97.4689 92.5165 97.5138 92.4215 97.5686 92.4215C97.6724 92.4215 98.1252 91.5617 98.1252 91.3646C98.1252 91.3026 98.2236 91.1384 98.3439 90.9997C98.4643 90.861 98.5627 90.6565 98.5627 90.5454C98.5627 90.4343 98.6097 90.3434 98.6672 90.3434C98.7246 90.3434 98.8039 90.1711 98.8434 89.9606C98.8828 89.7501 98.957 89.5778 99.0082 89.5778C99.0593 89.5778 99.1542 89.3809 99.2189 89.1403C99.2837 88.8997 99.3841 88.7028 99.442 88.7028C99.4997 88.7028 99.5471 88.5536 99.5471 88.3713C99.5471 88.1775 99.6152 88.0135 99.7111 87.9768C99.8014 87.9421 99.8755 87.8329 99.8759 87.7341C99.8763 87.6352 99.9501 87.4134 100.04 87.2411C100.13 87.0687 100.203 86.8793 100.203 86.8201C100.203 86.7608 100.273 86.5573 100.357 86.3677C100.442 86.1782 100.54 85.8912 100.576 85.73C100.612 85.5688 100.715 85.3631 100.805 85.2729C100.895 85.1828 100.969 85.0127 100.969 84.895C100.969 84.7772 101.042 84.54 101.132 84.3676C101.222 84.1953 101.296 83.9497 101.296 83.8216C101.297 83.6936 101.371 83.5277 101.461 83.4528C101.554 83.3758 101.625 83.1373 101.625 82.9043C101.625 82.6385 101.684 82.4694 101.789 82.4288C101.88 82.3943 101.953 82.2423 101.953 82.0913C101.953 81.9401 102.023 81.631 102.109 81.4042C102.194 81.1775 102.297 80.795 102.337 80.5544C102.377 80.3137 102.448 80.0676 102.495 80.0075C102.542 79.9473 102.612 79.6837 102.652 79.4218C102.692 79.1598 102.798 78.8054 102.886 78.6343C102.975 78.4631 103.047 78.1543 103.047 77.9482C103.047 77.742 103.121 77.3966 103.211 77.1806C103.301 76.9647 103.377 76.6264 103.379 76.4289C103.381 76.2315 103.453 75.9469 103.539 75.7965C103.626 75.6453 103.697 75.2275 103.7 74.8614C103.702 74.4974 103.757 74.1455 103.824 74.0793C103.89 74.0132 103.988 73.5481 104.043 73.0458C104.097 72.5435 104.189 71.911 104.246 71.6403C104.398 70.9261 104.576 68.9341 104.701 66.5543C104.823 64.2266 104.734 56.57 104.583 56.3876C104.529 56.3229 104.432 55.6555 104.368 54.9044C104.203 52.9736 104.049 51.868 103.864 51.2819C103.776 51.0031 103.703 50.5784 103.703 50.3382C103.703 50.0979 103.63 49.7247 103.539 49.5087C103.449 49.2928 103.375 48.9299 103.375 48.7024C103.374 48.4749 103.3 48.1477 103.21 47.9755C103.121 47.8031 103.047 47.5009 103.047 47.3038C103.047 47.1067 102.95 46.7309 102.831 46.4686C102.712 46.2064 102.613 45.8418 102.612 45.6583C102.611 45.4748 102.559 45.2741 102.497 45.2123C102.436 45.1506 102.355 44.8455 102.318 44.5342C102.281 44.223 102.212 43.9684 102.164 43.9684C102.115 43.9684 102.041 43.7362 101.999 43.4524C101.956 43.1687 101.855 42.8698 101.773 42.7884C101.692 42.7069 101.625 42.4926 101.625 42.3121C101.625 42.1317 101.558 41.917 101.476 41.8352C101.394 41.7532 101.295 41.486 101.256 41.2414C101.217 40.9967 101.137 40.7965 101.077 40.7965C101.018 40.7965 100.969 40.6792 100.969 40.5359C100.969 40.3579 100.891 40.2543 100.723 40.2092C100.588 40.173 94.8289 40.1426 87.926 40.1418C77.2703 40.1405 75.3752 40.1633 75.3752 40.2926ZM86.4368 48.9492C86.2345 49.0372 85.8654 49.1106 85.6165 49.1125C85.3678 49.1144 85.0687 49.1882 84.952 49.2766C84.8352 49.3649 84.6629 49.4375 84.5692 49.4378C84.4753 49.4383 84.2577 49.5121 84.0854 49.6019C83.913 49.6918 83.7114 49.7653 83.6373 49.7653C83.5631 49.7653 83.3889 49.8637 83.2502 49.984C83.1115 50.1043 82.9071 50.2028 82.796 50.2028C82.6848 50.2028 82.594 50.2472 82.594 50.3014C82.594 50.3557 82.4463 50.4516 82.2658 50.5145C82.0854 50.5774 81.9377 50.6806 81.9377 50.744C81.9377 50.8073 81.8691 50.859 81.7853 50.859C81.7016 50.859 81.6047 50.9329 81.57 51.0231C81.5354 51.1133 81.4358 51.1872 81.3487 51.1872C81.2615 51.1872 81.1739 51.224 81.1538 51.2692C81.1338 51.3144 80.9205 51.519 80.6799 51.724C80.4393 51.9289 80.0528 52.3473 79.8212 52.6537C79.5895 52.96 79.3311 53.25 79.247 53.2981C79.1627 53.3462 79.094 53.4569 79.094 53.5442C79.094 53.6314 79.0495 53.7028 78.9953 53.7028C78.941 53.7028 78.8451 53.8504 78.7822 54.0309C78.7193 54.2114 78.6161 54.359 78.5528 54.359C78.4894 54.359 78.4377 54.4836 78.4377 54.6359C78.4377 54.7882 78.3639 54.9411 78.2736 54.9757C78.1821 55.0108 78.1096 55.1734 78.1096 55.3434C78.1096 55.511 78.0427 55.6737 77.9612 55.7051C77.8796 55.7364 77.7843 55.9744 77.7495 56.2339C77.7146 56.4935 77.6338 56.7234 77.5698 56.7447C77.5057 56.766 77.4533 56.9673 77.4533 57.1921C77.4533 57.4167 77.3765 57.8592 77.2826 58.1756C77 59.1273 77.2019 61.87 77.6279 62.8667C77.7123 63.0642 77.7815 63.3411 77.7815 63.4821C77.7815 63.6231 77.8553 63.7997 77.9455 63.8747C78.0357 63.9496 78.1096 64.1218 78.1096 64.2575C78.1096 64.3931 78.1834 64.5654 78.2736 64.6403C78.3639 64.7152 78.4377 64.8462 78.4377 64.9316C78.4377 65.0922 78.8674 65.7609 79.0119 65.8251C79.0571 65.8453 79.094 65.9237 79.094 65.9996C79.094 66.0755 79.1924 66.2268 79.3127 66.3356C79.433 66.4444 79.5315 66.5997 79.5315 66.6807C79.5315 66.7616 79.6053 66.8278 79.6955 66.8278C79.7857 66.8278 79.8596 66.9016 79.8596 66.9918C79.8596 67.0821 79.9334 67.1559 80.0236 67.1559C80.1139 67.1559 80.1877 67.2297 80.1877 67.32C80.1877 67.4102 80.2615 67.484 80.3518 67.484C80.442 67.484 80.5158 67.5469 80.5158 67.6238C80.5158 67.7007 80.6183 67.8513 80.7437 67.9586C81.1 68.2638 82.011 68.9059 82.0874 68.9059C82.1254 68.9059 82.2549 69.0043 82.3752 69.1247C82.4955 69.245 82.6678 69.3434 82.758 69.3434C82.8482 69.3434 82.9221 69.3926 82.9221 69.4528C82.9221 69.5129 83.0083 69.5625 83.1135 69.5629C83.2187 69.5633 83.4525 69.6614 83.633 69.7809C83.8135 69.9005 84.0473 69.9986 84.1525 69.9989C84.2578 69.9993 84.344 70.0458 84.344 70.1024C84.344 70.1588 84.5778 70.2394 84.8635 70.2814C85.1492 70.3235 85.4801 70.425 85.5988 70.5069C85.9299 70.7355 90.3872 70.7221 90.5783 70.4918C90.6533 70.4016 90.7986 70.3278 90.9014 70.3278C91.2452 70.3278 92.6007 69.8592 92.6893 69.7097C92.7374 69.6286 92.8973 69.5622 93.0447 69.5622C93.1921 69.5622 93.3127 69.5104 93.3127 69.4471C93.3127 69.3838 93.4604 69.2805 93.6408 69.2176C93.8213 69.1547 93.9689 69.0588 93.9689 69.0046C93.9689 68.9503 94.0674 68.9059 94.1877 68.9059C94.3092 68.9059 94.4064 68.833 94.4064 68.7418C94.4064 68.6516 94.4726 68.5778 94.5536 68.5778C94.6345 68.5778 94.7898 68.4793 94.8986 68.359C95.0075 68.2387 95.1383 68.1403 95.1891 68.1403C95.3589 68.1403 96.8127 66.5542 96.8127 66.369C96.8127 66.3165 96.9604 66.1292 97.1408 65.9528C97.3213 65.7764 97.4689 65.5304 97.4689 65.4061C97.4689 65.282 97.5398 65.1531 97.6263 65.1199C97.7129 65.0866 97.8152 64.916 97.8537 64.7405C97.8923 64.565 97.9691 64.4215 98.0245 64.4215C98.0799 64.4215 98.1252 64.3593 98.1252 64.2832C98.1252 64.2072 98.2236 63.9612 98.3439 63.7367C98.4643 63.5122 98.5627 63.2029 98.5627 63.0493C98.5627 62.8957 98.6299 62.6372 98.7119 62.4747C98.8355 62.2299 99.0204 60.6107 99.0204 59.7731C99.0204 58.9355 98.8355 57.3163 98.7119 57.0715C98.6299 56.909 98.5627 56.6546 98.5627 56.5062C98.5627 56.3576 98.4896 56.0968 98.4004 55.9265C98.311 55.7562 98.1149 55.3339 97.9643 54.9879C97.8138 54.642 97.6408 54.359 97.5799 54.359C97.5188 54.359 97.4689 54.2831 97.4689 54.1904C97.4689 54.0247 97.3855 53.8965 97.0041 53.4762C96.8989 53.3602 96.8127 53.1915 96.8127 53.1012C96.8127 53.011 96.7389 52.9372 96.6486 52.9372C96.5584 52.9372 96.4846 52.8862 96.4846 52.824C96.4846 52.6817 94.9832 51.1872 94.8401 51.1872C94.7821 51.1872 94.7346 51.1407 94.7346 51.0838C94.7346 50.985 94.4185 50.782 93.8869 50.5393C93.7516 50.4775 93.6408 50.3765 93.6408 50.3149C93.6408 50.2532 93.5163 50.2028 93.364 50.2028C93.2116 50.2028 93.0599 50.1319 93.0267 50.0454C92.9934 49.9589 92.8228 49.8565 92.6473 49.818C92.4718 49.7794 92.3283 49.7056 92.3283 49.6539C92.3283 49.6022 92.1084 49.527 91.8396 49.4867C91.5709 49.4463 91.2942 49.3448 91.2247 49.2612C91.1471 49.1677 90.8825 49.1088 90.5376 49.1084C90.2291 49.1079 89.8358 49.0341 89.6635 48.9443C89.2332 48.7199 86.957 48.7234 86.4368 48.9492ZM87.2025 54.1992C87.0001 54.2872 86.708 54.359 86.5534 54.359C86.2602 54.359 85.3748 54.7422 85.2678 54.9154C85.2338 54.9703 85.1341 55.0153 85.0461 55.0153C84.8593 55.0153 83.6877 56.1371 83.6877 56.316C83.6877 56.3826 83.6178 56.4372 83.5323 56.4372C83.4469 56.4372 83.3445 56.5848 83.3049 56.7653C83.2653 56.9458 83.1929 57.0934 83.144 57.0934C83.0951 57.0934 83.0214 57.2287 82.98 57.3942C82.9388 57.5597 82.8407 57.7688 82.7621 57.859C82.3946 58.2805 82.3948 61.1553 82.7623 61.7418C82.8376 61.8622 82.9351 62.0798 82.9787 62.2256C83.0225 62.3714 83.1029 62.5437 83.1574 62.6084C83.212 62.6732 83.4512 62.9923 83.689 63.3176C83.9268 63.6428 84.3068 64.0365 84.5334 64.1926C84.76 64.3486 84.9849 64.5378 85.033 64.6129C85.0811 64.6882 85.2104 64.7497 85.3203 64.7497C85.4304 64.7497 85.5815 64.8235 85.6564 64.9137C85.7314 65.004 85.9036 65.0778 86.0393 65.0778C86.1749 65.0778 86.3472 65.1516 86.4221 65.2418C86.531 65.3731 86.8588 65.4059 88.0627 65.4059C89.2666 65.4059 89.5944 65.3731 89.7033 65.2418C89.7783 65.1516 89.9827 65.0778 90.1577 65.0778C90.3396 65.0778 90.5027 65.0076 90.5387 64.9137C90.5734 64.8235 90.6954 64.7497 90.8099 64.7497C90.9243 64.7497 91.1022 64.6512 91.2053 64.5309C91.3083 64.4106 91.4333 64.3122 91.4831 64.3122C91.6225 64.3122 92.3283 63.5952 92.3283 63.4535C92.3283 63.3843 92.4022 63.3278 92.4924 63.3278C92.5826 63.3278 92.6564 63.2592 92.6564 63.1754C92.6564 63.0916 92.7303 62.9947 92.8205 62.9601C92.9108 62.9255 92.9846 62.8032 92.9846 62.6884C92.9846 62.5735 93.0584 62.4183 93.1486 62.3434C93.2389 62.2685 93.3127 62.1131 93.3127 61.998C93.3127 61.8829 93.3989 61.6574 93.5041 61.4967C93.7829 61.0712 93.7809 58.4789 93.5015 58.0799C93.3977 57.9317 93.3127 57.7012 93.3127 57.5678C93.3127 57.4342 93.2648 57.2954 93.2063 57.2593C93.1477 57.2231 93.0152 57.0152 92.9118 56.7973C92.6818 56.3126 91.5113 55.1434 91.1705 55.0578C91.034 55.0236 90.8956 54.9261 90.8631 54.8414C90.8305 54.7565 90.6846 54.6872 90.5387 54.6872C90.3929 54.6872 90.2453 54.6133 90.2106 54.5231C90.171 54.4197 90.0035 54.359 89.7579 54.359C89.5435 54.359 89.1915 54.2852 88.9755 54.195C88.4823 53.9889 87.6826 53.9908 87.2025 54.1992ZM113.274 58.7339L112.075 59.9368L113.109 60.9761C113.679 61.5476 114.195 62.0153 114.258 62.0153C114.32 62.0153 114.899 61.4854 115.545 60.8375L116.719 59.6599L115.651 58.5953C115.063 58.01 114.558 57.5309 114.528 57.5309C114.498 57.5309 113.933 58.0722 113.274 58.7339ZM53.3847 66.7174C53.2911 66.771 52.8071 67.2607 52.3091 67.8056L51.4036 68.7962L52.0965 69.519C52.4775 69.9163 52.9778 70.3912 53.2083 70.5743L53.6272 70.907L54.5556 69.9885C55.0662 69.4833 55.527 68.9924 55.5795 68.8976C55.718 68.6477 53.6321 66.5757 53.3847 66.7174ZM119.69 74.0271L118.7 75.1015L119.772 76.1704L120.845 77.2393L121.872 76.1801C122.437 75.5976 122.913 75.0822 122.931 75.035C122.965 74.9428 120.888 72.9528 120.758 72.9528C120.715 72.9528 120.235 73.4362 119.69 74.0271ZM67.965 81.4251C67.8297 81.5604 67.7189 81.7073 67.7189 81.7515C67.7189 81.8238 67.4834 82.1059 66.926 82.7014C66.8208 82.8139 66.7346 82.9551 66.7346 83.0153C66.7346 83.0754 66.6607 83.1247 66.5705 83.1247C66.4803 83.1247 66.4064 83.1821 66.4064 83.2522C66.4064 83.3223 66.3349 83.4577 66.2474 83.553C65.7377 84.1084 65.6408 84.224 65.6408 84.2768C65.6408 84.3089 65.4932 84.4795 65.3127 84.6559C65.1322 84.8323 64.9846 85.0276 64.9846 85.0897C64.9846 85.1519 64.9107 85.2028 64.8205 85.2028C64.7303 85.2028 64.6564 85.2561 64.6564 85.3211C64.6564 85.4526 64.0011 86.2907 63.5354 86.755C63.3699 86.9199 63.2346 87.1057 63.2346 87.1678C63.2346 87.23 63.192 87.2809 63.1401 87.2809C63.0881 87.2809 62.9035 87.4874 62.7299 87.7398C62.5563 87.9923 62.2666 88.3579 62.0861 88.5525C61.3229 89.3751 61.1564 89.5671 61.1564 89.6243C61.1564 89.6846 60.895 90.0212 60.6369 90.2931C60.5618 90.3724 60.5002 90.4899 60.5002 90.5544C60.5002 90.6188 60.4304 90.6715 60.3451 90.6715C60.2597 90.6715 60.0835 90.8438 59.9533 91.0544C59.8232 91.2649 59.6716 91.4372 59.6162 91.4372C59.561 91.4372 59.5158 91.4946 59.5158 91.5647C59.5158 91.6348 59.4443 91.7702 59.3568 91.8655C58.832 92.4374 58.7502 92.5403 58.7502 92.6286C58.7502 92.6823 58.6764 92.7546 58.5861 92.7893C58.4959 92.8238 58.4221 92.9275 58.4221 93.0197C58.4221 93.1118 58.3785 93.1872 58.3254 93.1872C58.199 93.1872 57.754 94.2889 57.6223 94.9281C57.5656 95.2038 57.4977 96.3586 57.4716 97.4945C57.4265 99.4538 57.4343 99.5556 57.6223 99.4829C57.7314 99.4407 57.9558 99.3789 58.1213 99.3455C58.2868 99.3122 58.4221 99.2465 58.4221 99.1998C58.4221 99.153 58.5574 99.0606 58.7229 98.9944C58.8883 98.9281 59.1713 98.7764 59.3518 98.6572C59.5322 98.538 59.7859 98.3935 59.9154 98.3362C60.0449 98.2788 60.1831 98.1797 60.2226 98.1158C60.2621 98.0519 60.3915 97.9997 60.51 97.9997C60.6287 97.9997 60.7542 97.9258 60.7887 97.8356C60.8234 97.7454 60.9414 97.6715 61.051 97.6715C61.1605 97.6715 61.3156 97.6061 61.3957 97.5262C61.5529 97.3688 62.0787 97.0635 62.3869 96.9505C62.4921 96.9119 62.5783 96.8408 62.5783 96.7925C62.5783 96.7441 62.7218 96.673 62.8973 96.6344C63.0728 96.5959 63.2434 96.4936 63.2767 96.4071C63.3099 96.3205 63.4616 96.2497 63.614 96.2497C63.7662 96.2497 63.8908 96.1979 63.8908 96.1346C63.8908 96.0713 64.0385 95.968 64.2189 95.9051C64.3994 95.8422 64.5471 95.7463 64.5471 95.6921C64.5471 95.6378 64.6379 95.5934 64.7489 95.5934C64.8599 95.5934 65.0398 95.495 65.1486 95.3747C65.2575 95.2543 65.4128 95.1559 65.4937 95.1559C65.5747 95.1559 65.6408 95.1106 65.6408 95.0552C65.6408 94.9998 65.7918 94.9214 65.9764 94.8808C66.1609 94.8404 66.3384 94.738 66.3709 94.6534C66.4033 94.5689 66.5492 94.4997 66.695 94.4997C66.8409 94.4997 66.9885 94.4258 67.0231 94.3356C67.0578 94.2454 67.1793 94.1715 67.2932 94.1715C67.407 94.1715 67.5002 94.1271 67.5002 94.0729C67.5002 94.0186 67.6479 93.9227 67.8283 93.8598C68.0088 93.7969 68.1564 93.6937 68.1564 93.6303C68.1564 93.567 68.281 93.5153 68.4333 93.5153C68.5856 93.5153 68.7372 93.4448 68.7703 93.3589C68.8032 93.2728 68.9617 93.1482 69.1222 93.0821C69.5005 92.9261 69.893 92.6975 70.0469 92.5436C70.114 92.4764 70.2364 92.4215 70.3189 92.4215C70.4015 92.4215 70.5428 92.3477 70.633 92.2575C70.7233 92.1672 70.8868 92.0934 70.9963 92.0934C71.1059 92.0934 71.2239 92.0196 71.2585 91.9294C71.2931 91.8391 71.3891 91.7653 71.4719 91.7653C71.5547 91.7653 71.7654 91.6402 71.9402 91.4874C72.2356 91.229 72.2446 91.1992 72.0666 91.0652C71.9614 90.9858 71.8752 90.826 71.8752 90.7099C71.8752 90.594 71.7768 90.306 71.6564 90.07C71.5361 89.8339 71.4377 89.5775 71.4377 89.5C71.4377 89.4225 71.3885 89.359 71.3283 89.359C71.2682 89.359 71.2189 89.2395 71.2189 89.0934C71.2189 88.9473 71.1451 88.754 71.0549 88.6637C70.9646 88.5735 70.8908 88.3975 70.8908 88.2727C70.8908 88.1479 70.7924 87.8621 70.6721 87.6376C70.5518 87.4131 70.4533 87.1729 70.4533 87.1036C70.4533 87.0344 70.3798 86.8369 70.2899 86.6645C70.2001 86.4922 70.1263 86.2615 70.1259 86.1521C70.1255 86.0425 70.0514 85.8789 69.9611 85.7887C69.8709 85.6985 69.7955 85.4682 69.7936 85.2771C69.7917 85.0858 69.7179 84.8338 69.6295 84.7171C69.5412 84.6002 69.4686 84.428 69.4683 84.3342C69.4679 84.2404 69.394 84.0227 69.3042 83.8505C69.2143 83.6781 69.1408 83.3815 69.1408 83.1912C69.1408 83.0008 69.0742 82.7481 68.9927 82.6295C68.9114 82.5108 68.8171 82.2007 68.7833 81.9403C68.7478 81.6669 68.6372 81.4028 68.5212 81.3149C68.2705 81.125 68.2637 81.1264 67.965 81.4251ZM107.6 81.3226C107.562 81.4213 107.531 81.6116 107.531 81.7456C107.531 81.8795 107.459 82.0846 107.371 82.2014C107.283 82.3181 107.209 82.5873 107.207 82.7995C107.205 83.0118 107.136 83.2825 107.053 83.401C106.971 83.5197 106.867 83.7891 106.822 83.9997C106.777 84.2102 106.703 84.4317 106.658 84.4919C106.613 84.552 106.541 84.7928 106.499 85.0271C106.457 85.2613 106.352 85.5233 106.266 85.6091C106.18 85.695 106.11 85.9356 106.11 86.1437C106.11 86.3792 106.048 86.5459 105.946 86.5851C105.855 86.6197 105.781 86.7811 105.781 86.9436C105.781 87.1061 105.709 87.3346 105.621 87.4514C105.533 87.5681 105.459 87.7938 105.457 87.9528C105.455 88.1118 105.38 88.2702 105.289 88.3049C105.199 88.3394 105.125 88.4926 105.125 88.645C105.125 88.7975 105.027 89.1059 104.906 89.3305C104.786 89.5549 104.688 89.8009 104.688 89.8769C104.688 89.953 104.641 90.0153 104.583 90.0153C104.526 90.0153 104.447 90.1876 104.407 90.3981C104.368 90.6086 104.291 90.7809 104.238 90.7809C104.065 90.7809 104.135 91.3311 104.332 91.527C104.437 91.6315 104.757 91.8298 105.043 91.9676C105.329 92.1054 105.563 92.2639 105.563 92.3198C105.563 92.3758 105.686 92.4215 105.836 92.4215C105.987 92.4215 106.11 92.4671 106.11 92.523C106.11 92.5788 106.429 92.7756 106.821 92.9603C107.212 93.1451 107.531 93.3455 107.531 93.4058C107.531 93.466 107.63 93.5153 107.75 93.5153C107.871 93.5153 107.969 93.5597 107.969 93.6139C107.969 93.6682 108.117 93.7641 108.297 93.827C108.478 93.8899 108.625 93.9931 108.625 94.0565C108.625 94.1198 108.75 94.1715 108.902 94.1715C109.054 94.1715 109.207 94.2454 109.242 94.3356C109.277 94.4258 109.423 94.4997 109.567 94.4997C109.711 94.4997 109.828 94.5462 109.828 94.603C109.828 94.6599 109.95 94.7707 110.099 94.8491C110.247 94.9276 110.653 95.139 111.001 95.3189C111.349 95.4987 111.672 95.7078 111.721 95.7837C111.769 95.8595 111.905 95.9215 112.025 95.9215C112.144 95.9215 112.27 95.9954 112.304 96.0856C112.339 96.1758 112.457 96.2497 112.567 96.2497C112.676 96.2497 112.831 96.3119 112.91 96.388C112.99 96.464 113.289 96.6486 113.574 96.798C113.86 96.9474 114.094 97.1027 114.094 97.1431C114.094 97.1836 114.245 97.2498 114.43 97.2904C114.614 97.3308 114.792 97.4332 114.824 97.5178C114.856 97.6023 115.001 97.6715 115.145 97.6715C115.289 97.6715 115.406 97.7233 115.406 97.7866C115.406 97.8499 115.554 97.9532 115.735 98.0161C115.915 98.079 116.063 98.1749 116.063 98.2291C116.063 98.2834 116.161 98.3278 116.281 98.3278C116.402 98.3278 116.5 98.3667 116.5 98.4143C116.5 98.5109 117.604 99.0934 117.787 99.0934C117.851 99.0934 117.921 99.1441 117.941 99.206C117.962 99.2679 118.126 99.3293 118.306 99.3427L118.633 99.3669L118.668 98.3278C118.722 96.7643 118.579 94.4065 118.421 94.2489C118.348 94.175 118.253 93.9798 118.212 93.815C118.17 93.6501 118.088 93.5153 118.029 93.5153C117.97 93.5153 117.922 93.4164 117.922 93.2954C117.922 93.1746 117.824 92.9914 117.703 92.8884C117.583 92.7853 117.485 92.6645 117.485 92.6197C117.485 92.575 117.337 92.3874 117.156 92.2028C116.976 92.0182 116.828 91.8274 116.828 91.779C116.828 91.7304 116.607 91.4562 116.336 91.1696C116.065 90.8831 115.844 90.6155 115.844 90.5751C115.844 90.5346 115.709 90.3798 115.543 90.2311C115.378 90.0823 115.1 89.7514 114.927 89.4958C114.753 89.2401 114.569 89.0309 114.517 89.0309C114.465 89.0309 114.422 88.98 114.422 88.9178C114.422 88.8557 114.274 88.6605 114.094 88.484C113.913 88.3076 113.766 88.1124 113.766 88.0503C113.766 87.988 113.692 87.9372 113.602 87.9372C113.512 87.9372 113.438 87.8839 113.438 87.8188C113.438 87.6848 112.689 86.7254 112.481 86.5919C112.406 86.5437 112.344 86.433 112.344 86.3458C112.344 86.2586 112.27 86.1872 112.18 86.1872C112.09 86.1872 112.016 86.1133 112.016 86.0231C112.016 85.9329 111.942 85.859 111.852 85.859C111.762 85.859 111.688 85.8026 111.688 85.7336C111.688 85.5918 110.95 84.6478 110.734 84.5137C110.657 84.4656 110.594 84.3549 110.594 84.2676C110.594 84.1805 110.52 84.109 110.43 84.109C110.34 84.109 110.266 84.0352 110.266 83.945C110.266 83.8547 110.223 83.7809 110.171 83.7809C110.119 83.7809 109.939 83.5717 109.772 83.3161C109.605 83.0605 109.327 82.7238 109.156 82.5681C108.984 82.4123 108.844 82.2395 108.844 82.184C108.844 82.1286 108.696 81.9612 108.516 81.8122C108.335 81.6631 108.188 81.4791 108.188 81.4032C108.188 81.3273 108.143 81.2653 108.087 81.2653C108.032 81.2653 107.915 81.2378 107.828 81.2044C107.739 81.1701 107.639 81.222 107.6 81.3226ZM135.789 87.6996C135.828 87.9435 135.917 88.2814 135.986 88.4502C136.056 88.6192 136.122 88.8067 136.133 88.8669C136.145 88.927 136.166 89.0008 136.179 89.0309C136.193 89.061 136.222 89.1594 136.244 89.2497C136.357 89.7129 137.278 92.8752 137.359 93.0778C137.395 93.168 137.434 93.2911 137.446 93.3512C137.457 93.4114 137.481 93.4975 137.497 93.5426C137.514 93.5878 137.538 93.6615 137.551 93.7067C137.563 93.7519 137.603 93.8625 137.64 93.9528C137.676 94.043 137.802 94.4684 137.919 94.8981L138.133 95.6794L137.704 97.2497C137.468 98.1133 137.244 98.8938 137.207 98.984C137.169 99.0743 137.129 99.1973 137.117 99.2575C137.106 99.3176 137.085 99.3915 137.071 99.4215C137.038 99.4933 136.98 99.7298 136.899 100.125C136.862 100.301 136.808 100.485 136.777 100.535C136.747 100.584 136.697 100.735 136.667 100.87C136.596 101.189 136.564 101.3 136.481 101.5C136.372 101.767 135.754 104.056 135.784 104.085C135.84 104.142 139.593 103.098 139.961 102.923C140.081 102.866 140.647 102.692 141.219 102.538C141.79 102.383 142.332 102.227 142.422 102.19C142.512 102.153 142.685 102.105 142.805 102.083C142.925 102.061 143.196 101.984 143.406 101.912C143.617 101.841 143.822 101.78 143.862 101.778C143.902 101.775 143.97 101.738 144.013 101.695C144.056 101.652 144.183 101.666 144.296 101.726C144.408 101.786 144.5 101.803 144.5 101.764C144.5 101.724 144.562 101.742 144.637 101.804C144.712 101.866 144.946 101.948 145.156 101.986C145.571 102.061 145.671 102.088 145.922 102.19C146.012 102.227 146.554 102.384 147.125 102.539C147.697 102.694 148.238 102.851 148.328 102.888C148.419 102.925 148.542 102.965 148.602 102.976C148.662 102.988 148.736 103.009 148.766 103.023C148.838 103.055 149.074 103.113 149.469 103.195C149.645 103.231 149.83 103.286 149.879 103.316C149.928 103.347 150.079 103.396 150.215 103.426C150.534 103.497 150.644 103.53 150.844 103.612C151.052 103.698 152.594 104.118 152.594 104.089C152.594 103.99 151.719 100.931 151.666 100.846C151.628 100.785 151.575 100.636 151.549 100.516C151.441 100.031 150.759 97.6677 150.665 97.4548C150.625 97.3634 150.584 97.2395 150.575 97.1794C150.566 97.1192 150.527 96.9961 150.488 96.9059C150.257 96.3645 150.111 95.6163 150.205 95.4494C150.262 95.3481 150.275 95.2653 150.234 95.2653C150.194 95.2653 150.21 95.2038 150.271 95.1286C150.366 95.0109 150.526 94.467 150.57 94.1169C150.577 94.0567 150.616 93.9336 150.656 93.8434C150.722 93.696 151.483 91.1029 151.538 90.8356C151.551 90.7754 151.591 90.677 151.627 90.6169C151.663 90.5567 151.733 90.3352 151.781 90.1247C151.829 89.9141 151.881 89.6926 151.896 89.6325C151.912 89.5723 151.95 89.4247 151.981 89.3044C152.012 89.184 152.137 88.7657 152.26 88.3747C152.555 87.4337 152.552 87.2626 152.238 87.3278C151.726 87.4345 151.546 87.4836 151.254 87.5966C151.089 87.6607 150.953 87.6836 150.953 87.6477C150.953 87.6117 150.892 87.6311 150.817 87.6907C150.741 87.7505 150.163 87.9337 149.531 88.0979C148.9 88.2622 148.329 88.4405 148.264 88.4941C148.198 88.5477 148.115 88.5623 148.079 88.5268C148.044 88.4913 147.95 88.5026 147.871 88.5521C147.792 88.6015 147.678 88.6542 147.617 88.6693C147.557 88.6843 146.71 88.9255 145.734 89.205C144.613 89.5265 143.889 89.6825 143.766 89.6291C143.658 89.5827 143.521 89.5303 143.461 89.5127C140.213 88.5627 140.012 88.5058 139.589 88.4185C139.444 88.3887 139.223 88.309 139.097 88.2416C138.971 88.1742 138.855 88.1273 138.84 88.1374C138.825 88.1476 138.8 88.1522 138.785 88.1475C138.77 88.1429 138.684 88.1212 138.594 88.0993C138.432 88.0597 136.327 87.4454 135.926 87.3206C135.738 87.2623 135.725 87.299 135.789 87.6996ZM37.8294 87.6695C37.5421 87.7449 37.2221 87.8435 37.1184 87.8886C37.0148 87.9338 36.8807 87.9803 36.8205 87.992C36.7604 88.0037 36.6865 88.0244 36.6564 88.0382C36.5849 88.0709 36.3489 88.1289 35.9559 88.2101C35.7812 88.2461 35.5597 88.3177 35.4637 88.3691C35.3678 88.4205 35.24 88.4735 35.1799 88.4872C35.1197 88.5008 35.0213 88.5269 34.9611 88.5452C34.901 88.5636 34.2365 88.755 33.4846 88.9706C32.0251 89.3892 31.9861 89.4009 31.7346 89.4999C31.6443 89.5355 31.2142 89.662 30.7786 89.7811L29.9868 89.9978L28.8646 89.6758C27.6304 89.3216 27.3703 89.25 27.1713 89.21C27.0978 89.1952 27.0036 89.1488 26.9617 89.107C26.9199 89.0651 26.7702 89.0309 26.6289 89.0309C26.4877 89.0309 26.2867 88.9819 26.1823 88.922C26.0778 88.8619 25.3525 88.6385 24.5705 88.4252C23.7885 88.2119 23.0748 88.0054 22.9846 87.9663C22.8943 87.927 22.7713 87.8909 22.7111 87.8859C22.651 87.8808 22.5522 87.8455 22.4915 87.8074C22.4309 87.7694 22.1918 87.7027 21.9601 87.6592C21.5809 87.5881 21.545 87.6007 21.6012 87.786C21.6354 87.8992 21.7695 88.3856 21.899 88.8669C22.0286 89.3481 22.1645 89.7911 22.201 89.8512C22.2375 89.9114 22.2783 90.0098 22.2915 90.07C22.4022 90.5735 22.4321 90.6835 22.4805 90.7617C22.5109 90.8108 22.5654 90.9952 22.6018 91.1714C22.6834 91.5664 22.7413 91.8029 22.7741 91.8747C22.7879 91.9047 22.8087 91.9786 22.8204 92.0387C22.8321 92.0989 22.8715 92.2219 22.908 92.3122C22.9445 92.4024 23.0564 92.7715 23.1567 93.1325C23.257 93.4934 23.3819 93.8424 23.4343 93.9082C23.4867 93.9739 23.5004 94.0567 23.4648 94.0922C23.4293 94.1279 23.4407 94.2217 23.4901 94.3009C23.5395 94.3802 23.5908 94.4942 23.604 94.5544C23.7178 95.0723 23.8077 95.3857 23.9113 95.6256C23.9966 95.8231 23.8757 96.5457 23.5963 97.5075C23.5788 97.5676 23.5344 97.6907 23.4975 97.7809C23.4607 97.8711 23.3037 98.4126 23.1486 98.984C22.9935 99.5555 22.8365 100.097 22.7995 100.187C22.7625 100.277 22.7227 100.4 22.711 100.461C22.6993 100.521 22.6787 100.595 22.665 100.625C22.6513 100.655 22.6187 100.802 22.5924 100.953C22.5661 101.103 22.5131 101.3 22.4746 101.39C22.382 101.607 22.364 101.672 22.1662 102.484C22.1442 102.574 22.115 102.673 22.1013 102.703C22.0875 102.733 22.0668 102.807 22.0553 102.867C22.0437 102.927 21.9776 103.114 21.9081 103.283C21.8388 103.452 21.7513 103.783 21.7136 104.018L21.6454 104.445L22.6704 104.164C23.2343 104.01 23.7816 103.838 23.8869 103.782C23.9922 103.725 24.0783 103.712 24.0783 103.751C24.0783 103.791 24.147 103.766 24.2309 103.697C24.3148 103.627 24.4255 103.58 24.477 103.591C24.5284 103.603 24.6443 103.58 24.7346 103.541C24.9267 103.457 27.2759 102.774 27.7697 102.658C27.8751 102.633 28.336 102.49 28.794 102.339C29.2521 102.189 29.7197 102.053 29.8331 102.038C30.1225 102 30.8497 102.161 30.923 102.28C30.9566 102.334 31.0299 102.35 31.0859 102.315C31.1419 102.281 31.2493 102.291 31.3244 102.338C31.4676 102.427 31.4842 102.432 32.0004 102.539C32.1766 102.575 32.361 102.63 32.4101 102.66C32.4592 102.69 32.6103 102.74 32.7459 102.77C33.063 102.841 33.1743 102.873 33.3752 102.955C33.4654 102.992 34.0068 103.149 34.5783 103.304C35.1498 103.459 35.6912 103.617 35.7814 103.653C35.8717 103.69 35.9947 103.73 36.0549 103.742C36.115 103.754 36.1889 103.774 36.2189 103.788C36.2907 103.821 36.5272 103.879 36.9222 103.961C37.0984 103.997 37.2828 104.051 37.3319 104.082C37.4159 104.134 37.5683 104.173 38.1604 104.296C38.4598 104.359 38.4677 104.253 38.2223 103.461C38.1209 103.134 38.0286 102.83 38.0172 102.785C38.0057 102.74 37.9826 102.666 37.966 102.621C37.9493 102.576 37.9261 102.49 37.9144 102.429C37.9027 102.369 37.8636 102.246 37.8276 102.156C37.7917 102.066 37.6583 101.623 37.5314 101.172C37.4046 100.72 37.2714 100.277 37.2355 100.187C37.1585 99.9935 37.1294 99.8961 37.0393 99.5309C36.9456 99.1514 36.9184 99.0627 36.8383 98.8747C36.7998 98.7844 36.7468 98.5876 36.7205 98.4372C36.6942 98.2868 36.6616 98.1391 36.6479 98.109C36.6342 98.079 36.6136 98.0051 36.6019 97.945C36.5902 97.8848 36.5512 97.7618 36.5155 97.6715C36.4796 97.5813 36.3524 97.1705 36.2327 96.7587L36.0152 96.0099L36.5571 94.079C36.8552 93.017 37.1188 92.0743 37.1428 91.984C37.1669 91.8938 37.1979 91.7954 37.2116 91.7653C37.2254 91.7352 37.2462 91.6614 37.2579 91.6012C37.2696 91.5411 37.3087 91.418 37.3446 91.3278C37.3806 91.2375 37.5139 90.7946 37.6408 90.3434C37.7677 89.8922 37.8921 89.4611 37.9172 89.3853C37.9424 89.3094 37.9708 89.2109 37.9805 89.1665C37.9902 89.122 38.0919 88.7471 38.2065 88.3333C38.3211 87.9196 38.4008 87.5701 38.3834 87.5568C38.366 87.5433 38.1167 87.594 37.8294 87.6695ZM140.359 92.2301C140.422 92.4257 140.5 92.6594 140.534 92.7497C140.568 92.8399 140.606 92.9629 140.617 93.0231C140.629 93.0833 140.652 93.1693 140.669 93.2145C140.686 93.2597 140.709 93.3334 140.721 93.3786C140.733 93.4237 140.833 93.7559 140.944 94.1169C141.055 94.4778 141.156 94.8469 141.167 94.9372C141.179 95.0274 141.238 95.2222 141.297 95.37C141.378 95.572 141.341 95.8703 141.148 96.5731C141.007 97.087 140.859 97.5813 140.82 97.6715C140.78 97.7618 140.738 97.8848 140.727 97.945C140.715 98.0051 140.694 98.079 140.68 98.109C140.645 98.1854 140.585 98.4352 140.509 98.82C140.474 99.0004 140.419 99.2343 140.387 99.3395C140.322 99.5554 140.556 99.5973 140.865 99.4253C141.139 99.2727 143.729 98.5345 144.117 98.4983C144.298 98.4815 144.502 98.5118 144.571 98.5657C144.64 98.6195 144.738 98.6541 144.789 98.6423C144.841 98.6308 144.957 98.6518 145.047 98.689C145.137 98.7263 145.679 98.8836 146.25 99.0387C146.822 99.1938 147.363 99.3501 147.453 99.3863C147.839 99.5406 147.996 99.4994 147.936 99.2599C147.904 99.1311 147.863 98.9549 147.846 98.8682C147.829 98.7816 147.784 98.6368 147.748 98.5465C147.711 98.4563 147.554 97.9149 147.399 97.3434C147.244 96.7719 147.085 96.2305 147.047 96.1403C146.952 95.9171 146.924 95.3449 147.001 95.2106C147.036 95.1504 147.076 95.052 147.091 94.9919C147.105 94.9317 147.294 94.2918 147.51 93.57C148.043 91.7945 148.032 91.8747 147.739 91.8747C147.602 91.8747 147.455 91.9089 147.414 91.9508C147.372 91.9926 147.278 92.0389 147.204 92.0537C146.804 92.1343 146.364 92.2553 146.141 92.3458C146.051 92.3825 145.563 92.5292 145.058 92.6717L144.139 92.9308L142.269 92.4059C141.24 92.1173 140.364 91.8796 140.322 91.8778C140.28 91.8761 140.297 92.0346 140.359 92.2301ZM32.8283 92.3818C32.317 92.528 31.8248 92.678 31.7346 92.7151C31.544 92.7936 31.4511 92.8217 31.0783 92.9137C30.6892 93.0098 30.6188 93.0321 30.3138 93.1557C30.109 93.2387 29.8647 93.2139 29.3294 93.0555C28.5277 92.8184 28.5399 92.8216 28.0158 92.7022C27.8053 92.6543 27.5639 92.5592 27.4794 92.491C27.395 92.4227 27.3212 92.3871 27.3154 92.4117C27.3096 92.4364 27.1207 92.3957 26.8956 92.3215C26.1566 92.0776 26.1466 92.1157 26.5561 93.6247C26.7603 94.3766 26.9582 95.0657 26.9959 95.1559C27.1921 95.625 27.2548 96.2595 27.1217 96.4296C27.0679 96.4984 27.0333 96.5968 27.045 96.6483C27.0566 96.6997 27.0349 96.8157 26.9967 96.9059C26.8972 97.141 26.1787 99.799 26.2059 99.8314C26.2298 99.8597 27.2967 99.5664 27.5783 99.4539C27.7276 99.3944 27.8725 99.352 28.1799 99.2777C28.24 99.2632 28.3508 99.2129 28.426 99.1659C28.5012 99.1189 28.6085 99.1088 28.6645 99.1434C28.7205 99.1781 28.7938 99.1619 28.8274 99.1076C28.892 99.003 29.5267 98.8455 29.9846 98.8203C30.2482 98.8059 30.8473 98.9258 31.1877 99.0613C31.363 99.1309 31.5111 99.1752 31.8166 99.249C31.9218 99.2745 32.0326 99.3067 32.0627 99.3205C32.0928 99.3343 32.1666 99.355 32.2268 99.3667C32.2869 99.3784 32.41 99.4176 32.5002 99.4537C32.5904 99.4898 32.9288 99.595 33.2522 99.6874L33.84 99.8554L33.7669 99.3978C33.7266 99.1461 33.6407 98.8762 33.5758 98.7981C33.5108 98.7199 33.4944 98.6559 33.5393 98.6559C33.5841 98.6559 33.5638 98.5872 33.4941 98.5033C33.4245 98.4194 33.3771 98.3088 33.3888 98.2572C33.4004 98.2058 33.3771 98.0899 33.3369 97.9997C33.2967 97.9094 33.1503 97.4179 33.0115 96.9073L32.7592 95.9791L33.1242 94.7198C33.5323 93.3117 33.5751 93.1589 33.6384 92.8864C33.6629 92.7812 33.7173 92.5597 33.7597 92.3942C33.8019 92.2287 33.8188 92.0985 33.7972 92.1048C33.7756 92.111 33.3397 92.2357 32.8283 92.3818ZM81.7862 101.66C81.6891 101.808 81.6096 102.106 81.6096 102.322C81.6096 102.537 81.5406 102.847 81.4561 103.01C81.3717 103.174 81.267 103.553 81.2236 103.853C81.1801 104.153 81.1077 104.447 81.0627 104.507C81.0177 104.568 80.9462 104.863 80.9039 105.164C80.8616 105.465 80.7569 105.82 80.6714 105.953C80.5858 106.086 80.5158 106.394 80.5158 106.636V107.078H88.1174H95.7189L95.7155 106.722C95.7136 106.527 95.6398 106.271 95.5514 106.155C95.4631 106.038 95.3908 105.76 95.3908 105.538C95.3908 105.316 95.3173 104.993 95.2274 104.821C95.1376 104.648 95.0638 104.373 95.0634 104.209C95.063 104.045 94.993 103.725 94.9079 103.498C94.8228 103.271 94.7234 102.874 94.6871 102.616C94.6508 102.358 94.5764 102.062 94.5217 101.96C94.4672 101.857 94.3957 101.687 94.3631 101.582C94.3077 101.402 93.9146 101.39 88.1334 101.39H81.9629L81.7862 101.66ZM48.0013 106.688C47.7139 106.771 47.4058 106.866 47.3165 106.9C47.2272 106.934 47.1423 106.952 47.128 106.94C47.1136 106.927 46.9049 107.034 46.6643 107.178C45.8275 107.677 44.2642 109.344 44.153 109.857C44.1387 109.922 44.0976 110.05 44.0616 110.14C43.6712 111.119 43.5996 112.903 43.9154 113.777C43.9944 113.996 44.0621 114.217 44.0747 114.297C44.1187 114.578 45.3581 116.375 45.5082 116.375C45.5528 116.375 45.8105 116.547 46.0807 116.758C47.1433 117.585 48.7779 117.985 50.1643 117.755C50.9496 117.625 51.6315 117.367 52.5015 116.872C53.377 116.373 54.3715 114.981 54.7703 113.695C55.0832 112.686 54.9661 110.688 54.5635 110.168C54.5054 110.092 54.4885 110.031 54.526 110.031C54.6059 110.031 54.3068 109.457 53.9923 109.007C53.6043 108.451 52.9292 107.734 52.7944 107.734C52.7223 107.734 52.5478 107.611 52.4064 107.461C52.2651 107.31 52.0696 107.187 51.9718 107.187C51.874 107.187 51.7472 107.145 51.69 107.094C51.1806 106.639 49.0099 106.4 48.0013 106.688ZM63.4239 108.912C62.8385 109.499 62.3596 110.032 62.3596 110.096C62.3596 110.159 62.845 110.66 63.4382 111.209L64.5168 112.207L65.6261 111.08L66.7353 109.952L65.662 108.898C65.0717 108.318 64.5661 107.843 64.5385 107.843C64.5109 107.843 64.0093 108.324 63.4239 108.912ZM48.7971 109.664C47.8107 110.017 47.1283 110.709 46.9032 111.583C46.8151 111.926 46.7576 112.221 46.7754 112.24C46.7932 112.258 46.832 112.421 46.8618 112.601C46.8915 112.782 46.9655 113.052 47.0263 113.203C47.1707 113.56 48.1224 114.47 48.4577 114.571C48.8251 114.681 49.8034 114.714 50.0002 114.623C50.8605 114.223 51.4221 113.82 51.4221 113.602C51.4221 113.543 51.5047 113.402 51.6056 113.291C51.8525 113.018 51.8956 111.668 51.6717 111.219C51.4156 110.706 50.4759 109.847 50.081 109.766C49.4836 109.643 48.9692 109.602 48.7971 109.664ZM117.977 110.596C117.796 110.647 117.526 110.715 117.375 110.748C116.776 110.88 116.146 111.166 115.959 111.392C115.881 111.485 115.76 111.562 115.69 111.562C115.53 111.562 114.422 112.676 114.422 112.837C114.422 112.903 114.343 113.023 114.246 113.104C114.012 113.298 113.607 114.213 113.442 114.919C113.248 115.753 113.386 117.415 113.717 118.209C113.799 118.405 113.856 118.579 113.843 118.594C113.831 118.61 113.931 118.763 114.067 118.935C114.202 119.107 114.313 119.311 114.313 119.388C114.313 119.548 115.569 120.722 115.899 120.87C116.019 120.924 116.191 121.013 116.281 121.068C116.588 121.256 117.244 121.515 117.413 121.515C117.505 121.515 117.605 121.555 117.635 121.603C117.665 121.651 117.902 121.708 118.161 121.729C120.29 121.904 121.529 121.465 122.978 120.021C123.446 119.555 123.828 119.088 123.828 118.984C123.828 118.879 123.881 118.762 123.944 118.722C124.052 118.656 124.262 118.215 124.307 117.961C124.318 117.9 124.356 117.802 124.392 117.742C124.618 117.361 124.666 115.699 124.474 114.898C124.416 114.657 124.349 114.375 124.324 114.27C124.299 114.166 124.204 113.944 124.112 113.778C124.021 113.612 123.874 113.328 123.787 113.147C123.601 112.76 122.323 111.504 121.953 111.345C121.811 111.284 121.622 111.191 121.531 111.138C120.668 110.627 118.855 110.351 117.977 110.596ZM118.36 113.689C117.146 114.059 116.334 115.205 116.462 116.37C116.508 116.791 116.872 117.652 117.119 117.925C117.31 118.136 118.141 118.597 118.141 118.492C118.141 118.456 118.205 118.479 118.284 118.545C118.485 118.711 119.662 118.632 120.055 118.425C120.534 118.172 121.147 117.478 121.334 116.976C121.531 116.448 121.506 115.584 121.278 115.062C121.101 114.656 120.459 113.974 120.206 113.923C120.123 113.906 119.919 113.837 119.754 113.769C119.31 113.587 118.793 113.557 118.36 113.689ZM75.6486 119.21C75.5283 119.257 75.3305 119.33 75.2091 119.372C75.0875 119.415 74.875 119.615 74.7368 119.816C74.4563 120.226 74.4548 120.288 74.5544 127.203C74.5783 128.857 74.6269 132.721 74.6625 135.789C74.7212 140.855 74.7451 141.402 74.9227 141.745C75.3434 142.558 76.478 142.804 77.165 142.23C77.3735 142.056 77.599 141.766 77.6663 141.587C77.7958 141.24 77.813 138.721 77.7246 133.054C77.6973 131.31 77.6504 127.791 77.6201 125.234C77.5633 120.423 77.5439 120.096 77.2937 119.738C76.9997 119.319 76.1048 119.031 75.6486 119.21ZM86.0245 119.359C85.5029 119.769 85.492 119.858 85.3847 124.578C85.3499 126.112 85.3008 127.81 85.2756 128.351C85.2505 128.893 85.1994 130.566 85.1621 132.07C85.1248 133.574 85.077 135.223 85.056 135.734C85.0349 136.245 84.9842 137.968 84.9433 139.562C84.9024 141.156 84.8521 142.904 84.8315 143.445C84.811 143.986 84.7624 145.66 84.7237 147.164C84.685 148.668 84.6416 150.095 84.6272 150.336C84.5938 150.898 84.9497 151.592 85.3832 151.81C85.5636 151.9 85.9683 151.972 86.2826 151.97C86.7339 151.966 86.9145 151.908 87.1407 151.697C87.5983 151.27 87.7048 150.946 87.7318 149.898C87.7458 149.357 87.7746 148.422 87.7958 147.82C87.8333 146.757 87.8882 144.928 88.0072 140.765C88.0391 139.652 88.0885 138.077 88.1171 137.265C88.1456 136.453 88.1952 134.657 88.2271 133.273C88.259 131.889 88.3074 130.142 88.3345 129.39C88.3785 128.173 88.4223 126.609 88.5551 121.526C88.5957 119.969 88.5421 119.748 88.015 119.3C87.687 119.021 86.406 119.059 86.0245 119.359ZM96.8558 119.502C96.3813 119.664 95.986 120.088 95.9058 120.52C95.854 120.798 95.8615 121.734 96.0007 132.453C96.0378 135.31 96.077 138.562 96.0879 139.678C96.1067 141.605 96.1203 141.724 96.3549 142.022C97.1769 143.067 98.4783 142.982 99.045 141.846C99.2023 141.531 99.2027 140.967 99.053 129.117C98.93 119.364 98.9991 120.327 98.3807 119.748C98.0054 119.397 97.4335 119.304 96.8558 119.502ZM57.1643 122.769C56.8033 122.851 56.3111 123.006 56.0705 123.113C55.8299 123.219 55.5986 123.31 55.5564 123.313C55.5143 123.317 55.4184 123.382 55.3432 123.457C55.2679 123.532 55.1264 123.593 55.0286 123.593C54.9308 123.593 54.7353 123.716 54.5939 123.867C54.4526 124.017 54.2799 124.14 54.21 124.14C54.07 124.14 52.8067 125.453 52.4632 125.955C52.344 126.129 52.1047 126.568 51.9314 126.929C51.3902 128.057 51.4415 127.888 51.2155 129.281C51.0448 130.332 51.2108 131.846 51.611 132.89C51.6455 132.981 51.686 133.111 51.7008 133.18C51.7155 133.249 51.8047 133.446 51.8991 133.617C51.9933 133.789 52.1432 134.081 52.2321 134.266C52.321 134.451 52.4772 134.672 52.579 134.757C52.681 134.841 52.8794 135.093 53.0201 135.316C53.2623 135.699 54.6748 136.857 54.8312 136.8C54.8715 136.785 55.0314 136.892 55.1867 137.038C55.342 137.184 55.4689 137.265 55.4689 137.217C55.4689 137.17 55.5858 137.207 55.7285 137.301C55.9669 137.457 56.7969 137.707 57.6018 137.865C58.086 137.961 60.151 137.948 60.3092 137.848C60.3842 137.801 60.5618 137.747 60.704 137.727C61.0731 137.677 62.3806 137.151 62.596 136.967C62.6961 136.881 62.8591 136.799 62.9583 136.785C63.3796 136.723 65.7502 134.074 65.7502 133.665C65.7502 133.618 65.8263 133.427 65.9194 133.241C66.0126 133.054 66.1092 132.813 66.1341 132.705C66.1592 132.596 66.2522 132.212 66.341 131.851C66.5 131.206 66.5192 129.214 66.372 128.643C66.1687 127.855 66.1283 127.748 65.683 126.82C65.5099 126.459 65.2204 125.984 65.0397 125.764C64.859 125.545 64.6224 125.237 64.514 125.08C64.3379 124.825 63.3848 124.037 62.9197 123.762C62.8221 123.704 62.6184 123.576 62.4669 123.476C62.3153 123.377 62.0692 123.261 61.92 123.219C61.7707 123.177 61.5502 123.099 61.4299 123.047C60.4814 122.633 58.3622 122.495 57.1643 122.769ZM57.9846 125.757C57.8342 125.777 57.5024 125.889 57.2475 126.006C56.9924 126.123 56.7417 126.218 56.6902 126.218C56.6387 126.218 56.5075 126.317 56.3986 126.437C56.2898 126.557 56.1402 126.656 56.0662 126.656C55.8772 126.656 54.7033 128.046 54.7033 128.27C54.7033 128.326 54.6183 128.54 54.5145 128.745C54.3056 129.156 54.2144 131.094 54.3932 131.32C54.4477 131.389 54.4814 131.487 54.4681 131.539C54.4548 131.59 54.5269 131.823 54.6283 132.056C54.7297 132.289 54.8127 132.516 54.8127 132.561C54.8127 132.606 55.145 132.976 55.551 133.382C56.2305 134.062 57.0189 134.551 57.6954 134.713C59.2946 135.096 60.9014 134.637 62.0577 133.467C63.0052 132.508 63.356 131.697 63.3955 130.375C63.4347 129.058 62.9976 128.065 61.9064 126.991C61.2628 126.358 61.0323 126.206 60.4081 126.005C59.7201 125.784 58.6177 125.671 57.9846 125.757Z" fill="url(#paint0_linear_114_25)"/>
</g>
<defs>
<linearGradient id="paint0_linear_114_25" x1="87.087" y1="12.7158" x2="87.087" y2="151.97" gradientUnits="userSpaceOnUse">
<stop stop-color="#FF7E00"/>
<stop offset="1" stop-color="#FF7E00" stop-opacity="0.49"/>
</linearGradient>
<clipPath id="clip0_114_25">
<rect width="175" height="175" fill="white"/>
</clipPath>
</defs>
</svg>
