<svg width="90" height="99" viewBox="0 0 90 99" fill="none" xmlns="http://www.w3.org/2000/svg">
<circle cx="45" cy="54" r="45" fill="url(#paint0_linear_186_15)"/>
<path fill-rule="evenodd" clip-rule="evenodd" d="M44.4313 30.1657C44.4013 30.2018 44.3392 30.2313 44.2933 30.2313C44.2473 30.2313 44.1984 30.2609 44.1846 30.297C44.1707 30.3331 44.132 30.3626 44.0984 30.3626C44.0649 30.3626 44.0375 30.3921 44.0375 30.4282C44.0375 30.4643 44.008 30.4938 43.9719 30.4938C43.9358 30.4938 43.9063 30.5127 43.9063 30.5358C43.9063 30.5967 43.5789 30.9313 43.5193 30.9313C43.4915 30.9313 43.4688 30.9505 43.4688 30.974C43.4688 30.9974 43.3802 31.1051 43.2719 31.2134C43.1636 31.3217 43.075 31.4303 43.075 31.4548C43.075 31.4793 43.0356 31.5239 42.9875 31.554C42.9394 31.5841 42.9 31.6241 42.9 31.643C42.9 31.6619 42.8114 31.766 42.7031 31.8743C42.5948 31.9826 42.5063 32.0903 42.5063 32.1137C42.5063 32.1372 42.4767 32.1563 42.4406 32.1563C42.4045 32.1563 42.375 32.1865 42.375 32.2233C42.375 32.2602 42.3455 32.3017 42.3094 32.3155C42.2733 32.3294 42.2437 32.3632 42.2435 32.3907C42.2434 32.4182 42.1745 32.5157 42.0904 32.6072C42.0063 32.6988 41.9375 32.7923 41.9375 32.815C41.9375 32.8378 41.908 32.8563 41.8719 32.8563C41.8358 32.8563 41.8063 32.8859 41.8063 32.922C41.8063 32.9581 41.7879 32.9876 41.7654 32.9876C41.743 32.9876 41.7129 33.0247 41.6985 33.0699C41.6755 33.1425 41.629 33.2084 41.4571 33.4123C41.4325 33.4414 41.4125 33.4758 41.4125 33.4889C41.4125 33.5019 41.378 33.552 41.3359 33.6001C41.2939 33.6482 41.2249 33.727 41.1828 33.7751C41.1407 33.8232 41.1063 33.8813 41.1063 33.9042C41.1063 33.927 41.0817 33.9615 41.0516 33.9807C40.9902 34.02 40.9084 34.142 40.8447 34.2892C40.8213 34.3433 40.782 34.3876 40.7573 34.3876C40.7327 34.3876 40.7125 34.4177 40.7125 34.4546C40.7125 34.4915 40.683 34.5329 40.6469 34.5468C40.6108 34.5606 40.5813 34.6028 40.5813 34.6404C40.5813 34.6781 40.5485 34.745 40.5086 34.7891C40.4241 34.8825 40.332 35.033 40.2925 35.1423C40.2772 35.1844 40.2474 35.2188 40.2261 35.2188C40.2049 35.2188 40.1875 35.2447 40.1875 35.2762C40.1875 35.3078 40.153 35.3728 40.1109 35.4208C40.0028 35.5439 39.9312 35.6593 39.8764 35.7985C39.8503 35.8647 39.8127 35.9188 39.793 35.9188C39.7731 35.9188 39.744 35.9779 39.7281 36.0501C39.7123 36.1223 39.6825 36.1813 39.6621 36.1813C39.6416 36.1813 39.5792 36.2749 39.5234 36.3892C39.4676 36.5034 39.4088 36.607 39.3926 36.6193C39.3764 36.6316 39.35 36.6941 39.3339 36.7583C39.3178 36.8225 39.2768 36.8857 39.2429 36.8987C39.209 36.9117 39.1813 36.9701 39.1813 37.0284C39.1813 37.0868 39.1517 37.1458 39.1156 37.1597C39.0795 37.1735 39.05 37.2234 39.05 37.2706C39.05 37.3178 39.0205 37.3859 38.9844 37.422C38.9483 37.4581 38.9188 37.529 38.9188 37.5796C38.9188 37.6302 38.8904 37.6825 38.8558 37.6958C38.8212 37.7091 38.7802 37.7773 38.7648 37.8475C38.7494 37.9177 38.7196 37.9751 38.6985 37.9751C38.6774 37.9751 38.6472 38.0442 38.6314 38.1287C38.6156 38.2132 38.5857 38.2928 38.565 38.3055C38.5443 38.3183 38.5064 38.4067 38.4808 38.5019C38.4551 38.5972 38.4152 38.6751 38.392 38.6751C38.3689 38.6751 38.35 38.7219 38.35 38.7791C38.35 38.8363 38.3205 38.9076 38.2844 38.9376C38.2483 38.9676 38.2188 39.0276 38.2188 39.0711C38.2188 39.1145 38.1892 39.1796 38.1531 39.2157C38.117 39.2518 38.0875 39.3282 38.0875 39.3855C38.0875 39.4428 38.0586 39.5278 38.0233 39.5746C37.9879 39.6212 37.9583 39.6988 37.9573 39.747C37.9564 39.7951 37.9166 39.8935 37.8688 39.9657C37.8209 40.0379 37.7817 40.1511 37.7816 40.2173C37.7814 40.2835 37.7639 40.3376 37.7427 40.3376C37.7215 40.3376 37.6821 40.425 37.6552 40.5319C37.6283 40.6387 37.5866 40.7383 37.5625 40.7532C37.5384 40.7681 37.5188 40.8302 37.5188 40.8913C37.5188 40.9523 37.4904 41.0545 37.4558 41.1184C37.4211 41.1822 37.3809 41.3083 37.3663 41.3985C37.3517 41.4888 37.3235 41.5626 37.3037 41.5626C37.2839 41.5626 37.2572 41.6555 37.2444 41.769C37.2316 41.8825 37.1995 41.9826 37.173 41.9914C37.1466 42.0002 37.125 42.0725 37.125 42.1521C37.125 42.2317 37.0861 42.3826 37.0385 42.4875C36.9909 42.5924 36.9515 42.7383 36.951 42.8117C36.9504 42.885 36.9298 42.9653 36.9051 42.99C36.8804 43.0147 36.8479 43.1417 36.833 43.2722C36.818 43.4027 36.7792 43.5483 36.7467 43.5958C36.7141 43.6432 36.6875 43.7724 36.6875 43.8827C36.6875 43.9931 36.6586 44.1216 36.6233 44.1683C36.5879 44.215 36.5584 44.3432 36.5577 44.4531C36.5569 44.563 36.5288 44.75 36.4952 44.8687C36.4616 44.9874 36.4226 45.2209 36.4086 45.3876C36.3946 45.5543 36.3658 45.7019 36.3447 45.7157C36.3235 45.7295 36.2955 45.9474 36.2824 46.2001C36.2693 46.4528 36.235 46.7185 36.2063 46.7907C36.1209 47.0055 36.0622 48.3059 36.062 49.9845C36.0618 51.6813 36.1177 52.8216 36.2249 53.3095C36.2619 53.4779 36.2926 53.7447 36.293 53.9023C36.2934 54.0599 36.3122 54.2075 36.3348 54.2304C36.3574 54.2533 36.3894 54.375 36.406 54.5009C36.4309 54.6902 36.4237 54.7346 36.3649 54.7572C36.3258 54.7722 36.2938 54.8018 36.2938 54.823C36.2938 54.8624 36.2013 54.9866 36.0641 55.1317C36.022 55.1762 35.9875 55.2323 35.9875 55.2563C35.9875 55.2804 35.958 55.3001 35.9219 55.3001C35.8858 55.3001 35.8563 55.3204 35.8563 55.3453C35.8563 55.3702 35.7972 55.4483 35.725 55.5188C35.6528 55.5894 35.5937 55.6626 35.5935 55.6814C35.5934 55.7003 35.5245 55.7907 35.4404 55.8822C35.3563 55.9738 35.2867 56.0624 35.2857 56.0791C35.2846 56.0958 35.2256 56.1578 35.1544 56.2168C35.0832 56.2758 35.025 56.3497 35.025 56.3809C35.025 56.412 35.008 56.4376 34.9872 56.4376C34.9664 56.4376 34.8926 56.5209 34.8231 56.6227C34.7537 56.7245 34.604 56.9025 34.4904 57.0183C34.3769 57.1341 34.2496 57.287 34.2076 57.3582C34.1655 57.4294 34.1157 57.4876 34.0968 57.4876C34.0779 57.4876 34.0625 57.5131 34.0625 57.5443C34.0625 57.5755 34.0043 57.6494 33.9331 57.7084C33.862 57.7674 33.8029 57.8288 33.8018 57.8448C33.8008 57.8607 33.736 57.9402 33.6578 58.0213C33.5796 58.1025 33.4664 58.2418 33.4063 58.3311C33.3461 58.4203 33.2821 58.4934 33.2641 58.4935C33.246 58.4937 33.2313 58.5234 33.2313 58.5595C33.2313 58.5956 33.2017 58.6251 33.1656 58.6251C33.1295 58.6251 33.1 58.6454 33.1 58.6703C33.1 58.6952 33.043 58.7713 32.9733 58.8394C32.9036 58.9075 32.7927 59.0447 32.7268 59.1442C32.661 59.2437 32.5901 59.3251 32.5692 59.3251C32.5483 59.3251 32.5313 59.3546 32.5313 59.3907C32.5313 59.4268 32.5017 59.4563 32.4656 59.4563C32.4295 59.4563 32.4 59.4767 32.4 59.5016C32.4 59.5264 32.3409 59.6045 32.2688 59.6751C32.1966 59.7457 32.1375 59.8147 32.1375 59.8286C32.1375 59.8573 32.0719 59.942 31.9297 60.0969C31.8756 60.1558 31.8313 60.2137 31.8313 60.2254C31.8313 60.2372 31.7722 60.3045 31.7 60.3751C31.6278 60.4457 31.5688 60.5139 31.5688 60.5267C31.5688 60.5396 31.5343 60.5881 31.4922 60.6344C31.366 60.7735 31.3252 60.8306 31.2945 60.911C31.2784 60.9532 31.245 60.9876 31.2201 60.9876C31.1953 60.9876 31.175 61.027 31.175 61.0751C31.175 61.1232 31.1578 61.1626 31.1367 61.1626C31.083 61.1626 30.7375 61.865 30.7375 61.9742C30.7375 62.0235 30.7157 62.0856 30.6891 62.1123C30.6624 62.1389 30.6102 62.3053 30.573 62.482C30.4709 62.9674 30.4424 66.8024 30.5394 67.0067C30.5762 67.0842 30.6063 67.1604 30.6063 67.176C30.6063 67.2441 31.0477 67.6376 31.1242 67.6376C31.1707 67.6376 31.2721 67.6642 31.3495 67.6968C31.4708 67.7478 31.5292 67.7459 31.7708 67.6831C31.9251 67.6429 32.0746 67.5868 32.1031 67.5582C32.1316 67.5297 32.1782 67.5063 32.2065 67.5063C32.2348 67.5063 32.2825 67.4768 32.3125 67.4407C32.3425 67.4046 32.4046 67.3751 32.4505 67.3751C32.4964 67.3751 32.5453 67.3456 32.5592 67.3095C32.573 67.2734 32.6315 67.2438 32.6891 67.2438C32.7466 67.2438 32.7938 67.2256 32.7938 67.2033C32.7938 67.181 32.8988 67.113 33.0273 67.0522C33.1558 66.9915 33.2862 66.9113 33.317 66.874C33.3479 66.8368 33.4102 66.8063 33.4553 66.8063C33.5005 66.8063 33.5375 66.7886 33.5375 66.7669C33.5375 66.7452 33.5966 66.7068 33.6688 66.6817C33.7409 66.6565 33.8 66.6152 33.8 66.5899C33.8 66.5645 33.8498 66.5438 33.9107 66.5438C33.9717 66.5438 34.0328 66.5143 34.0467 66.4782C34.0605 66.4421 34.1052 66.4126 34.1459 66.4126C34.1867 66.4126 34.242 66.3906 34.2688 66.3638C34.3192 66.3134 34.4411 66.2386 34.6313 66.1414C34.6914 66.1106 34.7667 66.0607 34.7984 66.0303C34.8302 65.9999 34.8942 65.9751 34.9406 65.9751C34.987 65.9751 35.025 65.9544 35.025 65.9291C35.025 65.9037 35.0841 65.8624 35.1563 65.8373C35.2284 65.8121 35.2875 65.7738 35.2875 65.7521C35.2875 65.7304 35.3245 65.7126 35.3697 65.7126C35.4148 65.7126 35.4763 65.6831 35.5063 65.647C35.5362 65.6109 35.5977 65.5813 35.6428 65.5813C35.688 65.5813 35.725 65.5616 35.725 65.5376C35.725 65.5134 35.853 65.4333 36.0094 65.3594C36.1658 65.2855 36.2938 65.2068 36.2938 65.1844C36.2938 65.1621 36.3307 65.1438 36.3759 65.1438C36.4211 65.1438 36.4825 65.1143 36.5125 65.0782C36.5425 65.0421 36.5947 65.0126 36.6286 65.0126C36.6625 65.0126 36.7016 64.9831 36.7154 64.947C36.7293 64.9109 36.7883 64.8813 36.8467 64.8813C36.905 64.8813 36.9641 64.8518 36.9779 64.8157C36.9918 64.7796 37.0508 64.7501 37.1092 64.7501C37.1675 64.7501 37.2266 64.7206 37.2404 64.6845C37.2543 64.6484 37.2886 64.6188 37.3166 64.6188C37.3447 64.6188 37.4722 64.5499 37.6001 64.4657C37.728 64.3815 37.8583 64.3126 37.8898 64.3126C37.9212 64.3126 37.9582 64.2831 37.9721 64.247C37.9859 64.2109 38.0378 64.1813 38.0875 64.1813C38.1372 64.1813 38.1891 64.1518 38.2029 64.1157C38.2168 64.0796 38.2758 64.0501 38.3342 64.0501C38.3925 64.0501 38.4516 64.0206 38.4654 63.9845C38.4793 63.9484 38.5188 63.9188 38.5533 63.9188C38.6112 63.9188 38.8678 63.7602 38.9192 63.6926C38.9315 63.6765 38.994 63.6501 39.0582 63.634C39.1224 63.6179 39.1856 63.5769 39.1986 63.543C39.2116 63.5091 39.2712 63.4813 39.3311 63.4813C39.4151 63.4813 39.4676 63.529 39.5601 63.6892C39.6261 63.8034 39.6912 63.9068 39.7046 63.9188C39.718 63.9309 39.7682 64.0195 39.8161 64.1157C39.8639 64.212 39.9278 64.3065 39.9578 64.3257C39.9879 64.345 40.0125 64.3997 40.0125 64.4474C40.0125 64.4951 40.042 64.5454 40.0781 64.5593C40.1142 64.5731 40.1438 64.6095 40.1438 64.6401C40.1438 64.6706 40.1733 64.7201 40.2094 64.7501C40.2843 64.8123 40.3008 65.188 40.2317 65.2572C40.2078 65.281 40.176 65.3982 40.1608 65.5175C40.1457 65.6368 40.1061 65.7781 40.0729 65.8314C40.0397 65.8847 40.0125 66.0138 40.0125 66.1183C40.0125 66.2229 39.9836 66.3466 39.9483 66.3933C39.9129 66.44 39.8833 66.5471 39.8824 66.6313C39.8815 66.7156 39.8513 66.8409 39.8154 66.9098C39.7794 66.9787 39.75 67.1072 39.75 67.1954C39.75 67.2835 39.7196 67.3991 39.6824 67.4521C39.6452 67.5052 39.6031 67.6523 39.5889 67.7791C39.5747 67.9058 39.5447 68.0327 39.5224 68.0611C39.5001 68.0895 39.4704 68.223 39.4565 68.3577C39.4426 68.4924 39.4144 68.6131 39.3937 68.6258C39.3409 68.6585 39.3467 69.1688 39.4 69.1688C39.4241 69.1688 39.4438 69.2189 39.4438 69.2801C39.4438 69.4284 39.8556 69.8466 40.0351 69.8807C40.1069 69.8943 40.2444 69.9263 40.3406 69.9517C40.4581 69.9828 41.939 69.998 44.8469 69.9979C48.9107 69.9978 49.1969 69.9928 49.4824 69.9174C49.6498 69.8732 49.7941 69.8146 49.8032 69.7873C49.8123 69.76 49.8575 69.7376 49.9036 69.7376C49.9498 69.7376 49.9875 69.7173 49.9875 69.6924C49.9875 69.6675 50.044 69.5919 50.1132 69.5243C50.2399 69.4004 50.2998 69.2031 50.3008 68.9063C50.3017 68.6468 50.2405 68.2296 50.1975 68.202C50.1751 68.1875 50.142 68.0694 50.124 67.9395C50.1061 67.8095 50.068 67.6602 50.0394 67.6077C50.0109 67.5551 49.9875 67.4364 49.9875 67.3439C49.9875 67.2515 49.9606 67.137 49.9277 67.0895C49.8948 67.0421 49.8462 66.8949 49.8199 66.7626C49.6897 66.1101 49.6627 65.9953 49.6346 65.9751C49.618 65.9631 49.5897 65.8449 49.5717 65.7126C49.5538 65.5803 49.512 65.4331 49.479 65.3857C49.3946 65.2648 49.3962 64.7501 49.4809 64.7501C49.5151 64.7501 49.556 64.691 49.5719 64.6188C49.5877 64.5467 49.6143 64.4876 49.6309 64.4876C49.6476 64.4876 49.71 64.3941 49.7697 64.2798C49.8293 64.1655 49.9028 64.0562 49.9328 64.037C49.9629 64.0177 49.9875 63.9559 49.9875 63.8995C49.9875 63.8431 50.017 63.7856 50.0531 63.7718C50.0892 63.7579 50.1188 63.7179 50.1188 63.6827C50.1188 63.5947 50.2399 63.4813 50.3339 63.4813C50.3767 63.4813 50.457 63.5207 50.5125 63.5688C50.568 63.617 50.6399 63.6563 50.6723 63.6563C50.7047 63.6563 50.7313 63.6756 50.7313 63.6993C50.7313 63.7228 50.7797 63.7543 50.8388 63.7692C50.898 63.7841 50.9693 63.8238 50.9973 63.8575C51.0253 63.8912 51.0858 63.9188 51.1317 63.9188C51.1777 63.9188 51.2266 63.9484 51.2404 63.9845C51.2543 64.0206 51.3127 64.0501 51.3703 64.0501C51.4279 64.0501 51.475 64.0708 51.475 64.0961C51.475 64.1215 51.5341 64.1628 51.6063 64.1879C51.6784 64.2131 51.7375 64.2514 51.7375 64.2731C51.7375 64.2948 51.7679 64.3126 51.805 64.3126C51.8421 64.3126 51.9147 64.352 51.9663 64.4001C52.018 64.4482 52.0959 64.4876 52.1395 64.4876C52.1831 64.4876 52.2188 64.5054 52.2188 64.5271C52.2188 64.5488 52.2778 64.5871 52.35 64.6123C52.4222 64.6374 52.4813 64.6787 52.4813 64.7041C52.4813 64.7294 52.5192 64.7501 52.5656 64.7501C52.612 64.7501 52.676 64.7757 52.7078 64.8071C52.7396 64.8384 52.8592 64.909 52.9734 64.9641C53.0877 65.0191 53.1813 65.0821 53.1813 65.104C53.1813 65.1259 53.2261 65.1438 53.2809 65.1438C53.3357 65.1438 53.4143 65.1832 53.4555 65.2313C53.4967 65.2795 53.5683 65.3188 53.6147 65.3188C53.661 65.3188 53.7055 65.3336 53.7136 65.3517C53.7364 65.4031 54.0034 65.5813 54.0576 65.5813C54.0843 65.5813 54.1358 65.6109 54.1719 65.647C54.208 65.6831 54.2755 65.7126 54.3219 65.7126C54.3683 65.7126 54.4063 65.7333 54.4063 65.7586C54.4063 65.784 54.4653 65.8253 54.5375 65.8504C54.6097 65.8756 54.6688 65.9139 54.6688 65.9356C54.6688 65.9573 54.7057 65.9751 54.7509 65.9751C54.7961 65.9751 54.8573 66.0043 54.8869 66.0401C54.9166 66.0758 55.0322 66.1496 55.1439 66.2041C55.2555 66.2586 55.3729 66.3279 55.4047 66.3579C55.4365 66.388 55.4984 66.4126 55.5422 66.4126C55.586 66.4126 55.6332 66.4421 55.6471 66.4782C55.6609 66.5143 55.7098 66.5438 55.7558 66.5438C55.8017 66.5438 55.8638 66.5734 55.8938 66.6095C55.9237 66.6456 55.9729 66.6751 56.0031 66.6751C56.0333 66.6751 56.0825 66.7046 56.1125 66.7407C56.1425 66.7768 56.2029 66.8063 56.2469 66.8063C56.2909 66.8063 56.3426 66.8334 56.3619 66.8664C56.3811 66.8994 56.5101 66.9779 56.6484 67.0408C56.7868 67.1037 56.9 67.1751 56.9 67.1995C56.9 67.2239 56.937 67.2438 56.9822 67.2438C57.0273 67.2438 57.0888 67.2734 57.1188 67.3095C57.1487 67.3456 57.2102 67.3751 57.2553 67.3751C57.3005 67.3751 57.3375 67.3929 57.3375 67.4146C57.3375 67.4363 57.3966 67.4746 57.4688 67.4998C57.5409 67.5249 57.6 67.5637 57.6 67.5858C57.6 67.6339 57.9024 67.6934 58.1469 67.6934C58.4305 67.6934 58.6938 67.6322 58.6938 67.5662C58.6938 67.5333 58.7131 67.5063 58.7367 67.5063C58.8545 67.5063 59.072 67.2046 59.1645 66.9126C59.2588 66.615 59.2624 66.5429 59.2599 65.0095C59.2585 64.1329 59.2386 63.3173 59.2158 63.197C59.193 63.0767 59.1528 62.8207 59.1265 62.6282C59.1002 62.4357 59.0634 62.2684 59.0447 62.2563C59.026 62.2443 58.9965 62.1494 58.9791 62.0455C58.9618 61.9416 58.92 61.8459 58.8863 61.833C58.8526 61.8201 58.825 61.761 58.825 61.7017C58.825 61.6424 58.7955 61.5643 58.7594 61.5282C58.7233 61.4921 58.6938 61.4256 58.6938 61.3804C58.6938 61.3352 58.6688 61.2825 58.6384 61.2632C58.6079 61.244 58.544 61.1448 58.4962 61.0428C58.4484 60.9408 58.3848 60.8571 58.3547 60.8568C58.3246 60.8566 58.3 60.8307 58.3 60.7993C58.3 60.7679 58.2311 60.667 58.1469 60.575C58.0627 60.4831 57.9938 60.3927 57.9938 60.3743C57.9938 60.3558 57.9642 60.3294 57.9281 60.3155C57.892 60.3017 57.8625 60.2602 57.8625 60.2233C57.8625 60.1865 57.833 60.1563 57.7969 60.1563C57.7608 60.1563 57.7313 60.1268 57.7313 60.0907C57.7313 60.0546 57.7142 60.0251 57.6935 60.0251C57.6727 60.0251 57.5988 59.9425 57.5294 59.8414C57.46 59.7404 57.349 59.6019 57.2828 59.5337C57.2166 59.4654 57.1625 59.3906 57.1625 59.3674C57.1625 59.3441 57.133 59.3251 57.0969 59.3251C57.0608 59.3251 57.0313 59.2956 57.0313 59.2595C57.0313 59.2234 57.0142 59.1938 56.9935 59.1938C56.9727 59.1938 56.8988 59.1112 56.8294 59.0103C56.7014 58.8242 56.6291 58.7369 56.3534 58.4354C56.269 58.3431 56.2 58.2597 56.2 58.25C56.2 58.2313 56.0842 58.0859 55.9922 57.989C55.9621 57.9573 55.9375 57.9103 55.9375 57.8845C55.9375 57.8587 55.908 57.8376 55.8719 57.8376C55.8358 57.8376 55.8063 57.8209 55.8063 57.8005C55.8063 57.7802 55.7654 57.7164 55.7154 57.6588C55.6655 57.6012 55.5532 57.4604 55.4658 57.3458C55.3785 57.2313 55.2914 57.1376 55.2723 57.1376C55.2532 57.1376 55.2375 57.1075 55.2375 57.0706C55.2375 57.0337 55.208 56.9923 55.1719 56.9784C55.1358 56.9646 55.1063 56.9258 55.1063 56.8923C55.1063 56.8588 55.0767 56.8313 55.0406 56.8313C55.0045 56.8313 54.975 56.8137 54.975 56.7921C54.975 56.7528 54.8208 56.5574 54.6359 56.3624C54.5818 56.3053 54.5375 56.23 54.5375 56.195C54.5375 56.16 54.508 56.1313 54.4719 56.1313C54.4358 56.1313 54.4063 56.1018 54.4063 56.0657C54.4063 56.0296 54.3767 56.0001 54.3406 56.0001C54.3045 56.0001 54.275 55.9706 54.275 55.9345C54.275 55.8984 54.258 55.8688 54.2372 55.8688C54.2164 55.8688 54.1427 55.7852 54.0733 55.6829C54.0039 55.5806 53.9225 55.4812 53.8923 55.462C53.8622 55.4427 53.8375 55.3984 53.8375 55.3635C53.8375 55.3287 53.808 55.3001 53.7719 55.3001C53.7358 55.3001 53.7063 55.2706 53.7063 55.2345C53.7063 55.1984 53.6767 55.1688 53.6406 55.1688C53.6045 55.1688 53.575 55.1504 53.575 55.1278C53.575 55.1052 53.5159 55.0221 53.4438 54.9431C53.3203 54.8079 53.3125 54.7781 53.3125 54.4408C53.3125 54.2145 53.3306 54.0764 53.3616 54.066C53.3916 54.056 53.4244 53.8455 53.4457 53.5264C53.4649 53.2386 53.5005 52.9048 53.5247 52.7845C53.549 52.6642 53.5799 52.1911 53.5936 51.7333C53.6072 51.2755 53.6394 50.6915 53.6651 50.4356C53.6973 50.1162 53.6981 49.8696 53.6678 49.6493C53.6436 49.4727 53.6107 48.8853 53.5947 48.3438C53.5788 47.8024 53.5477 47.2807 53.5255 47.1845C53.5034 47.0882 53.4678 46.78 53.4464 46.4995C53.425 46.219 53.3861 45.9496 53.36 45.9008C53.3339 45.852 53.3125 45.6917 53.3125 45.5445C53.3125 45.3974 53.2854 45.2239 53.2523 45.1588C53.2192 45.0939 53.1782 44.8883 53.1611 44.702C53.1441 44.5156 53.114 44.3532 53.0944 44.3411C53.0747 44.329 53.0451 44.2031 53.0287 44.0614C53.0122 43.9197 52.9709 43.7501 52.9369 43.6844C52.9029 43.6188 52.875 43.4705 52.875 43.355C52.875 43.2394 52.8542 43.1379 52.8288 43.1295C52.8035 43.1211 52.7673 43.0005 52.7484 42.8617C52.7296 42.7229 52.6913 42.5864 52.6633 42.5584C52.6354 42.5305 52.6125 42.4352 52.6125 42.3467C52.6125 42.257 52.5835 42.1617 52.5469 42.1313C52.5108 42.1014 52.4813 42.0085 52.4813 41.9249C52.4813 41.8414 52.4529 41.7207 52.4183 41.6568C52.3838 41.593 52.3026 41.3681 52.238 41.1572C52.1733 40.9462 52.1032 40.7629 52.0821 40.7499C52.061 40.7369 52.0438 40.6609 52.0438 40.581C52.0438 40.5011 52.0142 40.4113 51.9781 40.3813C51.942 40.3514 51.9125 40.2702 51.9125 40.201C51.9125 40.1318 51.8951 40.0751 51.874 40.0751C51.8527 40.0751 51.8131 39.9865 51.7858 39.8782C51.7585 39.7699 51.7169 39.6813 51.6931 39.6813C51.6694 39.6813 51.65 39.6145 51.65 39.5329C51.65 39.446 51.6246 39.3747 51.5888 39.361C51.555 39.348 51.5139 39.2573 51.4974 39.1594C51.4809 39.0615 51.4494 38.9813 51.4274 38.9813C51.4054 38.9813 51.3875 38.9463 51.3875 38.9036C51.3875 38.8608 51.3606 38.787 51.3278 38.7395C51.2949 38.6921 51.2529 38.6049 51.2345 38.5459C51.216 38.4868 51.174 38.4116 51.1411 38.3787C51.1082 38.3458 51.0813 38.271 51.0813 38.2126C51.0813 38.1542 51.0631 38.1063 51.041 38.1063C51.0188 38.1063 50.988 38.0486 50.9725 37.9781C50.957 37.9076 50.9161 37.8264 50.8816 37.7978C50.847 37.7691 50.8188 37.7098 50.8188 37.6661C50.8188 37.6223 50.8021 37.5762 50.7817 37.5636C50.7614 37.551 50.6217 37.294 50.4712 36.9923C50.3209 36.6906 50.18 36.4438 50.1583 36.4438C50.1366 36.4438 50.1188 36.4059 50.1188 36.3595C50.1188 36.3131 50.0939 36.2491 50.0634 36.2173C50.033 36.1855 49.9592 36.0659 49.8994 35.9517C49.8397 35.8374 49.7775 35.7438 49.7614 35.7438C49.7452 35.7438 49.719 35.6848 49.7031 35.6126C49.6873 35.5404 49.6562 35.4813 49.634 35.4813C49.6119 35.4813 49.5938 35.4549 49.5938 35.4225C49.5938 35.3901 49.5544 35.328 49.5063 35.2845C49.4581 35.2409 49.4188 35.1788 49.4188 35.1464C49.4188 35.1141 49.3981 35.0876 49.3727 35.0876C49.3474 35.0876 49.3061 35.0285 49.2809 34.9563C49.2558 34.8842 49.2174 34.8251 49.1957 34.8251C49.174 34.8251 49.1563 34.7857 49.1563 34.7376C49.1563 34.689 49.1271 34.6501 49.0906 34.6501C49.0545 34.6501 49.025 34.6151 49.025 34.5724C49.025 34.5296 48.9709 34.4352 48.9047 34.3627C48.8385 34.2901 48.7602 34.1775 48.7306 34.1123C48.7011 34.0471 48.6568 33.9938 48.6322 33.9938C48.6076 33.9938 48.5875 33.9545 48.5875 33.9063C48.5875 33.8577 48.5583 33.8188 48.5219 33.8188C48.4858 33.8188 48.4563 33.7887 48.4563 33.7519C48.4563 33.715 48.4267 33.6735 48.3906 33.6597C48.3545 33.6458 48.325 33.5966 48.325 33.5503C48.325 33.504 48.2955 33.4548 48.2594 33.4409C48.2233 33.4271 48.1938 33.3893 48.1938 33.357C48.1938 33.3246 48.1677 33.2825 48.1358 33.2632C48.104 33.244 48.0301 33.1593 47.9718 33.0751C47.9134 32.9909 47.841 32.9062 47.8109 32.887C47.7809 32.8677 47.7563 32.8234 47.7563 32.7885C47.7563 32.7537 47.7267 32.7251 47.6906 32.7251C47.6545 32.7251 47.625 32.6977 47.625 32.6642C47.625 32.6306 47.5955 32.5919 47.5594 32.578C47.5233 32.5642 47.4938 32.5326 47.4938 32.5077C47.4938 32.4829 47.4544 32.4183 47.4063 32.3642C47.2338 32.1702 47.1875 32.1123 47.1875 32.0907C47.1875 32.0507 47.0132 31.8938 46.9688 31.8938C46.9447 31.8938 46.925 31.8664 46.925 31.8329C46.925 31.7994 46.8955 31.7606 46.8594 31.7468C46.8233 31.7329 46.7938 31.6915 46.7938 31.6546C46.7938 31.6177 46.7642 31.5876 46.7281 31.5876C46.692 31.5876 46.6625 31.5691 46.6625 31.5464C46.6625 31.4546 45.4653 30.2313 45.3754 30.2313C45.3433 30.2313 45.2925 30.2018 45.2625 30.1657C45.2221 30.1171 45.1145 30.1001 44.8469 30.1001C44.5792 30.1001 44.4716 30.1171 44.4313 30.1657ZM44.5953 32.9051C44.5051 33.004 44.4313 33.1024 44.4313 33.1237C44.4313 33.1451 44.4017 33.1626 44.3656 33.1626C44.3295 33.1626 44.3 33.1921 44.3 33.2282C44.3 33.2643 44.2845 33.2938 44.2656 33.2938C44.2213 33.2938 43.9063 33.7148 43.9063 33.774C43.9063 33.7986 43.8767 33.8188 43.8406 33.8188C43.8045 33.8188 43.775 33.8363 43.775 33.8578C43.775 33.8792 43.7065 33.9727 43.6229 34.0656C43.5392 34.1585 43.4703 34.257 43.4698 34.2845C43.4692 34.312 43.4392 34.3458 43.4031 34.3597C43.367 34.3735 43.3375 34.415 43.3375 34.4519C43.3375 34.4887 43.308 34.5188 43.2719 34.5188C43.2358 34.5188 43.2063 34.549 43.2063 34.5858C43.2063 34.6227 43.1767 34.6642 43.1406 34.678C43.1045 34.6919 43.075 34.7276 43.075 34.7575C43.075 34.8052 43.0337 34.8653 42.8571 35.0748C42.8325 35.1039 42.8125 35.1451 42.8125 35.1665C42.8125 35.1878 42.7731 35.2409 42.725 35.2845C42.6769 35.328 42.6375 35.3901 42.6375 35.4225C42.6375 35.4549 42.608 35.4813 42.5719 35.4813C42.5354 35.4813 42.5063 35.5202 42.5063 35.5688C42.5063 35.617 42.4885 35.6563 42.4668 35.6563C42.4451 35.6563 42.4067 35.7154 42.3816 35.7876C42.3564 35.8598 42.3199 35.9188 42.3005 35.9188C42.281 35.9188 42.2406 35.9742 42.2106 36.0419C42.1807 36.1096 42.1216 36.203 42.0793 36.2497C42.0371 36.2963 41.9782 36.3837 41.9484 36.4438C41.8794 36.5835 41.7991 36.7084 41.7297 36.7842C41.6996 36.817 41.675 36.8818 41.675 36.9282C41.675 36.9746 41.6543 37.0126 41.629 37.0126C41.6036 37.0126 41.5623 37.0717 41.5372 37.1438C41.512 37.216 41.4737 37.2751 41.452 37.2751C41.4303 37.2751 41.4125 37.304 41.4125 37.3394C41.4125 37.3747 41.3141 37.5703 41.1938 37.774C41.0734 37.9777 40.975 38.1752 40.975 38.2128C40.975 38.2505 40.9557 38.2813 40.9321 38.2813C40.9085 38.2813 40.8768 38.3306 40.8617 38.3908C40.8466 38.4511 40.797 38.5733 40.7515 38.6626C40.706 38.7518 40.6688 38.8502 40.6688 38.8812C40.6688 38.9268 41.4669 38.9376 44.8469 38.9376H49.025V38.8269C49.025 38.7659 48.9967 38.7052 48.962 38.6919C48.9274 38.6786 48.8865 38.6104 48.8711 38.5402C48.8556 38.47 48.8265 38.4126 48.8063 38.4126C48.786 38.4126 48.7568 38.3549 48.7413 38.2844C48.7258 38.2138 48.6848 38.1327 48.6503 38.104C48.6158 38.0753 48.5875 38.0051 48.5875 37.9479C48.5875 37.8846 48.5618 37.8438 48.5219 37.8438C48.4858 37.8438 48.4563 37.8059 48.4563 37.7595C48.4563 37.7131 48.43 37.6489 48.398 37.6169C48.366 37.5848 48.3262 37.5047 48.3097 37.4387C48.2931 37.3728 48.2603 37.3188 48.2367 37.3188C48.213 37.3188 48.1938 37.2825 48.1938 37.2381C48.1938 37.1937 48.1544 37.1218 48.1063 37.0782C48.0581 37.0347 48.0188 36.9726 48.0188 36.9402C48.0188 36.9078 48.0006 36.8813 47.9785 36.8813C47.9563 36.8813 47.9252 36.8223 47.9094 36.7501C47.8935 36.6779 47.8638 36.6188 47.8434 36.6188C47.8229 36.6188 47.7607 36.5278 47.7051 36.4166C47.6496 36.3053 47.5805 36.2053 47.5516 36.1942C47.5227 36.1831 47.4865 36.1166 47.4711 36.0464C47.4556 35.9762 47.4249 35.9188 47.4028 35.9188C47.3806 35.9188 47.3625 35.8937 47.3625 35.8629C47.3625 35.8322 47.3231 35.7733 47.275 35.7321C47.2269 35.6909 47.1875 35.6296 47.1875 35.5958C47.1875 35.5621 47.158 35.5231 47.1219 35.5093C47.0858 35.4954 47.0563 35.454 47.0563 35.4171C47.0563 35.3802 47.0267 35.3501 46.9906 35.3501C46.9545 35.3501 46.925 35.3131 46.925 35.2679C46.925 35.2228 46.8955 35.1613 46.8594 35.1313C46.8233 35.1014 46.7938 35.0498 46.7938 35.0166C46.7938 34.9835 46.7755 34.9563 46.7531 34.9563C46.7308 34.9563 46.6487 34.8579 46.5708 34.7376C46.4928 34.6173 46.4126 34.5188 46.3927 34.5188C46.3726 34.5188 46.3563 34.4999 46.3563 34.4766C46.3563 34.4534 46.2989 34.3756 46.2287 34.3039C46.1585 34.2321 46.0882 34.1329 46.0726 34.0836C46.0569 34.0342 46.0258 33.9938 46.0033 33.9938C45.9809 33.9938 45.9625 33.9683 45.9625 33.9371C45.9625 33.9059 45.9043 33.8321 45.8331 33.773C45.762 33.714 45.7029 33.6411 45.7018 33.611C45.7008 33.581 45.6705 33.5563 45.6344 33.5563C45.5983 33.5563 45.5688 33.5312 45.5688 33.5004C45.5688 33.4697 45.5343 33.414 45.4922 33.3766C45.4501 33.3392 45.3566 33.2329 45.2844 33.1403C44.9055 32.6544 44.8434 32.6332 44.5953 32.9051ZM39.75 41.0985C39.75 41.1321 39.7205 41.1708 39.6844 41.1847C39.6483 41.1985 39.6186 41.2548 39.6185 41.3097C39.6183 41.3645 39.5908 41.462 39.5573 41.5262C39.5238 41.5904 39.4828 41.7233 39.4662 41.8215C39.4497 41.9197 39.4207 42.0001 39.4018 42.0001C39.3829 42.0001 39.3545 42.0936 39.3386 42.2079C39.3227 42.3222 39.2807 42.454 39.2454 42.5006C39.2101 42.5474 39.1813 42.6469 39.1813 42.722C39.1813 42.797 39.1523 42.8966 39.117 42.9433C39.0817 42.99 39.0515 43.0971 39.05 43.1813C39.0485 43.2656 39.0183 43.3727 38.983 43.4194C38.9477 43.4661 38.9188 43.5898 38.9188 43.6944C38.9188 43.7989 38.8899 43.9284 38.8547 43.9822C38.8194 44.036 38.7774 44.1977 38.7612 44.3416C38.7451 44.4855 38.7153 44.6244 38.6951 44.6502C38.6748 44.6761 38.6452 44.8385 38.6291 45.0111C38.6131 45.1838 38.5856 45.3251 38.5681 45.3251C38.5506 45.3251 38.5229 45.4788 38.5065 45.6667C38.4901 45.8546 38.4491 46.086 38.4153 46.1808C38.3815 46.2756 38.3527 46.5206 38.3513 46.7251C38.3498 46.932 38.3207 47.1746 38.2856 47.272C38.2453 47.384 38.2217 47.6281 38.2201 47.9501C38.2187 48.2268 38.1885 48.8076 38.153 49.2407C38.1024 49.8572 38.0983 50.1517 38.1342 50.597C38.1594 50.9098 38.1958 51.5309 38.215 51.9773C38.2346 52.431 38.2721 52.83 38.3 52.8822C38.3275 52.9336 38.35 53.1449 38.35 53.3517C38.35 53.5758 38.3749 53.7874 38.4115 53.875C38.4452 53.9559 38.487 54.1768 38.5042 54.3658C38.5214 54.5548 38.5504 54.7292 38.5687 54.7532C38.587 54.7773 38.616 54.9332 38.6333 55.0997C38.6507 55.2662 38.6816 55.4336 38.7021 55.4716C38.7225 55.5096 38.7599 55.6686 38.785 55.825C38.8101 55.9814 38.8505 56.1159 38.8747 56.124C38.8989 56.132 38.9194 56.2305 38.9202 56.3428C38.9209 56.4551 38.9504 56.5852 38.9858 56.6319C39.0211 56.6786 39.05 56.7904 39.05 56.8803C39.05 56.9703 39.0795 57.0734 39.1156 57.1095C39.1517 57.1456 39.1819 57.2503 39.1827 57.3423C39.1834 57.4342 39.2121 57.5466 39.2465 57.5919C39.2808 57.6373 39.3218 57.7603 39.3376 57.8654C39.3533 57.9704 39.3824 58.0563 39.4023 58.0563C39.4221 58.0563 39.4517 58.1452 39.468 58.2537C39.4843 58.3623 39.515 58.462 39.5363 58.4751C39.5576 58.4882 39.575 58.533 39.575 58.5747C39.575 58.6163 39.6144 58.7276 39.6625 58.822C39.7106 58.9164 39.75 59.0387 39.75 59.0937C39.75 59.1488 39.7674 59.1938 39.7885 59.1938C39.8098 59.1938 39.8491 59.2813 39.876 59.3881C39.903 59.495 39.9446 59.5946 39.9687 59.6095C39.9928 59.6243 40.0125 59.6923 40.0125 59.7605C40.0125 59.8287 40.0402 59.8951 40.074 59.9081C40.1078 59.9211 40.1497 59.9964 40.1671 60.0754C40.1844 60.1544 40.2151 60.2493 40.2353 60.2862C40.2931 60.392 40.45 60.7611 40.45 60.7915C40.45 60.8065 40.4795 60.8484 40.5156 60.8845C40.5517 60.9206 40.5813 60.9979 40.5813 61.0563C40.5813 61.1148 40.6005 61.1626 40.6242 61.1626C40.6478 61.1626 40.6793 61.211 40.6941 61.2702C40.709 61.3293 40.7487 61.4007 40.7824 61.4286C40.8161 61.4566 40.8438 61.5243 40.8438 61.5789C40.8438 61.6335 40.8733 61.6896 40.9094 61.7034C40.9455 61.7173 40.975 61.779 40.975 61.8407C40.975 61.9024 41.0034 61.9637 41.038 61.977C41.0726 61.9903 41.1135 62.0586 41.1289 62.1288C41.1444 62.1989 41.1735 62.2563 41.1938 62.2563C41.214 62.2563 41.2431 62.3137 41.2586 62.3839C41.274 62.4541 41.3149 62.5224 41.3495 62.5357C41.3842 62.549 41.4125 62.5974 41.4125 62.6434C41.4125 62.6893 41.442 62.7514 41.4781 62.7813C41.5142 62.8113 41.5438 62.8605 41.5438 62.8907C41.5438 62.9209 41.5733 62.9701 41.6094 63.0001C41.6455 63.0301 41.675 63.0915 41.675 63.1367C41.675 63.1819 41.7045 63.2188 41.7406 63.2188C41.7767 63.2188 41.8063 63.2461 41.8063 63.2794C41.8063 63.3126 41.8506 63.3518 41.9047 63.3663C42.0356 63.4014 47.5754 63.4016 47.7508 63.3665C47.826 63.3515 47.8875 63.3121 47.8875 63.279C47.8875 63.2459 47.9069 63.2188 47.9307 63.2188C47.9544 63.2188 48.0016 63.1523 48.0356 63.0711C48.0695 62.9898 48.119 62.9099 48.1455 62.8935C48.1721 62.8771 48.1938 62.8248 48.1938 62.7774C48.1938 62.7299 48.2233 62.6798 48.2594 62.6659C48.2955 62.6521 48.325 62.6119 48.325 62.5767C48.325 62.5414 48.3545 62.4831 48.3906 62.447C48.4267 62.4109 48.4563 62.3455 48.4563 62.3017C48.4563 62.2578 48.4858 62.2106 48.5219 62.1968C48.558 62.1829 48.5875 62.1328 48.5875 62.0853C48.5875 62.0379 48.6055 61.9879 48.6274 61.9743C48.6745 61.9452 48.85 61.5928 48.85 61.5273C48.85 61.5025 48.8894 61.4368 48.9375 61.3813C48.9856 61.3259 49.025 61.2441 49.025 61.1997C49.025 61.1552 49.0438 61.1188 49.0668 61.1188C49.0898 61.1188 49.1215 61.0499 49.1373 60.9657C49.1531 60.8815 49.1827 60.8126 49.2032 60.8126C49.2236 60.8126 49.2616 60.7338 49.2875 60.6376C49.3134 60.5413 49.3536 60.4626 49.3767 60.4626C49.3998 60.4626 49.4188 60.4029 49.4188 60.33C49.4188 60.2525 49.446 60.1869 49.4844 60.1722C49.5205 60.1583 49.5501 60.1147 49.5503 60.0751C49.5504 60.0356 49.5781 59.9504 49.6118 59.8858C49.6455 59.8213 49.6863 59.7081 49.7025 59.6343C49.7187 59.5605 49.7501 59.5001 49.7722 59.5001C49.7944 59.5001 49.8125 59.4518 49.8125 59.3928C49.8125 59.2668 49.898 59.0626 49.9508 59.0626C49.971 59.0626 49.9881 59.0085 49.9889 58.9423C49.9896 58.8761 50.0192 58.7837 50.0545 58.7371C50.0898 58.6903 50.1188 58.5992 50.1188 58.5346C50.1188 58.47 50.1483 58.3926 50.1844 58.3626C50.2215 58.3318 50.25 58.2364 50.25 58.1432C50.25 58.0369 50.2734 57.9692 50.3156 57.953C50.3517 57.9392 50.3813 57.8774 50.3813 57.8157C50.3813 57.754 50.4079 57.6398 50.4404 57.562C50.4729 57.4842 50.5134 57.3278 50.5304 57.2145C50.5474 57.1011 50.5799 56.9969 50.6025 56.9829C50.6252 56.9689 50.6446 56.9045 50.6457 56.8397C50.6467 56.775 50.6781 56.6432 50.7155 56.547C50.7528 56.4507 50.8002 56.2834 50.8209 56.1751C50.9117 55.6987 50.9594 55.4883 51.0042 55.3657C51.0306 55.2935 51.0606 55.1065 51.0708 54.9501C51.0809 54.7937 51.1093 54.6414 51.1338 54.6117C51.1583 54.582 51.1959 54.395 51.2174 54.1961C51.239 53.9972 51.2754 53.7459 51.2984 53.6376C51.3592 53.3519 51.4305 52.5551 51.4804 51.6032C51.5293 50.6721 51.4936 47.6095 51.433 47.5365C51.4115 47.5106 51.3729 47.2437 51.3472 46.9432C51.2812 46.1709 51.2196 45.7287 51.1454 45.4942C51.1101 45.3827 51.0813 45.2128 51.0813 45.1168C51.0813 45.0206 51.0517 44.8714 51.0156 44.785C50.9795 44.6986 50.9499 44.5534 50.9497 44.4624C50.9496 44.3714 50.92 44.2406 50.8841 44.1717C50.8482 44.1027 50.8188 43.9818 50.8188 43.903C50.8188 43.8242 50.7798 43.6738 50.7322 43.5689C50.6846 43.4641 50.6452 43.3182 50.6447 43.2448C50.6442 43.1714 50.6235 43.0911 50.5988 43.0664C50.5741 43.0417 50.5419 42.9197 50.5271 42.7952C50.5124 42.6707 50.4851 42.5688 50.4665 42.5688C50.4479 42.5688 50.4187 42.4852 50.4015 42.3829C50.3843 42.2807 50.3432 42.1581 50.3102 42.1107C50.2771 42.0632 50.25 41.9683 50.25 41.8997C50.25 41.8312 50.2232 41.7483 50.1905 41.7155C50.1577 41.6828 50.1181 41.5759 50.1024 41.478C50.0868 41.3802 50.0545 41.3001 50.0307 41.3001C50.007 41.3001 49.9875 41.2532 49.9875 41.1958C49.9875 41.1247 49.9562 41.0832 49.8891 41.0652C49.8349 41.0507 47.5315 41.0385 44.7703 41.0382C40.5081 41.0377 39.75 41.0468 39.75 41.0985ZM44.1747 44.5612C44.0937 44.5964 43.977 44.6251 43.9153 44.6251C43.792 44.6251 43.2528 44.7921 43.1866 44.8508C43.1637 44.871 43.1126 44.8876 43.0729 44.8876C43.0333 44.8876 42.9555 44.927 42.9 44.9751C42.8445 45.0232 42.7628 45.0626 42.7183 45.0626C42.6739 45.0626 42.6375 45.0804 42.6375 45.1021C42.6375 45.1238 42.5784 45.1621 42.5063 45.1873C42.4341 45.2124 42.375 45.2537 42.375 45.2791C42.375 45.3044 42.3471 45.3251 42.313 45.3251C42.2789 45.3251 42.2445 45.3431 42.2364 45.365C42.2284 45.387 42.1056 45.495 41.9634 45.6051C41.8213 45.7151 41.6273 45.9088 41.5324 46.0355C41.4375 46.1621 41.3324 46.2815 41.2987 46.3007C41.265 46.32 41.2375 46.3643 41.2375 46.3992C41.2375 46.434 41.2178 46.4626 41.1938 46.4626C41.1697 46.4626 41.15 46.4921 41.15 46.5282C41.15 46.5643 41.1106 46.6332 41.0625 46.6813C41.0144 46.7295 40.975 46.8088 40.975 46.8577C40.975 46.9066 40.9455 46.9579 40.9094 46.9718C40.8728 46.9858 40.8438 47.0509 40.8438 47.1188C40.8438 47.1859 40.817 47.251 40.7844 47.2635C40.7517 47.276 40.7136 47.3712 40.6997 47.4751C40.6858 47.5789 40.6534 47.6708 40.6278 47.6794C40.6022 47.6879 40.5813 47.7684 40.5813 47.8583C40.5813 47.9482 40.5505 48.1252 40.513 48.2517C40.3999 48.6324 40.4807 49.7295 40.6511 50.1281C40.6849 50.2072 40.7125 50.3179 40.7125 50.3743C40.7125 50.4307 40.742 50.5014 40.7781 50.5313C40.8142 50.5613 40.8438 50.6302 40.8438 50.6845C40.8438 50.7387 40.8733 50.8076 40.9094 50.8376C40.9455 50.8676 40.975 50.92 40.975 50.9541C40.975 51.0184 41.1469 51.2859 41.2047 51.3115C41.2228 51.3196 41.2375 51.351 41.2375 51.3813C41.2375 51.4117 41.2769 51.4722 41.325 51.5157C41.3731 51.5593 41.4125 51.6214 41.4125 51.6538C41.4125 51.6861 41.442 51.7126 41.4781 51.7126C41.5142 51.7126 41.5438 51.7421 41.5438 51.7782C41.5438 51.8143 41.5733 51.8438 41.6094 51.8438C41.6455 51.8438 41.675 51.8734 41.675 51.9095C41.675 51.9456 41.7045 51.9751 41.7406 51.9751C41.7767 51.9751 41.8063 51.9971 41.8063 52.0239C41.8063 52.0877 42.14 52.4016 42.2423 52.434C42.2859 52.4478 42.3737 52.5076 42.4376 52.5668C42.5015 52.6259 42.6021 52.6865 42.6612 52.7013C42.7204 52.7162 42.7688 52.7459 42.7688 52.7673C42.7688 52.7888 42.8032 52.8065 42.8453 52.8067C42.8874 52.8068 42.9809 52.846 43.0531 52.8938C43.1253 52.9417 43.2189 52.9809 43.2609 52.981C43.303 52.9812 43.3375 52.9998 43.3375 53.0224C43.3375 53.045 43.431 53.0772 43.5453 53.094C43.6596 53.1109 43.792 53.1515 43.8394 53.1843C43.9719 53.2757 45.7548 53.2703 45.8313 53.1782C45.8612 53.1421 45.9194 53.1126 45.9605 53.1126C46.098 53.1126 46.6402 52.9252 46.6756 52.8654C46.6949 52.8329 46.7567 52.8063 46.8131 52.8063C46.8695 52.8063 46.927 52.7768 46.9408 52.7407C46.9547 52.7046 47.0137 52.6751 47.0721 52.6751C47.1304 52.6751 47.1895 52.6456 47.2033 52.6095C47.2172 52.5734 47.2586 52.5438 47.2955 52.5438C47.3324 52.5438 47.3625 52.5143 47.3625 52.4782C47.3625 52.4421 47.389 52.4126 47.4213 52.4126C47.4537 52.4126 47.5158 52.3732 47.5594 52.3251C47.6029 52.277 47.6552 52.2376 47.6756 52.2376C47.7435 52.2376 48.325 51.6032 48.325 51.5291C48.325 51.5081 48.3841 51.4332 48.4563 51.3626C48.5284 51.292 48.5875 51.1936 48.5875 51.1439C48.5875 51.0943 48.6159 51.0427 48.6505 51.0294C48.6851 51.0161 48.726 50.9479 48.7414 50.8777C48.7569 50.8075 48.7876 50.7501 48.8097 50.7501C48.8319 50.7501 48.85 50.7252 48.85 50.6948C48.85 50.6643 48.8894 50.566 48.9375 50.4762C48.9856 50.3864 49.025 50.2582 49.025 50.1912C49.025 50.1243 49.0518 50.0307 49.0846 49.9833C49.135 49.9103 49.203 49.3204 49.208 48.9126C49.2119 48.588 49.1364 47.9125 49.0847 47.8101C49.0519 47.7451 49.025 47.6343 49.025 47.5639C49.025 47.4934 48.9955 47.4113 48.9594 47.3813C48.9233 47.3514 48.8938 47.2985 48.8938 47.2638C48.8938 47.1764 48.6838 46.7252 48.6428 46.7246C48.6244 46.7243 48.5707 46.6433 48.5233 46.5446C48.476 46.4458 48.412 46.3554 48.3811 46.3436C48.3503 46.3317 48.325 46.2847 48.325 46.2392C48.325 46.1936 48.2955 46.1563 48.2594 46.1563C48.2233 46.1563 48.1938 46.1362 48.1938 46.1116C48.1938 46.0655 47.7339 45.5876 47.6895 45.5876C47.6758 45.5876 47.6159 45.5351 47.5564 45.4709C47.4485 45.3545 47.3411 45.2811 47.1547 45.1968C47.1006 45.1723 47.0563 45.1321 47.0563 45.1074C47.0563 45.0828 47.0064 45.0626 46.9455 45.0626C46.8846 45.0626 46.8234 45.0331 46.8096 44.997C46.7957 44.9609 46.7619 44.9307 46.7344 44.9299C46.7069 44.929 46.6056 44.8904 46.5094 44.8438C46.4131 44.7973 46.2819 44.7587 46.2177 44.7578C46.1536 44.757 46.0945 44.7372 46.0864 44.7138C46.0784 44.6905 45.9361 44.6522 45.7702 44.6287C45.6043 44.6053 45.4478 44.5654 45.4224 44.54C45.3496 44.4672 44.3521 44.4841 44.1747 44.5612ZM44.4809 46.6612C44.4 46.6964 44.2831 46.7251 44.2213 46.7251C44.104 46.7251 43.7498 46.8784 43.7071 46.9477C43.6935 46.9696 43.6527 46.9876 43.6165 46.9876C43.5447 46.9876 43.075 47.4439 43.075 47.5136C43.075 47.5371 43.047 47.5563 43.0128 47.5563C42.9787 47.5563 42.9377 47.6154 42.9219 47.6876C42.906 47.7598 42.8771 47.8188 42.8575 47.8188C42.838 47.8188 42.8085 47.873 42.7919 47.9392C42.7754 48.0054 42.7362 48.089 42.7047 48.1251C42.6496 48.1884 42.5882 48.5957 42.5861 48.9126C42.5843 49.1977 42.6456 49.5461 42.7293 49.7249C42.7751 49.8227 42.8125 49.9244 42.8125 49.9509C42.8125 49.9774 42.8272 50.0056 42.8453 50.0137C42.8634 50.0217 42.9372 50.1156 43.0094 50.2224C43.1676 50.4564 43.4646 50.7501 43.5432 50.7501C43.5745 50.7501 43.6 50.768 43.6 50.79C43.6 50.838 43.9497 51.0126 44.0459 51.0126C44.0835 51.0126 44.1388 51.0421 44.1688 51.0782C44.2123 51.1307 44.3434 51.1438 44.825 51.1438C45.3066 51.1438 45.4377 51.1307 45.4813 51.0782C45.5112 51.0421 45.59 51.0126 45.6563 51.0126C45.7225 51.0126 45.7997 50.985 45.8277 50.9513C45.8557 50.9175 45.927 50.8778 45.9862 50.8629C46.0453 50.8481 46.0938 50.8166 46.0938 50.793C46.0938 50.7694 46.1158 50.7501 46.1427 50.7501C46.2063 50.7501 46.5313 50.4251 46.5313 50.3615C46.5313 50.3346 46.5608 50.3126 46.5969 50.3126C46.633 50.3126 46.6625 50.2852 46.6625 50.2517C46.6625 50.2181 46.692 50.1794 46.7281 50.1655C46.7642 50.1517 46.7938 50.0998 46.7938 50.0501C46.7938 50.0004 46.8233 49.9485 46.8594 49.9347C46.8955 49.9208 46.925 49.8617 46.925 49.8033C46.925 49.7448 46.9595 49.6444 47.0016 49.5802C47.1131 49.4099 47.1123 48.373 47.0005 48.2134C46.959 48.1542 46.925 48.062 46.925 48.0086C46.925 47.9552 46.9058 47.8997 46.8824 47.8852C46.859 47.8707 46.806 47.7876 46.7647 47.7004C46.6727 47.5065 46.2044 47.0388 46.0681 47.0046C46.0135 46.9909 45.9582 46.9519 45.9452 46.918C45.9321 46.8841 45.8738 46.8563 45.8154 46.8563C45.7571 46.8563 45.698 46.8268 45.6842 46.7907C45.6683 46.7494 45.6013 46.7251 45.5031 46.7251C45.4173 46.7251 45.2765 46.6956 45.1901 46.6595C44.9928 46.577 44.673 46.5778 44.4809 46.6612ZM36.7969 57.5586C36.6571 57.7355 36.4533 57.9768 36.3703 58.0637C36.3282 58.1078 36.2938 58.1635 36.2938 58.1876C36.2938 58.2117 36.2642 58.2313 36.2281 58.2313C36.192 58.2313 36.1625 58.2543 36.1625 58.2824C36.1625 58.3104 36.1339 58.3646 36.0989 58.4027C35.895 58.6248 35.8563 58.6711 35.8563 58.6922C35.8563 58.705 35.7972 58.7733 35.725 58.8438C35.6528 58.9144 35.5938 58.9925 35.5938 59.0174C35.5938 59.0423 35.5642 59.0626 35.5281 59.0626C35.492 59.0626 35.4625 59.0839 35.4625 59.1099C35.4625 59.1625 35.2004 59.4978 35.0141 59.6835C34.9479 59.7494 34.8938 59.8238 34.8938 59.8486C34.8938 59.8735 34.8767 59.8938 34.856 59.8938C34.8352 59.8938 34.7613 59.9764 34.6919 60.0774C34.6225 60.1784 34.5066 60.3247 34.4344 60.4025C34.1291 60.7315 34.0625 60.8083 34.0625 60.8312C34.0625 60.8553 33.9579 60.99 33.8547 61.0987C33.8246 61.1304 33.8 61.1774 33.8 61.2032C33.8 61.229 33.7721 61.2501 33.738 61.2501C33.7038 61.2501 33.6333 61.319 33.5813 61.4032C33.5292 61.4874 33.4686 61.5563 33.4464 61.5563C33.4243 61.5563 33.4063 61.5793 33.4063 61.6074C33.4063 61.6354 33.3776 61.6896 33.3426 61.7277C33.1327 61.9564 33.1 61.9976 33.1 62.0329C33.1 62.0544 33.0705 62.0833 33.0344 62.0972C32.9983 62.111 32.9688 62.1525 32.9688 62.1894C32.9688 62.2262 32.9513 62.2563 32.9301 62.2563C32.8806 62.2563 32.7214 62.6504 32.6561 62.9345C32.6284 63.0548 32.5976 63.5249 32.5877 63.9793C32.5712 64.732 32.576 64.8029 32.6415 64.7777C32.6811 64.7625 32.7498 64.7501 32.7942 64.7501C32.8386 64.7501 32.9044 64.7207 32.9404 64.6846C32.9765 64.6486 33.0517 64.5991 33.1077 64.5746C33.1636 64.5501 33.2684 64.4913 33.3406 64.4438C33.4128 64.3964 33.5143 64.3389 33.5661 64.316C33.6179 64.293 33.6732 64.2534 33.689 64.2278C33.7048 64.2023 33.7565 64.1813 33.8039 64.1813C33.8514 64.1813 33.9016 64.1518 33.9154 64.1157C33.9293 64.0796 33.9765 64.0501 34.0203 64.0501C34.0641 64.0501 34.1295 64.0206 34.1656 63.9845C34.2017 63.9484 34.2592 63.9188 34.2932 63.9188C34.3273 63.9188 34.3908 63.8795 34.4344 63.8313C34.4779 63.7832 34.54 63.7438 34.5724 63.7438C34.6048 63.7438 34.6313 63.7257 34.6313 63.7036C34.6313 63.6814 34.6887 63.6507 34.7588 63.6353C34.829 63.6199 34.8973 63.5789 34.9106 63.5443C34.9239 63.5097 34.9846 63.4813 35.0455 63.4813C35.1064 63.4813 35.1563 63.4607 35.1563 63.4353C35.1563 63.41 35.2153 63.3687 35.2875 63.3435C35.3597 63.3184 35.4188 63.28 35.4188 63.2583C35.4188 63.2366 35.4551 63.2188 35.4995 63.2188C35.5439 63.2188 35.6158 63.1795 35.6594 63.1313C35.7029 63.0832 35.765 63.0438 35.7974 63.0438C35.8298 63.0438 35.8563 63.0242 35.8563 63.0001C35.8563 62.976 35.8772 62.9563 35.9027 62.9563C35.9851 62.9563 36.425 62.7326 36.425 62.6907C36.425 62.6683 36.4644 62.6501 36.5125 62.6501C36.5606 62.6501 36.6 62.6323 36.6 62.6106C36.6 62.5889 36.6591 62.5506 36.7313 62.5254C36.8034 62.5003 36.8625 62.459 36.8625 62.4336C36.8625 62.4083 36.9108 62.3876 36.9697 62.3876C37.0287 62.3876 37.0926 62.3613 37.1119 62.3293C37.1311 62.2972 37.2453 62.2234 37.3656 62.1652C37.4859 62.107 37.6104 62.0349 37.6422 62.0048C37.674 61.9747 37.7197 61.9501 37.7438 61.9501C37.7678 61.9501 37.817 61.9206 37.8531 61.8845C37.8892 61.8484 37.9546 61.8188 37.9984 61.8188C38.0423 61.8188 38.0895 61.7893 38.1033 61.7532C38.1172 61.7171 38.1556 61.6876 38.1887 61.6876C38.2218 61.6876 38.3061 61.6375 38.376 61.5764C38.4942 61.4731 38.4977 61.4611 38.4266 61.4076C38.3845 61.3758 38.35 61.3119 38.35 61.2655C38.35 61.2191 38.3106 61.1039 38.2625 61.0095C38.2144 60.9151 38.175 60.8125 38.175 60.7815C38.175 60.7505 38.1553 60.7251 38.1313 60.7251C38.1072 60.7251 38.0875 60.6773 38.0875 60.6188C38.0875 60.5604 38.058 60.4831 38.0219 60.447C37.9858 60.4109 37.9563 60.3405 37.9563 60.2906C37.9563 60.2407 37.9169 60.1263 37.8688 60.0365C37.8206 59.9467 37.7806 59.8434 37.7799 59.807C37.7791 59.7706 37.7496 59.7025 37.7142 59.6558C37.6789 59.6091 37.65 59.524 37.65 59.4667C37.65 59.4095 37.6205 59.3331 37.5844 59.297C37.5483 59.2609 37.5188 59.165 37.5188 59.0839C37.5188 59.0028 37.4991 58.9243 37.475 58.9095C37.4509 58.8946 37.4092 58.795 37.3823 58.6881C37.3554 58.5813 37.316 58.4938 37.2948 58.4938C37.2736 58.4938 37.2563 58.4096 37.2563 58.3067C37.2563 58.2038 37.2296 58.0807 37.197 58.0333C37.1645 57.9858 37.1268 57.8617 37.1132 57.7576C37.0991 57.6482 37.0548 57.5426 37.0084 57.5075C36.9035 57.428 36.8993 57.429 36.7969 57.5586ZM52.64 57.5105C52.6249 57.55 52.6125 57.6261 52.6125 57.6797C52.6125 57.7333 52.5836 57.8153 52.5483 57.8621C52.5129 57.9087 52.4834 58.0164 52.4827 58.1013C52.4819 58.1862 52.4542 58.2945 52.4212 58.3419C52.3882 58.3894 52.3465 58.4971 52.3287 58.5813C52.3108 58.6656 52.2813 58.7542 52.2632 58.7782C52.245 58.8023 52.2163 58.8986 52.1994 58.9923C52.1825 59.086 52.1406 59.1908 52.1062 59.2251C52.0718 59.2595 52.0438 59.3557 52.0438 59.439C52.0438 59.5332 52.0189 59.5998 51.9781 59.6155C51.942 59.6294 51.9125 59.6939 51.9125 59.7589C51.9125 59.8239 51.8836 59.9153 51.8483 59.9621C51.8129 60.0087 51.7834 60.1017 51.7826 60.1686C51.7819 60.2356 51.7517 60.3017 51.7156 60.3155C51.6795 60.3294 51.65 60.3879 51.65 60.4456C51.65 60.5032 51.6106 60.6239 51.5625 60.7137C51.5144 60.8035 51.475 60.9018 51.475 60.9323C51.475 60.9627 51.4575 60.9876 51.4361 60.9876C51.4148 60.9876 51.3843 61.0565 51.3685 61.1407C51.3527 61.2249 51.321 61.2938 51.298 61.2938C51.2267 61.2938 51.2522 61.5122 51.3328 61.5923C51.3749 61.6341 51.5029 61.7134 51.6172 61.7685C51.7315 61.8237 51.825 61.8849 51.825 61.9047C51.825 61.9245 51.8742 61.953 51.9344 61.9681C51.9945 61.9832 52.0438 62.0148 52.0438 62.0384C52.0438 62.0621 52.0717 62.0813 52.1058 62.0813C52.1978 62.0813 52.6125 62.2981 52.6125 62.3462C52.6125 62.369 52.6519 62.3876 52.7 62.3876C52.7481 62.3876 52.7875 62.4054 52.7875 62.4271C52.7875 62.4488 52.8466 62.4871 52.9188 62.5123C52.9909 62.5374 53.05 62.5787 53.05 62.6041C53.05 62.6294 53.0983 62.6501 53.1572 62.6501C53.2162 62.6501 53.2801 62.6747 53.2994 62.7048C53.3186 62.7349 53.423 62.805 53.5313 62.8605C54.0472 63.1253 54.256 63.2452 54.2881 63.2954C54.3074 63.3255 54.3621 63.3501 54.4098 63.3501C54.4575 63.3501 54.5078 63.3796 54.5217 63.4157C54.5355 63.4518 54.5827 63.4813 54.6266 63.4813C54.6704 63.4813 54.7331 63.506 54.7659 63.536C54.8474 63.6108 54.9767 63.6916 55.0986 63.7441C55.1545 63.7682 55.2298 63.8174 55.2658 63.8534C55.3018 63.8894 55.3698 63.9188 55.417 63.9188C55.4642 63.9188 55.5141 63.9484 55.5279 63.9845C55.5418 64.0206 55.6002 64.0501 55.6578 64.0501C55.7154 64.0501 55.7625 64.0708 55.7625 64.0961C55.7625 64.1215 55.8216 64.1628 55.8938 64.1879C55.9659 64.2131 56.025 64.2514 56.025 64.2731C56.025 64.2948 56.0644 64.3126 56.1125 64.3126C56.1606 64.3126 56.2 64.3285 56.2 64.3479C56.2 64.3674 56.328 64.447 56.4844 64.5248C56.6408 64.6026 56.7688 64.6852 56.7688 64.7082C56.7688 64.7312 56.8377 64.7501 56.9219 64.7501H57.075L57.0715 64.0829C57.0673 63.2645 57.0232 62.6998 56.9606 62.6589C56.9347 62.642 56.9002 62.5741 56.884 62.5079C56.8678 62.4417 56.8352 62.3876 56.8117 62.3876C56.788 62.3876 56.7688 62.3564 56.7688 62.3184C56.7688 62.2589 56.5608 61.968 56.3859 61.783C56.3559 61.7511 56.3313 61.71 56.3313 61.6914C56.3313 61.6729 56.2427 61.564 56.1344 61.4493C56.0261 61.3347 55.9375 61.2333 55.9375 61.224C55.9375 61.2147 55.8829 61.1528 55.8162 61.0864C55.7496 61.02 55.6386 60.8821 55.5697 60.7798C55.5007 60.6775 55.4273 60.5938 55.4066 60.5938C55.3858 60.5938 55.3679 60.5693 55.3669 60.5392C55.3659 60.5091 55.3068 60.4362 55.2357 60.3772C55.1645 60.3181 55.1063 60.2443 55.1063 60.2131C55.1063 60.1819 55.0767 60.1563 55.0406 60.1563C55.0045 60.1563 54.975 60.135 54.975 60.109C54.975 60.0507 54.6899 59.6923 54.5266 59.5452C54.4604 59.4856 54.4063 59.4117 54.4063 59.381C54.4063 59.3503 54.3767 59.3251 54.3406 59.3251C54.3045 59.3251 54.275 59.3025 54.275 59.2749C54.275 59.22 54.0174 58.8915 53.8266 58.7031C53.7604 58.6378 53.7063 58.5639 53.7063 58.5391C53.7063 58.5142 53.6892 58.4938 53.6683 58.4938C53.6475 58.4938 53.5751 58.4102 53.5075 58.3079C53.4399 58.2056 53.3241 58.0607 53.2501 57.9858C52.9972 57.7297 52.875 57.583 52.875 57.5353C52.875 57.509 52.8569 57.4876 52.8348 57.4876C52.8127 57.4876 52.7661 57.4766 52.7311 57.4632C52.6954 57.4495 52.6555 57.4703 52.64 57.5105ZM42.333 65.6334C42.2751 65.6954 42.2438 65.7885 42.2438 65.898C42.2438 65.9909 42.2161 66.1203 42.1824 66.1857C42.1486 66.2509 42.1067 66.4025 42.0894 66.5225C42.0719 66.6425 42.043 66.7604 42.025 66.7845C42.007 66.8085 41.9784 66.9267 41.9615 67.047C41.9445 67.1673 41.9027 67.3093 41.8685 67.3626C41.8343 67.4159 41.8063 67.5389 41.8063 67.6361V67.8126H44.8469H47.8875L47.8861 67.6704C47.8854 67.5922 47.8558 67.49 47.8205 67.4433C47.7852 67.3966 47.7563 67.2856 47.7563 67.1967C47.7563 67.1078 47.7269 66.9787 47.6909 66.9098C47.655 66.8409 47.6254 66.7307 47.6253 66.665C47.6251 66.5994 47.597 66.4714 47.5627 66.3807C47.5284 66.29 47.4879 66.1227 47.4727 66.0089C47.4574 65.8952 47.4264 65.7907 47.4037 65.7766C47.3811 65.7626 47.3625 65.7154 47.3625 65.6717C47.3625 65.6177 47.3187 65.5835 47.2258 65.5649C47.1506 65.5499 46.039 65.5376 44.7556 65.5376H42.4222L42.333 65.6334Z" fill="#FFFAF5"/>
<defs>
<linearGradient id="paint0_linear_186_15" x1="0" y1="54" x2="90" y2="54" gradientUnits="userSpaceOnUse">
<stop stop-color="#FF7E00"/>
<stop offset="1" stop-color="#FF7E00" stop-opacity="0.49"/>
</linearGradient>
</defs>
</svg>
