<svg width="175" height="175" viewBox="0 0 175 175" fill="none" xmlns="http://www.w3.org/2000/svg">
<path fill-rule="evenodd" clip-rule="evenodd" d="M86.586 13.5078C86.4958 13.598 86.3469 13.6719 86.2551 13.6719C86.0837 13.6719 83.5666 16.1733 83.2457 16.6625C83.1471 16.8127 82.9321 17.0602 82.7677 17.2126C82.6033 17.3649 82.4688 17.5411 82.4688 17.6041C82.4688 17.6672 82.395 17.7188 82.3047 17.7188C82.2145 17.7188 82.1407 17.7926 82.1407 17.8828C82.1407 17.973 82.0668 18.0469 81.9766 18.0469C81.8864 18.0469 81.8125 18.1183 81.8125 18.2055C81.8125 18.2927 81.7473 18.4034 81.6677 18.4516C81.5881 18.4997 81.4035 18.7079 81.2576 18.9143C80.9922 19.2897 80.926 19.3693 80.3633 19.9916C80.1978 20.1744 80.0625 20.3668 80.0625 20.4189C80.0625 20.4711 79.9149 20.6754 79.7344 20.873C79.5539 21.0705 79.4063 21.2732 79.4063 21.3232C79.4063 21.3732 79.3431 21.4384 79.2659 21.468C79.1887 21.4975 79.0287 21.7237 78.9105 21.9706C78.7921 22.2175 78.6339 22.4199 78.5586 22.4207C78.4835 22.4213 78.4219 22.4972 78.4219 22.5893C78.4219 22.6815 78.3481 22.7852 78.2578 22.8198C78.1676 22.8545 78.0938 22.9518 78.0938 23.0362C78.0938 23.1206 77.9953 23.2739 77.875 23.3769C77.7547 23.48 77.6563 23.6271 77.6563 23.704C77.6563 23.7809 77.608 23.8438 77.549 23.8438C77.49 23.8438 77.4117 23.9632 77.3751 24.1093C77.3384 24.2553 77.239 24.4015 77.1542 24.4339C77.0694 24.4665 77 24.5685 77 24.6607C77 24.7528 76.9508 24.8281 76.8907 24.8281C76.8305 24.8281 76.7813 24.8948 76.7813 24.9764C76.7813 25.058 76.609 25.3504 76.3985 25.6261C76.1879 25.9019 76.0157 26.2043 76.0157 26.2981C76.0157 26.392 75.9418 26.4688 75.8516 26.4688C75.7614 26.4688 75.6875 26.5612 75.6875 26.6742C75.6875 26.787 75.6137 26.9407 75.5235 27.0156C75.4332 27.0905 75.3594 27.2442 75.3594 27.3571C75.3594 27.4701 75.315 27.5625 75.2607 27.5625C75.2065 27.5625 75.1106 27.7102 75.0477 27.8906C74.9848 28.0711 74.8815 28.2188 74.8182 28.2188C74.7549 28.2188 74.7032 28.3137 74.7032 28.4297C74.7032 28.5457 74.6358 28.708 74.5535 28.7902C74.4712 28.8726 74.3695 29.0484 74.3275 29.1809C74.2853 29.3134 74.2051 29.4219 74.1489 29.4219C74.0928 29.4219 74.0469 29.4879 74.0469 29.5688C74.0469 29.6495 73.9264 29.9325 73.7792 30.1977C73.1835 31.27 72.625 32.409 72.625 32.5518C72.625 32.635 72.578 32.7031 72.5206 32.7031C72.4632 32.7031 72.3831 32.8793 72.3427 33.0947C72.3024 33.31 72.2016 33.5122 72.1191 33.5439C72.0364 33.5756 71.9688 33.7439 71.9688 33.918C71.9688 34.1263 71.9128 34.2344 71.8047 34.2344C71.7015 34.2344 71.6407 34.3385 71.6407 34.5156C71.6407 34.6703 71.5668 34.8707 71.4766 34.961C71.3864 35.0512 71.3125 35.2411 71.3125 35.3828C71.3125 35.5246 71.2387 35.7144 71.1485 35.8047C71.0582 35.8949 70.9844 36.0893 70.9844 36.2366C70.9844 36.3839 70.9106 36.5657 70.8203 36.6406C70.7301 36.7155 70.6563 36.8844 70.6563 37.0159C70.6563 37.1475 70.584 37.3506 70.4957 37.4674C70.4073 37.5841 70.3335 37.7844 70.3316 37.9124C70.3297 38.0404 70.2543 38.2063 70.1641 38.2812C70.0739 38.3562 70 38.5777 70 38.7734C70 38.9692 69.9262 39.1907 69.836 39.2656C69.7457 39.3405 69.6719 39.5519 69.6719 39.7353C69.6719 39.9187 69.596 40.1527 69.5031 40.2551C69.4104 40.3577 69.3043 40.6323 69.2675 40.8653C69.2307 41.0984 69.1552 41.3189 69.0999 41.3553C69.0444 41.3918 68.9716 41.6379 68.9379 41.9022C68.9043 42.1666 68.8363 42.4344 68.7869 42.4977C68.7375 42.5608 68.6637 42.8315 68.6227 43.0992C68.5818 43.3669 68.5114 43.6352 68.4665 43.6953C68.4215 43.7555 68.3499 43.977 68.3073 44.1875C68.2649 44.398 68.1608 44.7812 68.076 45.039C67.9912 45.2968 67.9204 45.6659 67.9184 45.8593C67.9165 46.0527 67.8427 46.3065 67.7543 46.4232C67.6661 46.54 67.592 46.86 67.59 47.1342C67.5878 47.4085 67.5157 47.7559 67.4297 47.9062C67.3438 48.0566 67.2717 48.4397 67.2695 48.7574C67.2674 49.0751 67.1918 49.5119 67.1016 49.7278C67.0114 49.9438 66.9375 50.3791 66.9375 50.6953C66.9375 51.0115 66.8637 51.4468 66.7735 51.6628C66.6801 51.8865 66.6094 52.389 66.6094 52.8303C66.6094 53.2565 66.5392 53.9349 66.4534 54.3378C66.3676 54.7407 66.267 55.907 66.2298 56.9297C66.1926 57.9523 66.1172 59.0105 66.0624 59.2812C65.9283 59.9432 65.931 64.0368 66.0658 64.5859C66.125 64.8266 66.2012 65.7863 66.2353 66.7188C66.2695 67.6512 66.3676 68.7762 66.4534 69.2187C66.5392 69.6613 66.6097 70.3503 66.6101 70.75C66.6105 71.1805 66.6773 71.6042 66.7741 71.7898C66.864 71.9622 66.9375 72.3676 66.9375 72.691C66.9375 73.2556 66.87 73.411 66.418 73.8872C66.3429 73.9665 66.2813 74.084 66.2813 74.1485C66.2813 74.2129 66.2075 74.2656 66.1172 74.2656C66.0261 74.2656 65.9532 74.3629 65.9532 74.4844C65.9532 74.6059 65.8802 74.7031 65.7891 74.7031C65.6989 74.7031 65.625 74.777 65.625 74.8672C65.625 74.9574 65.5512 75.0312 65.461 75.0312C65.3707 75.0312 65.2969 75.0799 65.2969 75.1394C65.2969 75.2483 65.077 75.5482 64.7227 75.9227C64.6175 76.034 64.5313 76.1496 64.5313 76.1797C64.5313 76.2098 64.322 76.4426 64.0664 76.6971C63.5933 77.1682 63.3863 77.4504 63.2624 77.793C63.2244 77.8982 63.1252 77.9844 63.0419 77.9844C62.9588 77.9844 62.8907 78.0352 62.8907 78.0975C62.8907 78.1596 62.743 78.3548 62.5625 78.5312C62.3821 78.7077 62.2344 78.9029 62.2344 78.965C62.2344 79.0273 62.1606 79.0781 62.0703 79.0781C61.9801 79.0781 61.9063 79.1326 61.9063 79.1991C61.9063 79.2656 61.7586 79.5065 61.5782 79.7344C61.3977 79.9622 61.25 80.2032 61.25 80.2697C61.25 80.3362 61.1944 80.3906 61.1262 80.3906C60.9938 80.3906 60.2657 81.1186 60.2657 81.2512C60.2657 81.367 59.9533 81.7532 59.3633 82.3669C59.0776 82.6642 58.8438 82.9317 58.8438 82.9615C58.8438 82.9912 58.7576 83.1078 58.6524 83.2205C58.5472 83.3333 58.3379 83.59 58.1875 83.7911C58.0371 83.9921 57.8279 84.2445 57.7227 84.3518C57.6175 84.459 57.5313 84.5961 57.5313 84.6562C57.5313 84.7164 57.4575 84.7656 57.3672 84.7656C57.277 84.7656 57.2032 84.8395 57.2032 84.9297C57.2032 85.0199 57.1552 85.0938 57.0966 85.0938C57.038 85.0938 56.9193 85.229 56.8329 85.3945C56.7465 85.56 56.4622 85.9246 56.2012 86.2047C55.9402 86.4849 55.5789 86.8921 55.3985 87.1096C55.218 87.3272 55.0184 87.5655 54.9548 87.6393C54.8913 87.7131 54.8067 87.8596 54.7668 87.9648C54.727 88.0702 54.6437 88.1562 54.5815 88.1562C54.5195 88.1562 54.4688 88.2301 54.4688 88.3203C54.4688 88.4105 54.417 88.4844 54.3537 88.4844C54.2904 88.4844 54.1871 88.632 54.1242 88.8125C54.0614 88.993 53.9694 89.1406 53.9199 89.1406C53.8704 89.1406 53.7974 89.2883 53.7578 89.4688C53.7182 89.6492 53.6405 89.7969 53.5851 89.7969C53.5297 89.7969 53.4844 89.9139 53.4844 90.057C53.4844 90.1999 53.4106 90.3782 53.3203 90.4531C53.2301 90.528 53.1563 90.7215 53.1563 90.8831C53.1563 91.0447 53.084 91.2725 52.9957 91.3893C52.9073 91.506 52.8335 91.8123 52.8317 92.0699C52.8297 92.3275 52.7543 92.715 52.6641 92.9309C52.4223 93.5097 52.4254 102.759 52.6676 103.079C52.7559 103.196 52.8282 103.353 52.8282 103.427C52.8282 103.601 53.5256 104.344 53.6887 104.344C53.7569 104.344 53.8125 104.411 53.8125 104.493C53.8125 104.891 56.2505 104.892 56.403 104.495C56.4348 104.412 56.5191 104.344 56.5902 104.344C56.7523 104.344 57.3139 104.053 58.0235 103.602C58.3242 103.411 58.6319 103.253 58.7071 103.252C58.7823 103.251 58.8438 103.205 58.8438 103.149C58.8438 103.094 58.9914 103.016 59.1719 102.977C59.3524 102.937 59.5 102.859 59.5 102.804C59.5 102.748 59.5662 102.703 59.6471 102.703C59.7281 102.703 59.8834 102.605 59.9922 102.484C60.101 102.364 60.2599 102.266 60.3451 102.266C60.4303 102.266 60.5739 102.192 60.6641 102.102C60.7543 102.011 60.9231 101.938 61.039 101.938C61.1551 101.938 61.25 101.864 61.25 101.773C61.25 101.664 61.3594 101.609 61.5782 101.609C61.7969 101.609 61.9063 101.555 61.9063 101.445C61.9063 101.355 61.9987 101.281 62.1117 101.281C62.2246 101.281 62.3782 101.207 62.4532 101.117C62.5281 101.027 62.6511 100.953 62.7266 100.953C62.8021 100.953 62.9251 100.879 63 100.789C63.075 100.699 63.2234 100.625 63.3298 100.625C63.4363 100.625 63.5518 100.551 63.5865 100.461C63.6211 100.371 63.7687 100.297 63.9146 100.297C64.0604 100.297 64.2081 100.223 64.2427 100.133C64.2773 100.043 64.4032 99.9688 64.5224 99.9688C64.6416 99.9688 64.7785 99.906 64.8266 99.8293C64.8747 99.7525 65.1479 99.568 65.4336 99.4193C65.7193 99.2705 65.9532 99.1118 65.9532 99.0666C65.9532 99.0213 66.0481 98.9844 66.1641 98.9844C66.2801 98.9844 66.4464 98.913 66.5337 98.8257C66.621 98.7385 66.8214 98.6347 66.979 98.5951C67.1367 98.5555 67.2657 98.4793 67.2657 98.4257C67.2657 98.372 67.3318 98.3281 67.4128 98.3281C67.4937 98.3281 67.649 98.2297 67.7578 98.1094C67.8667 97.9891 68.0466 97.8906 68.1576 97.8906C68.2686 97.8906 68.3594 97.8424 68.3594 97.7833C68.3594 97.7244 68.4805 97.6456 68.6284 97.6086C68.7762 97.5714 68.9546 97.472 69.0245 97.3877C69.0945 97.3034 69.2689 97.2344 69.4118 97.2344C69.5549 97.2344 69.6723 97.1729 69.6729 97.0977C69.6735 97.0225 69.8989 96.8625 70.1738 96.7422C70.4487 96.6219 70.725 96.462 70.7878 96.3867C70.8504 96.3115 70.989 96.25 71.0954 96.25C71.202 96.25 71.3175 96.1762 71.3521 96.0859C71.3867 95.9957 71.5396 95.9219 71.6919 95.9219C71.8651 95.9219 71.9688 95.8604 71.9688 95.7578C71.9688 95.6566 72.0715 95.5938 72.2367 95.5938C72.3842 95.5938 72.5441 95.5323 72.5922 95.457C72.6403 95.3819 72.9136 95.1982 73.1992 95.0492C73.4849 94.9 73.7188 94.7458 73.7188 94.7065C73.7188 94.6671 73.8262 94.6068 73.9574 94.5725C74.254 94.495 74.5847 94.8125 74.8762 95.4542C74.9916 95.7084 75.1475 95.9175 75.2227 95.919C75.2979 95.9206 75.3594 96.0465 75.3594 96.1987C75.3594 96.3511 75.4332 96.504 75.5235 96.5385C75.6137 96.5732 75.6875 96.6947 75.6875 96.8086C75.6875 96.9224 75.7335 97.0156 75.7896 97.0156C75.8457 97.0156 75.9266 97.1262 75.9695 97.2613C76.0124 97.3965 76.125 97.5637 76.2199 97.633C76.4405 97.7943 76.4132 98.8073 76.1788 99.1652C76.089 99.3021 76.0157 99.6033 76.0157 99.8347C76.0157 100.066 75.9434 100.351 75.8551 100.467C75.7667 100.584 75.6914 100.877 75.6875 101.117C75.6837 101.358 75.6083 101.65 75.52 101.767C75.4317 101.884 75.3579 102.204 75.3559 102.478C75.354 102.752 75.2802 103.072 75.1918 103.189C75.1036 103.306 75.031 103.576 75.0306 103.79C75.0302 104.005 74.9564 104.321 74.8666 104.493C74.7767 104.665 74.7016 104.985 74.6997 105.204C74.6978 105.423 74.624 105.697 74.5356 105.814C74.4473 105.931 74.3747 106.226 74.3744 106.47C74.3739 106.714 74.3001 107.055 74.2103 107.227C74.0059 107.619 74.0073 107.946 74.2145 108.22C74.3027 108.337 74.375 108.571 74.375 108.74C74.375 108.914 74.4346 109.047 74.5132 109.047C74.5891 109.047 74.6999 109.158 74.7593 109.293C74.8187 109.428 74.978 109.588 75.1133 109.647C75.2486 109.706 75.3594 109.817 75.3594 109.893C75.3594 109.972 75.4921 110.031 75.6666 110.031C75.8356 110.031 76.0694 110.104 76.1862 110.192C76.5064 110.434 98.4936 110.434 98.8139 110.192C98.9307 110.104 99.1644 110.031 99.3334 110.031C99.508 110.031 99.6407 109.972 99.6407 109.893C99.6407 109.817 99.7514 109.706 99.8867 109.647C100.022 109.588 100.181 109.428 100.241 109.293C100.3 109.158 100.406 109.047 100.475 109.047C100.544 109.047 100.625 108.887 100.654 108.691C100.683 108.496 100.771 108.182 100.849 107.994C100.97 107.701 100.965 107.596 100.808 107.266C100.707 107.054 100.625 106.689 100.625 106.454C100.625 106.219 100.553 105.931 100.464 105.814C100.376 105.697 100.301 105.405 100.296 105.164C100.292 104.923 100.219 104.604 100.133 104.453C100.047 104.303 99.9748 104.005 99.9726 103.79C99.9705 103.576 99.8965 103.306 99.8082 103.189C99.7198 103.072 99.646 102.752 99.6441 102.478C99.6422 102.204 99.5684 101.884 99.4801 101.767C99.3917 101.65 99.3164 101.358 99.3125 101.117C99.3087 100.877 99.2333 100.584 99.145 100.467C99.0567 100.351 98.9844 100.066 98.9844 99.8347C98.9844 99.6033 98.911 99.3021 98.8212 99.1652C98.5868 98.8073 98.5596 97.7943 98.7802 97.633C98.875 97.5637 98.9877 97.3965 99.0306 97.2613C99.0734 97.1262 99.1544 97.0156 99.2105 97.0156C99.2666 97.0156 99.3125 96.9224 99.3125 96.8086C99.3125 96.6947 99.3864 96.5732 99.4766 96.5385C99.5668 96.504 99.6407 96.3511 99.6407 96.1987C99.6407 96.0465 99.7022 95.9206 99.7774 95.919C99.8526 95.9175 100.008 95.7084 100.124 95.4542C100.415 94.8125 100.746 94.495 101.043 94.5725C101.174 94.6068 101.281 94.6736 101.281 94.7208C101.281 94.7681 101.417 94.8601 101.582 94.9252C101.915 95.0565 102.233 95.2492 102.46 95.457C102.542 95.5322 102.704 95.5938 102.82 95.5938C102.936 95.5938 103.031 95.6676 103.031 95.7578C103.031 95.8672 103.141 95.9219 103.359 95.9219C103.578 95.9219 103.688 95.9766 103.688 96.0859C103.688 96.188 103.791 96.25 103.961 96.25C104.111 96.25 104.234 96.2948 104.234 96.3496C104.234 96.4044 104.468 96.5608 104.754 96.6972C105.04 96.8337 105.313 97.0104 105.361 97.0899C105.409 97.1693 105.538 97.2344 105.648 97.2344C105.758 97.2344 105.906 97.3034 105.976 97.3877C106.045 97.472 106.224 97.5714 106.372 97.6086C106.52 97.6456 106.641 97.7244 106.641 97.7833C106.641 97.8424 106.733 97.8906 106.846 97.8906C106.959 97.8906 107.112 97.9637 107.186 98.053C107.26 98.1423 107.549 98.3268 107.828 98.4631C108.108 98.5993 108.361 98.7438 108.392 98.7842C108.422 98.8246 108.582 98.8915 108.747 98.9329C108.912 98.9742 109.047 99.0417 109.047 99.0827C109.047 99.1238 109.322 99.3031 109.657 99.481C110.545 99.9516 110.692 100.039 110.828 100.175C110.895 100.242 111.063 100.297 111.202 100.297C111.352 100.297 111.453 100.363 111.453 100.461C111.453 100.563 111.556 100.625 111.727 100.625C111.877 100.625 112 100.671 112 100.726C112 100.782 112.271 100.956 112.602 101.112C112.932 101.269 113.203 101.445 113.203 101.503C113.203 101.562 113.326 101.609 113.477 101.609C113.647 101.609 113.75 101.671 113.75 101.773C113.75 101.876 113.854 101.938 114.027 101.938C114.179 101.938 114.332 102.011 114.367 102.102C114.401 102.192 114.517 102.266 114.623 102.266C114.73 102.266 114.878 102.339 114.952 102.428C115.026 102.517 115.315 102.702 115.594 102.838C115.873 102.974 116.126 103.111 116.156 103.142C116.186 103.172 116.491 103.337 116.834 103.507C117.177 103.678 117.472 103.849 117.49 103.889C117.54 103.997 118.231 104.344 118.396 104.344C118.475 104.344 118.565 104.412 118.597 104.495C118.75 104.892 121.188 104.891 121.188 104.493C121.188 104.411 121.243 104.344 121.311 104.344C121.525 104.344 122.15 103.597 122.226 103.252C122.266 103.07 122.344 102.922 122.399 102.922C122.459 102.922 122.5 100.973 122.5 98.1227C122.5 94.1043 122.473 93.2597 122.336 92.9309C122.246 92.715 122.17 92.3275 122.168 92.0699C122.167 91.8123 122.093 91.506 122.004 91.3893C121.916 91.2725 121.844 91.0447 121.844 90.8831C121.844 90.7215 121.77 90.528 121.68 90.4531C121.589 90.3782 121.516 90.221 121.516 90.1038C121.516 89.9865 121.442 89.8168 121.352 89.7265C121.261 89.6363 121.188 89.4676 121.188 89.3516C121.188 89.2356 121.143 89.1406 121.089 89.1406C121.035 89.1406 120.939 88.993 120.876 88.8125C120.813 88.632 120.71 88.4844 120.646 88.4844C120.583 88.4844 120.531 88.4105 120.531 88.3203C120.531 88.2301 120.481 88.1562 120.419 88.1562C120.356 88.1562 120.273 88.0702 120.233 87.9648C120.193 87.8596 120.109 87.7131 120.045 87.6393C119.982 87.5655 119.782 87.326 119.602 87.107C119.421 86.888 119.113 86.5407 118.918 86.3352C118.723 86.1296 118.562 85.9262 118.562 85.8831C118.562 85.8399 118.389 85.6173 118.179 85.3884C117.969 85.1595 117.797 84.9257 117.797 84.8689C117.797 84.8121 117.723 84.7656 117.633 84.7656C117.543 84.7656 117.469 84.7164 117.469 84.6562C117.469 84.5961 117.383 84.459 117.277 84.3518C117.172 84.2445 116.963 83.9921 116.813 83.7911C116.662 83.59 116.453 83.3333 116.348 83.2205C116.242 83.1078 116.156 82.9897 116.156 82.9581C116.156 82.9264 115.935 82.679 115.664 82.4083C115.393 82.1376 115.172 81.8887 115.172 81.8554C115.172 81.7702 114.417 80.8403 114.023 80.4399C113.499 79.9072 113.094 79.3757 113.094 79.2211C113.094 79.1424 113.02 79.0781 112.93 79.0781C112.839 79.0781 112.766 79.0273 112.766 78.965C112.766 78.9029 112.618 78.7077 112.438 78.5312C112.257 78.3548 112.109 78.1596 112.109 78.0975C112.109 78.0352 112.036 77.9844 111.945 77.9844C111.855 77.9844 111.781 77.9279 111.781 77.8589C111.781 77.7234 111.127 76.8768 110.72 76.4857C110.582 76.3533 110.469 76.2206 110.469 76.191C110.469 76.1614 110.297 75.9499 110.087 75.721C109.876 75.4921 109.704 75.2432 109.704 75.168C109.703 75.0928 109.629 75.0312 109.539 75.0312C109.449 75.0312 109.375 74.9574 109.375 74.8672C109.375 74.777 109.301 74.7031 109.211 74.7031C109.12 74.7031 109.047 74.6059 109.047 74.4844C109.047 74.3629 108.974 74.2656 108.883 74.2656C108.793 74.2656 108.719 74.2138 108.719 74.1503C108.719 74.0869 108.571 73.8777 108.391 73.6855C108.108 73.3829 108.064 73.2531 108.063 72.7195C108.063 72.3805 108.136 71.9622 108.226 71.7898C108.324 71.6022 108.39 71.1787 108.39 70.7337C108.39 70.3251 108.46 69.636 108.545 69.2024C108.63 68.7689 108.728 67.6512 108.764 66.7188C108.799 65.7863 108.875 64.802 108.932 64.5312C109.064 63.913 109.067 60.0691 108.936 59.3359C108.882 59.0352 108.808 57.9523 108.771 56.9297C108.733 55.907 108.632 54.7407 108.547 54.3378C108.461 53.9349 108.391 53.2889 108.391 52.9023C108.391 52.5158 108.317 51.9901 108.227 51.7344C108.136 51.4787 108.063 51.0109 108.063 50.6949C108.063 50.379 107.989 49.9438 107.898 49.7278C107.808 49.5119 107.733 49.0751 107.731 48.7574C107.728 48.4397 107.656 48.0566 107.57 47.9062C107.484 47.7559 107.412 47.4085 107.41 47.1342C107.408 46.86 107.334 46.54 107.246 46.4232C107.157 46.3065 107.084 46.0527 107.082 45.8593C107.08 45.6659 107.009 45.2968 106.924 45.039C106.839 44.7812 106.735 44.398 106.693 44.1875C106.65 43.977 106.578 43.7555 106.532 43.6953C106.487 43.6352 106.416 43.3533 106.375 43.0689C106.334 42.7847 106.26 42.5273 106.211 42.4972C106.162 42.467 106.09 42.1952 106.05 41.893C106.01 41.5909 105.936 41.3438 105.886 41.3438C105.836 41.3438 105.768 41.1482 105.736 40.9092C105.704 40.6702 105.599 40.396 105.503 40.2999C105.407 40.2037 105.328 39.9622 105.328 39.7634C105.328 39.5645 105.254 39.3405 105.164 39.2656C105.074 39.1907 105 38.9692 105 38.7734C105 38.5777 104.926 38.3562 104.836 38.2812C104.746 38.2063 104.67 38.0404 104.668 37.9124C104.667 37.7844 104.593 37.5841 104.504 37.4674C104.416 37.3506 104.344 37.1475 104.344 37.0159C104.344 36.8844 104.27 36.7155 104.18 36.6406C104.089 36.5657 104.016 36.3839 104.016 36.2366C104.016 36.0893 103.942 35.8949 103.852 35.8047C103.761 35.7144 103.688 35.5246 103.688 35.3828C103.688 35.2411 103.614 35.0512 103.523 34.961C103.433 34.8707 103.359 34.6703 103.359 34.5156C103.359 34.3385 103.299 34.2344 103.195 34.2344C103.087 34.2344 103.031 34.1263 103.031 33.918C103.031 33.7439 102.964 33.5756 102.881 33.5439C102.798 33.5122 102.698 33.31 102.657 33.0947C102.617 32.8793 102.537 32.7031 102.479 32.7031C102.422 32.7031 102.375 32.6283 102.375 32.537C102.375 32.4457 102.227 32.0941 102.047 31.7559C101.866 31.4177 101.719 31.0802 101.719 31.0058C101.719 30.9314 101.647 30.8113 101.56 30.739C101.383 30.5915 100.953 29.7514 100.953 29.5514C100.953 29.4802 100.907 29.4219 100.851 29.4219C100.795 29.4219 100.715 29.3134 100.673 29.1809C100.631 29.0484 100.529 28.8726 100.447 28.7902C100.364 28.708 100.297 28.5457 100.297 28.4297C100.297 28.3137 100.245 28.2188 100.182 28.2188C100.119 28.2188 100.015 28.0711 99.9524 27.8906C99.8895 27.7102 99.7936 27.5625 99.7393 27.5625C99.6851 27.5625 99.6407 27.4625 99.6407 27.3404C99.6407 27.2181 99.5668 27.0898 99.4766 27.0552C99.3864 27.0205 99.3125 26.8744 99.3125 26.7305C99.3125 26.5708 99.2485 26.4688 99.1485 26.4688C99.0582 26.4688 98.9844 26.392 98.9844 26.2981C98.9844 26.2043 98.8121 25.9019 98.6016 25.6261C98.391 25.3504 98.2188 25.058 98.2188 24.9764C98.2188 24.8948 98.1696 24.8281 98.1094 24.8281C98.0492 24.8281 98 24.7528 98 24.6607C98 24.5685 97.9307 24.4665 97.8458 24.4339C97.761 24.4015 97.6616 24.2553 97.625 24.1093C97.5883 23.9632 97.51 23.8438 97.4511 23.8438C97.392 23.8438 97.3438 23.7809 97.3438 23.704C97.3438 23.6271 97.2453 23.48 97.125 23.3769C97.0047 23.2739 96.9063 23.1206 96.9063 23.0362C96.9063 22.9518 96.8325 22.8545 96.7422 22.8198C96.652 22.7852 96.5782 22.6815 96.5782 22.5893C96.5782 22.4972 96.531 22.4219 96.4734 22.4219C96.4157 22.4219 96.2389 22.2004 96.0802 21.9297C95.9216 21.659 95.7472 21.4375 95.6928 21.4375C95.6383 21.4375 95.5938 21.3637 95.5938 21.2734C95.5938 21.1832 95.5486 21.1094 95.4934 21.1094C95.438 21.1094 95.2816 20.9249 95.1458 20.6992C94.8852 20.2667 94.8147 20.1768 94.2843 19.6018C94.1022 19.4041 93.9532 19.2048 93.9532 19.1589C93.9532 19.113 93.7824 18.9055 93.5738 18.6979C93.3652 18.4902 93.1929 18.2588 93.191 18.1836C93.1891 18.1085 93.1137 18.0469 93.0235 18.0469C92.9332 18.0469 92.8594 17.973 92.8594 17.8828C92.8594 17.7926 92.7856 17.7188 92.6953 17.7188C92.6051 17.7188 92.5313 17.6672 92.5313 17.6041C92.5313 17.5411 92.4184 17.3811 92.2805 17.2487C92.1426 17.1162 91.9182 16.8602 91.7822 16.6797C91.2939 16.0326 88.9114 13.6719 88.7465 13.6719C88.6539 13.6719 88.5043 13.598 88.4141 13.5078C88.3001 13.3938 88.0209 13.3438 87.5 13.3438C86.9792 13.3438 86.7 13.3938 86.586 13.5078ZM87.1719 19.9609C87.1719 20.0512 87.0981 20.125 87.0078 20.125C86.9176 20.125 86.8438 20.1988 86.8438 20.2891C86.8438 20.3793 86.77 20.4531 86.6797 20.4531C86.5895 20.4531 86.5157 20.4996 86.5157 20.5564C86.5157 20.6133 86.3436 20.847 86.1334 21.0759C85.9231 21.3048 85.7508 21.5292 85.7506 21.5742C85.7503 21.6193 85.5532 21.8531 85.3125 22.0938C85.0719 22.3344 84.875 22.5787 84.875 22.6368C84.875 22.6948 84.7766 22.795 84.6563 22.8594C84.536 22.9238 84.4375 23.0501 84.4375 23.1401C84.4375 23.23 84.3637 23.3321 84.2735 23.3667C84.1832 23.4013 84.1094 23.493 84.1094 23.5703C84.1094 23.6476 84.0356 23.7393 83.9453 23.774C83.8551 23.8085 83.7813 23.9122 83.7813 24.0044C83.7813 24.0965 83.7341 24.1719 83.6765 24.1719C83.6189 24.1719 83.442 24.3934 83.2833 24.6641C83.1247 24.9348 82.9504 25.1562 82.8959 25.1562C82.8414 25.1562 82.7969 25.2316 82.7969 25.3237C82.7969 25.4159 82.7231 25.5196 82.6328 25.5542C82.5426 25.5888 82.4688 25.7119 82.4688 25.8276C82.4688 25.9434 82.395 26.0665 82.3047 26.101C82.2145 26.1357 82.1407 26.2274 82.1407 26.3047C82.1407 26.382 82.0668 26.4737 81.9766 26.5083C81.8864 26.5429 81.8125 26.6241 81.8125 26.6885C81.8125 26.7986 81.4001 27.4431 81.2531 27.5625C81.216 27.5926 81.1513 27.7279 81.1089 27.8633C81.0667 27.9987 80.9863 28.1094 80.9302 28.1094C80.8741 28.1094 80.8282 28.1847 80.8282 28.2768C80.8282 28.369 80.7573 28.4715 80.6708 28.5048C80.5842 28.538 80.4819 28.7086 80.4434 28.8842C80.4048 29.0596 80.3034 29.2031 80.218 29.2031C80.1324 29.2031 80.0625 29.2986 80.0625 29.4154C80.0625 29.5322 80.0162 29.6564 79.9596 29.6914C79.903 29.7264 79.743 29.9877 79.6042 30.272C79.4653 30.5564 79.2902 30.8284 79.215 30.8766C79.1397 30.9247 79.0782 31.054 79.0782 31.1639C79.0782 31.2739 79.0091 31.4211 78.9248 31.4911C78.8405 31.561 78.7412 31.7394 78.704 31.8873C78.6669 32.0352 78.5882 32.1562 78.5292 32.1562C78.4701 32.1562 78.4219 32.2487 78.4219 32.3617C78.4219 32.4745 78.3481 32.6282 78.2578 32.7031C78.1676 32.778 78.0938 32.9257 78.0938 33.0312C78.0938 33.1368 78.02 33.2845 77.9297 33.3594C77.8395 33.4343 77.7657 33.5635 77.7657 33.6466C77.7657 33.7297 77.6672 33.9813 77.5469 34.2058C77.4266 34.4303 77.3282 34.6762 77.3282 34.7523C77.3282 34.8628 79.3719 34.8906 87.5 34.8906C95.7131 34.8906 97.6719 34.8636 97.6719 34.7501C97.6719 34.6728 97.4265 34.119 97.1266 33.5196C96.8267 32.9201 96.5806 32.3682 96.5797 32.293C96.5788 32.2178 96.5299 32.1562 96.4709 32.1562C96.4119 32.1562 96.3332 32.0352 96.2961 31.8873C96.2589 31.7394 96.1596 31.561 96.0752 31.4911C95.9909 31.4211 95.9219 31.2739 95.9219 31.1639C95.9219 31.054 95.8603 30.9247 95.7851 30.8766C95.7098 30.8284 95.5341 30.5553 95.3946 30.2695C95.2551 29.9837 95.0951 29.75 95.0392 29.75C94.9832 29.75 94.9375 29.627 94.9375 29.4766C94.9375 29.3133 94.875 29.2031 94.7821 29.2031C94.6967 29.2031 94.5953 29.0596 94.5567 28.8842C94.5182 28.7086 94.4158 28.538 94.3293 28.5048C94.2428 28.4715 94.1719 28.369 94.1719 28.2768C94.1719 28.1847 94.126 28.1094 94.0699 28.1094C94.0137 28.1094 93.9334 27.9987 93.8911 27.8633C93.8488 27.7279 93.7841 27.5926 93.747 27.5625C93.6278 27.4656 93.2296 26.8575 93.1562 26.6602C93.1171 26.5548 93.0343 26.4688 92.9722 26.4688C92.9102 26.4688 92.8594 26.4002 92.8594 26.3164C92.8594 26.2326 92.7856 26.1357 92.6953 26.101C92.6051 26.0665 92.5313 25.9366 92.5313 25.8125C92.5313 25.6884 92.4575 25.5585 92.3672 25.524C92.277 25.4893 92.2032 25.3924 92.2032 25.3086C92.2032 25.2248 92.1586 25.1562 92.1042 25.1562C92.0497 25.1562 91.8754 24.9348 91.7168 24.6641C91.5581 24.3934 91.3812 24.1719 91.3236 24.1719C91.2659 24.1719 91.2188 24.0965 91.2188 24.0044C91.2188 23.9122 91.145 23.8085 91.0547 23.774C90.9645 23.7393 90.8907 23.6476 90.8907 23.5703C90.8907 23.493 90.8168 23.4013 90.7266 23.3667C90.6364 23.3321 90.5625 23.23 90.5625 23.1401C90.5625 23.0501 90.4641 22.9238 90.3438 22.8594C90.2235 22.795 90.125 22.6948 90.125 22.6368C90.125 22.5787 89.9282 22.3344 89.6875 22.0938C89.4469 21.8531 89.2498 21.6193 89.2495 21.5742C89.2493 21.5292 89.077 21.3048 88.8667 21.0759C88.6564 20.847 88.4844 20.6133 88.4844 20.5564C88.4844 20.4996 88.4106 20.4531 88.3203 20.4531C88.2301 20.4531 88.1563 20.3793 88.1563 20.2891C88.1563 20.1988 88.0825 20.125 87.9922 20.125C87.902 20.125 87.8282 20.0512 87.8282 19.9609C87.8282 19.8516 87.7188 19.7969 87.5 19.7969C87.2813 19.7969 87.1719 19.8516 87.1719 19.9609ZM74.8946 40.4213C74.7893 40.6328 74.7032 40.9209 74.7032 41.0615C74.7032 41.202 74.6293 41.3782 74.5391 41.4531C74.4489 41.528 74.3735 41.7432 74.3715 41.9313C74.3697 42.1195 74.2958 42.369 74.2075 42.4857C74.1192 42.6025 74.0469 42.8269 74.0469 42.9844C74.0469 43.1419 73.9746 43.3662 73.8863 43.483C73.798 43.5997 73.7241 43.8992 73.7223 44.1485C73.7201 44.4293 73.6616 44.6236 73.5684 44.6593C73.4802 44.6931 73.3866 44.9688 73.342 45.3255C73.3002 45.6602 73.2251 45.9594 73.175 45.9902C73.125 46.0212 73.0497 46.3419 73.0078 46.7029C72.966 47.064 72.8937 47.3594 72.8472 47.3594C72.8007 47.3594 72.728 47.6665 72.6854 48.0419C72.643 48.4172 72.5692 48.7741 72.5214 48.8348C72.4738 48.8957 72.4003 49.2621 72.3582 49.6493C72.3159 50.0365 72.211 50.4894 72.1251 50.6556C72.0371 50.8257 71.9688 51.2654 71.9688 51.6609C71.9688 52.0475 71.895 52.5406 71.8047 52.7566C71.702 53.0023 71.6407 53.5011 71.6407 54.0897C71.6407 54.6205 71.583 55.1341 71.5084 55.2689C71.3988 55.4668 71.192 59.7049 71.1844 61.9062C71.1779 63.8405 71.4039 68.3851 71.5119 68.4931C71.5912 68.5724 71.6407 68.9931 71.6407 69.5879C71.6407 70.1992 71.7009 70.6981 71.8047 70.9465C71.895 71.1625 71.9688 71.6301 71.9688 71.9856C71.9688 72.3412 72.0387 72.7992 72.124 73.0035C72.2094 73.2079 72.3127 73.6615 72.3535 74.0118C72.3944 74.3619 72.4967 74.8593 72.5811 75.1171C72.6654 75.3749 72.7344 75.7563 72.7344 75.9648C72.7344 76.1732 72.7788 76.3438 72.8331 76.3438C72.8873 76.3438 72.966 76.6392 73.0078 77.0002C73.0497 77.3613 73.125 77.682 73.175 77.7129C73.2251 77.7438 73.3002 78.0429 73.342 78.3776C73.3866 78.7344 73.4802 79.01 73.5684 79.0438C73.6616 79.0795 73.7201 79.2738 73.7223 79.5547C73.7241 79.8039 73.798 80.1034 73.8863 80.2201C73.9746 80.3369 74.0469 80.5612 74.0469 80.7188C74.0469 80.8763 74.1192 81.1006 74.2075 81.2174C74.2958 81.3341 74.3697 81.5836 74.3715 81.7718C74.3735 81.9599 74.4489 82.1751 74.5391 82.25C74.6293 82.3249 74.7032 82.5313 74.7032 82.7087C74.7032 82.8861 74.777 83.1051 74.8672 83.1953C74.9575 83.2856 75.0313 83.501 75.0313 83.6743C75.0313 83.8474 75.0977 84.0284 75.1787 84.0766C75.2599 84.1247 75.3571 84.3605 75.395 84.6007C75.4327 84.8409 75.514 85.0542 75.5755 85.0746C75.6371 85.0952 75.6875 85.2249 75.6875 85.3629C75.6875 85.501 75.7614 85.6751 75.8516 85.75C75.9418 85.8249 76.0155 85.9662 76.0153 86.0641C76.0151 86.2235 76.1911 86.6362 76.6349 87.5168C76.7154 87.6765 76.7813 87.8858 76.7813 87.9817C76.7813 88.0777 76.8266 88.1562 76.882 88.1562C76.9374 88.1562 77.0151 88.3039 77.0547 88.4844C77.0943 88.6648 77.1681 88.8125 77.2188 88.8125C77.2694 88.8125 77.3432 88.9602 77.3828 89.1406C77.4224 89.3211 77.4963 89.4688 77.5469 89.4688C77.5975 89.4688 77.6706 89.613 77.7093 89.7893C77.748 89.9656 77.8504 90.1685 77.9367 90.2402C78.0231 90.3119 78.0938 90.457 78.0938 90.5625C78.0938 90.668 78.1676 90.8157 78.2578 90.8906C78.3481 90.9655 78.4219 91.1438 78.4219 91.2868C78.4219 91.445 78.4861 91.5469 78.586 91.5469C78.6871 91.5469 78.75 91.6496 78.75 91.8148C78.75 91.9623 78.8116 92.1222 78.8869 92.1703C78.9621 92.2184 79.1379 92.4917 79.2773 92.7773C79.4169 93.063 79.5768 93.2969 79.6327 93.2969C79.6887 93.2969 79.7344 93.4199 79.7344 93.5703C79.7344 93.7302 79.7972 93.8438 79.8857 93.8438C79.9689 93.8438 80.0627 93.9422 80.0942 94.0625C80.1507 94.2785 80.2434 94.2812 87.5 94.2812C94.7566 94.2812 94.8494 94.2785 94.9058 94.0625C94.9373 93.9422 95.0312 93.8438 95.1144 93.8438C95.2029 93.8438 95.2657 93.7302 95.2657 93.5703C95.2657 93.4199 95.3114 93.2969 95.3674 93.2969C95.4233 93.2969 95.5832 93.063 95.7227 92.7773C95.8622 92.4917 96.038 92.2184 96.1132 92.1703C96.1885 92.1222 96.25 91.9623 96.25 91.8148C96.25 91.6496 96.3129 91.5469 96.4141 91.5469C96.5222 91.5469 96.5782 91.4388 96.5782 91.2305C96.5782 91.0501 96.6487 90.8869 96.7422 90.851C96.8325 90.8165 96.9063 90.6688 96.9063 90.5229C96.9063 90.3771 96.9755 90.2312 97.0601 90.1988C97.1446 90.1663 97.247 89.9888 97.2875 89.8043C97.328 89.6197 97.4025 89.4688 97.4532 89.4688C97.5038 89.4688 97.5776 89.3211 97.6172 89.1406C97.6568 88.9602 97.7306 88.8125 97.7813 88.8125C97.8319 88.8125 97.9057 88.6648 97.9453 88.4844C97.9849 88.3039 98.0627 88.1562 98.118 88.1562C98.1735 88.1562 98.2188 88.0777 98.2188 87.9817C98.2188 87.8858 98.2846 87.6765 98.3651 87.5168C98.809 86.6362 98.9849 86.2235 98.9847 86.0641C98.9845 85.9662 99.0582 85.8249 99.1485 85.75C99.2387 85.6751 99.3125 85.501 99.3125 85.3629C99.3125 85.2249 99.363 85.0952 99.4245 85.0746C99.4861 85.0542 99.5682 84.8413 99.6072 84.6017C99.646 84.362 99.7434 84.1005 99.8233 84.0205C99.9034 83.9405 99.9688 83.7589 99.9688 83.6172C99.9688 83.4754 100.043 83.2856 100.133 83.1953C100.223 83.1051 100.297 82.8836 100.297 82.7031C100.297 82.5227 100.371 82.3012 100.461 82.211C100.551 82.1207 100.625 81.9051 100.625 81.7319C100.625 81.5585 100.697 81.3213 100.786 81.2045C100.874 81.0878 100.948 80.8663 100.95 80.7123C100.952 80.5584 101.025 80.3369 101.114 80.2201C101.202 80.1034 101.276 79.8039 101.278 79.5547C101.28 79.2738 101.338 79.0795 101.432 79.0438C101.52 79.01 101.613 78.7344 101.658 78.3776C101.7 78.0429 101.775 77.7438 101.825 77.7129C101.875 77.682 101.95 77.3613 101.992 77.0002C102.034 76.6392 102.106 76.3438 102.151 76.3438C102.197 76.3438 102.266 76.0412 102.305 75.6713C102.343 75.3015 102.417 74.9447 102.469 74.8783C102.521 74.8121 102.593 74.4606 102.629 74.0974C102.665 73.7342 102.771 73.2559 102.863 73.0345C102.956 72.8131 103.031 72.3412 103.031 71.9856C103.031 71.6301 103.105 71.1625 103.195 70.9465C103.298 70.7009 103.359 70.202 103.359 69.6135C103.359 69.0963 103.417 68.5657 103.488 68.4342C103.594 68.2374 103.83 63.42 103.811 61.8516C103.781 59.4221 103.589 55.5548 103.487 55.3093C103.417 55.14 103.359 54.5847 103.359 54.0753C103.359 53.4996 103.297 53.0007 103.195 52.7566C103.105 52.5406 103.031 52.0778 103.031 51.7281C103.031 51.3785 102.975 50.9538 102.906 50.7845C102.781 50.4783 102.579 49.5086 102.347 48.0977C102.28 47.6917 102.188 47.3594 102.142 47.3594C102.095 47.3594 102.024 47.0641 101.983 46.7031C101.943 46.3422 101.872 46.0469 101.827 46.0469C101.781 46.0469 101.711 45.7796 101.67 45.453C101.629 45.1263 101.525 44.8003 101.438 44.7287C101.35 44.6555 101.281 44.4083 101.281 44.1663C101.281 43.9282 101.208 43.6607 101.117 43.5703C101.027 43.4801 100.953 43.2469 100.953 43.0522C100.953 42.8574 100.881 42.6025 100.793 42.4857C100.704 42.369 100.63 42.1195 100.629 41.9313C100.627 41.7432 100.551 41.528 100.461 41.4531C100.371 41.3782 100.297 41.202 100.297 41.0615C100.297 40.9209 100.211 40.6328 100.105 40.4213L99.9141 40.0366H87.5H75.086L74.8946 40.4213ZM85.9688 48.5482C85.8785 48.6002 85.514 48.6712 85.1587 48.7059C84.8034 48.7406 84.4835 48.8133 84.4478 48.8675C84.412 48.9218 84.1888 48.9968 83.9516 49.0343C83.7145 49.0718 83.4782 49.1778 83.4267 49.2699C83.3751 49.3621 83.2176 49.4375 83.0766 49.4375C82.9356 49.4375 82.792 49.5113 82.7573 49.6016C82.7227 49.6918 82.5751 49.7656 82.4292 49.7656C82.2834 49.7656 82.1357 49.8395 82.1011 49.9297C82.0665 50.0199 81.9435 50.0938 81.8276 50.0938C81.7119 50.0938 81.5889 50.1676 81.5542 50.2578C81.5196 50.348 81.4212 50.4219 81.3354 50.4219C81.2498 50.4219 81.1514 50.4957 81.1167 50.5859C81.0821 50.6762 80.9784 50.75 80.8862 50.75C80.7941 50.75 80.7188 50.8238 80.7188 50.9141C80.7188 51.0043 80.6707 51.0781 80.6117 51.0781C80.436 51.0781 78.75 52.8592 78.75 53.0447C78.75 53.0913 78.6762 53.1907 78.586 53.2656C78.4957 53.3405 78.4219 53.4942 78.4219 53.6071C78.4219 53.7201 78.3481 53.8125 78.2578 53.8125C78.1553 53.8125 78.0938 53.9162 78.0938 54.0893C78.0938 54.2417 78.0229 54.3934 77.9364 54.4266C77.8499 54.4599 77.7467 54.6339 77.7074 54.8134C77.6679 54.9929 77.5668 55.2718 77.4826 55.4331C77.3984 55.5945 77.3292 55.8275 77.3288 55.9508C77.3285 56.0742 77.2798 56.2233 77.2206 56.2825C77.0627 56.4405 76.8639 57.9935 76.8646 59.0625C76.8654 60.135 77.0638 61.8086 77.201 61.8992C77.2522 61.9332 77.3254 62.1574 77.3634 62.3976C77.4013 62.6377 77.4827 62.851 77.5443 62.8715C77.6059 62.892 77.6563 63.0211 77.6563 63.1584C77.6563 63.2956 77.7547 63.5331 77.875 63.6861C77.9953 63.839 78.0938 64.0426 78.0938 64.1384C78.0938 64.2341 78.1382 64.3125 78.1924 64.3125C78.2467 64.3125 78.3426 64.4602 78.4055 64.6406C78.4684 64.8211 78.5716 64.9688 78.635 64.9688C78.6983 64.9688 78.75 65.0426 78.75 65.1328C78.75 65.223 78.7983 65.2969 78.8573 65.2969C78.9163 65.2969 78.9946 65.4163 79.0312 65.5624C79.0679 65.7085 79.1673 65.8546 79.2521 65.8871C79.3369 65.9197 79.4063 66.0216 79.4063 66.1138C79.4063 66.2059 79.4801 66.2812 79.5703 66.2812C79.6606 66.2812 79.7344 66.3551 79.7344 66.4453C79.7344 66.5355 79.8082 66.6094 79.8985 66.6094C79.9887 66.6094 80.0625 66.6832 80.0625 66.7734C80.0625 66.8637 80.1241 66.9388 80.1992 66.9406C80.2745 66.9422 80.4785 67.0889 80.6526 67.2664C80.8268 67.4439 81.0606 67.618 81.1721 67.6535C81.2837 67.6889 81.375 67.7637 81.375 67.8198C81.375 67.8759 81.4504 67.9219 81.5425 67.9219C81.6347 67.9219 81.7384 67.9957 81.7729 68.0859C81.8076 68.1762 81.9262 68.25 82.0365 68.25C82.1469 68.25 82.2636 68.2928 82.296 68.3452C82.3522 68.4362 83.0557 68.7958 83.9072 69.1689C84.1268 69.265 84.4246 69.3438 84.5689 69.3438C84.7133 69.3438 84.8927 69.4053 84.968 69.4805C85.0691 69.5815 85.7296 69.6172 87.5 69.6172C89.2705 69.6172 89.931 69.5815 90.0321 69.4805C90.1073 69.4053 90.2868 69.3438 90.4312 69.3438C90.7883 69.3438 92.3043 68.6806 92.6192 68.3867C92.6997 68.3116 92.8554 68.25 92.9648 68.25C93.0744 68.25 93.1925 68.1762 93.2271 68.0859C93.2617 67.9957 93.3654 67.9219 93.4576 67.9219C93.5497 67.9219 93.625 67.8759 93.625 67.8198C93.625 67.7637 93.7164 67.6889 93.8279 67.6535C93.9395 67.618 94.1732 67.4439 94.3475 67.2664C94.5216 67.0889 94.7257 66.9422 94.8008 66.9406C94.8761 66.9388 94.9375 66.8637 94.9375 66.7734C94.9375 66.6832 95.0114 66.6094 95.1016 66.6094C95.1918 66.6094 95.2657 66.5355 95.2657 66.4453C95.2657 66.3551 95.3395 66.2812 95.4297 66.2812C95.52 66.2812 95.5938 66.2059 95.5938 66.1138C95.5938 66.0216 95.6631 65.9197 95.748 65.8871C95.8328 65.8546 95.9322 65.7085 95.9688 65.5624C96.0055 65.4163 96.0838 65.2969 96.1427 65.2969C96.2018 65.2969 96.25 65.223 96.25 65.1328C96.25 65.0426 96.2956 64.9688 96.3514 64.9688C96.4072 64.9688 96.5854 64.6886 96.7474 64.3463C96.9093 64.004 97.1098 63.6559 97.1928 63.5728C97.2759 63.4898 97.3438 63.3023 97.3438 63.1563C97.3438 63.0102 97.3908 62.8906 97.4482 62.8906C97.5057 62.8906 97.5821 62.7061 97.6182 62.4805C97.6543 62.2549 97.7342 61.9787 97.7959 61.8666C97.9516 61.5835 98.1417 60.0469 98.1429 59.0625C98.144 58.085 97.9268 56.4298 97.7778 56.2809C97.7196 56.2227 97.6716 56.0742 97.6712 55.9508C97.6708 55.8275 97.6017 55.5945 97.5175 55.4331C97.4333 55.2718 97.3322 54.9929 97.2927 54.8134C97.2533 54.6339 97.1502 54.4599 97.0637 54.4266C96.9772 54.3934 96.9063 54.2417 96.9063 54.0893C96.9063 53.9162 96.8448 53.8125 96.7422 53.8125C96.6511 53.8125 96.5782 53.7153 96.5782 53.5938C96.5782 53.4734 96.5322 53.375 96.4761 53.375C96.42 53.375 96.3435 53.2785 96.3061 53.1607C96.1947 52.8096 94.6002 51.0781 94.3884 51.0781C94.3294 51.0781 94.2813 51.0043 94.2813 50.9141C94.2813 50.8238 94.2075 50.75 94.1172 50.75C94.027 50.75 93.9532 50.6996 93.9532 50.6379C93.9532 50.5763 93.8301 50.4791 93.6797 50.4219C93.5293 50.3647 93.4063 50.2674 93.4063 50.2059C93.4063 50.1442 93.3063 50.0938 93.1841 50.0938C93.0619 50.0938 92.9336 50.0199 92.899 49.9297C92.8643 49.8395 92.7463 49.7656 92.6367 49.7656C92.5272 49.7656 92.3637 49.6918 92.2735 49.6016C92.1833 49.5113 92.0099 49.4375 91.8883 49.4375C91.7666 49.4375 91.625 49.3621 91.5734 49.2699C91.5219 49.1778 91.2856 49.0718 91.0485 49.0343C90.8112 48.9968 90.5892 48.9238 90.5549 48.8718C90.3875 48.6184 86.3419 48.3328 85.9688 48.5482ZM86.7492 53.6527C86.5468 53.7406 86.1884 53.8125 85.9528 53.8125C85.6729 53.8125 85.5026 53.8694 85.4615 53.9766C85.4268 54.0668 85.2792 54.1406 85.1334 54.1406C84.9875 54.1406 84.8398 54.2145 84.8053 54.3047C84.7706 54.3949 84.6447 54.4688 84.5255 54.4688C84.2471 54.4688 82.7969 55.9483 82.7969 56.2322C82.7969 56.3489 82.7231 56.4727 82.6328 56.5073C82.5426 56.542 82.4688 56.6719 82.4688 56.796C82.4688 56.9203 82.3863 57.113 82.2855 57.2245C82.0153 57.5229 82.0181 60.7054 82.2886 60.976C82.3877 61.0752 82.4688 61.2452 82.4688 61.3538C82.4688 61.4624 82.5426 61.6126 82.6328 61.6875C82.7231 61.7624 82.7969 61.9161 82.7969 62.029C82.7969 62.142 82.8707 62.2344 82.961 62.2344C83.0512 62.2344 83.125 62.2991 83.125 62.3783C83.125 62.4574 83.3556 62.7527 83.6373 63.0346C83.9192 63.3163 84.2145 63.5469 84.2936 63.5469C84.3728 63.5469 84.4375 63.6207 84.4375 63.7109C84.4375 63.8012 84.5325 63.875 84.6485 63.875C84.7645 63.875 84.9332 63.9488 85.0235 64.0391C85.1137 64.1293 85.2979 64.2031 85.4328 64.2031C85.5677 64.2031 85.7719 64.288 85.8865 64.3917C86.1951 64.6709 88.805 64.6709 89.1135 64.3917C89.2282 64.288 89.4324 64.2031 89.5672 64.2031C89.7022 64.2031 89.8864 64.1293 89.9766 64.0391C90.0668 63.9488 90.2356 63.875 90.3515 63.875C90.4676 63.875 90.5625 63.8012 90.5625 63.7109C90.5625 63.6207 90.6112 63.5469 90.6707 63.5469C90.8986 63.5469 91.8737 62.5945 91.8745 62.3711C91.8748 62.296 91.9489 62.2344 92.0391 62.2344C92.1293 62.2344 92.2032 62.142 92.2032 62.029C92.2032 61.9161 92.277 61.7624 92.3672 61.6875C92.4575 61.6126 92.5313 61.4698 92.5313 61.3703C92.5313 61.2708 92.6113 61.075 92.7092 60.9352C92.9724 60.5596 92.9747 57.6687 92.7122 57.2682C92.6127 57.1163 92.5313 56.8972 92.5313 56.7812C92.5313 56.6652 92.4575 56.542 92.3672 56.5073C92.277 56.4727 92.2032 56.3489 92.2032 56.2322C92.2032 55.9483 90.753 54.4688 90.4746 54.4688C90.3554 54.4688 90.2295 54.3949 90.1948 54.3047C90.1602 54.2145 90.0126 54.1406 89.8667 54.1406C89.7209 54.1406 89.5732 54.0668 89.5386 53.9766C89.4975 53.8695 89.3272 53.8125 89.0481 53.8125C88.8129 53.8125 88.4438 53.7387 88.2278 53.6484C87.7383 53.4439 87.2268 53.4453 86.7492 53.6527ZM23.9532 56.6451C23.8629 56.6954 23.5026 56.7645 23.1526 56.7987C22.8025 56.8328 22.458 56.9067 22.387 56.9629C22.3159 57.0193 22.0733 57.0984 21.8477 57.1391C21.6222 57.1798 21.4375 57.26 21.4375 57.3174C21.4375 57.3748 21.3345 57.4219 21.2087 57.4219C21.0828 57.4219 20.8547 57.5203 20.7018 57.6406C20.5487 57.7609 20.3625 57.8594 20.2878 57.8594C20.213 57.8594 20.0906 57.9332 20.0157 58.0234C19.9407 58.1137 19.7871 58.1875 19.6742 58.1875C19.5612 58.1875 19.4688 58.2613 19.4688 58.3516C19.4688 58.4418 19.3991 58.5156 19.3138 58.5156C19.2286 58.5156 19.1425 58.5525 19.1224 58.5977C19.1024 58.6428 18.8768 58.8218 18.6211 58.9953C18.3654 59.1689 18.1563 59.3535 18.1563 59.4055C18.1563 59.4575 18.0824 59.5 17.9922 59.5C17.902 59.5 17.8282 59.5508 17.8282 59.6128C17.8282 59.6747 17.6559 59.8767 17.4453 60.0615C17.2348 60.2464 17.0625 60.468 17.0625 60.5538C17.0625 60.6397 16.9887 60.7383 16.8985 60.7729C16.8082 60.8076 16.7344 60.906 16.7344 60.9917C16.7344 61.0774 16.6651 61.1741 16.5802 61.2067C16.4954 61.2392 16.396 61.3853 16.3594 61.5313C16.3227 61.6774 16.2444 61.7969 16.1854 61.7969C16.1264 61.7969 16.0782 61.8968 16.0782 62.019C16.0782 62.1413 16.0043 62.2696 15.9141 62.3042C15.8239 62.3388 15.75 62.4815 15.75 62.6211C15.75 62.7607 15.6762 62.9488 15.586 63.039C15.4957 63.1293 15.4219 63.349 15.4219 63.5274C15.4219 63.7147 15.3527 63.8782 15.2578 63.9146C15.1492 63.9563 15.0938 64.1278 15.0938 64.422C15.0938 64.6664 15.0077 65.0494 14.9024 65.273C14.7211 65.658 14.7094 68.1695 14.6826 112.465L14.6543 159.25H8.76239C3.65862 159.25 2.85231 159.272 2.7344 159.414C2.65948 159.504 2.53042 159.578 2.44762 159.578C2.2736 159.578 1.8594 159.963 1.8594 160.125C1.8594 160.185 1.81139 160.234 1.75276 160.234C1.69414 160.234 1.54309 160.461 1.41709 160.737C1.19626 161.222 1.18937 161.376 1.22295 165.076C1.24975 168.022 1.28956 168.922 1.39456 168.957C1.46981 168.982 1.53292 169.134 1.535 169.294C1.53707 169.455 1.63376 169.783 1.75003 170.023C1.86629 170.264 1.96298 170.523 1.96506 170.598C1.96714 170.673 2.01406 170.734 2.06951 170.734C2.12485 170.734 2.20262 170.882 2.24221 171.062C2.28181 171.243 2.38418 171.391 2.4696 171.391C2.55514 171.391 2.62503 171.464 2.62503 171.555C2.62503 171.645 2.67096 171.719 2.72707 171.719C2.78318 171.719 2.86248 171.824 2.9035 171.953C2.9444 172.082 3.11995 172.327 3.29364 172.497C3.46732 172.666 3.6094 172.856 3.6094 172.918C3.6094 172.98 3.68323 173.031 3.77346 173.031C3.8637 173.031 3.93753 173.082 3.93753 173.143C3.93753 173.205 4.06189 173.303 4.21381 173.36C4.36573 173.418 4.51864 173.54 4.55364 173.631C4.58853 173.722 4.71037 173.797 4.82423 173.797C4.93809 173.797 5.03128 173.845 5.03128 173.904C5.03128 173.963 5.15432 174.042 5.30471 174.08C5.4551 174.118 5.57815 174.189 5.57815 174.238C5.57815 174.286 5.73806 174.361 5.93362 174.403C6.12907 174.446 6.31643 174.523 6.34979 174.576C6.58178 174.938 6.35045 174.937 87.5 174.937C168.65 174.937 168.418 174.938 168.65 174.576C168.684 174.523 168.871 174.446 169.066 174.403C169.262 174.361 169.422 174.286 169.422 174.238C169.422 174.189 169.545 174.118 169.695 174.08C169.846 174.042 169.969 173.963 169.969 173.904C169.969 173.845 170.067 173.797 170.188 173.797C170.308 173.797 170.406 173.726 170.406 173.64C170.406 173.554 170.517 173.449 170.652 173.407C170.954 173.313 172 172.256 172.099 171.945C172.139 171.821 172.217 171.719 172.273 171.719C172.329 171.719 172.375 171.645 172.375 171.555C172.375 171.464 172.449 171.391 172.539 171.391C172.629 171.391 172.703 171.328 172.703 171.252C172.703 171.176 172.802 170.93 172.922 170.706C173.042 170.481 173.141 170.224 173.141 170.133C173.141 170.043 173.188 169.969 173.245 169.969C173.303 169.969 173.38 169.784 173.417 169.559C173.454 169.333 173.542 169.03 173.613 168.886C173.804 168.498 173.796 160.872 173.605 160.809C173.53 160.784 173.469 160.667 173.469 160.55C173.469 160.433 173.395 160.309 173.305 160.274C173.214 160.239 173.141 160.167 173.141 160.113C173.141 159.961 172.72 159.578 172.552 159.578C172.47 159.578 172.341 159.504 172.266 159.414C172.148 159.272 171.341 159.25 166.238 159.25H160.346L160.318 112.465C160.291 68.1696 160.279 65.658 160.098 65.273C159.992 65.0494 159.906 64.6664 159.906 64.422C159.906 64.1278 159.851 63.9563 159.742 63.9146C159.647 63.8782 159.578 63.7147 159.578 63.5274C159.578 63.349 159.504 63.1293 159.414 63.039C159.324 62.9488 159.25 62.7607 159.25 62.6211C159.25 62.4815 159.176 62.3388 159.086 62.3042C158.996 62.2696 158.922 62.1413 158.922 62.019C158.922 61.8968 158.874 61.7969 158.815 61.7969C158.756 61.7969 158.676 61.6738 158.639 61.5234C158.601 61.373 158.525 61.25 158.469 61.25C158.414 61.25 158.339 61.1731 158.303 61.0792C158.231 60.8915 157.936 60.5161 157.473 60.0225C157.307 59.8462 157.172 59.6565 157.172 59.601C157.172 59.5454 157.098 59.5 157.008 59.5C156.918 59.5 156.844 59.4262 156.844 59.3359C156.844 59.2457 156.793 59.1719 156.73 59.1719C156.601 59.1719 155.933 58.7222 155.878 58.5977C155.858 58.5526 155.771 58.5156 155.686 58.5156C155.601 58.5156 155.531 58.4418 155.531 58.3516C155.531 58.2613 155.439 58.1875 155.326 58.1875C155.213 58.1875 155.059 58.1137 154.984 58.0234C154.909 57.9332 154.787 57.8594 154.712 57.8594C154.638 57.8594 154.451 57.7609 154.298 57.6406C154.145 57.5203 153.917 57.4219 153.791 57.4219C153.666 57.4219 153.563 57.3748 153.563 57.3174C153.563 57.26 153.378 57.1798 153.152 57.1391C152.927 57.0984 152.687 57.0212 152.618 56.9674C152.215 56.6487 150.713 56.6181 133.738 56.5821C122.214 56.5577 116.484 56.5821 116.484 56.6556C116.484 56.7161 116.389 56.7656 116.273 56.7656C116.157 56.7656 115.989 56.8395 115.898 56.9297C115.808 57.0199 115.694 57.0946 115.645 57.0956C115.518 57.0983 115.063 57.5938 115.063 57.729C115.063 57.7907 115.001 57.8617 114.926 57.8866C114.833 57.9176 114.777 58.2653 114.752 58.9717C114.722 59.8116 114.748 60.0448 114.889 60.1853C114.984 60.281 115.063 60.405 115.063 60.4606C115.063 60.6327 115.548 61.0739 116.022 61.332L116.473 61.5781H133.011C147.58 61.5781 149.654 61.5986 150.434 61.7496C151.235 61.9046 151.789 62.0917 152.25 62.3629C152.34 62.416 152.497 62.4875 152.598 62.5218C152.699 62.556 152.808 62.6531 152.841 62.7374C152.873 62.8216 152.975 62.8906 153.067 62.8906C153.159 62.8906 153.234 62.9645 153.234 63.0547C153.234 63.1449 153.284 63.2188 153.344 63.2188C153.48 63.2188 153.891 63.6211 153.891 63.7539C153.891 63.8076 153.964 63.8799 154.055 63.9146C154.145 63.9492 154.219 64.0528 154.219 64.145C154.219 64.2371 154.267 64.3125 154.326 64.3125C154.385 64.3125 154.467 64.4474 154.509 64.6122C154.55 64.777 154.649 64.9774 154.729 65.0576C154.809 65.1376 154.875 65.361 154.875 65.5538C154.875 65.7466 154.949 66.0099 155.039 66.1388C155.185 66.3465 155.2 71.6613 155.176 112.784L155.148 159.195L151.102 159.226C148.876 159.243 146.944 159.229 146.809 159.196C146.636 159.154 146.563 159.056 146.563 158.865C146.563 158.716 146.612 158.594 146.672 158.594C146.824 158.594 146.82 154.082 146.667 153.929C146.604 153.867 146.526 153.451 146.494 153.005C146.461 152.56 146.365 152.01 146.28 151.783C146.195 151.556 146.125 151.205 146.125 151.003C146.125 150.801 146.051 150.575 145.961 150.5C145.868 150.423 145.797 150.185 145.797 149.953C145.797 149.721 145.725 149.483 145.633 149.406C145.543 149.331 145.469 149.102 145.469 148.897C145.469 148.667 145.406 148.5 145.305 148.461C145.213 148.426 145.141 148.264 145.141 148.094C145.141 147.926 145.071 147.762 144.987 147.73C144.902 147.698 144.8 147.52 144.759 147.336C144.719 147.151 144.64 147 144.585 147C144.53 147 144.484 146.928 144.484 146.839C144.484 146.671 144.057 145.782 143.931 145.688C143.891 145.657 143.823 145.522 143.781 145.387C143.739 145.251 143.658 145.141 143.602 145.141C143.546 145.141 143.5 145.074 143.5 144.994C143.5 144.913 143.402 144.757 143.281 144.648C143.161 144.54 143.063 144.36 143.063 144.249C143.063 144.138 142.989 144.047 142.898 144.047C142.808 144.047 142.734 143.973 142.734 143.883C142.734 143.793 142.686 143.719 142.627 143.719C142.568 143.719 142.49 143.599 142.453 143.453C142.417 143.307 142.317 143.161 142.232 143.129C142.147 143.096 142.078 142.994 142.078 142.902C142.078 142.81 142.004 142.734 141.914 142.734C141.824 142.734 141.75 142.661 141.75 142.57C141.75 142.48 141.676 142.406 141.586 142.406C141.496 142.406 141.422 142.358 141.422 142.298C141.422 142.145 139.295 140 139.142 140C139.073 140 139.016 139.926 139.016 139.836C139.016 139.746 138.947 139.672 138.863 139.672C138.78 139.672 138.683 139.598 138.648 139.508C138.613 139.418 138.508 139.344 138.414 139.344C138.32 139.344 138.098 139.196 137.922 139.016C137.745 138.835 137.555 138.688 137.5 138.688C137.444 138.688 137.37 138.614 137.335 138.523C137.301 138.433 137.171 138.359 137.047 138.359C136.923 138.359 136.793 138.286 136.758 138.195C136.724 138.105 136.607 138.031 136.5 138.031C136.393 138.031 136.276 137.957 136.242 137.867C136.207 137.777 136.081 137.703 135.962 137.703C135.843 137.703 135.706 137.635 135.658 137.553C135.57 137.401 134.643 136.938 134.428 136.938C134.364 136.938 134.313 136.892 134.313 136.837C134.313 136.781 134.153 136.701 133.957 136.659C133.762 136.616 133.504 136.514 133.386 136.431C133.267 136.349 133.058 136.281 132.921 136.281C132.784 136.281 132.672 136.235 132.672 136.179C132.672 136.122 132.446 136.042 132.171 136.001C131.896 135.959 131.644 135.858 131.612 135.775C131.576 135.681 131.384 135.625 131.095 135.625C130.842 135.625 130.54 135.553 130.423 135.464C130.303 135.373 129.969 135.302 129.649 135.3C129.34 135.298 128.947 135.223 128.774 135.133C128.312 134.893 122.375 134.893 121.913 135.133C121.487 135.356 120.531 135.355 120.531 135.133C120.531 135.043 120.457 134.969 120.367 134.969C120.277 134.969 120.203 134.876 120.203 134.763C120.203 134.65 120.129 134.497 120.039 134.422C119.949 134.347 119.875 134.218 119.875 134.135C119.875 134.052 119.825 133.984 119.763 133.984C119.702 133.984 119.591 133.849 119.518 133.684C119.358 133.324 119.357 133.322 118.7 132.567C117.99 131.753 117.179 130.922 117.094 130.922C117.055 130.922 116.88 130.774 116.703 130.594C116.527 130.413 116.331 130.266 116.269 130.266C116.207 130.266 116.156 130.192 116.156 130.102C116.156 130.011 116.081 129.938 115.989 129.938C115.897 129.938 115.793 129.864 115.758 129.773C115.724 129.683 115.605 129.609 115.494 129.609C115.383 129.609 115.253 129.548 115.205 129.473C115.099 129.308 114.786 129.1 114.379 128.925C114.213 128.854 114.078 128.761 114.078 128.719C114.078 128.677 113.93 128.61 113.75 128.57C113.57 128.531 113.422 128.458 113.422 128.409C113.422 128.361 113.287 128.287 113.122 128.245C112.957 128.204 112.797 128.134 112.767 128.09C112.697 127.99 111.332 127.531 111.103 127.531C111.01 127.531 110.872 127.457 110.797 127.367C110.713 127.266 110.467 127.202 110.155 127.199C109.876 127.197 109.525 127.125 109.375 127.039C108.966 126.805 103.877 126.806 103.429 127.04C103.257 127.13 102.916 127.203 102.672 127.203C102.428 127.203 102.149 127.274 102.053 127.361C101.957 127.449 101.609 127.535 101.279 127.553L100.68 127.586L100.647 126.902C100.629 126.526 100.57 126.219 100.515 126.219C100.461 126.219 100.387 126.034 100.35 125.809C100.314 125.583 100.214 125.237 100.127 125.039C100.04 124.842 99.9688 124.582 99.9688 124.462C99.9688 124.341 99.895 124.215 99.8047 124.18C99.7135 124.145 99.6407 123.983 99.6407 123.814C99.6407 123.648 99.5668 123.45 99.4766 123.375C99.3864 123.3 99.3125 123.152 99.3125 123.045C99.3125 122.939 99.2387 122.823 99.1485 122.789C99.0582 122.754 98.9844 122.624 98.9844 122.5C98.9844 122.376 98.9106 122.246 98.8203 122.211C98.7301 122.177 98.6563 122.088 98.6563 122.013C98.6563 121.939 98.5578 121.789 98.4375 121.68C98.3172 121.571 98.2188 121.433 98.2188 121.375C98.2188 121.315 98.0957 121.153 97.9453 121.014C97.795 120.874 97.6719 120.728 97.6719 120.689C97.6719 120.582 96.1321 119.109 96.0197 119.109C95.9659 119.109 95.9219 119.036 95.9219 118.945C95.9219 118.855 95.8533 118.781 95.7695 118.781C95.6858 118.781 95.5889 118.707 95.5542 118.617C95.5196 118.527 95.3898 118.453 95.2657 118.453C95.1415 118.453 95.0117 118.379 94.9771 118.289C94.9425 118.199 94.844 118.125 94.7584 118.125C94.6726 118.125 94.5742 118.051 94.5396 117.961C94.505 117.871 94.3819 117.797 94.2662 117.797C94.1504 117.797 94.0273 117.723 93.9928 117.633C93.9581 117.543 93.8401 117.469 93.7305 117.469C93.621 117.469 93.4575 117.395 93.3672 117.305C93.277 117.214 93.0751 117.141 92.9185 117.141C92.7618 117.141 92.6054 117.067 92.5709 116.977C92.5362 116.886 92.3764 116.812 92.2158 116.812C92.0552 116.812 91.814 116.736 91.6799 116.642C91.5458 116.548 91.2026 116.427 90.9172 116.374C90.632 116.32 90.177 116.227 89.9063 116.167C89.6356 116.106 88.5528 116.056 87.5 116.056C86.4473 116.056 85.3645 116.106 85.0938 116.167C84.8231 116.227 84.3681 116.32 84.0828 116.374C83.7975 116.427 83.4542 116.548 83.3202 116.642C83.1861 116.736 82.9449 116.812 82.7842 116.812C82.6236 116.812 82.4639 116.886 82.4292 116.977C82.3924 117.072 82.2285 117.141 82.0347 117.141C81.8523 117.141 81.7032 117.185 81.7032 117.239C81.7032 117.294 81.5555 117.389 81.375 117.452C81.1946 117.515 81.0469 117.618 81.0469 117.682C81.0469 117.745 80.9291 117.797 80.7852 117.797C80.6412 117.797 80.4951 117.871 80.4604 117.961C80.4259 118.051 80.3274 118.125 80.2417 118.125C80.156 118.125 80.0576 118.199 80.0229 118.289C79.9884 118.379 79.8585 118.453 79.7344 118.453C79.6103 118.453 79.4804 118.527 79.4459 118.617C79.4112 118.707 79.3143 118.781 79.2305 118.781C79.1467 118.781 79.0782 118.855 79.0782 118.945C79.0782 119.036 79.0342 119.109 78.9804 119.109C78.8679 119.109 77.3282 120.582 77.3282 120.689C77.3282 120.728 77.2175 120.869 77.0821 121.001C76.7618 121.315 76.3438 121.913 76.3438 122.058C76.3438 122.121 76.27 122.172 76.1797 122.172C76.0771 122.172 76.0157 122.276 76.0157 122.449C76.0157 122.601 75.9418 122.754 75.8516 122.789C75.7614 122.823 75.6875 122.939 75.6875 123.045C75.6875 123.152 75.6137 123.3 75.5235 123.375C75.4332 123.45 75.3594 123.622 75.3594 123.758C75.3594 123.893 75.2856 124.066 75.1953 124.141C75.1051 124.216 75.0313 124.368 75.0313 124.478C75.0313 124.589 74.9602 124.842 74.8733 125.039C74.7864 125.237 74.6858 125.583 74.6496 125.809C74.6135 126.034 74.5392 126.219 74.4846 126.219C74.4302 126.219 74.3708 126.526 74.3529 126.902L74.3203 127.586L73.7211 127.553C73.3915 127.535 73.0431 127.449 72.9468 127.361C72.8424 127.267 72.5477 127.203 72.2154 127.203C71.8674 127.203 71.6419 127.152 71.6134 127.066C71.579 126.963 70.8866 126.922 68.7653 126.897C66.4044 126.87 65.9109 126.891 65.6352 127.034C65.4551 127.127 65.0868 127.203 64.8166 127.203C64.5465 127.203 64.298 127.248 64.2645 127.302C64.231 127.356 63.7605 127.538 63.219 127.707C62.6775 127.876 62.2344 128.049 62.2344 128.092C62.2344 128.135 62.0868 128.203 61.9063 128.242C61.7258 128.282 61.5782 128.356 61.5782 128.406C61.5782 128.457 61.4305 128.531 61.25 128.57C61.0696 128.61 60.9219 128.677 60.9219 128.719C60.9219 128.761 60.7866 128.854 60.6211 128.925C60.2137 129.1 59.9008 129.308 59.7953 129.473C59.7472 129.548 59.6172 129.609 59.5063 129.609C59.3954 129.609 59.2764 129.683 59.2417 129.773C59.2071 129.864 59.1034 129.938 59.0112 129.938C58.9191 129.938 58.8438 130.011 58.8438 130.102C58.8438 130.192 58.7876 130.266 58.7189 130.266C58.6502 130.266 58.4529 130.413 58.2805 130.594C58.108 130.774 57.9248 130.922 57.8733 130.922C57.791 130.922 57.3203 131.42 56.1641 132.729C55.6898 133.267 55.6302 133.35 55.482 133.684C55.4086 133.849 55.2982 133.984 55.2367 133.984C55.1753 133.984 55.125 134.06 55.125 134.152C55.125 134.244 55.0512 134.348 54.961 134.382C54.8707 134.417 54.7969 134.563 54.7969 134.707C54.7969 134.867 54.7329 134.969 54.6328 134.969C54.5426 134.969 54.4688 135.043 54.4688 135.133C54.4688 135.355 53.5127 135.356 53.0867 135.133C52.8302 135 52.2087 134.97 49.6563 134.97C47.1039 134.97 46.4823 135 46.2258 135.133C46.0535 135.223 45.6597 135.298 45.3508 135.3C45.0314 135.302 44.6975 135.373 44.5768 135.464C44.46 135.553 44.1577 135.625 43.9049 135.625C43.6159 135.625 43.4239 135.681 43.3877 135.775C43.3558 135.858 43.1045 135.959 42.8291 136.001C42.5536 136.042 42.3282 136.122 42.3282 136.179C42.3282 136.235 42.216 136.281 42.0791 136.281C41.9421 136.281 41.7328 136.349 41.6143 136.431C41.4956 136.514 41.2386 136.616 41.043 136.659C40.8474 136.701 40.6875 136.777 40.6875 136.828C40.6875 136.879 40.5399 136.953 40.3594 136.992C40.1789 137.032 40.0313 137.11 40.0313 137.165C40.0313 137.22 39.9324 137.266 39.8114 137.266C39.6906 137.266 39.5074 137.364 39.4043 137.484C39.3013 137.605 39.1602 137.703 39.0907 137.703C39.0212 137.703 38.9031 137.777 38.8282 137.867C38.7532 137.957 38.6048 138.031 38.4984 138.031C38.3919 138.031 38.2764 138.105 38.2417 138.195C38.2071 138.286 38.0773 138.359 37.9532 138.359C37.829 138.359 37.6992 138.433 37.6646 138.523C37.6299 138.614 37.5607 138.688 37.5107 138.688C37.4607 138.688 37.2581 138.835 37.0605 139.016C36.8629 139.196 36.6368 139.344 36.5582 139.344C36.4794 139.344 36.3867 139.418 36.3521 139.508C36.3174 139.598 36.2205 139.672 36.1368 139.672C36.053 139.672 35.9844 139.746 35.9844 139.836C35.9844 139.926 35.9273 140 35.8576 140C35.7051 140 33.5782 142.145 33.5782 142.298C33.5782 142.358 33.5043 142.406 33.4141 142.406C33.3239 142.406 33.25 142.48 33.25 142.57C33.25 142.661 33.1762 142.734 33.086 142.734C32.9957 142.734 32.9219 142.81 32.9219 142.902C32.9219 142.994 32.8526 143.096 32.7677 143.129C32.6829 143.161 32.5835 143.307 32.5469 143.453C32.5102 143.599 32.4319 143.719 32.3729 143.719C32.3139 143.719 32.2657 143.793 32.2657 143.883C32.2657 143.973 32.1918 144.047 32.1016 144.047C32.0114 144.047 31.9375 144.138 31.9375 144.249C31.9375 144.36 31.8391 144.54 31.7188 144.648C31.5985 144.757 31.5 144.913 31.5 144.994C31.5 145.074 31.4518 145.141 31.3927 145.141C31.3338 145.141 31.2546 145.264 31.2169 145.414C31.1791 145.564 31.1076 145.688 31.058 145.688C31.0085 145.688 30.9341 145.798 30.8929 145.934C30.8517 146.069 30.7573 146.254 30.6831 146.344C30.6089 146.434 30.4334 146.791 30.2931 147.137C30.1527 147.483 29.9978 147.766 29.9487 147.766C29.8995 147.766 29.8594 147.908 29.8594 148.082C29.8594 148.262 29.7889 148.426 29.6953 148.461C29.5939 148.5 29.5313 148.667 29.5313 148.897C29.5313 149.102 29.4574 149.331 29.3672 149.406C29.2747 149.483 29.2032 149.721 29.2032 149.953C29.2032 150.185 29.1316 150.423 29.0391 150.5C28.9489 150.575 28.875 150.801 28.875 151.003C28.875 151.205 28.8055 151.556 28.7204 151.783C28.6353 152.01 28.5387 152.527 28.5058 152.933C28.4729 153.339 28.3948 153.766 28.3323 153.883C28.1824 154.163 28.1785 158.556 28.3282 158.648C28.5342 158.776 28.4446 159.135 28.1914 159.196C28.056 159.229 26.1242 159.243 23.8985 159.226L19.8516 159.195L19.8241 112.784C19.7997 71.6613 19.8154 66.3465 19.9609 66.1388C20.0511 66.0099 20.125 65.7466 20.125 65.5538C20.125 65.361 20.1905 65.1376 20.2706 65.0576C20.3508 64.9774 20.4501 64.777 20.4914 64.6122C20.5329 64.4474 20.615 64.3125 20.674 64.3125C20.733 64.3125 20.7813 64.2371 20.7813 64.145C20.7813 64.0528 20.8551 63.9492 20.9453 63.9146C21.0356 63.8799 21.1094 63.8076 21.1094 63.7539C21.1094 63.6211 21.5205 63.2188 21.6563 63.2188C21.7164 63.2188 21.7657 63.1449 21.7657 63.0547C21.7657 62.9645 21.8371 62.8906 21.9242 62.8906C22.0115 62.8906 22.1222 62.8292 22.1703 62.7539C22.2648 62.6063 22.5956 62.3794 22.8594 62.2814C22.9496 62.2478 23.1711 62.1531 23.3516 62.0708C23.5321 61.9885 24.0784 61.8439 24.5657 61.7496C25.346 61.5986 27.4201 61.5781 41.9893 61.5781H58.527L58.9757 61.332C59.5777 61.0018 59.7532 60.8225 60.0438 60.2406C60.2539 59.8197 60.284 59.6142 60.2489 58.8393C60.222 58.2477 60.1605 57.9155 60.0726 57.8862C59.9983 57.8615 59.9367 57.7837 59.9357 57.7136C59.9337 57.579 59.4673 57.0938 59.3401 57.0938C59.2991 57.0938 59.1918 57.0199 59.1016 56.9297C59.0113 56.8395 58.8426 56.7656 58.7266 56.7656C58.6106 56.7656 58.5157 56.7164 58.5157 56.6562C58.5157 56.5206 24.1962 56.5095 23.9532 56.6451ZM67.9418 80.1172C67.8732 80.2676 67.7669 80.3906 67.7055 80.3906C67.6441 80.3906 67.5938 80.4645 67.5938 80.5547C67.5938 80.6449 67.52 80.7188 67.4297 80.7188C67.3395 80.7188 67.2657 80.7873 67.2657 80.8711C67.2657 80.9549 67.1918 81.0518 67.1016 81.0865C67.0114 81.121 66.9375 81.1985 66.9375 81.2584C66.9375 81.3183 66.8022 81.5102 66.6367 81.6847C66.1837 82.1626 65.9532 82.4604 65.9532 82.5676C65.9532 82.6207 65.8793 82.6924 65.7891 82.7271C65.6989 82.7617 65.625 82.8653 65.625 82.9576C65.625 83.0496 65.5512 83.125 65.461 83.125C65.3707 83.125 65.2969 83.1988 65.2969 83.2891C65.2969 83.3793 65.2231 83.4531 65.1328 83.4531C65.0426 83.4531 64.9688 83.5058 64.9688 83.5703C64.9688 83.6348 64.9073 83.7496 64.8321 83.8257C64.7569 83.9017 64.5969 84.1015 64.4766 84.2697C64.3563 84.4378 64.0856 84.7562 63.875 84.9773C63.6645 85.1982 63.3692 85.5425 63.2188 85.7425C63.0684 85.9423 62.8592 86.198 62.7539 86.3108C62.6487 86.4234 62.5625 86.5419 62.5625 86.574C62.5625 86.6061 62.4149 86.7767 62.2344 86.9531C62.0539 87.1295 61.9063 87.3248 61.9063 87.3869C61.9063 87.4491 61.8325 87.5 61.7422 87.5C61.652 87.5 61.5782 87.5738 61.5782 87.6641C61.5782 87.7543 61.5322 87.8281 61.4761 87.8281C61.42 87.8281 61.3466 87.9143 61.313 88.0195C61.2793 88.1247 61.03 88.4488 60.7587 88.7397C60.4876 89.0305 60.2657 89.3134 60.2657 89.3686C60.2657 89.4237 60.1918 89.4688 60.1016 89.4688C60.0114 89.4688 59.9375 89.5441 59.9375 89.6362C59.9375 89.7284 59.8637 89.8321 59.7735 89.8667C59.6832 89.9013 59.6094 89.9978 59.6094 90.0811C59.6094 90.1644 59.511 90.294 59.3907 90.3691C59.2703 90.4443 59.1719 90.5625 59.1719 90.6318C59.1719 90.7011 59.0981 90.7862 59.0078 90.8208C58.9176 90.8554 58.8438 90.9538 58.8438 91.0396C58.8438 91.1252 58.77 91.2237 58.6797 91.2583C58.5895 91.2929 58.5157 91.416 58.5157 91.5318C58.5157 91.6475 58.4418 91.7705 58.3516 91.8052C58.2614 91.8398 58.1875 91.9867 58.1875 92.1316C58.1875 92.2765 58.1137 92.4563 58.0235 92.5312C57.9332 92.6062 57.8577 92.8213 57.8556 93.0094C57.8535 93.1977 57.7813 93.6715 57.6953 94.0625C57.5184 94.8673 57.4785 97.4195 57.639 97.6719C57.725 97.8071 57.7821 97.8119 57.964 97.6992C58.0853 97.6241 58.2538 97.5625 58.3384 97.5625C58.423 97.5625 58.5206 97.4887 58.5552 97.3984C58.5898 97.3082 58.7427 97.2344 58.8951 97.2344C59.0682 97.2344 59.1719 97.1729 59.1719 97.0703C59.1719 96.9801 59.2668 96.9062 59.3829 96.9062C59.4988 96.9062 59.6676 96.8324 59.7578 96.7422C59.8481 96.652 59.9932 96.5781 60.0804 96.5781C60.1675 96.5781 60.3001 96.5043 60.375 96.4141C60.45 96.3238 60.573 96.25 60.6485 96.25C60.7239 96.25 60.847 96.1762 60.9219 96.0859C60.9968 95.9957 61.152 95.9219 61.2669 95.9219C61.3817 95.9219 61.504 95.848 61.5386 95.7578C61.5732 95.6676 61.6912 95.5938 61.8008 95.5938C61.9103 95.5938 62.0736 95.5201 62.1636 95.4301C62.2537 95.3401 62.4418 95.2172 62.5817 95.1569C62.8637 95.0354 63.2438 94.8079 63.3282 94.7099C63.3582 94.675 63.6289 94.5275 63.9297 94.3819C64.2305 94.2364 64.516 94.0558 64.5641 93.9806C64.6122 93.9053 64.7737 93.8438 64.923 93.8438C65.0722 93.8438 65.2227 93.7699 65.2573 93.6797C65.292 93.5895 65.3829 93.5156 65.4593 93.5156C65.5357 93.5156 65.6595 93.4418 65.7344 93.3516C65.8093 93.2613 65.963 93.1875 66.0759 93.1875C66.1889 93.1875 66.2813 93.1431 66.2813 93.0888C66.2813 93.0346 66.4289 92.9387 66.6094 92.8758C66.7899 92.8129 66.9375 92.7096 66.9375 92.6463C66.9375 92.583 67.0325 92.5312 67.1485 92.5312C67.2645 92.5312 67.4332 92.4574 67.5235 92.3672C67.6137 92.277 67.7588 92.2031 67.846 92.2031C67.9332 92.2031 68.0657 92.1293 68.1407 92.0391C68.2156 91.9488 68.3462 91.875 68.4309 91.875C68.5157 91.875 68.6134 91.8012 68.6479 91.7109C68.6826 91.6207 68.8235 91.5469 68.961 91.5469C69.0984 91.5469 69.2376 91.4776 69.27 91.3931C69.3024 91.3085 69.4799 91.2062 69.6645 91.1657C69.8491 91.1251 70 91.05 70 90.9987C70 90.9474 70.1085 90.8709 70.241 90.8288C70.3735 90.7868 70.5493 90.6851 70.6317 90.6027C70.7139 90.5205 70.8516 90.4531 70.9375 90.4531C71.0235 90.4531 71.0938 90.4072 71.0938 90.3511C71.0938 90.295 71.1975 90.2162 71.3242 90.176C71.6222 90.0814 71.9688 89.7834 71.9688 89.6219C71.9688 89.5524 71.895 89.4343 71.8047 89.3594C71.7145 89.2845 71.6407 89.0868 71.6407 88.9202C71.6407 88.7517 71.5678 88.5892 71.4766 88.5542C71.3825 88.5181 71.3125 88.3548 71.3125 88.1713C71.3125 87.9879 71.2425 87.8246 71.1485 87.7885C71.0582 87.754 70.9844 87.6105 70.9844 87.4697C70.9844 87.3288 70.9121 87.1182 70.8238 87.0014C70.7355 86.8847 70.6616 86.6562 70.6598 86.4938C70.6578 86.3313 70.5899 86.1591 70.5088 86.1109C70.4277 86.0628 70.3305 85.827 70.2926 85.5868C70.2549 85.3466 70.1736 85.1333 70.112 85.1129C70.0505 85.0923 70 84.938 70 84.7699C70 84.6018 69.9262 84.403 69.836 84.3281C69.7457 84.2532 69.6719 84.0287 69.6719 83.829C69.6719 83.6293 69.6282 83.439 69.5746 83.4059C69.4376 83.3212 68.9063 81.6826 68.9063 81.3448C68.9063 81.1909 68.8539 81.0476 68.7898 81.0263C68.7258 81.005 68.6447 80.7671 68.6094 80.4976C68.5192 79.8073 68.1729 79.61 67.9418 80.1172ZM106.574 79.9274C106.507 79.9716 106.418 80.2417 106.376 80.5273C106.334 80.813 106.253 81.0469 106.196 81.0469C106.14 81.0469 106.093 81.2068 106.093 81.4023C106.093 81.5979 106.019 81.8988 105.929 82.0711C105.839 82.2434 105.766 82.4656 105.766 82.5649C105.766 82.6642 105.667 82.9291 105.547 83.1535C105.427 83.3781 105.328 83.6755 105.328 83.8146C105.328 83.9537 105.256 84.1631 105.168 84.2799C105.079 84.3966 105.005 84.6234 105.004 84.7839C105.002 84.9442 104.95 85.0923 104.888 85.1129C104.826 85.1333 104.745 85.3466 104.707 85.5868C104.67 85.827 104.572 86.0628 104.491 86.1109C104.41 86.1591 104.342 86.3313 104.34 86.4938C104.338 86.6562 104.265 86.8847 104.176 87.0014C104.088 87.1182 104.016 87.3288 104.016 87.4697C104.016 87.6105 103.942 87.754 103.852 87.7885C103.758 87.8246 103.688 87.9879 103.688 88.1713C103.688 88.3548 103.618 88.5181 103.523 88.5542C103.432 88.5892 103.359 88.7517 103.359 88.9202C103.359 89.0868 103.286 89.2845 103.195 89.3594C102.861 89.6369 103.032 89.8622 103.94 90.3415C104.222 90.4906 104.453 90.6452 104.453 90.6851C104.453 90.7249 104.576 90.7885 104.727 90.8262C104.877 90.8639 105 90.9431 105 91.0021C105 91.0611 105.098 91.1094 105.219 91.1094C105.339 91.1094 105.536 91.2078 105.656 91.3281C105.777 91.4484 105.968 91.5469 106.082 91.5469C106.196 91.5469 106.317 91.6207 106.352 91.7109C106.387 91.8012 106.517 91.875 106.641 91.875C106.765 91.875 106.895 91.9488 106.929 92.0391C106.964 92.1293 107.064 92.2031 107.152 92.2031C107.24 92.2031 107.386 92.277 107.477 92.3672C107.567 92.4574 107.73 92.5312 107.84 92.5312C107.949 92.5312 108.067 92.6051 108.102 92.6953C108.137 92.7855 108.267 92.8594 108.391 92.8594C108.515 92.8594 108.645 92.9332 108.679 93.0234C108.714 93.1137 108.829 93.1875 108.936 93.1875C109.042 93.1875 109.191 93.2613 109.266 93.3516C109.341 93.4418 109.464 93.5156 109.539 93.5156C109.615 93.5156 109.738 93.5895 109.813 93.6797C109.887 93.7699 110.039 93.8438 110.149 93.8438C110.259 93.8438 110.388 93.9053 110.436 93.9806C110.484 94.0557 110.893 94.3048 111.344 94.5339C111.795 94.7629 112.312 95.0454 112.492 95.1615C112.673 95.2777 112.943 95.4337 113.094 95.5082C113.244 95.5828 113.407 95.7064 113.455 95.7829C113.503 95.8593 113.657 95.9219 113.798 95.9219C113.939 95.9219 114.083 95.9957 114.118 96.0859C114.152 96.1762 114.275 96.25 114.389 96.25C114.504 96.25 114.659 96.3238 114.734 96.4141C114.809 96.5043 114.917 96.5781 114.974 96.5781C115.031 96.5781 115.152 96.652 115.242 96.7422C115.332 96.8324 115.501 96.9062 115.617 96.9062C115.733 96.9062 115.828 96.9801 115.828 97.0703C115.828 97.1715 115.931 97.2344 116.096 97.2344C116.244 97.2344 116.403 97.296 116.452 97.3711C116.5 97.4463 116.709 97.5687 116.916 97.6432C117.216 97.7508 117.311 97.7508 117.379 97.6432C117.528 97.4087 117.472 94.8185 117.303 94.1172C117.215 93.7562 117.143 93.2824 117.142 93.0641C117.141 92.8459 117.067 92.6062 116.977 92.5312C116.886 92.4563 116.813 92.2765 116.813 92.1316C116.813 91.9867 116.739 91.8398 116.648 91.8052C116.558 91.7705 116.484 91.6475 116.484 91.5318C116.484 91.416 116.411 91.2929 116.32 91.2583C116.23 91.2237 116.156 91.1252 116.156 91.0396C116.156 90.9538 116.082 90.8554 115.992 90.8208C115.902 90.7862 115.828 90.7011 115.828 90.6318C115.828 90.5625 115.73 90.4443 115.609 90.3691C115.489 90.294 115.391 90.1644 115.391 90.0811C115.391 89.9978 115.317 89.9013 115.227 89.8667C115.136 89.8321 115.063 89.7284 115.063 89.6362C115.063 89.5441 114.989 89.4688 114.898 89.4688C114.808 89.4688 114.734 89.4237 114.734 89.3686C114.734 89.3134 114.513 89.0306 114.242 88.7399C113.972 88.4493 113.75 88.1483 113.75 88.071C113.75 87.9938 113.676 87.9023 113.586 87.8677C113.496 87.833 113.422 87.7361 113.422 87.6524C113.422 87.5686 113.348 87.5 113.258 87.5C113.168 87.5 113.094 87.4491 113.094 87.3869C113.094 87.3248 112.946 87.1295 112.766 86.9531C112.585 86.7767 112.438 86.6061 112.438 86.574C112.438 86.5419 112.351 86.4253 112.246 86.3149C112.141 86.2046 111.981 86.0006 111.891 85.8618C111.8 85.723 111.505 85.3774 111.234 85.0938C110.964 84.8101 110.668 84.4645 110.578 84.3257C110.488 84.1869 110.328 83.9829 110.223 83.8726C110.117 83.7622 110.031 83.6227 110.031 83.5625C110.031 83.5023 109.957 83.4531 109.867 83.4531C109.777 83.4531 109.703 83.3793 109.703 83.2891C109.703 83.1988 109.629 83.125 109.539 83.125C109.449 83.125 109.375 83.0496 109.375 82.9576C109.375 82.8653 109.301 82.7617 109.211 82.7271C109.121 82.6924 109.047 82.6207 109.047 82.5676C109.047 82.4619 108.818 82.1646 108.38 81.702C108.224 81.537 108.066 81.3221 108.028 81.2244C107.991 81.1268 107.909 81.0469 107.847 81.0469C107.785 81.0469 107.734 80.973 107.734 80.8828C107.734 80.7926 107.661 80.7188 107.57 80.7188C107.48 80.7188 107.406 80.6449 107.406 80.5547C107.406 80.4645 107.356 80.3906 107.295 80.3906C107.233 80.3906 107.127 80.2676 107.058 80.1172C106.931 79.8386 106.791 79.7837 106.574 79.9274ZM81.4067 99.75C81.3752 99.8703 81.3129 99.9688 81.2682 99.9688C81.2234 99.9688 81.1586 100.243 81.124 100.578C81.0895 100.913 81.0155 101.245 80.9597 101.316C80.904 101.387 80.827 101.686 80.7885 101.981C80.75 102.276 80.6759 102.571 80.6238 102.637C80.5718 102.704 80.4948 103.028 80.4528 103.357C80.4108 103.687 80.3286 103.986 80.2702 104.022C80.2119 104.059 80.1349 104.268 80.0992 104.488C79.9732 105.265 79.5044 105.219 87.5 105.219C95.4957 105.219 95.0269 105.265 94.9009 104.488C94.8651 104.268 94.7881 104.059 94.7298 104.022C94.6714 103.986 94.5893 103.687 94.5473 103.357C94.5053 103.028 94.4283 102.704 94.3762 102.637C94.3242 102.571 94.2501 102.276 94.2116 101.981C94.1731 101.686 94.0961 101.387 94.0403 101.316C93.9845 101.245 93.9106 100.913 93.876 100.578C93.8415 100.243 93.7766 99.9688 93.7319 99.9688C93.6872 99.9688 93.6248 99.8703 93.5933 99.75C93.537 99.5345 93.4441 99.5312 87.5 99.5312C81.5559 99.5312 81.4631 99.5345 81.4067 99.75ZM85.445 121.356C85.3671 121.444 85.115 121.516 84.8825 121.516C84.6087 121.516 84.4388 121.573 84.3979 121.68C84.3634 121.77 84.2105 121.844 84.0581 121.844C83.9059 121.844 83.7813 121.888 83.7813 121.942C83.7813 121.997 83.6336 122.093 83.4532 122.155C83.2727 122.218 83.125 122.316 83.125 122.372C83.125 122.428 83.0388 122.506 82.9336 122.544C82.8284 122.582 82.636 122.676 82.5062 122.753C82.175 122.949 80.8401 124.368 80.7657 124.603C80.7318 124.709 80.6582 124.797 80.6021 124.797C80.546 124.797 80.5 124.888 80.5 124.999C80.5 125.11 80.4016 125.29 80.2813 125.398C80.161 125.507 80.0625 125.681 80.0625 125.785C80.0625 125.888 79.9887 126.034 79.8985 126.109C79.8082 126.184 79.7344 126.396 79.7344 126.579C79.7344 126.762 79.6534 127.002 79.5543 127.111C79.2814 127.413 79.2762 130.871 79.548 131.286C79.7996 131.67 79.8161 133.343 79.5703 133.547C79.4801 133.622 79.4063 133.731 79.4063 133.79C79.4063 133.937 78.6912 134.641 78.5422 134.641C78.476 134.641 78.4219 134.714 78.4219 134.805C78.4219 134.94 78.221 134.969 77.2701 134.969C76.3471 134.969 76.1057 134.936 76.0553 134.805C76.0206 134.714 75.9237 134.641 75.8399 134.641C75.7561 134.641 75.6875 134.596 75.6875 134.542C75.6875 134.488 75.5399 134.392 75.3594 134.329C75.1789 134.266 75.0313 134.163 75.0313 134.099C75.0313 134.036 74.9575 133.984 74.8672 133.984C74.777 133.984 74.7032 133.911 74.7032 133.82C74.7032 133.73 74.6209 133.656 74.5204 133.656C74.4199 133.656 74.2599 133.588 74.1649 133.505C73.8793 133.254 72.7622 132.695 72.3805 132.612C72.1841 132.57 71.9989 132.503 71.9688 132.463C71.885 132.352 70.8108 132.124 69.836 132.009C68.7702 131.884 66.8607 131.98 66.1172 132.197C64.7243 132.604 64.3521 132.729 64.1514 132.86C64.0329 132.937 63.8482 133 63.7413 133C63.6344 133 63.5469 133.049 63.5469 133.109C63.5469 133.17 63.4731 133.219 63.3828 133.219C63.2926 133.219 63.1283 133.305 63.0177 133.41C62.7675 133.648 62.472 133.844 62.1524 133.982C62.0171 134.04 61.9063 134.139 61.9063 134.2C61.9063 134.262 61.8325 134.312 61.7422 134.312C61.652 134.312 61.5782 134.386 61.5782 134.477C61.5782 134.567 61.5043 134.641 61.4141 134.641C61.3239 134.641 61.25 134.714 61.25 134.805C61.25 134.895 61.1944 134.969 61.1262 134.969C60.9802 134.969 60.3242 135.643 60.2291 135.891C60.1928 135.985 60.1124 136.062 60.0503 136.062C59.9883 136.062 59.9375 136.114 59.9375 136.176C59.9375 136.321 59.4897 136.964 59.3086 137.08C59.2335 137.128 59.1719 137.288 59.1719 137.435C59.1719 137.6 59.109 137.703 59.0078 137.703C58.9052 137.703 58.8438 137.807 58.8438 137.98C58.8438 138.132 58.77 138.285 58.6797 138.32C58.5895 138.354 58.5157 138.494 58.5157 138.629C58.5157 138.972 57.8946 140.113 57.5465 140.41C57.0249 140.855 56.5461 141.025 55.8176 141.025C55.4267 141.025 55.0654 140.969 54.9925 140.896C54.9209 140.824 54.7371 140.765 54.5836 140.765C54.4302 140.765 54.1792 140.699 54.0258 140.619C53.8724 140.539 53.4972 140.444 53.1922 140.407C52.8871 140.371 52.3907 140.261 52.089 140.162C51.6386 140.015 51.1597 139.989 49.4118 140.019C48.0154 140.042 47.2303 140.098 47.1298 140.181C47.0456 140.25 46.6828 140.343 46.3237 140.388C45.9647 140.432 45.511 140.535 45.3155 140.617C45.1201 140.699 44.8356 140.766 44.6832 140.766C44.5309 140.766 44.4063 140.809 44.4063 140.863C44.4063 140.916 44.2361 140.992 44.0281 141.031C43.82 141.07 43.5125 141.174 43.3445 141.261C43.1766 141.349 42.9829 141.421 42.9141 141.421C42.8453 141.422 42.7607 141.496 42.7261 141.586C42.6915 141.676 42.5371 141.75 42.3828 141.75C42.2286 141.75 42.0742 141.824 42.0396 141.914C42.0049 142.004 41.8933 142.078 41.7914 142.078C41.6896 142.078 41.5514 142.133 41.4842 142.2C41.3478 142.337 40.9771 142.559 40.6055 142.727C40.4701 142.788 40.3594 142.889 40.3594 142.95C40.3594 143.012 40.284 143.062 40.1919 143.062C40.0997 143.062 39.9961 143.136 39.9615 143.227C39.9268 143.317 39.8409 143.391 39.7705 143.391C39.7001 143.391 39.4809 143.538 39.2833 143.719C39.0857 143.899 38.8836 144.047 38.8342 144.047C38.7847 144.047 38.7186 144.145 38.6871 144.266C38.6557 144.386 38.5514 144.484 38.4556 144.484C38.3597 144.484 38.2813 144.558 38.2813 144.648C38.2813 144.739 38.2074 144.812 38.1172 144.812C38.027 144.812 37.9532 144.886 37.9532 144.977C37.9532 145.067 37.8793 145.141 37.7891 145.141C37.6989 145.141 37.625 145.192 37.625 145.255C37.625 145.318 37.5143 145.478 37.3789 145.611C37.0587 145.924 36.6407 146.522 36.6407 146.667C36.6407 146.73 36.5668 146.781 36.4766 146.781C36.3864 146.781 36.3125 146.857 36.3125 146.949C36.3125 147.041 36.2387 147.145 36.1485 147.179C36.0582 147.214 35.9844 147.36 35.9844 147.504C35.9844 147.648 35.9229 147.766 35.8477 147.767C35.7725 147.767 35.5909 148.038 35.444 148.368C35.2971 148.699 35.1372 148.969 35.0885 148.969C35.0398 148.969 35 149.056 35 149.163C35 149.27 34.9324 149.455 34.85 149.573C34.7674 149.692 34.665 149.949 34.6225 150.145C34.5799 150.34 34.5061 150.5 34.4584 150.5C34.4107 150.5 34.3413 150.691 34.3041 150.923C34.2668 151.156 34.1621 151.408 34.0713 151.484C33.9727 151.565 33.9063 151.803 33.9063 152.075C33.9063 152.325 33.8367 152.629 33.7516 152.75C33.6666 152.872 33.5719 153.338 33.5412 153.786C33.5104 154.235 33.4345 154.999 33.3724 155.486C33.2959 156.084 33.2949 156.631 33.3692 157.181C33.4297 157.627 33.5137 158.263 33.5559 158.594L33.6328 159.195L36.7466 159.224C39.3649 159.249 39.875 159.279 39.9513 159.416C40.0013 159.505 40.1039 159.578 40.1794 159.578C40.3459 159.578 41.0157 160.252 41.0157 160.419C41.0157 160.485 41.0895 160.567 41.1797 160.602C41.3094 160.652 41.3438 160.88 41.3438 161.694C41.3438 162.475 41.3043 162.756 41.1797 162.859C41.0895 162.934 41.0157 163.063 41.0157 163.146C41.0157 163.229 40.9418 163.297 40.8516 163.297C40.7614 163.297 40.6875 163.371 40.6875 163.461C40.6875 163.551 40.6137 163.625 40.5235 163.625C40.4332 163.625 40.3594 163.699 40.3594 163.789C40.3594 163.879 40.2704 163.953 40.1615 163.953C40.0527 163.953 39.8682 164.025 39.7514 164.114C39.567 164.253 37.3621 164.275 22.9414 164.278L6.34378 164.281V166.073C6.34378 167.531 6.37418 167.889 6.50784 168C6.59807 168.075 6.6719 168.253 6.6719 168.396C6.6719 168.554 6.7361 168.656 6.83596 168.656C6.9262 168.656 7.00003 168.705 7.00003 168.766C7.00003 168.907 7.40504 169.312 7.5469 169.312C7.60706 169.312 7.65628 169.382 7.65628 169.468C7.65628 169.553 7.80339 169.655 7.9832 169.695C8.1629 169.734 8.33812 169.812 8.37246 169.868C8.45668 170.004 166.543 170.004 166.628 169.868C166.662 169.812 166.837 169.734 167.017 169.695C167.197 169.655 167.344 169.553 167.344 169.468C167.344 169.382 167.393 169.312 167.453 169.312C167.595 169.312 168 168.907 168 168.766C168 168.705 168.074 168.656 168.164 168.656C168.264 168.656 168.328 168.554 168.328 168.396C168.328 168.253 168.402 168.075 168.492 168C168.626 167.889 168.656 167.531 168.656 166.073V164.281H108.849C56.4322 164.281 49.0156 164.261 48.8295 164.121C48.7128 164.032 48.5295 163.958 48.4224 163.957C48.3152 163.955 48.1992 163.879 48.1646 163.789C48.1299 163.699 48.033 163.625 47.9493 163.625C47.8655 163.625 47.7969 163.554 47.7969 163.466C47.7969 163.379 47.727 163.268 47.6415 163.22C47.2844 163.019 46.9485 161.132 47.2379 160.953C47.2914 160.92 47.3678 160.763 47.4077 160.604C47.4936 160.262 48.0445 159.71 48.5705 159.44C48.9263 159.258 51.2973 159.247 95.1563 159.222L141.367 159.195L141.401 158.597C141.42 158.268 141.485 157.938 141.547 157.864C141.698 157.682 141.694 155.119 141.542 154.731C141.476 154.562 141.42 154.094 141.418 153.692C141.416 153.223 141.357 152.885 141.254 152.749C141.166 152.632 141.094 152.373 141.094 152.174C141.094 151.975 140.995 151.628 140.875 151.404C140.755 151.179 140.656 150.884 140.656 150.748C140.656 150.611 140.609 150.5 140.552 150.5C140.494 150.5 140.415 150.328 140.376 150.117C140.336 149.907 140.26 149.734 140.207 149.734C140.153 149.734 140.109 149.68 140.109 149.615C140.109 149.366 139.283 147.773 139.152 147.769C139.077 147.767 139.016 147.648 139.016 147.504C139.016 147.36 138.942 147.214 138.852 147.179C138.761 147.145 138.688 147.041 138.688 146.949C138.688 146.857 138.614 146.781 138.523 146.781C138.433 146.781 138.359 146.73 138.359 146.667C138.359 146.522 137.941 145.924 137.621 145.611C137.486 145.478 137.375 145.318 137.375 145.255C137.375 145.192 137.301 145.141 137.211 145.141C137.121 145.141 137.047 145.067 137.047 144.977C137.047 144.886 136.973 144.812 136.883 144.812C136.793 144.812 136.719 144.739 136.719 144.648C136.719 144.558 136.67 144.484 136.61 144.484C136.55 144.484 136.25 144.238 135.943 143.938C135.635 143.637 135.321 143.391 135.243 143.391C135.165 143.391 135.073 143.317 135.039 143.227C135.004 143.136 134.9 143.062 134.808 143.062C134.716 143.062 134.641 143.011 134.641 142.947C134.641 142.884 134.493 142.781 134.313 142.718C134.132 142.655 133.984 142.559 133.984 142.505C133.984 142.451 133.909 142.406 133.817 142.406C133.725 142.406 133.621 142.332 133.587 142.242C133.552 142.152 133.411 142.078 133.273 142.078C133.136 142.078 132.995 142.004 132.96 141.914C132.926 141.824 132.771 141.75 132.617 141.75C132.463 141.75 132.309 141.676 132.274 141.586C132.239 141.496 132.155 141.422 132.086 141.421C132.017 141.421 131.823 141.349 131.656 141.261C131.488 141.174 131.18 141.07 130.972 141.031C130.764 140.992 130.594 140.916 130.594 140.863C130.594 140.809 130.469 140.766 130.317 140.766C130.164 140.766 129.88 140.699 129.685 140.617C129.489 140.535 129.044 140.433 128.696 140.39C128.348 140.346 127.895 140.241 127.691 140.155C127.162 139.934 123.501 139.944 122.883 140.168C122.642 140.256 122.177 140.36 121.85 140.4C121.522 140.44 121.128 140.538 120.975 140.618C120.821 140.699 120.57 140.765 120.416 140.765C120.263 140.765 120.079 140.824 120.008 140.896C119.935 140.969 119.573 141.025 119.182 141.025C118.454 141.025 117.975 140.855 117.454 140.41C117.1 140.109 116.484 138.97 116.484 138.617C116.484 138.461 116.42 138.359 116.32 138.359C116.211 138.359 116.156 138.25 116.156 138.031C116.156 137.812 116.102 137.703 115.992 137.703C115.891 137.703 115.828 137.6 115.828 137.435C115.828 137.288 115.767 137.128 115.691 137.08C115.51 136.964 115.063 136.321 115.063 136.176C115.063 136.114 115.012 136.062 114.95 136.062C114.888 136.062 114.806 135.983 114.769 135.885C114.682 135.658 113.995 134.969 113.856 134.969C113.798 134.969 113.75 134.895 113.75 134.805C113.75 134.714 113.676 134.641 113.586 134.641C113.496 134.641 113.422 134.567 113.422 134.477C113.422 134.386 113.348 134.312 113.258 134.312C113.168 134.312 113.094 134.262 113.094 134.2C113.094 134.139 112.983 134.04 112.848 133.982C112.528 133.844 112.233 133.648 111.982 133.41C111.872 133.305 111.707 133.219 111.617 133.219C111.527 133.219 111.453 133.175 111.453 133.122C111.453 133.068 111.281 132.992 111.07 132.953C110.86 132.913 110.688 132.839 110.688 132.788C110.688 132.738 110.509 132.663 110.291 132.622C110.073 132.581 109.815 132.505 109.717 132.453C109.019 132.083 106.755 131.852 105.31 132.005C104.234 132.118 103.123 132.341 103.031 132.463C103.001 132.503 102.816 132.57 102.62 132.612C102.238 132.695 101.121 133.254 100.835 133.505C100.74 133.588 100.58 133.656 100.48 133.656C100.379 133.656 100.297 133.73 100.297 133.82C100.297 133.911 100.246 133.984 100.183 133.984C100.054 133.984 99.3861 134.434 99.3308 134.559C99.3107 134.604 99.2298 134.641 99.1511 134.641C99.0722 134.641 98.9795 134.714 98.9448 134.805C98.8944 134.936 98.653 134.969 97.73 134.969C96.7791 134.969 96.5782 134.94 96.5782 134.805C96.5782 134.714 96.5122 134.641 96.4317 134.641C96.2651 134.641 95.6755 134.027 95.5647 133.738C95.5243 133.633 95.4405 133.547 95.3784 133.547C95.1813 133.547 95.2368 131.614 95.4431 131.3C95.5891 131.077 95.6204 130.7 95.6204 129.167C95.6204 127.603 95.5919 127.273 95.4431 127.108C95.3455 127.001 95.2657 126.762 95.2657 126.577C95.2657 126.38 95.1981 126.216 95.1016 126.179C95.0114 126.145 94.9375 125.998 94.9375 125.853C94.9375 125.708 94.8645 125.529 94.7751 125.455C94.6859 125.38 94.5074 125.109 94.3785 124.851C94.1248 124.343 92.7543 122.828 92.5482 122.828C92.4788 122.828 92.4219 122.78 92.4219 122.721C92.4219 122.662 92.2989 122.583 92.1485 122.545C91.9981 122.507 91.875 122.43 91.875 122.373C91.875 122.316 91.7274 122.218 91.5469 122.155C91.3664 122.093 91.2188 121.997 91.2188 121.942C91.2188 121.888 91.0942 121.844 90.9419 121.844C90.7896 121.844 90.6367 121.77 90.6021 121.68C90.5613 121.573 90.3918 121.516 90.1211 121.516C89.8913 121.516 89.6293 121.442 89.5391 121.352C89.3011 121.114 85.6552 121.117 85.445 121.356Z" fill="url(#paint0_linear_114_45)"/>
<defs>
<linearGradient id="paint0_linear_114_45" x1="87.4802" y1="13.3437" x2="87.4802" y2="174.937" gradientUnits="userSpaceOnUse">
<stop stop-color="#FF7E00"/>
<stop offset="1" stop-color="#FF7E00" stop-opacity="0.49"/>
</linearGradient>
</defs>
</svg>
