<svg width="32" height="30" viewBox="0 0 32 30" fill="none" xmlns="http://www.w3.org/2000/svg">
<path d="M3.22194 29.1018L3.21965 29.1018C2.78124 29.1024 2.35592 28.9804 1.99793 28.7559C1.64034 28.5316 1.3689 28.2173 1.21066 27.8582C1.0527 27.4999 1.01229 27.1085 1.09222 26.7314C1.17223 26.354 1.37096 26.0006 1.67114 25.7189L1.15791 25.172L1.67168 25.7184L10.7329 17.1981L13.7633 20.0462L4.7696 28.5029L4.76902 28.5035C4.57015 28.6909 4.33136 28.8417 4.06527 28.9453C3.79914 29.0488 3.5124 29.1023 3.22194 29.1018ZM24.7601 7.81089L24.6576 7.86078L24.5745 7.9389L20.0102 12.2307L19.0443 11.3225L23.5413 7.09391L23.6275 7.01283L23.6846 6.90914L25.7259 3.2001L29.2674 1.47598L30.5022 2.63706L28.7124 5.8877L24.7601 7.81089ZM30.5574 25.3803L27.4957 22.5014C27.1984 22.2218 26.8595 22.0446 26.5314 21.9291C26.2525 21.8307 25.9397 21.7621 25.6074 21.7621C24.9325 21.7621 24.247 22.0049 23.7191 22.5013L23.7166 22.5038C23.351 22.8507 23.0937 23.2944 22.9824 23.7848C22.8716 24.273 22.9117 24.7807 23.0963 25.2461C23.2299 25.5978 23.442 25.9143 23.7147 26.1748L23.7147 26.1749L23.7191 26.179L26.678 28.9613C26.3322 29.0348 25.9746 29.0744 25.6074 29.0744C22.8834 29.0744 20.7392 27.0882 20.5621 24.6583C20.5565 24.5723 20.5439 24.4873 20.5367 24.4384C20.5357 24.4311 20.5347 24.4246 20.5339 24.4191C20.5263 24.366 20.5251 24.3485 20.525 24.3417C20.53 23.7905 20.6395 23.2435 20.8492 22.7262L21.0422 22.25L20.6679 21.8981L8.69585 10.6408L8.36469 10.3294L7.93541 10.4789C7.371 10.6755 6.7801 10.7937 6.16601 10.7937C6.14987 10.7937 6.12506 10.7919 6.06325 10.7841C6.0568 10.7833 6.04949 10.7823 6.04145 10.7813C5.98867 10.7744 5.90399 10.7634 5.81842 10.7584C3.13197 10.5856 1.08467 8.52018 1.08359 6.06137C1.08558 5.70981 1.13015 5.36026 1.21596 5.01927L4.27773 7.89826L4.2777 7.8983L4.28384 7.90395C4.56073 8.15856 4.88974 8.3515 5.24723 8.47235C5.52486 8.56973 5.83576 8.6375 6.16601 8.6375C6.84085 8.6375 7.52635 8.39468 8.05428 7.89826L8.05524 7.89737C8.83946 7.15737 9.03859 6.07572 8.67643 5.15193C8.54862 4.82424 8.35077 4.49937 8.05428 4.22059L5.09538 1.43832C5.44119 1.36484 5.79875 1.3252 6.16601 1.3252C8.88995 1.3252 11.0342 3.31136 11.2113 5.74122C11.2169 5.82723 11.2294 5.91233 11.2367 5.96125C11.2377 5.96853 11.2387 5.975 11.2395 5.98056C11.2478 6.03822 11.2484 6.05394 11.2484 6.05943C11.2484 6.61793 11.1269 7.15874 10.9215 7.68028L10.7352 8.15328L11.1055 8.50153L23.0775 19.7588L23.4087 20.0702L23.838 19.9207C24.4024 19.7242 24.9933 19.606 25.6074 19.606C25.6235 19.606 25.6483 19.6077 25.7101 19.6155C25.7166 19.6164 25.7239 19.6173 25.732 19.6184C25.7847 19.6252 25.8694 19.6363 25.955 19.6412C28.6421 19.814 30.6898 21.8805 30.6898 24.3402C30.6898 24.6966 30.6435 25.044 30.5574 25.3803Z" stroke="url(#paint0_linear_177_2982)" stroke-width="1.5"/>
<path d="M3.22194 29.1018L3.21965 29.1018C2.78124 29.1024 2.35592 28.9804 1.99793 28.7559C1.64034 28.5316 1.3689 28.2173 1.21066 27.8582C1.0527 27.4999 1.01229 27.1085 1.09222 26.7314C1.17223 26.354 1.37096 26.0006 1.67114 25.7189L1.15791 25.172L1.67168 25.7184L10.7329 17.1981L13.7633 20.0462L4.7696 28.5029L4.76902 28.5035C4.57015 28.6909 4.33136 28.8417 4.06527 28.9453C3.79914 29.0488 3.5124 29.1023 3.22194 29.1018ZM24.7601 7.81089L24.6576 7.86078L24.5745 7.9389L20.0102 12.2307L19.0443 11.3225L23.5413 7.09391L23.6275 7.01283L23.6846 6.90914L25.7259 3.2001L29.2674 1.47598L30.5022 2.63706L28.7124 5.8877L24.7601 7.81089ZM30.5574 25.3803L27.4957 22.5014C27.1984 22.2218 26.8595 22.0446 26.5314 21.9291C26.2525 21.8307 25.9397 21.7621 25.6074 21.7621C24.9325 21.7621 24.247 22.0049 23.7191 22.5013L23.7166 22.5038C23.351 22.8507 23.0937 23.2944 22.9824 23.7848C22.8716 24.273 22.9117 24.7807 23.0963 25.2461C23.2299 25.5978 23.442 25.9143 23.7147 26.1748L23.7147 26.1749L23.7191 26.179L26.678 28.9613C26.3322 29.0348 25.9746 29.0744 25.6074 29.0744C22.8834 29.0744 20.7392 27.0882 20.5621 24.6583C20.5565 24.5723 20.5439 24.4873 20.5367 24.4384C20.5357 24.4311 20.5347 24.4246 20.5339 24.4191C20.5263 24.366 20.5251 24.3485 20.525 24.3417C20.53 23.7905 20.6395 23.2435 20.8492 22.7262L21.0422 22.25L20.6679 21.8981L8.69585 10.6408L8.36469 10.3294L7.93541 10.4789C7.371 10.6755 6.7801 10.7937 6.16601 10.7937C6.14987 10.7937 6.12506 10.7919 6.06325 10.7841C6.0568 10.7833 6.04949 10.7823 6.04145 10.7813C5.98867 10.7744 5.90399 10.7634 5.81842 10.7584C3.13197 10.5856 1.08467 8.52018 1.08359 6.06137C1.08558 5.70981 1.13015 5.36026 1.21596 5.01927L4.27773 7.89826L4.2777 7.8983L4.28384 7.90395C4.56073 8.15856 4.88974 8.3515 5.24723 8.47235C5.52486 8.56973 5.83576 8.6375 6.16601 8.6375C6.84085 8.6375 7.52635 8.39468 8.05428 7.89826L8.05524 7.89737C8.83946 7.15737 9.03859 6.07572 8.67643 5.15193C8.54862 4.82424 8.35077 4.49937 8.05428 4.22059L5.09538 1.43832C5.44119 1.36484 5.79875 1.3252 6.16601 1.3252C8.88995 1.3252 11.0342 3.31136 11.2113 5.74122C11.2169 5.82723 11.2294 5.91233 11.2367 5.96125C11.2377 5.96853 11.2387 5.975 11.2395 5.98056C11.2478 6.03822 11.2484 6.05394 11.2484 6.05943C11.2484 6.61793 11.1269 7.15874 10.9215 7.68028L10.7352 8.15328L11.1055 8.50153L23.0775 19.7588L23.4087 20.0702L23.838 19.9207C24.4024 19.7242 24.9933 19.606 25.6074 19.606C25.6235 19.606 25.6483 19.6077 25.7101 19.6155C25.7166 19.6164 25.7239 19.6173 25.732 19.6184C25.7847 19.6252 25.8694 19.6363 25.955 19.6412C28.6421 19.814 30.6898 21.8805 30.6898 24.3402C30.6898 24.6966 30.6435 25.044 30.5574 25.3803Z" stroke="#37474F" stroke-width="1.5"/>
<defs>
<linearGradient id="paint0_linear_177_2982" x1="15.871" y1="0.575195" x2="15.871" y2="29.8518" gradientUnits="userSpaceOnUse">
<stop stop-color="#FF7E00"/>
<stop offset="1" stop-color="#FF7E00" stop-opacity="0.49"/>
</linearGradient>
</defs>
</svg>
