<svg width="212" height="212" viewBox="0 0 212 212" fill="none" xmlns="http://www.w3.org/2000/svg">
<path d="M30.8179 131.221C26.1894 131.221 21.6648 132.593 17.8163 135.164C13.9677 137.736 10.9681 141.39 9.19667 145.666C7.42529 149.942 6.96173 154.648 7.86462 159.187C8.7675 163.727 10.9963 167.897 14.2691 171.169C17.5419 174.442 21.7117 176.671 26.2513 177.574C30.7908 178.477 35.4961 178.013 39.7722 176.242C44.0483 174.47 47.703 171.471 50.2742 167.622C52.8455 163.774 54.2177 159.249 54.2174 154.621C54.2104 148.417 51.7428 142.469 47.3561 138.082C42.9693 133.696 37.0216 131.228 30.8179 131.221ZM30.8179 174.709C26.8446 174.71 22.9605 173.532 19.6568 171.325C16.353 169.117 13.7779 165.98 12.2572 162.309C10.7365 158.639 10.3384 154.6 11.1133 150.703C11.8883 146.806 13.8014 143.226 16.6108 140.416C19.4202 137.607 22.9996 135.693 26.8965 134.918C30.7934 134.143 34.8326 134.541 38.5034 136.061C42.1742 137.581 45.3118 140.156 47.5192 143.46C49.7266 146.763 50.9049 150.647 50.9049 154.621C50.8992 159.947 48.7811 165.053 45.0153 168.819C41.2496 172.585 36.1437 174.703 30.8179 174.709Z" fill="url(#paint0_linear_55_6)" fill-opacity="0.2"/>
<path d="M36.8668 140.82C36.1646 140.523 35.4099 140.37 34.6475 140.371H32.7941C31.2836 140.372 29.8354 140.973 28.7673 142.041C27.6992 143.109 27.0984 144.558 27.0966 146.068V150.404H25.4155C24.9763 150.404 24.555 150.579 24.2444 150.889C23.9338 151.2 23.7593 151.621 23.7593 152.06C23.7593 152.5 23.9338 152.921 24.2444 153.232C24.555 153.542 24.9763 153.717 25.4155 153.717H27.1032V167.215C27.1032 167.654 27.2777 168.076 27.5883 168.386C27.899 168.697 28.3202 168.871 28.7595 168.871C29.1988 168.871 29.62 168.697 29.9306 168.386C30.2412 168.076 30.4157 167.654 30.4157 167.215V153.717H34.3146C34.7538 153.717 35.1751 153.542 35.4857 153.232C35.7963 152.921 35.9708 152.5 35.9708 152.06C35.9708 151.621 35.7963 151.2 35.4857 150.889C35.1751 150.579 34.7538 150.404 34.3146 150.404H30.4157V146.068C30.4166 145.436 30.6682 144.83 31.1153 144.383C31.5623 143.936 32.1685 143.684 32.8007 143.683H34.6475C34.9661 143.682 35.2816 143.746 35.575 143.87C35.9795 144.042 36.4356 144.045 36.8428 143.88C37.25 143.715 37.575 143.395 37.7463 142.991C37.9176 142.586 37.9212 142.13 37.7563 141.723C37.5913 141.316 37.2714 140.991 36.8668 140.82ZM35.8946 73.0855C40.5231 73.0859 45.0478 71.7136 48.8964 69.1423C52.745 66.571 55.7446 62.9162 57.516 58.64C59.2873 54.3638 59.7508 49.6584 58.8477 45.1188C57.9447 40.5792 55.7158 36.4094 52.4428 33.1367C49.1698 29.8639 44.9998 27.6353 40.4602 26.7326C35.9205 25.8299 31.2152 26.2937 26.9391 28.0653C22.6631 29.837 19.0085 32.8369 16.4374 36.6856C13.8664 40.5344 12.4945 45.0592 12.4951 49.6877C12.503 55.891 14.9709 61.838 19.3575 66.2243C23.7441 70.6106 29.6913 73.0781 35.8946 73.0855ZM35.8946 29.5957C39.8677 29.5954 43.7517 30.7732 47.0554 32.9802C50.3591 35.1873 52.9342 38.3244 54.455 41.9949C55.9758 45.6654 56.3741 49.7044 55.5994 53.6012C54.8247 57.4981 52.9119 61.0777 50.1029 63.8874C47.2938 66.6972 43.7147 68.6109 39.818 69.3865C35.9214 70.1621 31.8822 69.7649 28.2114 68.245C24.5405 66.7251 21.4027 64.1508 19.1949 60.8476C16.9871 57.5445 15.8083 53.6608 15.8076 49.6877C15.8129 44.3614 17.9307 39.2548 21.6965 35.4881C25.4622 31.7214 30.5684 29.6023 35.8946 29.5957Z" fill="url(#paint1_linear_55_6)" fill-opacity="0.2"/>
<path d="M26.997 62.5581H44.7951C46.1516 62.5568 47.4521 62.0174 48.4113 61.0582C49.3705 60.099 49.9099 58.7984 49.9112 57.442V41.9262C49.9099 40.5697 49.3705 39.2692 48.4113 38.31C47.4521 37.3508 46.1516 36.8114 44.7951 36.8101H26.997C25.6407 36.8118 24.3404 37.3514 23.3813 38.3105C22.4222 39.2696 21.8826 40.5699 21.8809 41.9262V57.442C21.8826 58.7983 22.4222 60.0986 23.3813 61.0577C24.3404 62.0168 25.6407 62.5564 26.997 62.5581ZM25.1917 41.9262C25.1926 41.4478 25.3831 40.9893 25.7215 40.6512C26.06 40.3131 26.5186 40.123 26.997 40.1226H44.7951C45.2733 40.123 45.7318 40.3132 46.07 40.6513C46.4081 40.9895 46.5983 41.448 46.5987 41.9262V57.442C46.5983 57.9202 46.4081 58.3787 46.07 58.7169C45.7318 59.055 45.2733 59.2452 44.7951 59.2456H26.997C26.5188 59.2452 26.0603 59.055 25.7221 58.7169C25.384 58.3787 25.1938 57.9202 25.1934 57.442L25.1917 41.9262Z" fill="url(#paint2_linear_55_6)" fill-opacity="0.2"/>
<path d="M35.8941 57.4535C37.326 57.4539 38.7258 57.0296 39.9165 56.2343C41.1073 55.439 42.0354 54.3085 42.5836 52.9857C43.1318 51.6628 43.2754 50.2072 42.9963 48.8027C42.7171 47.3983 42.0278 46.1082 41.0154 45.0956C40.003 44.083 38.713 43.3933 37.3087 43.1138C35.9043 42.8344 34.4486 42.9776 33.1257 43.5255C31.8027 44.0734 30.672 45.0013 29.8764 46.1919C29.0809 47.3824 28.6563 48.7822 28.6562 50.2141C28.6584 52.1332 29.4216 53.973 30.7785 55.3302C32.1353 56.6873 33.975 57.4509 35.8941 57.4535ZM35.8941 46.2871C36.6708 46.2868 37.4302 46.5168 38.0762 46.9481C38.7222 47.3794 39.2258 47.9926 39.5233 48.7101C39.8208 49.4277 39.8988 50.2173 39.7474 50.9792C39.5961 51.741 39.2222 52.4409 38.6731 52.9903C38.124 53.5396 37.4242 53.9138 36.6624 54.0655C35.9006 54.2171 35.111 54.1395 34.3933 53.8423C33.6757 53.5451 33.0623 53.0418 32.6307 52.396C32.1991 51.7501 31.9688 50.9908 31.9688 50.2141C31.9701 49.1733 32.384 48.1754 33.1198 47.4393C33.8556 46.7032 34.8533 46.2889 35.8941 46.2871Z" fill="url(#paint3_linear_55_6)" fill-opacity="0.2"/>
<path d="M43.7185 44.1225C44.3332 44.1225 44.8315 43.6242 44.8315 43.0095C44.8315 42.3948 44.3332 41.8965 43.7185 41.8965C43.1038 41.8965 42.6055 42.3948 42.6055 43.0095C42.6055 43.6242 43.1038 44.1225 43.7185 44.1225Z" fill="url(#paint4_linear_55_6)" fill-opacity="0.2"/>
<path d="M203.718 109.147C203.723 104.589 202.397 100.129 199.903 96.3137C197.408 92.4989 193.854 89.4956 189.676 87.6727C185.498 85.8498 180.879 85.2866 176.386 86.0523C171.893 86.8181 167.721 88.8794 164.383 91.9831C161.045 95.0868 158.686 99.0979 157.595 103.524C156.505 107.949 156.731 112.597 158.246 116.896C159.76 121.195 162.497 124.959 166.121 127.724C169.744 130.489 174.096 132.136 178.643 132.462C178.607 133.464 178.416 134.454 178.076 135.397L181.172 136.576C181.662 135.258 181.936 133.868 181.982 132.462C187.879 132.039 193.399 129.4 197.431 125.075C201.463 120.75 203.709 115.06 203.718 109.147ZM180.312 129.229C176.339 129.228 172.455 128.049 169.152 125.841C165.849 123.632 163.275 120.494 161.756 116.823C160.236 113.152 159.839 109.112 160.616 105.216C161.392 101.319 163.306 97.7402 166.116 94.9315C168.927 92.1228 172.507 90.2106 176.404 89.4366C180.301 88.6626 184.34 89.0617 188.01 90.5833C191.681 92.1049 194.817 94.6808 197.024 97.9851C199.23 101.289 200.407 105.174 200.406 109.147C200.398 114.473 198.279 119.578 194.512 123.343C190.745 127.108 185.638 129.225 180.312 129.229Z" fill="url(#paint5_linear_55_6)" fill-opacity="0.2"/>
<path d="M195.317 100.494C195.18 100.363 195.023 100.254 194.852 100.173C194.989 99.8429 195.017 99.4774 194.932 99.1301C194.846 98.7828 194.651 98.4721 194.376 98.2436C194.079 97.9947 193.701 97.8613 193.313 97.8677C192.925 97.8741 192.552 98.0198 192.263 98.2784C191.626 98.6038 190.961 98.8704 190.275 99.075C189.254 98.2723 188.034 97.7625 186.746 97.6001C185.457 97.4378 184.148 97.629 182.96 98.1532C181.772 98.6775 180.749 99.5151 180 100.576C179.251 101.638 178.805 102.883 178.71 104.178C175.296 103.698 172.2 101.918 170.068 99.2092C169.912 99.0056 169.711 98.8409 169.482 98.7279C169.252 98.615 168.999 98.5569 168.743 98.5583C168.485 98.5583 168.232 98.6181 168.002 98.7331C167.772 98.8481 167.572 99.0151 167.418 99.2208C166.837 100.179 166.472 101.253 166.348 102.367C166.225 103.481 166.346 104.608 166.704 105.67C166.526 105.821 166.383 106.007 166.282 106.218C166.182 106.428 166.127 106.656 166.121 106.889C166.098 108.892 166.865 110.824 168.256 112.265C168.156 112.622 168.178 113.001 168.319 113.344C168.777 114.744 169.655 115.971 170.833 116.857C169.585 117.248 168.271 117.388 166.969 117.267C166.6 117.233 166.231 117.323 165.919 117.522C165.608 117.722 165.372 118.021 165.25 118.37C165.128 118.72 165.127 119.1 165.246 119.45C165.366 119.801 165.599 120.101 165.909 120.303C168.655 122.025 171.797 123.012 175.035 123.17C175.589 123.171 176.143 123.13 176.691 123.046C180.13 122.745 183.417 121.488 186.18 119.417C189.26 116.964 191.424 113.544 192.323 109.71C192.524 108.855 192.668 107.988 192.755 107.114C192.798 106.678 192.829 106.242 192.848 105.806C192.848 105.751 192.848 105.64 192.848 105.501C193.817 104.659 194.693 103.715 195.461 102.686C195.701 102.363 195.818 101.965 195.792 101.564C195.765 101.162 195.597 100.783 195.317 100.494ZM189.557 105.659C189.542 106.033 189.514 106.407 189.477 106.78C189.405 107.505 189.285 108.224 189.118 108.933C188.396 112.062 186.628 114.851 184.106 116.838C181.795 118.527 179.059 119.54 176.206 119.762C175.107 119.909 173.991 119.859 172.91 119.614C173.983 119.194 174.993 118.626 175.911 117.928C176.156 117.728 176.338 117.462 176.437 117.162C176.535 116.861 176.546 116.539 176.467 116.233C176.388 115.927 176.224 115.65 175.992 115.434C175.761 115.218 175.473 115.074 175.162 115.016C174.243 114.911 173.366 114.574 172.612 114.039C172.826 113.945 173.018 113.806 173.175 113.632C173.332 113.458 173.45 113.253 173.522 113.03C173.593 112.807 173.617 112.571 173.591 112.338C173.565 112.105 173.489 111.881 173.37 111.679L173.279 111.525C173.166 111.333 173.015 111.167 172.836 111.034C172.656 110.902 172.452 110.808 172.236 110.757C171.802 110.666 171.391 110.491 171.026 110.241C170.661 109.99 170.35 109.67 170.109 109.299C170.437 109.281 170.753 109.166 171.015 108.969C171.278 108.771 171.476 108.5 171.584 108.189C171.692 107.879 171.705 107.543 171.622 107.225C171.538 106.907 171.362 106.622 171.116 106.404C170.692 106.052 170.343 105.619 170.089 105.131C169.835 104.643 169.681 104.109 169.635 103.56C172.683 106.101 176.497 107.544 180.464 107.656C180.719 107.671 180.973 107.622 181.204 107.514C181.435 107.406 181.636 107.243 181.789 107.038C181.948 106.84 182.06 106.608 182.116 106.36C182.171 106.112 182.169 105.854 182.108 105.607C182.036 105.311 182 105.007 182.001 104.701C182.002 103.68 182.408 102.701 183.131 101.978C183.853 101.256 184.832 100.849 185.853 100.847C186.382 100.844 186.905 100.952 187.39 101.162C187.874 101.373 188.31 101.682 188.669 102.07C188.798 102.209 188.95 102.325 189.119 102.412C189.035 102.795 189.089 103.194 189.272 103.54C189.377 103.743 189.525 103.922 189.704 104.064C189.542 104.579 189.492 105.123 189.557 105.659ZM157.51 55.7508C161.23 55.7518 164.868 54.6495 167.962 52.5832C171.056 50.517 173.468 47.5797 174.893 44.1426C176.317 40.7056 176.691 36.9233 175.966 33.274C175.241 29.6247 173.45 26.2723 170.82 23.6408C168.19 21.0092 164.839 19.2167 161.19 18.4899C157.541 17.7631 153.758 18.1346 150.32 19.5575C146.883 20.9804 143.944 23.3908 141.876 26.4838C139.808 29.5768 138.704 33.2136 138.703 36.9342C138.707 41.9217 140.689 46.704 144.215 50.2317C147.741 53.7593 152.522 55.7442 157.51 55.7508ZM157.51 21.4416C160.576 21.4406 163.573 22.349 166.123 24.0517C168.672 25.7545 170.66 28.1752 171.833 31.0076C173.007 33.84 173.314 36.9569 172.716 39.9639C172.118 42.971 170.642 45.7331 168.474 47.901C166.306 50.0688 163.543 51.5449 160.536 52.1426C157.529 52.7403 154.412 52.4327 151.58 51.2587C148.748 50.0848 146.327 48.0972 144.625 45.5474C142.922 42.9976 142.014 40.0001 142.016 36.9342C142.022 32.827 143.657 28.89 146.561 25.9859C149.465 23.0819 153.403 21.4477 157.51 21.4416Z" fill="url(#paint6_linear_55_6)" fill-opacity="0.2"/>
<path d="M154.632 47.7165C154.723 47.7396 154.816 47.7545 154.909 47.7612C155.002 47.7612 155.101 47.7794 155.202 47.7943C155.189 47.854 155.176 47.9119 155.161 47.96C155.138 48.0453 155.121 48.1322 155.111 48.22L155.013 49.0995C154.984 49.4629 155.045 49.828 155.192 50.1619C155.338 50.4958 155.566 50.7881 155.853 51.0124C156.22 51.2825 156.665 51.4245 157.12 51.4165C157.505 51.4098 157.885 51.3341 158.243 51.193C161.821 49.3328 165.127 46.9924 168.071 44.2367C172.402 39.5313 172.838 34.3439 169.37 29.7395C169.221 29.5027 165.587 23.9543 155.933 24.6814C155.893 24.6814 155.732 24.7079 155.692 24.7145C153.329 25.0689 145.488 26.8345 143.872 34.7331C143.858 34.8342 142.34 44.659 154.632 47.7165ZM147.13 35.3443C148.274 29.7611 153.846 28.3417 156.188 27.9905L156.251 27.979C163.773 27.4374 166.475 31.361 166.652 31.6227C169.232 35.0578 168.901 38.4498 165.637 41.9958C163.5 44.0107 161.136 45.7689 158.591 47.2345C158.596 46.9016 158.548 46.57 158.448 46.2524C158.028 44.9886 156.539 44.5829 155.302 44.4719C146.197 42.1415 147.1 35.5563 147.13 35.3443Z" fill="url(#paint7_linear_55_6)" fill-opacity="0.2"/>
<path d="M152.678 37.8455C152.973 37.8455 153.261 37.7581 153.506 37.5943C153.751 37.4305 153.942 37.1977 154.055 36.9253C154.168 36.6529 154.198 36.3532 154.14 36.0641C154.083 35.7749 153.941 35.5093 153.732 35.3009C153.524 35.0924 153.258 34.9504 152.969 34.8929C152.68 34.8354 152.38 34.8649 152.108 34.9777C151.835 35.0905 151.603 35.2816 151.439 35.5267C151.275 35.7719 151.188 36.0601 151.188 36.3549C151.186 36.5509 151.224 36.7453 151.299 36.9266C151.373 37.108 151.483 37.2727 151.622 37.4114C151.76 37.55 151.925 37.6598 152.106 37.7343C152.288 37.8088 152.482 37.8466 152.678 37.8455ZM158.424 37.8455C158.719 37.8471 159.008 37.7611 159.254 37.5983C159.5 37.4355 159.693 37.2033 159.807 36.9311C159.921 36.6589 159.952 36.3589 159.895 36.0692C159.838 35.7795 159.697 35.5131 159.489 35.3038C159.281 35.0945 159.015 34.9517 158.726 34.8935C158.436 34.8353 158.136 34.8644 157.863 34.9769C157.591 35.0895 157.357 35.2806 157.193 35.5259C157.029 35.7712 156.941 36.0597 156.941 36.3549C156.94 36.5502 156.978 36.7439 157.052 36.9247C157.126 37.1055 157.235 37.2699 157.373 37.4084C157.51 37.5469 157.674 37.6569 157.854 37.7319C158.035 37.8069 158.228 37.8455 158.424 37.8455Z" fill="url(#paint8_linear_55_6)" fill-opacity="0.2"/>
<path d="M164.168 37.8455C164.987 37.8455 165.65 37.1819 165.65 36.3632C165.65 35.5445 164.987 34.8809 164.168 34.8809C163.349 34.8809 162.686 35.5445 162.686 36.3632C162.686 37.1819 163.349 37.8455 164.168 37.8455Z" fill="url(#paint9_linear_55_6)" fill-opacity="0.2"/>
<path d="M68.3563 186.617L63.9941 188.39L65.2413 191.458L69.6036 189.685L68.3563 186.617Z" fill="url(#paint10_linear_55_6)" fill-opacity="0.2"/>
<path d="M35.0181 191.405C36.5316 192.41 38.183 193.191 39.9206 193.723L40.9143 190.562C39.4831 190.127 38.1233 189.484 36.878 188.655L35.0181 191.405ZM45.4458 191.474L45.1046 194.769C46.3401 194.894 47.5811 194.956 48.8229 194.954C49.2999 194.954 49.7896 194.945 50.292 194.928L50.1761 191.615C48.598 191.679 47.0173 191.632 45.4458 191.474ZM58.502 190.625C57.2863 190.857 56.0955 191.052 54.9626 191.203L55.4015 194.487C56.647 194.321 57.9555 194.104 59.2888 193.846C59.3947 193.826 59.4984 193.795 59.5985 193.755L60.6386 193.331L59.3914 190.264L58.502 190.625ZM28.9297 182.145C29.2087 184.073 29.9415 185.908 31.0679 187.498L33.8057 185.631C33.0036 184.494 32.4645 183.193 32.2273 181.822L28.9297 182.145ZM63.6497 43.4287C64.7032 43.431 65.7551 43.5124 66.7965 43.6722L67.2934 40.3978C66.0876 40.2131 64.8696 40.119 63.6497 40.1162C63.06 40.1105 62.4705 40.1387 61.8841 40.2007L62.2816 43.49C62.7361 43.4446 63.1929 43.4241 63.6497 43.4287ZM83.4534 63.0454L86.7378 62.6065C86.5137 60.8902 86.1723 59.1913 85.7159 57.5218L82.5226 58.4046C82.9386 59.9284 83.2496 61.479 83.4534 63.0454ZM77.158 44.3728C75.7051 43.3125 74.1234 42.441 72.451 41.7791L71.227 44.8597C72.6364 45.4143 73.9694 46.1461 75.1937 47.0377L77.158 44.3728ZM83.8841 52.5994C83.1123 50.9934 82.1605 49.4804 81.0469 48.0894L78.4681 50.1697C79.4241 51.3644 80.2409 52.6641 80.9028 54.0436L83.8841 52.5994ZM138.462 39.6525L138.085 36.3599C136.624 36.5255 135.218 36.759 133.908 37.0439L134.615 40.2819C135.886 40.0071 137.17 39.797 138.462 39.6525ZM122.847 46.8423L120.244 44.8051C119.116 46.2498 118.221 47.8628 117.594 49.585L120.706 50.7212C121.212 49.324 121.935 48.0151 122.847 46.8423ZM130.125 41.6317L128.891 38.5577C127.232 39.2132 125.654 40.058 124.189 41.0752L126.092 43.7865C127.349 42.9152 128.702 42.1921 130.125 41.6317ZM120.017 59.5772C119.817 58.5526 119.722 57.5105 119.732 56.4667C119.732 56.0477 119.745 55.5972 119.78 55.1235L116.477 54.88C116.436 55.4399 116.419 55.9715 116.419 56.4667C116.407 57.7637 116.531 59.0583 116.79 60.3291L120.017 59.5772ZM172.03 141.328L173.482 144.309C175.134 143.526 176.657 142.496 177.999 141.255L175.728 138.847C174.628 139.857 173.381 140.693 172.03 141.328ZM162.987 143.908L163.472 147.186C165.18 146.938 166.872 146.587 168.538 146.134L167.657 142.941C166.122 143.359 164.562 143.682 162.987 143.908ZM104.778 103.479C100.876 103.479 97.0616 104.636 93.8174 106.804C90.5732 108.972 88.0447 112.053 86.5516 115.658C85.0585 119.263 84.6679 123.229 85.4292 127.056C86.1906 130.883 88.0696 134.398 90.8287 137.157C93.5878 139.916 97.1031 141.795 100.93 142.556C104.757 143.317 108.724 142.926 112.328 141.432C115.933 139.939 119.014 137.41 121.181 134.166C123.349 130.921 124.506 127.107 124.505 123.205C124.499 117.975 122.419 112.961 118.72 109.263C115.022 105.565 110.008 103.485 104.778 103.479ZM117.408 112.736C115.315 113.307 113.185 113.732 111.033 114.008C110.186 111.501 108.951 109.142 107.373 107.017C111.301 107.643 114.868 109.676 117.408 112.736ZM104.528 138.242C103.1 136.384 101.981 134.308 101.215 132.093C103.421 131.959 105.634 131.962 107.84 132.103C107.073 134.315 105.954 136.389 104.528 138.246V138.242ZM100.301 128.802C100.043 127.556 99.8769 126.294 99.8039 125.024H109.245C109.172 126.296 109.006 127.562 108.748 128.81C105.936 128.594 103.112 128.593 100.301 128.807V128.802ZM107.63 114.313C105.563 114.433 103.491 114.433 101.424 114.313C102.176 112.307 103.222 110.423 104.528 108.725C105.834 110.425 106.879 112.31 107.63 114.318V114.313ZM104.455 117.765C105.798 117.765 107.199 117.71 108.642 117.599C108.951 118.952 109.152 120.327 109.243 121.711H99.8155C99.905 120.332 100.104 118.962 100.412 117.614C101.694 117.71 103.039 117.77 104.455 117.77V117.765ZM96.5047 121.711H88.4437C88.6286 119.687 89.1903 117.716 90.1 115.898C92.4051 116.518 94.7497 116.98 97.1175 117.283C96.8033 118.743 96.6012 120.225 96.513 121.716L96.5047 121.711ZM96.4931 125.024C96.5615 126.407 96.7275 127.783 96.99 129.143C94.6657 129.444 92.364 129.899 90.1 130.504C89.2367 128.789 88.6854 126.933 88.4719 125.024H96.4931ZM112.547 125.024H121.077C120.853 127.039 120.254 128.995 119.311 130.791C116.937 130.078 114.512 129.543 112.059 129.188C112.324 127.815 112.49 126.425 112.555 125.029L112.547 125.024ZM112.537 121.711C112.447 120.207 112.243 118.712 111.924 117.24C114.427 116.891 116.899 116.353 119.32 115.63C120.309 117.52 120.916 119.587 121.108 121.711H112.537ZM101.618 107.098C100.065 109.204 98.8477 111.538 98.0102 114.016C95.979 113.776 93.9634 113.418 91.9732 112.947C94.3988 109.919 97.8187 107.849 101.626 107.103L101.618 107.098ZM91.9815 133.461C93.9132 133.003 95.869 132.654 97.8396 132.414C98.6062 134.829 99.7252 137.117 101.16 139.205C97.5397 138.382 94.3043 136.358 91.9815 133.461ZM107.812 139.327C109.286 137.21 110.433 134.883 111.214 132.424C113.304 132.702 115.373 133.12 117.407 133.676C114.965 136.621 111.571 138.62 107.812 139.327ZM112.698 173.809H97.4719C96.3957 173.809 95.3636 174.236 94.6026 174.997C93.8416 175.758 93.4141 176.79 93.4141 177.867C93.4141 178.943 93.8416 179.975 94.6026 180.736C95.3636 181.497 96.3957 181.924 97.4719 181.924H112.698C113.774 181.924 114.806 181.497 115.567 180.736C116.328 179.975 116.756 178.943 116.756 177.867C116.756 176.79 116.328 175.758 115.567 174.997C114.806 174.236 113.774 173.809 112.698 173.809ZM112.698 178.612H97.4719C97.275 178.611 97.0863 178.533 96.9472 178.393C96.8081 178.254 96.7299 178.065 96.7299 177.868C96.7325 177.672 96.8115 177.485 96.9501 177.346C97.0887 177.208 97.2759 177.129 97.4719 177.126H112.698C112.894 177.129 113.08 177.208 113.219 177.347C113.357 177.486 113.436 177.672 113.438 177.868C113.437 178.064 113.359 178.252 113.22 178.39C113.082 178.529 112.894 178.606 112.698 178.607V178.612Z" fill="url(#paint11_linear_55_6)" fill-opacity="0.2"/>
<path d="M162.668 183.385C162.529 182.958 162.153 181.977 161.708 180.821C161.081 179.199 159.93 176.218 159.773 175.476C159.793 172.535 159.939 169.527 160.066 166.615C160.414 161.335 160.443 156.038 160.154 150.753C159.581 145.377 158.345 140.092 156.474 135.019L153.736 126.556C153.337 125.318 153.132 124.025 153.128 122.725V100.357C153.128 100.138 153.085 99.9205 153 99.7182C152.915 99.5158 152.792 99.3323 152.635 99.1782C152.479 99.0241 152.294 98.9026 152.091 98.8206C151.887 98.7386 151.67 98.6979 151.45 98.7008C149.581 98.7186 147.735 99.1121 146.022 99.8579C144.308 100.604 142.762 101.686 141.475 103.042C141.475 102.792 141.475 102.53 141.475 102.29L141.418 70.1006C141.417 69.0972 141.018 68.1351 140.309 67.4254C139.599 66.7157 138.637 66.3162 137.634 66.3145H72.5433C71.5395 66.3158 70.5773 66.7151 69.8675 67.4249C69.1577 68.1346 68.7584 69.0969 68.7571 70.1006V100.892H67.023C65.6684 100.894 64.3697 101.432 63.4114 102.39C62.453 103.347 61.9132 104.645 61.9102 106V113.21C61.9132 114.124 62.1625 115.021 62.632 115.807C63.1016 116.592 63.7739 117.236 64.5784 117.671C63.7742 118.107 63.1022 118.752 62.6327 119.537C62.1633 120.322 61.9137 121.219 61.9102 122.133V129.353C61.9132 130.268 62.1625 131.165 62.632 131.95C63.1016 132.735 63.7739 133.379 64.5784 133.815C63.7741 134.251 63.102 134.895 62.6325 135.68C62.163 136.465 61.9135 137.362 61.9102 138.277V145.487C61.9148 146.403 62.1665 147.301 62.6387 148.086C63.1109 148.871 63.7861 149.515 64.5933 149.948C63.7852 150.383 63.1095 151.029 62.6376 151.816C62.1656 152.603 61.9149 153.503 61.9118 154.42V161.613C61.9131 162.969 62.4522 164.269 63.4108 165.227C64.3693 166.186 65.669 166.725 67.0247 166.726H68.7654V182.557C68.7663 183.561 69.1654 184.523 69.8752 185.234C70.585 185.944 71.5475 186.343 72.5516 186.345H101.773C104.953 190.104 108.264 193.188 114.059 193.798L118.244 210.276C118.335 210.632 118.541 210.949 118.832 211.175C119.122 211.401 119.479 211.524 119.847 211.525C119.959 211.524 120.07 211.512 120.179 211.49L165.986 201.993C166.207 201.947 166.417 201.856 166.603 201.725C166.788 201.595 166.944 201.428 167.062 201.235C167.181 201.042 167.258 200.826 167.289 200.602C167.321 200.378 167.306 200.149 167.246 199.931L162.668 183.385ZM72.0712 70.0973C72.0717 69.9718 72.1217 69.8516 72.2105 69.7629C72.2992 69.6741 72.4194 69.6241 72.5449 69.6236H137.634C137.76 69.6254 137.88 69.6763 137.968 69.7655C138.057 69.8546 138.107 69.975 138.108 70.1006L138.164 102.29C138.164 103.353 138.164 104.541 138.147 105.665C138.147 106.944 138.131 108.15 138.136 108.991C137.815 110.146 137.645 111.337 137.631 112.535L137.342 138.297C136.901 138.628 136.467 138.969 136.042 139.319V76.5965C136.041 75.6129 135.65 74.6698 134.955 73.9741C134.26 73.2783 133.317 72.8865 132.334 72.8848H78.1066C77.1225 72.8857 76.1789 73.277 75.4831 73.9729C74.7872 74.6688 74.3958 75.6123 74.395 76.5965V101.187C74.1813 101.129 73.9627 101.097 73.7457 101.058C73.6165 101.034 73.4907 101 73.3598 100.981C72.9533 100.923 72.5432 100.893 72.1325 100.892L72.0712 70.0973ZM125.659 169.683H78.1066C78.0541 169.683 78.002 169.673 77.9534 169.653C77.9047 169.633 77.8605 169.604 77.8234 169.567C77.7862 169.53 77.7569 169.485 77.737 169.437C77.717 169.388 77.707 169.336 77.7075 169.284V164.707C77.9062 164.542 78.1 164.364 78.2888 164.176C79.2267 163.25 79.9396 162.121 80.3726 160.876C80.8057 159.631 80.9472 158.304 80.7864 156.996C80.7732 156.882 80.7483 156.772 80.7301 156.665C80.6953 156.441 80.6572 156.217 80.6059 156.002C80.5744 155.871 80.533 155.744 80.4949 155.614C80.4386 155.421 80.3807 155.227 80.3127 155.038C80.2631 154.902 80.2051 154.77 80.1471 154.637C80.0726 154.462 79.9948 154.288 79.9103 154.119C79.8424 153.985 79.7712 153.852 79.695 153.721C79.6039 153.556 79.5078 153.407 79.4068 153.253C79.3057 153.099 79.2412 152.996 79.1434 152.872C79.0457 152.748 78.9198 152.584 78.8022 152.444C78.6847 152.305 78.6052 152.206 78.4992 152.093C78.3683 151.953 78.2292 151.822 78.0884 151.691C77.9824 151.591 77.8797 151.487 77.7671 151.393C77.7456 151.374 77.7273 151.353 77.7058 151.335V148.574C77.9046 148.408 78.0983 148.231 78.2872 148.044C79.1036 147.238 79.7508 146.277 80.1908 145.218C80.6308 144.158 80.8547 143.021 80.8494 141.874C80.8478 141.531 80.8262 141.188 80.7848 140.847C80.7715 140.735 80.7467 140.624 80.7285 140.516C80.6937 140.293 80.6556 140.071 80.6042 139.854C80.5728 139.721 80.5314 139.594 80.4933 139.464C80.437 139.271 80.379 139.078 80.3111 138.89C80.2614 138.754 80.2034 138.621 80.1455 138.487C80.0709 138.312 79.9931 138.139 79.9086 137.97C79.8407 137.835 79.7695 137.704 79.6933 137.573C79.6022 137.407 79.5062 137.257 79.4051 137.104C79.3041 136.952 79.2395 136.848 79.1418 136.722C79.0441 136.596 78.9182 136.433 78.8006 136.294C78.683 136.155 78.6035 136.056 78.4975 135.943C78.3667 135.804 78.2275 135.673 78.0867 135.541C77.9807 135.441 77.8781 135.337 77.7654 135.241L77.7042 135.185V132.44C77.9051 132.274 78.1011 132.095 78.2921 131.904C79.1041 131.096 79.748 130.136 80.1866 129.079C80.6253 128.021 80.85 126.887 80.8477 125.742C80.8463 125.399 80.8247 125.056 80.7831 124.715C80.7699 124.601 80.745 124.49 80.7268 124.384C80.692 124.161 80.6539 123.939 80.6026 123.722C80.5711 123.591 80.5297 123.462 80.4916 123.333C80.4353 123.139 80.3773 122.947 80.3094 122.758C80.2597 122.622 80.2018 122.489 80.1438 122.355C80.0693 122.181 79.9914 122.008 79.907 121.839C79.8391 121.704 79.7678 121.572 79.6917 121.441C79.6006 121.275 79.5045 121.126 79.4035 120.972C79.319 120.843 79.2378 120.716 79.1401 120.591C79.0424 120.467 78.9165 120.303 78.7989 120.162C78.6813 120.022 78.6018 119.926 78.4958 119.811C78.365 119.672 78.2259 119.541 78.0851 119.411C77.9791 119.309 77.8764 119.205 77.7638 119.111C77.7422 119.093 77.724 119.071 77.7025 119.053V116.308C77.9012 116.142 78.095 115.964 78.2838 115.777C79.1001 114.971 79.7472 114.01 80.1872 112.951C80.6272 111.892 80.8512 110.756 80.8461 109.609C80.8446 109.266 80.823 108.923 80.7815 108.582C80.7682 108.468 80.7434 108.358 80.7252 108.251C80.6904 108.029 80.6523 107.805 80.6009 107.588C80.5695 107.457 80.5281 107.33 80.49 107.199C80.4337 107.005 80.3757 106.813 80.3078 106.624C80.2581 106.488 80.2001 106.356 80.1422 106.222C80.0676 106.048 79.9898 105.876 79.9053 105.705C79.8374 105.571 79.7662 105.438 79.69 105.308C79.5989 105.142 79.5028 104.993 79.4018 104.839C79.3173 104.71 79.2362 104.582 79.1385 104.458C79.0408 104.334 78.9149 104.17 78.7973 104.029C78.6797 103.888 78.6002 103.792 78.4942 103.679C78.3633 103.539 78.2242 103.408 78.0834 103.277C77.9774 103.176 77.8747 103.072 77.7621 102.977C77.7406 102.959 77.7224 102.937 77.7008 102.921V76.5965C77.7004 76.5439 77.7104 76.4918 77.7303 76.4432C77.7502 76.3946 77.7796 76.3504 77.8168 76.3132C77.8539 76.2761 77.8981 76.2467 77.9467 76.2268C77.9954 76.2069 78.0475 76.1969 78.1 76.1973H132.334C132.439 76.1986 132.54 76.241 132.615 76.3156C132.689 76.3902 132.732 76.491 132.733 76.5965V142.57C129.059 146.84 126.572 152.001 125.522 157.536C124.805 161.557 124.852 165.678 125.659 169.683ZM75.1287 121.249C75.7948 121.691 76.3544 122.275 76.7669 122.96C77.1794 123.645 77.4345 124.413 77.5137 125.208C77.593 126.004 77.4944 126.807 77.2251 127.559C76.9559 128.312 76.5226 128.995 75.9568 129.56C74.9428 130.573 73.5691 131.143 72.1358 131.147H67.023C66.5469 131.146 66.0905 130.957 65.7533 130.621C65.416 130.285 65.2253 129.829 65.2227 129.353V122.137C65.2235 121.66 65.4135 121.202 65.751 120.865C66.0885 120.528 66.5459 120.338 67.023 120.338H72.1325C73.2002 120.333 74.2445 120.65 75.1287 121.249ZM75.1287 137.382C75.8693 137.875 76.4768 138.542 76.8972 139.326C77.3176 140.11 77.5379 140.985 77.5385 141.874C77.5424 142.584 77.4041 143.288 77.1319 143.944C76.8597 144.6 76.459 145.195 75.9535 145.694C75.7018 145.949 75.4242 146.177 75.1254 146.374C74.2456 146.97 73.2065 147.286 72.1441 147.28H67.023C66.5458 147.279 66.0884 147.089 65.7509 146.752C65.4135 146.415 65.2235 145.957 65.2227 145.48V138.27C65.2248 137.794 65.4154 137.338 65.7527 137.001C66.09 136.665 66.5466 136.476 67.023 136.475H72.1325C73.2 136.468 74.2445 136.784 75.1287 137.382ZM65.2227 106C65.2235 105.523 65.4135 105.066 65.751 104.728C66.0885 104.391 66.5459 104.202 67.023 104.201H72.1325C73.1982 104.196 74.2406 104.512 75.1237 105.109H75.1337C75.8728 105.602 76.479 106.269 76.8984 107.053C77.3179 107.836 77.5378 108.71 77.5385 109.599C77.5413 110.307 77.4025 111.009 77.1304 111.663C76.8582 112.318 76.4581 112.911 75.9535 113.408C75.7018 113.664 75.4243 113.892 75.1254 114.091C74.2451 114.685 73.2062 115 72.1441 114.995H67.023C66.5458 114.994 66.0884 114.804 65.7509 114.467C65.4135 114.129 65.2235 113.672 65.2227 113.195V106ZM67.023 163.409C66.5457 163.408 66.088 163.219 65.7504 162.881C65.4129 162.543 65.2231 162.086 65.2227 161.608V154.419C65.2235 153.941 65.4135 153.484 65.7509 153.147C66.0884 152.809 66.5458 152.619 67.023 152.618H72.1325C73.2005 152.613 74.2452 152.931 75.1287 153.531C75.8694 154.023 76.477 154.691 76.8974 155.474C77.3179 156.258 77.5381 157.133 77.5385 158.023C77.5424 158.731 77.4042 159.434 77.1319 160.088C76.8597 160.742 76.459 161.335 75.9535 161.832C75.7022 162.088 75.4247 162.317 75.1254 162.514C74.2451 163.109 73.2062 163.424 72.1441 163.419H67.023V163.409ZM72.0762 182.552V166.721H72.1325C72.5426 166.72 72.9522 166.69 73.3582 166.632C73.4956 166.614 73.6298 166.577 73.7656 166.552C73.9759 166.513 74.1879 166.483 74.395 166.428V169.28C74.3958 170.264 74.7872 171.208 75.4831 171.904C76.1789 172.6 77.1225 172.991 78.1066 172.992H126.496C126.807 174.025 127.166 175.038 127.574 176.031C127.642 176.197 127.708 176.362 127.776 176.528C127.877 176.763 127.978 176.995 128.084 177.225C128.286 177.687 128.501 178.136 128.705 178.53C128.854 178.856 129.02 179.173 129.202 179.481C129.696 180.415 130.236 181.324 130.822 182.204C130.889 182.301 130.923 182.417 130.919 182.535C130.916 182.615 130.895 182.692 130.857 182.762C130.813 182.845 130.747 182.914 130.666 182.96C130.585 183.007 130.493 183.03 130.399 183.027H72.5433C72.4192 183.025 72.3009 182.974 72.2137 182.886C72.1264 182.798 72.0771 182.679 72.0762 182.555V182.552ZM121.071 207.932L117.386 193.45C117.614 193.217 117.768 192.923 117.83 192.604C117.891 192.284 117.857 191.953 117.732 191.653C117.607 191.353 117.396 191.096 117.125 190.915C116.855 190.733 116.537 190.636 116.212 190.634C114.335 190.706 112.466 190.358 110.741 189.617C109.015 188.876 107.477 187.76 106.236 186.35H130.394C131.089 186.35 131.77 186.162 132.366 185.805C132.961 185.448 133.449 184.936 133.776 184.324C134.103 183.711 134.257 183.021 134.222 182.328C134.187 181.635 133.965 180.964 133.578 180.387C133.513 180.289 133.458 180.193 133.396 180.096C133.189 179.774 132.981 179.455 132.793 179.137C132.548 178.724 132.316 178.308 132.095 177.891C131.947 177.636 131.811 177.374 131.69 177.106C131.241 176.227 130.852 175.322 130.492 174.406L130.197 173.611C130.032 173.143 129.891 172.667 129.747 172.192C129.616 171.773 129.472 171.364 129.361 170.935L129.28 170.62C128.226 166.548 128.057 162.298 128.783 158.155C129.756 153.009 132.119 148.228 135.615 144.329L135.625 144.319C136.908 142.89 138.354 141.615 139.931 140.519L140.637 140.032L140.945 112.588C140.957 111.681 141.085 110.779 141.326 109.904L141.455 109.604V109.508C142.03 107.629 143.118 105.948 144.595 104.652C146.072 103.357 147.881 102.499 149.819 102.174V122.728C149.822 124.373 150.081 126.008 150.586 127.574L153.325 136.043C155.105 140.866 156.287 145.888 156.846 150.999C157.122 156.151 157.091 161.316 156.752 166.465C156.616 169.409 156.477 172.454 156.456 175.463C156.422 176.145 156.745 177.179 158.609 182.013C159.026 183.095 159.38 184.011 159.49 184.34L163.581 199.116L121.071 207.932Z" fill="url(#paint12_linear_55_6)" fill-opacity="0.2"/>
<defs>
<linearGradient id="paint0_linear_55_6" x1="30.8162" y1="131.221" x2="30.8162" y2="178.024" gradientUnits="userSpaceOnUse">
<stop stop-color="#FF7E00"/>
<stop offset="1" stop-color="#FF7E00" stop-opacity="0.49"/>
</linearGradient>
<linearGradient id="paint1_linear_55_6" x1="35.8963" y1="26.2832" x2="35.8963" y2="168.871" gradientUnits="userSpaceOnUse">
<stop stop-color="#FF7E00"/>
<stop offset="1" stop-color="#FF7E00" stop-opacity="0.49"/>
</linearGradient>
<linearGradient id="paint2_linear_55_6" x1="35.896" y1="36.8101" x2="35.896" y2="62.5581" gradientUnits="userSpaceOnUse">
<stop stop-color="#FF7E00"/>
<stop offset="1" stop-color="#FF7E00" stop-opacity="0.49"/>
</linearGradient>
<linearGradient id="paint3_linear_55_6" x1="35.8957" y1="42.9746" x2="35.8957" y2="57.4535" gradientUnits="userSpaceOnUse">
<stop stop-color="#FF7E00"/>
<stop offset="1" stop-color="#FF7E00" stop-opacity="0.49"/>
</linearGradient>
<linearGradient id="paint4_linear_55_6" x1="43.7185" y1="41.8965" x2="43.7185" y2="44.1225" gradientUnits="userSpaceOnUse">
<stop stop-color="#FF7E00"/>
<stop offset="1" stop-color="#FF7E00" stop-opacity="0.49"/>
</linearGradient>
<linearGradient id="paint5_linear_55_6" x1="180.317" y1="85.7197" x2="180.317" y2="136.576" gradientUnits="userSpaceOnUse">
<stop stop-color="#FF7E00"/>
<stop offset="1" stop-color="#FF7E00" stop-opacity="0.49"/>
</linearGradient>
<linearGradient id="paint6_linear_55_6" x1="167.249" y1="18.1274" x2="167.249" y2="123.17" gradientUnits="userSpaceOnUse">
<stop stop-color="#FF7E00"/>
<stop offset="1" stop-color="#FF7E00" stop-opacity="0.49"/>
</linearGradient>
<linearGradient id="paint7_linear_55_6" x1="157.744" y1="24.6157" x2="157.744" y2="51.4169" gradientUnits="userSpaceOnUse">
<stop stop-color="#FF7E00"/>
<stop offset="1" stop-color="#FF7E00" stop-opacity="0.49"/>
</linearGradient>
<linearGradient id="paint8_linear_55_6" x1="155.555" y1="34.8643" x2="155.555" y2="37.8455" gradientUnits="userSpaceOnUse">
<stop stop-color="#FF7E00"/>
<stop offset="1" stop-color="#FF7E00" stop-opacity="0.49"/>
</linearGradient>
<linearGradient id="paint9_linear_55_6" x1="164.168" y1="34.8809" x2="164.168" y2="37.8455" gradientUnits="userSpaceOnUse">
<stop stop-color="#FF7E00"/>
<stop offset="1" stop-color="#FF7E00" stop-opacity="0.49"/>
</linearGradient>
<linearGradient id="paint10_linear_55_6" x1="66.1752" y1="187.503" x2="67.4225" y2="190.572" gradientUnits="userSpaceOnUse">
<stop stop-color="#FF7E00"/>
<stop offset="1" stop-color="#FF7E00" stop-opacity="0.49"/>
</linearGradient>
<linearGradient id="paint11_linear_55_6" x1="103.464" y1="36.3599" x2="103.464" y2="194.954" gradientUnits="userSpaceOnUse">
<stop stop-color="#FF7E00"/>
<stop offset="1" stop-color="#FF7E00" stop-opacity="0.49"/>
</linearGradient>
<linearGradient id="paint12_linear_55_6" x1="114.608" y1="66.3145" x2="114.608" y2="211.525" gradientUnits="userSpaceOnUse">
<stop stop-color="#FF7E00"/>
<stop offset="1" stop-color="#FF7E00" stop-opacity="0.49"/>
</linearGradient>
</defs>
</svg>
