<svg width="212" height="184" viewBox="0 0 212 184" fill="none" xmlns="http://www.w3.org/2000/svg">
<path d="M159 41.6875H145.75C143.762 41.6875 142.438 42.8375 142.438 44.5625C142.438 46.2875 143.762 47.4375 145.75 47.4375H159C160.988 47.4375 162.312 46.2875 162.312 44.5625C162.312 42.8375 160.988 41.6875 159 41.6875ZM168.938 30.1875H145.75C143.762 30.1875 142.438 31.3375 142.438 33.0625C142.438 34.7875 143.762 35.9375 145.75 35.9375H168.938C170.925 35.9375 172.25 34.7875 172.25 33.0625C172.25 31.3375 170.925 30.1875 168.938 30.1875ZM109.312 15.8125H99.375C97.3875 15.8125 96.0625 16.9625 96.0625 18.6875C96.0625 20.4125 97.3875 21.5625 99.375 21.5625H109.312C111.3 21.5625 112.625 20.4125 112.625 18.6875C112.625 16.9625 111.3 15.8125 109.312 15.8125Z" fill="url(#paint0_linear_52_154)" fill-opacity="0.2"/>
<path d="M195.438 15.8125H135.812V12.9375C135.812 8.05 131.506 4.3125 125.875 4.3125H92.75C85.4625 4.3125 82.8125 9.4875 82.8125 12.9375V27.3125C82.8125 31.9125 87.1187 35.9375 92.75 35.9375H98.05L105.669 42.55L39.4187 53.475C39.4187 53.475 30.8063 54.9125 24.1813 62.3875C23.85 62.3875 23.5188 62.3875 23.1875 62.3875C17.5562 63.25 6.625 69 6.625 85.1C6.625 101.2 17.225 106.95 23.1875 107.812C23.5188 107.812 23.5187 107.812 23.85 107.812H24.1813C27.1625 111.263 30.8063 113.563 33.4563 114.713C33.4563 115 33.7875 115.288 34.1188 115.575L80.4937 167.325C80.825 167.613 81.1563 167.9 81.4875 167.9C84.1375 169.913 87.7813 171.062 91.425 171.062C99.7063 171.062 106.331 165.312 106.331 158.125C106.331 154.962 105.006 152.087 102.688 149.5C102.688 149.212 102.356 149.212 102.356 148.925L77.1812 122.475L145.419 133.688C145.75 133.688 145.75 133.688 146.081 133.688C146.412 133.688 146.412 133.688 146.744 133.688C147.075 133.688 147.406 133.688 147.737 133.688C163.637 133.688 175.894 112.125 175.894 84.8125C175.894 78.775 175.231 72.7375 174.237 67.5625L180.862 61.8125H195.438C200.738 61.8125 205.375 58.075 205.375 53.1875V24.4375C205.375 20.9875 202.725 15.8125 195.438 15.8125ZM128.525 104.938C126.869 99.1875 125.875 92.2875 125.875 84.8125C125.875 77.3375 126.869 70.4375 128.525 64.6875C128.856 64.6875 128.856 64.6875 129.188 64.6875C136.475 64.6875 142.438 73.8875 142.438 84.8125C142.438 95.7375 136.475 104.938 129.188 104.938C128.856 104.938 128.856 104.938 128.525 104.938ZM99.375 30.1875H92.75C91.0938 30.1875 89.4375 29.0375 89.4375 27.3125V12.9375C89.4375 11.5 90.1 10.0625 92.75 10.0625H125.875C127.863 10.0625 129.188 11.2125 129.188 12.9375V27.3125C129.188 29.0375 127.863 30.1875 125.875 30.1875H115.938C113.95 30.1875 112.625 31.3375 112.625 33.0625V40.5375L101.694 31.05C101.031 30.475 100.369 30.1875 99.375 30.1875ZM119.25 35.9375H125.875V39.1L119.25 40.25V35.9375ZM113.619 49.45C114.281 50.025 114.944 50.3125 115.938 50.3125C116.269 50.3125 116.931 50.3125 117.263 50.025C118.588 49.45 119.25 48.5875 119.25 47.4375V46L125.875 44.85V52.9C121.9 61.2375 119.25 72.45 119.25 84.525C119.25 101.775 124.219 116.725 131.837 125.35L67.575 115C62.6062 106.95 59.9563 96.025 59.9563 84.8125C59.9563 73.6 62.6062 62.675 67.575 54.625L111.3 47.4375L113.619 49.45ZM13.25 84.8125C13.25 76.7625 16.2313 72.45 19.2125 70.15C17.5563 74.175 16.5625 78.775 16.5625 84.8125C16.5625 90.5625 17.5563 95.45 19.2125 99.1875C16.2313 97.175 13.25 92.8625 13.25 84.8125ZM23.1875 84.8125C23.1875 61.8125 39.75 58.9375 40.4125 58.9375L59.2937 55.775C55.3187 64.1125 53 74.175 53 84.8125C53 95.45 55.3187 105.512 59.2937 113.85L40.0813 110.688C40.0813 110.688 23.1875 108.1 23.1875 84.8125ZM66.9125 121.037L96.0625 152.088C96.0625 152.375 96.3938 152.663 96.725 152.95C98.3813 154.388 99.0437 156.113 99.0437 158.125C99.0437 162.15 95.4 165.312 90.7625 165.312C88.4437 165.312 86.4563 164.45 84.8 163.3L84.4688 163.013L43.725 117.013L66.9125 121.037ZM168.938 84.8125C168.938 110.688 157.675 127.938 147.406 127.938C141.113 127.938 134.487 121.612 130.181 110.688C140.781 109.825 149.062 98.9 149.062 84.8125C149.062 74.75 144.756 66.125 138.462 61.8125H159V73.3125C159 74.4625 159.662 75.6125 160.987 75.9C161.319 76.1875 161.981 76.1875 162.312 76.1875C163.306 76.1875 163.969 75.9 164.631 75.325L167.944 72.45C168.606 76.1875 168.938 80.5 168.938 84.8125ZM198.75 53.1875C198.75 54.625 197.425 56.0625 195.438 56.0625H178.875C177.881 56.0625 177.219 56.35 176.556 56.925L165.625 66.4125V58.9375C165.625 57.2125 164.3 56.0625 162.312 56.0625H135.812C133.825 56.0625 132.5 54.9125 132.5 53.1875V33.6375C134.488 32.2 135.812 29.9 135.812 27.3125V21.5625H195.438C198.088 21.5625 198.75 23 198.75 24.4375V53.1875Z" fill="url(#paint1_linear_52_154)" fill-opacity="0.2"/>
<defs>
<linearGradient id="paint0_linear_52_154" x1="134.156" y1="15.8125" x2="134.156" y2="47.4375" gradientUnits="userSpaceOnUse">
<stop stop-color="#FF7E00"/>
<stop offset="1" stop-color="#FF7E00" stop-opacity="0.49"/>
</linearGradient>
<linearGradient id="paint1_linear_52_154" x1="106" y1="4.3125" x2="106" y2="171.062" gradientUnits="userSpaceOnUse">
<stop stop-color="#FF7E00"/>
<stop offset="1" stop-color="#FF7E00" stop-opacity="0.49"/>
</linearGradient>
</defs>
</svg>
