<svg width="32" height="30" viewBox="0 0 32 30" fill="none" xmlns="http://www.w3.org/2000/svg">
<path d="M19.893 16.2932C22.704 14.8054 24.5204 11.867 24.5204 9.15172C24.5204 5.28341 20.8444 0.96875 15.871 0.96875C10.8977 0.96875 7.22174 5.28341 7.22174 9.15172C7.22174 11.867 9.0381 14.8054 11.8491 16.2932C5.18916 17.8182 0.302299 23.0628 0.302299 29.2372C0.302299 29.6463 0.691518 29.9811 1.16723 29.9811H30.5749C31.0506 29.9811 31.4398 29.6463 31.4398 29.2372C31.4398 23.0628 26.5529 17.8182 19.893 16.2932ZM8.9516 9.15172C8.9516 5.3206 12.6276 2.45656 15.871 2.45656C19.1145 2.45656 22.7905 5.3206 22.7905 9.15172C22.7905 12.9828 19.1145 15.8469 15.871 15.8469C12.6276 15.8469 8.9516 12.9828 8.9516 9.15172ZM2.07541 28.4933C2.50787 22.2817 8.56239 17.3347 15.871 17.3347C23.1797 17.3347 29.2342 22.2817 29.6667 28.4933H2.07541Z" fill="url(#paint0_linear_177_2984)"/>
<path d="M19.893 16.2932C22.704 14.8054 24.5204 11.867 24.5204 9.15172C24.5204 5.28341 20.8444 0.96875 15.871 0.96875C10.8977 0.96875 7.22174 5.28341 7.22174 9.15172C7.22174 11.867 9.0381 14.8054 11.8491 16.2932C5.18916 17.8182 0.302299 23.0628 0.302299 29.2372C0.302299 29.6463 0.691518 29.9811 1.16723 29.9811H30.5749C31.0506 29.9811 31.4398 29.6463 31.4398 29.2372C31.4398 23.0628 26.5529 17.8182 19.893 16.2932ZM8.9516 9.15172C8.9516 5.3206 12.6276 2.45656 15.871 2.45656C19.1145 2.45656 22.7905 5.3206 22.7905 9.15172C22.7905 12.9828 19.1145 15.8469 15.871 15.8469C12.6276 15.8469 8.9516 12.9828 8.9516 9.15172ZM2.07541 28.4933C2.50787 22.2817 8.56239 17.3347 15.871 17.3347C23.1797 17.3347 29.2342 22.2817 29.6667 28.4933H2.07541Z" fill="#37474F"/>
<defs>
<linearGradient id="paint0_linear_177_2984" x1="15.871" y1="0.96875" x2="15.871" y2="29.9811" gradientUnits="userSpaceOnUse">
<stop stop-color="#FF7E00"/>
<stop offset="1" stop-color="#FF7E00" stop-opacity="0.49"/>
</linearGradient>
</defs>
</svg>
