<svg width="33" height="30" viewBox="0 0 33 30" fill="none" xmlns="http://www.w3.org/2000/svg">
<path d="M20.4549 16.2932C23.372 14.8054 25.2569 11.867 25.2569 9.15172C25.2569 5.28341 21.4423 0.96875 16.2812 0.96875C11.1202 0.96875 7.30556 5.28341 7.30556 9.15172C7.30556 11.867 9.19045 14.8054 12.1076 16.2932C5.19627 17.8182 0.125 23.0628 0.125 29.2372C0.125 29.6463 0.528906 29.9811 1.02257 29.9811H31.5399C32.0336 29.9811 32.4375 29.6463 32.4375 29.2372C32.4375 23.0628 27.3662 17.8182 20.4549 16.2932ZM9.10069 9.15172C9.10069 5.3206 12.9154 2.45656 16.2812 2.45656C19.6471 2.45656 23.4618 5.3206 23.4618 9.15172C23.4618 12.9828 19.6471 15.8469 16.2812 15.8469C12.9154 15.8469 9.10069 12.9828 9.10069 9.15172ZM1.96502 28.4933C2.4138 22.2817 8.69679 17.3347 16.2812 17.3347C23.8657 17.3347 30.1487 22.2817 30.5975 28.4933H1.96502Z" fill="url(#paint0_linear_158_1325)"/>
<path d="M20.4549 16.2932C23.372 14.8054 25.2569 11.867 25.2569 9.15172C25.2569 5.28341 21.4423 0.96875 16.2812 0.96875C11.1202 0.96875 7.30556 5.28341 7.30556 9.15172C7.30556 11.867 9.19045 14.8054 12.1076 16.2932C5.19627 17.8182 0.125 23.0628 0.125 29.2372C0.125 29.6463 0.528906 29.9811 1.02257 29.9811H31.5399C32.0336 29.9811 32.4375 29.6463 32.4375 29.2372C32.4375 23.0628 27.3662 17.8182 20.4549 16.2932ZM9.10069 9.15172C9.10069 5.3206 12.9154 2.45656 16.2812 2.45656C19.6471 2.45656 23.4618 5.3206 23.4618 9.15172C23.4618 12.9828 19.6471 15.8469 16.2812 15.8469C12.9154 15.8469 9.10069 12.9828 9.10069 9.15172ZM1.96502 28.4933C2.4138 22.2817 8.69679 17.3347 16.2812 17.3347C23.8657 17.3347 30.1487 22.2817 30.5975 28.4933H1.96502Z" fill="#37474F"/>
<defs>
<linearGradient id="paint0_linear_158_1325" x1="16.2812" y1="0.96875" x2="16.2812" y2="29.9811" gradientUnits="userSpaceOnUse">
<stop stop-color="#FF7E00"/>
<stop offset="1" stop-color="#FF7E00" stop-opacity="0.49"/>
</linearGradient>
</defs>
</svg>
