<svg width="61" height="60" viewBox="0 0 61 60" fill="none" xmlns="http://www.w3.org/2000/svg">
<path d="M22.7774 28.9767H24.1374C24.1267 28.6354 24.1587 28.2994 24.2334 27.9687C24.3187 27.6274 24.4521 27.3234 24.6334 27.0567C24.8147 26.79 25.0441 26.5767 25.3214 26.4167C25.6094 26.246 25.9507 26.1607 26.3454 26.1607C26.6441 26.1607 26.9267 26.2087 27.1934 26.3047C27.4601 26.4007 27.6894 26.5394 27.8814 26.7207C28.0841 26.902 28.2441 27.1207 28.3614 27.3767C28.4787 27.622 28.5374 27.8994 28.5374 28.2087C28.5374 28.6034 28.4734 28.95 28.3454 29.2487C28.2281 29.5474 28.0467 29.8247 27.8014 30.0807C27.5667 30.3367 27.2681 30.5927 26.9054 30.8487C26.5427 31.094 26.1214 31.366 25.6414 31.6647C25.2467 31.8994 24.8681 32.15 24.5054 32.4167C24.1427 32.6834 23.8174 32.9927 23.5294 33.3447C23.2414 33.6967 23.0014 34.1127 22.8094 34.5927C22.6281 35.062 22.5107 35.6327 22.4574 36.3047H29.8654V35.1047H24.0414C24.1054 34.7527 24.2387 34.4434 24.4414 34.1767C24.6547 33.8994 24.9054 33.6434 25.1934 33.4087C25.4921 33.174 25.8174 32.9554 26.1694 32.7527C26.5214 32.5394 26.8734 32.326 27.2254 32.1127C27.5774 31.8887 27.9187 31.654 28.2494 31.4087C28.5801 31.1634 28.8734 30.8914 29.1294 30.5927C29.3854 30.2834 29.5881 29.9367 29.7374 29.5527C29.8974 29.1687 29.9774 28.726 29.9774 28.2247C29.9774 27.6914 29.8814 27.222 29.6894 26.8167C29.5081 26.4114 29.2574 26.0754 28.9374 25.8087C28.6174 25.5314 28.2387 25.3234 27.8014 25.1847C27.3747 25.0354 26.9161 24.9607 26.4254 24.9607C25.8281 24.9607 25.2947 25.062 24.8254 25.2647C24.3561 25.4674 23.9614 25.75 23.6414 26.1127C23.3321 26.4647 23.1027 26.886 22.9534 27.3767C22.8041 27.8674 22.7454 28.4007 22.7774 28.9767ZM36.388 32.4487H32.58L36.356 26.8967H36.388V32.4487ZM37.668 32.4487V24.9607H36.58L31.412 32.3367V33.6487H36.388V36.3047H37.668V33.6487H39.204V32.4487H37.668Z" fill="#283445"/>
<rect x="15.5966" y="19.75" width="30.6535" height="21.8398" rx="4.25" stroke="#283445" stroke-width="1.5"/>
</svg>
