<svg width="61" height="61" viewBox="0 0 61 61" fill="none" xmlns="http://www.w3.org/2000/svg">
<path d="M18.4832 18V18.75V18ZM46.2528 20.2618H45.5028H46.2528ZM14.0015 39.2775V38.5275C13.5936 38.5275 13.2605 38.8535 13.2517 39.2613L14.0015 39.2775ZM18.4832 42V42.75L18.4847 42.75L18.4832 42ZM43.7535 41.9472L43.7648 41.1972L43.7519 41.1972L43.7535 41.9472ZM48.012 39.2775L48.7618 39.2621C48.7534 38.854 48.4202 38.5275 48.012 38.5275V39.2775ZM18.4832 18.75H43.7397V17.25H18.4832V18.75ZM43.7397 18.75C44.3419 18.75 44.7801 18.9325 45.0586 19.1844C45.331 19.4309 45.5028 19.7893 45.5028 20.2618H47.0028C47.0028 19.3939 46.6721 18.6215 46.0649 18.0721C45.4639 17.5283 44.6455 17.25 43.7397 17.25V18.75ZM45.5028 20.2618V36.3037H47.0028V20.2618H45.5028ZM45.5028 36.3037C45.5028 36.9813 45.3352 37.3858 45.0677 37.6841C44.7761 38.0092 44.2915 38.2924 43.4941 38.5689L43.9854 39.9861C44.8673 39.6804 45.6393 39.2934 46.1844 38.6856C46.7536 38.0509 47.0028 37.2595 47.0028 36.3037H45.5028ZM43.7397 38.5275H18.4832V40.0275H43.7397V38.5275ZM18.6563 38.5477C17.8625 38.3594 17.5112 38.1028 17.3252 37.8342C17.1251 37.5453 17.0133 37.0984 17.0133 36.3037H15.5133C15.5133 37.1844 15.6253 38.0142 16.0921 38.6882C16.573 39.3826 17.3317 39.7752 18.3101 40.0072L18.6563 38.5477ZM17.0133 36.3037V20.2618H15.5133V36.3037H17.0133ZM17.0133 20.2618C17.0133 19.4144 17.6026 18.75 18.4832 18.75V17.25C16.6833 17.25 15.5133 18.6798 15.5133 20.2618H17.0133ZM18.4832 38.5275H14.0015V40.0275H18.4832V38.5275ZM13.2517 39.2613C13.2278 40.3681 13.4578 41.3843 14.455 42.0233C15.3301 42.5841 16.6695 42.75 18.4832 42.75V41.25C16.6529 41.25 15.7299 41.0588 15.2643 40.7604C14.9208 40.5402 14.7319 40.1951 14.7513 39.2937L13.2517 39.2613ZM18.4847 42.75L43.7551 42.6972L43.7519 41.1972L18.4816 41.25L18.4847 42.75ZM43.7422 42.6971C44.635 42.7106 45.3879 42.6822 46.0126 42.5902C46.634 42.4987 47.1797 42.3376 47.6221 42.0498C48.5956 41.4166 48.7847 40.3785 48.7618 39.2621L47.2621 39.2929C47.2824 40.2804 47.0945 40.6036 46.8042 40.7924C46.6146 40.9157 46.3066 41.0308 45.7942 41.1062C45.2853 41.1811 44.6242 41.2102 43.7648 41.1973L43.7422 42.6971ZM48.012 38.5275H43.7397V40.0275H48.012V38.5275Z" fill="#F5F5F7"/>
<rect x="35.736" y="24.7402" width="3.02356" height="10.4791" stroke="#F5F5F7" stroke-width="1.5"/>
<rect x="29.7883" y="21.7246" width="3.02356" height="13.4948" stroke="#F5F5F7" stroke-width="1.5"/>
<rect x="23.7568" y="28.5098" width="3.02356" height="6.70942" stroke="#F5F5F7" stroke-width="1.5"/>
</svg>
