<svg width="6" height="9" viewBox="0 0 6 9" fill="none" xmlns="http://www.w3.org/2000/svg">
<path d="M4.20051 4.5L0.239414 7.9074C0.158179 7.96926 0.0945013 8.0463 0.0532716 8.13263C0.0120418 8.21895 -0.0056439 8.31225 0.00157265 8.40536C0.00878919 8.49848 0.0407159 8.58894 0.0949014 8.66979C0.149087 8.75064 0.22409 8.81973 0.314152 8.87176C0.464122 8.96515 0.647648 9.00992 0.832283 8.99815C1.01692 8.98639 1.19077 8.91885 1.32311 8.80747L5.77 4.95003C5.84249 4.89282 5.90037 4.82327 5.93996 4.7458C5.97956 4.66833 6 4.58463 6 4.5C6 4.41537 5.97956 4.33167 5.93996 4.2542C5.90037 4.17673 5.84249 4.10718 5.77 4.04997L1.32311 0.192528C1.19077 0.0811514 1.01692 0.0136102 0.832283 0.00184526C0.647648 -0.00991965 0.464122 0.0348492 0.314152 0.128237C0.22409 0.180269 0.149087 0.249362 0.0949014 0.330212C0.0407159 0.411061 0.00878919 0.501517 0.00157265 0.594634C-0.0056439 0.687751 0.0120418 0.781052 0.0532716 0.867374C0.0945013 0.953696 0.158179 1.03074 0.239414 1.0926L4.20051 4.5Z" fill="#FF7E00"/>
</svg>
