<svg width="23" height="18" viewBox="0 0 23 18" fill="none" xmlns="http://www.w3.org/2000/svg">
<path d="M22.2459 9.0872V9.18244C22.2459 9.18244 22.2459 9.2618 22.2459 9.29355C22.2306 9.33211 22.212 9.36928 22.1903 9.40466C22.1774 9.43278 22.1614 9.4594 22.1427 9.48402C22.1041 9.54448 22.0589 9.60039 22.0078 9.65069L14.3967 17.2697C14.2932 17.3753 14.1697 17.4592 14.0334 17.5165C13.8972 17.5737 13.7508 17.6032 13.603 17.6032C13.4552 17.6032 13.3089 17.5737 13.1726 17.5165C13.0363 17.4592 12.9128 17.3753 12.8094 17.2697C12.7018 17.1674 12.6161 17.0443 12.5576 16.9079C12.4991 16.7715 12.4689 16.6245 12.4689 16.4761C12.4689 16.3276 12.4991 16.1807 12.5576 16.0443C12.6161 15.9079 12.7018 15.7847 12.8094 15.6824L18.5316 9.95228H1.77761C1.48503 9.95228 1.20444 9.83605 0.997551 9.62916C0.790666 9.42228 0.674438 9.14168 0.674438 8.8491C0.674438 8.55652 0.790666 8.27592 0.997551 8.06904C1.20444 7.86215 1.48503 7.74593 1.77761 7.74593H18.4919L12.7697 2.01577C12.6621 1.91346 12.5764 1.79035 12.5179 1.65392C12.4594 1.51748 12.4292 1.37058 12.4292 1.22212C12.4292 1.07366 12.4594 0.926751 12.5179 0.790317C12.5764 0.653884 12.6621 0.530773 12.7697 0.428466C12.8731 0.322879 12.9966 0.238997 13.1329 0.181732C13.2692 0.124467 13.4155 0.0949707 13.5633 0.0949707C13.7111 0.0949707 13.8575 0.124467 13.9938 0.181732C14.13 0.238997 14.2535 0.322879 14.357 0.428466L21.9443 8.10307C21.9936 8.15778 22.0387 8.21615 22.0792 8.27767C22.0979 8.30229 22.1139 8.32891 22.1268 8.35704C22.1485 8.39241 22.1671 8.42958 22.1824 8.46815C22.1824 8.46815 22.1824 8.53958 22.1824 8.57926C22.1824 8.61894 22.1824 8.63482 22.1824 8.6745C22.2141 8.81559 22.2141 8.96198 22.1824 9.10307L22.2459 9.0872Z" fill="white"/>
</svg>
