<svg width="61" height="60" viewBox="0 0 61 60" fill="none" xmlns="http://www.w3.org/2000/svg">
<path d="M33.1877 43.6586H14C14.2004 40.6093 15.1728 39.3287 18.5828 37.8765C21.5378 36.8027 22.8215 36.0939 24.4076 34.6215M24.4076 34.6215C27.2677 36.6116 28.8714 36.4698 31.7315 34.6215M24.4076 34.6215V31.1094C23.2922 29.866 22.9514 29.3105 22.9514 27.2976C21.5809 26.3124 21.1526 25.2416 22.4375 23.914C21.4719 20.8684 20.8956 19.2455 21.7522 17.0184C23.2084 13.9346 24.1101 13.4909 25.9495 13.1637C27.3289 12.9273 28.1842 12.9643 29.3331 13.1637C30.7053 13.4693 31.2433 13.9298 31.7315 14.8341C34.9398 15.9164 35.4729 17.8408 33.873 23.914C34.8581 25.2417 34.7765 26.3124 33.1877 27.2976C33.1877 29.3105 32.8879 29.8665 31.7315 31.1094V34.6215M31.7315 34.6215L33.1877 35.6922" stroke="#283445" stroke-width="1.5" stroke-linecap="round"/>
<mask id="path-2-outside-1_128_175" maskUnits="userSpaceOnUse" x="33.13" y="31.5664" width="16" height="16" fill="black">
<rect fill="white" x="33.13" y="31.5664" width="16" height="16"/>
<path d="M47.9555 36.5186C48.7502 38.051 48.9781 39.8148 48.599 41.4988C48.2199 43.1828 47.2581 44.6788 45.8835 45.7228C44.5088 46.7668 42.8096 47.2917 41.0856 47.2049C39.3616 47.1181 37.7237 46.4252 36.4609 45.2484C35.198 44.0716 34.3914 42.4866 34.1834 40.773C33.9754 39.0594 34.3793 37.3274 35.3238 35.8826C36.2684 34.4378 37.6929 33.3731 39.346 32.8763C40.9992 32.3795 42.7746 32.4826 44.3592 33.1673L43.9658 34.0776C42.5958 33.4855 41.0607 33.3964 39.6314 33.826C38.2021 34.2555 36.9705 35.1761 36.1538 36.4252C35.3371 37.6744 34.9879 39.1719 35.1678 40.6535C35.3477 42.135 36.0451 43.5055 37.1369 44.5229C38.2288 45.5404 39.6449 46.1395 41.1355 46.2145C42.626 46.2896 44.0952 45.8358 45.2837 44.9331C46.4723 44.0305 47.3038 42.737 47.6316 41.281C47.9593 39.825 47.7623 38.3 47.0752 36.9751L47.9555 36.5186Z"/>
</mask>
<path d="M47.9555 36.5186C48.7502 38.051 48.9781 39.8148 48.599 41.4988C48.2199 43.1828 47.2581 44.6788 45.8835 45.7228C44.5088 46.7668 42.8096 47.2917 41.0856 47.2049C39.3616 47.1181 37.7237 46.4252 36.4609 45.2484C35.198 44.0716 34.3914 42.4866 34.1834 40.773C33.9754 39.0594 34.3793 37.3274 35.3238 35.8826C36.2684 34.4378 37.6929 33.3731 39.346 32.8763C40.9992 32.3795 42.7746 32.4826 44.3592 33.1673L43.9658 34.0776C42.5958 33.4855 41.0607 33.3964 39.6314 33.826C38.2021 34.2555 36.9705 35.1761 36.1538 36.4252C35.3371 37.6744 34.9879 39.1719 35.1678 40.6535C35.3477 42.135 36.0451 43.5055 37.1369 44.5229C38.2288 45.5404 39.6449 46.1395 41.1355 46.2145C42.626 46.2896 44.0952 45.8358 45.2837 44.9331C46.4723 44.0305 47.3038 42.737 47.6316 41.281C47.9593 39.825 47.7623 38.3 47.0752 36.9751L47.9555 36.5186Z" fill="#283445"/>
<path d="M47.9555 36.5186C48.7502 38.051 48.9781 39.8148 48.599 41.4988C48.2199 43.1828 47.2581 44.6788 45.8835 45.7228C44.5088 46.7668 42.8096 47.2917 41.0856 47.2049C39.3616 47.1181 37.7237 46.4252 36.4609 45.2484C35.198 44.0716 34.3914 42.4866 34.1834 40.773C33.9754 39.0594 34.3793 37.3274 35.3238 35.8826C36.2684 34.4378 37.6929 33.3731 39.346 32.8763C40.9992 32.3795 42.7746 32.4826 44.3592 33.1673L43.9658 34.0776C42.5958 33.4855 41.0607 33.3964 39.6314 33.826C38.2021 34.2555 36.9705 35.1761 36.1538 36.4252C35.3371 37.6744 34.9879 39.1719 35.1678 40.6535C35.3477 42.135 36.0451 43.5055 37.1369 44.5229C38.2288 45.5404 39.6449 46.1395 41.1355 46.2145C42.626 46.2896 44.0952 45.8358 45.2837 44.9331C46.4723 44.0305 47.3038 42.737 47.6316 41.281C47.9593 39.825 47.7623 38.3 47.0752 36.9751L47.9555 36.5186Z" stroke="#283445" stroke-width="0.4" stroke-linejoin="round" mask="url(#path-2-outside-1_128_175)"/>
<path d="M45.7941 39.8477C45.7941 39.7925 45.7493 39.7477 45.6941 39.7477H44.5618C44.5066 39.7477 44.4618 39.7925 44.4618 39.8477C44.4618 40.4341 44.2879 41.0074 43.9621 41.495C43.6363 41.9826 43.1732 42.3627 42.6314 42.5871C42.0896 42.8115 41.4935 42.8702 40.9183 42.7558C40.3431 42.6414 39.8148 42.359 39.4001 41.9443C38.9854 41.5297 38.7031 41.0013 38.5886 40.4262C38.4742 39.851 38.533 39.2548 38.7574 38.713C38.9818 38.1712 39.3618 37.7081 39.8494 37.3823C40.3371 37.0565 40.9103 36.8826 41.4968 36.8826C41.552 36.8826 41.5968 36.8379 41.5968 36.7826L41.5968 35.6504C41.5968 35.5952 41.552 35.5504 41.4968 35.5504C40.6468 35.5504 39.816 35.8024 39.1093 36.2746C38.4026 36.7468 37.8518 37.418 37.5266 38.2032C37.2013 38.9884 37.1162 39.8525 37.282 40.6861C37.4478 41.5197 37.8571 42.2854 38.4581 42.8864C39.0591 43.4874 39.8248 43.8966 40.6584 44.0625C41.492 44.2283 42.356 44.1432 43.1413 43.8179C43.9265 43.4927 44.5977 42.9419 45.0698 42.2352C45.542 41.5285 45.7941 40.6976 45.7941 39.8477Z" fill="#283445" stroke="#283445" stroke-width="0.2" stroke-linejoin="round"/>
<path d="M47.4719 31.4512C47.4719 31.037 47.1361 30.7012 46.7219 30.7012C46.3077 30.7012 45.9719 31.037 45.9719 31.4512H47.4719ZM48.7777 34.514C49.1919 34.514 49.5277 34.1782 49.5277 33.764C49.5277 33.3498 49.1919 33.014 48.7777 33.014V34.514ZM42.2829 40.1595L47.294 34.249L46.1498 33.279L41.1387 39.1895L42.2829 40.1595ZM47.4719 33.764V31.4512H45.9719V33.764H47.4719ZM46.7219 34.514H48.7777V33.014H46.7219V34.514Z" fill="#283445"/>
<circle cx="41.4968" cy="39.7603" r="1.62753" fill="#283445"/>
</svg>
