<svg width="27" height="27" viewBox="0 0 27 27" fill="none" xmlns="http://www.w3.org/2000/svg">
<g clip-path="url(#clip0_1_8476)">
<path d="M13.5 27C20.9566 27 27 20.9566 27 13.5C27 6.04336 20.9566 0 13.5 0C6.04336 0 0 6.04336 0 13.5C0 20.9566 6.04336 27 13.5 27ZM12.2344 18.1406V14.7656H8.85938C8.15801 14.7656 7.59375 14.2014 7.59375 13.5C7.59375 12.7986 8.15801 12.2344 8.85938 12.2344H12.2344V8.85938C12.2344 8.15801 12.7986 7.59375 13.5 7.59375C14.2014 7.59375 14.7656 8.15801 14.7656 8.85938V12.2344H18.1406C18.842 12.2344 19.4062 12.7986 19.4062 13.5C19.4062 14.2014 18.842 14.7656 18.1406 14.7656H14.7656V18.1406C14.7656 18.842 14.2014 19.4062 13.5 19.4062C12.7986 19.4062 12.2344 18.842 12.2344 18.1406Z" fill="white"/>
</g>
<defs>
<clipPath id="clip0_1_8476">
<rect width="27" height="27" fill="white"/>
</clipPath>
</defs>
</svg>
