<svg width="51" height="48" viewBox="0 0 51 48" fill="none" xmlns="http://www.w3.org/2000/svg">
<path d="M9.36523 0.0878906C8.39844 0.322266 7.48047 1.08398 7.01172 2.03125L6.73828 2.58789V12.8418V23.0957L7.06055 23.75C7.45117 24.541 8.13476 25.1953 8.91601 25.5078L9.47266 25.7324L15.459 25.7617L21.4355 25.791V27.1484V28.5156H12.9199C7.92969 28.5156 4.16016 28.5547 3.81836 28.6133C2.64648 28.7988 1.71875 29.4922 1.20117 30.5469L0.878906 31.2012L0.849609 37.8906C0.820312 44.5508 0.820312 44.5801 1.03516 45.2539C1.30859 46.0938 2.04101 46.9336 2.86133 47.334L3.41797 47.6074H13.623H23.8281L24.3848 47.334C25.0977 46.9824 25.7422 46.3477 26.0938 45.625C26.3672 45.0684 26.3672 45.0488 26.3965 42.8906L26.4258 40.7227H32.5977C38.5059 40.7227 38.7793 40.7129 39.0723 40.5371C39.5117 40.2734 39.668 39.7656 39.4531 39.3262C39.3652 39.1406 39.1895 38.9453 39.0527 38.877C38.877 38.7988 37.041 38.7695 32.6172 38.7695H26.4258L26.3965 34.9805L26.3672 31.2012L26.0449 30.5469C25.6543 29.7559 24.9609 29.0918 24.209 28.8184C23.916 28.7012 23.6133 28.6133 23.5352 28.6133C23.4082 28.6133 23.3887 28.2422 23.3887 26.123C23.3887 23.3496 23.418 23.2031 24.0039 22.6855C24.2871 22.4414 24.4629 22.373 24.9707 22.3145C25.3125 22.2852 30.5762 22.2656 36.6699 22.2852L47.7539 22.3145L48.1348 22.5488C48.3691 22.6953 48.5742 22.9395 48.6914 23.1836C48.8672 23.5645 48.877 23.9648 48.877 30.5664V37.5488L48.6523 37.9395C48.3984 38.4082 47.7539 38.7695 47.1875 38.7695C46.6504 38.7695 46.2402 39.1895 46.2402 39.7461C46.2402 40.5078 46.8945 40.8398 47.959 40.625C49.1113 40.3906 50.0195 39.668 50.5176 38.5938L50.7812 38.0371V30.5176V22.998L50.5273 22.4609C50.166 21.709 49.6777 21.1816 48.9941 20.8203C48.2617 20.4297 47.5 20.3125 45.5859 20.3125H44.0918L44.0723 11.3965L44.043 2.49023L43.7109 1.875C43.3203 1.15234 42.8027 0.664062 42.041 0.302734L41.5039 0.0488281L29.9512 0.0195312L18.3984 0L18.1055 0.283203C17.8027 0.585938 17.7246 1.09375 17.9199 1.47461C18.1934 1.97266 17.7441 1.95312 29.7949 1.95312H40.9863L41.3574 2.1582C41.5625 2.27539 41.8164 2.5293 41.9336 2.73438C42.1387 3.10547 42.1387 3.13477 42.1191 9.4043L42.0898 15.7031L39.6973 13.9941C38.3789 13.0566 37.1777 12.1973 37.0117 12.0996C36.6797 11.8945 36.2695 11.8652 35.9766 12.0215C35.8691 12.0801 34.5117 13.0859 32.959 14.2676C31.4062 15.4395 30.1172 16.4062 30.0977 16.4062C30.0684 16.4062 27.9688 14.668 25.4199 12.5488C22.1875 9.85352 20.7129 8.67188 20.498 8.63281C20.3223 8.60352 20.0879 8.63281 19.9609 8.70117C19.834 8.76953 17.4219 10.6934 14.5996 12.9785C11.7773 15.2539 9.28711 17.2754 9.0625 17.4609L8.64258 17.793V10.4297V3.05664L8.86719 2.73438C9.17969 2.26562 9.50195 2.07031 10.1074 1.95312C10.8105 1.81641 11.1328 1.51367 11.1328 0.966797C11.1328 0.634766 11.0742 0.517578 10.8105 0.283203C10.4785 -0.00976562 10.0488 -0.0683594 9.36523 0.0878906ZM26.1133 15.6738L31.6309 20.2637L27.9688 20.3223C25.8984 20.3516 24.1895 20.4199 24.0234 20.4785C23.0957 20.791 22.2168 21.5137 21.8359 22.2852C21.7188 22.5195 21.5723 22.959 21.5137 23.2715L21.3965 23.8379L15.5762 23.8086C9.13086 23.7793 9.4043 23.8086 8.91601 23.125C8.71094 22.832 8.69141 22.6758 8.66211 21.5723L8.62305 20.332L14.4727 15.5957C19.2578 11.7188 20.3418 10.8789 20.459 10.9668C20.5371 11.0352 23.0859 13.1445 26.1133 15.6738ZM39.4531 16.2109L42.1289 18.1152L42.1387 19.209V20.3125H38.4375H34.7363L33.2031 19.0332C31.9238 17.959 31.6895 17.7344 31.7969 17.6172C31.875 17.5488 32.9492 16.7188 34.1797 15.7812C36.1035 14.3262 36.4551 14.0918 36.6016 14.1895C36.6895 14.2578 37.9785 15.166 39.4531 16.2109ZM23.6523 30.6836C23.8184 30.7812 24.0625 30.9961 24.1895 31.1719L24.4141 31.4941L24.4434 38.0469L24.4629 44.5898L24.248 44.9219C24.1211 45.0977 23.8965 45.3418 23.75 45.4492C23.4766 45.6543 23.4668 45.6543 13.623 45.6543C3.82812 45.6543 3.76953 45.6543 3.50586 45.4492C3.35937 45.3418 3.14453 45.127 3.03711 44.9805C2.83203 44.7168 2.83203 44.5996 2.80273 38.2227C2.7832 31.9434 2.7832 31.7285 2.96875 31.3672C3.16406 30.9766 3.50586 30.6934 3.94531 30.5566C4.08203 30.5176 8.50586 30.4883 13.7695 30.498C22.6465 30.5176 23.3594 30.5273 23.6523 30.6836Z" fill="#F8A65E"/>
<path d="M10.4784 33.9746L10.1561 34.2578L10.1268 37.8808C10.0975 41.9531 10.1073 42.0508 10.7421 42.3535C11.0253 42.4902 11.1522 42.5 11.3768 42.4121C11.8554 42.2363 17.6659 38.6621 17.8417 38.4375C18.1151 38.1055 18.0663 37.5293 17.7538 37.2168C17.3339 36.8164 11.4354 33.6914 11.0839 33.6914C10.8983 33.6914 10.6737 33.7988 10.4784 33.9746ZM13.6327 37.1191C14.4433 37.5586 15.0878 37.9199 15.0683 37.9394C15.039 37.959 12.3046 39.6191 12.1386 39.7168C12.0897 39.7363 12.0604 38.9844 12.0604 38.0469C12.0604 37.0996 12.0897 36.3281 12.119 36.3281C12.1483 36.3281 12.8319 36.6797 13.6327 37.1191Z" fill="#F8A65E"/>
<path d="M14.0918 0.156243C13.7598 0.332024 13.623 0.576165 13.623 0.976555C13.623 1.38671 13.7695 1.63085 14.1309 1.8164C14.7754 2.14843 15.5273 1.69921 15.5273 0.957024C15.5273 0.634758 15.4688 0.517571 15.2051 0.283196C14.8535 -0.0293041 14.502 -0.0683666 14.0918 0.156243Z" fill="#F8A65E"/>
<path d="M28.8865 4.26758C27.4607 4.86328 26.6111 6.20117 26.7381 7.67578C26.826 8.85742 27.5779 9.93164 28.6619 10.4395C29.1111 10.6543 29.3357 10.6934 30.0779 10.6934C30.8396 10.6934 31.0252 10.6543 31.5037 10.4199C33.5545 9.41406 34.0232 6.74805 32.4314 5.09766C31.7869 4.41406 31.2107 4.16992 30.1756 4.13086C29.5017 4.11133 29.199 4.14062 28.8865 4.26758ZM30.7127 6.20117C31.1326 6.41602 31.4158 6.875 31.4158 7.36328C31.4451 8.80859 29.6287 9.31641 28.8475 8.08594C28.4764 7.49023 28.7107 6.61133 29.3455 6.21094C29.658 6.01562 30.3416 6.01562 30.7127 6.20117Z" fill="#F8A65E"/>
<path d="M37.9885 24.8242C34.2873 25.4297 33.7014 25.5078 31.9729 25.5664C30.1076 25.6348 30.0588 25.6445 29.6584 25.9082C29.4338 26.0547 29.1311 26.3574 28.9846 26.582C28.7111 26.9824 28.7111 27.0117 28.6818 28.7402C28.6428 30.8399 28.7111 31.2109 29.2873 31.7871C29.7951 32.2852 30.2443 32.4219 31.4358 32.4219H32.3733V34.3848V36.3477L32.6565 36.6309L32.9397 36.9141H34.6975C36.9631 36.9141 36.7971 37.0313 37.4611 34.9316C37.7346 34.0625 37.9983 33.3106 38.0373 33.2715C38.0666 33.2324 39.0822 33.3594 40.2834 33.5449C41.4943 33.7402 42.5783 33.8672 42.7346 33.8379C42.8908 33.7988 43.1057 33.6621 43.2131 33.5254C43.3889 33.291 43.4084 33.1348 43.4084 31.5332V29.7949L43.7502 29.7266C44.1994 29.6484 44.5803 29.1992 44.5803 28.7598C44.5803 28.3301 44.2385 27.9395 43.799 27.8418L43.4572 27.7734L43.4084 26.1817L43.3596 24.5899L43.0861 24.3555C42.8908 24.1895 42.7053 24.1211 42.4514 24.1309C42.2561 24.1406 40.2443 24.4434 37.9885 24.8242ZM41.4553 29.0039C41.4553 30.5078 41.4358 31.7383 41.4065 31.7383C41.3772 31.7383 39.8244 31.4941 37.969 31.2012C36.1037 30.9082 34.5217 30.6641 34.4533 30.6641C34.3557 30.6641 34.3264 30.3223 34.3264 29.0234V27.3731L36.0647 27.0996C37.0119 26.9531 38.5158 26.709 39.4045 26.5625C40.2932 26.4063 41.1135 26.2891 41.2404 26.2793L41.4553 26.2695V29.0039ZM32.3733 29.0039V30.4688H31.4943H30.6154V29.0039V27.5391H31.4943H32.3733V29.0039ZM35.1369 32.7246C35.5276 32.7734 35.8889 32.8418 35.9572 32.8613C36.0354 32.8906 35.967 33.2129 35.7424 33.9063L35.4104 34.9121L34.8733 34.9414L34.3264 34.9707V33.7891C34.3264 33.1445 34.3557 32.6172 34.385 32.6172C34.4143 32.6172 34.7561 32.666 35.1369 32.7246Z" fill="#F8A65E"/>
<path d="M42.363 38.8867C42.2459 38.9453 42.0798 39.1406 41.992 39.3262C41.7576 39.8145 41.9529 40.3125 42.4607 40.5566C43.1248 40.8887 43.7986 40.459 43.7986 39.6973C43.7986 38.9941 43.0271 38.5645 42.363 38.8867Z" fill="#F8A65E"/>
</svg>
