<svg width="77" height="159" viewBox="0 0 77 159" fill="none" xmlns="http://www.w3.org/2000/svg">
<g filter="url(#filter0_f_317_20682)">
<path d="M71.307 144.86C72.443 145.516 72.447 146.58 71.307 147.236L66.667 149.912C66.0327 150.236 65.3309 150.404 64.619 150.404C63.907 150.404 63.2052 150.236 62.571 149.912L11.711 120.54C10.575 119.888 10.567 118.824 11.711 118.168L16.347 115.492C16.9819 115.169 17.6844 115 18.397 115C19.1095 115 19.812 115.169 20.447 115.492L71.307 144.86Z" fill="#292929"/>
</g>
<g filter="url(#filter1_f_317_20682)">
<path d="M57.035 149.076C58.175 149.736 58.179 150.796 57.035 151.452L52.395 154.128C51.7601 154.452 51.0576 154.62 50.345 154.62C49.6324 154.62 48.9299 154.452 48.295 154.128L4.855 129.036C3.719 128.38 3.711 127.316 4.855 126.66L9.49499 123.984C10.1299 123.661 10.8324 123.492 11.545 123.492C12.2576 123.492 12.9601 123.661 13.595 123.984L57.035 149.076Z" fill="#292929"/>
</g>
<path d="M72.0831 29.9999C71.6718 29.1593 71.0166 28.4623 70.2031 27.9999L21.3031 0.179904C21.0742 0.0925986 20.832 0.0452438 20.5871 0.0399036C18.0671 -0.0120964 15.5391 2.3599 15.1831 3.6039C15.1022 3.76108 15.0598 3.93516 15.0591 4.1119V109.848C15.0588 110.673 15.2769 111.484 15.6914 112.198C16.106 112.912 16.702 113.503 17.4191 113.912L66.3231 141.78C66.384 141.809 66.4468 141.835 66.5111 141.856C69.4271 143.092 72.5351 140.52 72.5351 137.828V32.0639C72.5437 31.3504 72.3891 30.6444 72.0831 29.9999Z" fill="#37474F"/>
<path d="M15.1992 3.60005C15.5552 2.35605 18.0832 5.23925e-05 20.6032 0.0360524C20.8441 0.0427503 21.0821 0.0900828 21.3072 0.176053L70.1872 28C70.9068 28.4094 71.5069 28.9998 71.9279 29.7127C72.3489 30.4256 72.5762 31.2362 72.5872 32.0641V137.84C72.5872 140.532 69.4792 143.104 66.5632 141.868C66.4989 141.847 66.4361 141.821 66.3752 141.792L17.4352 113.912C16.7181 113.503 16.1221 112.912 15.7076 112.198C15.2931 111.484 15.0749 110.673 15.0752 109.848V4.11605C15.0746 3.9366 15.1171 3.75963 15.1992 3.60005Z" fill="#455A64"/>
<path d="M65.7471 43.2443C65.7507 42.8316 65.6454 42.4253 65.4417 42.0664C65.2381 41.7075 64.9432 41.4087 64.5871 41.2003L19.1631 15.3803C18.985 15.2784 18.7832 15.2252 18.578 15.2261C18.3729 15.227 18.1716 15.2819 17.9944 15.3853C17.8172 15.4887 17.6703 15.6369 17.5686 15.8151C17.4669 15.9933 17.414 16.1951 17.4151 16.4003V101.688C17.4139 102.1 17.5217 102.505 17.7275 102.862C17.9333 103.219 18.2299 103.515 18.5871 103.72L63.9991 129.6C64.1768 129.702 64.3782 129.755 64.5831 129.754C64.7879 129.754 64.9889 129.699 65.166 129.596C65.3431 129.493 65.49 129.346 65.592 129.168C65.6939 128.99 65.7474 128.789 65.7471 128.584V43.2443Z" fill="#FF7E00"/>
<path opacity="0.2" d="M65.7471 43.2443C65.7507 42.8316 65.6454 42.4253 65.4417 42.0664C65.2381 41.7075 64.9432 41.4087 64.5871 41.2003L19.1631 15.3803C18.985 15.2784 18.7832 15.2252 18.578 15.2261C18.3729 15.227 18.1716 15.2819 17.9944 15.3853C17.8172 15.4887 17.6703 15.6369 17.5686 15.8151C17.4669 15.9933 17.414 16.1951 17.4151 16.4003V101.688C17.4139 102.1 17.5217 102.505 17.7275 102.862C17.9333 103.219 18.2299 103.515 18.5871 103.72L63.9991 129.6C64.1768 129.702 64.3782 129.755 64.5831 129.754C64.7879 129.754 64.9889 129.699 65.166 129.596C65.3431 129.493 65.49 129.346 65.592 129.168C65.6939 128.99 65.7474 128.789 65.7471 128.584V43.2443Z" fill="black"/>
<path opacity="0.3" d="M72.587 32.0639V137.84C72.587 140.532 69.479 143.104 66.563 141.868C66.7386 141.931 66.9269 141.952 67.112 141.927C67.2971 141.903 67.4735 141.834 67.6265 141.727C67.7795 141.62 67.9044 141.478 67.9908 141.312C68.0773 141.147 68.1226 140.963 68.123 140.776V34.9879C68.1179 34.0664 67.8395 33.1671 67.323 32.4039L72.123 30.0039C72.4326 30.6463 72.5913 31.3509 72.587 32.0639Z" fill="black"/>
<path opacity="0.1" d="M20.587 0.0400528C20.8278 0.0467508 21.0659 0.0940833 21.291 0.180053L70.187 28C71.0005 28.4625 71.6557 29.1595 72.067 30L67.267 32.4001C66.8675 31.7893 66.3287 31.2821 65.695 30.9201L16.823 3.10005C16.6846 3.02156 16.5316 2.97218 16.3734 2.95494C16.2152 2.93769 16.0552 2.95295 15.9031 2.99977C15.7511 3.04659 15.6102 3.12398 15.4891 3.22721C15.368 3.33043 15.2693 3.45731 15.199 3.60005C15.551 2.36005 18.079 5.28395e-05 20.587 0.0400528Z" fill="white"/>
<path d="M35.5549 20.568C35.2109 20.368 34.9269 20.524 34.9229 20.92C34.9358 21.1366 34.9994 21.3471 35.1085 21.5346C35.2175 21.7222 35.3691 21.8816 35.5509 22L45.1509 27.54C45.4949 27.74 45.7709 27.572 45.7749 27.176C45.7631 26.9617 45.7008 26.7532 45.5931 26.5676C45.4853 26.3819 45.3351 26.2245 45.1549 26.108L35.5549 20.568Z" fill="#263238"/>
<path d="M47.6112 27.5283C47.2672 27.3323 46.9912 27.4883 46.9912 27.8843C47.001 28.1002 47.0619 28.3108 47.169 28.4986C47.2761 28.6863 47.4263 28.846 47.6072 28.9643C47.9512 29.1603 48.2352 29.0003 48.2352 28.6043C48.2236 28.3884 48.161 28.1783 48.0526 27.9913C47.9441 27.8042 47.7928 27.6456 47.6112 27.5283Z" fill="#263238"/>
<path d="M41.471 19.7641C40.783 19.3641 40.2311 19.6801 40.2271 20.4721C40.2492 20.9027 40.3727 21.3221 40.5874 21.696C40.8022 22.07 41.1022 22.3879 41.463 22.6241C42.147 23.0241 42.719 22.6961 42.719 21.9081C42.6943 21.4777 42.5684 21.0593 42.3516 20.6867C42.1347 20.3142 41.833 19.9981 41.471 19.7641Z" fill="#263238"/>
<path d="M41.467 119.34C40.071 118.54 38.943 119.176 38.939 120.78C38.9801 121.66 39.2293 122.517 39.6659 123.282C40.1026 124.047 40.7143 124.698 41.451 125.18C42.847 125.98 44.007 125.324 44.011 123.72C43.9609 122.842 43.7045 121.987 43.2625 121.226C42.8205 120.465 42.2053 119.819 41.467 119.34Z" fill="#263238"/>
<path d="M58.0711 46.1603C58.0151 46.0123 57.9511 45.8643 57.8831 45.7203C57.6042 45.1513 57.2042 44.6502 56.7111 44.2523C56.5413 44.1196 56.3622 43.9993 56.1751 43.8923L11.7871 18.6403C11.7141 18.6075 11.6376 18.5833 11.5591 18.5683C11.4273 18.5407 11.2935 18.5234 11.1591 18.5163C9.73106 18.4883 8.29906 19.3163 7.34706 20.2163C6.86592 20.634 6.49153 21.1606 6.25507 21.7523C6.22251 21.8234 6.19575 21.8969 6.17506 21.9723C6.1541 22.052 6.14335 22.134 6.14307 22.2163V118.188C6.14279 118.937 6.34156 119.673 6.71906 120.32C6.81196 120.48 6.91484 120.634 7.02706 120.78C7.37087 121.225 7.79905 121.597 8.28706 121.876L52.6871 147.168C52.7416 147.196 52.7977 147.22 52.8551 147.24C52.8551 147.24 52.8551 147.24 52.8751 147.24C55.5231 148.36 58.3431 146.04 58.3431 143.58V47.6003C58.3365 47.1082 58.2445 46.6209 58.0711 46.1603Z" fill="#FF7E00"/>
<path d="M6.2471 21.7519C6.5711 20.6199 8.86711 18.4679 11.1511 18.5159C11.3713 18.5202 11.5891 18.5621 11.7951 18.6399L56.1951 43.8919C56.8438 44.2669 57.3832 44.8048 57.7599 45.4524C58.1367 46.0999 58.3377 46.8347 58.3431 47.5839V143.6C58.3431 146.048 55.5431 148.38 52.8751 147.26C52.8751 147.26 52.8751 147.26 52.8551 147.26C52.7977 147.239 52.7416 147.215 52.6871 147.188L8.28711 121.896C7.63654 121.525 7.09563 120.988 6.71914 120.34C6.34264 119.693 6.14393 118.957 6.14311 118.208V22.2159C6.14162 22.0553 6.17721 21.8965 6.2471 21.7519Z" fill="#FF7E00"/>
<path opacity="0.2" d="M58.323 47.6V143.6C58.323 146.048 55.523 148.38 52.855 147.26C52.855 147.26 52.855 147.26 52.835 147.26C52.9946 147.318 53.1658 147.336 53.3341 147.314C53.5024 147.292 53.6629 147.229 53.802 147.132C53.9412 147.035 54.055 146.905 54.1338 146.755C54.2126 146.605 54.2542 146.438 54.255 146.268V50.268C54.2515 49.4327 54.001 48.6171 53.535 47.9239L57.883 45.752C58.1678 46.3267 58.3182 46.9586 58.323 47.6Z" fill="white"/>
<path opacity="0.4" d="M11.1471 18.5159C11.3672 18.5202 11.5851 18.5621 11.7911 18.6399L56.1911 43.8919C56.931 44.316 57.5261 44.953 57.8991 45.7199L53.5511 47.8919C53.1883 47.3371 52.6988 46.8765 52.1231 46.5479L7.72307 21.2919C7.59685 21.2211 7.45752 21.1768 7.3136 21.1617C7.16968 21.1467 7.02419 21.1611 6.88604 21.2041C6.74788 21.2472 6.61995 21.318 6.51008 21.4122C6.40022 21.5064 6.31072 21.622 6.24707 21.7519C6.58707 20.6199 8.86307 18.4679 11.1471 18.5159Z" fill="white"/>
<path opacity="0.3" d="M6.2471 21.7519C6.5711 20.6199 8.86711 18.4679 11.1511 18.5159C11.3713 18.5202 11.5891 18.5621 11.7951 18.6399L56.1951 43.8919C56.8438 44.2669 57.3832 44.8048 57.7599 45.4524C58.1367 46.0999 58.3377 46.8347 58.3431 47.5839V143.6C58.3431 146.048 55.5431 148.38 52.8751 147.26C52.8751 147.26 52.8751 147.26 52.8551 147.26C52.7977 147.239 52.7416 147.215 52.6871 147.188L8.28711 121.896C7.63654 121.525 7.09563 120.988 6.71914 120.34C6.34264 119.693 6.14393 118.957 6.14311 118.208V22.2159C6.14162 22.0553 6.17721 21.8965 6.2471 21.7519Z" fill="white"/>
<path opacity="0.3" d="M10.035 47.5998C10.0336 47.1138 9.94699 46.6318 9.77905 46.1758C9.94699 46.6318 10.0336 47.1138 10.035 47.5998Z" fill="white"/>
<path d="M49.6992 67.6437L10.1392 44.7997C9.75921 44.5797 9.45121 44.7557 9.45121 45.1997L9.38721 89.7877C9.39879 90.0279 9.46719 90.2619 9.58679 90.4705C9.70639 90.6791 9.87379 90.8563 10.0752 90.9877L49.6312 113.828C50.0112 114.044 50.3192 113.872 50.3232 113.428L50.3792 68.8357C50.3682 68.5974 50.3009 68.3651 50.1827 68.1579C50.0644 67.9506 49.8988 67.7744 49.6992 67.6437Z" fill="#FF7E00"/>
<path d="M11.9512 29.9839L12.4232 30.2559L12.4272 28.2359L11.9592 27.9639L11.9512 29.9839Z" fill="white"/>
<path d="M11.1431 29.5158L11.6111 29.7878L11.6191 28.1518L11.1471 27.8838L11.1431 29.5158Z" fill="white"/>
<path d="M10.3352 29.0479L10.8032 29.3199L10.8072 28.1079L10.3392 27.8359L10.3352 29.0479Z" fill="white"/>
<path d="M9.5271 28.5842L9.99509 28.8522L9.9991 28.0362L9.5271 27.7642V28.5842Z" fill="white"/>
<path d="M13.7031 30.9919L16.5791 32.6559L16.5831 30.9599L13.7071 29.2959L13.7031 30.9919Z" fill="white"/>
<path d="M18.011 33.4801L19.451 34.3121L19.455 32.6161L18.015 31.7881L18.011 33.4801Z" fill="white"/>
<path d="M47.7153 50.4198L47.7193 49.0518L49.2633 49.9438L47.7193 49.0518L47.7153 50.4198Z" fill="white"/>
<path d="M47.7153 50.4198L49.2633 51.3118V49.9438L47.7193 49.0518L47.7153 50.4198Z" fill="#FF7E00"/>
<path d="M50.3511 50.8001V50.2641L47.4351 48.5801V50.5801L50.3511 52.2641V51.7321L50.7231 51.9481V50.9961L50.3511 50.8001ZM49.2631 51.3321L47.7151 50.4401V49.0721L49.2631 49.9641V51.3321Z" fill="white"/>
<path d="M43.2549 48.0241L46.1309 49.6841L46.1389 47.9881L43.2589 46.3281L43.2549 48.0241Z" fill="white"/>
<path d="M29.519 39.9919L32.395 41.6559L32.4031 39.9599L29.523 38.2959L29.519 39.9919Z" fill="white"/>
<path d="M22.7872 112.096L22.7832 113.788L30.1592 118.048L30.1672 116.356L22.7872 112.096Z" fill="#FF7E00"/>
<path d="M33.547 112.78L25.955 108.392L25.947 110.084L33.543 114.468L33.547 112.78Z" fill="#FF7E00"/>
<path d="M10.083 103.56L19.407 108.98L19.411 107.292L10.087 101.872L10.083 103.56Z" fill="#FF7E00"/>
<path d="M23.9111 107.216L10.0951 99.1997L10.0911 100.888L23.9071 108.904L23.9111 107.216Z" fill="#FF7E00"/>
<path d="M21.4431 110.156L38.2671 119.868L38.2711 118.18L21.4511 108.468L21.4431 110.156Z" fill="#FF7E00"/>
<path d="M20.9951 111.064L10.0951 104.772L10.0911 106.46L20.9911 112.752L20.9951 111.064Z" fill="#FF7E00"/>
<path d="M35.5029 115.6L48.9469 123.364L48.9549 121.672L35.5069 113.908L35.5029 115.6Z" fill="#FF7E00"/>
<path d="M40.2271 121L48.9431 126.032L48.947 124.344L40.235 119.312L40.2271 121Z" fill="#FF7E00"/>
<path d="M10.0911 112.268L26.9151 121.98L26.9191 120.292L10.0951 110.576L10.0911 112.268Z" fill="#FF7E00"/>
<path d="M10.0951 114.568L10.0911 116.26L20.9951 122.552V120.86L10.0951 114.568Z" fill="#FF7E00"/>
<path d="M29.4112 125.716L22.7632 121.88V123.572L29.4072 127.408L29.4112 125.716Z" fill="#FF7E00"/>
<path d="M11.099 93.8717C10.997 93.7968 10.8768 93.7506 10.7508 93.7379C10.6249 93.7253 10.4979 93.7466 10.383 93.7997C9.98301 94.0237 9.98301 94.7557 10.383 95.4357L10.611 95.8357L12.035 98.2997L13.467 97.4997L13.699 97.3677C14.099 97.1437 14.099 96.4077 13.699 95.7277C13.5306 95.4155 13.2856 95.1512 12.987 94.9597C12.8841 94.8867 12.764 94.8417 12.6385 94.829C12.513 94.8164 12.3864 94.8366 12.271 94.8877L12.039 95.0197L11.811 94.6197C11.6416 94.3135 11.3965 94.056 11.099 93.8717Z" fill="white"/>
<path d="M17.035 97.3798C17.5465 97.7123 17.9722 98.161 18.2773 98.6893C18.5825 99.2176 18.7585 99.8105 18.791 100.42C18.8024 100.728 18.7186 101.033 18.551 101.292L18.783 102.44L17.903 101.664C17.5927 101.675 17.2862 101.592 17.023 101.428C16.5122 101.095 16.0873 100.646 15.7829 100.118C15.4784 99.5893 15.303 98.9966 15.271 98.3878C15.275 97.2678 16.063 96.8198 17.035 97.3798Z" fill="white"/>
<path d="M32.1031 61.4998L34.1471 65.2358L37.1191 66.2718L38.3751 70.1598L41.3791 72.3038L41.7271 75.9598L44.4711 79.0038L43.8671 82.0718L46.0831 85.7118L44.5951 87.8918L46.0671 91.7798L43.8391 92.8558L44.4191 96.6078L41.6671 96.4758L41.3031 99.7238L38.2951 98.3958L37.0231 100.824L34.0551 98.4278L31.9951 99.7998L29.3591 96.5758L26.7151 96.7518L24.6671 93.0118L21.6991 91.9798L20.4431 88.0878L17.4391 85.9478L17.0951 82.2878L14.3511 79.2478L14.9511 76.1758L12.7351 72.5358L14.2231 70.3558L12.7511 66.4678L14.9831 65.3918L14.3991 61.6398L17.1511 61.7758L17.5151 58.5278L20.5231 59.8518L21.7991 57.4238L24.7631 59.8198L26.8231 58.4518L29.4591 61.6758L32.1031 61.4998Z" fill="#FF7E00"/>
<g opacity="0.4">
<path d="M32.1031 61.4998L34.1471 65.2358L37.1191 66.2718L38.3751 70.1598L41.3791 72.3038L41.7271 75.9598L44.4711 79.0038L43.8671 82.0718L46.0831 85.7118L44.5951 87.8918L46.0671 91.7798L43.8391 92.8558L44.4191 96.6078L41.6671 96.4758L41.3031 99.7238L38.2951 98.3958L37.0231 100.824L34.0551 98.4278L31.9951 99.7998L29.3591 96.5758L26.7151 96.7518L24.6671 93.0118L21.6991 91.9798L20.4431 88.0878L17.4391 85.9478L17.0951 82.2878L14.3511 79.2478L14.9511 76.1758L12.7351 72.5358L14.2231 70.3558L12.7511 66.4678L14.9831 65.3918L14.3991 61.6398L17.1511 61.7758L17.5151 58.5278L20.5231 59.8518L21.7991 57.4238L24.7631 59.8198L26.8231 58.4518L29.4591 61.6758L32.1031 61.4998Z" fill="white"/>
</g>
<path d="M29.4512 64.5238C36.4672 68.5758 42.1352 78.3958 42.1112 86.4598C42.0872 94.5238 36.3832 97.7718 29.3872 93.7238C22.3912 89.6758 16.7032 79.8518 16.7232 71.7878C16.7432 63.7238 22.4312 60.4758 29.4512 64.5238Z" fill="#FF7E00"/>
<g opacity="0.2">
<path d="M29.4512 64.5238C36.4672 68.5758 42.1352 78.3958 42.1112 86.4598C42.0872 94.5238 36.3832 97.7718 29.3872 93.7238C22.3912 89.6758 16.7032 79.8518 16.7232 71.7878C16.7432 63.7238 22.4312 60.4758 29.4512 64.5238Z" fill="white"/>
</g>
<path d="M38.0912 77.2001C38.3992 77.3761 38.5832 77.9561 38.3072 78.0561C35.7832 78.9761 30.4352 81.1801 27.1712 84.3481C27.0565 84.4363 26.9159 84.4841 26.7712 84.4841C26.6265 84.4841 26.4859 84.4363 26.3712 84.3481C26.0236 84.1365 25.7454 83.8278 25.5712 83.4601C24.0724 80.4432 22.3934 77.5192 20.5432 74.7041C20.2072 74.1921 20.4232 73.7081 20.8232 73.9401C20.856 73.9582 20.8868 73.9797 20.9152 74.0041C22.9316 75.6995 24.6972 77.6725 26.1592 79.8641C31.1032 76.6881 35.5912 76.7721 37.9592 77.1521C38.0057 77.1602 38.0504 77.1764 38.0912 77.2001Z" fill="white"/>
<path d="M12.771 38.4719C13.5149 38.9561 14.1338 39.6092 14.5773 40.378C15.0208 41.1468 15.2763 42.0096 15.323 42.8959C15.323 44.5199 14.167 45.1759 12.755 44.3599C12.0082 43.8776 11.3861 43.2252 10.9398 42.4563C10.4934 41.6874 10.2355 40.8237 10.187 39.9359C10.207 38.3119 11.355 37.6559 12.771 38.4719Z" fill="white"/>
<path d="M31.475 51.1679L17.659 43.1519L17.655 44.8439L31.471 52.8599L31.475 51.1679Z" fill="white"/>
<defs>
<filter id="filter0_f_317_20682" x="6.85596" y="111" width="69.3047" height="43.4043" filterUnits="userSpaceOnUse" color-interpolation-filters="sRGB">
<feFlood flood-opacity="0" result="BackgroundImageFix"/>
<feBlend mode="normal" in="SourceGraphic" in2="BackgroundImageFix" result="shape"/>
<feGaussianBlur stdDeviation="2" result="effect1_foregroundBlur_317_20682"/>
</filter>
<filter id="filter1_f_317_20682" x="0" y="119.492" width="61.8916" height="39.1284" filterUnits="userSpaceOnUse" color-interpolation-filters="sRGB">
<feFlood flood-opacity="0" result="BackgroundImageFix"/>
<feBlend mode="normal" in="SourceGraphic" in2="BackgroundImageFix" result="shape"/>
<feGaussianBlur stdDeviation="2" result="effect1_foregroundBlur_317_20682"/>
</filter>
</defs>
</svg>
