<svg width="61" height="43" viewBox="0 0 61 43" fill="none" xmlns="http://www.w3.org/2000/svg">
<path fill-rule="evenodd" clip-rule="evenodd" d="M4.93 0H55.42C58.14 0 60.435 2.295 60.35 5.015V37.145C60.35 39.865 58.14 42.075 55.42 42.075H4.93C2.21 42.075 0 39.865 0 37.145V4.93C0 2.21 2.21 0 4.93 0ZM58.31 37.145V36.295V34.17V6.8V4.76C58.14 3.23 56.95 2.125 55.42 2.125H4.93C3.4 2.125 2.21 3.315 2.04 4.76V6.8V34.17V36.295V37.145C2.04 38.76 3.315 40.035 4.93 40.035H55.42C57.035 40.035 58.31 38.76 58.31 37.145Z" fill="url(#paint0_linear_129_25)"/>
<path d="M48.0396 33.6482C47.9373 33.6484 47.8373 33.6187 47.7522 33.5628C47.6671 33.5069 47.6008 33.4274 47.5617 33.3343C47.5225 33.2412 47.5124 33.1388 47.5324 33.04C47.5525 32.9412 47.6019 32.8505 47.6744 32.7794C47.9146 32.5422 48.0525 32.2145 48.0525 31.8796C48.0525 31.5447 47.9146 31.2169 47.6744 30.9798C47.6264 30.9325 47.5884 30.8764 47.5624 30.8147C47.5365 30.7529 47.5231 30.6868 47.5231 30.62C47.5231 30.5531 47.5365 30.487 47.5624 30.4252C47.5884 30.3635 47.6264 30.3074 47.6744 30.2601C47.7223 30.2129 47.7793 30.1754 47.8419 30.1498C47.9046 30.1242 47.9717 30.1111 48.0396 30.1111C48.1074 30.1111 48.1745 30.1242 48.2372 30.1498C48.2999 30.1754 48.3568 30.2129 48.4048 30.2601C48.8376 30.6866 49.0856 31.2765 49.0856 31.8796C49.0856 32.4827 48.8376 33.0726 48.4048 33.4991C48.3079 33.5945 48.1765 33.6482 48.0396 33.6482V33.6482Z" fill="url(#paint1_linear_129_25)"/>
<path d="M49.5009 35.0873C49.3986 35.0875 49.2986 35.0578 49.2135 35.0019C49.1284 34.9461 49.0621 34.8665 49.023 34.7734C48.9838 34.6804 48.9737 34.5779 48.9937 34.4791C49.0138 34.3803 49.0632 34.2896 49.1357 34.2186C49.7607 33.6027 50.1187 32.7502 50.1187 31.8794C50.1187 31.0086 49.7607 30.1561 49.1357 29.5403C49.0877 29.4931 49.0497 29.437 49.0237 29.3752C48.9978 29.3135 48.9844 29.2473 48.9844 29.1805C48.9844 29.1137 48.9978 29.0475 49.0237 28.9858C49.0497 28.924 49.0877 28.8679 49.1357 28.8207C49.1836 28.7734 49.2406 28.7359 49.3032 28.7104C49.3659 28.6848 49.433 28.6716 49.5009 28.6716C49.5687 28.6716 49.6359 28.6848 49.6985 28.7104C49.7612 28.7359 49.8181 28.7734 49.8661 28.8207C50.6832 29.6258 51.1517 30.7409 51.1517 31.8794C51.1517 33.0179 50.6832 34.133 49.8661 34.9382C49.8182 34.9856 49.7613 35.0231 49.6986 35.0487C49.6359 35.0743 49.5687 35.0874 49.5009 35.0873V35.0873Z" fill="url(#paint2_linear_129_25)"/>
<path d="M50.9616 36.5272C50.8593 36.5275 50.7593 36.4977 50.6742 36.4419C50.5892 36.386 50.5228 36.3064 50.4837 36.2134C50.4446 36.1203 50.4344 36.0178 50.4545 35.919C50.4745 35.8202 50.5239 35.7296 50.5964 35.6585C51.6057 34.6635 52.1848 33.2863 52.1848 31.8795C52.1848 30.4728 51.6057 29.0956 50.5964 28.1006C50.5484 28.0534 50.5104 27.9973 50.4845 27.9355C50.4585 27.8738 50.4451 27.8076 50.4451 27.7408C50.4451 27.674 50.4585 27.6078 50.4845 27.5461C50.5104 27.4843 50.5484 27.4282 50.5964 27.381C50.6444 27.3337 50.7013 27.2962 50.764 27.2707C50.8266 27.2451 50.8938 27.2319 50.9616 27.2319C51.0294 27.2319 51.0966 27.2451 51.1592 27.2707C51.2219 27.2962 51.2788 27.3337 51.3268 27.381C52.5288 28.5653 53.2179 30.2051 53.2179 31.8795C53.2179 33.554 52.5288 35.1938 51.3268 36.3781C51.2789 36.4255 51.222 36.463 51.1593 36.4886C51.0966 36.5142 51.0294 36.5273 50.9616 36.5272V36.5272ZM45.4826 33.6481C45.4148 33.6482 45.3476 33.6351 45.2849 33.6095C45.2223 33.5839 45.1654 33.5463 45.1174 33.499C44.6846 33.0725 44.4366 32.4826 44.4366 31.8795C44.4366 31.2764 44.6846 30.6866 45.1174 30.2601C45.1654 30.2128 45.2223 30.1753 45.285 30.1498C45.3477 30.1242 45.4148 30.111 45.4826 30.111C45.5505 30.111 45.6176 30.1242 45.6803 30.1498C45.7429 30.1753 45.7999 30.2128 45.8478 30.2601C45.8958 30.3073 45.9338 30.3634 45.9598 30.4252C45.9857 30.4869 45.9991 30.5531 45.9991 30.6199C45.9991 30.6867 45.9857 30.7529 45.9598 30.8146C45.9338 30.8764 45.8958 30.9325 45.8478 30.9797C45.6076 31.2169 45.4697 31.5447 45.4697 31.8795C45.4697 32.2144 45.6076 32.5422 45.8478 32.7794C45.9203 32.8504 45.9697 32.9411 45.9898 33.0399C46.0098 33.1387 45.9997 33.2412 45.9605 33.3343C45.9214 33.4273 45.8551 33.5069 45.77 33.5628C45.6849 33.6186 45.5849 33.6484 45.4826 33.6481V33.6481Z" fill="url(#paint3_linear_129_25)"/>
<path d="M44.0214 35.0873C43.9535 35.0874 43.8863 35.0743 43.8237 35.0487C43.761 35.0231 43.7041 34.9855 43.6562 34.9382C42.839 34.133 42.3705 33.0179 42.3705 31.8794C42.3705 30.7409 42.839 29.6258 43.6562 28.8207C43.7041 28.7734 43.761 28.7359 43.8237 28.7104C43.8864 28.6848 43.9535 28.6716 44.0214 28.6716C44.0892 28.6716 44.1563 28.6848 44.219 28.7104C44.2817 28.7359 44.3386 28.7734 44.3865 28.8207C44.4345 28.8679 44.4725 28.924 44.4985 28.9858C44.5245 29.0475 44.5378 29.1137 44.5378 29.1805C44.5378 29.2473 44.5245 29.3135 44.4985 29.3752C44.4725 29.437 44.4345 29.4931 44.3865 29.5403C43.7615 30.1561 43.4036 31.0086 43.4036 31.8794C43.4036 32.7502 43.7615 33.6027 44.3865 34.2186C44.459 34.2896 44.5084 34.3803 44.5285 34.4791C44.5485 34.5779 44.5384 34.6804 44.4992 34.7734C44.4601 34.8665 44.3938 34.9461 44.3087 35.0019C44.2236 35.0578 44.1236 35.0875 44.0214 35.0873V35.0873Z" fill="url(#paint4_linear_129_25)"/>
<path d="M42.5606 36.5272C42.4927 36.5273 42.4255 36.5142 42.3629 36.4886C42.3002 36.463 42.2433 36.4255 42.1954 36.3781C40.9934 35.1938 40.3043 33.554 40.3043 31.8795C40.3043 30.2051 40.9934 28.5653 42.1954 27.381C42.2433 27.3337 42.3003 27.2962 42.3629 27.2707C42.4256 27.2451 42.4928 27.2319 42.5606 27.2319C42.6284 27.2319 42.6956 27.2451 42.7582 27.2707C42.8209 27.2962 42.8778 27.3337 42.9258 27.381C42.9737 27.4282 43.0118 27.4843 43.0377 27.5461C43.0637 27.6078 43.077 27.674 43.077 27.7408C43.077 27.8076 43.0637 27.8738 43.0377 27.9355C43.0118 27.9973 42.9737 28.0534 42.9258 28.1006C41.9164 29.0956 41.3374 30.4728 41.3374 31.8795C41.3374 33.2863 41.9164 34.6635 42.9258 35.6585C42.9982 35.7296 43.0476 35.8202 43.0677 35.919C43.0878 36.0178 43.0776 36.1203 43.0385 36.2134C42.9993 36.3064 42.933 36.386 42.8479 36.4419C42.7629 36.4977 42.6628 36.5275 42.5606 36.5272V36.5272Z" fill="url(#paint5_linear_129_25)"/>
<path d="M46.7611 32.3885C47.0464 32.3885 47.2777 32.1606 47.2777 31.8796C47.2777 31.5985 47.0464 31.3706 46.7611 31.3706C46.4758 31.3706 46.2446 31.5985 46.2446 31.8796C46.2446 32.1606 46.4758 32.3885 46.7611 32.3885Z" fill="url(#paint6_linear_129_25)"/>
<path fill-rule="evenodd" clip-rule="evenodd" d="M6.65691 8.38898C5.80674 10.9397 5.9828 11.2 6.09836 11.6892C6.18604 12.0602 6.31773 12.3104 6.57062 12.5866C6.79643 12.8331 7.33184 13.0827 7.3975 13.0827C7.82269 13.0418 7.99556 12.6745 7.76133 12.5866C7.69997 12.5521 7.39345 12.4918 7.27048 12.4296C7.0117 12.2988 6.75997 12.1192 6.65691 11.8174C6.5155 11.4031 6.33378 10.9174 7.08641 8.69509L7.67976 6.91965C7.67976 6.91965 7.84508 6.55232 7.9566 6.55232C8.06811 6.55232 8.68168 6.61354 8.68168 6.61354C9.3566 6.71184 9.74265 7.25583 9.74316 7.98541C9.74335 8.25201 9.61637 8.56743 8.87625 10.7823C8.41747 12.1553 8.02117 13.4087 7.99556 13.5675C7.90144 14.152 8.1139 14.8095 8.5165 15.18C8.62859 15.283 8.86449 15.4383 9.04078 15.525L9.3613 15.6825C10.1118 16.0389 12.1751 16.1569 12.9843 15.7105C13.1607 15.6132 13.2221 15.3071 13.2221 15.3071C13.2221 15.3071 13.3448 14.7918 13.4061 14.3887C13.4723 13.9542 13.3235 13.7765 13.2221 13.5675C13.0646 13.2433 12.6286 12.9385 12.3299 12.7942C11.9182 12.5953 11.6862 12.5632 10.6557 12.5626L9.67825 12.5621L9.49928 12.5866C9.04078 12.8582 9.48904 13.1881 9.49928 13.1984C9.50956 13.2086 9.90007 13.2153 10.3671 13.2132C10.8341 13.2111 11.3462 13.2285 11.505 13.2519C12.3589 13.3778 12.7759 14.0167 12.5408 14.8388L12.478 15.0584H11.1505C9.68974 15.0584 9.41563 15.0226 9.11058 14.7918C8.88033 14.6176 8.7989 14.5109 8.71696 14.2759C8.56865 13.8504 8.6752 13.761 9.60203 11.0215L10.0315 9.79708L10.3997 8.51142C10.3997 8.51142 10.461 8.37773 10.5224 7.98541C10.5837 7.59309 10.3246 6.99558 9.97017 6.61354C9.54159 6.15144 8.99644 6.0022 8.19083 6.00132C8.19083 6.00132 7.8647 5.98833 7.67976 6.0438C7.20912 6.18499 6.65691 8.38898 6.65691 8.38898Z" fill="url(#paint7_linear_129_25)"/>
<defs>
<linearGradient id="paint0_linear_129_25" x1="-10.4853" y1="52.4453" x2="107.015" y2="-11.5547" gradientUnits="userSpaceOnUse">
<stop stop-color="#283445"/>
<stop offset="1" stop-color="#283445" stop-opacity="0.5"/>
</linearGradient>
<linearGradient id="paint1_linear_129_25" x1="47.425" y1="32.306" x2="49.1197" y2="32.306" gradientUnits="userSpaceOnUse">
<stop stop-color="#293546"/>
<stop offset="1" stop-color="#949AA2"/>
</linearGradient>
<linearGradient id="paint2_linear_129_25" x1="48.8487" y1="32.6528" x2="51.1991" y2="32.6528" gradientUnits="userSpaceOnUse">
<stop stop-color="#293546"/>
<stop offset="1" stop-color="#949AA2"/>
</linearGradient>
<linearGradient id="paint3_linear_129_25" x1="43.8897" y1="33" x2="53.4097" y2="33" gradientUnits="userSpaceOnUse">
<stop stop-color="#293546"/>
<stop offset="1" stop-color="#949AA2"/>
</linearGradient>
<linearGradient id="paint4_linear_129_25" x1="42.2354" y1="32.6528" x2="44.5859" y2="32.6528" gradientUnits="userSpaceOnUse">
<stop stop-color="#293546"/>
<stop offset="1" stop-color="#949AA2"/>
</linearGradient>
<linearGradient id="paint5_linear_129_25" x1="40.1316" y1="33" x2="43.1383" y2="33" gradientUnits="userSpaceOnUse">
<stop stop-color="#293546"/>
<stop offset="1" stop-color="#949AA2"/>
</linearGradient>
<linearGradient id="paint6_linear_129_25" x1="46.1802" y1="32.0022" x2="47.3002" y2="32.0022" gradientUnits="userSpaceOnUse">
<stop stop-color="#293546"/>
<stop offset="1" stop-color="#949AA2"/>
</linearGradient>
<linearGradient id="paint7_linear_129_25" x1="6" y1="6" x2="12.9804" y2="16.0136" gradientUnits="userSpaceOnUse">
<stop stop-color="#293546"/>
<stop offset="1" stop-color="#8D939C"/>
</linearGradient>
</defs>
</svg>
