<svg width="61" height="60" viewBox="0 0 61 60" fill="none" xmlns="http://www.w3.org/2000/svg">
<path d="M15.0099 25.2423L15 17.9296C15 16.6445 15 16.6445 16.9748 16.6445H45.6617C47.0257 16.6445 47.0257 16.6445 47.0257 18.3393V25.2423M15.0099 25.2423L15.032 41.6112C15.032 42.9753 15.032 42.9753 16.9748 42.9753H45.6617C47.0257 42.9753 47.0257 42.9753 47.0257 41.6112V25.2423M15.0099 25.2423H47.0257" stroke="#283445" stroke-width="1.5"/>
<circle cx="18.5135" cy="20.9428" r="1.44674" fill="#283445"/>
<circle cx="22.9778" cy="20.9428" r="1.44674" fill="#283445"/>
<rect x="27.324" y="19.502" width="16.1089" height="2.96424" stroke="#283445" stroke-width="1.5"/>
<rect x="18.5608" y="29.0918" width="14.5382" height="3.54294" stroke="#283445" stroke-width="1.5"/>
<rect x="18.5608" y="35.707" width="14.5382" height="3.54294" stroke="#283445" stroke-width="1.5"/>
<rect x="36.8312" y="29.0918" width="6.60177" height="10.1566" stroke="#283445" stroke-width="1.5"/>
</svg>
