<svg width="60" height="61" viewBox="0 0 60 61" fill="none" xmlns="http://www.w3.org/2000/svg">
<rect x="25.7784" y="26.5977" width="7.2686" height="19.8339" stroke="#283445" stroke-width="1.5"/>
<rect x="36.8071" y="32.6543" width="7.2686" height="13.7773" stroke="#283445" stroke-width="1.5"/>
<rect x="14.75" y="37.7168" width="7.2686" height="8.71497" stroke="#283445" stroke-width="1.5"/>
<path d="M17.45 34C17.45 34.3038 17.6962 34.55 18 34.55C18.3038 34.55 18.55 34.3038 18.55 34H17.45ZM18.3889 24.6111C18.1741 24.3963 17.8259 24.3963 17.6111 24.6111L14.1109 28.1113C13.8961 28.3261 13.8961 28.6743 14.1109 28.8891C14.3257 29.1039 14.6739 29.1039 14.8887 28.8891L18 25.7778L21.1113 28.8891C21.3261 29.1039 21.6743 29.1039 21.8891 28.8891C22.1039 28.6743 22.1039 28.3261 21.8891 28.1113L18.3889 24.6111ZM18.55 34V25H17.45V34H18.55Z" fill="#283445"/>
<path d="M28.45 24C28.45 24.3038 28.6962 24.55 29 24.55C29.3038 24.55 29.55 24.3038 29.55 24H28.45ZM29.3889 14.6111C29.1741 14.3963 28.8259 14.3963 28.6111 14.6111L25.1109 18.1113C24.8961 18.3261 24.8961 18.6743 25.1109 18.8891C25.3257 19.1039 25.6739 19.1039 25.8887 18.8891L29 15.7778L32.1113 18.8891C32.3261 19.1039 32.6743 19.1039 32.8891 18.8891C33.1039 18.6743 33.1039 18.3261 32.8891 18.1113L29.3889 14.6111ZM29.55 24V15H28.45V24H29.55Z" fill="#283445"/>
<path d="M39.45 29C39.45 29.3038 39.6962 29.55 40 29.55C40.3038 29.55 40.55 29.3038 40.55 29H39.45ZM40.3889 20.6111C40.1741 20.3963 39.8259 20.3963 39.6111 20.6111L36.1109 24.1113C35.8961 24.3261 35.8961 24.6743 36.1109 24.8891C36.3257 25.1039 36.6739 25.1039 36.8887 24.8891L40 21.7778L43.1113 24.8891C43.3261 25.1039 43.6743 25.1039 43.8891 24.8891C44.1039 24.6743 44.1039 24.3261 43.8891 24.1113L40.3889 20.6111ZM40.55 29V21H39.45V29H40.55Z" fill="#283445"/>
</svg>
