<svg width="49" height="50" viewBox="0 0 49 50" fill="none" xmlns="http://www.w3.org/2000/svg">
<path d="M24.3008 0.188337C24.0957 0.383649 24.0859 0.47154 24.0859 2.04381V3.6942L24.3398 3.88951C24.6816 4.15318 24.8965 4.14342 25.2285 3.86021C25.502 3.62584 25.502 3.61607 25.5312 2.23912C25.5508 1.4774 25.541 0.744977 25.5117 0.618024C25.3652 0.0320868 24.7109 -0.192523 24.3008 0.188337Z" fill="#FC1E60"/>
<path d="M13.998 3.29382C13.9004 3.39148 13.832 3.62585 13.832 3.8114C13.832 4.10437 13.959 4.27039 14.9355 5.24695C15.8828 6.18445 16.0781 6.3407 16.3516 6.3407C16.7617 6.3407 17.0547 6.04773 17.0547 5.62781C17.0547 5.35437 16.9082 5.16882 15.9512 4.21179C14.9648 3.22546 14.8184 3.11804 14.5059 3.11804C14.291 3.11804 14.0957 3.1864 13.998 3.29382Z" fill="#FC1E60"/>
<path d="M33.5781 4.22156C32.6504 5.16882 32.4844 5.38367 32.4844 5.63757C32.4844 6.04773 32.7871 6.3407 33.1973 6.3407C33.4707 6.3407 33.6562 6.19421 34.623 5.22742C35.5605 4.28992 35.7363 4.05554 35.7363 3.8114C35.7363 3.39148 35.4629 3.11804 35.0234 3.11804C34.7012 3.11804 34.5742 3.2157 33.5781 4.22156Z" fill="#FC1E60"/>
<path d="M2.81641 5.31335C2.18164 5.63562 1.75195 6.05554 1.41016 6.70984C1.22461 7.05164 1.18555 7.27625 1.18555 7.9989C1.18555 8.78992 1.21484 8.92664 1.47852 9.40515C1.81055 10.0106 2.35742 10.5087 2.95312 10.7528L3.37305 10.9286L3.40234 13.4286L3.43164 15.9286L3.72461 16.3973C3.91992 16.7098 4.16406 16.9442 4.44727 17.1005C4.87695 17.3251 4.87695 17.3251 8.82227 17.3251C12.5332 17.3251 12.7676 17.3348 12.7188 17.4911C12.377 18.6044 12.123 20.7528 12.2012 21.8856L12.2598 22.6962H9.38867H6.51758L6.30273 22.2079C6.03906 21.5829 5.21875 20.8212 4.59375 20.6063C3.13867 20.1083 1.51758 20.7821 0.84375 22.1591C0.648438 22.5594 0.599609 22.7938 0.599609 23.4286C0.599609 24.6981 1.12695 25.5575 2.23047 26.1141C2.73828 26.368 2.93359 26.4071 3.56836 26.4071C4.80859 26.3973 5.69727 25.8602 6.22461 24.786L6.53711 24.161L9.51562 24.1805L12.4941 24.2098L12.709 24.8934C13.1777 26.3973 14.0859 27.9501 15.5312 29.7274L16.293 30.6552L12.4453 30.704C9.89648 30.743 8.51953 30.7919 8.35352 30.87C7.92383 31.0555 7.46484 31.5145 7.2793 31.9247C7.12305 32.2665 7.09375 32.5985 7.09375 34.7274V37.1395L6.60547 37.3544C5.98047 37.618 5.21875 38.4384 5.00391 39.0634C4.91602 39.3173 4.84766 39.8251 4.84766 40.1766C4.84766 41.3876 5.61914 42.4813 6.77148 42.911C8.70508 43.6337 10.8047 42.2079 10.8047 40.1766C10.8047 39.8251 10.7363 39.3173 10.6484 39.0634C10.4336 38.4384 9.67188 37.618 9.04688 37.3544L8.55859 37.1395V34.8934C8.55859 33.5262 8.59766 32.5692 8.65625 32.452C8.75391 32.2762 8.91016 32.2665 13.1484 32.2665H17.5332L17.8359 32.7059C18.5391 33.7216 19.1543 35.3524 19.3398 36.6903L19.3887 37.0516H18.7246C17.8652 37.0516 17.1426 37.4032 16.7129 38.0087L16.4199 38.4384L16.3906 41.0555C16.3613 43.9266 16.3711 43.9852 16.9473 44.6005C17.4062 45.1083 17.6992 45.2059 18.9102 45.2548L20.0332 45.3036L20.082 46.5243C20.1309 47.6571 20.1504 47.7841 20.4336 48.2821C20.6094 48.5946 20.9414 48.9755 21.2148 49.1903C22.0059 49.7958 22.3867 49.8641 24.9844 49.8251C27.1328 49.7958 27.2891 49.786 27.7188 49.5712C28.3047 49.2782 28.8906 48.6923 29.1836 48.1063C29.3691 47.7255 29.418 47.4423 29.457 46.4755L29.5059 45.3036L30.6289 45.2548C31.8789 45.1962 32.1621 45.0985 32.6602 44.5321C33.1484 43.9755 33.1875 43.6923 33.1484 40.9384L33.1191 38.4384L32.8262 38.0184C32.3867 37.3934 31.6738 37.0516 30.8047 37.0516C30.209 37.0516 30.1309 37.0321 30.1699 36.8856C30.1992 36.788 30.248 36.495 30.2871 36.2313C30.4336 35.1669 31.0293 33.6825 31.7129 32.6962L32.0059 32.2665H36.3906C40.6289 32.2665 40.7852 32.2762 40.8828 32.452C40.9414 32.5692 40.9805 33.5262 40.9805 34.8934V37.1395L40.4922 37.3544C39.8672 37.618 39.1055 38.4384 38.8906 39.0634C38.8027 39.3173 38.7344 39.8251 38.7344 40.1766C38.7344 41.3876 39.5059 42.4813 40.6582 42.911C42.5918 43.6337 44.6914 42.2079 44.6914 40.1766C44.6914 39.8251 44.623 39.3173 44.5352 39.0634C44.3203 38.4384 43.5586 37.618 42.9336 37.3544L42.4453 37.1395V34.7274C42.4453 32.5985 42.416 32.2665 42.2598 31.9247C42.0742 31.5145 41.6152 31.0555 41.1855 30.87C41.0195 30.7919 39.6426 30.743 37.0938 30.704L33.2461 30.6552L34.0078 29.7274C35.4531 27.9501 36.3125 26.4852 36.8203 24.913L37.0449 24.2098L40.0234 24.1805L43.002 24.161L43.3145 24.786C43.8418 25.8602 44.7305 26.3973 45.9707 26.4071C46.6055 26.4071 46.8008 26.368 47.3184 26.1044C48.4219 25.5477 49.0762 24.3954 48.959 23.1649C48.7832 21.2411 46.8105 19.9716 44.9453 20.6063C44.3203 20.8212 43.5 21.5829 43.2363 22.2079L43.0215 22.6962H40.1504H37.2793L37.3379 21.8856C37.416 20.7528 37.1621 18.6044 36.8203 17.4911C36.7715 17.3348 37.0059 17.3251 40.7168 17.3251C44.6621 17.3251 44.6621 17.3251 45.0918 17.1005C45.375 16.9442 45.6191 16.7098 45.8145 16.3973L46.1074 15.9286L46.1367 13.4286L46.166 10.9286L46.5859 10.7528C47.1816 10.5087 47.7285 10.0106 48.0605 9.40515C48.3242 8.92664 48.3535 8.78992 48.3535 7.9989C48.3535 7.27625 48.3145 7.05164 48.1289 6.70984C47.7871 6.05554 47.3574 5.63562 46.7227 5.31335C45.6094 4.75671 44.3203 4.95203 43.3828 5.8114C42.6895 6.4364 42.4062 7.08093 42.4062 7.9989C42.4062 8.49695 42.4746 8.81921 42.6309 9.19031C42.9043 9.79578 43.627 10.5184 44.252 10.7821L44.6914 10.9677V13.1942C44.6914 15.0594 44.6621 15.4598 44.5352 15.6454L44.3887 15.8602H40.3164H36.2441L35.8633 15.1083C34.1934 11.8661 30.8242 9.44421 27.0547 8.78992C25.9121 8.58484 23.627 8.58484 22.4746 8.78992C20.9219 9.05359 18.6074 9.96179 17.7969 10.6259C17.25 11.0653 17.5039 11.954 18.1875 11.954C18.3047 11.954 18.666 11.7977 18.9785 11.6122C19.7305 11.1532 20.7461 10.743 21.8594 10.4305C23.1191 10.079 25.3945 9.99109 26.791 10.245C30.8242 10.9677 33.9883 13.6532 35.248 17.452C35.6777 18.7118 35.834 19.7762 35.834 21.329C35.834 24.3368 35.1797 25.8993 32.5625 29.1415C30.3066 31.9442 29.6621 32.9794 29.1348 34.6591C28.9492 35.2645 28.6758 36.6415 28.6758 37.0126C28.6758 37.0321 27.9727 37.0516 27.1133 37.0516H25.5508V31.6317V26.2118H26.6641C27.6309 26.2118 27.8066 26.1825 28.0312 26.0067C28.3633 25.743 28.3828 25.2548 28.0605 24.9618C27.8359 24.7469 27.7773 24.7469 24.7598 24.7469H21.6738L21.4688 24.9716C21.166 25.2938 21.1855 25.7528 21.5078 26.0067C21.7324 26.1825 21.9082 26.2118 22.875 26.2118H23.9883V31.6317V37.0516H22.4258C21.5664 37.0516 20.8633 37.0223 20.8633 36.9735C20.8633 36.9344 20.7949 36.5048 20.7168 36.0262C20.541 34.9032 20.1992 33.9266 19.6426 32.8719C19.0859 31.8368 18.6953 31.2802 16.9668 29.1415C14.3789 25.9188 13.7148 24.3466 13.7051 21.3778C13.6953 19.8251 13.8223 18.9559 14.2422 17.618C14.7012 16.1923 15.2969 15.0692 16.2051 13.9755C16.6934 13.3895 16.7227 13.0087 16.332 12.6669C16 12.3837 15.7852 12.3837 15.4434 12.6571C15.043 12.9696 14.1152 14.2587 13.6758 15.1083L13.2949 15.8602H9.22266H5.15039L5.00391 15.6454C4.87695 15.4598 4.84766 15.0594 4.84766 13.204V10.9872L5.375 10.7333C6.45898 10.2255 7.12305 9.17078 7.12305 7.9989C7.12305 7.07117 6.83984 6.4364 6.15625 5.8114C5.53125 5.245 4.94531 5.02039 4.06641 5.02039C3.53906 5.02039 3.30469 5.07898 2.81641 5.31335ZM4.94531 6.70984C5.84375 7.30554 5.88281 8.60437 5.02344 9.2489C4.87695 9.35632 4.54492 9.46375 4.28125 9.49304C3.05078 9.61023 2.21094 8.33093 2.80664 7.26648C3.22656 6.52429 4.27148 6.25085 4.94531 6.70984ZM46.1562 6.69031C47.5723 7.49109 46.8789 9.63953 45.2578 9.49304C43.8027 9.34656 43.3633 7.53015 44.5938 6.70984C45.0137 6.41687 45.6582 6.41687 46.1562 6.69031ZM4.4375 22.1688C4.58398 22.2762 4.80859 22.5692 4.92578 22.8231C5.21875 23.3895 5.15039 23.9266 4.74023 24.4052C4.35938 24.8348 3.97852 24.9813 3.37305 24.9227C2.98242 24.8837 2.81641 24.8055 2.54297 24.5419C1.76172 23.7899 1.88867 22.6864 2.83594 22.0907C3.22656 21.8466 4.04688 21.8954 4.4375 22.1688ZM46.6348 22.0614C47.6113 22.5594 47.7871 23.7704 46.9961 24.5419C46.7227 24.8055 46.5566 24.8837 46.166 24.9227C45.5605 24.9813 45.1797 24.8348 44.7988 24.4052C44.3008 23.8387 44.3301 22.9696 44.8672 22.3641C45.248 21.9344 46.1172 21.788 46.6348 22.0614ZM8.71484 38.8583C9.62305 39.454 9.50586 40.9579 8.50977 41.4462C8.00195 41.6903 7.65039 41.6903 7.15234 41.4462C6.5957 41.1727 6.38086 40.8309 6.33203 40.1766C6.3125 39.7665 6.35156 39.5712 6.49805 39.327C6.9668 38.5751 7.96289 38.3602 8.71484 38.8583ZM31.4492 38.7216C31.6836 38.9071 31.7031 38.9755 31.7031 39.6981V40.4696H29.0273C26.5762 40.4696 26.332 40.4891 26.127 40.6454C25.8047 40.9091 25.834 41.4071 26.1758 41.7098C26.4395 41.9344 26.4492 41.9344 29.0762 41.9344H31.7031V42.6669C31.7031 43.9071 32.416 43.7899 24.75 43.7899C18.7832 43.7899 18.1777 43.7802 18.0117 43.6239C17.875 43.4969 17.8359 43.3212 17.8359 42.6962V41.9344H20.2773C21.8789 41.9344 22.7969 41.8954 22.9531 41.827C23.4512 41.6024 23.4902 40.8212 23.0215 40.577C22.9043 40.5087 21.9082 40.4696 20.3359 40.4696H17.8359V39.7079C17.8359 39.2977 17.875 38.9071 17.9141 38.8485C18.1191 38.536 18.3828 38.5262 24.7793 38.5165C31.1172 38.5165 31.1953 38.5165 31.4492 38.7216ZM42.6016 38.8583C43.5098 39.454 43.3926 40.9579 42.3965 41.4462C41.8887 41.6903 41.5371 41.6903 41.0391 41.4462C40.4824 41.1727 40.2676 40.8309 40.2188 40.1766C40.1992 39.7665 40.2383 39.5712 40.3848 39.327C40.8535 38.5751 41.8496 38.3602 42.6016 38.8583ZM27.9727 46.3192C27.9434 47.4716 27.8555 47.6962 27.2695 48.1259C27.0156 48.3212 26.8691 48.3309 24.7695 48.3309C22.2793 48.3309 22.2598 48.3212 21.7715 47.5985C21.5762 47.3153 21.5469 47.1493 21.5469 46.2704V45.2548H24.7793H28.0117L27.9727 46.3192Z" fill="#FC1E60"/>
<path d="M2.81641 5.31335C2.18164 5.63562 1.75195 6.05554 1.41016 6.70984C1.22461 7.05164 1.18555 7.27625 1.18555 7.9989C1.18555 8.78992 1.21484 8.92664 1.47852 9.40515C1.81055 10.0106 2.35742 10.5087 2.95312 10.7528L3.37305 10.9286L3.40234 13.4286L3.43164 15.9286L3.72461 16.3973C3.91992 16.7098 4.16406 16.9442 4.44727 17.1005C4.87695 17.3251 4.87695 17.3251 8.82227 17.3251C12.5332 17.3251 12.7676 17.3348 12.7188 17.4911C12.377 18.6044 12.123 20.7528 12.2012 21.8856L12.2598 22.6962H9.38867H6.51758L6.30273 22.2079C6.03906 21.5829 5.21875 20.8212 4.59375 20.6063C3.13867 20.1083 1.51758 20.7821 0.84375 22.1591C0.648438 22.5594 0.599609 22.7938 0.599609 23.4286C0.599609 24.6981 1.12695 25.5575 2.23047 26.1141C2.73828 26.368 2.93359 26.4071 3.56836 26.4071C4.80859 26.3973 5.69727 25.8602 6.22461 24.786L6.53711 24.161L9.51562 24.1805L12.4941 24.2098L12.709 24.8934C13.1777 26.3973 14.0859 27.9501 15.5312 29.7274L16.293 30.6552L12.4453 30.704C9.89648 30.743 8.51953 30.7919 8.35352 30.87C7.92383 31.0555 7.46484 31.5145 7.2793 31.9247C7.12305 32.2665 7.09375 32.5985 7.09375 34.7274V37.1395L6.60547 37.3544C5.98047 37.618 5.21875 38.4384 5.00391 39.0634C4.91602 39.3173 4.84766 39.8251 4.84766 40.1766C4.84766 41.3876 5.61914 42.4813 6.77148 42.911C8.70508 43.6337 10.8047 42.2079 10.8047 40.1766C10.8047 39.8251 10.7363 39.3173 10.6484 39.0634C10.4336 38.4384 9.67188 37.618 9.04688 37.3544L8.55859 37.1395V34.8934C8.55859 33.5262 8.59766 32.5692 8.65625 32.452C8.75391 32.2762 8.91016 32.2665 13.1484 32.2665H17.5332L17.8359 32.7059C18.5391 33.7216 19.1543 35.3524 19.3398 36.6903L19.3887 37.0516H18.7246C17.8652 37.0516 17.1426 37.4032 16.7129 38.0087L16.4199 38.4384L16.3906 41.0555C16.3613 43.9266 16.3711 43.9852 16.9473 44.6005C17.4062 45.1083 17.6992 45.2059 18.9102 45.2548L20.0332 45.3036L20.082 46.5243C20.1309 47.6571 20.1504 47.7841 20.4336 48.2821C20.6094 48.5946 20.9414 48.9755 21.2148 49.1903C22.0059 49.7958 22.3867 49.8641 24.9844 49.8251C27.1328 49.7958 27.2891 49.786 27.7188 49.5712C28.3047 49.2782 28.8906 48.6923 29.1836 48.1063C29.3691 47.7255 29.418 47.4423 29.457 46.4755L29.5059 45.3036L30.6289 45.2548C31.8789 45.1962 32.1621 45.0985 32.6602 44.5321C33.1484 43.9755 33.1875 43.6923 33.1484 40.9384L33.1191 38.4384L32.8262 38.0184C32.3867 37.3934 31.6738 37.0516 30.8047 37.0516C30.209 37.0516 30.1309 37.0321 30.1699 36.8856C30.1992 36.788 30.248 36.495 30.2871 36.2313C30.4336 35.1669 31.0293 33.6825 31.7129 32.6962L32.0059 32.2665H36.3906C40.6289 32.2665 40.7852 32.2762 40.8828 32.452C40.9414 32.5692 40.9805 33.5262 40.9805 34.8934V37.1395L40.4922 37.3544C39.8672 37.618 39.1055 38.4384 38.8906 39.0634C38.8027 39.3173 38.7344 39.8251 38.7344 40.1766C38.7344 41.3876 39.5059 42.4813 40.6582 42.911C42.5918 43.6337 44.6914 42.2079 44.6914 40.1766C44.6914 39.8251 44.623 39.3173 44.5352 39.0634C44.3203 38.4384 43.5586 37.618 42.9336 37.3544L42.4453 37.1395V34.7274C42.4453 32.5985 42.416 32.2665 42.2598 31.9247C42.0742 31.5145 41.6152 31.0555 41.1855 30.87C41.0195 30.7919 39.6426 30.743 37.0938 30.704L33.2461 30.6552L34.0078 29.7274C35.4531 27.9501 36.3125 26.4852 36.8203 24.913L37.0449 24.2098L40.0234 24.1805L43.002 24.161L43.3145 24.786C43.8418 25.8602 44.7305 26.3973 45.9707 26.4071C46.6055 26.4071 46.8008 26.368 47.3184 26.1044C48.4219 25.5477 49.0762 24.3954 48.959 23.1649C48.7832 21.2411 46.8105 19.9716 44.9453 20.6063C44.3203 20.8212 43.5 21.5829 43.2363 22.2079L43.0215 22.6962H40.1504H37.2793L37.3379 21.8856C37.416 20.7528 37.1621 18.6044 36.8203 17.4911C36.7715 17.3348 37.0059 17.3251 40.7168 17.3251C44.6621 17.3251 44.6621 17.3251 45.0918 17.1005C45.375 16.9442 45.6191 16.7098 45.8145 16.3973L46.1074 15.9286L46.1367 13.4286L46.166 10.9286L46.5859 10.7528C47.1816 10.5087 47.7285 10.0106 48.0605 9.40515C48.3242 8.92664 48.3535 8.78992 48.3535 7.9989C48.3535 7.27625 48.3145 7.05164 48.1289 6.70984C47.7871 6.05554 47.3574 5.63562 46.7227 5.31335C45.6094 4.75671 44.3203 4.95203 43.3828 5.8114C42.6895 6.4364 42.4062 7.08093 42.4062 7.9989C42.4062 8.49695 42.4746 8.81921 42.6309 9.19031C42.9043 9.79578 43.627 10.5184 44.252 10.7821L44.6914 10.9677V13.1942C44.6914 15.0594 44.6621 15.4598 44.5352 15.6454L44.3887 15.8602H40.3164H36.2441L35.8633 15.1083C34.1934 11.8661 30.8242 9.44421 27.0547 8.78992C25.9121 8.58484 23.627 8.58484 22.4746 8.78992C20.9219 9.05359 18.6074 9.96179 17.7969 10.6259C17.25 11.0653 17.5039 11.954 18.1875 11.954C18.3047 11.954 18.666 11.7977 18.9785 11.6122C19.7305 11.1532 20.7461 10.743 21.8594 10.4305C23.1191 10.079 25.3945 9.99109 26.791 10.245C30.8242 10.9677 33.9883 13.6532 35.248 17.452C35.6777 18.7118 35.834 19.7762 35.834 21.329C35.834 24.3368 35.1797 25.8993 32.5625 29.1415C30.3066 31.9442 29.6621 32.9794 29.1348 34.6591C28.9492 35.2645 28.6758 36.6415 28.6758 37.0126C28.6758 37.0321 27.9727 37.0516 27.1133 37.0516H25.5508V31.6317V26.2118H26.6641C27.6309 26.2118 27.8066 26.1825 28.0312 26.0067C28.3633 25.743 28.3828 25.2548 28.0605 24.9618C27.8359 24.7469 27.7773 24.7469 24.7598 24.7469H21.6738L21.4688 24.9716C21.166 25.2938 21.1855 25.7528 21.5078 26.0067C21.7324 26.1825 21.9082 26.2118 22.875 26.2118H23.9883V31.6317V37.0516H22.4258C21.5664 37.0516 20.8633 37.0223 20.8633 36.9735C20.8633 36.9344 20.7949 36.5048 20.7168 36.0262C20.541 34.9032 20.1992 33.9266 19.6426 32.8719C19.0859 31.8368 18.6953 31.2802 16.9668 29.1415C14.3789 25.9188 13.7148 24.3466 13.7051 21.3778C13.6953 19.8251 13.8223 18.9559 14.2422 17.618C14.7012 16.1923 15.2969 15.0692 16.2051 13.9755C16.6934 13.3895 16.7227 13.0087 16.332 12.6669C16 12.3837 15.7852 12.3837 15.4434 12.6571C15.043 12.9696 14.1152 14.2587 13.6758 15.1083L13.2949 15.8602H9.22266H5.15039L5.00391 15.6454C4.87695 15.4598 4.84766 15.0594 4.84766 13.204V10.9872L5.375 10.7333C6.45898 10.2255 7.12305 9.17078 7.12305 7.9989C7.12305 7.07117 6.83984 6.4364 6.15625 5.8114C5.53125 5.245 4.94531 5.02039 4.06641 5.02039C3.53906 5.02039 3.30469 5.07898 2.81641 5.31335ZM4.94531 6.70984C5.84375 7.30554 5.88281 8.60437 5.02344 9.2489C4.87695 9.35632 4.54492 9.46375 4.28125 9.49304C3.05078 9.61023 2.21094 8.33093 2.80664 7.26648C3.22656 6.52429 4.27148 6.25085 4.94531 6.70984ZM46.1562 6.69031C47.5723 7.49109 46.8789 9.63953 45.2578 9.49304C43.8027 9.34656 43.3633 7.53015 44.5938 6.70984C45.0137 6.41687 45.6582 6.41687 46.1562 6.69031ZM4.4375 22.1688C4.58398 22.2762 4.80859 22.5692 4.92578 22.8231C5.21875 23.3895 5.15039 23.9266 4.74023 24.4052C4.35938 24.8348 3.97852 24.9813 3.37305 24.9227C2.98242 24.8837 2.81641 24.8055 2.54297 24.5419C1.76172 23.7899 1.88867 22.6864 2.83594 22.0907C3.22656 21.8466 4.04688 21.8954 4.4375 22.1688ZM46.6348 22.0614C47.6113 22.5594 47.7871 23.7704 46.9961 24.5419C46.7227 24.8055 46.5566 24.8837 46.166 24.9227C45.5605 24.9813 45.1797 24.8348 44.7988 24.4052C44.3008 23.8387 44.3301 22.9696 44.8672 22.3641C45.248 21.9344 46.1172 21.788 46.6348 22.0614ZM8.71484 38.8583C9.62305 39.454 9.50586 40.9579 8.50977 41.4462C8.00195 41.6903 7.65039 41.6903 7.15234 41.4462C6.5957 41.1727 6.38086 40.8309 6.33203 40.1766C6.3125 39.7665 6.35156 39.5712 6.49805 39.327C6.9668 38.5751 7.96289 38.3602 8.71484 38.8583ZM31.4492 38.7216C31.6836 38.9071 31.7031 38.9755 31.7031 39.6981V40.4696H29.0273C26.5762 40.4696 26.332 40.4891 26.127 40.6454C25.8047 40.9091 25.834 41.4071 26.1758 41.7098C26.4395 41.9344 26.4492 41.9344 29.0762 41.9344H31.7031V42.6669C31.7031 43.9071 32.416 43.7899 24.75 43.7899C18.7832 43.7899 18.1777 43.7802 18.0117 43.6239C17.875 43.4969 17.8359 43.3212 17.8359 42.6962V41.9344H20.2773C21.8789 41.9344 22.7969 41.8954 22.9531 41.827C23.4512 41.6024 23.4902 40.8212 23.0215 40.577C22.9043 40.5087 21.9082 40.4696 20.3359 40.4696H17.8359V39.7079C17.8359 39.2977 17.875 38.9071 17.9141 38.8485C18.1191 38.536 18.3828 38.5262 24.7793 38.5165C31.1172 38.5165 31.1953 38.5165 31.4492 38.7216ZM42.6016 38.8583C43.5098 39.454 43.3926 40.9579 42.3965 41.4462C41.8887 41.6903 41.5371 41.6903 41.0391 41.4462C40.4824 41.1727 40.2676 40.8309 40.2188 40.1766C40.1992 39.7665 40.2383 39.5712 40.3848 39.327C40.8535 38.5751 41.8496 38.3602 42.6016 38.8583ZM27.9727 46.3192C27.9434 47.4716 27.8555 47.6962 27.2695 48.1259C27.0156 48.3212 26.8691 48.3309 24.7695 48.3309C22.2793 48.3309 22.2598 48.3212 21.7715 47.5985C21.5762 47.3153 21.5469 47.1493 21.5469 46.2704V45.2548H24.7793H28.0117L27.9727 46.3192Z" fill="#FC1E60"/>
</svg>
