<svg width="38" height="50" viewBox="0 0 38 50" fill="none" xmlns="http://www.w3.org/2000/svg">
<path fill-rule="evenodd" clip-rule="evenodd" d="M3.27734 11.9187C-0.964178 24.644 -0.0858112 25.9428 0.49074 28.3834C0.928179 30.2345 1.58515 31.4827 2.84686 32.8608C3.97339 34.0907 6.64456 35.3359 6.97214 35.3359C9.09343 35.1319 9.95589 33.2993 8.78732 32.8608C8.48121 32.6884 6.95196 32.388 6.33844 32.0775C5.04738 31.4248 3.7915 30.529 3.27734 29.0232C2.57185 26.9562 1.66525 24.5332 5.42011 13.4458L8.38037 4.58816C8.38037 4.58816 9.20516 2.75554 9.76151 2.75554C10.3179 2.75554 13.379 3.06097 13.379 3.06097C16.7462 3.55137 18.6722 6.26537 18.6747 9.90527C18.6757 11.2353 18.0422 12.809 14.3497 23.8588C12.0608 30.7087 10.0837 36.9619 9.95589 37.7546C9.48633 40.6703 10.5463 43.9509 12.5549 45.799C13.1141 46.3133 14.291 47.0878 15.1705 47.5202L16.7696 48.3062C20.5141 50.0845 30.8078 50.6728 34.8449 48.4458C35.725 47.9603 36.0311 46.4331 36.0311 46.4331C36.0311 46.4331 36.6433 43.8626 36.9494 41.8515C37.2794 39.6838 36.5373 38.7972 36.0311 37.7546C35.2456 36.1369 33.0702 34.6164 31.5801 33.8963C29.5263 32.9041 28.3686 32.7438 23.2274 32.7411L18.3509 32.7383L17.458 32.8608C15.1705 34.2156 17.4069 35.8618 17.458 35.913C17.5093 35.964 19.4575 35.9972 21.7875 35.9868C24.1176 35.9764 26.6722 36.0634 27.4646 36.1801C31.7248 36.8079 33.8052 39.9953 32.632 44.0971L32.3187 45.1927H25.6958C18.4082 45.1927 17.0407 45.0139 15.5187 43.8626C14.37 42.9935 13.9638 42.461 13.555 41.2884C12.8151 39.1659 13.3466 38.7198 17.9706 25.0525L20.1134 18.9437L21.95 12.5295C21.95 12.5295 22.2561 11.8626 22.5623 9.90527C22.8684 7.94797 21.5755 4.96695 19.8073 3.06097C17.6691 0.755532 14.9493 0.0109834 10.9301 0.00660128C10.9301 0.00660128 9.30301 -0.0582437 8.38037 0.218538C6.03235 0.922916 3.27734 11.9187 3.27734 11.9187Z" fill="white"/>
</svg>
