<svg width="60" height="61" viewBox="0 0 60 61" fill="none" xmlns="http://www.w3.org/2000/svg">
<path d="M42.8684 29.0965C43.2344 29.2904 43.6883 29.1509 43.8823 28.7849L47.0427 22.8205C47.2366 22.4545 47.0971 22.0005 46.7311 21.8066C46.3651 21.6127 45.9112 21.7522 45.7172 22.1182L42.908 27.4199L37.6063 24.6107C37.2403 24.4167 36.7864 24.5562 36.5924 24.9222C36.3985 25.2882 36.538 25.7421 36.904 25.9361L42.8684 29.0965ZM19.0699 19.6129L18.5647 19.0585L19.0699 19.6129ZM40.0653 43.9614L39.535 44.4917L40.0653 45.0221L40.5957 44.4917L40.0653 43.9614ZM32.1513 43.2132C27.1712 43.5544 23.5685 42.5944 21.044 40.9486C18.5235 39.3054 17.0098 36.9349 16.2802 34.3233C15.548 31.7026 15.6093 28.8458 16.2482 26.2861C16.8891 23.7183 18.0933 21.5175 19.5751 20.1672L18.5647 19.0585C16.8074 20.66 15.484 23.1534 14.7928 25.9228C14.0996 28.7003 14.0244 31.8238 14.8355 34.7269C15.6492 37.6393 17.3584 40.3364 20.2248 42.2051C23.0871 44.0711 27.0352 45.0673 32.2538 44.7096L32.1513 43.2132ZM19.5751 20.1672C22.5573 17.4495 27.2079 16.0276 31.638 17.0437C36.0203 18.0489 40.2946 21.4687 42.5026 28.6541L43.9365 28.2134C41.594 20.5905 36.95 16.7232 31.9734 15.5817C27.0446 14.4512 21.8956 16.023 18.5647 19.0585L19.5751 20.1672ZM36.8613 41.818L39.535 44.4917L40.5957 43.4311L37.922 40.7574L36.8613 41.818ZM40.5957 44.4917L45.5446 39.5428L44.484 38.4821L39.535 43.4311L40.5957 44.4917Z" fill="#F5F5F7"/>
<rect x="35.0697" y="35.3945" width="11.9918" height="12.0717" rx="2.25" stroke="#F5F5F7" stroke-width="1.5"/>
</svg>
