<svg width="68" height="68" viewBox="0 0 68 68" fill="none" xmlns="http://www.w3.org/2000/svg">
<g clip-path="url(#clip0_10_10053)">
<path d="M61.7097 6.88509C56.5247 1.70009 48.1097 1.70009 43.0097 6.88509C40.8847 9.01009 39.5247 11.9001 39.1847 14.9601L34.4247 15.0451C33.7447 15.0451 33.0647 15.3001 32.6397 15.8101L2.97466 45.4751C2.46466 45.9851 2.20966 46.6651 2.20966 47.3451C2.20966 48.0251 2.46466 48.7051 2.97466 49.2151L19.3797 65.6201C19.3797 65.6201 19.4647 65.7051 19.5497 65.7901C19.7197 65.9601 19.9747 66.0451 20.2297 66.0451C20.5697 66.0451 20.8247 65.8751 20.9947 65.7051C21.4197 65.2801 21.3347 64.6001 20.9097 64.1751L4.50466 47.6851C4.41966 47.6001 4.33466 47.5151 4.33466 47.3451C4.33466 47.2601 4.41966 47.0901 4.50466 47.0051L34.1697 17.3401C34.2547 17.2551 34.3397 17.1701 34.5097 17.1701L39.1847 17.0851C39.2697 18.9551 39.7797 20.7401 40.7147 22.3551C39.6947 23.8851 39.8647 26.0101 41.2247 27.3701C41.9897 28.1351 43.0097 28.5601 44.0297 28.5601C45.1347 28.5601 46.0697 28.1351 46.8347 27.3701C47.5997 26.6051 48.0247 25.5851 48.0247 24.5651C48.0247 23.4601 47.5997 22.5251 46.8347 21.7601C45.6447 20.5701 43.8597 20.2301 42.3297 20.9951C41.7347 19.8051 41.3947 18.4451 41.3097 17.0851L51.1697 16.9151C51.4247 16.9151 51.6797 17.0851 51.6797 17.4251L51.3397 34.2551C51.3397 34.3401 51.2547 34.5101 51.1697 34.5951L22.8647 62.7301C22.4397 63.1551 22.4397 63.8351 22.8647 64.2601C23.2897 64.6851 23.9697 64.6851 24.3947 64.2601L52.6997 35.9551C53.2097 35.4451 53.4647 34.8501 53.4647 34.1701L53.5497 29.4101C56.6097 29.1551 59.4997 27.7951 61.6247 25.5851C66.8947 20.4001 66.8947 11.9851 61.7097 6.88509ZM44.5397 25.5851C44.9647 25.1601 44.9647 24.4801 44.5397 24.0551C44.1997 23.7151 43.8597 23.2901 43.5197 22.8651C44.1997 22.6101 44.8797 22.8651 45.3897 23.2901C45.7297 23.6301 45.8997 24.1401 45.8997 24.5651C45.8997 25.0751 45.7297 25.5001 45.3897 25.8401C45.0497 26.1801 44.6247 26.3501 44.1147 26.3501C43.6047 26.3501 43.1797 26.1801 42.8397 25.8401C42.4997 25.5001 42.3297 25.0751 42.3297 24.6501C42.5847 24.9901 42.8397 25.2451 43.1797 25.5851C43.4347 26.0101 44.1147 26.0101 44.5397 25.5851ZM51.1697 14.7051L41.3097 14.8751C41.5647 12.4101 42.7547 10.1151 44.4547 8.41509C46.5797 6.29009 49.3847 5.10009 52.3597 5.10009C55.3347 5.10009 58.1397 6.29009 60.1797 8.33009C62.3047 10.4551 63.4097 13.1751 63.4097 16.1501C63.4097 19.1251 62.2197 21.9301 60.1797 23.9701C58.3947 25.7551 56.0997 26.8601 53.7197 27.1151L53.8897 17.2551C53.8897 15.8101 52.6997 14.7051 51.1697 14.7051Z" fill="url(#paint0_linear_10_10053)"/>
<path d="M21.5897 49.13C21.5047 48.875 21.3347 48.705 21.1647 48.535C20.9947 48.365 20.7397 48.195 20.5697 48.11C20.3147 48.025 20.1447 47.94 19.8897 47.94C19.7197 47.94 19.5497 47.94 19.4647 47.94C19.4647 47.855 19.4647 47.77 19.4647 47.77C19.4647 47.6 19.3797 47.43 19.2947 47.26C19.2097 47.09 19.1247 46.92 18.9547 46.835C18.6997 46.58 18.4447 46.41 18.1897 46.325C17.9347 46.24 17.5947 46.24 17.3397 46.24C17.0847 46.325 16.8297 46.41 16.4897 46.58C16.2347 46.75 15.9797 47.005 15.6397 47.26L14.5347 48.365C14.3647 48.535 14.2797 48.705 14.2797 48.875C14.2797 49.045 14.2797 49.3 14.5347 49.47L18.4447 53.38C18.6997 53.635 18.8697 53.635 19.0397 53.635C19.0397 53.635 19.0397 53.635 19.1247 53.635C19.2947 53.635 19.5497 53.55 19.6347 53.38L20.8247 52.19C20.9947 52.02 21.1647 51.765 21.3347 51.595C21.5047 51.425 21.5897 51.17 21.6747 51C21.7597 50.83 21.8447 50.575 21.8447 50.405C21.9297 50.15 21.9297 49.98 21.8447 49.725C21.7597 49.555 21.6747 49.3 21.5897 49.13ZM19.2097 49.895C19.2947 49.895 19.2947 49.895 19.3797 49.895C19.4647 49.895 19.4647 49.98 19.5497 50.065C19.6347 50.15 19.6347 50.15 19.6347 50.235C19.6347 50.32 19.6347 50.32 19.6347 50.405C19.6347 50.49 19.6347 50.49 19.5497 50.575C19.5497 50.66 19.4647 50.745 19.3797 50.83L19.0397 51.17L18.3597 50.49L18.6147 50.235C18.7847 50.065 18.8697 49.98 18.9547 49.98C19.1247 49.895 19.2097 49.895 19.2097 49.895ZM17.5947 48.62C17.5947 48.705 17.5947 48.705 17.5947 48.79C17.5947 48.79 17.5097 48.875 17.4247 49.045L17.2547 49.215L16.6597 48.62L16.8297 48.45C16.9997 48.28 17.0847 48.28 17.0847 48.195C17.1697 48.195 17.1697 48.11 17.2547 48.11H17.3397C17.4247 48.11 17.4247 48.195 17.5097 48.195C17.5947 48.28 17.5947 48.28 17.5947 48.365C17.5947 48.535 17.5947 48.62 17.5947 48.62Z" fill="url(#paint1_linear_10_10053)"/>
<path d="M22.8647 49.7252C22.9497 49.7252 23.0347 49.7252 23.2047 49.6402C23.2897 49.6402 23.3747 49.5552 23.4597 49.4702C23.5447 49.3852 23.6297 49.3002 23.7147 49.2152C23.7997 49.1302 23.8847 49.0452 23.9697 48.9602C24.0547 48.8752 24.0547 48.7902 24.1397 48.7052C24.2247 48.6202 24.2247 48.4502 24.2247 48.3652C24.2247 48.2802 24.1397 48.1102 24.0547 48.0252L22.6097 46.5802C22.6947 46.4952 22.6947 46.4952 22.7797 46.4952C22.8647 46.4952 22.8647 46.4952 22.9497 46.4952C23.0347 46.4952 23.1197 46.4952 23.2047 46.5802C23.2897 46.5802 23.4597 46.6652 23.6297 46.7502L24.9897 47.3452C25.0747 47.3452 25.1597 47.4302 25.2447 47.4302C25.3297 47.4302 25.4997 47.4302 25.5847 47.3452C25.6697 47.2602 25.7547 47.2602 25.8397 47.1752C25.9247 47.0902 26.0097 47.0052 26.0947 46.9202C26.1797 46.8352 26.3497 46.6652 26.3497 46.6652C26.4347 46.5802 26.5197 46.4952 26.5197 46.4102C26.5197 46.3252 26.6047 46.3252 26.6047 46.2402C26.6897 46.2402 26.8597 46.1552 26.9447 46.0702C27.0297 45.9852 27.1147 45.9002 27.1997 45.8152C27.2847 45.7302 27.3697 45.6452 27.4547 45.5602C27.5397 45.4752 27.6247 45.3902 27.6247 45.3052C27.7097 45.2202 27.7097 45.0502 27.7097 44.9652C27.7097 44.8802 27.6247 44.7952 27.6247 44.7102L27.1997 43.8602L28.4747 42.5852L29.4097 43.0102C29.4947 43.0102 29.5797 43.0952 29.6647 43.0952C29.7497 43.0952 29.9197 43.0952 30.0047 43.0102C30.0897 43.0102 30.1747 42.9252 30.2597 42.8402C30.3447 42.7552 30.4297 42.6702 30.5147 42.5852C30.5997 42.5002 30.7697 42.3302 30.7697 42.2452C30.8547 42.0752 30.9397 41.9902 30.9397 41.8202C30.9397 41.7352 30.9397 41.5652 30.8547 41.4802C30.9397 41.4802 30.9397 41.5652 31.0247 41.5652H31.1097C31.1947 41.5652 31.2797 41.5652 31.3647 41.4802C31.4497 41.4802 31.5347 41.3952 31.6197 41.3102C31.7047 41.2252 31.7897 41.1402 31.8747 41.0552C31.9597 40.9702 32.0447 40.8852 32.1297 40.8002C32.2147 40.7152 32.2147 40.6302 32.2997 40.5452C32.3847 40.4602 32.3847 40.2902 32.3847 40.2052C32.3847 40.1202 32.2997 39.9502 32.2147 39.8652L30.2597 37.9102L32.8947 38.6752C33.0647 38.7602 33.2347 38.7602 33.4047 38.8452C33.5747 38.8452 33.7447 38.9302 33.8297 38.8452C33.9997 38.8452 34.0847 38.7602 34.2547 38.6752C34.3397 38.5902 34.5097 38.5052 34.5947 38.4202L35.0197 37.9952C35.1047 37.9102 35.1047 37.8252 35.1897 37.7402C35.2747 37.6552 35.2747 37.4852 35.2747 37.4002C35.2747 37.3152 35.2747 37.1452 35.1897 37.0602C35.1897 36.9752 35.1047 36.8052 35.0197 36.7202L31.0247 32.7252C30.9397 32.6402 30.8547 32.6402 30.7697 32.5552C30.6847 32.5552 30.5147 32.5552 30.4297 32.5552C30.3447 32.5552 30.2597 32.6402 30.0897 32.7252C30.0047 32.8102 29.9197 32.8102 29.8347 32.9802C29.7497 33.0652 29.6647 33.1502 29.5797 33.2352C29.4947 33.3202 29.4947 33.4052 29.4097 33.4902C29.3247 33.5752 29.3247 33.7452 29.3247 33.8302C29.3247 33.9152 29.4097 34.0852 29.4947 34.1702L31.2797 35.9552L28.8147 35.1902C28.6447 35.1052 28.5597 35.1052 28.3897 35.1052C28.2197 35.1052 28.0497 35.1052 27.9647 35.1052C27.7947 35.1052 27.7097 35.1902 27.5397 35.2752C27.4547 35.3602 27.3697 35.4452 27.1997 35.5302L26.6897 36.0402C26.5197 36.2102 26.4347 36.3802 26.4347 36.6352C26.4347 36.8052 26.4347 37.0602 26.6897 37.3152L30.5147 41.1402C30.4297 41.1402 30.4297 41.0552 30.3447 41.0552L24.9897 38.5052C24.9047 38.4202 24.8197 38.4202 24.7347 38.4202C24.5647 38.4202 24.4797 38.4202 24.3097 38.5052C24.2247 38.5902 24.1397 38.5902 24.0547 38.7602C23.9697 38.8452 23.8847 38.9302 23.7147 39.1002C23.6297 39.1852 23.4597 39.3552 23.4597 39.4402C23.3747 39.5252 23.2897 39.6102 23.2897 39.6952C23.2047 39.8652 23.2047 39.9502 23.2047 40.1202C23.2047 40.2052 23.2047 40.2902 23.2897 40.3752L25.7547 45.3902L24.6497 44.8802C24.4797 44.7952 24.3097 44.7952 24.1397 44.7102C23.9697 44.6252 23.7997 44.6252 23.7147 44.6252H23.6297C23.6297 44.4552 23.7147 44.2002 23.6297 44.0302C23.6297 43.7752 23.5447 43.6052 23.4597 43.3502C23.3747 43.1802 23.2047 42.9252 23.0347 42.7552C22.7797 42.5002 22.6097 42.4152 22.3547 42.2452C22.0997 42.1602 21.8447 42.0752 21.5897 42.0752C21.3347 42.0752 21.0797 42.1602 20.8247 42.2452C20.5697 42.3302 20.3147 42.5002 20.0597 42.6702C19.9747 42.7552 19.8897 42.8402 19.8047 42.8402C19.7197 42.9252 19.6347 43.0102 19.4647 43.0952L18.2747 44.2852C18.1047 44.4552 18.0197 44.6252 18.0197 44.7952C18.0197 44.9652 18.0197 45.2202 18.2747 45.3902L22.3547 49.4702C22.5247 49.6402 22.6947 49.7252 22.8647 49.7252C22.7797 49.7252 22.8647 49.7252 22.8647 49.7252ZM25.8397 41.1402L26.6897 41.5652L26.2647 41.9902L25.8397 41.1402ZM21.6747 44.7102C21.6747 44.7952 21.6747 44.8802 21.5897 44.8802C21.5047 44.9652 21.5047 45.0502 21.3347 45.1352L21.2497 45.3902L20.5697 44.7102L20.6547 44.6252C20.7397 44.5402 20.8247 44.4552 20.9097 44.4552C20.9947 44.4552 20.9947 44.3702 21.0797 44.3702C21.1647 44.2852 21.2497 44.2852 21.3347 44.2852C21.4197 44.2852 21.5047 44.3702 21.5897 44.4552C21.6747 44.5402 21.6747 44.5402 21.6747 44.6252C21.6747 44.6252 21.7597 44.6252 21.6747 44.7102Z" fill="url(#paint2_linear_10_10053)"/>
<path d="M35.8697 36.7201C36.1247 36.7201 36.2947 36.6351 36.4647 36.4651L37.5697 35.36C37.9947 34.935 38.3347 34.51 38.5047 34.085C38.7597 33.66 38.8447 33.2351 38.8447 32.7251C38.8447 32.3001 38.7597 31.7901 38.5897 31.3651C38.4197 30.9401 38.0797 30.43 37.5697 30.005C37.1447 29.58 36.8047 29.325 36.3797 29.155C35.9547 28.985 35.5297 28.8151 35.1047 28.9001C34.6797 28.9001 34.2547 28.9851 33.8297 29.2401C33.4047 29.4101 32.9797 29.7501 32.5547 30.1751L31.3647 31.3651C31.1947 31.5351 31.1097 31.7051 31.1097 31.8751C31.1097 32.0451 31.1097 32.3001 31.3647 32.4701L35.2747 36.3801C35.4447 36.6351 35.6997 36.7201 35.8697 36.7201ZM33.5747 31.7901L33.7447 31.6201C33.9997 31.3651 34.1697 31.195 34.4247 31.11C34.5947 31.025 34.7647 31.0251 34.9347 31.0251C35.1047 31.0251 35.2747 31.1101 35.4447 31.1951C35.6147 31.2801 35.8697 31.4501 36.0397 31.6201C36.2947 31.8751 36.4647 32.0451 36.5497 32.3001C36.6347 32.4701 36.7197 32.7251 36.7197 32.8951C36.7197 33.0651 36.7197 33.2351 36.6347 33.405C36.5497 33.575 36.3797 33.8301 36.2097 34.0001L36.0397 34.1701L33.5747 31.7901Z" fill="url(#paint3_linear_10_10053)"/>
</g>
<defs>
<linearGradient id="paint0_linear_10_10053" x1="2.19147" y1="34.4675" x2="65.5916" y2="34.4675" gradientUnits="userSpaceOnUse">
<stop stop-color="#283445"/>
<stop offset="1" stop-color="#283445" stop-opacity="0.49"/>
</linearGradient>
<linearGradient id="paint1_linear_10_10053" x1="14.1402" y1="49.904" x2="21.7688" y2="49.904" gradientUnits="userSpaceOnUse">
<stop stop-color="#283445"/>
<stop offset="1" stop-color="#283445" stop-opacity="0.49"/>
</linearGradient>
<linearGradient id="paint2_linear_10_10053" x1="18.1159" y1="41.1676" x2="35.1132" y2="41.1676" gradientUnits="userSpaceOnUse">
<stop stop-color="#283445"/>
<stop offset="1" stop-color="#283445" stop-opacity="0.49"/>
</linearGradient>
<linearGradient id="paint3_linear_10_10053" x1="31.0772" y1="32.8305" x2="38.8287" y2="32.8305" gradientUnits="userSpaceOnUse">
<stop stop-color="#283445"/>
<stop offset="1" stop-color="#283445" stop-opacity="0.49"/>
</linearGradient>
<clipPath id="clip0_10_10053">
<rect width="68" height="68" fill="white" transform="translate(-0.000366211)"/>
</clipPath>
</defs>
</svg>
