<svg width="61" height="61" viewBox="0 0 61 61" fill="none" xmlns="http://www.w3.org/2000/svg">
<path d="M15.75 26.8208H19.0823H43.8511H46.9087V29.9569V44.4764H31.4864H19.0823H15.75V41.4581V29.9176V26.8208Z" stroke="#283445" stroke-width="1.5"/>
<path d="M37.0954 35.6092C37.0954 39.4334 34.4049 42.3566 31.2902 42.3566C28.1754 42.3566 25.4849 39.4334 25.4849 35.6092C25.4849 31.785 28.1754 28.8618 31.2902 28.8618C34.4049 28.8618 37.0954 31.785 37.0954 35.6092Z" stroke="#283445" stroke-width="1.5"/>
<line x1="31.3644" y1="44.3623" x2="31.3644" y2="24.0291" stroke="#283445" stroke-width="1.5" stroke-dasharray="3 3"/>
<path d="M40.9464 36.7081L40.4138 37.2362L41.6964 38.5296V36.7081H40.9464ZM40.9464 32.0763H41.6964C41.6964 31.8773 41.6174 31.6866 41.4767 31.5459L40.9464 32.0763ZM29.1704 20.3003H28.4204C28.4204 20.4992 28.4994 20.69 28.6401 20.8306L29.1704 20.3003ZM29.1704 17.8666H29.9204C29.9204 17.7539 29.895 17.6426 29.8461 17.541L29.1704 17.8666ZM26.3835 15.0796L26.7069 14.403L26.6605 14.3808L26.6114 14.3651L26.3835 15.0796ZM22.0656 19.3975L21.3748 19.6895L21.3748 19.6895L22.0656 19.3975ZM24.5778 21.9097L24.2975 22.6053L24.331 22.6188L24.3655 22.629L24.5778 21.9097ZM26.9722 22.6162L27.5048 22.0881C27.4158 21.9984 27.3057 21.9326 27.1845 21.8969L26.9722 22.6162ZM33.0957 19.9863L33.6261 20.5166L33.7705 20.3722L33.8217 20.1745L33.0957 19.9863ZM33.6453 17.8666L32.9886 17.5043C32.9583 17.5592 32.935 17.6177 32.9193 17.6784L33.6453 17.8666ZM36.4323 15.0796L36.0889 14.4128C36.0754 14.4198 36.062 14.4272 36.0489 14.435L36.4323 15.0796ZM40.9464 19.3975L41.6057 19.7549L41.6074 19.7519L40.9464 19.3975ZM38.2379 21.9097L38.2921 22.6577C38.3937 22.6504 38.4926 22.6224 38.583 22.5755L38.2379 21.9097ZM35.5294 22.1059L35.4752 21.3579C35.2955 21.3709 35.1265 21.4482 34.9991 21.5756L35.5294 22.1059ZM29.9204 20.3003V17.8666H28.4204V20.3003H29.9204ZM29.8461 17.541C29.5053 16.8338 29.1659 16.2429 28.668 15.7263C28.168 15.2076 27.5493 14.8057 26.7069 14.403L26.06 15.7563C26.8118 16.1157 27.2576 16.4245 27.588 16.7673C27.9206 17.1123 28.1776 17.5339 28.4948 18.1922L29.8461 17.541ZM26.6114 14.3651C24.7499 13.7711 23.0082 14.0268 21.9213 15.0979C20.8144 16.1887 20.6158 17.8942 21.3748 19.6895L22.7564 19.1054C22.1607 17.6964 22.4294 16.7032 22.9742 16.1663C23.539 15.6096 24.6335 15.3085 26.1555 15.7941L26.6114 14.3651ZM21.3748 19.6895C21.6714 20.3912 21.9831 20.9752 22.4569 21.4623C22.9345 21.9534 23.5259 22.2944 24.2975 22.6053L24.8581 21.214C24.1898 20.9447 23.8088 20.7009 23.5322 20.4165C23.2517 20.1281 23.0273 19.7461 22.7564 19.1054L21.3748 19.6895ZM24.3655 22.629L26.76 23.3356L27.1845 21.8969L24.7901 21.1903L24.3655 22.629ZM41.6964 36.7081V32.0763H40.1964V36.7081H41.6964ZM26.4397 23.1443L40.4138 37.2362L41.479 36.18L27.5048 22.0881L26.4397 23.1443ZM31.5064 21.5756L29.7008 19.77L28.6401 20.8306L30.4457 22.6362L31.5064 21.5756ZM31.5064 22.6362L33.6261 20.5166L32.5654 19.4559L30.4457 21.5756L31.5064 22.6362ZM33.8217 20.1745L34.3713 18.0548L32.9193 17.6784L32.3697 19.798L33.8217 20.1745ZM34.302 18.2289C34.6568 17.5859 34.9634 17.1622 35.3239 16.8066C35.6886 16.4467 36.1374 16.1276 36.8156 15.7242L36.0489 14.435C35.3292 14.863 34.7613 15.2545 34.2704 15.7388C33.7753 16.2273 33.3874 16.7815 32.9886 17.5043L34.302 18.2289ZM36.7756 15.7464C38.0204 15.1054 39.1889 15.4053 39.8991 16.0969C40.6096 16.7889 40.8972 17.9021 40.2854 19.0431L41.6074 19.7519C42.5492 17.9953 42.1136 16.1598 40.9456 15.0223C39.7772 13.8845 37.9118 13.4742 36.0889 14.4128L36.7756 15.7464ZM40.2871 19.04C39.9669 19.6306 39.6828 20.0046 39.3453 20.3103C38.9997 20.6233 38.5646 20.8956 37.8928 21.2438L38.583 22.5755C39.2904 22.2089 39.8621 21.866 40.3522 21.4221C40.8504 20.9709 41.2309 20.4462 41.6057 19.7549L40.2871 19.04ZM38.1837 21.1616L35.4752 21.3579L35.5836 22.854L38.2921 22.6577L38.1837 21.1616ZM41.4767 31.5459L33.7831 23.8523L32.7224 24.9129L40.4161 32.6066L41.4767 31.5459ZM33.7831 23.8523L31.5064 21.5756L30.4457 22.6362L32.7224 24.9129L33.7831 23.8523ZM34.9991 21.5756L32.7224 23.8523L33.7831 24.9129L36.0598 22.6362L34.9991 21.5756Z" fill="#283445"/>
<ellipse cx="37.3677" cy="18.6192" rx="1.20719" ry="1.56935" transform="rotate(43.5 37.3677 18.6192)" fill="#283445"/>
<ellipse cx="25.4346" cy="18.6189" rx="1.20719" ry="1.56935" transform="rotate(-43.5 25.4346 18.6189)" fill="#283445"/>
</svg>
