<svg width="51" height="48" viewBox="0 0 51 48" fill="none" xmlns="http://www.w3.org/2000/svg">
<path d="M25.3637 0.0214806C22.102 0.304684 19.4751 0.968746 16.9067 2.16015L16.0278 2.57031L15.6567 2.24804C15.1294 1.78906 14.4555 1.58398 13.6547 1.64257C12.5512 1.7207 11.7114 2.29687 11.2036 3.30273C10.8813 3.95703 10.8227 4.73828 11.0376 5.4707L11.1547 5.84179L9.96334 7.04296C8.88912 8.12695 8.76217 8.2832 8.76217 8.5957C8.76217 8.83984 8.83053 8.98632 9.01608 9.13281C9.49459 9.5039 9.65084 9.42578 10.9008 8.16601L12.063 6.99414L12.5903 7.23828C13.3032 7.57031 14.3579 7.58007 15.061 7.24804C15.559 7.02343 16.1157 6.54492 16.3891 6.125L16.5356 5.89062L17.5122 6.21289C19.5141 6.87695 21.8383 7.89257 23.2837 8.73242L23.9868 9.14257L23.9282 9.66015C23.8891 10.0019 23.9282 10.373 24.0356 10.7246L24.1919 11.2715L22.5512 12.9219C21.6528 13.8203 20.4907 15.0898 19.9731 15.7344L19.0454 16.9062L18.2837 16.8769C17.6001 16.8477 17.4731 16.8672 16.9067 17.1504C16.5454 17.3262 16.1645 17.5996 16.0083 17.8047C15.8618 17.9902 15.6762 18.2246 15.5981 18.3223C15.4712 18.4785 15.188 18.5176 13.4985 18.6152C11.2817 18.7422 9.82662 18.8984 7.74654 19.2598C6.34029 19.5039 6.29147 19.5039 6.19381 19.3281C6.05709 19.0937 5.53951 18.5762 5.30514 18.4492C5.11959 18.3516 5.12936 18.293 5.57858 16.9258C5.97897 15.6855 6.8774 13.7129 7.73678 12.1602C8.03951 11.623 7.96139 11.291 7.5024 11.0566C6.91647 10.7441 6.6235 11.0469 5.59811 13.0488C4.97311 14.2695 4.26998 16.0176 3.97701 17.1113L3.7524 17.9121L3.20553 18.0195C1.64303 18.332 0.637169 19.6504 0.783654 21.2031C0.891076 22.3164 1.5649 23.2441 2.561 23.6641L2.97115 23.8301L3.02975 25.2559C3.26412 31.1055 6.03756 37.2187 10.3051 41.291C11.0766 42.0332 11.0962 42.0527 10.9887 42.3555C10.8325 42.8047 10.9399 43.8887 11.1938 44.377C11.6333 45.2363 12.5415 45.8906 13.4692 46.0176C14.143 46.1152 14.729 45.9883 15.3247 45.627L15.8618 45.3047L16.438 45.5977C18.4985 46.6426 21.4087 47.4922 24.0454 47.8242C25.3051 47.9805 28.4497 47.9805 29.7094 47.8242C32.3462 47.4922 35.3247 46.6133 37.4731 45.5195L37.9126 45.2949L38.2446 45.5781C38.977 46.1836 40.2465 46.3398 41.145 45.9199C42.229 45.4219 42.854 44.543 42.9223 43.4395C42.9516 43.1074 42.9126 42.6387 42.8442 42.4141L42.7368 41.9941L43.7426 40.9687C47.4633 37.1895 49.7094 32.707 50.52 27.4043C50.7348 26.0176 50.7641 22.3457 50.5786 21.0078C50.1196 17.8144 49.1821 14.8555 47.8735 12.541C47.4829 11.8379 47.4438 11.7305 47.5708 11.5937C48.0883 11.0176 48.2739 9.72851 47.9614 8.82031C47.7563 8.21484 47.063 7.46289 46.438 7.15039C45.8715 6.86718 44.9731 6.80859 44.2993 7.0039L43.9282 7.12109L43.1567 6.41796L42.3755 5.71484L42.4243 4.90429C42.4633 4.29882 42.434 3.96679 42.3169 3.5957C41.9751 2.58984 40.9106 1.75 39.8169 1.65234C39.0454 1.58398 38.684 1.66211 38.0102 2.0625L37.4438 2.41406L36.3598 1.95507C34.2016 1.04687 32.2192 0.490231 30.0512 0.197262C29.0161 0.0605431 26.1645 -0.0468788 25.3637 0.0214806ZM30.0219 1.67187C32.0434 1.96484 34.0161 2.52148 35.7837 3.30273L36.6919 3.69336L36.6333 4.10351C36.5942 4.31836 36.5551 4.51367 36.5454 4.5332C36.5258 4.55273 35.9399 4.75781 35.2368 5.00195C33.2446 5.67578 31.1645 6.62304 29.4067 7.63867L29.0161 7.87304L28.6059 7.57031C27.5805 6.81836 26.1352 6.81836 25.1001 7.57031L24.7094 7.85351L24.2797 7.60937C22.561 6.61328 19.4458 5.25586 17.6294 4.70898C16.7993 4.45507 16.77 4.43554 16.77 4.16211C16.77 3.89843 16.8383 3.83984 17.434 3.53711C19.4848 2.51171 22.6489 1.6914 25.3637 1.48632C26.3598 1.41796 28.9477 1.51562 30.0219 1.67187ZM14.5239 3.26367C15.5493 3.77148 15.5786 5.28515 14.5825 5.88086C14.1235 6.15429 13.4399 6.11523 13.02 5.7832C12.5219 5.41211 12.3462 5.01171 12.395 4.43554C12.4243 4.17187 12.5317 3.83007 12.6391 3.69336C12.8833 3.35156 13.4106 3.08789 13.8403 3.08789C14.0258 3.08789 14.3383 3.16601 14.5239 3.26367ZM40.2856 3.2832C41.2231 3.85937 41.2329 5.30468 40.3051 5.85156C39.9731 6.04687 39.3286 6.08593 38.9282 5.93945C38.352 5.71484 37.9614 4.91406 38.0981 4.25C38.2837 3.29296 39.4555 2.77539 40.2856 3.2832ZM37.3852 6.54492C37.9809 7.18945 38.6255 7.49218 39.4653 7.50195C40.1196 7.51171 40.6958 7.36523 41.1157 7.07226C41.2622 6.96484 41.4184 6.89648 41.4672 6.91601C41.5161 6.93554 41.8286 7.20898 42.1606 7.52148L42.7661 8.09765L42.5317 8.58593C42.3559 8.98632 42.3071 9.24023 42.3169 9.86523C42.3169 10.832 42.6001 11.4473 43.3032 12.0625L43.7622 12.4727L43.3911 13.6152C42.5512 16.1836 41.3891 18.8496 40.0415 21.2812C39.309 22.6094 39.2797 22.6387 39.0063 22.5801C38.8501 22.5508 38.5571 22.5215 38.3618 22.5215C38.0102 22.5215 38.0102 22.5117 37.4731 21.4766C35.7739 18.1562 33.2251 14.7773 30.559 12.2773L29.5239 11.3008L29.6606 10.9297C29.729 10.7246 29.7973 10.2266 29.7973 9.82617L29.8071 9.10351L30.1977 8.86914C30.9497 8.42968 32.8833 7.48242 33.7329 7.13086C34.563 6.77929 36.6528 6.03711 36.8188 6.02734C36.8676 6.01757 37.1215 6.25195 37.3852 6.54492ZM45.9497 8.55664C47.2192 9.33789 46.6723 11.291 45.1782 11.291C44.3774 11.291 43.7231 10.6269 43.7231 9.82617C43.7231 8.70312 44.9926 7.98046 45.9497 8.55664ZM27.6098 8.67382C28.1372 9.03515 28.313 9.35742 28.313 9.91406C28.313 10.793 27.727 11.418 26.8872 11.418C25.7641 11.418 25.061 10.3144 25.5493 9.31836C25.9301 8.51757 26.9262 8.21484 27.6098 8.67382ZM25.7153 12.668C26.3598 12.9609 27.2778 12.9512 28.0297 12.668L28.5864 12.4434L29.5044 13.2832C30.4223 14.1328 31.7212 15.5391 32.7368 16.8086C33.6547 17.9414 35.3344 20.5391 36.0083 21.8574C36.6137 23.0391 36.6333 23.1074 36.477 23.2734C36.311 23.4297 36.2622 23.4199 35.4028 23.0195C32.1508 21.5059 28.8696 20.3633 25.6567 19.6406C24.3969 19.3574 21.7505 18.9082 21.3403 18.9082C21.1352 18.9082 21.0376 18.8301 20.9106 18.5859C20.8227 18.4199 20.6469 18.1367 20.5297 17.9707L20.3051 17.6777L21.1938 16.5547C22.0727 15.4609 24.9633 12.4629 25.1489 12.4629C25.1977 12.4629 25.4516 12.5605 25.7153 12.668ZM46.77 13.5859C47.9028 15.7246 48.7036 18.293 49.1137 21.1055C49.309 22.4336 49.2797 25.9199 49.0649 27.3066C48.8696 28.5078 48.3325 30.7148 48.0688 31.3887L47.9028 31.7988L47.1508 31.1152C45.8032 29.875 43.6938 28.127 42.5024 27.2676L41.3403 26.4277L41.3696 25.6172C41.3891 24.8945 41.3598 24.7578 41.1157 24.2793C40.9594 23.9863 40.7739 23.6543 40.7055 23.5371C40.5883 23.3613 40.6469 23.2051 41.3696 21.916C42.688 19.543 43.8891 16.7891 44.7778 14.1035L45.2172 12.7656L45.6176 12.7266C45.8325 12.707 46.0864 12.6973 46.1645 12.6973C46.2426 12.707 46.5161 13.1074 46.77 13.5859ZM18.9868 18.5176C19.3481 18.7324 19.6997 19.3574 19.6997 19.7578C19.6997 20.207 19.2993 20.8711 18.9184 21.0762C18.2251 21.4375 17.3364 21.2227 16.9458 20.5879C16.5258 19.9043 16.7309 18.957 17.4145 18.5078C17.7954 18.2539 18.5669 18.2637 18.9868 18.5176ZM4.47506 19.6504C4.88522 19.8555 5.14889 20.3633 5.14889 20.9297C5.14889 22.8145 2.42428 22.9414 2.23873 21.0566C2.12154 19.8359 3.35201 19.0645 4.47506 19.6504ZM15.3344 20.4316C15.3735 20.6465 15.5493 21.0664 15.7251 21.3594L16.0473 21.8867L15.5883 22.8633C14.2505 25.7441 13.3032 29.0742 12.7954 32.6777C12.6587 33.6445 12.6196 34.5625 12.6196 37.1309V40.373L12.2973 40.5781C12.0044 40.7734 11.9653 40.7734 11.7407 40.627C11.3794 40.3926 10.0219 38.8594 9.26022 37.8145C6.55514 34.1621 4.7192 29.2012 4.49459 24.9629L4.436 23.8398L4.95358 23.6055C5.89108 23.1855 6.50631 22.3652 6.5942 21.4277C6.64303 20.8906 6.42819 20.9687 8.90865 20.627C11.2524 20.3047 14.2309 20.002 14.9145 20.0215C15.227 20.0312 15.2563 20.0605 15.3344 20.4316ZM23.6059 20.7246C27.2485 21.3887 31.1352 22.6289 34.4262 24.1914L35.5395 24.7187L35.5493 25.5C35.5688 26.1152 35.6176 26.3887 35.8227 26.7891L36.0669 27.2871L35.0512 28.498C33.1372 30.7441 30.3637 33.3809 28.0395 35.1387C25.0122 37.4336 21.2231 39.5723 17.6684 40.9883L16.3794 41.5059L16.0766 41.1445C15.7348 40.7246 15.1391 40.3535 14.563 40.207L14.1626 40.0996L14.104 39.2988C14.0063 38.0488 14.0258 35.1973 14.143 33.9473C14.4555 30.5195 15.354 27.0527 16.7309 23.918L17.2778 22.668H18.1762C18.9184 22.668 19.1333 22.6289 19.4946 22.4434C20.1098 22.1113 20.7446 21.418 20.9399 20.8418L21.1157 20.3535L21.7016 20.4219C22.0239 20.4512 22.8833 20.5879 23.6059 20.7246ZM39.3286 24.2793C40.1977 24.8945 40.0903 26.3008 39.1333 26.7891C38.6059 27.0625 38.3325 27.0723 37.8149 26.8184C36.77 26.3105 36.7016 24.8359 37.7075 24.2207C38.2055 23.918 38.8501 23.9375 39.3286 24.2793ZM41.5063 28.3516C43.2934 29.6406 45.2075 31.2617 46.5063 32.5703L47.2778 33.3613L46.9165 34.1035C45.8227 36.3105 43.8501 38.9473 42.1899 40.4316L41.7797 40.793L41.3794 40.5879C40.9985 40.3926 40.9692 40.3535 41.0278 40.0703C41.0669 39.8945 41.1157 38.9375 41.1547 37.9414L41.2133 36.1152L40.9594 35.8613C40.6469 35.5488 40.2661 35.5391 39.9731 35.832C39.768 36.0469 39.7485 36.1543 39.6801 37.9023C39.6508 38.9277 39.5922 39.8652 39.563 40.002C39.5239 40.1973 39.3969 40.2949 39.0063 40.4316C38.645 40.5586 38.3325 40.7734 37.9516 41.1641C37.2876 41.8477 37.0532 42.4238 37.0922 43.3809L37.1118 44.0352L36.5551 44.3184C35.7153 44.7383 34.143 45.334 32.9809 45.666C27.9223 47.1211 22.2973 46.6914 17.5512 44.4844L16.6919 44.084L16.7407 43.5273C16.77 43.2246 16.8188 42.9512 16.8579 42.9219C16.8872 42.8828 17.5512 42.6094 18.3325 42.2969C23.0395 40.4219 27.6294 37.6094 31.4184 34.2695C32.9321 32.9316 35.1977 30.6172 36.3305 29.25L37.1899 28.2148L37.6977 28.3516C37.9712 28.4199 38.2934 28.4785 38.4106 28.4785C38.6059 28.4785 38.6547 28.5762 38.8403 29.3672C38.9477 29.8555 39.1333 30.7051 39.2309 31.252C39.4555 32.4824 39.4751 32.541 39.8071 32.6777C40.1098 32.7949 40.4712 32.6973 40.686 32.4434C40.8715 32.2187 40.7739 31.3105 40.3637 29.5039L40.0317 28.0391L40.2368 27.873C40.354 27.7754 40.4809 27.6973 40.5297 27.6973C40.5688 27.6973 41.0083 27.9902 41.5063 28.3516ZM14.5239 41.7891C15.5786 42.3457 15.5786 43.8496 14.5239 44.4062C13.8403 44.7773 12.9809 44.5137 12.5805 43.8105C12.229 43.1855 12.3462 42.4824 12.8833 41.9844C13.3715 41.5254 13.9087 41.457 14.5239 41.7891ZM40.9497 42.0527C41.311 42.4043 41.477 42.7656 41.477 43.2441C41.477 44.709 39.5239 45.2363 38.7329 43.9863C38.5766 43.7324 38.5473 43.5469 38.5766 43.0879C38.6059 42.5605 38.645 42.4824 39.0258 42.1211C39.436 41.7402 39.4555 41.7402 40.061 41.7793C40.559 41.8086 40.7446 41.8672 40.9497 42.0527Z" fill="url(#paint0_linear_1_14094)"/>
<defs>
<linearGradient id="paint0_linear_1_14094" x1="-0.730469" y1="22.5" x2="58.7695" y2="23.5" gradientUnits="userSpaceOnUse">
<stop stop-color="#F8A65E"/>
<stop offset="1" stop-color="#F4745F"/>
</linearGradient>
</defs>
</svg>
