<svg width="50" height="61" viewBox="0 0 50 61" fill="none" xmlns="http://www.w3.org/2000/svg">
<path d="M8.755 36.9751H1.02C0.425 36.9751 0 37.4851 0 37.9951V59.5851C0 60.1801 0.51 60.6051 1.02 60.6051H8.755C9.35 60.6051 9.775 60.0951 9.775 59.5851V37.9951C9.86 37.4851 9.35 36.9751 8.755 36.9751ZM2.04 58.5651V39.1001H7.65V58.5651H2.04Z" fill="url(#paint0_linear_127_26)"/>
<path d="M22.015 22.78H14.28C13.685 22.78 13.26 23.29 13.26 23.8V59.585C13.26 60.18 13.77 60.605 14.28 60.605H22.015C22.61 60.605 23.035 60.095 23.035 59.585V23.885C23.035 23.29 22.525 22.78 22.015 22.78ZM15.3 58.565V24.905H20.91V58.565H15.3Z" fill="url(#paint1_linear_127_26)"/>
<path d="M35.1901 31.1101H27.4551C26.8601 31.1101 26.4351 31.6201 26.4351 32.1301V59.6701C26.4351 60.2651 26.9451 60.6901 27.4551 60.6901H35.1901C35.7851 60.6901 36.2101 60.1801 36.2101 59.6701V32.1301C36.2101 31.5351 35.7851 31.1101 35.1901 31.1101ZM34.1701 33.1501V58.5651H28.5601V33.1501H34.1701Z" fill="url(#paint2_linear_127_26)"/>
<path d="M48.365 17.3401H40.63C40.035 17.3401 39.61 17.8501 39.61 18.3601V59.5851C39.61 60.1801 40.12 60.6051 40.63 60.6051H48.365C48.96 60.6051 49.385 60.0951 49.385 59.5851V18.4451C49.47 17.8501 48.96 17.3401 48.365 17.3401ZM47.345 19.4651V58.5651H41.735V19.4651H47.345V19.4651Z" fill="url(#paint3_linear_127_26)"/>
<path d="M4.93006 30.6C7.05506 30.6 8.84006 28.9 8.84006 26.69C8.84006 26.095 8.67006 25.415 8.41506 24.905L16.1501 17.85C16.7451 18.19 17.4251 18.445 18.1901 18.445C19.1251 18.445 20.0601 18.105 20.8251 17.425L27.7101 21.76C27.6251 22.185 27.5401 22.525 27.5401 22.865C27.5401 24.99 29.3251 26.775 31.4501 26.775C33.5751 26.775 35.3601 24.99 35.3601 22.865C35.3601 21.93 35.0201 21.08 34.4251 20.4L43.3501 7.565C43.7751 7.735 44.2001 7.82 44.6251 7.82C46.7501 7.82 48.5351 6.035 48.5351 3.91C48.5351 1.785 46.7501 0 44.6251 0C42.5001 0 40.7151 1.785 40.7151 3.91C40.7151 4.845 41.0551 5.695 41.6501 6.375L32.6401 19.125C31.2801 18.7 29.8351 18.955 28.7301 19.89L21.8451 15.555C21.9301 15.13 22.0151 14.79 22.0151 14.45C22.0151 12.325 20.2301 10.54 18.1051 10.54C15.9801 10.54 14.1951 12.325 14.1951 14.45C14.1951 15.045 14.3651 15.64 14.6201 16.235L6.88506 23.29C6.29006 22.95 5.52506 22.695 4.84506 22.695C2.72006 22.695 0.935059 24.48 0.935059 26.605C1.02006 28.815 2.72006 30.6 4.93006 30.6ZM19.6351 15.47C19.3801 15.895 18.7851 16.235 18.1901 16.235C17.5951 16.32 17.0851 16.065 16.7451 15.725C16.4051 15.385 16.2351 14.96 16.2351 14.535C16.2351 13.515 17.0001 12.75 18.0201 12.75C19.0401 12.75 19.8051 13.6 19.8051 14.535C19.8901 14.875 19.8051 15.215 19.6351 15.47ZM3.06006 26.69C3.06006 25.67 3.91006 24.905 4.84506 24.905C5.35506 24.905 5.86506 25.075 6.20506 25.5C6.54506 25.84 6.71506 26.265 6.71506 26.69C6.71506 27.71 5.86506 28.475 4.93006 28.475C3.91006 28.475 3.06006 27.71 3.06006 26.69ZM42.7551 3.91C42.7551 2.89 43.6051 2.125 44.5401 2.125C45.4751 2.125 46.3251 2.975 46.3251 3.91C46.3251 4.93 45.4751 5.695 44.5401 5.695C44.2001 5.695 43.8601 5.61 43.6051 5.44L43.5201 5.355C43.0101 5.015 42.7551 4.42 42.7551 3.91ZM29.4951 22.865C29.4951 22.525 29.5801 22.185 29.7501 21.93C30.0901 21.42 30.6851 21.08 31.2801 21.08C31.6201 21.08 31.9601 21.165 32.3001 21.42C32.8101 21.76 33.0651 22.27 33.0651 22.865C33.0651 23.885 32.3001 24.65 31.2801 24.65C30.3451 24.65 29.4951 23.8 29.4951 22.865Z" fill="url(#paint4_linear_127_26)"/>
<defs>
<linearGradient id="paint0_linear_127_26" x1="-2.57511" y1="59.4642" x2="26.6193" y2="52.2433" gradientUnits="userSpaceOnUse">
<stop stop-color="#283445"/>
<stop offset="1" stop-color="#283445" stop-opacity="0.5"/>
</linearGradient>
<linearGradient id="paint1_linear_127_26" x1="10.6873" y1="58.7788" x2="40.9179" y2="54.1121" gradientUnits="userSpaceOnUse">
<stop stop-color="#283445"/>
<stop offset="1" stop-color="#283445" stop-opacity="0.5"/>
</linearGradient>
<linearGradient id="paint2_linear_127_26" x1="23.8624" y1="59.2619" x2="53.6526" y2="53.3814" gradientUnits="userSpaceOnUse">
<stop stop-color="#283445"/>
<stop offset="1" stop-color="#283445" stop-opacity="0.5"/>
</linearGradient>
<linearGradient id="paint3_linear_127_26" x1="37.0349" y1="58.5162" x2="67.4601" y2="54.4061" gradientUnits="userSpaceOnUse">
<stop stop-color="#283445"/>
<stop offset="1" stop-color="#283445" stop-opacity="0.5"/>
</linearGradient>
<linearGradient id="paint4_linear_127_26" x1="-11.5927" y1="29.1226" x2="69.2898" y2="-46.0336" gradientUnits="userSpaceOnUse">
<stop stop-color="#283445"/>
<stop offset="1" stop-color="#283445" stop-opacity="0.5"/>
</linearGradient>
</defs>
</svg>
