<svg width="27" height="50" viewBox="0 0 27 50" fill="none" xmlns="http://www.w3.org/2000/svg">
<rect y="11" width="27" height="27" rx="13.5" fill="url(#paint0_linear_1_10612)"/>
<g clip-path="url(#clip0_1_10612)">
<path d="M21 24.6768V24.7475C21 24.7475 21 24.8064 21 24.83C20.9887 24.8586 20.9749 24.8862 20.9588 24.9125C20.9492 24.9334 20.9374 24.9532 20.9235 24.9714C20.8949 25.0163 20.8613 25.0578 20.8234 25.0952L15.1781 30.7524C15.1013 30.8308 15.0097 30.8931 14.9087 30.9356C14.8076 30.9781 14.699 31 14.5894 31C14.4798 31 14.3712 30.9781 14.2701 30.9356C14.1691 30.8931 14.0775 30.8308 14.0007 30.7524C13.9209 30.6764 13.8574 30.585 13.814 30.4837C13.7706 30.3824 13.7482 30.2733 13.7482 30.1631C13.7482 30.0529 13.7706 29.9438 13.814 29.8425C13.8574 29.7412 13.9209 29.6498 14.0007 29.5738L18.245 25.3191H5.81825C5.60124 25.3191 5.39311 25.2328 5.23966 25.0792C5.08621 24.9256 5 24.7172 5 24.5C5 24.2828 5.08621 24.0744 5.23966 23.9208C5.39311 23.7672 5.60124 23.6809 5.81825 23.6809H18.2156L13.9713 19.4262C13.8915 19.3502 13.828 19.2588 13.7846 19.1575C13.7411 19.0562 13.7188 18.9471 13.7188 18.8369C13.7188 18.7267 13.7411 18.6176 13.7846 18.5163C13.828 18.415 13.8915 18.3236 13.9713 18.2476C14.048 18.1692 14.1396 18.1069 14.2407 18.0644C14.3418 18.0219 14.4503 18 14.56 18C14.6696 18 14.7782 18.0219 14.8792 18.0644C14.9803 18.1069 15.0719 18.1692 15.1486 18.2476L20.7763 23.9461C20.8129 23.9867 20.8463 24.03 20.8764 24.0757C20.8903 24.094 20.9021 24.1138 20.9117 24.1346C20.9278 24.1609 20.9416 24.1885 20.9529 24.2171C20.9529 24.2171 20.9529 24.2702 20.9529 24.2996C20.9529 24.3291 20.9529 24.3409 20.9529 24.3704C20.9765 24.4751 20.9765 24.5838 20.9529 24.6886L21 24.6768Z" fill="white"/>
</g>
<defs>
<linearGradient id="paint0_linear_1_10612" x1="0" y1="38" x2="27" y2="11" gradientUnits="userSpaceOnUse">
<stop stop-color="#FFD3AD"/>
<stop offset="0.5" stop-color="#F8A55E"/>
<stop offset="1" stop-color="#F3715F"/>
</linearGradient>
<clipPath id="clip0_1_10612">
<rect width="27" height="50" fill="white"/>
</clipPath>
</defs>
</svg>
