<svg width="61" height="61" viewBox="0 0 61 61" fill="none" xmlns="http://www.w3.org/2000/svg">
<path d="M17 44L16.2672 43.8404C16.1881 44.2034 16.3867 44.5695 16.734 44.7013C17.0814 44.833 17.4728 44.6906 17.6543 44.3665L17 44ZM33.657 27.5304L33.7274 28.2771L34.407 28.213V27.5304H33.657ZM33.657 22L34.1221 21.4116C33.8965 21.2333 33.5889 21.1997 33.3301 21.325C33.0714 21.4503 32.907 21.7125 32.907 22H33.657ZM45 30.9641L45.465 31.5525L46.2096 30.9641L45.465 30.3757L45 30.9641ZM33.657 39.9282H32.907C32.907 40.2157 33.0714 40.4779 33.3301 40.6032C33.5889 40.7285 33.8965 40.6949 34.1221 40.5166L33.657 39.9282ZM33.657 34.337H34.407V33.5826L33.6526 33.587L33.657 34.337ZM17.7328 44.1596C18.9446 38.5965 20.2877 34.9256 22.5996 32.4957C24.8841 30.0944 28.226 28.7957 33.7274 28.2771L33.5867 26.7837C27.9334 27.3166 24.161 28.6783 21.5128 31.4618C18.8919 34.2165 17.4839 38.2547 16.2672 43.8404L17.7328 44.1596ZM34.407 27.5304V22H32.907V27.5304H34.407ZM33.192 22.5884L44.535 31.5525L45.465 30.3757L34.1221 21.4116L33.192 22.5884ZM44.535 30.3757L33.192 39.3397L34.1221 40.5166L45.465 31.5525L44.535 30.3757ZM34.407 39.9282V34.337H32.907V39.9282H34.407ZM33.6526 33.587C29.11 33.6137 25.8172 34.1951 23.122 35.7849C20.4254 37.3754 18.4278 39.916 16.3457 43.6335L17.6543 44.3665C19.6907 40.7308 21.5284 38.4663 23.884 37.0769C26.241 35.6866 29.2175 35.1131 33.6614 35.087L33.6526 33.587Z" fill="#283445"/>
</svg>
