<svg width="61" height="61" viewBox="0 0 61 61" fill="none" xmlns="http://www.w3.org/2000/svg">
<path d="M18.3496 19V19.75V19ZM45.2917 21.1944H44.5417H45.2917ZM14.0015 39.6434V38.8934C13.5935 38.8934 13.2604 39.2194 13.2516 39.6272L14.0015 39.6434ZM18.3496 42.2848V43.0348L18.3511 43.0348L18.3496 42.2848ZM42.8668 42.2335L42.8781 41.4835L42.8653 41.4835L42.8668 42.2335ZM46.9984 39.6434L47.7483 39.628C47.7399 39.2199 47.4066 38.8934 46.9984 38.8934V39.6434ZM18.3496 19.75H42.8535V18.25H18.3496V19.75ZM42.8535 19.75C43.4332 19.75 43.8526 19.9256 44.118 20.1657C44.3773 20.4003 44.5417 20.7419 44.5417 21.1944H46.0417C46.0417 20.3465 45.7184 19.5909 45.1244 19.0534C44.5364 18.5214 43.7368 18.25 42.8535 18.25V19.75ZM44.5417 21.1944V36.7582H46.0417V21.1944H44.5417ZM44.5417 36.7582C44.5417 37.4115 44.3803 37.7982 44.1252 38.0826C43.8461 38.3938 43.3802 38.667 42.6078 38.9348L43.0991 40.352C43.9561 40.055 44.7093 39.678 45.2419 39.084C45.7987 38.4632 46.0417 37.6897 46.0417 36.7582H44.5417ZM42.8535 38.8934H18.3496V40.3934H42.8535V38.8934ZM18.5227 38.9137C17.7553 38.7316 17.4206 38.4846 17.2445 38.2304C17.0543 37.9558 16.9458 37.5279 16.9458 36.7582H15.4458C15.4458 37.614 15.5545 38.4247 16.0114 39.0844C16.4823 39.7645 17.2245 40.1473 18.1765 40.3732L18.5227 38.9137ZM16.9458 36.7582V21.1944H15.4458V36.7582H16.9458ZM16.9458 21.1944C16.9458 20.3832 17.5089 19.75 18.3496 19.75V18.25C16.5896 18.25 15.4458 19.6486 15.4458 21.1944H16.9458ZM18.3496 38.8934H14.0015V40.3934H18.3496V38.8934ZM13.2516 39.6272C13.2284 40.7041 13.4522 41.7 14.4293 42.3262C15.2845 42.8742 16.5902 43.0348 18.3496 43.0348V41.5348C16.5736 41.5348 15.6843 41.3489 15.2387 41.0633C14.9151 40.8559 14.7325 40.5311 14.7513 39.6596L13.2516 39.6272ZM18.3511 43.0348L42.8684 42.9835L42.8653 41.4835L18.348 41.5348L18.3511 43.0348ZM42.8555 42.9835C43.7223 42.9965 44.454 42.969 45.0619 42.8795C45.6664 42.7905 46.1994 42.6335 46.6323 42.3519C47.587 41.7309 47.7705 40.7131 47.7483 39.628L46.2486 39.6588C46.2682 40.615 46.086 40.9179 45.8144 41.0944C45.6343 41.2116 45.339 41.3226 44.8435 41.3955C44.3514 41.4679 43.7115 41.4962 42.8781 41.4836L42.8555 42.9835ZM46.9984 38.8934H42.8535V40.3934H46.9984V38.8934Z" fill="#F5F5F7"/>
<path d="M19.6484 34.1988L26.069 27.6969L30.4984 32.2076L37.4879 24.7305L41.4297 28.5909" stroke="#F5F5F7" stroke-width="1.5" stroke-linecap="round"/>
<circle cx="26.2028" cy="27.6348" r="1.5" fill="#F5F5F7"/>
<circle cx="30.6621" cy="32.0938" r="1.5" fill="#F5F5F7"/>
<circle cx="37.5" cy="24.5" r="1.5" fill="#F5F5F7"/>
</svg>
