<svg width="37" height="37" viewBox="0 0 37 37" fill="none" xmlns="http://www.w3.org/2000/svg">
<path d="M6.34958 7V7.75V7ZM33.2917 9.19438H32.5417H33.2917ZM2.00146 27.6434V26.8934C1.59355 26.8934 1.26043 27.2194 1.25163 27.6272L2.00146 27.6434ZM6.34958 30.2848V31.0348L6.35114 31.0348L6.34958 30.2848ZM30.8668 30.2335L30.8781 29.4835L30.8653 29.4835L30.8668 30.2335ZM34.9984 27.6434L35.7483 27.628C35.7399 27.2199 35.4066 26.8934 34.9984 26.8934V27.6434ZM6.34958 7.75H30.8535V6.25H6.34958V7.75ZM30.8535 7.75C31.4332 7.75 31.8526 7.92559 32.118 8.1657C32.3773 8.4003 32.5417 8.74192 32.5417 9.19438H34.0417C34.0417 8.34647 33.7184 7.5909 33.1244 7.0534C32.5364 6.52142 31.7368 6.25 30.8535 6.25V7.75ZM32.5417 9.19438V24.7582H34.0417V9.19438H32.5417ZM32.5417 24.7582C32.5417 25.4115 32.3803 25.7982 32.1252 26.0826C31.8461 26.3938 31.3802 26.667 30.6078 26.9348L31.0991 28.352C31.9561 28.055 32.7093 27.678 33.2419 27.084C33.7987 26.4632 34.0417 25.6897 34.0417 24.7582H32.5417ZM30.8535 26.8934H6.34958V28.3934H30.8535V26.8934ZM6.52269 26.9137C5.75528 26.7316 5.42059 26.4846 5.24452 26.2304C5.05435 25.9558 4.94583 25.5279 4.94583 24.7582H3.44583C3.44583 25.614 3.55451 26.4247 4.01137 27.0844C4.48232 27.7645 5.22451 28.1473 6.17647 28.3732L6.52269 26.9137ZM4.94583 24.7582V9.19438H3.44583V24.7582H4.94583ZM4.94583 9.19438C4.94583 8.3832 5.50891 7.75 6.34958 7.75V6.25C4.58964 6.25 3.44583 7.64863 3.44583 9.19438H4.94583ZM6.34958 26.8934H2.00146V28.3934H6.34958V26.8934ZM1.25163 27.6272C1.2284 28.7041 1.45216 29.7 2.42934 30.3262C3.28448 30.8742 4.59023 31.0348 6.34958 31.0348V29.5348C4.5736 29.5348 3.68428 29.3489 3.23868 29.0633C2.91511 28.8559 2.73248 28.5311 2.75128 27.6596L1.25163 27.6272ZM6.35114 31.0348L30.8684 30.9835L30.8653 29.4835L6.34801 29.5348L6.35114 31.0348ZM30.8555 30.9835C31.7223 30.9965 32.454 30.969 33.0619 30.8795C33.6664 30.7905 34.1994 30.6335 34.6323 30.3519C35.587 29.7309 35.7705 28.7131 35.7483 27.628L34.2486 27.6588C34.2682 28.615 34.086 28.9179 33.8144 29.0944C33.6343 29.2116 33.339 29.3226 32.8435 29.3955C32.3514 29.4679 31.7115 29.4962 30.8781 29.4836L30.8555 30.9835ZM34.9984 26.8934H30.8535V28.3934H34.9984V26.8934Z" fill="#283445"/>
<path d="M7.64844 22.1981L14.069 15.6962L18.4984 20.2069L25.4879 12.7297L29.4297 16.5902" stroke="#283445" stroke-width="1.5" stroke-linecap="round"/>
<circle cx="14.2028" cy="15.6351" r="1.5" fill="#283445"/>
<circle cx="18.6621" cy="20.0946" r="1.5" fill="#283445"/>
<circle cx="25.5" cy="12.5" r="1.5" fill="#283445"/>
</svg>
