<svg width="28" height="25" viewBox="0 0 28 25" fill="none" xmlns="http://www.w3.org/2000/svg">
<path d="M25.8553 4.82533C25.8553 4.85073 25.8528 4.87187 25.8495 4.88842C25.1719 5.32137 21.383 7.64544 20.6747 8.06723C20.6001 8.06879 20.4107 8.04532 20.1405 7.91329C19.8525 7.77282 19.0128 7.33526 17.8383 6.71296L16.9244 6.22883L16.0632 6.79032C15.4229 7.20903 14.0307 8.20503 11.9112 10.1727C9.78265 12.1489 8.71338 13.4369 8.26495 14.0292L7.66027 14.8289L8.18247 15.6775C8.68854 16.4999 9.29487 17.4936 9.47762 17.8169C9.62475 18.0763 9.63638 18.2537 9.63638 18.3018C9.63638 18.3095 9.63638 18.316 9.63552 18.3214C9.23765 18.9106 6.66723 22.5051 6.1989 23.1396C6.13259 23.15 5.98836 23.1404 5.80808 23.0238C4.35088 22.0471 2.83028 20.6609 2.61228 20.1182C2.75816 17.2311 5.49061 13.1799 10.3202 8.69609C15.1501 4.21266 19.5084 1.67577 22.6073 1.54185C23.1933 1.73658 24.6957 3.14893 25.7392 4.48895C25.8126 4.58824 25.8553 4.71101 25.8553 4.82533ZM27.4614 4.82531C27.4614 4.41776 27.3288 3.98553 27.0478 3.61069C27.0204 3.57452 24.2436 -0.0476305 22.6356 0.000474945C18.1173 0.134016 12.807 4.21105 9.14782 7.60765C5.4895 11.0043 1.09719 15.9353 0.952522 20.1474V20.182C0.952522 21.6568 4.80356 24.2491 4.84169 24.2741C5.88817 24.9545 7.04036 24.7063 7.50827 24.087C7.79341 23.7103 10.7455 19.5878 11.0779 19.0826C11.223 18.8624 11.2938 18.5938 11.2938 18.3017C11.2938 17.9249 11.1753 17.5078 10.9448 17.1006C10.7198 16.7039 9.98335 15.502 9.62156 14.914C10.0132 14.3959 11.017 13.1791 13.0838 11.2618C15.1349 9.35643 16.4562 8.41587 17.0169 8.04991C17.6498 8.38509 18.9441 9.06818 19.3702 9.276C20.1733 9.66969 20.9753 9.71436 21.5162 9.39494C22.0259 9.09515 26.4327 6.36507 26.8522 6.08336C27.248 5.81743 27.4614 5.34138 27.4614 4.82531Z" fill="url(#paint0_linear_1_3338)"/>
<defs>
<linearGradient id="paint0_linear_1_3338" x1="14.207" y1="0" x2="14.207" y2="24.6813" gradientUnits="userSpaceOnUse">
<stop stop-color="#FEA249"/>
<stop offset="1" stop-color="#F36E5F"/>
</linearGradient>
</defs>
</svg>
