<svg width="61" height="60" viewBox="0 0 61 60" fill="none" xmlns="http://www.w3.org/2000/svg">
<path d="M42.8754 45.0703V45.8203V45.0703ZM20.032 17.115L19.5408 16.5483C19.2386 16.8101 19.195 17.263 19.4417 17.5777L20.032 17.115ZM22.3482 20.0703L22.8519 20.626C23.1434 20.3618 23.1812 19.9173 22.9385 19.6076L22.3482 20.0703ZM18.5144 23.5447L18.0107 22.989C17.7107 23.2609 17.6807 23.722 17.943 24.0305L18.5144 23.5447ZM42.8754 23.5447L43.4307 24.0488C43.5654 23.9005 43.6351 23.7044 43.6243 23.5044C43.6136 23.3043 43.5232 23.1169 43.3733 22.9839L42.8754 23.5447ZM38.9617 20.0703L38.4241 19.5473C38.2813 19.6941 38.2047 19.893 38.2122 20.0977C38.2197 20.3024 38.3106 20.4952 38.4638 20.6312L38.9617 20.0703ZM41.8371 17.115L42.3746 17.638C42.527 17.4814 42.6035 17.2661 42.5841 17.0484C42.5647 16.8307 42.4513 16.6323 42.2735 16.5051L41.8371 17.115ZM27.2454 26.6997L26.5241 26.9052L27.2454 26.6997ZM33.5831 26.6997L34.3001 26.9199L33.5831 26.6997ZM42.8754 14.75C43.7815 14.75 44.4003 14.751 44.8511 14.7989C45.3104 14.8476 45.4317 14.9326 45.4674 14.9667C45.4961 14.9941 45.5797 15.0929 45.6292 15.5188C45.6785 15.9425 45.6797 16.5268 45.6797 17.3946H47.1797C47.1797 16.5651 47.181 15.8764 47.1192 15.3454C47.0577 14.8166 46.9191 14.2789 46.5035 13.8819C46.0949 13.4917 45.5497 13.3646 45.0094 13.3072C44.4605 13.249 43.7465 13.25 42.8754 13.25V14.75ZM45.6797 17.3946V41.5559H47.1797V17.3946H45.6797ZM45.6797 41.5559C45.6797 42.4531 45.6786 43.0616 45.6289 43.5039C45.5787 43.951 45.4925 44.0637 45.4581 44.0977C45.422 44.1334 45.3037 44.2199 44.8484 44.2699C44.3993 44.3192 43.7821 44.3203 42.8754 44.3203V45.8203C43.7459 45.8203 44.4616 45.8214 45.0122 45.7609C45.5564 45.7011 46.1046 45.5679 46.5128 45.1643C46.9227 44.759 47.0587 44.2128 47.1195 43.6714C47.1809 43.1254 47.1797 42.416 47.1797 41.5559H45.6797ZM18.5144 44.3203C17.6175 44.3203 17.0084 44.3192 16.5655 44.27C16.117 44.2202 16.0034 44.1345 15.9696 44.1007C15.9358 44.0669 15.8502 43.9533 15.8003 43.5049C15.7511 43.0619 15.75 42.4529 15.75 41.5559H14.25C14.25 42.4162 14.2489 43.125 14.3095 43.6705C14.3695 44.2105 14.5034 44.7558 14.909 45.1613C15.3145 45.5669 15.8598 45.7008 16.3998 45.7608C16.9453 45.8214 17.6541 45.8203 18.5144 45.8203V44.3203ZM15.75 41.5559V17.3946H14.25V41.5559H15.75ZM15.75 17.3946C15.75 16.527 15.7512 15.9421 15.8 15.5178C15.8492 15.0905 15.9323 14.9908 15.9604 14.9638C15.9937 14.9316 16.1102 14.8473 16.5627 14.7988C17.0073 14.751 17.6181 14.75 18.5144 14.75V13.25C17.6535 13.25 16.9464 13.249 16.4026 13.3073C15.8666 13.3648 15.3242 13.4927 14.9182 13.8849C14.507 14.2821 14.3705 14.819 14.3098 15.3464C14.2488 15.8768 14.25 16.5649 14.25 17.3946H15.75ZM18.5144 14.75H23.6262V13.25H18.5144V14.75ZM23.135 13.4332L19.5408 16.5483L20.5232 17.6818L24.1174 14.5668L23.135 13.4332ZM19.4417 17.5777L21.758 20.533L22.9385 19.6076L20.6222 16.6524L19.4417 17.5777ZM21.8446 19.5146L18.0107 22.989L19.018 24.1005L22.8519 20.626L21.8446 19.5146ZM17.943 24.0305L29.7241 37.8884L30.867 36.9168L19.0858 23.059L17.943 24.0305ZM42.8754 44.3203H30.2955V45.8203H42.8754V44.3203ZM30.2955 44.3203H18.5144V45.8203H30.2955V44.3203ZM29.5455 37.4026V45.0703H31.0455V37.4026H29.5455ZM30.8509 37.9067L43.4307 24.0488L42.3201 23.0406L29.7402 36.8985L30.8509 37.9067ZM43.3733 22.9839L39.4596 19.5094L38.4638 20.6312L42.3775 24.1056L43.3733 22.9839ZM39.4992 20.5933L42.3746 17.638L41.2995 16.592L38.4241 19.5473L39.4992 20.5933ZM37.484 14.75H42.8754V13.25H37.484V14.75ZM42.2735 16.5051L37.9205 13.3901L37.0476 14.6099L41.4006 17.7249L42.2735 16.5051ZM23.6262 14.75H27.5399V13.25H23.6262V14.75ZM26.8939 14.381L29.6495 19.0535L30.9416 18.2915L28.186 13.619L26.8939 14.381ZM22.9049 14.2056L26.5241 26.9052L27.9667 26.4941L24.3475 13.7944L22.9049 14.2056ZM26.5241 26.9052L29.5743 37.6081L31.0168 37.197L27.9667 26.4941L26.5241 26.9052ZM29.5944 18.4061L26.5443 26.4333L27.9465 26.9661L30.9966 18.9389L29.5944 18.4061ZM27.5399 14.75H33.5831V13.25H27.5399V14.75ZM33.5831 14.75H37.484V13.25H33.5831V14.75ZM32.9697 13.5684L29.6822 18.241L30.9089 19.1041L34.1965 14.4316L32.9697 13.5684ZM31.0125 37.6228L34.3001 26.9199L32.8662 26.4795L29.5786 37.1824L31.0125 37.6228ZM34.3001 26.9199L38.201 14.2202L36.7671 13.7798L32.8662 26.4795L34.3001 26.9199ZM29.6015 18.9568L32.8891 26.9839L34.2772 26.4154L30.9896 18.3883L29.6015 18.9568Z" fill="#283445"/>
<circle cx="33.5704" cy="41.4355" r="1.15815" fill="#283445"/>
</svg>
