<svg width="45" height="50" viewBox="0 0 45 50" fill="none" xmlns="http://www.w3.org/2000/svg">
<path d="M27.0086 3.7182C25.9127 5.76321 25.0027 7.4364 24.993 7.4364C24.9832 7.4364 24.4939 7.52446 23.9069 7.6321C23.3198 7.73973 22.8305 7.82779 22.8207 7.82779C22.8012 7.82779 23.0654 9.21722 23.0947 9.25636C23.1143 9.26614 23.7601 9.15851 24.5429 9.01174L25.9616 8.75734L27.4783 5.94912C28.31 4.40313 29.0145 3.12133 29.0438 3.09198C29.0732 3.07241 29.7875 4.33464 30.629 5.9002L32.1554 8.74755L35.1789 9.30528C36.8325 9.60861 38.2806 9.8728 38.3883 9.89237C38.535 9.92172 38.1241 10.4012 36.353 12.2505C34.5233 14.1487 34.1319 14.6086 34.1319 14.8337C34.1319 14.9902 34.308 16.4286 34.5331 18.0333C34.7483 19.638 34.9147 20.9785 34.8853 20.998C34.8658 21.0176 34.1515 20.7143 33.31 20.3131L31.7836 19.5793V18.865C31.7836 17.9746 31.5096 17.3483 30.8834 16.771C30.0517 16.0078 28.8384 15.8415 27.811 16.3699C26.8618 16.8591 26.3922 17.6321 26.3237 18.8356L26.2845 19.6184L24.7777 20.3425C23.946 20.7436 23.2513 21.047 23.2317 21.0274C23.2121 21.0078 23.3883 19.5695 23.6231 17.8278L24.0634 14.6673L23.1045 13.6497C22.5761 13.092 21.5585 12.0157 20.854 11.272L19.5526 9.91194L20.5898 9.73581L21.627 9.5499L21.5683 9.25636C21.5389 9.09002 21.49 8.76712 21.4509 8.53229C21.4117 8.30724 21.3335 8.12133 21.2748 8.12133C21.2161 8.12133 20.1397 8.31702 18.8873 8.54208L16.5977 8.96282L19.171 11.6438C20.58 13.1213 21.9108 14.5205 22.1162 14.7456L22.5076 15.1468L21.9597 19.1977C21.6564 21.4286 21.4117 23.3268 21.4117 23.4149C21.4117 23.6008 21.5194 23.5519 24.5722 22.0841L26.3041 21.2427V24.8337L26.2943 28.4247L24.8364 29.6771L23.3687 30.9393V35.0489V39.1487L25.8149 42.1526L28.2611 45.1566V47.5734V50H32.175H36.0889V49.2661V48.5323H32.9088H29.7288V47.1135V45.6947H35.1104H40.492V47.1135V48.5323H39.0243H37.5566V49.2661V50H39.7581H41.9597V47.5245V45.0587L42.9871 41.9765L44.0145 38.8943L43.9949 33.7573C43.9656 29.1292 43.946 28.5812 43.7992 28.2485C43.5252 27.6419 43.0849 27.1624 42.5272 26.8493C42.0771 26.6047 41.9108 26.5656 41.2258 26.5656C40.6094 26.5656 40.355 26.6145 40.0321 26.7808L39.6309 26.9961L39.4646 26.7417C38.7601 25.6654 37.2728 25.2348 36.0693 25.7534L35.5703 25.9687L35.4137 25.7241C35.1593 25.3327 34.6994 24.9413 34.2591 24.7456C33.5448 24.4129 33.0067 24.4031 32.0086 24.7065L31.7836 24.775V23.0039C31.7836 22.0352 31.8031 21.2329 31.8227 21.2329C31.8423 21.2329 32.948 21.7613 34.2787 22.407C35.6094 23.0528 36.7151 23.5714 36.7346 23.5616C36.7444 23.5421 36.4998 21.6438 36.1867 19.3346L35.6192 15.137L38.5155 12.1037C40.1202 10.4403 41.4313 9.05088 41.4509 9.01174C41.4607 8.9726 39.5918 8.60078 37.2924 8.18004C34.993 7.76908 33.1045 7.41683 33.0947 7.40704C33.0947 7.39726 32.1945 5.72407 31.0986 3.68885C30.0125 1.66341 29.0928 0 29.0536 0C29.0243 0.0097847 28.1045 1.68298 27.0086 3.7182ZM29.6114 17.6517C29.7581 17.7299 29.9636 17.8865 30.0712 18.0039C30.2571 18.2094 30.2669 18.3953 30.3159 24.501L30.3648 30.773L31.0693 30.8023L31.764 30.8317L31.8031 28.8258C31.8325 26.9863 31.8521 26.8004 32.038 26.546C32.4979 25.9198 33.31 25.7828 33.8873 26.2427C34.3765 26.6243 34.4254 26.908 34.4254 29.2074V31.3112H35.1495H35.8834L35.9127 29.4912L35.9421 27.6712L36.3041 27.3386C36.627 27.0548 36.7444 27.0059 37.1652 27.0059C37.5859 27.0059 37.7033 27.0548 38.0262 27.3386L38.3883 27.6712L38.4176 29.7358L38.447 31.8004H39.1808H39.9049V30.4599C39.9049 29.3151 39.9343 29.0607 40.1006 28.7084C40.6192 27.6614 42.1358 27.818 42.4489 28.953C42.5076 29.1683 42.5468 31.2133 42.5468 34.002V38.6986L41.6074 41.4579L40.6681 44.227H35.0223H29.3863L27.1162 41.4286L24.8364 38.6301V35.1272V31.6341L25.5116 31.0274C25.8834 30.7045 26.2161 30.4305 26.2454 30.4305C26.2748 30.4305 26.3041 31.7906 26.3041 33.4638V36.4971H27.038H27.7718V27.5147C27.7718 19.002 27.7816 18.5225 27.9479 18.1996C28.2611 17.6125 29.0341 17.3581 29.6114 17.6517Z" fill="#6CCA4E"/>
<path d="M26.8916 11.8882V12.6221H27.6255H28.3593V11.8882V11.1544H27.6255H26.8916V11.8882Z" fill="#6CCA4E"/>
<path d="M29.8271 11.8882V12.6221H30.561H31.2949V11.8882V11.1544H30.561H29.8271V11.8882Z" fill="#6CCA4E"/>
<path d="M8.49643 16.7422C7.66473 18.3078 6.94066 19.6189 6.88195 19.6581C6.83303 19.6972 5.3751 19.9907 3.65299 20.2941C1.93088 20.6072 0.502304 20.8812 0.482735 20.9007C0.463166 20.9203 1.36336 21.8988 2.48861 23.0729C3.61385 24.2373 4.63146 25.3136 4.75866 25.4506L4.97393 25.6952L4.53362 28.9144C4.29878 30.6855 4.11287 32.1434 4.13244 32.163C4.14223 32.1825 5.48273 31.5563 7.107 30.7735L10.0522 29.3449L13.0072 30.7735C14.6315 31.5563 15.972 32.1825 15.9818 32.1727C15.9915 32.1532 15.8056 30.6855 15.561 28.8949L15.1207 25.6463L17.4005 23.2784C18.653 21.9673 19.6412 20.8909 19.5923 20.8714C19.5434 20.8518 18.0855 20.5876 16.3438 20.2647C14.6119 19.9516 13.1735 19.6776 13.154 19.6581C13.1442 19.6385 12.4593 18.3665 11.6373 16.8303C10.8154 15.2941 10.1109 14.0123 10.0816 13.9731C10.0424 13.9438 9.32814 15.1864 8.49643 16.7422ZM11.1872 19.0808C11.7548 20.1571 12.2538 21.0377 12.2929 21.0377C12.4299 21.0377 16.6471 21.8205 16.6765 21.8498C16.696 21.8596 16.0013 22.6131 15.1403 23.5132L13.5649 25.1473L13.8683 27.3684C14.0346 28.5817 14.152 29.5994 14.1324 29.6189C14.1129 29.6385 13.1931 29.2177 12.0776 28.6796L10.0522 27.7109L8.03655 28.6796C6.93088 29.2177 6.00133 29.6385 5.98176 29.6091C5.93283 29.57 6.37315 26.0671 6.50035 25.4311C6.53949 25.2158 6.33401 24.9614 4.97393 23.5328C4.11287 22.6326 3.41816 21.8694 3.43773 21.8596C3.45729 21.8401 4.45534 21.6444 5.65886 21.4291C6.87217 21.2041 7.87999 20.9888 7.90935 20.9399C7.9387 20.9007 8.41816 20.0005 8.98567 18.9536C9.55318 17.9066 10.0424 17.0651 10.0816 17.0847C10.1109 17.1042 10.6099 18.0044 11.1872 19.0808Z" fill="#6CCA4E"/>
<path d="M11.8915 36.5262L10.825 38.5125L8.63319 38.8941C7.42966 39.1093 6.44141 39.305 6.44141 39.3442C6.44141 39.3735 7.12634 40.1074 7.96783 40.988L9.50403 42.5731L9.2007 44.7943C9.03436 46.0174 8.91694 47.0252 8.92673 47.0448C8.9463 47.0545 9.86606 46.6338 10.9815 46.0956L12.9972 45.1172L15.0128 46.0956C16.1283 46.6338 17.0481 47.0545 17.0578 47.0448C17.0676 47.0252 16.9502 46.1348 16.8034 45.0585C16.6469 43.9821 16.5295 42.9743 16.5197 42.8177C16.5197 42.5927 16.7937 42.26 18.0363 40.9489C18.868 40.078 19.5236 39.3442 19.504 39.3148C19.4747 39.2855 18.4766 39.0898 17.2927 38.8843L15.14 38.5027L14.1713 36.6925C13.6332 35.6945 13.144 34.8041 13.0755 34.716C12.9678 34.5692 12.8113 34.8041 11.8915 36.5262ZM13.6038 38.7375C14.0246 39.5203 14.2203 39.8138 14.3866 39.853C14.5138 39.8823 15.052 39.9802 15.5901 40.0682C16.1283 40.1661 16.5882 40.2541 16.6077 40.2835C16.6371 40.3031 16.2653 40.714 15.7858 41.1935L14.915 42.0741L15.0813 43.2678C15.1694 43.9234 15.2281 44.4714 15.2085 44.4909C15.189 44.5105 14.6802 44.2952 14.0833 44.0213L12.9874 43.5125L11.9013 44.0115C11.3044 44.2952 10.7956 44.5007 10.7663 44.4812C10.7467 44.4518 10.8054 43.8941 10.8935 43.2385L11.0598 42.0545L10.1987 41.1837C9.72908 40.7042 9.35726 40.3031 9.38661 40.2835C9.40618 40.2541 9.86606 40.1661 10.4042 40.0682C10.9424 39.9802 11.4805 39.8823 11.598 39.853C11.7447 39.8236 11.9698 39.5007 12.371 38.7375C12.6841 38.1504 12.958 37.671 12.9874 37.671C13.0167 37.671 13.3005 38.1504 13.6038 38.7375Z" fill="#6CCA4E"/>
</svg>
