<svg width="60" height="61" viewBox="0 0 60 61" fill="none" xmlns="http://www.w3.org/2000/svg">
<rect x="10.33" y="19.9821" width="37.9201" height="20.2679" rx="1.25" stroke="#283445" stroke-width="1.5"/>
<path d="M40.4758 29.0642C40.4758 30.0924 40.045 31.0189 39.3519 31.675C38.7071 32.2854 37.8386 32.6586 36.8813 32.6586C34.8962 32.6586 33.2869 31.0493 33.2869 29.0642C33.2869 27.079 34.8962 25.4697 36.8813 25.4697C38.8665 25.4697 40.4758 27.079 40.4758 29.0642Z" stroke="#283445" stroke-width="1.5"/>
<path d="M41.5435 34.8537C41.8364 35.1466 42.3113 35.1466 42.6042 34.8537C42.8971 34.5608 42.8971 34.0859 42.6042 33.793L41.5435 34.8537ZM40.933 32.1218L40.4027 31.5915L39.342 32.6522L39.8723 33.1825L40.933 32.1218ZM42.6042 33.793L40.933 32.1218L39.8723 33.1825L41.5435 34.8537L42.6042 33.793Z" fill="#283445"/>
</svg>
