<svg width="68" height="68" viewBox="0 0 68 68" fill="none" xmlns="http://www.w3.org/2000/svg">
<g clip-path="url(#clip0_10_10063)">
<path d="M21.93 31.1951C25.33 31.1951 28.05 28.4751 28.05 25.0751C28.05 24.5651 27.965 24.0551 27.88 23.5451C29.155 25.9251 31.62 27.5401 34.51 27.5401C37.23 27.5401 39.61 26.0951 40.885 23.8851C40.8 24.3101 40.8 24.7351 40.8 25.0751C40.8 28.4751 43.52 31.1951 46.92 31.1951C50.32 31.1951 53.04 28.4751 53.04 25.0751C53.04 21.6751 50.32 18.9551 46.92 18.9551C44.795 18.9551 42.84 20.0601 41.82 21.7601C41.99 21.1651 41.99 20.6551 41.99 20.0601C41.99 15.8951 38.59 12.5801 34.51 12.5801C30.345 12.5801 27.03 15.9801 27.03 20.0601C27.03 20.7401 27.115 21.4201 27.285 22.1001C26.265 20.2301 24.225 18.9551 21.93 18.9551C18.53 18.9551 15.81 21.6751 15.81 25.0751C15.81 28.4751 18.615 31.1951 21.93 31.1951ZM42.925 25.0751C42.925 22.8651 44.71 21.0801 46.92 21.0801C49.13 21.0801 50.915 22.8651 50.915 25.0751C50.915 27.2851 49.13 29.0701 46.92 29.0701C44.71 29.0701 42.925 27.2851 42.925 25.0751ZM29.155 20.0601C29.155 17.0851 31.535 14.7051 34.51 14.7051C37.485 14.7051 39.865 17.0851 39.865 20.0601C39.865 23.0351 37.485 25.4151 34.51 25.4151C31.535 25.4151 29.155 23.0351 29.155 20.0601ZM18.02 25.0751C18.02 22.8651 19.805 21.0801 22.015 21.0801C24.225 21.0801 26.01 22.8651 26.01 25.0751C26.01 27.2851 24.225 29.0701 22.015 29.0701C19.805 29.0701 18.02 27.2851 18.02 25.0751Z" fill="url(#paint0_linear_10_10063)"/>
<path d="M49.13 32.3001H44.71C44.37 32.3001 44.115 32.3001 43.775 32.3851C42.075 30.5151 39.78 29.4951 37.23 29.4951H31.62C29.155 29.4951 26.775 30.6001 25.16 32.3851C24.82 32.3001 24.48 32.3001 24.14 32.3001H19.72C16.915 32.3001 14.365 33.9151 13.26 36.4651C13.175 36.6351 13.175 36.8901 13.175 37.0601C14.025 43.5201 17.765 49.1301 23.375 52.5301H23.46C23.8 52.7851 24.225 52.9551 24.565 53.1251C27.625 54.6551 31.025 55.5051 34.425 55.5051C35.275 55.5051 36.125 55.4201 36.975 55.3351C38.675 55.1651 40.29 54.7401 41.905 54.1451C42.67 53.8901 43.52 53.4651 44.2 53.1251C44.71 52.8701 45.135 52.6151 45.56 52.3601C51.085 48.9601 54.825 43.3501 55.675 36.9751C55.675 36.8051 55.675 36.5501 55.59 36.3801C54.4 33.9151 51.85 32.3001 49.13 32.3001ZM45.985 36.8901C45.985 36.8051 45.985 36.7201 45.9 36.6351V36.5501C45.815 36.2101 45.73 35.9551 45.645 35.6151C45.56 35.4451 45.56 35.3601 45.475 35.1901C45.39 34.9351 45.305 34.6801 45.135 34.4251H49.045C50.915 34.4251 52.615 35.4451 53.465 37.0601C52.7 42.0751 50.065 46.4101 46.07 49.4701V38.2501C46.07 37.8251 46.07 37.4001 45.985 36.8901ZM43.945 38.2501V50.8301C43.775 50.9151 43.52 51.0851 43.265 51.1701C37.825 53.9751 31.025 53.9751 25.585 51.1701C25.415 51.0851 25.245 51.0001 25.075 50.9151V38.2501C25.075 36.7201 25.585 35.3601 26.52 34.1701C27.795 32.5551 29.75 31.6201 31.79 31.6201H37.4C39.44 31.6201 41.395 32.5551 42.67 34.1701C43.435 35.3601 43.945 36.7201 43.945 38.2501ZM23.8 34.4251C23.715 34.6801 23.545 34.9351 23.46 35.1901C23.375 35.3601 23.375 35.4451 23.29 35.6151C23.205 35.8701 23.12 36.2101 23.035 36.4651V36.6351C23.035 36.7201 23.035 36.8051 22.95 36.8901C22.95 37.4001 22.865 37.8251 22.865 38.2501V49.5551C18.785 46.4951 16.065 42.0751 15.3 37.0601C16.15 35.4451 17.85 34.4251 19.72 34.4251H23.8Z" fill="url(#paint1_linear_10_10063)"/>
<path d="M34.425 2.63501C17.085 2.63501 3.05998 16.66 2.97498 34V34.17C2.97498 51.51 17.085 65.535 34.425 65.535C51.765 65.535 65.875 51.425 65.875 34.085C65.875 16.745 51.765 2.63501 34.425 2.63501ZM58.395 34.085C58.395 34.68 58.905 35.19 59.5 35.19H63.75C63.155 50.575 50.915 62.815 35.53 63.41V58.905C35.53 58.31 35.02 57.8 34.425 57.8C33.83 57.8 33.32 58.31 33.32 58.905V63.41C18.02 62.73 5.69498 50.49 5.18498 35.105H9.68998C10.285 35.105 10.795 34.595 10.795 34C10.795 33.405 10.285 32.895 9.68998 32.895H5.18498C5.69498 17.595 18.02 5.35501 33.32 4.76001V8.75501C33.32 9.35001 33.83 9.86001 34.425 9.86001C35.02 9.86001 35.53 9.35001 35.53 8.75501V4.76001C50.915 5.35501 63.155 17.595 63.75 32.98H59.5C58.82 32.98 58.395 33.49 58.395 34.085Z" fill="url(#paint2_linear_10_10063)"/>
</g>
<defs>
<linearGradient id="paint0_linear_10_10063" x1="5.17097" y1="30.4449" x2="65.1427" y2="-21.9304" gradientUnits="userSpaceOnUse">
<stop stop-color="#283445"/>
<stop offset="1" stop-color="#283445" stop-opacity="0.49"/>
</linearGradient>
<linearGradient id="paint1_linear_10_10063" x1="1.02998" y1="54.457" x2="80.9964" y2="-2.5997" gradientUnits="userSpaceOnUse">
<stop stop-color="#283445"/>
<stop offset="1" stop-color="#283445" stop-opacity="0.49"/>
</linearGradient>
<linearGradient id="paint2_linear_10_10063" x1="-14.9996" y1="63.0002" x2="135" y2="-2.49976" gradientUnits="userSpaceOnUse">
<stop stop-color="#283445"/>
<stop offset="1" stop-color="#283445" stop-opacity="0.49"/>
</linearGradient>
<clipPath id="clip0_10_10063">
<rect width="68" height="68" fill="white"/>
</clipPath>
</defs>
</svg>
