<svg width="60" height="61" viewBox="0 0 60 61" fill="none" xmlns="http://www.w3.org/2000/svg">
<path d="M27.6413 43.7277H26.8913C26.8913 43.9169 26.9628 44.0991 27.0915 44.2378L27.6413 43.7277ZM26.6235 42.7382L26.0954 43.2708C26.2359 43.41 26.4257 43.4882 26.6235 43.4882V42.7382ZM24.4424 40.5758H23.6924C23.6924 40.7759 23.7723 40.9676 23.9144 41.1084L24.4424 40.5758ZM23.57 39.513L23.0375 40.0411C23.1784 40.1831 23.3701 40.263 23.57 40.263V39.513ZM21.3163 37.2407H20.5663C20.5663 37.4385 20.6445 37.6284 20.7838 37.7688L21.3163 37.2407ZM20.3349 36.3244L19.8071 36.8574C19.9476 36.9964 20.1372 37.0744 20.3349 37.0744V36.3244ZM18.2993 34.3087H17.5493C17.5493 34.5089 17.6293 34.7008 17.7715 34.8416L18.2993 34.3087ZM14.6642 29.251L14.0474 29.6777L14.0862 29.7337L14.1344 29.7819L14.6642 29.251ZM28.2229 17.4131L28.7386 16.8686L28.7142 16.8455L28.6878 16.8247L28.2229 17.4131ZM24.8786 23.4237L24.33 22.9123L24.2875 22.958L24.253 23.01L24.8786 23.4237ZM28.7681 27.052L29.1789 27.6795L29.2393 27.64L29.291 27.5897L28.7681 27.052ZM33.8935 22.0677L34.415 21.5287L33.8922 21.0227L33.3706 21.53L33.8935 22.0677ZM43.6353 32.6595L44.206 33.1461C44.3832 32.9382 44.4335 32.6505 44.3371 32.395L43.6353 32.6595ZM41.8542 34.7485L41.9752 35.4887C42.1504 35.46 42.3097 35.3702 42.4249 35.2351L41.8542 34.7485ZM40.4002 36.0679L40.942 36.5865C41.058 36.4653 41.1299 36.3088 41.1465 36.1419L40.4002 36.0679ZM38.4009 38.1569L38.3381 38.9043C38.5639 38.9233 38.7861 38.8392 38.9427 38.6755L38.4009 38.1569ZM37.0923 39.3664L37.6294 39.8899C37.7659 39.7498 37.8423 39.562 37.8423 39.3664H37.0923ZM35.0203 41.4921V42.2421C35.2226 42.2421 35.4162 42.1604 35.5574 42.0156L35.0203 41.4921ZM33.8208 42.6649L34.3861 43.1578C34.5052 43.0212 34.5708 42.8461 34.5708 42.6649H33.8208ZM36.0498 29.6273C35.7516 29.3399 35.2768 29.3485 34.9893 29.6467C34.7018 29.9449 34.7105 30.4197 35.0087 30.7072L36.0498 29.6273ZM32.9013 32.7198C32.6107 32.4246 32.1359 32.4208 31.8407 32.7113C31.5455 33.0019 31.5417 33.4768 31.8323 33.772L32.9013 32.7198ZM32.2214 39.8428L32.7598 39.3207C32.6628 39.2207 32.5398 39.1496 32.4047 39.1156L32.2214 39.8428ZM30.6947 38.1569L31.4352 38.0378C31.4072 37.864 31.319 37.7055 31.1859 37.5902L30.6947 38.1569ZM28.6227 36.3611L29.1139 35.7943C28.9848 35.6825 28.8214 35.618 28.6507 35.6116L28.6227 36.3611ZM27.6413 35.0783H28.3913C28.3913 34.8547 28.2914 34.6427 28.119 34.5002L27.6413 35.0783ZM25.4239 33.2459L25.9017 32.6677C25.7672 32.5566 25.5983 32.4959 25.4239 32.4959V33.2459ZM24.4424 31.8165H25.1924C25.1924 31.607 25.1048 31.4069 24.9506 31.2649L24.4424 31.8165ZM22.3341 29.8741L22.8423 29.3225C22.7038 29.1949 22.5224 29.1241 22.3341 29.1241V29.8741ZM21.3163 29.8741V29.1241C21.1179 29.1241 20.9276 29.2027 20.787 29.3427L21.3163 29.8741ZM30.3312 45.25C30.4589 45.25 30.5039 45.2967 30.4092 45.2447C30.342 45.2079 30.2452 45.1438 30.1202 45.0485C29.8722 44.8594 29.5766 44.5966 29.2839 44.3193C28.9941 44.0449 28.7203 43.7689 28.518 43.5604C28.4171 43.4565 28.3347 43.3701 28.2778 43.3099C28.2493 43.2798 28.2273 43.2564 28.2125 43.2406C28.2052 43.2327 28.1996 43.2268 28.196 43.2229C28.1942 43.221 28.1929 43.2195 28.192 43.2186C28.1916 43.2182 28.1913 43.2179 28.1912 43.2177C28.1911 43.2176 28.191 43.2176 28.191 43.2175C28.191 43.2175 28.191 43.2175 28.191 43.2175C28.191 43.2176 28.1911 43.2176 27.6413 43.7277C27.0915 44.2378 27.0915 44.2379 27.0916 44.2379C27.0916 44.238 27.0916 44.238 27.0917 44.2381C27.0918 44.2382 27.0919 44.2384 27.0921 44.2385C27.0925 44.2389 27.0929 44.2394 27.0936 44.2401C27.0948 44.2414 27.0965 44.2432 27.0987 44.2456C27.1031 44.2503 27.1094 44.2571 27.1176 44.2659C27.134 44.2834 27.1578 44.3087 27.1882 44.3408C27.2488 44.4049 27.3357 44.496 27.4416 44.6051C27.6528 44.8227 27.9423 45.1147 28.2524 45.4084C28.5594 45.6992 28.9 46.0044 29.2108 46.2414C29.3652 46.3591 29.5286 46.4726 29.688 46.56C29.8199 46.6323 30.058 46.75 30.3312 46.75V45.25ZM28.3913 43.7277V42.7382H26.8913V43.7277H28.3913ZM27.6413 41.9882H26.6235V43.4882H27.6413V41.9882ZM27.1515 42.2056L24.9705 40.0432L23.9144 41.1084L26.0954 43.2708L27.1515 42.2056ZM25.1924 40.5758V39.513H23.6924V40.5758H25.1924ZM24.4424 38.763H23.57V40.263H24.4424V38.763ZM24.1025 38.9848L21.8488 36.7125L20.7838 37.7688L23.0375 40.0411L24.1025 38.9848ZM22.0663 37.2407V36.3244H20.5663V37.2407H22.0663ZM21.3163 35.5744H20.3349V37.0744H21.3163V35.5744ZM20.8626 35.7915L18.827 33.7758L17.7715 34.8416L19.8071 36.8574L20.8626 35.7915ZM19.0493 34.3087V32.8794H17.5493V34.3087H19.0493ZM18.8291 32.3485L15.1941 28.7202L14.1344 29.7819L17.7694 33.4102L18.8291 32.3485ZM15.2811 28.8244C10.0048 21.196 19.5098 11.4844 27.7579 18.0016L28.6878 16.8247C19.1245 9.26823 7.76439 20.5937 14.0474 29.6777L15.2811 28.8244ZM27.7071 17.9577L28.9067 19.0938L29.9382 18.0047L28.7386 16.8686L27.7071 17.9577ZM28.8738 18.0379L24.33 22.9123L25.4273 23.9351L29.971 19.0607L28.8738 18.0379ZM24.253 23.01C23.1849 24.6255 23.493 26.3936 24.6003 27.4558C25.7081 28.5184 27.505 28.7754 29.1789 27.6795L28.3573 26.4246C27.2323 27.1611 26.2121 26.9234 25.6387 26.3733C25.0648 25.8229 24.8276 24.8607 25.5043 23.8374L24.253 23.01ZM29.291 27.5897L34.4164 22.6053L33.3706 21.53L28.2452 26.5144L29.291 27.5897ZM33.3719 22.6066L42.4231 31.3659L43.4662 30.288L34.415 21.5287L33.3719 22.6066ZM43.501 31.3299C45.8596 28.7209 46.8348 25.9249 46.7443 23.3368C46.654 20.7565 45.5056 18.4429 43.7265 16.7982C40.136 13.479 34.0549 12.9296 28.8959 18.0152L29.9489 19.0834C34.5682 14.53 39.7375 15.1534 42.7082 17.8997C44.2097 19.2878 45.1696 21.2302 45.2452 23.3892C45.3204 25.5404 44.5191 27.967 42.3883 30.324L43.501 31.3299ZM42.2429 31.0915L42.9335 32.924L44.3371 32.395L43.6465 30.5625L42.2429 31.0915ZM43.0646 32.1729L41.2835 34.2619L42.4249 35.2351L44.206 33.1461L43.0646 32.1729ZM41.7332 34.0083L40.3882 34.2282L40.6302 35.7086L41.9752 35.4887L41.7332 34.0083ZM39.7629 34.8944L39.6538 35.9939L41.1465 36.1419L41.2556 35.0424L39.7629 34.8944ZM39.8583 35.5493L37.8591 37.6384L38.9427 38.6755L40.942 36.5865L39.8583 35.5493ZM38.4637 37.4096L37.1551 37.2996L37.0295 38.7944L38.3381 38.9043L38.4637 37.4096ZM36.3423 38.047V39.3664H37.8423V38.047H36.3423ZM36.5552 38.8429L34.4833 40.9686L35.5574 42.0156L37.6294 39.8899L36.5552 38.8429ZM35.0203 40.7421H33.8208V42.2421H35.0203V40.7421ZM33.0708 41.4921V42.6649H34.5708V41.4921H33.0708ZM33.8208 42.6649C33.2555 42.172 33.2555 42.172 33.2555 42.172C33.2555 42.172 33.2555 42.172 33.2554 42.172C33.2554 42.1721 33.2553 42.1722 33.2551 42.1724C33.2549 42.1727 33.2544 42.1732 33.2538 42.1739C33.2525 42.1754 33.2505 42.1776 33.2479 42.1806C33.2427 42.1866 33.2347 42.1957 33.2243 42.2076C33.2034 42.2313 33.1725 42.2665 33.1329 42.3113C33.0535 42.401 32.9392 42.5296 32.8001 42.684C32.5215 42.9932 32.1454 43.4039 31.7528 43.8133C31.3576 44.2253 30.9565 44.6245 30.6256 44.9165C30.4586 45.0638 30.325 45.17 30.2287 45.235C30.2058 45.2503 30.1877 45.2617 30.174 45.2697C30.1599 45.2779 30.1533 45.2809 30.1535 45.2809C30.1538 45.2807 30.1569 45.2793 30.1625 45.2772C30.1681 45.2751 30.1775 45.2717 30.1903 45.2682C30.2133 45.2617 30.2628 45.25 30.3312 45.25V46.75C30.5267 46.75 30.6883 46.6858 30.7789 46.6442C30.8826 46.5967 30.9808 46.5369 31.0676 46.4784C31.2416 46.361 31.4306 46.2066 31.618 46.0413C31.9959 45.7079 32.4308 45.2734 32.8354 44.8516C33.2424 44.4272 33.6297 44.0041 33.9145 43.688C34.0571 43.5297 34.1745 43.3977 34.2565 43.305C34.2975 43.2587 34.3296 43.2222 34.3516 43.1971C34.3627 43.1845 34.3711 43.1748 34.3769 43.1682C34.3798 43.1649 34.382 43.1624 34.3836 43.1606C34.3843 43.1597 34.3849 43.1591 34.3853 43.1586C34.3856 43.1583 34.3857 43.1582 34.3858 43.158C34.3859 43.158 34.386 43.1579 34.386 43.1579C34.386 43.1578 34.3861 43.1578 33.8208 42.6649ZM40.5092 34.9684C41.0298 34.4285 41.0297 34.4284 41.0297 34.4284C41.0297 34.4284 41.0297 34.4284 41.0296 34.4283C41.0295 34.4282 41.0294 34.4281 41.0292 34.4279C41.0288 34.4276 41.0283 34.427 41.0276 34.4263C41.0261 34.4249 41.0239 34.4228 41.021 34.42C41.0152 34.4144 41.0065 34.4061 40.9952 34.3951C40.9725 34.3733 40.9389 34.3409 40.8955 34.2991C40.8088 34.2154 40.6826 34.0938 40.5251 33.9419C40.2102 33.6383 39.77 33.214 39.2691 32.731C38.2672 31.7651 37.0222 30.5648 36.0498 29.6273L35.0087 30.7072C35.9811 31.6447 37.2261 32.845 38.228 33.8109C38.7289 34.2938 39.1691 34.7182 39.484 35.0218C39.6415 35.1736 39.7677 35.2953 39.8545 35.3789C39.8978 35.4208 39.9314 35.4531 39.9541 35.475C39.9655 35.486 39.9741 35.4943 39.9799 35.4999C39.9828 35.5027 39.985 35.5048 39.9865 35.5062C39.9872 35.5069 39.9877 35.5074 39.9881 35.5078C39.9883 35.508 39.9884 35.5081 39.9885 35.5082C39.9886 35.5082 39.9886 35.5083 39.9886 35.5083C39.9887 35.5083 39.9887 35.5083 40.5092 34.9684ZM37.0923 38.047C37.6268 37.5209 37.6268 37.5209 37.6268 37.5208C37.6268 37.5208 37.6267 37.5208 37.6267 37.5207C37.6266 37.5207 37.6265 37.5205 37.6263 37.5203C37.6259 37.52 37.6254 37.5195 37.6247 37.5188C37.6233 37.5173 37.6213 37.5152 37.6185 37.5124C37.613 37.5068 37.6048 37.4985 37.594 37.4876C37.5725 37.4657 37.5406 37.4333 37.4995 37.3915C37.4171 37.3078 37.2974 37.1862 37.148 37.0344C36.8491 36.7307 36.4314 36.3064 35.9561 35.8234C35.0054 34.8575 33.824 33.6572 32.9013 32.7198L31.8323 33.772C32.755 34.7094 33.9364 35.9097 34.8871 36.8756C35.3624 37.3586 35.7801 37.783 36.0789 38.0866C36.2283 38.2384 36.3481 38.36 36.4304 38.4437C36.4716 38.4855 36.5034 38.5179 36.525 38.5398C36.5358 38.5507 36.544 38.559 36.5495 38.5646C36.5522 38.5674 36.5543 38.5695 36.5557 38.571C36.5564 38.5717 36.5569 38.5722 36.5572 38.5726C36.5574 38.5727 36.5576 38.5729 36.5576 38.573C36.5577 38.573 36.5577 38.573 36.5577 38.5731C36.5578 38.5731 36.5578 38.5731 37.0923 38.047ZM34.3592 40.9699L32.7598 39.3207L31.683 40.365L33.2824 42.0142L34.3592 40.9699ZM32.4047 39.1156L31.0961 38.7857L30.7295 40.2402L32.0381 40.5701L32.4047 39.1156ZM31.6533 39.3939L31.4352 38.0378L29.9542 38.276L30.1723 39.6321L31.6533 39.3939ZM31.1859 37.5902L29.1139 35.7943L28.1315 36.9278L30.2035 38.7237L31.1859 37.5902ZM28.6507 35.6116L27.6692 35.575L27.6133 37.0739L28.5947 37.1106L28.6507 35.6116ZM28.3913 36.3244V35.0783H26.8913V36.3244H28.3913ZM28.119 34.5002L25.9017 32.6677L24.9461 33.824L27.1635 35.6565L28.119 34.5002ZM25.4239 32.4959H24.4424V33.9959H25.4239V32.4959ZM25.1924 33.2459V31.8165H23.6924V33.2459H25.1924ZM24.9506 31.2649L22.8423 29.3225L21.8259 30.4257L23.9343 32.3681L24.9506 31.2649ZM22.3341 29.1241H21.3163V30.6241H22.3341V29.1241ZM20.787 29.3427L17.77 32.348L18.8286 33.4107L21.8456 30.4054L20.787 29.3427ZM23.9162 32.7115L20.7901 35.7901L21.8426 36.8588L24.9687 33.7802L23.9162 32.7115ZM24.9719 40.0442L28.1707 36.8556L27.1118 35.7933L23.913 38.9818L24.9719 40.0442ZM30.3862 38.9789L27.1147 42.2041L28.1678 43.2723L31.4393 40.0471L30.3862 38.9789Z" fill="#F5F5F7"/>
</svg>
