<svg width="51" height="45" viewBox="0 0 51 45" fill="none" xmlns="http://www.w3.org/2000/svg">
<path d="M2.84668 0.198242C2.11426 0.481445 1.35254 1.21387 1.00098 1.96582L0.717773 2.58105V17.7666V32.9521L0.981445 33.4893C1.34277 34.2217 1.95801 34.8271 2.71973 35.1885L3.35449 35.4912L5.7666 35.5205C7.84668 35.5498 8.20801 35.5303 8.48145 35.3936C9.06738 35.0908 9.18457 34.3096 8.70605 33.8604C8.47168 33.6455 8.41309 33.6357 6.04004 33.5869C3.78418 33.5381 3.58887 33.5283 3.34473 33.333C2.73926 32.8838 2.6709 32.6982 2.6416 31.3799L2.60254 30.1689H25.6689H48.7354L48.6963 31.3799C48.667 32.6982 48.5986 32.8838 47.9932 33.333C47.7295 33.5381 47.6904 33.5381 31.9482 33.5869L16.1768 33.6357L15.9424 33.9092C15.6885 34.2021 15.6299 34.7197 15.8057 35.0615C16.04 35.4814 16.3525 35.54 18.5889 35.54H20.6885V36.7412V37.9326L18.54 38.6455C16.8408 39.2119 16.3525 39.417 16.1963 39.6123C16.0107 39.8467 16.001 40.0029 16.001 41.79C16.001 43.5869 16.0107 43.7334 16.1963 43.9678C16.3135 44.1143 16.5674 44.2705 16.7627 44.3291C17.2607 44.4658 34.0771 44.4658 34.5752 44.3291C34.7705 44.2705 35.0244 44.1143 35.1416 43.9678C35.3271 43.7334 35.3369 43.5869 35.3369 41.79C35.3369 39.9932 35.3271 39.8467 35.1318 39.6025C34.9756 39.3975 34.5264 39.2217 32.7393 38.6455L30.5518 37.9424V36.7412V35.5498L39.2725 35.5205L47.9834 35.4912L48.6182 35.1885C49.3799 34.8271 49.9951 34.2217 50.3564 33.4893L50.6201 32.9521V17.7666V2.58105L50.2979 1.92676C49.9072 1.13574 49.2139 0.47168 48.4619 0.198242C47.9248 -0.00683594 47.8857 -0.00683594 25.6396 0.00292969C3.54004 0.00292969 3.35449 0.00292969 2.84668 0.198242ZM48.0322 2.16113C48.208 2.28809 48.4326 2.54199 48.5303 2.72754C48.7061 3.0498 48.7158 3.58691 48.7158 15.6377V28.2158H25.6689H2.62207V15.6377C2.62207 3.58691 2.63184 3.0498 2.80762 2.72754C2.90527 2.54199 3.12988 2.28809 3.30566 2.16113L3.62793 1.94629H25.6689H47.71L48.0322 2.16113ZM28.5986 37.249C28.5986 38.6455 28.6279 39.0068 28.7549 39.2021C28.8721 39.3877 29.3604 39.583 31.1475 40.1787L33.3838 40.9307V41.7021V42.4736H25.6689H17.9541V41.6924C17.9541 41.2627 17.9736 40.9111 17.9932 40.9111C18.0029 40.9111 18.9893 40.5791 20.1611 40.1787C21.7041 39.6514 22.3486 39.3877 22.4658 39.2314C22.6123 39.0361 22.6416 38.7627 22.6416 37.2686V35.54H25.6201H28.5986V37.249Z" fill="#AC39FF"/>
<path d="M7.6416 4.73926C7.05566 4.94434 6.47949 5.49121 6.16699 6.12598L5.89355 6.68262V15.1299V23.5771L6.12793 24.085C6.41113 24.7197 7.0166 25.2959 7.66113 25.54C8.12012 25.7158 8.50098 25.7256 15.9521 25.7256H23.7646L24.2725 25.4912C24.5557 25.3643 24.9561 25.0811 25.1611 24.8564C25.9131 24.0459 25.874 24.6123 25.8447 14.9834L25.8154 6.38965L25.5518 5.93066C25.21 5.36426 24.6924 4.9248 24.1162 4.72949C23.4814 4.51465 8.25684 4.52441 7.6416 4.73926ZM23.6963 6.73145L23.9111 6.93652V15.1201C23.9111 23.04 23.9014 23.3232 23.7256 23.5381L23.54 23.7725H15.9131H8.2959L8.07129 23.5479L7.84668 23.3232L7.81738 15.4424C7.79785 11.1064 7.81738 7.41504 7.84668 7.23926C7.87598 7.06348 7.99316 6.8291 8.10059 6.72168C8.27637 6.5459 8.49121 6.53613 15.8838 6.53613C23.3936 6.53613 23.4814 6.53613 23.6963 6.73145Z" fill="#AC39FF"/>
<path d="M15.4639 8.96778C15.1123 9.11427 14.8975 9.4463 14.8487 9.94435C14.8096 10.3643 14.7705 10.4424 14.5264 10.5401C13.7647 10.8623 13.0713 11.9658 13.0713 12.874C13.0713 14.3096 13.7452 15.0029 15.9912 15.8721C16.8409 16.1943 17.0264 16.419 16.9483 17.0147C16.9092 17.3076 16.8018 17.5029 16.5869 17.6885C16.3233 17.9326 16.2159 17.9619 15.6299 17.9619C15.1221 17.9619 14.878 17.9131 14.5166 17.7178C13.9307 17.4053 13.5596 17.4053 13.1885 17.7178C12.5733 18.2354 12.7295 18.9385 13.5791 19.417C13.8623 19.583 14.2432 19.749 14.419 19.7783C14.7705 19.8467 14.7803 19.8662 14.8682 20.4131C15.0733 21.6533 16.7823 21.5264 16.7823 20.2764C16.7823 19.8467 16.8018 19.8272 17.2119 19.6221C17.7198 19.3877 18.335 18.7529 18.6573 18.1377C18.8428 17.7861 18.8819 17.5713 18.8819 16.8389C18.8819 16.0576 18.8526 15.9111 18.6182 15.501C18.2471 14.8858 17.6709 14.4072 16.9483 14.1436C16.6162 14.0264 16.0498 13.7822 15.6885 13.5967C15.0635 13.294 15.0244 13.2549 15.0244 12.9424C15.0244 12.2393 15.9327 11.9658 16.7237 12.4346C17.3291 12.7764 17.5244 12.8154 17.8858 12.6397C18.2569 12.4639 18.4424 12.1514 18.4424 11.6924C18.4424 11.3018 17.8662 10.7354 17.2315 10.4912C16.8018 10.3252 16.7823 10.2959 16.7823 9.93458C16.7823 9.4463 16.6553 9.21193 16.294 9.02638C15.9815 8.87013 15.7569 8.8506 15.4639 8.96778Z" fill="#AC39FF"/>
<path d="M29.5654 7.7959C29.1748 8.18652 29.1748 8.66504 29.5654 9.09473L29.8486 9.41699H37.2412H44.6338L44.9268 9.08496C45.1807 8.80176 45.2197 8.7041 45.1709 8.35254C45.1318 8.08887 45.0244 7.87402 44.8584 7.7373L44.6045 7.5127H37.2314H29.8486L29.5654 7.7959Z" fill="#AC39FF"/>
<path d="M30.3272 11.8486C29.3897 12.1904 28.6964 12.9717 28.5011 13.9287C28.4327 14.2607 28.3936 15.1787 28.4229 16.3311C28.4522 18.4697 28.5401 18.7529 29.3018 19.5146C30.0245 20.2275 30.4053 20.3057 33.0518 20.3057C35.5421 20.3057 35.7764 20.2666 36.0011 19.7686C36.2257 19.2705 36.0694 18.7236 35.6202 18.4893C35.4053 18.3818 34.8585 18.3525 33.1495 18.3525C30.9718 18.3525 30.9522 18.3525 30.6788 18.1182L30.4053 17.8838L30.3761 16.0674L30.3468 14.251L30.6397 13.958L30.9229 13.665H37.0655C41.7335 13.6748 43.2374 13.7041 43.3546 13.792C43.628 13.9971 43.7354 14.3193 43.7354 14.8857C43.7354 15.3838 43.7647 15.4717 44.0675 15.7744C44.5264 16.2334 44.9073 16.2236 45.3663 15.7646L45.7081 15.4229L45.669 14.5635C45.6104 13.3135 45.1514 12.5322 44.1846 12.0244L43.6866 11.7607L37.1925 11.7412C31.8995 11.7217 30.63 11.7412 30.3272 11.8486Z" fill="#AC39FF"/>
<path d="M37.1826 15.8037C37.0068 15.9893 36.8994 16.1943 36.8994 16.3701C36.8994 16.5166 37.2705 18.001 37.7295 19.6709C38.6475 23.0498 38.6865 23.1377 39.458 23.1377C39.8193 23.1377 39.917 23.0791 40.6982 22.3076L41.5479 21.4873L42.8076 22.7568C44.2432 24.2022 44.5361 24.3877 45.0439 24.1729C45.5127 23.9775 45.7275 23.6162 45.6592 23.167C45.6104 22.8643 45.376 22.5811 44.2529 21.458L42.915 20.1201L43.7061 19.2998C44.1455 18.8506 44.5361 18.3721 44.5654 18.2256C44.6533 17.8936 44.458 17.4053 44.1846 17.2295C43.8916 17.0342 38.2373 15.5205 37.8174 15.5205C37.5635 15.5205 37.3975 15.5986 37.1826 15.8037ZM40.6885 18.2256C41.2354 18.3721 41.6846 18.5186 41.6846 18.5479C41.6846 18.5772 41.2939 18.9873 40.8154 19.4658L39.9365 20.335L39.79 19.8076C39.7119 19.5147 39.5557 18.958 39.4482 18.5576L39.2529 17.8447L39.4678 17.9033C39.585 17.9326 40.1318 18.0791 40.6885 18.2256Z" fill="#AC39FF"/>
<path d="M11.694 33.8701C10.9323 34.6416 11.7721 35.8721 12.7487 35.4033C13.3835 35.1006 13.4909 34.29 12.9538 33.831C12.5436 33.4892 12.0651 33.499 11.694 33.8701Z" fill="#AC39FF"/>
</svg>
