<svg width="61" height="56" viewBox="0 0 61 56" fill="none" xmlns="http://www.w3.org/2000/svg">
<path d="M55.9056 0.0546875H5.4156C2.6956 0.0546875 0.485596 2.26469 0.485596 4.98469V37.1997C0.485596 39.9197 2.6956 42.1297 5.4156 42.1297H24.9656V49.6947H18.5056C15.7856 49.6947 13.6606 51.9047 13.6606 54.5397C13.6606 55.1347 14.1706 55.5597 14.6806 55.5597H46.6406C47.2356 55.5597 47.6606 55.0497 47.6606 54.5397C47.6606 51.8197 45.4506 49.6947 42.8156 49.6947H36.3556V42.1297H55.9056C58.6256 42.1297 60.8356 39.9197 60.8356 37.1997V5.06969C60.9206 2.34969 58.6256 0.0546875 55.9056 0.0546875ZM27.0906 49.7797V42.2147H34.3156V49.7797H27.0906ZM42.8156 51.8197C44.0056 51.8197 45.0256 52.4997 45.4506 53.6047H15.9556C16.3806 52.5847 17.4006 51.8197 18.5906 51.8197H42.8156ZM58.7956 36.3497V37.1997C58.7956 38.8147 57.5206 40.0897 55.9056 40.0897H5.4156C3.8006 40.0897 2.5256 38.8147 2.5256 37.1997V36.3497H58.7956ZM58.7956 6.85469V34.2247H2.5256V6.85469H58.7956ZM58.7956 4.81469H2.5256C2.6956 3.36969 3.8856 2.17969 5.4156 2.17969H55.9056C57.4356 2.17969 58.6256 3.28469 58.7956 4.81469Z" fill="url(#paint0_linear_10_10040)"/>
<path d="M4.8206 10.5097H7.9656C8.5606 10.5097 8.9856 9.99973 8.9856 9.48973C8.9856 8.97973 8.4756 8.46973 7.9656 8.46973H4.8206C4.2256 8.46973 3.8006 8.97973 3.8006 9.48973C3.8006 9.99973 4.2256 10.5097 4.8206 10.5097Z" fill="url(#paint1_linear_10_10040)"/>
<path d="M10.6856 10.5097H13.8306C14.4256 10.5097 14.8506 9.99973 14.8506 9.48973C14.8506 8.97973 14.3406 8.46973 13.8306 8.46973H10.6856C10.0906 8.46973 9.66559 8.97973 9.66559 9.48973C9.66559 9.99973 10.0906 10.5097 10.6856 10.5097Z" fill="url(#paint2_linear_10_10040)"/>
<path d="M16.5506 10.5097H19.6956C20.2906 10.5097 20.7156 9.99973 20.7156 9.48973C20.7156 8.97973 20.2056 8.46973 19.6956 8.46973H16.5506C15.9556 8.46973 15.5306 8.97973 15.5306 9.48973C15.5306 9.99973 15.9556 10.5097 16.5506 10.5097Z" fill="url(#paint3_linear_10_10040)"/>
<path d="M4.8206 32.6948H19.6956C20.2906 32.6948 20.7156 32.2698 20.7156 31.6748V14.6748C20.7156 14.0798 20.2056 13.6548 19.6956 13.6548H4.8206C4.2256 13.6548 3.8006 14.1648 3.8006 14.6748V31.6748C3.8006 32.2698 4.2256 32.6948 4.8206 32.6948ZM5.8406 30.6548V15.6948H18.5906V30.6548H5.8406Z" fill="url(#paint4_linear_10_10040)"/>
<path d="M28.8756 16.0346H51.4006C51.9956 16.0346 52.4206 15.5246 52.4206 15.0146C52.4206 14.4196 51.9106 13.9946 51.4006 13.9946H28.8756C28.2806 13.9946 27.8556 14.5046 27.8556 15.0146C27.8556 15.5246 28.2806 16.0346 28.8756 16.0346Z" fill="url(#paint5_linear_10_10040)"/>
<path d="M28.8756 21.1347H51.4006C51.9956 21.1347 52.4206 20.6247 52.4206 20.1147C52.4206 19.5197 51.9106 19.0947 51.4006 19.0947H28.8756C28.2806 19.0947 27.8556 19.6047 27.8556 20.1147C27.8556 20.6247 28.2806 21.1347 28.8756 21.1347Z" fill="url(#paint6_linear_10_10040)"/>
<path d="M28.8756 26.1496H51.4006C51.9956 26.1496 52.4206 25.6396 52.4206 25.1296C52.4206 24.6196 51.9106 24.1096 51.4006 24.1096H28.8756C28.2806 24.1096 27.8556 24.6196 27.8556 25.1296C27.8556 25.6396 28.2806 26.1496 28.8756 26.1496Z" fill="url(#paint7_linear_10_10040)"/>
<path d="M28.8756 31.2497H51.4006C51.9956 31.2497 52.4206 30.8247 52.4206 30.2297C52.4206 29.6347 51.9106 29.2097 51.4006 29.2097H28.8756C28.2806 29.2097 27.8556 29.7197 27.8556 30.2297C27.8556 30.7397 28.2806 31.2497 28.8756 31.2497Z" fill="url(#paint8_linear_10_10040)"/>
<defs>
<linearGradient id="paint0_linear_10_10040" x1="-9.99976" y1="52.5" x2="107.5" y2="-11.5" gradientUnits="userSpaceOnUse">
<stop stop-color="#283445"/>
<stop offset="1" stop-color="#283445" stop-opacity="0.5"/>
</linearGradient>
<linearGradient id="paint1_linear_10_10040" x1="2.89978" y1="10.3973" x2="7.89378" y2="4.03888" gradientUnits="userSpaceOnUse">
<stop stop-color="#283445"/>
<stop offset="1" stop-color="#283445" stop-opacity="0.5"/>
</linearGradient>
<linearGradient id="paint2_linear_10_10040" x1="8.76477" y1="10.3973" x2="13.7588" y2="4.03888" gradientUnits="userSpaceOnUse">
<stop stop-color="#283445"/>
<stop offset="1" stop-color="#283445" stop-opacity="0.5"/>
</linearGradient>
<linearGradient id="paint3_linear_10_10040" x1="14.6298" y1="10.3973" x2="19.6238" y2="4.03888" gradientUnits="userSpaceOnUse">
<stop stop-color="#283445"/>
<stop offset="1" stop-color="#283445" stop-opacity="0.5"/>
</linearGradient>
<linearGradient id="paint4_linear_10_10040" x1="0.861858" y1="31.6452" x2="36.5048" y2="15.7832" gradientUnits="userSpaceOnUse">
<stop stop-color="#283445"/>
<stop offset="1" stop-color="#283445" stop-opacity="0.5"/>
</linearGradient>
<linearGradient id="paint5_linear_10_10040" x1="23.5878" y1="15.9222" x2="25.2465" y2="5.91639" gradientUnits="userSpaceOnUse">
<stop stop-color="#283445"/>
<stop offset="1" stop-color="#283445" stop-opacity="0.5"/>
</linearGradient>
<linearGradient id="paint6_linear_10_10040" x1="23.5878" y1="21.0223" x2="25.2465" y2="11.0165" gradientUnits="userSpaceOnUse">
<stop stop-color="#283445"/>
<stop offset="1" stop-color="#283445" stop-opacity="0.5"/>
</linearGradient>
<linearGradient id="paint7_linear_10_10040" x1="23.5878" y1="26.0372" x2="25.2465" y2="16.0314" gradientUnits="userSpaceOnUse">
<stop stop-color="#283445"/>
<stop offset="1" stop-color="#283445" stop-opacity="0.5"/>
</linearGradient>
<linearGradient id="paint8_linear_10_10040" x1="23.5878" y1="31.1373" x2="25.2465" y2="21.1315" gradientUnits="userSpaceOnUse">
<stop stop-color="#283445"/>
<stop offset="1" stop-color="#283445" stop-opacity="0.5"/>
</linearGradient>
</defs>
</svg>
