<svg width="61" height="60" viewBox="0 0 61 60" fill="none" xmlns="http://www.w3.org/2000/svg">
<path d="M12 12L12.0829 11.2546C11.8709 11.231 11.6588 11.2989 11.4998 11.4411C11.3409 11.5834 11.25 11.7867 11.25 12H12ZM12 20.7062H11.25C11.25 21.0866 11.5349 21.4068 11.9127 21.4511L12 20.7062ZM15.7462 26.1911L15.6865 25.4434L15.6025 25.4501L15.5222 25.4753L15.7462 26.1911ZM47.9373 38.7279H48.6873C48.6873 38.3469 48.4016 38.0264 48.023 37.9828L47.9373 38.7279ZM47.9373 48L47.8467 48.7445C48.0598 48.7704 48.2739 48.7038 48.4346 48.5615C48.5953 48.4191 48.6873 48.2147 48.6873 48H47.9373ZM15.7462 44.0822L15.6133 44.8204L15.6344 44.8242L15.6556 44.8267L15.7462 44.0822ZM12 40.8609H11.25L11.25 40.8649L12 40.8609ZM12 29.8476L11.2655 29.696L11.25 29.771V29.8476H12ZM41.3597 15.2648L41.4559 14.5209L41.4426 14.5194L41.3597 15.2648ZM43.6684 32.9383L43.7244 33.6862L43.762 33.6834L43.7992 33.6768L43.6684 32.9383ZM47.9373 29.1947L48.6654 29.3748L48.6873 29.2861V29.1947H47.9373ZM14.9962 17.7461C14.9962 18.1603 15.332 18.4961 15.7462 18.4961C16.1604 18.4961 16.4962 18.1603 16.4962 17.7461H14.9962ZM19.4924 12.8332L19.5753 12.0878L19.4924 12.8332ZM18.7424 15.9178C18.7424 16.332 19.0782 16.6678 19.4924 16.6678C19.9066 16.6678 20.2424 16.332 20.2424 15.9178H18.7424ZM22.7499 16.5272C22.7499 16.9414 23.0857 17.2772 23.4999 17.2772C23.9142 17.2772 24.2499 16.9414 24.2499 16.5272H22.7499ZM27.1155 13.6808L27.1983 12.9354L27.1155 13.6808ZM26.3655 19.2261C26.3655 19.6403 26.7012 19.9761 27.1155 19.9761C27.5297 19.9761 27.8655 19.6403 27.8655 19.2261H26.3655ZM30.0681 17.7461C30.0681 18.1603 30.4039 18.4961 30.8181 18.4961C31.2323 18.4961 31.5681 18.1603 31.5681 17.7461H30.0681ZM34.4772 14.4995L34.5601 13.7541L34.4772 14.4995ZM33.7272 17.7461C33.7272 18.1603 34.0629 18.4961 34.4772 18.4961C34.8914 18.4961 35.2272 18.1603 35.2272 17.7461H33.7272ZM37.2556 20.4133C37.2622 20.8274 37.6032 21.1579 38.0174 21.1514C38.4316 21.1448 38.762 20.8038 38.7555 20.3896L37.2556 20.4133ZM41.2631 18.8779C41.2631 19.2921 41.5989 19.6279 42.0131 19.6279C42.4273 19.6279 42.7631 19.2921 42.7631 18.8779H41.2631ZM45.8726 16.9625L46.3133 16.3557L45.8726 16.9625ZM45.1226 19.2261C45.1226 19.6403 45.4584 19.9761 45.8726 19.9761C46.2868 19.9761 46.6226 19.6403 46.6226 19.2261H45.1226ZM45.1226 26.6699C45.1226 27.0841 45.4584 27.4199 45.8726 27.4199C46.2868 27.4199 46.6226 27.0841 46.6226 26.6699H45.1226ZM41.2631 27.0617C41.2631 27.4759 41.5989 27.8117 42.0131 27.8117C42.4273 27.8117 42.7631 27.4759 42.7631 27.0617H41.2631ZM38.0056 24.413L37.9458 23.6654L38.0056 24.413ZM37.2556 29.8476C37.2556 30.2619 37.5913 30.5976 38.0056 30.5976C38.4198 30.5976 38.7556 30.2619 38.7556 29.8476H37.2556ZM34.4772 24.6949L34.4174 23.9472L34.4772 24.6949ZM33.7272 27.9323C33.7272 28.3465 34.0629 28.6823 34.4772 28.6823C34.8914 28.6823 35.2272 28.3465 35.2272 27.9323H33.7272ZM30.0681 28.4111C30.0681 28.8253 30.4039 29.1611 30.8181 29.1611C31.2323 29.1611 31.5681 28.8253 31.5681 28.4111H30.0681ZM26.3655 30.8489C26.3655 31.2631 26.7012 31.5989 27.1155 31.5989C27.5297 31.5989 27.8655 31.2631 27.8655 30.8489H26.3655ZM23.4999 25.5717L23.4402 24.8241L23.4999 25.5717ZM22.7499 29.1947C22.7499 29.6089 23.0857 29.9447 23.4999 29.9447C23.9142 29.9447 24.2499 29.6089 24.2499 29.1947H22.7499ZM18.8731 29.1947C18.8731 29.6089 19.2089 29.9447 19.6231 29.9447C20.0373 29.9447 20.3731 29.6089 20.3731 29.1947H18.8731ZM14.9962 31.8936C14.9962 32.3078 15.332 32.6436 15.7462 32.6436C16.1604 32.6436 16.4962 32.3078 16.4962 31.8936H14.9962ZM14.9962 40.3821C14.9962 40.7963 15.332 41.1321 15.7462 41.1321C16.1604 41.1321 16.4962 40.7963 16.4962 40.3821H14.9962ZM18.8731 38.7279C18.8731 39.1421 19.2089 39.4779 19.6231 39.4779C20.0373 39.4779 20.3731 39.1421 20.3731 38.7279H18.8731ZM22.7499 38.7279C22.7499 39.1421 23.0857 39.4779 23.4999 39.4779C23.9142 39.4779 24.2499 39.1421 24.2499 38.7279H22.7499ZM27.1155 36.3346L27.2011 35.5895L27.1155 36.3346ZM26.3655 41.5574C26.3655 41.9716 26.7012 42.3074 27.1155 42.3074C27.5297 42.3074 27.8655 41.9716 27.8655 41.5574H26.3655ZM30.0681 40.0339C30.0681 40.4481 30.4039 40.7839 30.8181 40.7839C31.2323 40.7839 31.5681 40.4481 31.5681 40.0339H30.0681ZM34.4772 37.1808L34.5628 36.4357L34.4772 37.1808ZM33.7272 40.3821C33.7272 40.7963 34.0629 41.1321 34.4772 41.1321C34.8914 41.1321 35.2272 40.7963 35.2272 40.3821H33.7272ZM37.2556 43.0375C37.2556 43.4517 37.5913 43.7875 38.0056 43.7875C38.4198 43.7875 38.7556 43.4517 38.7556 43.0375H37.2556ZM42.0131 38.047L42.0988 37.3019L42.0131 38.047ZM41.2631 41.5574C41.2631 41.9716 41.5989 42.3074 42.0131 42.3074C42.4273 42.3074 42.7631 41.9716 42.7631 41.5574H41.2631ZM45.1226 41.5574C45.1226 41.9716 45.4584 42.3074 45.8726 42.3074C46.2868 42.3074 46.6226 41.9716 46.6226 41.5574H45.1226ZM11.25 12V20.7062H12.75V12H11.25ZM11.9127 21.4511L41.2725 24.89L41.447 23.4002L12.0873 19.9613L11.9127 21.4511ZM47.1873 38.7279V48H48.6873V38.7279H47.1873ZM48.0279 47.2555L15.8368 43.3377L15.6556 44.8267L47.8467 48.7445L48.0279 47.2555ZM15.879 43.3441C14.5332 43.1019 13.7791 42.8683 13.3416 42.5271C12.987 42.2506 12.7552 41.8302 12.75 40.857L11.25 40.8649C11.2565 42.0955 11.5683 43.0464 12.4191 43.7099C13.1871 44.3088 14.3002 44.584 15.6133 44.8204L15.879 43.3441ZM12.75 40.8609V29.8476H11.25V40.8609H12.75ZM11.2501 29.8565C11.268 31.3758 11.3814 32.6933 12.0351 33.716C12.7183 34.7849 13.8812 35.38 15.5828 35.7598L15.9096 34.2958C14.3588 33.9497 13.6667 33.4834 13.2989 32.9081C12.9017 32.2866 12.7681 31.3771 12.7499 29.8388L11.2501 29.8565ZM12.7345 29.9993C12.9367 29.02 13.2136 28.4634 13.6374 28.0553C14.0823 27.6269 14.7695 27.2826 15.9702 26.9068L15.5222 25.4753C14.271 25.8669 13.3032 26.2948 12.597 26.9748C11.8696 27.6752 11.4994 28.5632 11.2655 29.696L12.7345 29.9993ZM15.8022 35.7757L43.7244 33.6862L43.6124 32.1904L15.6902 34.2799L15.8022 35.7757ZM43.7992 33.6768C45.1705 33.4339 46.252 33.0926 47.0662 32.3902C47.8941 31.6761 48.3424 30.6805 48.6654 29.3748L47.2093 29.0146C46.9163 30.1988 46.5694 30.8377 46.0865 31.2544C45.5899 31.6827 44.8449 31.9683 43.5376 32.1998L43.7992 33.6768ZM48.6873 29.1947V20.9468H47.1873V29.1947H48.6873ZM11.9171 12.7454L15.6633 13.162L15.8291 11.6712L12.0829 11.2546L11.9171 12.7454ZM14.9962 12.4166V17.7461H16.4962V12.4166H14.9962ZM15.6633 13.162L19.4095 13.5786L19.5753 12.0878L15.8291 11.6712L15.6633 13.162ZM18.7424 12.8332V15.9178H20.2424V12.8332H18.7424ZM19.4095 13.5786L23.4171 14.0242L23.5828 12.5334L19.5753 12.0878L19.4095 13.5786ZM22.7499 13.2788V16.5272H24.2499V13.2788H22.7499ZM23.4171 14.0242L27.0326 14.4263L27.1983 12.9354L23.5828 12.5334L23.4171 14.0242ZM26.3655 13.6808V19.2261H27.8655V13.6808H26.3655ZM27.0326 14.4263L30.7352 14.838L30.901 13.3472L27.1983 12.9354L27.0326 14.4263ZM30.0681 14.0926V17.7461H31.5681V14.0926H30.0681ZM30.7352 14.838L34.3943 15.2449L34.5601 13.7541L30.901 13.3472L30.7352 14.838ZM33.7272 14.4995V17.7461H35.2272V14.4995H33.7272ZM34.3943 15.2449L37.8355 15.6275L38.0013 14.1367L34.5601 13.7541L34.3943 15.2449ZM37.8355 15.6275L41.2768 16.0102L41.4426 14.5194L38.0013 14.1367L37.8355 15.6275ZM37.1685 14.894L37.2556 20.4133L38.7555 20.3896L38.6683 14.8703L37.1685 14.894ZM41.2635 16.0086C41.4715 16.0355 41.6753 16.0679 41.8747 16.1053L42.1515 14.6311C41.9239 14.5883 41.692 14.5515 41.4559 14.521L41.2635 16.0086ZM41.2631 15.3682V18.8779H42.7631V15.3682H41.2631ZM41.8747 16.1053C43.3189 16.3765 44.5285 16.9133 45.4319 17.5694L46.3133 16.3557C45.2148 15.5579 43.7946 14.9396 42.1515 14.6311L41.8747 16.1053ZM45.1226 16.9625V19.2261H46.6226V16.9625H45.1226ZM45.4319 17.5694C46.6173 18.4303 47.2022 19.4348 47.2471 20.2697C47.2882 21.0332 46.8857 21.8797 45.5464 22.5266L46.1988 23.8773C47.9357 23.0384 48.8264 21.7044 48.745 20.1892C48.6673 18.7454 47.7141 17.373 46.3133 16.3557L45.4319 17.5694ZM45.1226 23.2019V26.6699H46.6226V23.2019H45.1226ZM45.5464 22.5266C44.715 22.9281 43.5405 23.2369 41.9557 23.3585L42.0705 24.8541C43.7802 24.7229 45.1508 24.3834 46.1988 23.8773L45.5464 22.5266ZM41.9557 23.3585C41.7529 23.3741 41.5436 23.3866 41.3277 23.3958L41.3917 24.8944C41.6239 24.8845 41.8502 24.871 42.0705 24.8541L41.9557 23.3585ZM41.2631 24.1063V27.0617H42.7631V24.1063H41.2631ZM41.3 23.3975L37.9458 23.6654L38.0653 25.1606L41.4194 24.8927L41.3 23.3975ZM37.2556 24.413V29.8476H38.7556V24.413H37.2556ZM37.9458 23.6654L34.4174 23.9472L34.5369 25.4425L38.0653 25.1606L37.9458 23.6654ZM33.7272 24.6949V27.9323H35.2272V24.6949H33.7272ZM34.4174 23.9472L30.7584 24.2395L30.8778 25.7348L34.5369 25.4425L34.4174 23.9472ZM30.0681 24.9871V28.4111H31.5681V24.9871H30.0681ZM30.7584 24.2395L27.0557 24.5353L27.1752 26.0305L30.8778 25.7348L30.7584 24.2395ZM26.3655 25.2829V30.8489H27.8655V25.2829H26.3655ZM27.0557 24.5353L23.4402 24.8241L23.5597 26.3193L27.1752 26.0305L27.0557 24.5353ZM22.7499 25.5717V29.1947H24.2499V25.5717H22.7499ZM23.4402 24.8241L19.5634 25.1338L19.6828 26.629L23.5597 26.3193L23.4402 24.8241ZM19.5634 25.1338L15.6865 25.4434L15.8059 26.9387L19.6828 26.629L19.5634 25.1338ZM18.8731 25.8814V29.1947H20.3731V25.8814H18.8731ZM14.9962 26.1911V31.8936H16.4962V26.1911H14.9962ZM14.9962 35.0278V40.3821H16.4962V35.0278H14.9962ZM15.6606 35.7729L19.5374 36.2185L19.7087 34.7283L15.8318 34.2827L15.6606 35.7729ZM18.8731 35.4734V38.7279H20.3731V35.4734H18.8731ZM19.5374 36.2185L23.4143 36.6641L23.5856 35.174L19.7087 34.7283L19.5374 36.2185ZM22.7499 35.919V38.7279H24.2499V35.919H22.7499ZM23.4143 36.6641L27.0298 37.0797L27.2011 35.5895L23.5856 35.174L23.4143 36.6641ZM26.3655 36.3346V41.5574H27.8655V36.3346H26.3655ZM27.0298 37.0797L30.7324 37.5053L30.9037 36.0151L27.2011 35.5895L27.0298 37.0797ZM30.0681 36.7602V40.0339H31.5681V36.7602H30.0681ZM30.7324 37.5053L34.3915 37.9259L34.5628 36.4357L30.9037 36.0151L30.7324 37.5053ZM33.7272 37.1808V40.3821H35.2272V37.1808H33.7272ZM34.3915 37.9259L37.9199 38.3314L38.0912 36.8413L34.5628 36.4357L34.3915 37.9259ZM37.2556 37.5864V43.0375H38.7556V37.5864H37.2556ZM37.9199 38.3314L41.9275 38.7921L42.0988 37.3019L38.0912 36.8413L37.9199 38.3314ZM41.2631 38.047V41.5574H42.7631V38.047H41.2631ZM41.9275 38.7921L45.787 39.2357L45.9582 37.7455L42.0988 37.3019L41.9275 38.7921ZM45.787 39.2357L47.8517 39.473L48.023 37.9828L45.9582 37.7455L45.787 39.2357ZM45.1226 38.4906V41.5574H46.6226V38.4906H45.1226Z" fill="#F5F5F7"/>
</svg>
