<svg width="61" height="60" viewBox="0 0 61 60" fill="none" xmlns="http://www.w3.org/2000/svg">
<path d="M34.9418 37.9353C34.9418 37.9353 32.171 39.1747 30.3957 37.9353V35.7481C29.7034 34.9737 29.4918 34.6278 29.4918 33.3742C28.7474 32.5656 30.3957 28.2506 28.7474 26.9728C29.6513 25.0523 30.211 24.7759 31.3528 24.5722C32.209 24.425 32.7399 24.448 33.453 24.5722C34.3048 24.7625 34.6388 25.0493 34.9418 25.6124C36.9332 26.2864 37.2642 27.4849 36.2711 31.2671C36.8825 32.0939 36.8319 32.7607 35.8457 33.3742C35.8457 34.6278 35.6596 34.974 34.9418 35.7481V37.9353ZM34.9418 37.9353C35.8457 38.8405 36.2711 39.1498 38.5164 39.9624C41.1956 40.932 41.1956 43.02 41.1956 43.5632H33.453" stroke="#283445" stroke-width="1.5"/>
<path d="M40.9025 35.7983C40.9025 35.7983 38.5056 36.8692 36.9698 35.7983V33.9086C36.3709 33.2396 36.9698 32.9091 36.7277 31.8781C36.0786 31.0762 38.026 27.4104 35.7731 25.9211C36.555 24.2618 36.8101 24.4287 37.7978 24.2526C38.5385 24.1255 38.9977 24.1453 39.6146 24.2526C40.3515 24.4171 40.6403 24.6649 40.9025 25.1514C42.6252 25.7337 42.9115 26.7692 42.0524 30.037C42.5813 30.7514 42.5375 31.3275 41.6844 31.8576C41.6844 32.9407 41.5234 33.2398 40.9025 33.9086V35.7983ZM40.9025 35.7983C41.6844 36.5805 42.0524 36.8477 43.9948 37.5498C46.3124 38.3875 46.3124 40.1916 46.3124 40.6609H39.6146" stroke="#283445" stroke-width="1.5"/>
<path d="M22.3178 40.3235C21.2026 41.3615 20.3 41.8612 18.2222 42.6182C15.8246 43.6419 15.1409 44.5447 15 46.6943H34.5512C34.5512 46.0794 34.5512 43.7158 31.5165 42.6182C28.973 41.6983 28.4912 41.3482 27.4673 40.3235M22.3178 40.3235C24.3287 41.7265 27.4673 40.3235 27.4673 40.3235M22.3178 40.3235V37.8476C21.5335 36.971 21.2939 36.5794 21.2939 35.1604C20.3302 34.4659 20.0291 33.711 20.9325 32.7751C20.2536 30.628 19.8484 29.484 20.4507 27.9139C21.4746 25.74 22.1086 25.4271 23.4019 25.1965C24.3718 25.0298 24.9732 25.0559 25.7809 25.1965C26.7458 25.4119 27.124 25.7366 27.4673 26.3741C29.7231 27.137 30.098 28.4936 28.973 32.7751C29.6657 33.711 29.6083 34.4659 28.4912 35.1604C28.4912 36.5794 28.2804 36.9713 27.4673 37.8476V40.3235" stroke="#283445" stroke-width="1.5"/>
<path d="M23.9201 22.1025C23.9201 22.4063 24.1663 22.6525 24.4701 22.6525C24.7738 22.6525 25.0201 22.4063 25.0201 22.1025L23.9201 22.1025ZM24.859 14.611C24.6442 14.3962 24.296 14.3962 24.0812 14.611L20.581 18.1112C20.3662 18.326 20.3662 18.6742 20.581 18.889C20.7958 19.1038 21.144 19.1038 21.3588 18.889L24.4701 15.7778L27.5814 18.889C27.7962 19.1038 28.1444 19.1038 28.3592 18.889C28.574 18.6742 28.574 18.326 28.3592 18.1112L24.859 14.611ZM25.0201 22.1025L25.0201 14.9999L23.9201 14.9999L23.9201 22.1025L25.0201 22.1025Z" fill="#283445"/>
</svg>
