<svg width="61" height="60" viewBox="0 0 61 60" fill="none" xmlns="http://www.w3.org/2000/svg">
<path d="M13.0429 15.1649C12.6293 15.1413 12.2749 15.4573 12.2512 15.8708C12.2276 16.2844 12.5436 16.6388 12.9571 16.6625L13.0429 15.1649ZM15.8696 15.9137L15.8024 15.1667L15.8696 15.9137ZM32.6522 15.9137L33.272 15.4915C33.2147 15.4073 33.1407 15.3356 33.0547 15.2809L32.6522 15.9137ZM37.3478 22.8072L38.0909 22.7054C38.0751 22.5905 38.033 22.4808 37.9677 22.3849L37.3478 22.8072ZM35.2609 24.853L34.6762 25.3227C34.7942 25.4697 34.9634 25.5668 35.1498 25.5947L35.2609 24.853ZM30.6522 19.1158L31.2369 18.6461C31.139 18.5243 31.0054 18.436 30.8549 18.3938L30.6522 19.1158ZM26.2174 17.8706L26.4201 17.1485C26.4042 17.144 26.3881 17.1401 26.372 17.1367L26.2174 17.8706ZM25.0435 21.2061L24.8699 21.9358C24.9268 21.9493 24.985 21.9561 25.0435 21.9561V21.2061ZM30.1304 21.2061L30.5826 20.6077C30.4524 20.5093 30.2936 20.4561 30.1304 20.4561V21.2061ZM34.9565 24.853L35.6051 25.2296L35.9387 24.6551L35.4087 24.2546L34.9565 24.853ZM34 26.5L34.0436 27.2487C34.2949 27.2341 34.5221 27.0944 34.6486 26.8767L34 26.5ZM33.2609 26.543V27.293H33.2827L33.3044 27.2917L33.2609 26.543ZM24.6087 26.543V25.793H24.5403L24.4729 25.8054L24.6087 26.543ZM19.4348 26.543L19.2132 27.2595L19.4348 26.543ZM15.8696 24.4082L16.0326 23.6762L15.8696 24.4082ZM12.898 23.6652C12.4877 23.7215 12.2007 24.0998 12.257 24.5102C12.3133 24.9206 12.6916 25.2076 13.102 25.1513L12.898 23.6652ZM30.5217 28.8112H29.7717V29.2052L30.0963 29.4288L30.5217 28.8112ZM32.6522 30.2788H33.4022V29.8847L33.0777 29.6612L32.6522 30.2788ZM32.6522 35.8825H31.9022V36.056L31.9784 36.2119L32.6522 35.8825ZM35.7826 35.8825L36.4754 36.1699L36.5326 36.0319V35.8825H35.7826ZM35.7826 30.2788L35.3687 29.6534L35.0326 29.8758V30.2788H35.7826ZM38 28.8112L38.4139 29.4366L38.75 29.2142V28.8112H38ZM38 25.1643H38.75V24.7711L38.4265 24.5474L38 25.1643ZM13 15.9137C12.9571 16.6625 12.9572 16.6625 12.9572 16.6625C12.9573 16.6625 12.9573 16.6625 12.9574 16.6625C12.9575 16.6625 12.9576 16.6625 12.9577 16.6625C12.958 16.6625 12.9584 16.6626 12.959 16.6626C12.96 16.6626 12.9615 16.6627 12.9633 16.6628C12.967 16.663 12.9724 16.6633 12.9794 16.6637C12.9933 16.6645 13.0135 16.6655 13.0394 16.6669C13.0913 16.6695 13.1661 16.6731 13.2591 16.6771C13.445 16.6851 13.7045 16.6948 14 16.7012C14.5829 16.7138 15.335 16.7148 15.9367 16.6607L15.8024 15.1667C15.288 15.213 14.6053 15.214 14.0325 15.2015C13.7501 15.1954 13.5015 15.1862 13.3237 15.1785C13.2349 15.1747 13.164 15.1713 13.1156 15.1688C13.0914 15.1676 13.0729 15.1666 13.0605 15.1659C13.0544 15.1656 13.0498 15.1653 13.0468 15.1652C13.0453 15.1651 13.0442 15.165 13.0436 15.165C13.0433 15.165 13.043 15.1649 13.0429 15.1649C13.0428 15.1649 13.0428 15.1649 13.0428 15.1649C13.0428 15.1649 13.0428 15.1649 13.0428 15.1649C13.0428 15.1649 13.0429 15.1649 13 15.9137ZM15.9367 16.6607C18.0489 16.4708 20.0829 15.4117 21.6975 14.4753C22.5374 13.9882 23.2262 13.5567 23.8424 13.2214C24.1426 13.0581 24.3955 12.9348 24.6058 12.8535C24.8246 12.769 24.9472 12.75 25 12.75V11.25C24.6778 11.25 24.3546 11.3425 24.0651 11.4543C23.7673 11.5694 23.4496 11.7275 23.1254 11.9039C22.4927 12.2481 21.7171 12.7299 20.9449 13.1778C19.3352 14.1114 17.5541 15.0092 15.8024 15.1667L15.9367 16.6607ZM25 12.75C25.0575 12.75 25.22 12.776 25.516 12.8775C25.7934 12.9728 26.1306 13.1138 26.5118 13.2914C27.2731 13.646 28.1629 14.1241 29.0187 14.6093C29.872 15.0931 30.6805 15.5779 31.2763 15.9421C31.5739 16.1241 31.818 16.2756 31.9873 16.3815C32.0719 16.4344 32.1379 16.4759 32.1825 16.504C32.2048 16.5181 32.2217 16.5288 32.233 16.536C32.2387 16.5396 32.2429 16.5423 32.2457 16.544C32.2471 16.5449 32.2481 16.5456 32.2488 16.546C32.2491 16.5462 32.2493 16.5463 32.2495 16.5464C32.2495 16.5465 32.2496 16.5465 32.2496 16.5465C32.2496 16.5465 32.2496 16.5465 32.6522 15.9137C33.0547 15.2809 33.0547 15.2809 33.0546 15.2808C33.0545 15.2808 33.0544 15.2807 33.0543 15.2806C33.0541 15.2805 33.0538 15.2803 33.0533 15.28C33.0525 15.2795 33.0513 15.2787 33.0497 15.2777C33.0466 15.2757 33.042 15.2728 33.0359 15.269C33.0238 15.2613 33.0061 15.2501 32.983 15.2355C32.9367 15.2063 32.869 15.1637 32.7825 15.1096C32.6095 15.0015 32.3612 14.8472 32.0586 14.6623C31.4541 14.2927 30.6307 13.799 29.7585 13.3044C28.8887 12.8112 27.9592 12.3109 27.1451 11.9317C26.7386 11.7423 26.3491 11.5776 26.003 11.4588C25.6754 11.3463 25.3175 11.25 25 11.25V12.75ZM32.0323 16.3359L36.728 23.2294L37.9677 22.3849L33.272 15.4915L32.0323 16.3359ZM35.8456 24.3833L31.2369 18.6461L30.0675 19.5855L34.6762 25.3227L35.8456 24.3833ZM30.8549 18.3938L26.4201 17.1485L26.0146 18.5926L30.4494 19.8379L30.8549 18.3938ZM26.372 17.1367C25.4929 16.9515 24.7227 17.0546 24.1239 17.432C23.5263 17.8087 23.1939 18.3999 23.083 19.0023C22.8734 20.1409 23.4464 21.5971 24.8699 21.9358L25.217 20.4765C24.771 20.3704 24.4527 19.8475 24.5583 19.2739C24.605 19.0201 24.7319 18.8219 24.9237 18.701C25.1143 18.5809 25.4636 18.4783 26.0628 18.6045L26.372 17.1367ZM25.0435 21.9561H30.1304V20.4561H25.0435V21.9561ZM29.6783 21.8045L34.5044 25.4514L35.4087 24.2546L30.5826 20.6077L29.6783 21.8045ZM34.308 24.4763L33.3514 26.1233L34.6486 26.8767L35.6051 25.2296L34.308 24.4763ZM33.9564 25.7513L33.2173 25.7943L33.3044 27.2917L34.0436 27.2487L33.9564 25.7513ZM33.2609 25.793H30.5217V27.293H33.2609V25.793ZM30.5217 25.793H24.6087V27.293H30.5217V25.793ZM24.6087 26.543C24.4729 25.8054 24.473 25.8054 24.4731 25.8054C24.4731 25.8053 24.4732 25.8053 24.4732 25.8053C24.4732 25.8053 24.4732 25.8053 24.4732 25.8053C24.4731 25.8054 24.4727 25.8054 24.4722 25.8055C24.4712 25.8057 24.4695 25.806 24.4669 25.8065C24.4619 25.8074 24.4538 25.8088 24.4429 25.8107C24.4211 25.8145 24.3878 25.8202 24.3442 25.8274C24.257 25.8417 24.1287 25.8617 23.9681 25.8841C23.6462 25.929 23.1978 25.9829 22.6926 26.0187C21.6544 26.0924 20.4799 26.0812 19.6564 25.8265L19.2132 27.2595C20.32 27.6018 21.7325 27.5906 22.7987 27.515C23.3456 27.4762 23.8287 27.4181 24.1754 27.3697C24.349 27.3455 24.4892 27.3236 24.5869 27.3076C24.6358 27.2996 24.6741 27.293 24.7007 27.2884C24.714 27.2861 24.7244 27.2842 24.7317 27.2829C24.7354 27.2822 24.7383 27.2817 24.7404 27.2813C24.7415 27.2811 24.7424 27.281 24.743 27.2809C24.7434 27.2808 24.7437 27.2807 24.7439 27.2807C24.744 27.2807 24.7442 27.2807 24.7442 27.2806C24.7443 27.2806 24.7445 27.2806 24.6087 26.543ZM19.6564 25.8265C19.0526 25.6397 18.669 25.3026 18.1539 24.8595C17.6467 24.4233 17.0211 23.8964 16.0326 23.6762L15.7065 25.1403C16.302 25.273 16.6839 25.5737 17.1757 25.9967C17.6596 26.413 18.2666 26.9668 19.2132 27.2595L19.6564 25.8265ZM16.0326 23.6762C15.3806 23.5309 14.5774 23.5368 13.9853 23.5679C13.6794 23.5839 13.4102 23.608 13.2172 23.628C13.1205 23.638 13.0423 23.6471 12.9876 23.6538C12.9602 23.6571 12.9387 23.6599 12.9235 23.6618C12.916 23.6628 12.91 23.6636 12.9058 23.6642C12.9036 23.6644 12.9019 23.6647 12.9006 23.6649C12.9 23.6649 12.8994 23.665 12.899 23.6651C12.8988 23.6651 12.8986 23.6651 12.8984 23.6651C12.8984 23.6652 12.8983 23.6652 12.8982 23.6652C12.8981 23.6652 12.898 23.6652 13 24.4082C13.102 25.1513 13.1019 25.1513 13.1018 25.1513C13.1018 25.1513 13.1018 25.1513 13.1017 25.1513C13.1017 25.1513 13.1016 25.1513 13.1016 25.1513C13.1017 25.1513 13.1018 25.1513 13.102 25.1513C13.1024 25.1512 13.1032 25.1511 13.1045 25.1509C13.107 25.1506 13.1112 25.1501 13.1169 25.1493C13.1283 25.1478 13.146 25.1456 13.1693 25.1427C13.216 25.137 13.2851 25.129 13.3719 25.12C13.546 25.1019 13.7891 25.0802 14.0639 25.0658C14.6332 25.036 15.2648 25.0419 15.7065 25.1403L16.0326 23.6762ZM29.7717 26.543V28.8112H31.2717V26.543H29.7717ZM30.0963 29.4288L32.2267 30.8964L33.0777 29.6612L30.9472 28.1935L30.0963 29.4288ZM31.9022 30.2788V35.8825H33.4022V30.2788H31.9022ZM31.9784 36.2119C32.4585 37.1941 33.3346 37.7584 34.2731 37.7499C35.2142 37.7414 36.0662 37.1564 36.4754 36.1699L35.0898 35.5952C34.8903 36.0763 34.5466 36.2474 34.2595 36.25C33.9698 36.2526 33.585 36.083 33.326 35.5532L31.9784 36.2119ZM36.5326 35.8825V30.2788H35.0326V35.8825H36.5326ZM36.1966 30.9042L38.4139 29.4366L37.5861 28.1857L35.3687 29.6534L36.1966 30.9042ZM38.75 28.8112V25.1643H37.25V28.8112H38.75ZM36.6048 22.909C36.6626 23.3309 36.6752 23.6295 36.6554 23.8389C36.6357 24.047 36.5899 24.1033 36.5872 24.1066L37.7405 25.0657C38.0058 24.7467 38.1129 24.3584 38.1487 23.9801C38.1844 23.603 38.155 23.1732 38.0909 22.7054L36.6048 22.909ZM36.5872 24.1066C36.5866 24.1073 36.5825 24.1136 36.5599 24.1242C36.533 24.1369 36.4781 24.1561 36.3785 24.1687C36.169 24.1953 35.8505 24.1829 35.3719 24.1112L35.1498 25.5947C35.6702 25.6726 36.1511 25.7096 36.5674 25.6568C36.9968 25.6023 37.4275 25.4421 37.7405 25.0657L36.5872 24.1066ZM36.7373 25.203L37.5735 25.7812L38.4265 24.5474L37.5904 23.9692L36.7373 25.203Z" fill="#283445"/>
<path d="M49.7091 40.6673C50.0909 40.828 50.5306 40.6487 50.6913 40.2669C50.8519 39.8851 50.6726 39.4454 50.2909 39.2847L49.7091 40.6673ZM44.1024 37.4945L44.3933 36.8032L44.3575 36.7881L44.3204 36.7768L44.1024 37.4945ZM39.7686 37.4945L39.5327 36.7825L39.5164 36.7879L39.5003 36.7941L39.7686 37.4945ZM34.5859 39.4797V40.2297H34.7246L34.8542 40.1801L34.5859 39.4797ZM23.1482 37.0433L23.4309 36.3486C23.3891 36.3316 23.3458 36.3184 23.3016 36.3091L23.1482 37.0433ZM18.725 42.5479L18.3546 43.2C18.3735 43.2107 18.3928 43.2206 18.4125 43.2296L18.725 42.5479ZM41.9578 46.4282L41.7098 45.7204L41.6648 45.7361L41.6221 45.7575L41.9578 46.4282ZM46.1129 46.4282L46.5016 45.7867L46.4284 45.7423L46.347 45.7156L46.1129 46.4282ZM47.288 48.0171C47.6423 48.2318 48.1035 48.1186 48.3181 47.7644C48.5328 47.4101 48.4196 46.9489 48.0654 46.7343L47.288 48.0171ZM41.0225 43.0127C41.354 42.7644 41.4214 42.2943 41.173 41.9628C40.9247 41.6313 40.4546 41.5639 40.1231 41.8123L41.0225 43.0127ZM28.9564 43.1344L28.2683 43.4325C28.3076 43.5234 28.3646 43.6056 28.4359 43.6743L28.9564 43.1344ZM50.2909 39.2847L44.3933 36.8032L43.8115 38.1857L49.7091 40.6673L50.2909 39.2847ZM44.3204 36.7768C43.4472 36.5116 42.7074 36.3481 41.9421 36.3414C41.1715 36.3345 40.4253 36.4867 39.5327 36.7825L40.0046 38.2064C40.8043 37.9413 41.3788 37.8364 41.9289 37.8413C42.4843 37.8462 43.0652 37.9632 43.8844 38.2121L44.3204 36.7768ZM39.5003 36.7941L34.3176 38.7793L34.8542 40.1801L40.0369 38.1948L39.5003 36.7941ZM34.5859 38.7297H29.1351V40.2297H34.5859V38.7297ZM29.4178 38.785L23.4309 36.3486L22.8655 37.7379L28.8524 40.1744L29.4178 38.785ZM23.3016 36.3091C22.412 36.1232 21.5937 36.3853 21.0416 36.9772C20.5029 37.5547 20.2794 38.3768 20.3946 39.2203L21.8808 39.0173C21.8173 38.5522 21.9511 38.2012 22.1385 38.0004C22.3124 37.8139 22.5888 37.6925 22.9948 37.7774L23.3016 36.3091ZM21.3896 38.4123C19.5819 37.7678 17.9036 38.2592 17.1145 39.4089C16.7192 39.9848 16.5758 40.7049 16.7937 41.4203C17.0097 42.1291 17.551 42.7436 18.3546 43.2L19.0955 41.8957C18.5365 41.5782 18.306 41.2372 18.2286 40.9832C18.1532 40.7357 18.1949 40.4855 18.3512 40.2577C18.6653 39.8002 19.5558 39.351 20.8858 39.8252L21.3896 38.4123ZM18.725 42.5479C18.4125 43.2296 18.4126 43.2297 18.4127 43.2297C18.4128 43.2298 18.413 43.2299 18.4132 43.23C18.4136 43.2302 18.4143 43.2305 18.4152 43.2309C18.4169 43.2317 18.4195 43.2329 18.423 43.2344C18.4298 43.2376 18.44 43.2422 18.4534 43.2484C18.4803 43.2607 18.5201 43.2789 18.5721 43.3026C18.676 43.35 18.8284 43.4195 19.023 43.5079C19.4122 43.6848 19.97 43.9373 20.6448 44.2402C21.9942 44.846 23.8129 45.6542 25.6884 46.4627C27.5624 47.2705 29.4997 48.0816 31.0842 48.6918C31.8755 48.9965 32.5878 49.2546 33.1644 49.4376C33.4524 49.529 33.7151 49.6044 33.9418 49.6577C34.156 49.708 34.3846 49.75 34.5859 49.75V48.25C34.5859 48.25 34.5839 48.25 34.5797 48.2498C34.5754 48.2496 34.5695 48.2492 34.5617 48.2485C34.5459 48.247 34.5248 48.2445 34.4976 48.2403C34.4428 48.2318 34.3723 48.218 34.2847 48.1974C34.109 48.1561 33.886 48.0929 33.6182 48.0079C33.083 47.8381 32.4026 47.5921 31.6232 47.292C30.0662 46.6924 28.1501 45.8904 26.2822 45.0852C24.4159 44.2807 22.6045 43.4758 21.2592 42.8718C20.5867 42.5699 20.031 42.3183 19.6435 42.1423C19.4498 42.0543 19.2981 41.9851 19.195 41.9381C19.1434 41.9145 19.104 41.8965 19.0775 41.8844C19.0643 41.8783 19.0542 41.8737 19.0476 41.8707C19.0442 41.8691 19.0417 41.868 19.04 41.8672C19.0392 41.8668 19.0386 41.8666 19.0382 41.8664C19.038 41.8663 19.0378 41.8662 19.0377 41.8662C19.0376 41.8661 19.0376 41.8661 18.725 42.5479ZM34.5859 49.75C35.2593 49.75 36.0864 49.5617 36.8977 49.3159C37.725 49.0653 38.6009 48.7341 39.3948 48.4077C40.1904 48.0806 40.9135 47.7541 41.4373 47.5096C41.6995 47.3873 41.9124 47.2852 42.0603 47.2134C42.1342 47.1775 42.1919 47.1491 42.2315 47.1296C42.2512 47.1199 42.2664 47.1123 42.2769 47.1072C42.2821 47.1046 42.2861 47.1026 42.2889 47.1012C42.2903 47.1005 42.2914 47.0999 42.2922 47.0995C42.2925 47.0993 42.2929 47.0992 42.2931 47.0991C42.2932 47.099 42.2933 47.099 42.2934 47.0989C42.2935 47.0989 42.2936 47.0988 41.9578 46.4282C41.6221 45.7575 41.6222 45.7575 41.6222 45.7575C41.6222 45.7575 41.6222 45.7575 41.6221 45.7575C41.6221 45.7575 41.6219 45.7576 41.6217 45.7577C41.6212 45.758 41.6204 45.7584 41.6193 45.7589C41.6172 45.76 41.6138 45.7617 41.6092 45.7639C41.6001 45.7685 41.5862 45.7754 41.5677 45.7845C41.5309 45.8026 41.4761 45.8296 41.4052 45.864C41.2633 45.9328 41.0574 46.0317 40.8029 46.1504C40.2935 46.3882 39.5925 46.7046 38.8244 47.0204C38.0545 47.337 37.2271 47.6488 36.4627 47.8804C35.6824 48.1168 35.0295 48.25 34.5859 48.25V49.75ZM42.2059 47.136C43.0378 46.8444 43.6056 46.7475 44.1144 46.7601C44.6302 46.7728 45.1417 46.8986 45.8789 47.1407L46.347 45.7156C45.5769 45.4627 44.8945 45.2789 44.1513 45.2605C43.4012 45.242 42.6451 45.3926 41.7098 45.7204L42.2059 47.136ZM45.7243 47.0696L47.288 48.0171L48.0654 46.7343L46.5016 45.7867L45.7243 47.0696ZM20.8363 39.8056L28.3423 43.0993L28.945 41.7257L21.4391 38.432L20.8363 39.8056ZM29.3814 42.2775C29.2491 41.5548 29.1726 41.1418 29.2017 40.8032C29.2237 40.5476 29.3076 40.327 29.6305 40.0428L28.6397 38.9166C28.0508 39.4348 27.765 40.0031 27.7072 40.6746C27.6566 41.263 27.7902 41.9153 27.9059 42.5475L29.3814 42.2775ZM27.9555 42.7107L28.2683 43.4325L29.6446 42.8362L29.3318 42.1143L27.9555 42.7107ZM28.4359 43.6743C28.6002 43.8326 28.7988 43.9298 28.9633 43.9934C29.1373 44.0606 29.3312 44.112 29.531 44.1528C29.9305 44.2344 30.4179 44.2861 30.9492 44.316C32.0158 44.3761 33.3394 44.3521 34.6624 44.2663C35.9865 44.1804 37.3314 44.0311 38.4422 43.8349C38.9968 43.7369 39.5054 43.625 39.9293 43.4994C40.3304 43.3806 40.7362 43.2273 41.0225 43.0127L40.1231 41.8123C40.0632 41.8572 39.8769 41.9505 39.5033 42.0612C39.1526 42.1651 38.7038 42.2654 38.1812 42.3578C37.1376 42.5422 35.8493 42.6862 34.5653 42.7695C33.2802 42.8528 32.0208 42.874 31.0336 42.8184C30.538 42.7905 30.1307 42.7443 29.831 42.6831C29.681 42.6525 29.5742 42.6213 29.504 42.5942C29.4244 42.5634 29.4356 42.5545 29.4769 42.5944L28.4359 43.6743Z" fill="#283445"/>
</svg>
